<svg width="389" height="331" viewBox="0 0 389 331" fill="none" xmlns="http://www.w3.org/2000/svg">
<g clip-path="url(#clip0_230_11)">
<path d="M189.647 48.5857C194 53.728 188.565 56.9711 182.673 61.9312C176.781 66.8912 172.663 71.69 168.311 66.5477C163.958 61.4054 158.576 50.3261 166.911 43.3093C175.533 36.0507 185.294 43.4434 189.647 48.5857Z" fill="#2F2E41"/>
<path d="M179.003 63.8443C184.012 62.5021 186.989 57.3675 185.651 52.3759C184.314 47.3843 179.169 44.4258 174.159 45.768C169.15 47.1102 166.174 52.2448 167.511 57.2364C168.849 62.228 173.994 65.1865 179.003 63.8443Z" fill="#FFB8B8"/>
<path d="M232.255 82.8485C231.831 82.5242 231.41 82.2072 230.988 81.9022C230.442 81.5042 229.898 81.1228 229.355 80.7581C223.206 76.6119 217.294 74.5478 211.69 75.6588L211.683 75.6607L211.6 75.6752L203.484 89.2718L200.725 93.8921L200.859 94.0691L204.21 98.5234L239.472 89.075C237.179 86.873 234.77 84.7946 232.255 82.8485Z" fill="#2F2E41"/>
<path d="M167.694 61.088L170.533 58.6978L168.83 54.1517L172.036 57.4324L173.393 56.29L172.4 53.6381L174.27 55.5518L184.353 47.0629C182.655 45.0565 180.226 43.8063 177.6 43.5873C174.974 43.3683 172.366 44.1985 170.351 45.8952L168.889 47.1255C166.874 48.8222 165.616 51.2464 165.391 53.8649C165.167 56.4834 165.995 59.0816 167.694 61.088Z" fill="#2F2E41"/>
<path d="M286.796 205.01L97.4171 255.754C95.8012 256.185 94.081 255.96 92.6337 255.127C91.1864 254.295 90.1303 252.924 89.6972 251.315L59.3127 137.918C58.998 136.738 59.1657 135.482 59.7791 134.423C60.3925 133.365 61.4014 132.592 62.5845 132.274L255.144 80.6775C256.348 80.3562 257.631 80.5241 258.709 81.1444C259.788 81.7646 260.575 82.7866 260.898 83.986L291.262 197.306C291.691 198.916 291.462 200.631 290.625 202.076C289.788 203.52 288.41 204.575 286.796 205.01Z" fill="#F2F2F2"/>
<path d="M101.699 248.099L279.26 200.521C280.827 200.101 282.164 199.078 282.976 197.677C283.788 196.276 284.009 194.612 283.591 193.05L257.802 96.8042C257.383 95.2426 256.36 93.9118 254.956 93.1046C253.552 92.2973 251.883 92.0796 250.316 92.4995L72.7542 140.077C71.1872 140.497 69.8506 141.52 69.0384 142.921C68.2262 144.322 68.005 145.986 68.4235 147.548L94.2125 243.794C94.631 245.356 95.6547 246.686 97.0586 247.494C98.4625 248.301 100.132 248.519 101.699 248.099Z" fill="white"/>
<path d="M260.699 83.5842L59.1341 137.593L58.3058 134.502C57.8754 132.886 58.1057 131.165 58.9462 129.716C59.7867 128.268 61.1687 127.209 62.7892 126.774L252.124 76.0415C253.745 75.6085 255.471 75.834 256.923 76.6686C258.376 77.5031 259.436 78.8785 259.871 80.493L260.699 83.5842Z" fill="#6C63FF"/>
<path d="M69.4422 131.61C70.3158 131.376 70.8349 130.481 70.6016 129.61C70.3684 128.74 69.4711 128.224 68.5975 128.458C67.7239 128.692 67.2048 129.588 67.4381 130.458C67.6714 131.329 68.5686 131.845 69.4422 131.61Z" fill="white"/>
<path d="M75.4462 130.002C76.3198 129.768 76.8389 128.873 76.6056 128.002C76.3724 127.131 75.4751 126.616 74.6015 126.85C73.728 127.084 73.2089 127.979 73.4421 128.85C73.6754 129.72 74.5727 130.236 75.4462 130.002Z" fill="white"/>
<path d="M81.4501 128.394C82.3237 128.16 82.8428 127.264 82.6096 126.394C82.3763 125.523 81.479 125.007 80.6054 125.241C79.7319 125.475 79.2128 126.371 79.446 127.241C79.6793 128.112 80.5766 128.628 81.4501 128.394Z" fill="white"/>
<path d="M190.427 201.953L174.548 206.208C173.618 206.456 172.627 206.327 171.794 205.847C170.961 205.368 170.353 204.579 170.103 203.652L165.863 187.829C165.616 186.902 165.748 185.914 166.23 185.082C166.712 184.251 167.505 183.643 168.435 183.393L184.314 179.138C185.244 178.89 186.235 179.02 187.068 179.499C187.901 179.978 188.509 180.768 188.759 181.694L192.998 197.518C193.246 198.445 193.114 199.432 192.632 200.264C192.15 201.096 191.357 201.703 190.427 201.953ZM168.632 184.129C167.898 184.327 167.272 184.806 166.891 185.463C166.511 186.119 166.407 186.899 166.602 187.631L170.842 203.454C171.039 204.186 171.519 204.809 172.177 205.187C172.835 205.566 173.616 205.668 174.351 205.472L190.23 201.218C190.964 201.02 191.59 200.54 191.97 199.884C192.351 199.227 192.455 198.447 192.26 197.716L188.02 181.892C187.823 181.161 187.343 180.537 186.685 180.159C186.027 179.781 185.245 179.678 184.511 179.874L168.632 184.129Z" fill="#CCCCCC"/>
<path d="M186.105 198.379L176.504 200.951C176.21 201.03 175.897 200.989 175.634 200.837C175.371 200.686 175.179 200.437 175.1 200.144L171.945 188.369C171.867 188.076 171.908 187.764 172.061 187.501C172.213 187.239 172.463 187.047 172.757 186.968L179.714 185.104C179.966 185.036 180.234 185.057 180.473 185.161L183.684 186.57C183.842 186.639 183.981 186.742 184.093 186.871C184.204 187.001 184.285 187.154 184.329 187.32L186.917 196.978C186.995 197.271 186.953 197.583 186.801 197.845C186.649 198.108 186.399 198.3 186.105 198.379ZM172.954 187.704C172.856 187.73 172.773 187.794 172.722 187.882C172.671 187.969 172.657 188.073 172.683 188.171L175.839 199.946C175.865 200.044 175.929 200.127 176.017 200.177C176.104 200.228 176.209 200.241 176.307 200.215L185.908 197.643C186.006 197.616 186.089 197.552 186.14 197.465C186.19 197.377 186.204 197.273 186.178 197.176L183.59 187.518C183.576 187.462 183.549 187.411 183.512 187.368C183.475 187.325 183.428 187.291 183.376 187.268L180.164 185.859C180.084 185.824 179.995 185.817 179.911 185.84L172.954 187.704Z" fill="#CCCCCC"/>
<path d="M181.892 190.041L175.984 191.624C175.886 191.651 175.781 191.637 175.694 191.587C175.606 191.536 175.542 191.453 175.516 191.355C175.49 191.258 175.503 191.154 175.554 191.066C175.605 190.979 175.689 190.915 175.787 190.888L181.695 189.305C181.793 189.279 181.897 189.293 181.985 189.343C182.073 189.393 182.137 189.477 182.163 189.574C182.189 189.672 182.175 189.776 182.124 189.863C182.074 189.951 181.99 190.015 181.892 190.041Z" fill="#CCCCCC"/>
<path d="M182.484 192.249L176.575 193.832C176.477 193.859 176.373 193.845 176.285 193.795C176.198 193.744 176.134 193.661 176.107 193.563C176.081 193.466 176.095 193.362 176.146 193.274C176.197 193.187 176.28 193.123 176.378 193.096L182.286 191.513C182.384 191.487 182.489 191.501 182.576 191.551C182.664 191.601 182.728 191.685 182.754 191.782C182.78 191.88 182.767 191.984 182.716 192.071C182.665 192.159 182.582 192.223 182.484 192.249Z" fill="#CCCCCC"/>
<path d="M183.075 194.457L177.167 196.04C177.069 196.067 176.965 196.053 176.877 196.003C176.789 195.952 176.725 195.869 176.699 195.771C176.673 195.674 176.687 195.57 176.737 195.482C176.788 195.395 176.872 195.331 176.97 195.304L182.878 193.721C182.976 193.695 183.08 193.709 183.168 193.759C183.256 193.809 183.32 193.893 183.346 193.99C183.372 194.088 183.358 194.192 183.308 194.279C183.257 194.367 183.173 194.431 183.075 194.457Z" fill="#CCCCCC"/>
<path d="M228.093 191.861L212.214 196.115C211.284 196.364 210.293 196.234 209.46 195.755C208.627 195.276 208.019 194.486 207.769 193.56L203.529 177.736C203.282 176.809 203.414 175.821 203.896 174.99C204.378 174.158 205.171 173.551 206.101 173.3L221.98 169.046C222.91 168.797 223.901 168.927 224.734 169.406C225.567 169.885 226.175 170.675 226.425 171.601L230.664 187.425C230.912 188.352 230.78 189.34 230.298 190.171C229.816 191.003 229.023 191.61 228.093 191.861ZM206.298 174.036C205.564 174.234 204.938 174.713 204.557 175.37C204.177 176.026 204.073 176.806 204.268 177.538L208.508 193.362C208.705 194.093 209.185 194.716 209.843 195.095C210.501 195.473 211.282 195.575 212.017 195.379L227.896 191.125C228.63 190.927 229.256 190.448 229.636 189.791C230.017 189.134 230.121 188.355 229.926 187.623L225.686 171.799C225.489 171.068 225.009 170.445 224.351 170.066C223.693 169.688 222.911 169.586 222.177 169.781L206.298 174.036Z" fill="#CCCCCC"/>
<path d="M223.351 185.243L213.012 188.014C212.718 188.092 212.405 188.051 212.142 187.9C211.879 187.749 211.687 187.499 211.608 187.207L210.03 181.319C209.952 181.026 209.994 180.714 210.146 180.452C210.298 180.189 210.549 179.997 210.842 179.918L221.182 177.147C221.476 177.069 221.789 177.11 222.052 177.261C222.315 177.413 222.507 177.662 222.586 177.955L224.163 183.842C224.242 184.135 224.2 184.447 224.048 184.71C223.895 184.972 223.645 185.164 223.351 185.243ZM211.04 180.654C210.942 180.68 210.858 180.744 210.808 180.832C210.757 180.919 210.743 181.023 210.769 181.121L212.347 187.009C212.373 187.106 212.437 187.189 212.525 187.24C212.612 187.29 212.717 187.304 212.814 187.278L223.154 184.507C223.252 184.481 223.336 184.417 223.386 184.329C223.437 184.242 223.451 184.138 223.425 184.04L221.847 178.153C221.821 178.055 221.757 177.972 221.669 177.921C221.582 177.871 221.477 177.857 221.379 177.883L211.04 180.654Z" fill="#CCCCCC"/>
<path d="M217.357 183.552C217.15 183.608 216.931 183.604 216.725 183.542L210.287 181.585C210.191 181.555 210.11 181.488 210.062 181.399C210.015 181.31 210.005 181.206 210.035 181.109C210.065 181.013 210.132 180.932 210.221 180.884C210.31 180.836 210.415 180.826 210.512 180.855L216.95 182.813C217.018 182.834 217.091 182.835 217.16 182.816C217.229 182.798 217.292 182.76 217.341 182.708L221.937 177.794C222.006 177.72 222.102 177.677 222.203 177.673C222.304 177.67 222.403 177.706 222.477 177.775C222.551 177.844 222.594 177.939 222.598 178.04C222.602 178.141 222.565 178.239 222.496 178.313L217.9 183.228C217.753 183.384 217.565 183.496 217.357 183.552Z" fill="#CCCCCC"/>
<path d="M152.761 212.045L136.882 216.3C135.952 216.548 134.961 216.418 134.128 215.939C133.295 215.46 132.687 214.671 132.437 213.744L128.197 197.921C127.95 196.994 128.082 196.006 128.564 195.174C129.046 194.343 129.839 193.735 130.769 193.485L146.648 189.23C147.578 188.982 148.568 189.112 149.402 189.591C150.235 190.07 150.843 190.859 151.092 191.786L155.332 207.609C155.58 208.537 155.448 209.524 154.966 210.356C154.484 211.187 153.691 211.795 152.761 212.045ZM130.966 194.221C130.232 194.418 129.606 194.898 129.225 195.555C128.845 196.211 128.741 196.991 128.936 197.723L133.176 213.546C133.373 214.278 133.853 214.901 134.511 215.279C135.168 215.658 135.95 215.76 136.685 215.564L152.564 211.309C153.298 211.112 153.924 210.632 154.304 209.976C154.685 209.319 154.789 208.539 154.594 207.807L150.354 191.984C150.157 191.252 149.677 190.629 149.019 190.251C148.361 189.873 147.579 189.77 146.845 189.966L130.966 194.221Z" fill="#CCCCCC"/>
<path d="M148.019 205.428L137.68 208.198C137.386 208.277 137.073 208.236 136.81 208.084C136.547 207.933 136.355 207.684 136.276 207.391L134.698 201.503C134.62 201.211 134.662 200.899 134.814 200.636C134.966 200.373 135.217 200.182 135.51 200.103L145.85 197.332C146.144 197.254 146.457 197.295 146.72 197.446C146.983 197.597 147.175 197.847 147.254 198.139L148.831 204.027C148.909 204.32 148.868 204.632 148.716 204.894C148.563 205.157 148.313 205.349 148.019 205.428ZM135.708 200.839C135.61 200.865 135.526 200.929 135.476 201.016C135.425 201.104 135.411 201.208 135.437 201.305L137.015 207.193C137.041 207.291 137.105 207.374 137.193 207.424C137.28 207.475 137.385 207.488 137.482 207.462L147.822 204.692C147.92 204.665 148.004 204.602 148.054 204.514C148.105 204.426 148.119 204.322 148.093 204.225L146.515 198.337C146.489 198.24 146.425 198.156 146.337 198.106C146.25 198.056 146.145 198.042 146.047 198.068L135.708 200.839Z" fill="#CCCCCC"/>
<path d="M146.381 205.867L138.949 207.859C138.82 207.893 138.683 207.894 138.553 207.859C138.424 207.825 138.306 207.757 138.211 207.662C138.116 207.568 138.048 207.45 138.013 207.321C137.979 207.191 137.979 207.055 138.014 206.926L139.217 202.462C139.252 202.333 139.32 202.215 139.415 202.121C139.51 202.026 139.628 201.958 139.758 201.923C139.888 201.888 140.024 201.888 140.154 201.923C140.283 201.957 140.401 202.025 140.496 202.12L142.611 204.228L143.061 202.557C143.096 202.428 143.164 202.31 143.259 202.216C143.354 202.121 143.472 202.053 143.602 202.018C143.731 201.983 143.868 201.983 143.997 202.018C144.127 202.052 144.245 202.12 144.34 202.215L146.724 204.592C146.819 204.687 146.887 204.804 146.922 204.934C146.957 205.063 146.956 205.199 146.922 205.328C146.887 205.457 146.818 205.575 146.723 205.67C146.628 205.765 146.51 205.833 146.381 205.867ZM146.183 205.131L143.799 202.754L143.177 205.062C143.16 205.127 143.125 205.185 143.078 205.233C143.03 205.28 142.971 205.314 142.906 205.332C142.842 205.349 142.773 205.349 142.709 205.332C142.644 205.315 142.585 205.281 142.537 205.233L139.955 202.659L138.752 207.123L146.183 205.131Z" fill="#CCCCCC"/>
<path d="M145.531 200.573C145.939 200.464 146.181 200.045 146.072 199.639C145.963 199.233 145.545 198.992 145.137 199.101C144.729 199.21 144.486 199.628 144.595 200.035C144.704 200.441 145.123 200.682 145.531 200.573Z" fill="#CCCCCC"/>
<path d="M347.817 249.142L343.289 250.355L336.473 233.53L343.155 231.74L347.817 249.142Z" fill="#FFB8B8"/>
<path d="M350.143 253.206L335.545 257.116L335.496 256.932C335.297 256.189 335.246 255.413 335.348 254.65C335.449 253.886 335.7 253.15 336.087 252.483C336.474 251.816 336.988 251.231 337.602 250.762C338.215 250.292 338.914 249.948 339.66 249.748L339.661 249.748L348.577 247.359L350.143 253.206Z" fill="#2F2E41"/>
<path d="M366.28 244.195L361.753 245.407L354.937 228.583L361.618 226.793L366.28 244.195Z" fill="#FFB8B8"/>
<path d="M368.607 248.258L354.009 252.169L353.959 251.985C353.76 251.242 353.71 250.466 353.811 249.703C353.913 248.939 354.164 248.203 354.551 247.536C354.938 246.868 355.452 246.284 356.065 245.814C356.678 245.345 357.378 245.001 358.124 244.801L358.125 244.801L367.04 242.412L368.607 248.258Z" fill="#2F2E41"/>
<path d="M362.902 237.015L358.368 236.868C358.031 236.857 357.704 236.747 357.428 236.552C357.153 236.357 356.942 236.085 356.821 235.77L343.02 199.899C343.005 199.855 342.974 199.819 342.933 199.797C342.892 199.775 342.844 199.77 342.799 199.782C342.753 199.79 342.712 199.815 342.684 199.852C342.656 199.89 342.645 199.937 342.651 199.983L345.687 237.505C345.706 237.733 345.678 237.962 345.607 238.179C345.535 238.396 345.421 238.597 345.27 238.77C345.12 238.942 344.936 239.083 344.731 239.184C344.525 239.285 344.301 239.344 344.072 239.358L338.419 239.694C338.004 239.717 337.595 239.59 337.266 239.337C336.938 239.084 336.713 238.72 336.632 238.314L324.906 178.622L351.136 168.481L364.647 234.958C364.733 235.385 364.653 235.83 364.423 236.201C364.193 236.572 363.83 236.843 363.408 236.957C363.243 237.001 363.072 237.021 362.902 237.015Z" fill="#2F2E41"/>
<path d="M332.053 121.988C337.062 120.646 340.038 115.511 338.701 110.519C337.363 105.528 332.219 102.569 327.209 103.912C322.2 105.254 319.224 110.388 320.561 115.38C321.899 120.372 327.044 123.33 332.053 121.988Z" fill="#FFB8B8"/>
<path d="M324.956 178.977L320.967 140.664C320.755 138.627 320.98 136.567 321.629 134.622C322.277 132.677 323.333 130.892 324.726 129.384C326.12 127.876 327.819 126.681 329.71 125.878C331.602 125.075 333.643 124.683 335.697 124.727C339.285 124.795 342.718 126.194 345.323 128.651C347.928 131.108 349.519 134.447 349.786 138.015L352.451 172.471L324.956 178.977Z" fill="#6C63FF"/>
<path d="M350.09 179.289C350.464 178.87 350.74 178.374 350.9 177.837C351.061 177.299 351.101 176.734 351.019 176.18C350.936 175.626 350.733 175.097 350.423 174.63C350.113 174.164 349.704 173.77 349.225 173.479L352.149 160.172L345.525 162.724L343.764 174.969C343.324 175.805 343.206 176.772 343.434 177.687C343.661 178.602 344.218 179.402 344.997 179.934C345.777 180.467 346.727 180.695 347.665 180.576C348.604 180.457 349.467 179.999 350.09 179.289Z" fill="#FFB8B8"/>
<path d="M349.324 171.243C348.977 171.286 348.624 171.222 348.315 171.06L345.426 169.548C345.114 169.383 344.86 169.127 344.699 168.814C344.538 168.5 344.477 168.145 344.525 167.796L346.224 155.619L339.778 134.187C339.686 133.467 339.738 132.736 339.929 132.036C340.121 131.335 340.45 130.679 340.896 130.104C341.342 129.53 341.897 129.049 342.53 128.688C343.162 128.327 343.859 128.094 344.582 128.002C345.304 127.91 346.037 127.961 346.739 128.152C347.441 128.343 348.099 128.669 348.674 129.114C349.249 129.558 349.73 130.111 350.09 130.741C350.45 131.372 350.682 132.067 350.772 132.787L355.535 146.069C356.981 150.1 356.908 154.52 355.33 158.507L350.716 170.168C350.628 170.393 350.492 170.596 350.32 170.764C350.147 170.933 349.941 171.064 349.714 171.148C349.588 171.195 349.457 171.227 349.324 171.243Z" fill="#6C63FF"/>
<path d="M276.082 122.021C276.323 122.526 276.673 122.972 277.106 123.328C277.54 123.684 278.046 123.941 278.59 124.08C279.134 124.219 279.702 124.238 280.255 124.135C280.807 124.032 281.33 123.809 281.787 123.482L292.933 131.333L293.169 124.261L282.549 117.889C281.949 117.161 281.102 116.678 280.168 116.531C279.233 116.385 278.277 116.585 277.48 117.094C276.683 117.604 276.1 118.386 275.842 119.294C275.585 120.202 275.67 121.172 276.082 122.021Z" fill="#FFB8B8"/>
<path d="M283.813 124.441C283.91 124.105 284.107 123.807 284.378 123.585L286.906 121.521C287.18 121.298 287.516 121.164 287.868 121.138C288.221 121.112 288.573 121.194 288.877 121.373L299.458 127.662L321.778 130.065C322.479 130.26 323.134 130.591 323.706 131.039C324.278 131.487 324.756 132.044 325.112 132.676C325.468 133.309 325.695 134.006 325.781 134.726C325.866 135.447 325.809 136.178 325.611 136.877C325.413 137.576 325.079 138.229 324.628 138.8C324.177 139.371 323.617 139.847 322.982 140.203C322.346 140.558 321.647 140.785 320.923 140.871C320.2 140.956 319.467 140.899 318.767 140.702L304.634 139.918C300.345 139.68 296.291 137.897 293.226 134.9L284.261 126.136C284.089 125.968 283.954 125.765 283.866 125.541C283.777 125.317 283.737 125.077 283.748 124.836C283.754 124.702 283.776 124.57 283.813 124.441Z" fill="#6C63FF"/>
<path opacity="0.1" d="M345.385 142.318L348.171 154.193L344.525 167.795L346.688 153.146L345.385 142.318Z" fill="black"/>
<path d="M329.047 114.927C328.497 115.154 327.884 115.173 327.321 114.983C326.759 114.793 326.285 114.405 325.987 113.892C325.673 113.295 325.201 112.794 324.623 112.443C324.044 112.093 323.381 111.906 322.703 111.904C320.938 111.971 319.114 113.296 317.558 112.366C317.22 112.15 316.939 111.856 316.738 111.509C316.536 111.162 316.421 110.773 316.4 110.372C316.298 109.092 316.927 107.935 317.683 106.941C319.276 104.859 321.462 103.304 323.954 102.48C325.255 102.091 326.584 101.805 327.929 101.624C329.313 101.345 330.725 101.229 332.136 101.279C333.771 101.44 335.338 102.009 336.693 102.934C338.048 103.858 339.146 105.109 339.887 106.57C340.601 108.043 340.984 109.655 341.008 111.292C341.033 112.929 340.699 114.553 340.029 116.049C339.231 117.853 338.003 119.436 336.452 120.659C336.087 120.968 335.615 121.12 335.138 121.084C333.93 120.944 333.747 119.548 334.004 118.515C334.279 117.41 334.85 116.259 334.107 115.203C333.747 114.717 333.216 114.385 332.621 114.273C331.387 114.013 330.208 114.468 329.077 114.915L329.047 114.927Z" fill="#2F2E41"/>
<path d="M276.193 134.559L163.934 164.639C162.318 165.07 160.597 164.845 159.15 164.013C157.703 163.18 156.647 161.809 156.214 160.2L149.804 136.281C149.375 134.671 149.604 132.955 150.441 131.511C151.278 130.066 152.656 129.011 154.271 128.576L266.53 98.4965C268.146 98.0655 269.866 98.2908 271.314 99.123C272.761 99.9552 273.817 101.326 274.25 102.936L280.659 126.855C281.089 128.465 280.86 130.181 280.022 131.625C279.185 133.069 277.808 134.125 276.193 134.559Z" fill="white"/>
<path d="M276.242 134.744L163.983 164.824C162.318 165.268 160.545 165.036 159.054 164.178C157.563 163.321 156.475 161.908 156.029 160.25L149.62 136.331C149.177 134.672 149.413 132.904 150.276 131.416C151.138 129.928 152.557 128.841 154.221 128.393L266.481 98.3132C268.146 97.8691 269.918 98.1013 271.409 98.9587C272.9 99.8161 273.988 101.229 274.435 102.887L280.844 126.806C281.286 128.465 281.05 130.233 280.188 131.721C279.325 133.209 277.906 134.296 276.242 134.744ZM154.418 129.129C152.95 129.524 151.698 130.484 150.937 131.797C150.176 133.11 149.968 134.669 150.358 136.133L156.767 160.052C157.161 161.515 158.121 162.762 159.437 163.518C160.753 164.275 162.317 164.48 163.786 164.088L276.045 134.008C277.513 133.613 278.765 132.653 279.526 131.34C280.287 130.027 280.496 128.468 280.105 127.004L273.696 103.085C273.302 101.622 272.342 100.375 271.027 99.6188C269.711 98.8622 268.147 98.6574 266.678 99.0492L154.418 129.129Z" fill="#3F3D56"/>
<path d="M260.952 132.333L176.019 155.091C174.403 155.522 172.683 155.297 171.235 154.464C169.788 153.632 168.732 152.261 168.299 150.652L164.947 138.14C164.517 136.53 164.746 134.814 165.583 133.37C166.421 131.926 167.798 130.87 169.413 130.436L254.346 107.678C255.962 107.247 257.682 107.472 259.129 108.304C260.577 109.137 261.633 110.508 262.066 112.117L265.418 124.629C265.848 126.239 265.619 127.954 264.782 129.399C263.944 130.843 262.567 131.898 260.952 132.333Z" fill="#F2F2F2"/>
<path d="M192.489 143.45C196.514 142.372 198.905 138.246 197.83 134.236C196.756 130.226 192.622 127.849 188.598 128.927C184.574 130.006 182.182 134.131 183.257 138.141C184.332 142.151 188.465 144.528 192.489 143.45Z" fill="#FF6584"/>
<path d="M255.478 133.015L242.889 127.175L230.518 121.435C230.192 121.284 229.822 121.252 229.474 121.346C229.126 121.44 228.822 121.654 228.616 121.949L220.815 133.135L218.91 135.867L214.368 133.76L200.566 127.357C200.24 127.206 199.87 127.174 199.522 127.268C199.174 127.362 198.871 127.576 198.665 127.871L189.962 140.35L181.121 153.026C181.077 153.09 181.053 153.167 181.053 153.245C181.053 153.323 181.077 153.399 181.122 153.463C181.168 153.527 181.231 153.575 181.305 153.602C181.379 153.628 181.459 153.631 181.534 153.611L204.93 147.294L212.335 145.295L212.279 145.375L234.353 139.415L255.415 133.728C255.491 133.708 255.559 133.664 255.609 133.604C255.659 133.544 255.69 133.471 255.697 133.393C255.704 133.315 255.686 133.237 255.647 133.169C255.608 133.101 255.549 133.048 255.478 133.015Z" fill="#3F3D56"/>
<path d="M388.438 243.512L317.537 262.51C317.439 262.536 317.335 262.523 317.247 262.472C317.16 262.422 317.096 262.339 317.07 262.241C317.043 262.143 317.057 262.039 317.108 261.952C317.159 261.864 317.242 261.8 317.34 261.774L388.241 242.776C388.339 242.75 388.443 242.764 388.531 242.814C388.619 242.865 388.683 242.948 388.709 243.045C388.735 243.143 388.721 243.247 388.67 243.335C388.62 243.422 388.536 243.486 388.438 243.512Z" fill="#CCCCCC"/>
<path d="M236.07 75.4765C235.647 75.0779 235.147 74.7696 234.6 74.5703C234.053 74.3709 233.471 74.2848 232.889 74.3171C232.676 74.3289 232.464 74.358 232.256 74.4041L197.404 56.8756C196.7 56.4576 195.868 56.3042 195.06 56.4428C194.899 56.4667 194.741 56.5038 194.587 56.5537C193.946 56.7571 193.377 57.1422 192.951 57.662C192.526 58.1818 192.261 58.8137 192.189 59.4806C192.118 60.1475 192.243 60.8203 192.549 61.4169C192.855 62.0135 193.328 62.508 193.912 62.8399L207.191 69.3115L228.996 79.9354C229.088 80.2209 229.209 80.4965 229.355 80.7582C229.785 81.515 230.436 82.1234 231.221 82.5026C232.006 82.8818 232.888 83.0139 233.751 82.8814C234.54 82.7656 235.28 82.4305 235.887 81.9148C236.369 81.5102 236.758 81.0064 237.027 80.438C237.055 80.3793 237.08 80.3252 237.103 80.2638C237.44 79.4549 237.521 78.5633 237.337 77.7079C237.152 76.8526 236.71 76.0741 236.07 75.4765Z" fill="#FFB8B8"/>
<path d="M194.419 112.53L191.311 101.98L188.728 93.226L186.924 87.0991L183.403 75.1571C183.172 74.5293 182.762 73.9826 182.223 73.5838C181.685 73.185 181.041 72.9513 180.371 72.9113C179.701 72.8713 179.033 73.0266 178.45 73.3584C177.866 73.6902 177.392 74.184 177.084 74.7796C177.011 74.9165 176.95 75.0596 176.902 75.2071C176.621 75.9778 176.629 76.823 176.923 77.5878L182.28 94.9536L184.971 103.679L188.404 114.808C188.327 115.006 188.263 115.209 188.214 115.415C188.085 115.982 188.072 116.568 188.176 117.14C188.281 117.711 188.501 118.255 188.824 118.738C189.161 119.245 189.602 119.676 190.118 120C190.634 120.325 191.213 120.537 191.818 120.622C192.423 120.707 193.039 120.663 193.626 120.494C194.213 120.324 194.757 120.033 195.223 119.638C195.765 119.18 196.185 118.597 196.447 117.939C196.708 117.281 196.804 116.569 196.724 115.867C196.645 115.164 196.393 114.492 195.991 113.91C195.589 113.328 195.049 112.854 194.419 112.53Z" fill="#FFB8B8"/>
<path d="M211.691 75.6591L207.191 69.3117L199.908 59.0287C199.381 58.2799 198.691 57.6593 197.89 57.2131C197.088 56.7669 196.196 56.5064 195.28 56.4512C195.207 56.4469 195.131 56.4436 195.06 56.443C194.179 56.4148 193.301 56.5772 192.488 56.919C191.675 57.2607 190.946 57.7737 190.35 58.4228L178.532 71.2288C177.449 72.3997 176.864 73.9436 176.901 75.5344C176.938 77.1252 177.594 78.6383 178.73 79.754C181.331 82.3432 184.066 84.7949 186.924 87.0991C189.185 88.9032 192.336 88.3152 193.857 91.8516L204.348 89.0406L212.423 76.6934L211.691 75.6591Z" fill="#CCCCCC"/>
<path d="M71.8538 205.436C76.5795 204.17 79.3876 199.325 78.1257 194.616C76.8639 189.907 72.01 187.116 67.2843 188.382C62.5585 189.648 59.7505 194.492 61.0123 199.202C62.2741 203.911 67.128 206.702 71.8538 205.436Z" fill="#A0616A"/>
<path d="M89.0031 185.411C89.1054 185.455 89.2061 185.504 89.3053 185.558C89.7972 185.822 90.2276 186.186 90.5681 186.627C90.9086 187.069 91.1517 187.577 91.2813 188.119C91.4109 188.661 91.4241 189.224 91.3202 189.772C91.2162 190.319 90.9974 190.839 90.678 191.297C90.6034 191.403 90.5233 191.505 90.4379 191.603L96.2375 210.931C96.4249 211.564 96.4024 212.242 96.1732 212.862C95.9441 213.482 95.5206 214.013 94.9656 214.375L94.9323 214.392L79.5091 220.33C79.0898 220.491 78.6426 220.568 78.1936 220.557C77.7446 220.545 77.3025 220.444 76.8928 220.261C76.4832 220.078 76.1142 219.816 75.807 219.489C75.4999 219.163 75.2608 218.779 75.1034 218.36C74.9461 217.941 74.8736 217.495 74.8903 217.047C74.907 216.599 75.0124 216.159 75.2005 215.752C75.3886 215.345 75.6557 214.979 75.9863 214.676C76.3169 214.372 76.7044 214.136 77.1266 213.982L88.1767 209.957L85.6127 192.56C85.4544 192.481 85.3019 192.392 85.1563 192.292C84.3488 191.733 83.7791 190.894 83.5578 189.938C83.3366 188.983 83.4796 187.979 83.959 187.121C84.4384 186.263 85.2201 185.614 86.1523 185.298C87.0844 184.982 88.1004 185.022 89.0031 185.411Z" fill="#A0616A"/>
<path d="M115.46 311.805L119.731 310.661L117.364 293.7L111.06 295.389L115.46 311.805Z" fill="#A0616A"/>
<path d="M113.998 310.708L122.41 308.454C123.114 308.266 123.848 308.217 124.57 308.311C125.293 308.405 125.989 308.64 126.62 309.003C127.25 309.366 127.803 309.849 128.246 310.425C128.689 311 129.014 311.658 129.202 312.359L129.248 312.533L115.476 316.224L113.998 310.708Z" fill="#2F2E41"/>
<path d="M71.4306 317.295L75.6839 318.49L82.3565 302.693L76.0788 300.931L71.4306 317.295Z" fill="#A0616A"/>
<path d="M70.7392 315.607L79.1155 317.958C79.8165 318.155 80.4718 318.488 81.0435 318.937C81.6151 319.386 82.0921 319.944 82.4473 320.577C82.8026 321.211 83.029 321.908 83.1137 322.63C83.1985 323.351 83.1398 324.082 82.9412 324.781L82.892 324.955L69.1775 321.104L70.7392 315.607Z" fill="#2F2E41"/>
<path d="M119.186 304.592L114.403 305.874C114.016 305.978 113.604 305.936 113.247 305.755C112.89 305.574 112.613 305.268 112.47 304.895L95.5457 261.021C95.5031 260.91 95.4252 260.817 95.324 260.755C95.2228 260.693 95.104 260.667 94.9858 260.679C94.8677 260.691 94.7568 260.742 94.6703 260.823C94.5837 260.904 94.5264 261.011 94.507 261.128L90.9515 282.653L82.2566 311.803C82.1433 312.177 81.8986 312.499 81.5674 312.708C81.2362 312.917 80.8406 313.001 80.4531 312.944L73.5781 311.895C73.3508 311.86 73.1335 311.777 72.9408 311.653C72.748 311.528 72.5841 311.363 72.46 311.17C72.3359 310.978 72.2544 310.76 72.2209 310.534C72.1874 310.307 72.2027 310.075 72.2657 309.855L80.0932 282.439L79.1021 261.373C75.4238 253.108 77.8396 238.707 77.8644 238.563L77.8766 238.492L92.319 227.891L92.4263 227.968C104.358 247.06 114.23 268.402 120.365 302.742C120.434 303.141 120.351 303.552 120.133 303.894C119.915 304.236 119.577 304.485 119.186 304.592Z" fill="#2F2E41"/>
<path d="M77.7904 240.769L77.6731 240.632C77.617 240.566 72.0122 233.991 67.09 226.677C66.1414 225.262 65.4984 223.665 65.2015 221.988C64.9046 220.311 64.9605 218.59 65.3655 216.935C65.7767 215.261 66.532 213.691 67.5833 212.322C68.6346 210.954 69.9592 209.818 71.473 208.986C74.1061 207.56 77.1636 207.124 80.0886 207.757C83.0135 208.39 85.6112 210.05 87.4084 212.435C91.0648 217.311 91.9286 223.329 92.4999 228.092L92.5114 228.187L92.4383 228.25L77.7904 240.769Z" fill="#3F3D56"/>
<path d="M78.6532 189.313L65.0662 192.954L63.4848 187.052C66.1506 185.072 68.7998 183.286 71.1493 184.998C72.72 184.577 74.3931 184.795 75.8003 185.604C77.2076 186.414 78.2338 187.748 78.6532 189.313Z" fill="#2F2E41"/>
<path d="M62.4534 186.211C54.3308 188.388 54.7758 199.143 56.3095 204.867C57.1648 208.059 58.9194 208.812 61.2993 208.589L60.9584 204.101L64.0355 208.053C64.6758 207.884 65.3442 207.692 66.0372 207.493L66.3246 206.012L68.093 206.917C73.7972 205.397 78.6276 204.991 77.1016 199.295C75.5679 193.572 70.8554 183.96 62.4534 186.211Z" fill="#2F2E41"/>
<path d="M136.492 311.021L65.5916 330.019C65.4937 330.045 65.3894 330.031 65.3016 329.981C65.2139 329.931 65.1499 329.847 65.1237 329.75C65.0976 329.652 65.1114 329.548 65.1622 329.461C65.2129 329.373 65.2965 329.309 65.3944 329.283L136.295 310.285C136.393 310.259 136.497 310.272 136.585 310.323C136.673 310.373 136.737 310.457 136.763 310.554C136.789 310.652 136.775 310.756 136.725 310.843C136.674 310.931 136.59 310.995 136.492 311.021Z" fill="#CCCCCC"/>
<path d="M105.386 189.596L89.5068 193.851C88.5764 194.099 87.586 193.969 86.7527 193.49C85.9194 193.011 85.3114 192.221 85.062 191.295L80.8221 175.471C80.5748 174.544 80.7067 173.557 81.1887 172.725C81.6708 171.893 82.4637 171.286 83.3935 171.036L99.2723 166.781C100.203 166.533 101.193 166.662 102.026 167.142C102.86 167.621 103.468 168.41 103.717 169.337L107.957 185.16C108.204 186.087 108.072 187.075 107.59 187.907C107.108 188.738 106.315 189.346 105.386 189.596Z" fill="white"/>
<path d="M105.386 189.596L89.5068 193.851C88.5764 194.099 87.586 193.969 86.7527 193.49C85.9194 193.011 85.3114 192.221 85.062 191.295L80.8221 175.471C80.5748 174.544 80.7067 173.557 81.1887 172.725C81.6708 171.893 82.4637 171.286 83.3935 171.036L99.2723 166.781C100.203 166.533 101.193 166.662 102.026 167.142C102.86 167.621 103.468 168.41 103.717 169.337L107.957 185.16C108.204 186.087 108.072 187.075 107.59 187.907C107.108 188.738 106.315 189.346 105.386 189.596ZM83.5907 171.772C82.8566 171.969 82.2306 172.449 81.8501 173.105C81.4695 173.762 81.3654 174.542 81.5606 175.274L85.8005 191.097C85.9974 191.829 86.4774 192.452 87.1353 192.83C87.7931 193.208 88.5751 193.311 89.3096 193.115L105.188 188.86C105.922 188.663 106.548 188.183 106.929 187.526C107.31 186.87 107.414 186.09 107.218 185.358L102.979 169.535C102.782 168.803 102.302 168.18 101.644 167.802C100.986 167.423 100.204 167.321 99.4695 167.517L83.5907 171.772Z" fill="#3F3D56"/>
<path d="M100.891 183.898L90.5508 186.668C90.257 186.746 89.9443 186.706 89.6811 186.554C89.418 186.403 89.226 186.154 89.1472 185.861L87.0766 178.133C86.9985 177.84 87.0401 177.529 87.1923 177.266C87.3446 177.003 87.595 176.811 87.8886 176.732L90.7993 175.953C90.9885 175.901 91.1876 175.899 91.3776 175.947C91.5675 175.995 91.7418 176.09 91.8836 176.225L93.0477 177.322L98.7213 175.802C99.0151 175.724 99.3279 175.764 99.591 175.916C99.8542 176.067 100.046 176.316 100.125 176.609L101.703 182.497C101.781 182.79 101.739 183.101 101.587 183.364C101.435 183.627 101.184 183.819 100.891 183.898Z" fill="#6C63FF"/>
<path d="M101.6 187.892C101.677 187.973 101.751 188.057 101.821 188.145C102.172 188.578 102.426 189.081 102.568 189.62C102.71 190.159 102.736 190.721 102.644 191.271C102.553 191.821 102.346 192.346 102.037 192.811C101.728 193.276 101.324 193.67 100.852 193.969C100.742 194.038 100.628 194.102 100.512 194.159L98.33 214.229C98.2561 214.886 97.9718 215.501 97.5193 215.985C97.0668 216.468 96.4703 216.794 95.8183 216.913L95.7811 216.916L79.2655 216.426C78.8165 216.413 78.3747 216.311 77.9657 216.126C77.5567 215.942 77.1885 215.678 76.8825 215.351C76.5765 215.023 76.3387 214.639 76.1828 214.219C76.027 213.799 75.9561 213.352 75.9744 212.905C75.9926 212.457 76.0996 212.018 76.2892 211.611C76.4788 211.205 76.7472 210.84 77.0789 210.537C77.4106 210.234 77.7991 210 78.2218 209.848C78.6446 209.696 79.0933 209.628 79.542 209.65L91.2854 210.212L95.6953 193.175C95.5801 193.041 95.4745 192.899 95.3793 192.751C94.8534 191.922 94.6552 190.928 94.8234 189.961C94.9916 188.995 95.514 188.124 96.2893 187.518C97.0646 186.913 98.0374 186.616 99.0189 186.685C100 186.754 100.92 187.185 101.6 187.892Z" fill="#A0616A"/>
</g>
<defs>
<clipPath id="clip0_230_11">
<rect width="335" height="252" fill="white" transform="translate(0 86.7041) rotate(-15)"/>
</clipPath>
</defs>
</svg>
