<svg width="268" height="181" viewBox="0 0 268 181" fill="none" xmlns="http://www.w3.org/2000/svg">
<g clip-path="url(#clip0_154_343)">
<path d="M82.0275 83.939H47.53V122.463H82.0275V83.939Z" fill="#CCCCCC"/>
<path d="M29.9679 180.406H12.4056L10.5239 165.372H31.8496L29.9679 180.406Z" fill="#E6E6E6"/>
<path d="M65.2338 169.516L64.6412 177.608C64.6143 177.974 64.6662 178.342 64.7934 178.686C64.9205 179.031 65.12 179.345 65.3784 179.606C65.6368 179.867 65.9481 180.07 66.2915 180.202C66.6349 180.333 67.0025 180.389 67.3695 180.367L71.5312 180.115C71.724 180.104 71.9119 180.05 72.0815 179.957C72.2511 179.865 72.3982 179.736 72.5124 179.581C72.6266 179.425 72.7051 179.246 72.7423 179.057C72.7795 178.868 72.7745 178.672 72.7277 178.485L70.4176 169.257L65.2338 169.516Z" fill="#E6E6E6"/>
<path d="M100.043 174.301C104.941 175.445 108.44 177.072 110.739 179.273C111.557 180.051 112.628 180.509 113.757 180.565C115.198 180.641 116.377 180.479 117.263 180.084C117.49 179.984 117.686 179.826 117.83 179.625C117.975 179.424 118.063 179.187 118.086 178.941C118.113 178.69 118.072 178.437 117.968 178.208C117.864 177.978 117.7 177.781 117.494 177.636L105.878 169.381L100.943 171.353L99.7925 172.502C99.6678 172.627 99.5738 172.778 99.5178 172.945C99.4618 173.112 99.4453 173.29 99.4696 173.464C99.494 173.638 99.5584 173.805 99.658 173.95C99.7576 174.095 99.8895 174.215 100.043 174.301Z" fill="#E6E6E6"/>
<path d="M84.9703 42.187L51.7671 41.88C51.8506 37.0501 52.9758 32.3074 55.4353 28.0633C57.0507 25.276 57.0158 22.2425 56.6265 19.6869C56.0257 15.743 57.4227 11.7078 60.5269 9.19726C62.8992 7.27533 65.8932 6.286 68.9451 6.41559L69.5898 6.44242C71.6899 6.52958 73.7344 7.14224 75.5356 8.22416C77.3368 9.30608 78.837 10.8226 79.8985 12.6344C80.9773 14.5686 81.4124 16.7953 81.1408 18.9927C80.9303 21.0603 81.4339 23.1489 82.6118 25.2574C84.644 29.8873 85.0841 35.812 84.9703 42.187Z" fill="#2F2E41"/>
<path d="M107.185 169.812L100.669 171.51L68.9361 102.468L70.9194 169.812H64.4029C57.4396 138.129 44.8677 101.563 50.5199 90.0183L84.2357 88.0376L107.185 169.812Z" fill="#6C63FF"/>
<path d="M68.6527 30.5975C73.5035 30.5975 77.4358 26.6703 77.4358 21.8259C77.4358 16.9814 73.5035 13.0542 68.6527 13.0542C63.802 13.0542 59.8696 16.9814 59.8696 21.8259C59.8696 26.6703 63.802 30.5975 68.6527 30.5975Z" fill="#FFB9B9"/>
<path d="M76.3024 37.954L61.8528 37.1051C63.2689 33.8592 63.8345 30.7334 63.2694 27.7676H74.0358C74.0114 30.0448 75.1461 33.9839 76.3024 37.954Z" fill="#FFB9B9"/>
<path d="M85.3688 90.5841L53.6365 92.8479L56.8946 36.681L62.4195 35.1246L68.6526 36.5394L74.8856 33.4268L78.8522 34.8418L85.3688 90.5841Z" fill="#6C63FF"/>
<path d="M59.0196 131.047L37.3452 126.095C43.7901 104.751 55.401 55.9212 51.6532 38.52L62.9862 33.4268L59.0196 131.047Z" fill="#E6E6E6"/>
<path d="M48.5365 69.3623L40.3201 64.2691L47.3272 43.7732C48.1088 41.6582 49.6057 39.8825 51.5592 38.753L53.9197 37.3882L52.5031 58.044L48.5365 69.3623Z" fill="#E6E6E6"/>
<path d="M104.21 126.378C97.3692 130.331 80.2692 132.534 72.7609 129.774C72.2084 110.489 71.1249 55.939 74.6026 32.8608L87.0689 37.9541L85.9356 53.2337C79.9757 66.3046 97.282 111.831 104.21 126.378Z" fill="#E6E6E6"/>
<path d="M103.218 66.8159L95.5685 64.2692L85.3689 52.6678L87.069 37.9541L104.068 61.7226L103.218 66.8159Z" fill="#E6E6E6"/>
<path d="M79.2441 77.8293C79.3693 78.3778 79.7071 78.8544 80.1836 79.1546C80.6601 79.4547 81.2364 79.5539 81.786 79.4304L88.2796 77.9618L87.3411 73.8223L80.8473 75.2907C80.2977 75.415 79.82 75.7523 79.5194 76.2284C79.2187 76.7045 79.1197 77.2803 79.2441 77.8293Z" fill="#FFB9B9"/>
<path d="M76.3025 19.562C71.424 17.5585 66.6059 17.4136 61.8529 19.279L59.8696 12.2051H78.0025L76.3025 19.562Z" fill="#2F2E41"/>
<path d="M85.0857 73.0409L88.7689 79.8319C94.9641 78.1063 100.333 72.6661 105.485 66.25L104.069 61.7227L95.2854 63.9863L85.0857 73.0409Z" fill="#E6E6E6"/>
<path d="M82.3941 59.0344H81.2608C81.2608 43.0264 77.9605 31.8706 74.7443 31.8706L74.4609 30.7388C77.3452 30.7388 79.1841 35.3817 80.2188 39.2768C81.6216 44.5572 82.3941 51.5739 82.3941 59.0344Z" fill="#3F3D56"/>
<path d="M56.3281 55.0731H55.1948C55.1948 40.4122 58.518 31.3047 63.4113 31.3047L63.1279 32.4365C59.7433 32.4365 56.3281 39.436 56.3281 55.0731Z" fill="#3F3D56"/>
<path d="M81.8274 62.1469C83.3922 62.1469 84.6607 60.8801 84.6607 59.3174C84.6607 57.7546 83.3922 56.4878 81.8274 56.4878C80.2626 56.4878 78.9941 57.7546 78.9941 59.3174C78.9941 60.8801 80.2626 62.1469 81.8274 62.1469Z" fill="#3F3D56"/>
<path d="M51.7949 61.8642H50.6616C50.6616 57.8076 52.9494 54.5073 55.7615 54.5073V55.6392C53.5743 55.6392 51.7949 58.4317 51.7949 61.8642Z" fill="#3F3D56"/>
<path d="M60.8613 61.8642H59.728C59.728 58.4317 57.9487 55.6392 55.7615 55.6392V54.5073C58.5736 54.5073 60.8613 57.8076 60.8613 61.8642Z" fill="#3F3D56"/>
<path d="M60.2947 63.2788C60.9206 63.2788 61.428 62.7721 61.428 62.147C61.428 61.5219 60.9206 61.0151 60.2947 61.0151C59.6688 61.0151 59.1614 61.5219 59.1614 62.147C59.1614 62.7721 59.6688 63.2788 60.2947 63.2788Z" fill="#3F3D56"/>
<path d="M51.2283 63.2788C51.8542 63.2788 52.3616 62.7721 52.3616 62.147C52.3616 61.5219 51.8542 61.0151 51.2283 61.0151C50.6024 61.0151 50.095 61.5219 50.095 62.147C50.095 62.7721 50.6024 63.2788 51.2283 63.2788Z" fill="#3F3D56"/>
<path d="M37.0618 51.7393L44.1328 53.0002L60.2945 75.9506L51.7084 73.9329L37.0618 51.7393Z" fill="#6C63FF"/>
<path d="M35.8077 51.458C35.6999 51.4596 35.5946 51.4901 35.5027 51.5463C35.4108 51.6025 35.3357 51.6823 35.2853 51.7775C35.2348 51.8726 35.2109 51.9795 35.216 52.087C35.2211 52.1945 35.255 52.2986 35.3142 52.3885L50.4214 75.28C50.5057 75.408 50.6359 75.4988 50.7852 75.5338L57.8141 77.1854C57.9326 77.2133 58.0568 77.2045 58.1702 77.1602C58.2836 77.1159 58.3809 77.0383 58.4491 76.9376C58.5172 76.8368 58.5532 76.7178 58.552 76.5962C58.5509 76.4746 58.5128 76.3563 58.4428 76.2568L41.856 52.7033C41.8111 52.6391 41.7538 52.5844 41.6877 52.5423C41.6215 52.5003 41.5477 52.4716 41.4705 52.458L35.921 51.4682C35.8836 51.4615 35.8457 51.4581 35.8077 51.458Z" fill="#3F3D56"/>
<path d="M45.2317 67.8254L45.6516 72.049L52.2771 71.3922C52.8379 71.3366 53.3536 71.0608 53.7108 70.6255C54.068 70.1901 54.2374 69.6309 54.1818 69.0708C54.1261 68.5107 53.8499 67.9957 53.414 67.6389C52.9781 67.2822 52.4182 67.113 51.8573 67.1686L45.2317 67.8254Z" fill="#FFB9B9"/>
<path d="M39.4702 67.3362C39.4798 68.7763 40.059 70.1543 41.0815 71.1699C42.104 72.1855 43.487 72.7563 44.9291 72.7579H46.0185L46.8117 66.157L40.2447 63.7959L39.4702 67.3362Z" fill="#E6E6E6"/>
<path d="M268 0H138.792V67.9654H268V0Z" fill="#E6E6E6"/>
<path d="M142.555 64.2068H264.237V3.7583H142.555V64.2068Z" fill="white"/>
<path d="M195.242 12.5283H151.963V55.7505H195.242V12.5283Z" fill="#3F3D56"/>
<path d="M184.893 32.26C185.585 32.26 186.147 31.6991 186.147 31.0072C186.147 30.3153 185.585 29.7544 184.893 29.7544C184.2 29.7544 183.638 30.3153 183.638 31.0072C183.638 31.6991 184.2 32.26 184.893 32.26Z" fill="#6C63FF"/>
<path d="M180.188 27.8753C180.881 27.8753 181.443 27.3144 181.443 26.6224C181.443 25.9305 180.881 25.3696 180.188 25.3696C179.495 25.3696 178.934 25.9305 178.934 26.6224C178.934 27.3144 179.495 27.8753 180.188 27.8753Z" fill="#6C63FF"/>
<path d="M179.561 31.007C179.1 31.0071 178.647 31.1352 178.254 31.3769C177.908 30.857 177.501 30.3801 177.042 29.9563C177.047 29.8894 177.052 29.8224 177.052 29.7542C177.053 29.2626 176.908 28.7817 176.637 28.3716C176.365 27.9615 175.979 27.6403 175.526 27.448C175.073 27.2557 174.573 27.2009 174.089 27.2904C173.605 27.3799 173.158 27.6097 172.804 27.9511C172.132 27.8559 171.45 27.85 170.777 27.9335C170.778 27.9138 170.78 27.8947 170.78 27.875C170.781 27.4556 170.676 27.0428 170.475 26.6744C170.274 26.306 169.984 25.9938 169.631 25.7664C169.278 25.539 168.874 25.4037 168.455 25.373C168.036 25.3422 167.617 25.4169 167.234 25.5902C166.852 25.7636 166.519 26.03 166.267 26.3651C166.014 26.7002 165.85 27.0932 165.789 27.5082C165.728 27.9231 165.772 28.3467 165.918 28.7401C166.063 29.1335 166.305 29.4842 166.622 29.7599C166.202 30.1192 165.821 30.5217 165.485 30.9606C165.175 30.7032 164.808 30.5241 164.415 30.4385C164.021 30.3528 163.612 30.3631 163.224 30.4684C162.835 30.5737 162.477 30.771 162.181 31.0436C161.884 31.3162 161.658 31.6561 161.521 32.0344C161.384 32.4128 161.34 32.8186 161.394 33.2174C161.447 33.6162 161.595 33.9964 161.827 34.3257C162.058 34.6551 162.366 34.9239 162.723 35.1095C163.081 35.2951 163.478 35.3919 163.881 35.3919L163.889 35.3915C163.884 35.4957 163.881 35.5999 163.881 35.7051C163.881 36.3355 163.957 36.9636 164.108 37.5759C163.362 37.8561 162.7 38.3209 162.183 38.9267C161.667 39.5325 161.313 40.2594 161.155 41.0392C160.997 41.819 161.04 42.6262 161.279 43.3849C161.519 44.1436 161.948 44.8291 162.526 45.3769C163.104 45.9247 163.811 46.3169 164.583 46.5168C165.354 46.7166 166.163 46.7174 166.935 46.5193C167.706 46.3211 168.415 45.9305 168.994 45.3839C169.573 44.8374 170.003 44.1528 170.245 43.3946C171.99 43.7296 173.797 43.4619 175.37 42.6353C175.53 43.0129 175.781 43.3453 176.1 43.6034C176.42 43.8615 176.798 44.0374 177.201 44.1156C177.604 44.1939 178.02 44.172 178.413 44.0521C178.806 43.9321 179.163 43.7177 179.454 43.4277C179.744 43.1376 179.959 42.7808 180.079 42.3885C180.199 41.9962 180.221 41.5805 180.142 41.1778C180.064 40.7751 179.888 40.3978 179.63 40.079C179.371 39.7602 179.038 39.5096 178.66 39.3492C179.203 38.3194 179.509 37.1811 179.553 36.0179L179.561 36.0183C180.227 36.0183 180.865 35.7543 181.335 35.2844C181.806 34.8145 182.07 34.1772 182.07 33.5127C182.07 32.8481 181.806 32.2108 181.335 31.7409C180.865 31.271 180.227 31.007 179.561 31.007Z" fill="#6C63FF"/>
<path d="M178.934 11.5884H166.389V13.4676H178.934V11.5884Z" fill="#E6E6E6"/>
<path d="M250.438 12.5283H207.159V55.7505H250.438V12.5283Z" fill="#3F3D56"/>
<path d="M237.015 41.8443C237.327 41.8443 237.579 41.5919 237.579 41.2806C237.579 40.9692 237.327 40.7168 237.015 40.7168C236.703 40.7168 236.45 40.9692 236.45 41.2806C236.45 41.5919 236.703 41.8443 237.015 41.8443Z" fill="#6C63FF"/>
<path d="M234.898 39.8707C235.21 39.8707 235.463 39.6183 235.463 39.3069C235.463 38.9956 235.21 38.7432 234.898 38.7432C234.586 38.7432 234.334 38.9956 234.334 39.3069C234.334 39.6183 234.586 39.8707 234.898 39.8707Z" fill="#6C63FF"/>
<path d="M234.616 41.2805C234.408 41.2806 234.205 41.3382 234.028 41.447C233.872 41.213 233.689 40.9984 233.482 40.8077C233.485 40.7776 233.487 40.7475 233.487 40.7168C233.487 40.4955 233.422 40.2792 233.3 40.0946C233.178 39.9101 233.004 39.7655 232.8 39.679C232.596 39.5925 232.371 39.5678 232.154 39.6081C231.936 39.6483 231.735 39.7517 231.575 39.9054C231.273 39.8625 230.966 39.8599 230.663 39.8974C230.663 39.8886 230.664 39.88 230.664 39.8711C230.665 39.6824 230.618 39.4966 230.527 39.3309C230.437 39.1651 230.306 39.0246 230.148 38.9223C229.989 38.8199 229.807 38.7591 229.618 38.7452C229.43 38.7314 229.241 38.765 229.069 38.843C228.897 38.921 228.747 39.0409 228.633 39.1917C228.52 39.3425 228.446 39.5193 228.418 39.7061C228.391 39.8928 228.411 40.0834 228.476 40.2604C228.542 40.4375 228.651 40.5953 228.793 40.7193C228.604 40.881 228.433 41.0621 228.282 41.2597C228.142 41.1438 227.977 41.0633 227.8 41.0247C227.623 40.9861 227.439 40.9908 227.264 41.0382C227.089 41.0856 226.928 41.1744 226.795 41.297C226.661 41.4197 226.56 41.5726 226.498 41.7429C226.436 41.9132 226.417 42.0957 226.441 42.2752C226.465 42.4547 226.531 42.6258 226.636 42.774C226.74 42.9222 226.878 43.0431 227.039 43.1267C227.2 43.2102 227.378 43.2537 227.56 43.2537L227.563 43.2536C227.561 43.3004 227.56 43.3474 227.56 43.3947C227.56 43.6784 227.594 43.961 227.662 44.2365C227.326 44.3626 227.028 44.5718 226.796 44.8444C226.564 45.117 226.404 45.4441 226.333 45.795C226.262 46.146 226.281 46.5092 226.389 46.8506C226.497 47.192 226.69 47.5005 226.95 47.747C227.21 47.9935 227.529 48.17 227.876 48.2599C228.223 48.3498 228.587 48.3502 228.934 48.2611C229.281 48.1719 229.6 47.9961 229.861 47.7501C230.121 47.5042 230.315 47.1962 230.424 46.855C231.209 47.0057 232.022 46.8852 232.73 46.5133C232.802 46.6832 232.915 46.8328 233.059 46.9489C233.202 47.0651 233.372 47.1442 233.554 47.1794C233.735 47.2146 233.923 47.2048 234.099 47.1508C234.276 47.0968 234.437 47.0004 234.568 46.8698C234.698 46.7393 234.795 46.5787 234.849 46.4022C234.903 46.2257 234.913 46.0386 234.878 45.8574C234.842 45.6762 234.763 45.5064 234.647 45.3629C234.53 45.2195 234.381 45.1067 234.211 45.0345C234.455 44.5711 234.592 44.0589 234.612 43.5354L234.616 43.5356C234.915 43.5356 235.203 43.4168 235.414 43.2054C235.626 42.9939 235.745 42.7071 235.745 42.4081C235.745 42.109 235.626 41.8223 235.414 41.6108C235.203 41.3993 234.915 41.2805 234.616 41.2805Z" fill="#6C63FF"/>
<path d="M241.444 31.1456C241.756 31.1456 242.008 30.8932 242.008 30.5818C242.008 30.2705 241.756 30.0181 241.444 30.0181C241.132 30.0181 240.879 30.2705 240.879 30.5818C240.879 30.8932 241.132 31.1456 241.444 31.1456Z" fill="#6C63FF"/>
<path d="M242.772 28.5758C243.084 28.5758 243.336 28.3234 243.336 28.012C243.336 27.7006 243.084 27.4482 242.772 27.4482C242.46 27.4482 242.207 27.7006 242.207 28.012C242.207 28.3234 242.46 28.5758 242.772 28.5758Z" fill="#6C63FF"/>
<path d="M240.793 28.2753C240.737 28.0756 240.626 27.8955 240.474 27.755C240.657 27.5418 240.814 27.3076 240.942 27.0574C240.972 27.0515 241.001 27.0455 241.031 27.0371C241.244 26.9773 241.435 26.8561 241.58 26.6887C241.724 26.5212 241.817 26.3149 241.845 26.0955C241.873 25.876 241.836 25.6532 241.738 25.4547C241.64 25.2562 241.486 25.0909 241.295 24.9794C241.254 24.6771 241.173 24.3816 241.055 24.1005C241.064 24.0983 241.072 24.097 241.081 24.0946C241.263 24.0437 241.429 23.9479 241.564 23.8162C241.7 23.6844 241.8 23.5209 241.855 23.3405C241.911 23.1601 241.92 22.9687 241.882 22.7837C241.845 22.5988 241.761 22.4263 241.639 22.282C241.517 22.1377 241.361 22.0263 241.185 21.9579C241.009 21.8896 240.818 21.8665 240.631 21.8907C240.444 21.915 240.265 21.9858 240.112 22.0967C239.959 22.2077 239.837 22.3552 239.756 22.5257C239.549 22.3878 239.328 22.2721 239.097 22.1805C239.17 22.0151 239.203 21.8344 239.192 21.6537C239.182 21.4729 239.127 21.2975 239.034 21.1421C238.941 20.9868 238.812 20.8561 238.657 20.7612C238.503 20.6662 238.328 20.6098 238.147 20.5967C237.966 20.5836 237.785 20.6142 237.619 20.6858C237.452 20.7575 237.305 20.8682 237.191 21.0085C237.076 21.1488 236.997 21.3146 236.96 21.4918C236.923 21.6691 236.93 21.8526 236.979 22.0269L236.98 22.0303C236.934 22.0412 236.889 22.0523 236.843 22.0651C236.57 22.1421 236.306 22.2516 236.059 22.3915C235.847 22.1031 235.564 21.8734 235.239 21.7239C234.913 21.5743 234.555 21.5099 234.197 21.5366C233.84 21.5634 233.495 21.6804 233.195 21.8767C232.895 22.073 232.65 22.3422 232.483 22.6589C232.316 22.9757 232.232 23.3297 232.239 23.6876C232.247 24.0456 232.345 24.3958 232.525 24.7054C232.705 25.015 232.961 25.2738 233.269 25.4576C233.577 25.6414 233.926 25.7441 234.284 25.7561C234.352 26.5519 234.688 27.3011 235.239 27.8805C235.095 27.9961 234.981 28.1452 234.908 28.3147C234.835 28.4843 234.805 28.6692 234.82 28.8532C234.835 29.0371 234.896 29.2146 234.996 29.3698C235.095 29.5251 235.232 29.6535 235.393 29.7438C235.554 29.834 235.735 29.8834 235.92 29.8875C236.105 29.8916 236.288 29.8503 236.453 29.7673C236.618 29.6843 236.76 29.5621 236.867 29.4114C236.974 29.2607 237.042 29.0862 237.065 28.9031C237.578 29.0125 238.109 29.0057 238.619 28.8831L238.62 28.8865C238.66 29.0292 238.728 29.1625 238.82 29.2789C238.911 29.3954 239.025 29.4926 239.155 29.5651C239.284 29.6376 239.426 29.6839 239.574 29.7014C239.721 29.7189 239.87 29.7072 240.013 29.667C240.156 29.6269 240.289 29.559 240.406 29.4673C240.522 29.3756 240.619 29.2619 240.692 29.1327C240.764 29.0034 240.811 28.8612 240.828 28.714C240.846 28.5669 240.834 28.4178 240.793 28.2753Z" fill="#6C63FF"/>
<path d="M219.58 23.4845C219.892 23.4845 220.144 23.2321 220.144 22.9207C220.144 22.6093 219.892 22.3569 219.58 22.3569C219.268 22.3569 219.015 22.6093 219.015 22.9207C219.015 23.2321 219.268 23.4845 219.58 23.4845Z" fill="#6C63FF"/>
<path d="M216.693 23.7154C217.005 23.7154 217.258 23.463 217.258 23.1517C217.258 22.8403 217.005 22.5879 216.693 22.5879C216.382 22.5879 216.129 22.8403 216.129 23.1517C216.129 23.463 216.382 23.7154 216.693 23.7154Z" fill="#6C63FF"/>
<path d="M217.962 24.6903C217.822 24.8435 217.728 25.0325 217.689 25.2363C217.411 25.1935 217.129 25.1838 216.848 25.2076C216.828 25.1855 216.807 25.1636 216.784 25.1429C216.621 24.9936 216.417 24.8957 216.198 24.8614C215.979 24.827 215.755 24.8578 215.554 24.9498C215.352 25.0418 215.182 25.1911 215.065 25.3789C214.948 25.5667 214.889 25.7847 214.895 26.0059C214.66 26.2 214.451 26.4244 214.274 26.6732C214.268 26.6671 214.262 26.6605 214.256 26.6545C214.116 26.5271 213.947 26.4366 213.764 26.3915C213.58 26.3463 213.388 26.3479 213.206 26.396C213.023 26.4441 212.855 26.5373 212.718 26.667C212.581 26.7966 212.478 26.9586 212.42 27.1381C212.361 27.3177 212.349 27.5089 212.384 27.6944C212.419 27.8799 212.5 28.0537 212.619 28.1998C212.739 28.3459 212.893 28.4597 213.068 28.5308C213.243 28.6019 213.434 28.6279 213.621 28.6065C213.614 28.8549 213.632 29.1035 213.676 29.3481C213.496 29.3728 213.325 29.4403 213.178 29.545C213.03 29.6496 212.909 29.7883 212.826 29.9493C212.743 30.1103 212.7 30.2889 212.701 30.47C212.702 30.651 212.746 30.8292 212.831 30.9895C212.915 31.1498 213.037 31.2874 213.186 31.3907C213.335 31.4941 213.506 31.5601 213.686 31.5832C213.866 31.6063 214.049 31.5859 214.219 31.5235C214.389 31.4612 214.542 31.3588 214.664 31.2251L214.666 31.2223C214.7 31.2553 214.733 31.2882 214.768 31.3201C214.978 31.5114 215.21 31.6766 215.459 31.8124C215.326 32.1449 215.28 32.5057 215.325 32.8609C215.37 33.2161 215.505 33.5541 215.716 33.8432C215.928 34.1323 216.209 34.3629 216.534 34.5135C216.86 34.6641 217.218 34.7297 217.576 34.7042C217.933 34.6786 218.278 34.5627 218.579 34.3674C218.879 34.1721 219.125 33.9037 219.293 33.5875C219.461 33.2713 219.546 32.9176 219.54 32.5596C219.534 32.2017 219.437 31.8511 219.258 31.5409C219.899 31.0633 220.358 30.3822 220.56 29.6095C220.734 29.6708 220.921 29.6883 221.104 29.6607C221.287 29.633 221.46 29.561 221.608 29.4509C221.757 29.3408 221.876 29.196 221.955 29.0293C222.034 28.8625 222.071 28.6789 222.063 28.4945C222.054 28.3101 222.001 28.1305 221.907 27.9717C221.813 27.8128 221.681 27.6794 221.523 27.5832C221.365 27.4871 221.186 27.431 221.002 27.4201C220.817 27.4091 220.633 27.4435 220.465 27.5204C220.287 27.0276 220.001 26.5809 219.627 26.2132L219.63 26.2107C219.73 26.1014 219.808 25.9734 219.858 25.8341C219.909 25.6948 219.932 25.5469 219.925 25.3989C219.918 25.2508 219.883 25.1055 219.82 24.9713C219.757 24.8371 219.668 24.7165 219.558 24.6166C219.449 24.5167 219.32 24.4393 219.181 24.3889C219.041 24.3385 218.893 24.3161 218.745 24.323C218.597 24.3298 218.451 24.3658 218.317 24.4288C218.183 24.4918 218.062 24.5807 217.962 24.6903Z" fill="#6C63FF"/>
<path d="M234.13 11.5884H221.585V13.4676H234.13V11.5884Z" fill="#E6E6E6"/>
<path d="M7.89555 159.81C12.4177 165.858 21.8049 166.495 21.8049 166.495C21.8049 166.495 23.8602 157.325 19.338 151.277C14.8158 145.229 5.42863 144.592 5.42863 144.592C5.42863 144.592 3.37336 153.762 7.89555 159.81Z" fill="#E6E6E6"/>
<path d="M30.9326 162.084C27.9486 166.075 21.7543 166.495 21.7543 166.495C21.7543 166.495 20.3981 160.445 23.3821 156.454C26.3662 152.463 32.5605 152.042 32.5605 152.042C32.5605 152.042 33.9167 158.093 30.9326 162.084Z" fill="#E6E6E6"/>
<path d="M162.94 180.298H0V181H162.94V180.298Z" fill="#3F3D56"/>
</g>
<defs>
<clipPath id="clip0_154_343">
<rect width="268" height="181" fill="white"/>
</clipPath>
</defs>
</svg>
