<svg width="316" height="226" viewBox="0 0 316 226" fill="none" xmlns="http://www.w3.org/2000/svg">
<g clip-path="url(#clip0_145_60)">
<path d="M14.6048 46.0149C17.3857 46.0149 19.6401 43.7568 19.6401 40.9713C19.6401 38.1858 17.3857 35.9277 14.6048 35.9277C11.8239 35.9277 9.56958 38.1858 9.56958 40.9713C9.56958 43.7568 11.8239 46.0149 14.6048 46.0149Z" fill="#E6E6E6"/>
<path d="M29.7108 46.0149C32.4917 46.0149 34.7461 43.7568 34.7461 40.9713C34.7461 38.1858 32.4917 35.9277 29.7108 35.9277C26.9299 35.9277 24.6755 38.1858 24.6755 40.9713C24.6755 43.7568 26.9299 46.0149 29.7108 46.0149Z" fill="#E6E6E6"/>
<path d="M44.8165 46.0149C47.5974 46.0149 49.8518 43.7568 49.8518 40.9713C49.8518 38.1858 47.5974 35.9277 44.8165 35.9277C42.0356 35.9277 39.7812 38.1858 39.7812 40.9713C39.7812 43.7568 42.0356 46.0149 44.8165 46.0149Z" fill="#E6E6E6"/>
<path d="M59.9222 46.0149C62.7031 46.0149 64.9575 43.7568 64.9575 40.9713C64.9575 38.1858 62.7031 35.9277 59.9222 35.9277C57.1413 35.9277 54.887 38.1858 54.887 40.9713C54.887 43.7568 57.1413 46.0149 59.9222 46.0149Z" fill="#E6E6E6"/>
<path d="M75.0282 46.0149C77.8091 46.0149 80.0635 43.7568 80.0635 40.9713C80.0635 38.1858 77.8091 35.9277 75.0282 35.9277C72.2473 35.9277 69.9929 38.1858 69.9929 40.9713C69.9929 43.7568 72.2473 46.0149 75.0282 46.0149Z" fill="#E6E6E6"/>
<path d="M90.1339 46.0149C92.9148 46.0149 95.1692 43.7568 95.1692 40.9713C95.1692 38.1858 92.9148 35.9277 90.1339 35.9277C87.353 35.9277 85.0986 38.1858 85.0986 40.9713C85.0986 43.7568 87.353 46.0149 90.1339 46.0149Z" fill="#E6E6E6"/>
<path d="M105.24 46.0149C108.021 46.0149 110.275 43.7568 110.275 40.9713C110.275 38.1858 108.021 35.9277 105.24 35.9277C102.459 35.9277 100.204 38.1858 100.204 40.9713C100.204 43.7568 102.459 46.0149 105.24 46.0149Z" fill="#E6E6E6"/>
<path d="M116.875 47.1132H2.9695C2.42624 47.1125 1.90542 46.8961 1.52128 46.5113C1.13714 46.1265 0.921049 45.6049 0.92041 45.0607V36.8818C0.921048 36.3377 1.13714 35.816 1.52128 35.4312C1.90542 35.0464 2.42624 34.83 2.9695 34.8293H116.875C117.419 34.83 117.939 35.0464 118.324 35.4312C118.708 35.816 118.924 36.3377 118.924 36.8818V45.0607C118.924 45.6049 118.708 46.1265 118.324 46.5113C117.939 46.8961 117.419 47.1125 116.875 47.1132ZM2.9695 35.6503C2.64353 35.6507 2.33103 35.7806 2.10054 36.0114C1.87005 36.2423 1.7404 36.5553 1.74004 36.8818V45.0607C1.7404 45.3872 1.87005 45.7002 2.10054 45.9311C2.33103 46.162 2.64354 46.2918 2.9695 46.2922H116.875C117.201 46.2918 117.514 46.162 117.744 45.9311C117.975 45.7002 118.104 45.3872 118.105 45.0607V36.8818C118.104 36.5553 117.975 36.2423 117.744 36.0114C117.514 35.7806 117.201 35.6507 116.875 35.6503L2.9695 35.6503Z" fill="#E6E6E6"/>
<path d="M27.346 1.17927C27.6581 1.17963 27.9574 1.30399 28.1781 1.52507C28.3988 1.74614 28.5229 2.04588 28.5233 2.35853V27.9132C28.5229 28.2258 28.3988 28.5256 28.1781 28.7467C27.9574 28.9677 27.6581 29.0921 27.346 29.0924H2.35466C2.04253 29.0921 1.74328 28.9677 1.52257 28.7467C1.30186 28.5256 1.1777 28.2258 1.17735 27.9132V2.35855C1.1777 2.0459 1.30186 1.74616 1.52257 1.52509C1.74328 1.30401 2.04253 1.17965 2.35466 1.17929L27.346 1.17927ZM27.346 1.69382e-05H2.35466C1.73017 1.69382e-05 1.13125 0.248506 0.689667 0.69082C0.248084 1.13314 0 1.73304 0 2.35857V27.9132C0 28.5387 0.248084 29.1386 0.689667 29.5809C1.13125 30.0232 1.73017 30.2717 2.35466 30.2717H27.346C27.9705 30.2717 28.5694 30.0232 29.011 29.5809C29.4526 29.1386 29.7006 28.5387 29.7006 27.9132V2.35855C29.7006 1.73303 29.4526 1.13312 29.011 0.690803C28.5694 0.248489 27.9705 1.79196e-05 27.346 1.69382e-05Z" fill="#E6E6E6"/>
<path d="M23.4479 7.89655H6.77392C6.69631 7.89703 6.61938 7.88214 6.54754 7.85272C6.4757 7.8233 6.41038 7.77994 6.35534 7.72514C6.30029 7.67034 6.25661 7.60518 6.2268 7.53341C6.19699 7.46163 6.18164 7.38466 6.18164 7.30693C6.18164 7.22919 6.19699 7.15222 6.2268 7.08045C6.25661 7.00867 6.30029 6.94351 6.35534 6.88871C6.41038 6.83391 6.4757 6.79056 6.54754 6.76114C6.61938 6.73172 6.69631 6.71682 6.77392 6.7173H23.4479C23.5255 6.71682 23.6025 6.73172 23.6743 6.76114C23.7462 6.79056 23.8115 6.83391 23.8665 6.88871C23.9216 6.94351 23.9652 7.00867 23.9951 7.08045C24.0249 7.15222 24.0402 7.22919 24.0402 7.30693C24.0402 7.38466 24.0249 7.46163 23.9951 7.53341C23.9652 7.60518 23.9216 7.67034 23.8665 7.72514C23.8115 7.77994 23.7462 7.8233 23.6743 7.85272C23.6025 7.88214 23.5255 7.89703 23.4479 7.89655Z" fill="#6C63FF"/>
<path d="M23.4479 12.0721H6.77392C6.69631 12.0726 6.61938 12.0577 6.54754 12.0282C6.4757 11.9988 6.41038 11.9555 6.35534 11.9007C6.30029 11.8459 6.25661 11.7807 6.2268 11.7089C6.19699 11.6372 6.18164 11.5602 6.18164 11.4825C6.18164 11.4047 6.19699 11.3278 6.2268 11.256C6.25661 11.1842 6.30029 11.119 6.35534 11.0642C6.41038 11.0094 6.4757 10.9661 6.54754 10.9367C6.61938 10.9073 6.69631 10.8924 6.77392 10.8928H23.4479C23.5255 10.8924 23.6025 10.9073 23.6743 10.9367C23.7462 10.9661 23.8115 11.0094 23.8665 11.0642C23.9216 11.119 23.9652 11.1842 23.9951 11.256C24.0249 11.3278 24.0402 11.4047 24.0402 11.4825C24.0402 11.5602 24.0249 11.6372 23.9951 11.7089C23.9652 11.7807 23.9216 11.8459 23.8665 11.9007C23.8115 11.9555 23.7462 11.9988 23.6743 12.0282C23.6025 12.0577 23.5255 12.0726 23.4479 12.0721Z" fill="#6C63FF"/>
<path d="M23.4479 16.2474H6.77392C6.69631 16.2479 6.61938 16.233 6.54754 16.2035C6.4757 16.1741 6.41038 16.1308 6.35534 16.076C6.30029 16.0212 6.25661 15.956 6.2268 15.8842C6.19699 15.8125 6.18164 15.7355 6.18164 15.6578C6.18164 15.58 6.19699 15.503 6.2268 15.4313C6.25661 15.3595 6.30029 15.2943 6.35534 15.2395C6.41038 15.1847 6.4757 15.1414 6.54754 15.112C6.61938 15.0825 6.69631 15.0676 6.77392 15.0681H23.4479C23.5255 15.0676 23.6025 15.0825 23.6743 15.112C23.7462 15.1414 23.8115 15.1847 23.8665 15.2395C23.9216 15.2943 23.9652 15.3595 23.9951 15.4313C24.0249 15.503 24.0402 15.58 24.0402 15.6578C24.0402 15.7355 24.0249 15.8125 23.9951 15.8842C23.9652 15.956 23.9216 16.0212 23.8665 16.076C23.8115 16.1308 23.7462 16.1741 23.6743 16.2035C23.6025 16.233 23.5255 16.2479 23.4479 16.2474Z" fill="#6C63FF"/>
<path d="M23.4479 20.4229H6.77392C6.69631 20.4234 6.61938 20.4085 6.54754 20.3791C6.4757 20.3497 6.41038 20.3063 6.35534 20.2515C6.30029 20.1967 6.25661 20.1315 6.2268 20.0598C6.19699 19.988 6.18164 19.911 6.18164 19.8333C6.18164 19.7556 6.19699 19.6786 6.2268 19.6068C6.25661 19.535 6.30029 19.4699 6.35534 19.4151C6.41038 19.3603 6.4757 19.3169 6.54754 19.2875C6.61938 19.2581 6.69631 19.2432 6.77392 19.2437H23.4479C23.5255 19.2432 23.6025 19.2581 23.6743 19.2875C23.7462 19.3169 23.8115 19.3603 23.8665 19.4151C23.9216 19.4699 23.9652 19.535 23.9951 19.6068C24.0249 19.6786 24.0402 19.7556 24.0402 19.8333C24.0402 19.911 24.0249 19.988 23.9951 20.0598C23.9652 20.1315 23.9216 20.1967 23.8665 20.2515C23.8115 20.3063 23.7462 20.3497 23.6743 20.3791C23.6025 20.4085 23.5255 20.4234 23.4479 20.4229Z" fill="#6C63FF"/>
<path d="M23.448 24.5985H6.77397C6.61784 24.5985 6.46811 24.5364 6.35771 24.4258C6.24732 24.3152 6.1853 24.1652 6.1853 24.0088C6.1853 23.8524 6.24732 23.7025 6.35771 23.5919C6.46811 23.4813 6.61784 23.4192 6.77397 23.4192H23.448C23.6041 23.4192 23.7538 23.4813 23.8642 23.5919C23.9746 23.7025 24.0367 23.8524 24.0367 24.0088C24.0367 24.1652 23.9746 24.3152 23.8642 24.4258C23.7538 24.5364 23.6041 24.5985 23.448 24.5985Z" fill="#6C63FF"/>
<path d="M112.702 1.17927C113.014 1.17963 113.314 1.30399 113.534 1.52507C113.755 1.74614 113.879 2.04588 113.879 2.35853V27.9132C113.879 28.2258 113.755 28.5256 113.534 28.7467C113.314 28.9677 113.014 29.0921 112.702 29.0924H87.7109C87.3987 29.0921 87.0995 28.9677 86.8788 28.7467C86.6581 28.5256 86.5339 28.2258 86.5335 27.9132V2.35855C86.5339 2.0459 86.6581 1.74616 86.8788 1.52509C87.0995 1.30401 87.3987 1.17965 87.7109 1.17929L112.702 1.17927ZM112.702 1.69382e-05H87.7109C87.0864 1.69382e-05 86.4875 0.248506 86.0459 0.69082C85.6043 1.13314 85.3562 1.73304 85.3562 2.35857V27.9132C85.3562 28.5387 85.6043 29.1386 86.0459 29.5809C86.4875 30.0232 87.0864 30.2717 87.7109 30.2717H112.702C113.327 30.2717 113.926 30.0232 114.367 29.5809C114.809 29.1386 115.057 28.5387 115.057 27.9132V2.35855C115.057 1.73303 114.809 1.13312 114.367 0.690803C113.926 0.248489 113.327 1.69382e-05 112.702 1.69382e-05Z" fill="#E6E6E6"/>
<path d="M108.804 7.89655H92.1301C92.0525 7.89703 91.9756 7.88214 91.9037 7.85272C91.8319 7.8233 91.7666 7.77994 91.7115 7.72514C91.6565 7.67034 91.6128 7.60518 91.583 7.53341C91.5532 7.46163 91.5378 7.38466 91.5378 7.30693C91.5378 7.22919 91.5532 7.15222 91.583 7.08045C91.6128 7.00867 91.6565 6.94351 91.7115 6.88871C91.7666 6.83391 91.8319 6.79056 91.9037 6.76114C91.9756 6.73172 92.0525 6.71682 92.1301 6.7173H108.804C108.96 6.71825 109.108 6.7808 109.218 6.89127C109.328 7.00174 109.389 7.15117 109.389 7.30693C109.389 7.46268 109.328 7.61211 109.218 7.72258C109.108 7.83305 108.96 7.8956 108.804 7.89655Z" fill="#6C63FF"/>
<path d="M108.804 12.0721H92.1301C92.0525 12.0726 91.9756 12.0577 91.9037 12.0282C91.8319 11.9988 91.7666 11.9555 91.7115 11.9007C91.6565 11.8459 91.6128 11.7807 91.583 11.7089C91.5532 11.6372 91.5378 11.5602 91.5378 11.4825C91.5378 11.4047 91.5532 11.3278 91.583 11.256C91.6128 11.1842 91.6565 11.119 91.7115 11.0642C91.7666 11.0094 91.8319 10.9661 91.9037 10.9367C91.9756 10.9073 92.0525 10.8924 92.1301 10.8928H108.804C108.96 10.8938 109.108 10.9563 109.218 11.0668C109.328 11.1773 109.389 11.3267 109.389 11.4825C109.389 11.6382 109.328 11.7876 109.218 11.8981C109.108 12.0086 108.96 12.0711 108.804 12.0721Z" fill="#6C63FF"/>
<path d="M108.804 16.2474H92.1301C92.0525 16.2479 91.9756 16.233 91.9037 16.2035C91.8319 16.1741 91.7666 16.1308 91.7115 16.076C91.6565 16.0212 91.6128 15.956 91.583 15.8842C91.5532 15.8125 91.5378 15.7355 91.5378 15.6578C91.5378 15.58 91.5532 15.503 91.583 15.4313C91.6128 15.3595 91.6565 15.2943 91.7115 15.2395C91.7666 15.1847 91.8319 15.1414 91.9037 15.112C91.9756 15.0825 92.0525 15.0676 92.1301 15.0681H108.804C108.96 15.0691 109.108 15.1316 109.218 15.2421C109.328 15.3526 109.389 15.502 109.389 15.6578C109.389 15.8135 109.328 15.9629 109.218 16.0734C109.108 16.1839 108.96 16.2464 108.804 16.2474Z" fill="#6C63FF"/>
<path d="M108.804 20.4229H92.1301C92.0525 20.4234 91.9756 20.4085 91.9037 20.3791C91.8319 20.3497 91.7666 20.3063 91.7115 20.2515C91.6565 20.1967 91.6128 20.1315 91.583 20.0598C91.5532 19.988 91.5378 19.911 91.5378 19.8333C91.5378 19.7556 91.5532 19.6786 91.583 19.6068C91.6128 19.535 91.6565 19.4699 91.7115 19.4151C91.7666 19.3603 91.8319 19.3169 91.9037 19.2875C91.9756 19.2581 92.0525 19.2432 92.1301 19.2437H108.804C108.96 19.2446 109.108 19.3072 109.218 19.4176C109.328 19.5281 109.389 19.6775 109.389 19.8333C109.389 19.989 109.328 20.1385 109.218 20.2489C109.108 20.3594 108.96 20.422 108.804 20.4229Z" fill="#6C63FF"/>
<path d="M108.804 24.5985H92.1302C91.974 24.5985 91.8243 24.5364 91.7139 24.4258C91.6035 24.3152 91.5415 24.1652 91.5415 24.0088C91.5415 23.8524 91.6035 23.7025 91.7139 23.5919C91.8243 23.4813 91.974 23.4192 92.1302 23.4192H108.804C108.96 23.4192 109.11 23.4813 109.22 23.5919C109.331 23.7025 109.393 23.8524 109.393 24.0088C109.393 24.1652 109.331 24.3152 109.22 24.4258C109.11 24.5364 108.96 24.5985 108.804 24.5985Z" fill="#6C63FF"/>
<path d="M197.644 50.315C197.956 50.3154 198.255 50.4397 198.476 50.6608C198.697 50.8819 198.821 51.1816 198.821 51.4943V77.0489C198.821 77.3616 198.697 77.6613 198.476 77.8824C198.255 78.1035 197.956 78.2278 197.644 78.2282H172.653C172.341 78.2278 172.041 78.1035 171.821 77.8824C171.6 77.6613 171.476 77.3616 171.475 77.0489V51.4943C171.476 51.1817 171.6 50.8819 171.821 50.6608C172.041 50.4398 172.341 50.3154 172.653 50.315L197.644 50.315ZM197.644 49.1358H172.653C172.028 49.1358 171.429 49.3843 170.988 49.8266C170.546 50.2689 170.298 50.8688 170.298 51.4943V77.049C170.298 77.6745 170.546 78.2744 170.988 78.7167C171.429 79.159 172.028 79.4075 172.653 79.4075H197.644C198.269 79.4075 198.867 79.159 199.309 78.7167C199.751 78.2744 199.999 77.6745 199.999 77.049V51.4943C199.999 50.8688 199.751 50.2689 199.309 49.8266C198.867 49.3842 198.269 49.1358 197.644 49.1358Z" fill="#6C63FF"/>
<path d="M193.746 57.0321H177.072C176.994 57.0325 176.917 57.0176 176.845 56.9882C176.774 56.9588 176.708 56.9154 176.653 56.8606C176.598 56.8058 176.554 56.7407 176.525 56.6689C176.495 56.5971 176.479 56.5202 176.479 56.4424C176.479 56.3647 176.495 56.2877 176.525 56.216C176.554 56.1442 176.598 56.079 176.653 56.0242C176.708 55.9694 176.774 55.9261 176.845 55.8966C176.917 55.8672 176.994 55.8523 177.072 55.8528H193.746C193.901 55.8538 194.05 55.9163 194.16 56.0268C194.269 56.1372 194.331 56.2867 194.331 56.4424C194.331 56.5982 194.269 56.7476 194.16 56.8581C194.05 56.9686 193.901 57.0311 193.746 57.0321Z" fill="#6C63FF"/>
<path d="M193.746 61.2076H177.072C176.916 61.2076 176.766 61.1455 176.656 61.0349C176.545 60.9243 176.483 60.7743 176.483 60.618C176.483 60.4616 176.545 60.3116 176.656 60.201C176.766 60.0904 176.916 60.0283 177.072 60.0283H193.746C193.902 60.0283 194.052 60.0904 194.162 60.201C194.272 60.3116 194.335 60.4616 194.335 60.618C194.335 60.7743 194.272 60.9243 194.162 61.0349C194.052 61.1455 193.902 61.2076 193.746 61.2076Z" fill="#6C63FF"/>
<path d="M193.746 65.3829H177.072C176.994 65.3833 176.917 65.3683 176.846 65.3388C176.774 65.3094 176.709 65.266 176.654 65.2112C176.599 65.1564 176.555 65.0913 176.525 65.0196C176.496 64.9478 176.48 64.8709 176.48 64.7932C176.48 64.7156 176.496 64.6387 176.525 64.5669C176.555 64.4952 176.599 64.4301 176.654 64.3753C176.709 64.3205 176.774 64.2771 176.846 64.2476C176.917 64.2182 176.994 64.2032 177.072 64.2036H193.746C193.901 64.2046 194.05 64.2671 194.16 64.3776C194.269 64.4881 194.331 64.6375 194.331 64.7932C194.331 64.949 194.269 65.0984 194.16 65.2089C194.05 65.3194 193.901 65.3819 193.746 65.3829Z" fill="#6C63FF"/>
<path d="M193.746 69.5587H177.072C176.994 69.5591 176.917 69.5442 176.845 69.5148C176.774 69.4854 176.708 69.442 176.653 69.3872C176.598 69.3324 176.554 69.2673 176.525 69.1955C176.495 69.1237 176.479 69.0468 176.479 68.969C176.479 68.8913 176.495 68.8143 176.525 68.7426C176.554 68.6708 176.598 68.6056 176.653 68.5508C176.708 68.496 176.774 68.4527 176.845 68.4232C176.917 68.3938 176.994 68.3789 177.072 68.3794H193.746C193.901 68.3804 194.05 68.4429 194.16 68.5534C194.269 68.6638 194.331 68.8133 194.331 68.969C194.331 69.1248 194.269 69.2742 194.16 69.3847C194.05 69.4952 193.901 69.5577 193.746 69.5587Z" fill="#6C63FF"/>
<path d="M193.746 73.734H177.072C176.994 73.7344 176.917 73.7195 176.845 73.6901C176.774 73.6607 176.708 73.6173 176.653 73.5625C176.598 73.5077 176.554 73.4426 176.525 73.3708C176.495 73.299 176.479 73.2221 176.479 73.1443C176.479 73.0666 176.495 72.9896 176.525 72.9178C176.554 72.8461 176.598 72.7809 176.653 72.7261C176.708 72.6713 176.774 72.628 176.845 72.5985C176.917 72.5691 176.994 72.5542 177.072 72.5547H193.746C193.901 72.5557 194.05 72.6182 194.16 72.7287C194.269 72.8391 194.331 72.9886 194.331 73.1443C194.331 73.3001 194.269 73.4495 194.16 73.56C194.05 73.6705 193.901 73.733 193.746 73.734Z" fill="#6C63FF"/>
<path d="M70.3512 30.2718H44.7055C44.012 30.271 43.3471 29.9946 42.8567 29.5034C42.3663 29.0122 42.0904 28.3462 42.0896 27.6515V9.27021C42.0904 8.57548 42.3662 7.90941 42.8566 7.41813C43.347 6.92686 44.012 6.65049 44.7055 6.64966H70.3512C71.0449 6.65043 71.7099 6.92676 72.2003 7.41804C72.6908 7.90933 72.9667 8.57543 72.9675 9.27021V27.6515C72.9666 28.3462 72.6907 29.0123 72.2002 29.5035C71.7098 29.9947 71.0448 30.271 70.3512 30.2718ZM44.7055 7.82893C44.3241 7.82941 43.9584 7.98142 43.6887 8.25161C43.419 8.52181 43.2673 8.88813 43.2669 9.27021V27.6515C43.2673 28.0336 43.419 28.3998 43.6887 28.67C43.9584 28.9401 44.3241 29.0921 44.7055 29.0925H70.3512C70.7327 29.0921 71.0984 28.9402 71.3681 28.67C71.6379 28.3999 71.7896 28.0336 71.7901 27.6515V9.27021C71.7897 8.8881 71.6379 8.52178 71.3682 8.25159C71.0984 7.9814 70.7327 7.82939 70.3512 7.82893H44.7055Z" fill="#E6E6E6"/>
<path d="M65.8655 14.8748H49.1915C49.036 14.8739 48.8872 14.8113 48.7776 14.7009C48.668 14.5904 48.6064 14.441 48.6064 14.2852C48.6064 14.1294 48.668 13.98 48.7776 13.8695C48.8872 13.7591 49.036 13.6965 49.1915 13.6956H65.8655C65.9431 13.6951 66.0201 13.71 66.0919 13.7394C66.1638 13.7688 66.2291 13.8122 66.2841 13.867C66.3392 13.9218 66.3828 13.9869 66.4127 14.0587C66.4425 14.1305 66.4578 14.2075 66.4578 14.2852C66.4578 14.3629 66.4425 14.4399 66.4127 14.5117C66.3828 14.5835 66.3392 14.6486 66.2841 14.7034C66.2291 14.7582 66.1638 14.8016 66.0919 14.831C66.0201 14.8604 65.9431 14.8753 65.8655 14.8748Z" fill="#6C63FF"/>
<path d="M65.8655 19.0504H49.1915C49.036 19.0494 48.8872 18.9869 48.7776 18.8764C48.668 18.7659 48.6064 18.6165 48.6064 18.4607C48.6064 18.305 48.668 18.1556 48.7776 18.0451C48.8872 17.9346 49.036 17.8721 49.1915 17.8711H65.8655C65.9431 17.8706 66.0201 17.8855 66.0919 17.9149C66.1638 17.9444 66.2291 17.9877 66.2841 18.0425C66.3392 18.0973 66.3828 18.1625 66.4127 18.2343C66.4425 18.306 66.4578 18.383 66.4578 18.4607C66.4578 18.5385 66.4425 18.6154 66.4127 18.6872C66.3828 18.759 66.3392 18.8242 66.2841 18.879C66.2291 18.9338 66.1638 18.9771 66.0919 19.0065C66.0201 19.0359 65.9431 19.0508 65.8655 19.0504Z" fill="#6C63FF"/>
<path d="M65.8655 23.2257H49.1915C49.036 23.2247 48.8872 23.1622 48.7776 23.0517C48.668 22.9412 48.6064 22.7918 48.6064 22.636C48.6064 22.4803 48.668 22.3308 48.7776 22.2204C48.8872 22.1099 49.036 22.0474 49.1915 22.0464H65.8655C65.9431 22.0459 66.0201 22.0608 66.0919 22.0902C66.1638 22.1197 66.2291 22.163 66.2841 22.2178C66.3392 22.2726 66.3828 22.3378 66.4127 22.4095C66.4425 22.4813 66.4578 22.5583 66.4578 22.636C66.4578 22.7138 66.4425 22.7907 66.4127 22.8625C66.3828 22.9343 66.3392 22.9994 66.2841 23.0542C66.2291 23.109 66.1638 23.1524 66.0919 23.1818C66.0201 23.2112 65.9431 23.2261 65.8655 23.2257Z" fill="#6C63FF"/>
<path d="M155.448 40.4573L130.817 33.3025C130.151 33.1082 129.589 32.6573 129.255 32.0488C128.921 31.4402 128.841 30.7235 129.033 30.0561L134.144 12.4022C134.338 11.7352 134.788 11.1724 135.396 10.8374C136.004 10.5024 136.719 10.4225 137.385 10.6152L162.016 17.7699C162.682 17.9642 163.244 18.4151 163.579 19.0238C163.913 19.6325 163.993 20.3492 163.8 21.0167L158.689 38.6706C158.495 39.3376 158.045 39.9003 157.437 40.2353C156.83 40.5702 156.114 40.6501 155.448 40.4573ZM137.058 11.7478C136.691 11.6418 136.298 11.6858 135.963 11.87C135.629 12.0543 135.382 12.3638 135.275 12.7307L130.164 30.3846C130.058 30.7516 130.102 31.1457 130.286 31.4804C130.47 31.8151 130.779 32.0631 131.145 32.1699L155.776 39.3247C156.142 39.4307 156.536 39.3868 156.87 39.2026C157.204 39.0184 157.452 38.709 157.558 38.3421L162.67 20.6882C162.775 20.3211 162.732 19.9269 162.548 19.5922C162.364 19.2574 162.055 19.0094 161.688 18.9026L137.058 11.7478Z" fill="#E6E6E6"/>
<path d="M155.421 24.4183L139.407 19.7665C139.257 19.7227 139.131 19.6212 139.056 19.4843C138.981 19.3474 138.963 19.1863 139.006 19.0363C139.05 18.8863 139.151 18.7596 139.287 18.6842C139.424 18.6088 139.585 18.5906 139.735 18.6338L155.749 23.2857C155.899 23.3292 156.025 23.4307 156.101 23.5677C156.176 23.7047 156.194 23.866 156.15 24.0162C156.107 24.1664 156.006 24.2931 155.869 24.3685C155.732 24.4439 155.571 24.4618 155.421 24.4183Z" fill="#6C63FF"/>
<path d="M154.26 28.4286L138.245 23.7768C138.171 23.7552 138.102 23.7192 138.042 23.6708C137.981 23.6225 137.931 23.5626 137.894 23.4948C137.856 23.427 137.833 23.3524 137.824 23.2755C137.816 23.1985 137.823 23.1206 137.844 23.0463C137.866 22.9719 137.902 22.9025 137.95 22.842C137.998 22.7816 138.058 22.7313 138.126 22.6939C138.193 22.6566 138.268 22.633 138.345 22.6244C138.421 22.6159 138.499 22.6226 138.573 22.6442L154.588 27.296C154.737 27.3398 154.864 27.4413 154.939 27.5782C155.014 27.7151 155.031 27.8762 154.988 28.0262C154.945 28.1762 154.843 28.3028 154.707 28.3783C154.57 28.4537 154.41 28.4718 154.26 28.4286Z" fill="#6C63FF"/>
<path d="M153.099 32.4388L137.085 27.787C136.935 27.7432 136.809 27.6417 136.734 27.5048C136.659 27.3679 136.641 27.2068 136.684 27.0568C136.728 26.9068 136.829 26.7801 136.965 26.7047C137.102 26.6293 137.263 26.6112 137.413 26.6544L153.427 31.3062C153.577 31.3497 153.703 31.4512 153.779 31.5882C153.854 31.7252 153.872 31.8865 153.828 32.0367C153.785 32.1869 153.684 32.3136 153.547 32.389C153.41 32.4645 153.249 32.4823 153.099 32.4388Z" fill="#6C63FF"/>
<path d="M316 224.89H57.667V226H316V224.89Z" fill="#E6E6E6"/>
<path d="M207.66 223.154H165.651L167.075 204.612H206.236L207.66 223.154Z" fill="#E6E6E6"/>
<path d="M210.508 221.015H163.515V225.294H210.508V221.015Z" fill="#E6E6E6"/>
<path d="M267.113 85.1523H106.554C105.421 85.1523 104.335 85.6032 103.533 86.4057C102.732 87.2082 102.282 88.2966 102.282 89.4315V187.495H271.385V89.4315C271.385 88.8695 271.275 88.3131 271.06 87.7939C270.845 87.2748 270.53 86.803 270.134 86.4057C269.737 86.0083 269.266 85.6931 268.748 85.4781C268.23 85.263 267.674 85.1523 267.113 85.1523Z" fill="#3F3D56"/>
<path d="M102.282 187.495V203.542C102.282 204.104 102.393 204.66 102.607 205.179C102.822 205.699 103.137 206.17 103.533 206.568C103.93 206.965 104.401 207.28 104.919 207.495C105.438 207.71 105.993 207.821 106.554 207.821H267.113C268.246 207.821 269.333 207.37 270.134 206.568C270.935 205.765 271.385 204.677 271.385 203.542V187.495H102.282Z" fill="#E6E6E6"/>
<path d="M263.197 94.0674H110.826V179.65H263.197V94.0674Z" fill="#E6E6E6"/>
<path d="M187.012 201.759C189.371 201.759 191.284 199.843 191.284 197.48C191.284 195.117 189.371 193.201 187.012 193.201C184.652 193.201 182.74 195.117 182.74 197.48C182.74 199.843 184.652 201.759 187.012 201.759Z" fill="#3F3D56"/>
<path d="M115.577 97.6818C116.025 97.6818 116.388 97.3182 116.388 96.8697C116.388 96.4212 116.025 96.0576 115.577 96.0576C115.13 96.0576 114.767 96.4212 114.767 96.8697C114.767 97.3182 115.13 97.6818 115.577 97.6818Z" fill="white"/>
<path d="M118.654 97.6818C119.102 97.6818 119.465 97.3182 119.465 96.8697C119.465 96.4212 119.102 96.0576 118.654 96.0576C118.207 96.0576 117.844 96.4212 117.844 96.8697C117.844 97.3182 118.207 97.6818 118.654 97.6818Z" fill="white"/>
<path d="M121.732 97.6818C122.18 97.6818 122.543 97.3182 122.543 96.8697C122.543 96.4212 122.18 96.0576 121.732 96.0576C121.284 96.0576 120.921 96.4212 120.921 96.8697C120.921 97.3182 121.284 97.6818 121.732 97.6818Z" fill="white"/>
<path d="M258.805 99.6294H114.767V171.505H258.805V99.6294Z" fill="white"/>
<path d="M124.341 110.562C124.206 110.562 124.077 110.616 123.981 110.712C123.886 110.807 123.832 110.937 123.832 111.072V136.854C123.832 136.989 123.886 137.118 123.981 137.214C124.077 137.31 124.206 137.364 124.341 137.364H154.066C154.201 137.364 154.33 137.31 154.425 137.214C154.521 137.118 154.575 136.989 154.575 136.854V111.072C154.575 110.937 154.521 110.807 154.425 110.712C154.33 110.616 154.201 110.562 154.066 110.562H124.341Z" fill="#E6E6E6"/>
<path d="M172.067 110.645C171.932 110.645 171.803 110.699 171.707 110.795C171.612 110.89 171.558 111.02 171.558 111.155V136.854C171.558 136.989 171.612 137.119 171.707 137.214C171.803 137.31 171.932 137.364 172.067 137.364H201.697C201.832 137.364 201.961 137.31 202.057 137.214C202.152 137.119 202.206 136.989 202.206 136.854V111.155C202.206 111.02 202.152 110.89 202.057 110.795C201.961 110.699 201.832 110.645 201.697 110.645H172.067Z" fill="#E6E6E6"/>
<path d="M219.293 110.375C219.158 110.376 219.029 110.429 218.933 110.525C218.838 110.621 218.784 110.75 218.784 110.886V136.854C218.784 136.989 218.838 137.118 218.933 137.214C219.029 137.31 219.158 137.363 219.293 137.364H249.231C249.366 137.363 249.495 137.31 249.59 137.214C249.686 137.118 249.74 136.989 249.74 136.854V110.886C249.74 110.75 249.686 110.621 249.59 110.525C249.495 110.429 249.366 110.376 249.231 110.375H219.293Z" fill="#E6E6E6"/>
<path d="M124.885 150.125C124.606 150.126 124.339 150.237 124.142 150.435C123.945 150.633 123.834 150.901 123.834 151.18C123.834 151.459 123.945 151.727 124.142 151.925C124.339 152.123 124.606 152.234 124.885 152.235H152.831C153.11 152.234 153.378 152.123 153.575 151.925C153.772 151.727 153.882 151.459 153.882 151.18C153.882 150.901 153.772 150.633 153.575 150.435C153.378 150.237 153.11 150.126 152.831 150.125H124.885Z" fill="#E6E6E6"/>
<path d="M124.885 155.141C124.606 155.142 124.338 155.253 124.141 155.451C123.944 155.648 123.834 155.916 123.834 156.196C123.834 156.475 123.944 156.743 124.141 156.941C124.338 157.138 124.606 157.25 124.885 157.25H137.467C137.746 157.25 138.014 157.138 138.211 156.941C138.408 156.743 138.518 156.475 138.518 156.196C138.518 155.916 138.408 155.648 138.211 155.451C138.014 155.253 137.746 155.142 137.467 155.141H124.885Z" fill="#6C63FF"/>
<path d="M173.124 150.125C172.845 150.126 172.578 150.237 172.381 150.435C172.184 150.633 172.073 150.901 172.073 151.18C172.073 151.459 172.184 151.727 172.381 151.925C172.578 152.123 172.845 152.234 173.124 152.235H201.071C201.349 152.234 201.617 152.123 201.814 151.925C202.011 151.727 202.121 151.459 202.121 151.18C202.121 150.901 202.011 150.633 201.814 150.435C201.617 150.237 201.349 150.126 201.071 150.125H173.124Z" fill="#E6E6E6"/>
<path d="M173.124 155.141C172.845 155.142 172.577 155.253 172.38 155.451C172.183 155.648 172.073 155.916 172.073 156.196C172.073 156.475 172.183 156.743 172.38 156.941C172.577 157.138 172.845 157.25 173.124 157.25H185.707C185.986 157.25 186.253 157.138 186.45 156.941C186.647 156.743 186.758 156.475 186.758 156.196C186.758 155.916 186.647 155.648 186.45 155.451C186.253 155.253 185.986 155.142 185.707 155.141H173.124Z" fill="#6C63FF"/>
<path d="M220.157 150.125C219.878 150.126 219.611 150.237 219.414 150.435C219.217 150.633 219.106 150.901 219.106 151.18C219.106 151.459 219.217 151.727 219.414 151.925C219.611 152.123 219.878 152.234 220.157 152.235H248.104C248.383 152.234 248.65 152.123 248.847 151.925C249.044 151.727 249.155 151.459 249.155 151.18C249.155 150.901 249.044 150.633 248.847 150.435C248.65 150.237 248.383 150.126 248.104 150.125H220.157Z" fill="#E6E6E6"/>
<path d="M124.885 144.945C124.606 144.946 124.339 145.057 124.142 145.255C123.945 145.453 123.834 145.72 123.834 146C123.834 146.279 123.945 146.547 124.142 146.745C124.339 146.942 124.606 147.054 124.885 147.054H152.831C153.11 147.054 153.378 146.942 153.575 146.745C153.772 146.547 153.882 146.279 153.882 146C153.882 145.72 153.772 145.453 153.575 145.255C153.378 145.057 153.11 144.946 152.831 144.945H124.885Z" fill="#E6E6E6"/>
<path d="M173.124 144.945C172.845 144.946 172.578 145.057 172.381 145.255C172.184 145.453 172.073 145.72 172.073 146C172.073 146.279 172.184 146.547 172.381 146.745C172.578 146.942 172.845 147.054 173.124 147.054H201.071C201.349 147.054 201.617 146.942 201.814 146.745C202.011 146.547 202.121 146.279 202.121 146C202.121 145.72 202.011 145.453 201.814 145.255C201.617 145.057 201.349 144.946 201.071 144.945H173.124Z" fill="#E6E6E6"/>
<path d="M220.157 144.945C219.878 144.946 219.611 145.057 219.414 145.255C219.217 145.453 219.106 145.72 219.106 146C219.106 146.279 219.217 146.547 219.414 146.745C219.611 146.942 219.878 147.054 220.157 147.054H248.104C248.383 147.054 248.65 146.942 248.847 146.745C249.044 146.547 249.155 146.279 249.155 146C249.155 145.72 249.044 145.453 248.847 145.255C248.65 145.057 248.383 144.946 248.104 144.945H220.157Z" fill="#E6E6E6"/>
<path d="M220.157 155.141C219.878 155.142 219.611 155.253 219.414 155.451C219.217 155.648 219.106 155.916 219.106 156.196C219.106 156.475 219.217 156.743 219.414 156.941C219.611 157.138 219.878 157.25 220.157 157.25H232.74C233.019 157.25 233.286 157.138 233.483 156.941C233.68 156.743 233.791 156.475 233.791 156.196C233.791 155.916 233.68 155.648 233.483 155.451C233.286 155.253 233.019 155.142 232.74 155.141H220.157Z" fill="#6C63FF"/>
</g>
<defs>
<clipPath id="clip0_145_60">
<rect width="316" height="226" fill="white"/>
</clipPath>
</defs>
</svg>
