<svg width="207" height="207" viewBox="0 0 207 207" fill="none" xmlns="http://www.w3.org/2000/svg">
<g id="undraw_programmer_re_owql 1" clip-path="url(#clip0_145_351)">
<path id="Vector" d="M207 103.5C207.036 127.931 198.394 151.582 182.615 170.234C182.042 170.915 181.458 171.584 180.864 172.25C173.868 180.119 165.718 186.879 156.693 192.302C154.623 193.545 152.508 194.716 150.347 195.816C150.129 195.927 149.907 196.038 149.688 196.145C149.427 196.278 149.162 196.406 148.897 196.535C143.429 199.212 137.734 201.395 131.878 203.061C131.27 203.232 130.66 203.4 130.048 203.562C122.346 205.6 114.433 206.74 106.469 206.961C106.053 206.971 105.645 206.979 105.251 206.986C105.112 206.989 104.976 206.993 104.839 206.993C104.392 206.996 103.948 207 103.5 207C95.1069 207.006 86.7441 205.992 78.5956 203.981C77.779 203.78 76.9661 203.569 76.1567 203.347C71.8933 202.183 67.7099 200.744 63.6328 199.039C61.484 198.143 59.3734 197.178 57.3011 196.141C56.8319 195.905 56.3628 195.669 55.9008 195.425C55.7038 195.328 55.5104 195.225 55.317 195.124C44.2716 189.295 34.3664 181.523 26.0756 172.182C25.5026 171.541 24.9403 170.89 24.3852 170.234C15.2502 159.403 8.43614 146.812 4.36495 133.241C0.293771 119.67 -0.947818 105.407 0.71709 91.3365C2.382 77.2659 6.91795 63.6869 14.044 51.4405C21.1701 39.1941 30.7345 28.5411 42.1449 20.1413C42.7323 19.708 43.3232 19.2782 43.9213 18.8592C44.0394 18.7768 44.1576 18.6945 44.2758 18.6121C54.7846 11.2511 66.5796 5.92444 79.0504 2.90802C79.7595 2.73254 80.4686 2.5678 81.1848 2.4138C94.6926 -0.54089 108.652 -0.785568 122.255 1.69396C122.968 1.82647 123.681 1.96256 124.39 2.10939C136.749 4.64443 148.537 9.4311 159.164 16.2305C159.401 16.3809 159.637 16.5313 159.873 16.6889C160.35 16.9969 160.826 17.3121 161.295 17.6308C175.374 27.0956 186.907 39.8793 194.877 54.8544C202.848 69.8294 207.011 86.5358 207 103.5Z" fill="#F2F2F2"/>
<path id="Vector_2" d="M77.3563 157.044L44.2757 159.981L43.9211 160.013V18.8594C44.0393 18.777 44.1575 18.6947 44.2757 18.6123C51.17 13.7899 58.6279 9.82828 66.4834 6.81543L68.1738 30.1298L68.3278 32.2643L70.0003 55.3852L70.516 62.4977L77.2954 156.221L77.3563 157.044Z" fill="#CCCCCC"/>
<path id="Vector_3" d="M159.164 16.2307C159.401 16.3811 159.637 16.5316 159.873 16.6891V160.013L159.164 159.949L126.442 157.044L126.503 156.221L133.282 62.4977L133.798 55.3852L135.47 32.2643L135.624 30.1298L137.397 5.68018C145.042 8.33012 152.348 11.8714 159.164 16.2307Z" fill="#CCCCCC"/>
<path id="Vector_4" d="M159.164 16.2305V161.968C159.164 164.765 157.238 167.04 154.867 167.04H48.5734C46.6109 167.04 44.9455 165.478 44.4406 163.347C44.3304 162.896 44.275 162.433 44.2758 161.968V18.612C44.1577 18.6944 44.0395 18.7768 43.9213 18.8592C43.3232 19.2782 42.7323 19.7079 42.145 20.1413V161.968C42.1132 164.093 42.9066 166.147 44.3582 167.699C45.1194 168.496 46.0822 169.073 47.1445 169.367C47.6102 169.494 48.0908 169.558 48.5734 169.557H154.867C155.351 169.558 155.832 169.494 156.299 169.367C159.157 168.597 161.295 165.575 161.295 161.968V17.6308C160.826 17.312 160.35 16.9969 159.874 16.6889C159.637 16.5313 159.401 16.3809 159.164 16.2305Z" fill="#CCCCCC"/>
<path id="Vector_5" d="M160.231 30.1309H43.2104V32.265H160.231V30.1309Z" fill="#CCCCCC"/>
<path id="Vector_6" d="M79.0503 2.90779C79.7594 2.73231 80.4685 2.56757 81.1848 2.41357V60.3628H79.0503V2.90779Z" fill="#CCCCCC"/>
<path id="Vector_7" d="M122.255 1.69385C122.968 1.82636 123.681 1.96245 124.39 2.10928V60.3629H122.255V1.69385Z" fill="#CCCCCC"/>
<path id="Vector_8" d="M173.569 156.221H33.4281C30.8807 156.221 28.4376 157.233 26.6363 159.034C24.835 160.835 23.823 163.278 23.823 165.826C23.823 168.373 24.835 170.816 26.6363 172.618C28.4376 174.419 30.8807 175.431 33.4281 175.431H173.569C174.933 175.431 176.281 175.14 177.524 174.578C178.766 174.015 179.874 173.194 180.774 172.168C181.181 171.705 181.544 171.204 181.856 170.671C182.097 170.263 182.307 169.837 182.482 169.396C183.067 167.939 183.286 166.361 183.119 164.799C182.952 163.238 182.405 161.742 181.525 160.441C180.645 159.14 179.46 158.076 178.072 157.34C176.685 156.604 175.139 156.22 173.569 156.221Z" fill="#CCCCCC"/>
<path id="Vector_9" d="M160.231 55.3848H43.9219V62.4985H160.231V55.3848Z" fill="#CCCCCC"/>
<path id="Vector_10" d="M101.009 53.2505H103.143C103.657 53.2505 104.166 53.3517 104.641 53.5483C105.115 53.7449 105.547 54.0331 105.91 54.3964C106.273 54.7598 106.561 55.1911 106.758 55.6658C106.955 56.1405 107.056 56.6492 107.056 57.163H97.0967C97.0967 56.1254 97.5089 55.1302 98.2426 54.3964C98.9764 53.6627 99.9716 53.2505 101.009 53.2505Z" fill="#CCCCCC"/>
<path id="Vector_11" d="M182.615 170.234C179.504 173.921 176.139 177.385 172.544 180.602H34.4559C30.8615 177.385 27.4964 173.921 24.3853 170.234H182.615Z" fill="#3F3D56"/>
<path id="Vector_12" d="M115.061 134.324H91.8107C91.6854 134.323 91.5608 134.342 91.4418 134.382C91.1894 134.46 90.9687 134.616 90.812 134.829C90.6554 135.042 90.5711 135.299 90.5715 135.563V172.293H116.303V135.563C116.303 135.4 116.271 135.239 116.208 135.089C116.146 134.938 116.054 134.801 115.939 134.686C115.823 134.571 115.686 134.48 115.536 134.418C115.385 134.356 115.224 134.324 115.061 134.324ZM106.261 152.446C106.262 153.041 106.066 153.621 105.703 154.093C105.356 154.552 104.875 154.89 104.326 155.06C103.777 155.23 103.188 155.224 102.643 155.042C102.098 154.86 101.624 154.511 101.288 154.046C100.951 153.58 100.769 153.02 100.768 152.446V148.184C100.774 147.46 101.067 146.768 101.581 146.258C102.095 145.748 102.79 145.462 103.514 145.462C104.239 145.462 104.933 145.748 105.448 146.258C105.962 146.768 106.255 147.46 106.261 148.184V152.446Z" fill="#2F2E41"/>
<path id="Vector_13" d="M90.4927 171.119V174.661C90.4926 174.844 90.5653 175.02 90.6949 175.151C90.8244 175.281 91.0002 175.354 91.1839 175.355H115.691C115.874 175.354 116.05 175.28 116.179 175.15C116.309 175.02 116.381 174.844 116.382 174.661V171.119H90.4927Z" fill="#3F3D56"/>
<path id="Vector_14" d="M153.56 77.0054H54.178C53.3241 77.0065 52.5055 77.3459 51.9013 77.9494C51.2972 78.5528 50.9569 79.3711 50.9548 80.225V147.289C50.9555 148.143 51.2953 148.963 51.8996 149.567C52.5039 150.171 53.3234 150.511 54.178 150.512H153.56C154.414 150.511 155.234 150.171 155.838 149.567C156.442 148.963 156.782 148.143 156.783 147.289V80.225C156.781 79.3711 156.44 78.5528 155.836 77.9494C155.232 77.3459 154.413 77.0065 153.56 77.0054Z" fill="#3F3D56"/>
<path id="Vector_15" d="M152.729 79.3335H55.0053C54.5481 79.3345 54.11 79.5168 53.7871 79.8404C53.4642 80.164 53.2828 80.6025 53.2827 81.0597V146.462C53.2835 146.918 53.4652 147.356 53.7881 147.679C54.111 148.002 54.5487 148.184 55.0053 148.184H152.729C153.185 148.183 153.623 148.002 153.946 147.679C154.269 147.356 154.451 146.918 154.451 146.462V81.0597C154.451 80.6025 154.27 80.164 153.947 79.8404C153.624 79.5168 153.186 79.3345 152.729 79.3335Z" fill="#6C63FF"/>
<path id="Vector_16" d="M134.743 175.298L133.841 171.011C133.804 170.837 133.723 170.674 133.607 170.538C133.49 170.402 133.342 170.298 133.175 170.234C133.054 170.187 132.925 170.162 132.795 170.163H76.4576C76.3276 170.162 76.1989 170.187 76.0779 170.234C75.9109 170.298 75.7624 170.402 75.6461 170.538C75.5298 170.674 75.4492 170.837 75.4118 171.011L74.5093 175.298C74.4767 175.454 74.4792 175.615 74.5166 175.769C74.554 175.924 74.6254 176.068 74.7255 176.192C74.8257 176.315 74.9521 176.415 75.0956 176.483C75.2391 176.552 75.3961 176.587 75.5551 176.587H133.694C133.854 176.588 134.011 176.553 134.155 176.484C134.299 176.415 134.426 176.315 134.525 176.19C134.625 176.067 134.697 175.923 134.735 175.769C134.773 175.614 134.776 175.454 134.743 175.298Z" fill="#2F2E41"/>
<path id="Vector_17" d="M78.4862 170.935H77.0452C76.9486 170.935 76.8704 171.013 76.8704 171.109V171.834C76.8704 171.931 76.9486 172.009 77.0452 172.009H78.4862C78.5827 172.009 78.661 171.931 78.661 171.834V171.109C78.661 171.013 78.5827 170.935 78.4862 170.935Z" fill="#3F3D56"/>
<path id="Vector_18" d="M82.0675 170.935H80.6265C80.5299 170.935 80.4517 171.013 80.4517 171.109V171.834C80.4517 171.931 80.5299 172.009 80.6265 172.009H82.0675C82.164 172.009 82.2423 171.931 82.2423 171.834V171.109C82.2423 171.013 82.164 170.935 82.0675 170.935Z" fill="#3F3D56"/>
<path id="Vector_19" d="M85.6488 170.935H84.2078C84.1112 170.935 84.033 171.013 84.033 171.109V171.834C84.033 171.931 84.1112 172.009 84.2078 172.009H85.6488C85.7453 172.009 85.8236 171.931 85.8236 171.834V171.109C85.8236 171.013 85.7453 170.935 85.6488 170.935Z" fill="#3F3D56"/>
<path id="Vector_20" d="M89.2301 170.935H87.7891C87.6925 170.935 87.6143 171.013 87.6143 171.109V171.834C87.6143 171.931 87.6925 172.009 87.7891 172.009H89.2301C89.3266 172.009 89.4049 171.931 89.4049 171.834V171.109C89.4049 171.013 89.3266 170.935 89.2301 170.935Z" fill="#3F3D56"/>
<path id="Vector_21" d="M92.8116 170.935H91.3706C91.2741 170.935 91.1958 171.013 91.1958 171.109V171.834C91.1958 171.931 91.2741 172.009 91.3706 172.009H92.8116C92.9082 172.009 92.9865 171.931 92.9865 171.834V171.109C92.9865 171.013 92.9082 170.935 92.8116 170.935Z" fill="#3F3D56"/>
<path id="Vector_22" d="M96.3929 170.935H94.9519C94.8554 170.935 94.7771 171.013 94.7771 171.109V171.834C94.7771 171.931 94.8554 172.009 94.9519 172.009H96.3929C96.4895 172.009 96.5678 171.931 96.5678 171.834V171.109C96.5678 171.013 96.4895 170.935 96.3929 170.935Z" fill="#3F3D56"/>
<path id="Vector_23" d="M99.9742 170.935H98.5332C98.4367 170.935 98.3584 171.013 98.3584 171.109V171.834C98.3584 171.931 98.4367 172.009 98.5332 172.009H99.9742C100.071 172.009 100.149 171.931 100.149 171.834V171.109C100.149 171.013 100.071 170.935 99.9742 170.935Z" fill="#3F3D56"/>
<path id="Vector_24" d="M103.556 170.935H102.115C102.018 170.935 101.94 171.013 101.94 171.109V171.834C101.94 171.931 102.018 172.009 102.115 172.009H103.556C103.652 172.009 103.73 171.931 103.73 171.834V171.109C103.73 171.013 103.652 170.935 103.556 170.935Z" fill="#3F3D56"/>
<path id="Vector_25" d="M107.137 170.935H105.696C105.599 170.935 105.521 171.013 105.521 171.109V171.834C105.521 171.931 105.599 172.009 105.696 172.009H107.137C107.233 172.009 107.312 171.931 107.312 171.834V171.109C107.312 171.013 107.233 170.935 107.137 170.935Z" fill="#3F3D56"/>
<path id="Vector_26" d="M110.718 170.935H109.277C109.181 170.935 109.102 171.013 109.102 171.109V171.834C109.102 171.931 109.181 172.009 109.277 172.009H110.718C110.815 172.009 110.893 171.931 110.893 171.834V171.109C110.893 171.013 110.815 170.935 110.718 170.935Z" fill="#3F3D56"/>
<path id="Vector_27" d="M114.299 170.935H112.858C112.762 170.935 112.684 171.013 112.684 171.109V171.834C112.684 171.931 112.762 172.009 112.858 172.009H114.299C114.396 172.009 114.474 171.931 114.474 171.834V171.109C114.474 171.013 114.396 170.935 114.299 170.935Z" fill="#3F3D56"/>
<path id="Vector_28" d="M117.881 170.935H116.44C116.343 170.935 116.265 171.013 116.265 171.109V171.834C116.265 171.931 116.343 172.009 116.44 172.009H117.881C117.977 172.009 118.056 171.931 118.056 171.834V171.109C118.056 171.013 117.977 170.935 117.881 170.935Z" fill="#3F3D56"/>
<path id="Vector_29" d="M121.462 170.935H120.021C119.924 170.935 119.846 171.013 119.846 171.109V171.834C119.846 171.931 119.924 172.009 120.021 172.009H121.462C121.559 172.009 121.637 171.931 121.637 171.834V171.109C121.637 171.013 121.559 170.935 121.462 170.935Z" fill="#3F3D56"/>
<path id="Vector_30" d="M125.043 170.935H123.602C123.506 170.935 123.427 171.013 123.427 171.109V171.834C123.427 171.931 123.506 172.009 123.602 172.009H125.043C125.14 172.009 125.218 171.931 125.218 171.834V171.109C125.218 171.013 125.14 170.935 125.043 170.935Z" fill="#3F3D56"/>
<path id="Vector_31" d="M128.625 170.935H127.184C127.087 170.935 127.009 171.013 127.009 171.109V171.834C127.009 171.931 127.087 172.009 127.184 172.009H128.625C128.721 172.009 128.799 171.931 128.799 171.834V171.109C128.799 171.013 128.721 170.935 128.625 170.935Z" fill="#3F3D56"/>
<path id="Vector_32" d="M132.206 170.935H130.765C130.668 170.935 130.59 171.013 130.59 171.109V171.834C130.59 171.931 130.668 172.009 130.765 172.009H132.206C132.302 172.009 132.381 171.931 132.381 171.834V171.109C132.381 171.013 132.302 170.935 132.206 170.935Z" fill="#3F3D56"/>
<path id="Vector_33" d="M78.4439 172.725H77.003C76.9064 172.725 76.8281 172.803 76.8281 172.9V173.625C76.8281 173.721 76.9064 173.799 77.003 173.799H78.4439C78.5405 173.799 78.6188 173.721 78.6188 173.625V172.9C78.6188 172.803 78.5405 172.725 78.4439 172.725Z" fill="#3F3D56"/>
<path id="Vector_34" d="M82.0252 172.725H80.5843C80.4877 172.725 80.4094 172.803 80.4094 172.9V173.625C80.4094 173.721 80.4877 173.799 80.5843 173.799H82.0252C82.1218 173.799 82.2001 173.721 82.2001 173.625V172.9C82.2001 172.803 82.1218 172.725 82.0252 172.725Z" fill="#3F3D56"/>
<path id="Vector_35" d="M85.6065 172.725H84.1656C84.069 172.725 83.9907 172.803 83.9907 172.9V173.625C83.9907 173.721 84.069 173.799 84.1656 173.799H85.6065C85.7031 173.799 85.7814 173.721 85.7814 173.625V172.9C85.7814 172.803 85.7031 172.725 85.6065 172.725Z" fill="#3F3D56"/>
<path id="Vector_36" d="M89.1878 172.725H87.7469C87.6503 172.725 87.572 172.803 87.572 172.9V173.625C87.572 173.721 87.6503 173.799 87.7469 173.799H89.1878C89.2844 173.799 89.3627 173.721 89.3627 173.625V172.9C89.3627 172.803 89.2844 172.725 89.1878 172.725Z" fill="#3F3D56"/>
<path id="Vector_37" d="M92.7691 172.725H91.3282C91.2316 172.725 91.1533 172.803 91.1533 172.9V173.625C91.1533 173.721 91.2316 173.799 91.3282 173.799H92.7691C92.8657 173.799 92.944 173.721 92.944 173.625V172.9C92.944 172.803 92.8657 172.725 92.7691 172.725Z" fill="#3F3D56"/>
<path id="Vector_38" d="M96.3504 172.725H94.9095C94.8129 172.725 94.7346 172.803 94.7346 172.9V173.625C94.7346 173.721 94.8129 173.799 94.9095 173.799H96.3504C96.447 173.799 96.5253 173.721 96.5253 173.625V172.9C96.5253 172.803 96.447 172.725 96.3504 172.725Z" fill="#3F3D56"/>
<path id="Vector_39" d="M99.9317 172.725H98.4908C98.3942 172.725 98.3159 172.803 98.3159 172.9V173.625C98.3159 173.721 98.3942 173.799 98.4908 173.799H99.9317C100.028 173.799 100.107 173.721 100.107 173.625V172.9C100.107 172.803 100.028 172.725 99.9317 172.725Z" fill="#3F3D56"/>
<path id="Vector_40" d="M103.513 172.725H102.072C101.975 172.725 101.897 172.803 101.897 172.9V173.625C101.897 173.721 101.975 173.799 102.072 173.799H103.513C103.61 173.799 103.688 173.721 103.688 173.625V172.9C103.688 172.803 103.61 172.725 103.513 172.725Z" fill="#3F3D56"/>
<path id="Vector_41" d="M107.094 172.725H105.653C105.557 172.725 105.479 172.803 105.479 172.9V173.625C105.479 173.721 105.557 173.799 105.653 173.799H107.094C107.191 173.799 107.269 173.721 107.269 173.625V172.9C107.269 172.803 107.191 172.725 107.094 172.725Z" fill="#3F3D56"/>
<path id="Vector_42" d="M110.676 172.725H109.235C109.138 172.725 109.06 172.803 109.06 172.9V173.625C109.06 173.721 109.138 173.799 109.235 173.799H110.676C110.772 173.799 110.851 173.721 110.851 173.625V172.9C110.851 172.803 110.772 172.725 110.676 172.725Z" fill="#3F3D56"/>
<path id="Vector_43" d="M114.257 172.725H112.816C112.72 172.725 112.641 172.803 112.641 172.9V173.625C112.641 173.721 112.72 173.799 112.816 173.799H114.257C114.354 173.799 114.432 173.721 114.432 173.625V172.9C114.432 172.803 114.354 172.725 114.257 172.725Z" fill="#3F3D56"/>
<path id="Vector_44" d="M117.838 172.725H116.397C116.301 172.725 116.223 172.803 116.223 172.9V173.625C116.223 173.721 116.301 173.799 116.397 173.799H117.838C117.935 173.799 118.013 173.721 118.013 173.625V172.9C118.013 172.803 117.935 172.725 117.838 172.725Z" fill="#3F3D56"/>
<path id="Vector_45" d="M121.42 172.725H119.979C119.882 172.725 119.804 172.803 119.804 172.9V173.625C119.804 173.721 119.882 173.799 119.979 173.799H121.42C121.516 173.799 121.595 173.721 121.595 173.625V172.9C121.595 172.803 121.516 172.725 121.42 172.725Z" fill="#3F3D56"/>
<path id="Vector_46" d="M125.001 172.725H123.56C123.464 172.725 123.385 172.803 123.385 172.9V173.625C123.385 173.721 123.464 173.799 123.56 173.799H125.001C125.098 173.799 125.176 173.721 125.176 173.625V172.9C125.176 172.803 125.098 172.725 125.001 172.725Z" fill="#3F3D56"/>
<path id="Vector_47" d="M128.582 172.725H127.141C127.045 172.725 126.967 172.803 126.967 172.9V173.625C126.967 173.721 127.045 173.799 127.141 173.799H128.582C128.679 173.799 128.757 173.721 128.757 173.625V172.9C128.757 172.803 128.679 172.725 128.582 172.725Z" fill="#3F3D56"/>
<path id="Vector_48" d="M132.164 172.725H130.723C130.626 172.725 130.548 172.803 130.548 172.9V173.625C130.548 173.721 130.626 173.799 130.723 173.799H132.164C132.26 173.799 132.339 173.721 132.339 173.625V172.9C132.339 172.803 132.26 172.725 132.164 172.725Z" fill="#3F3D56"/>
<path id="Vector_49" d="M108.169 174.874H94.1931C94.0966 174.874 94.0183 174.952 94.0183 175.049V175.774C94.0183 175.87 94.0966 175.948 94.1931 175.948H108.169C108.265 175.948 108.344 175.87 108.344 175.774V175.049C108.344 174.952 108.265 174.874 108.169 174.874Z" fill="#3F3D56"/>
<path id="Vector_50" d="M147.818 88.3425H56.3787C56.2836 88.3404 56.1932 88.3012 56.1267 88.2332C56.0602 88.1652 56.0229 88.0739 56.0229 87.9789C56.0229 87.8838 56.0602 87.7925 56.1267 87.7245C56.1932 87.6566 56.2836 87.6173 56.3787 87.6152H147.818C147.913 87.6173 148.004 87.6566 148.07 87.7245C148.137 87.7925 148.174 87.8838 148.174 87.9789C148.174 88.0739 148.137 88.1652 148.07 88.2332C148.004 88.3012 147.913 88.3404 147.818 88.3425Z" fill="#3F3D56"/>
<path id="Vector_51" d="M62.6032 85.7589C63.7801 85.7589 64.7342 84.7836 64.7342 83.5804C64.7342 82.3772 63.7801 81.4019 62.6032 81.4019C61.4263 81.4019 60.4722 82.3772 60.4722 83.5804C60.4722 84.7836 61.4263 85.7589 62.6032 85.7589Z" fill="#3F3D56"/>
<path id="Vector_52" d="M69.965 85.7589C71.142 85.7589 72.0961 84.7836 72.0961 83.5804C72.0961 82.3772 71.142 81.4019 69.965 81.4019C68.7881 81.4019 67.834 82.3772 67.834 83.5804C67.834 84.7836 68.7881 85.7589 69.965 85.7589Z" fill="#3F3D56"/>
<path id="Vector_53" d="M77.3266 85.7589C78.5035 85.7589 79.4576 84.7836 79.4576 83.5804C79.4576 82.3772 78.5035 81.4019 77.3266 81.4019C76.1497 81.4019 75.1956 82.3772 75.1956 83.5804C75.1956 84.7836 76.1497 85.7589 77.3266 85.7589Z" fill="#3F3D56"/>
<path id="Vector_54" d="M143.385 81.9404H138.156C138.053 81.9428 137.955 81.9856 137.882 82.0595C137.81 82.1335 137.77 82.2328 137.77 82.3362C137.77 82.4396 137.81 82.5388 137.882 82.6128C137.955 82.6867 138.053 82.7295 138.156 82.7319H143.385C143.489 82.7304 143.588 82.6881 143.661 82.614C143.734 82.54 143.775 82.4402 143.775 82.3362C143.775 82.2322 143.734 82.1323 143.661 82.0583C143.588 81.9842 143.489 81.9419 143.385 81.9404Z" fill="#3F3D56"/>
<path id="Vector_55" d="M143.385 83.4268H138.156C138.053 83.429 137.954 83.4717 137.882 83.5457C137.81 83.6197 137.769 83.719 137.769 83.8225C137.769 83.926 137.81 84.0253 137.882 84.0993C137.954 84.1732 138.053 84.2159 138.156 84.2182H143.385C143.489 84.217 143.589 84.1747 143.662 84.1006C143.735 84.0266 143.776 83.9266 143.776 83.8225C143.776 83.7183 143.735 83.6184 143.662 83.5443C143.589 83.4703 143.489 83.428 143.385 83.4268Z" fill="#3F3D56"/>
<path id="Vector_56" d="M143.385 84.9131H138.156C138.053 84.9155 137.955 84.9582 137.882 85.0322C137.81 85.1061 137.77 85.2054 137.77 85.3088C137.77 85.4122 137.81 85.5115 137.882 85.5854C137.955 85.6594 138.053 85.7021 138.156 85.7046H143.385C143.489 85.7031 143.588 85.6607 143.661 85.5867C143.734 85.5126 143.775 85.4128 143.775 85.3088C143.775 85.2048 143.734 85.105 143.661 85.0309C143.588 84.9569 143.489 84.9146 143.385 84.9131Z" fill="#3F3D56"/>
<path id="Vector_57" d="M64.2633 96.7935H62.3844C61.8148 96.7935 61.353 97.2552 61.353 97.8249C61.353 98.3945 61.8148 98.8563 62.3844 98.8563H64.2633C64.8329 98.8563 65.2947 98.3945 65.2947 97.8249C65.2947 97.2552 64.8329 96.7935 64.2633 96.7935Z" fill="#E6E6E6"/>
<path id="Vector_58" d="M85.751 96.7935H83.8722C83.3026 96.7935 82.8408 97.2552 82.8408 97.8249C82.8408 98.3945 83.3026 98.8563 83.8722 98.8563H85.751C86.3207 98.8563 86.7824 98.3945 86.7824 97.8249C86.7824 97.2552 86.3207 96.7935 85.751 96.7935Z" fill="#E6E6E6"/>
<path id="Vector_59" d="M91.8394 96.7935H89.9606C89.391 96.7935 88.9292 97.2552 88.9292 97.8249C88.9292 98.3945 89.391 98.8563 89.9606 98.8563H91.8394C92.4091 98.8563 92.8708 98.3945 92.8708 97.8249C92.8708 97.2552 92.4091 96.7935 91.8394 96.7935Z" fill="#E6E6E6"/>
<path id="Vector_60" d="M79.9063 96.6216H68.2292C67.6595 96.6216 67.1978 97.0834 67.1978 97.653C67.1978 98.2226 67.6595 98.6844 68.2292 98.6844H79.9063C80.4759 98.6844 80.9377 98.2226 80.9377 97.653C80.9377 97.0834 80.4759 96.6216 79.9063 96.6216Z" fill="#E6E6E6"/>
<path id="Vector_61" d="M108.557 96.6216H96.8798C96.3102 96.6216 95.8484 97.0834 95.8484 97.653C95.8484 98.2226 96.3102 98.6844 96.8798 98.6844H108.557C109.127 98.6844 109.588 98.2226 109.588 97.653C109.588 97.0834 109.127 96.6216 108.557 96.6216Z" fill="#E6E6E6"/>
<path id="Vector_62" d="M69.9932 101.449H68.1144C67.5448 101.449 67.083 101.911 67.083 102.481C67.083 103.05 67.5448 103.512 68.1144 103.512H69.9932C70.5629 103.512 71.0246 103.05 71.0246 102.481C71.0246 101.911 70.5629 101.449 69.9932 101.449Z" fill="#E6E6E6"/>
<path id="Vector_63" d="M91.4813 101.449H89.6024C89.0328 101.449 88.571 101.911 88.571 102.481C88.571 103.05 89.0328 103.512 89.6024 103.512H91.4813C92.0509 103.512 92.5127 103.05 92.5127 102.481C92.5127 101.911 92.0509 101.449 91.4813 101.449Z" fill="#E6E6E6"/>
<path id="Vector_64" d="M97.5694 101.449H95.6906C95.1209 101.449 94.6592 101.911 94.6592 102.481C94.6592 103.05 95.1209 103.512 95.6906 103.512H97.5694C98.139 103.512 98.6008 103.05 98.6008 102.481C98.6008 101.911 98.139 101.449 97.5694 101.449Z" fill="#E6E6E6"/>
<path id="Vector_65" d="M85.6363 101.277H73.9591C73.3895 101.277 72.9277 101.739 72.9277 102.309C72.9277 102.878 73.3895 103.34 73.9591 103.34H85.6363C86.2059 103.34 86.6677 102.878 86.6677 102.309C86.6677 101.739 86.2059 101.277 85.6363 101.277Z" fill="#E6E6E6"/>
<path id="Vector_66" d="M114.287 101.277H102.61C102.04 101.277 101.578 101.739 101.578 102.309C101.578 102.878 102.04 103.34 102.61 103.34H114.287C114.857 103.34 115.318 102.878 115.318 102.309C115.318 101.739 114.857 101.277 114.287 101.277Z" fill="#E6E6E6"/>
<path id="Vector_67" d="M75.7235 106.105H73.8446C73.275 106.105 72.8132 106.567 72.8132 107.136C72.8132 107.706 73.275 108.168 73.8446 108.168H75.7235C76.2931 108.168 76.7549 107.706 76.7549 107.136C76.7549 106.567 76.2931 106.105 75.7235 106.105Z" fill="#E6E6E6"/>
<path id="Vector_68" d="M97.2112 106.105H95.3324C94.7628 106.105 94.301 106.567 94.301 107.136C94.301 107.706 94.7628 108.168 95.3324 108.168H97.2112C97.7809 108.168 98.2426 107.706 98.2426 107.136C98.2426 106.567 97.7809 106.105 97.2112 106.105Z" fill="#E6E6E6"/>
<path id="Vector_69" d="M103.3 106.105H101.421C100.851 106.105 100.389 106.567 100.389 107.136C100.389 107.706 100.851 108.168 101.421 108.168H103.3C103.869 108.168 104.331 107.706 104.331 107.136C104.331 106.567 103.869 106.105 103.3 106.105Z" fill="#E6E6E6"/>
<path id="Vector_70" d="M91.3665 105.933H79.6894C79.1197 105.933 78.658 106.394 78.658 106.964C78.658 107.534 79.1197 107.995 79.6894 107.995H91.3665C91.9362 107.995 92.3979 107.534 92.3979 106.964C92.3979 106.394 91.9362 105.933 91.3665 105.933Z" fill="#E6E6E6"/>
<path id="Vector_71" d="M120.017 105.933H108.34C107.77 105.933 107.309 106.394 107.309 106.964C107.309 107.534 107.77 107.995 108.34 107.995H120.017C120.587 107.995 121.049 107.534 121.049 106.964C121.049 106.394 120.587 105.933 120.017 105.933Z" fill="#E6E6E6"/>
<path id="Vector_72" d="M81.4534 110.761H79.5746C79.005 110.761 78.5432 111.223 78.5432 111.792C78.5432 112.362 79.005 112.824 79.5746 112.824H81.4534C82.0231 112.824 82.4848 112.362 82.4848 111.792C82.4848 111.223 82.0231 110.761 81.4534 110.761Z" fill="#E6E6E6"/>
<path id="Vector_73" d="M102.941 110.761H101.063C100.493 110.761 100.031 111.223 100.031 111.792C100.031 112.362 100.493 112.824 101.063 112.824H102.941C103.511 112.824 103.973 112.362 103.973 111.792C103.973 111.223 103.511 110.761 102.941 110.761Z" fill="#E6E6E6"/>
<path id="Vector_74" d="M109.03 110.761H107.151C106.581 110.761 106.119 111.223 106.119 111.792C106.119 112.362 106.581 112.824 107.151 112.824H109.03C109.599 112.824 110.061 112.362 110.061 111.792C110.061 111.223 109.599 110.761 109.03 110.761Z" fill="#E6E6E6"/>
<path id="Vector_75" d="M97.0967 110.588H85.4196C84.85 110.588 84.3882 111.05 84.3882 111.62C84.3882 112.189 84.85 112.651 85.4196 112.651H97.0967C97.6664 112.651 98.1282 112.189 98.1282 111.62C98.1282 111.05 97.6664 110.588 97.0967 110.588Z" fill="#E6E6E6"/>
<path id="Vector_76" d="M85.751 129.273H83.8722C83.3026 129.273 82.8408 129.735 82.8408 130.305C82.8408 130.874 83.3026 131.336 83.8722 131.336H85.751C86.3207 131.336 86.7824 130.874 86.7824 130.305C86.7824 129.735 86.3207 129.273 85.751 129.273Z" fill="#E6E6E6"/>
<path id="Vector_77" d="M91.8394 129.273H89.9606C89.391 129.273 88.9292 129.735 88.9292 130.305C88.9292 130.874 89.391 131.336 89.9606 131.336H91.8394C92.4091 131.336 92.8708 130.874 92.8708 130.305C92.8708 129.735 92.4091 129.273 91.8394 129.273Z" fill="#E6E6E6"/>
<path id="Vector_78" d="M108.557 129.445H96.8798C96.3102 129.445 95.8484 129.907 95.8484 130.477C95.8484 131.046 96.3102 131.508 96.8798 131.508H108.557C109.127 131.508 109.588 131.046 109.588 130.477C109.588 129.907 109.127 129.445 108.557 129.445Z" fill="#E6E6E6"/>
<path id="Vector_79" d="M64.2633 129.273H62.3844C61.8148 129.273 61.353 129.735 61.353 130.305C61.353 130.874 61.8148 131.336 62.3844 131.336H64.2633C64.8329 131.336 65.2947 130.874 65.2947 130.305C65.2947 129.735 64.8329 129.273 64.2633 129.273Z" fill="#E6E6E6"/>
<path id="Vector_80" d="M79.9063 129.445H68.2292C67.6595 129.445 67.1978 129.907 67.1978 130.477C67.1978 131.046 67.6595 131.508 68.2292 131.508H79.9063C80.4759 131.508 80.9377 131.046 80.9377 130.477C80.9377 129.907 80.4759 129.445 79.9063 129.445Z" fill="#E6E6E6"/>
<path id="Vector_81" d="M69.9932 124.618H68.1144C67.5448 124.618 67.083 125.079 67.083 125.649C67.083 126.219 67.5448 126.68 68.1144 126.68H69.9932C70.5629 126.68 71.0246 126.219 71.0246 125.649C71.0246 125.079 70.5629 124.618 69.9932 124.618Z" fill="#E6E6E6"/>
<path id="Vector_82" d="M91.4813 124.618H89.6024C89.0328 124.618 88.571 125.079 88.571 125.649C88.571 126.219 89.0328 126.68 89.6024 126.68H91.4813C92.0509 126.68 92.5127 126.219 92.5127 125.649C92.5127 125.079 92.0509 124.618 91.4813 124.618Z" fill="#E6E6E6"/>
<path id="Vector_83" d="M97.5694 124.618H95.6906C95.1209 124.618 94.6592 125.079 94.6592 125.649C94.6592 126.219 95.1209 126.68 95.6906 126.68H97.5694C98.139 126.68 98.6008 126.219 98.6008 125.649C98.6008 125.079 98.139 124.618 97.5694 124.618Z" fill="#E6E6E6"/>
<path id="Vector_84" d="M85.6363 124.79H73.9591C73.3895 124.79 72.9277 125.252 72.9277 125.821C72.9277 126.391 73.3895 126.853 73.9591 126.853H85.6363C86.2059 126.853 86.6677 126.391 86.6677 125.821C86.6677 125.252 86.2059 124.79 85.6363 124.79Z" fill="#E6E6E6"/>
<path id="Vector_85" d="M75.7235 119.962H73.8446C73.275 119.962 72.8132 120.424 72.8132 120.994C72.8132 121.563 73.275 122.025 73.8446 122.025H75.7235C76.2931 122.025 76.7549 121.563 76.7549 120.994C76.7549 120.424 76.2931 119.962 75.7235 119.962Z" fill="#E6E6E6"/>
<path id="Vector_86" d="M97.2112 119.962H95.3324C94.7628 119.962 94.301 120.424 94.301 120.994C94.301 121.563 94.7628 122.025 95.3324 122.025H97.2112C97.7809 122.025 98.2426 121.563 98.2426 120.994C98.2426 120.424 97.7809 119.962 97.2112 119.962Z" fill="#E6E6E6"/>
<path id="Vector_87" d="M103.3 119.962H101.421C100.851 119.962 100.389 120.424 100.389 120.994C100.389 121.563 100.851 122.025 101.421 122.025H103.3C103.869 122.025 104.331 121.563 104.331 120.994C104.331 120.424 103.869 119.962 103.3 119.962Z" fill="#E6E6E6"/>
<path id="Vector_88" d="M91.3665 120.134H79.6894C79.1197 120.134 78.658 120.596 78.658 121.166C78.658 121.735 79.1197 122.197 79.6894 122.197H91.3665C91.9362 122.197 92.3979 121.735 92.3979 121.166C92.3979 120.596 91.9362 120.134 91.3665 120.134Z" fill="#E6E6E6"/>
<path id="Vector_89" d="M81.4534 115.307H79.5746C79.005 115.307 78.5432 115.768 78.5432 116.338C78.5432 116.908 79.005 117.369 79.5746 117.369H81.4534C82.0231 117.369 82.4848 116.908 82.4848 116.338C82.4848 115.768 82.0231 115.307 81.4534 115.307Z" fill="#E6E6E6"/>
<path id="Vector_90" d="M102.941 115.307H101.063C100.493 115.307 100.031 115.768 100.031 116.338C100.031 116.908 100.493 117.369 101.063 117.369H102.941C103.511 117.369 103.973 116.908 103.973 116.338C103.973 115.768 103.511 115.307 102.941 115.307Z" fill="#E6E6E6"/>
<path id="Vector_91" d="M109.03 115.307H107.151C106.581 115.307 106.119 115.768 106.119 116.338C106.119 116.908 106.581 117.369 107.151 117.369H109.03C109.599 117.369 110.061 116.908 110.061 116.338C110.061 115.768 109.599 115.307 109.03 115.307Z" fill="#E6E6E6"/>
<path id="Vector_92" d="M97.0967 115.479H85.4196C84.85 115.479 84.3882 115.94 84.3882 116.51C84.3882 117.08 84.85 117.541 85.4196 117.541H97.0967C97.6664 117.541 98.1282 117.08 98.1282 116.51C98.1282 115.94 97.6664 115.479 97.0967 115.479Z" fill="#E6E6E6"/>
<path id="Vector_93" d="M148.915 196.532C148.696 196.643 148.474 196.754 148.256 196.861C142.597 199.691 138.07 201.299 131.878 203.061C131.355 197.223 130.85 186.963 130.36 180.602C130.231 178.951 130.102 177.565 129.977 176.587C129.945 176.068 129.839 175.555 129.661 175.065L129.683 176.587L129.737 180.602L130.048 203.562C122.346 205.6 114.433 206.74 106.469 206.961C106.053 206.971 105.645 206.978 105.251 206.986C105.112 206.989 104.975 206.993 104.839 206.993C104.392 206.996 103.948 207 103.5 207C95.1069 207.006 86.7441 205.992 78.5955 203.981C78.771 198.204 78.9465 188.058 79.1148 180.602C79.1506 179.144 79.1829 177.787 79.2187 176.587C79.2867 174.023 79.3584 172.175 79.4264 171.556C79.3661 171.665 79.3192 171.782 79.2867 171.903C78.955 173.447 78.7289 175.012 78.6098 176.587C78.4845 177.787 78.3592 179.144 78.2338 180.602C77.5677 188.348 76.8729 198.881 76.1567 203.347C71.8933 202.183 67.7099 200.744 63.6328 199.039C61.484 198.143 59.3734 197.178 57.301 196.141C57.695 193.563 58.1068 190.673 58.5294 187.675C58.8589 185.351 59.1991 182.962 59.5465 180.602C60.0837 176.956 60.6352 173.382 61.1939 170.234C62.0105 165.636 62.8485 161.94 63.6793 160.242C64.4672 158.631 65.2551 157.041 66.0179 155.519C66.283 154.985 66.548 154.458 66.8058 153.946C66.8667 153.825 66.9276 153.706 66.9885 153.588C67.5364 152.51 68.0665 151.479 68.5714 150.512C69.0048 149.685 69.4166 148.904 69.807 148.184C70.7524 146.436 71.5547 145.043 72.1492 144.162C74.6346 140.392 78.3347 137.585 82.6352 136.208L82.7427 136.179L82.8179 136.212L90.1417 133.963L91.2125 133.633L91.9323 133.411L94.4679 131.481L95.8467 130.431L97.1396 129.447L99.668 127.523L115.322 128.487L118.37 135.825L125.196 138.321L125.314 138.267L125.418 138.224L125.525 138.253C129.825 139.632 133.525 142.438 136.011 146.207C136.348 146.712 136.756 147.378 137.218 148.184C137.612 148.868 138.042 149.649 138.507 150.512C139.17 151.74 139.893 153.126 140.66 154.627C140.828 154.956 141 155.293 141.172 155.633C141.491 156.263 141.814 156.907 142.142 157.563C142.905 159.086 143.693 160.676 144.481 162.291C145.165 163.691 145.856 166.57 146.537 170.234C147.099 173.278 147.658 176.867 148.198 180.602C148.907 185.444 148.152 191.242 148.793 195.697C148.832 195.98 148.875 196.256 148.915 196.532Z" fill="#3F3D56"/>
<path id="Vector_94" d="M103.72 121.666C113.775 121.666 121.926 113.515 121.926 103.46C121.926 93.4051 113.775 85.2539 103.72 85.2539C93.6653 85.2539 85.5142 93.4051 85.5142 103.46C85.5142 113.515 93.6653 121.666 103.72 121.666Z" fill="#A0616A"/>
<path id="Vector_95" d="M133.744 79.3334C133.384 78.4932 132.906 77.7093 132.323 77.0055C129.558 73.6283 124.53 72.1421 119.369 76.1388C118.376 75.9169 117.34 75.9764 116.379 76.3107C115.925 76.4751 115.499 76.7095 115.118 77.0055C114.336 77.6151 113.727 78.4172 113.349 79.3334C113.147 79.8172 113.014 80.3272 112.955 80.8483C111.679 80.1854 110.329 79.6769 108.933 79.3334C105.508 78.4814 101.926 78.4814 98.5006 79.3334C97.4029 79.611 96.346 80.03 95.3562 80.5797C93.6801 81.5466 92.7167 82.7678 92.5448 84.1252C90.1275 84.2612 87.6134 85.5326 85.7403 87.6169C85.529 87.8497 85.3249 88.0933 85.1351 88.3439C83.56 90.405 82.7135 92.9305 82.7285 95.5245V95.9793H83.1833C84.4295 95.9781 85.664 96.2189 86.8183 96.6884C87.5663 96.9889 88.2747 97.3798 88.9277 97.8523C89.3549 98.1554 89.7584 98.4907 90.1346 98.8551C91.0069 99.6996 91.746 100.672 92.3264 101.738C93.8143 104.433 94.3302 107.557 93.7876 110.587C93.6631 111.289 93.481 111.979 93.2432 112.65C92.9049 113.608 92.4592 114.525 91.9145 115.383C91.8931 115.415 91.8751 115.447 91.8536 115.48C91.6137 115.863 91.3845 116.253 91.1696 116.647C91.0085 116.941 90.8581 117.242 90.7184 117.542C90.3102 118.38 89.9654 119.246 89.687 120.135C89.1885 121.707 88.8948 123.337 88.8131 124.984C88.788 125.421 88.7809 125.858 88.7952 126.295C88.8165 127.421 88.94 128.543 89.1641 129.647C89.1963 129.798 89.2286 129.945 89.2608 130.095L89.5222 131.237L90.1418 133.963L90.5716 135.839L90.9691 137.58L91.5564 136.738C91.757 136.452 92.2619 135.571 92.9388 134.324C93.3865 133.512 93.9058 132.541 94.468 131.481C95.2523 129.995 96.1118 128.337 96.9534 126.682C97.2936 126.012 97.6303 125.346 97.9562 124.694C98.5722 123.459 99.1524 122.266 99.6502 121.206C100.109 120.228 100.499 119.362 100.789 118.667C100.879 119.122 100.954 119.584 101.011 120.049C101.076 120.522 101.122 121.002 101.147 121.482C101.154 121.553 101.158 121.629 101.161 121.7L101.176 121.994L101.179 122.08L101.559 122.13C103.749 122.365 105.956 122.381 108.149 122.18H108.152C111.057 121.962 113.907 121.271 116.59 120.135C118.113 119.474 119.536 118.601 120.816 117.542C121.414 117.047 121.972 116.506 122.485 115.924C122.614 115.777 122.739 115.63 122.861 115.48C123.569 114.609 124.176 113.659 124.669 112.65C124.999 111.985 125.28 111.295 125.507 110.588C126.883 106.422 126.804 101.226 125.271 95.0518C125.685 94.972 126.081 94.8192 126.442 94.6005C127.567 93.9237 128.347 92.5807 128.591 90.9404L128.978 91.0443C130.349 90.4056 131.57 89.4856 132.562 88.344C132.759 88.1115 132.943 87.8689 133.114 87.617C134.865 85.0384 134.88 81.9441 133.744 79.3334Z" fill="#2F2E41"/>
<path id="Vector_96" opacity="0.2" d="M73.8896 170.218L76.9327 158.475L79.6198 168.608L73.8896 170.218Z" fill="black"/>
<path id="Vector_97" d="M154.867 162.567C153.778 177.565 154.906 184.169 148.897 196.536C143.429 199.212 137.734 201.395 131.878 203.061C131.269 203.233 130.659 203.4 130.048 203.562C122.346 205.6 114.433 206.741 106.469 206.961C106.053 206.971 105.645 206.979 105.251 206.986C105.112 206.989 104.975 206.993 104.839 206.993C104.392 206.997 103.948 207 103.5 207C95.1068 207.006 86.744 205.993 78.5955 203.981C77.7789 203.781 76.966 203.569 76.1566 203.347C71.8933 202.183 67.7099 200.744 63.6327 199.039C61.484 198.144 59.3734 197.178 57.301 196.142C56.8318 195.905 56.3627 195.669 55.9007 195.425C53.5263 191.249 52.1761 186.171 52.1475 180.069C53.7913 169.554 151.235 153.499 154.867 162.567Z" fill="#2F2E41"/>
<path id="Vector_98" opacity="0.2" d="M154.864 165.135C154.92 164.207 154.982 163.248 155.054 162.249C151.423 153.181 53.9788 169.236 52.335 179.751C52.3395 180.715 52.3807 181.65 52.45 182.564C56.4309 172.186 149.004 156.926 154.864 165.135Z" fill="black"/>
<path id="Vector_99" d="M58.4095 122.535C58.4333 122.211 58.3872 121.885 58.2743 121.579C58.1615 121.274 57.9846 120.996 57.7554 120.765C57.5263 120.534 57.2503 120.354 56.9459 120.239C56.6416 120.123 56.3161 120.074 55.9911 120.094C55.8701 120.099 55.7497 120.114 55.6312 120.14L41.3911 123.356C41.0729 123.434 40.7744 123.577 40.5148 123.776C40.2552 123.976 40.0403 124.227 39.8839 124.515C39.675 124.523 39.4676 124.553 39.2652 124.605C38.8221 124.705 38.4031 124.892 38.0321 125.155C37.6612 125.417 37.3455 125.75 37.1032 126.134C36.8609 126.519 36.6966 126.947 36.6198 127.395C36.543 127.843 36.5552 128.301 36.6557 128.744C36.7561 129.187 36.9429 129.606 37.2052 129.977C37.4676 130.348 37.8005 130.664 38.1849 130.906C38.9611 131.396 39.9 131.557 40.795 131.354C41.3044 131.236 41.7809 131.005 42.1897 130.679L47.0152 144.267C47.2562 144.693 47.6286 145.029 48.0766 145.226C48.5247 145.422 49.0244 145.469 49.501 145.358L58.7582 143.266C59.2311 143.155 59.6568 142.897 59.9741 142.529C60.2913 142.161 60.4839 141.703 60.5241 141.218L58.4095 122.535ZM40.5812 130.387C39.9421 130.531 39.2718 130.416 38.7174 130.066C38.1631 129.717 37.7698 129.162 37.6239 128.523C37.478 127.885 37.5913 127.214 37.9391 126.659C38.2868 126.103 38.8406 125.709 39.4789 125.561C39.5239 125.55 39.569 125.561 39.6139 125.55C39.6105 125.96 39.7153 126.363 39.9176 126.72L41.6835 129.802C41.3761 130.093 40.995 130.295 40.5812 130.387Z" fill="#2F2E41"/>
<path id="Vector_100" d="M55.9912 120.094C56.1261 121.894 53.0442 123.964 48.9161 124.785C45.1255 125.561 41.7286 125.021 40.7725 123.604C40.9646 123.49 41.1734 123.406 41.3912 123.356L55.6312 120.139C55.7497 120.114 55.8701 120.099 55.9912 120.094Z" fill="#3F3D56"/>
<path id="Vector_101" d="M46.1429 165.781L54.1413 161.782L47.476 143.785L45.7194 134.71C45.4912 133.531 44.9575 132.432 44.1717 131.524C43.3859 130.615 42.3755 129.929 41.2415 129.534C40.1074 129.139 38.8895 129.048 37.7093 129.27C36.5292 129.493 35.4281 130.022 34.5163 130.803C33.165 131.962 32.3166 133.6 32.15 135.371C31.9835 137.143 32.5118 138.911 33.6236 140.3L40.1442 148.451L46.1429 165.781Z" fill="#A0616A"/>
<path id="Vector_102" d="M54.1413 158.449L43.4768 163.781L51.5701 189.14C52.1512 190.961 53.1931 192.601 54.5945 193.901C55.996 195.201 57.7096 196.117 59.5692 196.56C61.862 197.105 64.2692 196.907 66.4417 195.993C68.6141 195.079 70.4389 193.496 71.6516 191.475L93.1126 154.69C94.6334 152.155 95.1029 149.126 94.4206 146.25C93.7384 143.374 91.9585 140.878 89.4612 139.297C88.1181 138.446 86.6109 137.888 85.0377 137.658C83.4646 137.429 81.8607 137.533 80.3304 137.964C78.8002 138.395 77.3779 139.144 76.1562 140.161C74.9344 141.179 73.9405 142.442 73.2392 143.868L60.1402 171.78L54.1413 158.449Z" fill="#3F3D56"/>
<path id="Vector_103" d="M50.8427 135.532C50.8229 135.532 50.8032 135.529 50.7845 135.522L48.4561 134.721C48.428 134.711 48.4027 134.694 48.3825 134.673C48.3624 134.651 48.348 134.624 48.3407 134.595C48.3334 134.567 48.3334 134.536 48.3407 134.508C48.348 134.479 48.3623 134.452 48.3825 134.43L50.1142 132.545C50.1301 132.527 50.1492 132.513 50.1706 132.503C50.1919 132.493 50.215 132.488 50.2385 132.487C50.2621 132.485 50.2856 132.489 50.3078 132.497C50.3299 132.505 50.3503 132.518 50.3676 132.533C50.385 132.549 50.399 132.569 50.4089 132.59C50.4189 132.611 50.4245 132.634 50.4254 132.658C50.4264 132.682 50.4227 132.705 50.4145 132.727C50.4064 132.749 50.3939 132.77 50.3779 132.787L48.8312 134.471L50.9009 135.184C50.941 135.197 50.9749 135.225 50.9966 135.261C51.0182 135.298 51.0263 135.341 51.0193 135.382C51.0123 135.424 50.9908 135.462 50.9584 135.49C50.9261 135.517 50.8851 135.532 50.8427 135.532Z" fill="#6C63FF"/>
<path id="Vector_104" d="M54.0342 134.879C53.9986 134.879 53.9637 134.868 53.9341 134.848C53.9045 134.828 53.8816 134.8 53.8682 134.767C53.8548 134.734 53.8516 134.697 53.859 134.662C53.8664 134.628 53.8841 134.596 53.9097 134.571L55.4835 133.049L53.3694 132.178C53.3476 132.169 53.3278 132.156 53.3111 132.139C53.2944 132.123 53.2812 132.103 53.2721 132.081C53.263 132.06 53.2584 132.036 53.2583 132.013C53.2582 131.989 53.2628 131.966 53.2718 131.944C53.2808 131.922 53.2939 131.903 53.3106 131.886C53.3272 131.869 53.3469 131.856 53.3687 131.847C53.3904 131.838 53.4137 131.833 53.4372 131.833C53.4607 131.833 53.484 131.838 53.5058 131.847L55.8728 132.823C55.9003 132.834 55.9245 132.852 55.9433 132.875C55.9622 132.898 55.9749 132.925 55.9805 132.954C55.9861 132.984 55.9843 133.014 55.9754 133.042C55.9664 133.07 55.9505 133.096 55.9291 133.117L54.1587 134.828C54.1253 134.861 54.0807 134.879 54.0342 134.879Z" fill="#6C63FF"/>
<path id="Vector_105" d="M51.3315 136.627C51.3136 136.627 51.2959 136.624 51.2788 136.619C51.2564 136.612 51.2354 136.601 51.2173 136.586C51.1992 136.571 51.1842 136.552 51.1732 136.532C51.1621 136.511 51.1553 136.488 51.1531 136.465C51.1509 136.441 51.1534 136.418 51.1603 136.395L52.813 131.023C52.8271 130.978 52.8586 130.94 52.9005 130.918C52.9425 130.896 52.9915 130.891 53.0368 130.905C53.0821 130.919 53.12 130.951 53.1422 130.993C53.1645 131.035 53.1692 131.083 53.1554 131.129L51.5027 136.501C51.4914 136.537 51.4686 136.569 51.4378 136.592C51.407 136.615 51.3698 136.627 51.3315 136.627Z" fill="#6C63FF"/>
</g>
<defs>
<clipPath id="clip0_145_351">
<rect width="207" height="207" fill="white"/>
</clipPath>
</defs>
</svg>
