<svg width="313" height="3291" viewBox="0 0 313 3291" fill="none" xmlns="http://www.w3.org/2000/svg">
<path d="M10.75 3149L10.75 3147.75L13.25 3147.75L13.25 3149L10.75 3149ZM13.25 3289C13.25 3289.69 12.6904 3290.25 12 3290.25C11.3097 3290.25 10.75 3289.69 10.75 3289L13.25 3289ZM13.25 3149L13.25 3289L10.75 3289L10.75 3149L13.25 3149Z" fill="url(#paint0_linear_145_122)"/>
<path d="M12 3146.5L12 2866.5" stroke="url(#paint1_linear_145_122)" stroke-width="2.5" stroke-linecap="square"/>
<rect x="54.75" y="2914" width="2.5" height="20" fill="#FFD5D2"/>
<path d="M12 2825C12 2852 56 2857 56 2914" stroke="url(#paint2_linear_145_122)" stroke-width="2.5"/>
<g filter="url(#filter0_d_145_122)">
<circle cx="56" cy="2941" r="6" fill="white"/>
</g>
<circle cx="56" cy="2941" r="2" fill="#223C40"/>
<rect width="2.5" height="20" transform="matrix(1 0 0 -1 54.75 2968)" fill="#FFD5D2"/>
<path d="M12 3057C12 3030 56 3025 56 2968" stroke="url(#paint3_linear_145_122)" stroke-width="2.5"/>
<path d="M10.75 2864L10.75 2865.25L13.25 2865.25L13.25 2864L10.75 2864ZM13.25 2584C13.25 2583.31 12.6904 2582.75 12 2582.75C11.3097 2582.75 10.75 2583.31 10.75 2584L13.25 2584ZM13.25 2864L13.25 2584L10.75 2584L10.75 2864L13.25 2864Z" fill="url(#paint4_linear_145_122)"/>
<path d="M10.75 2250L10.75 2248.75L13.25 2248.75L13.25 2250L10.75 2250ZM13.25 2390C13.25 2390.69 12.6904 2391.25 12 2391.25C11.3097 2391.25 10.75 2390.69 10.75 2390L13.25 2390ZM13.25 2250L13.25 2390L10.75 2390L10.75 2250L13.25 2250Z" fill="url(#paint5_linear_145_122)"/>
<path d="M12 2247.5L12 1967.5" stroke="url(#paint6_linear_145_122)" stroke-width="2.5" stroke-linecap="square"/>
<rect x="54.75" y="2015" width="2.5" height="20" fill="#74E274"/>
<path d="M12 1926C12 1953 56 1958 56 2015" stroke="url(#paint7_linear_145_122)" stroke-width="2.5"/>
<g filter="url(#filter1_d_145_122)">
<circle cx="56" cy="2042" r="6" fill="white"/>
</g>
<circle cx="56" cy="2042" r="2" fill="#223C40"/>
<rect width="2.5" height="20" transform="matrix(1 0 0 -1 54.75 2069)" fill="#74E274"/>
<path d="M12 2158C12 2131 56 2126 56 2069" stroke="url(#paint8_linear_145_122)" stroke-width="2.5"/>
<path d="M10.75 1965L10.75 1966.25L13.25 1966.25L13.25 1965L10.75 1965ZM13.25 1685C13.25 1684.31 12.6904 1683.75 12 1683.75C11.3097 1683.75 10.75 1684.31 10.75 1685L13.25 1685ZM13.25 1965L13.25 1685L10.75 1685L10.75 1965L13.25 1965Z" fill="url(#paint9_linear_145_122)"/>
<path d="M12 1538L12 1258" stroke="url(#paint10_linear_145_122)" stroke-width="2.5" stroke-linecap="round"/>
<path d="M13.25 930.25L13.25 929L10.75 929L10.75 930.25L13.25 930.25ZM10.75 1210.25C10.75 1210.94 11.3096 1211.5 12 1211.5C12.6903 1211.5 13.25 1210.94 13.25 1210.25L10.75 1210.25ZM10.75 930.25L10.75 1210.25L13.25 1210.25L13.25 930.25L10.75 930.25Z" fill="url(#paint11_linear_145_122)"/>
<line x1="12" y1="649" x2="12" y2="929" stroke="url(#paint12_linear_145_122)" stroke-width="2.5"/>
<path d="M12 649L12 369" stroke="url(#paint13_linear_145_122)" stroke-width="2.5" stroke-linecap="round"/>
<path d="M9.56011 339.53C9.853 339.237 9.853 338.762 9.56011 338.47C9.26722 338.177 8.79234 338.177 8.49945 338.47L9.56011 339.53ZM1.5307 347.56L9.56011 339.53L8.49945 338.47L0.470036 346.499L1.5307 347.56Z" fill="#E2D9FF"/>
<path d="M8.49946 354.528C8.79235 354.821 9.26722 354.821 9.56012 354.528C9.85301 354.235 9.85301 353.761 9.56012 353.468L8.49946 354.528ZM9.56012 353.468L2.14835 346.056L1.08769 347.117L8.49946 354.528L9.56012 353.468Z" fill="#E2D9FF"/>
<path d="M15.4388 339.53C15.1459 339.237 15.1459 338.762 15.4388 338.47C15.7317 338.177 16.2066 338.177 16.4995 338.47L15.4388 339.53ZM23.4682 347.56L15.4388 339.53L16.4995 338.47L24.5289 346.499L23.4682 347.56Z" fill="#E2D9FF"/>
<path d="M16.4994 354.528C16.2066 354.821 15.7317 354.821 15.4388 354.528C15.1459 354.235 15.1459 353.761 15.4388 353.468L16.4994 354.528ZM15.4388 353.468L22.8506 346.056L23.9112 347.117L16.4994 354.528L15.4388 353.468Z" fill="#E2D9FF"/>
<path d="M11.0004 327C11.0004 327.69 11.56 328.25 12.2504 328.25C12.9407 328.25 13.5004 327.69 13.5004 327H11.0004ZM11.0004 126L11.0004 327H13.5004L13.5004 126H11.0004Z" fill="url(#paint14_linear_145_122)"/>
<path d="M12.2501 235C12.2501 196.512 51.7231 151 126 151" stroke="#9790FF" stroke-width="2.5"/>
<line x1="177" y1="151" x2="126" y2="151" stroke="#9790FF" stroke-width="2.5"/>
<path d="M311 30C311 85.4415 264.5 151 177 151" stroke="#9790FF" stroke-width="2.5"/>
<line x1="311" y1="5.46392e-08" x2="311" y2="30" stroke="url(#paint15_linear_145_122)" stroke-width="2.5"/>
<defs>
<filter id="filter0_d_145_122" x="42" y="2927" width="28" height="28" filterUnits="userSpaceOnUse" color-interpolation-filters="sRGB">
<feFlood flood-opacity="0" result="BackgroundImageFix"/>
<feColorMatrix in="SourceAlpha" type="matrix" values="0 0 0 0 0 0 0 0 0 0 0 0 0 0 0 0 0 0 127 0" result="hardAlpha"/>
<feOffset/>
<feGaussianBlur stdDeviation="4"/>
<feComposite in2="hardAlpha" operator="out"/>
<feColorMatrix type="matrix" values="0 0 0 0 1 0 0 0 0 0.835294 0 0 0 0 0.823529 0 0 0 1 0"/>
<feBlend mode="normal" in2="BackgroundImageFix" result="effect1_dropShadow_145_122"/>
<feBlend mode="normal" in="SourceGraphic" in2="effect1_dropShadow_145_122" result="shape"/>
</filter>
<filter id="filter1_d_145_122" x="42" y="2028" width="28" height="28" filterUnits="userSpaceOnUse" color-interpolation-filters="sRGB">
<feFlood flood-opacity="0" result="BackgroundImageFix"/>
<feColorMatrix in="SourceAlpha" type="matrix" values="0 0 0 0 0 0 0 0 0 0 0 0 0 0 0 0 0 0 127 0" result="hardAlpha"/>
<feOffset/>
<feGaussianBlur stdDeviation="4"/>
<feComposite in2="hardAlpha" operator="out"/>
<feColorMatrix type="matrix" values="0 0 0 0 0.454902 0 0 0 0 0.886275 0 0 0 0 0.454902 0 0 0 1 0"/>
<feBlend mode="normal" in2="BackgroundImageFix" result="effect1_dropShadow_145_122"/>
<feBlend mode="normal" in="SourceGraphic" in2="effect1_dropShadow_145_122" result="shape"/>
</filter>
<linearGradient id="paint0_linear_145_122" x1="11.7501" y1="3149" x2="13.2807" y2="3288.99" gradientUnits="userSpaceOnUse">
<stop stop-color="#EC633D"/>
<stop offset="1" stop-color="#FFD5D2"/>
</linearGradient>
<linearGradient id="paint1_linear_145_122" x1="11.7501" y1="3146.5" x2="17.8703" y2="2866.62" gradientUnits="userSpaceOnUse">
<stop stop-color="#EC633D"/>
<stop offset="1" stop-color="#FFD5D2"/>
</linearGradient>
<linearGradient id="paint2_linear_145_122" x1="34" y1="2825" x2="34" y2="2914" gradientUnits="userSpaceOnUse">
<stop stop-color="#EC633D"/>
<stop offset="0.9999" stop-color="#FFD5D2"/>
<stop offset="1" stop-color="#74E274"/>
<stop offset="1" stop-color="#FFD5D2"/>
</linearGradient>
<linearGradient id="paint3_linear_145_122" x1="34" y1="3057" x2="34" y2="2968" gradientUnits="userSpaceOnUse">
<stop stop-color="#EC633D"/>
<stop offset="1" stop-color="#FFD5D2"/>
</linearGradient>
<linearGradient id="paint4_linear_145_122" x1="11.7501" y1="2864" x2="17.8703" y2="2584.12" gradientUnits="userSpaceOnUse">
<stop stop-color="#FFD5D2"/>
<stop offset="1" stop-color="#EC633D"/>
</linearGradient>
<linearGradient id="paint5_linear_145_122" x1="11.7501" y1="2250" x2="13.2807" y2="2389.99" gradientUnits="userSpaceOnUse">
<stop stop-color="#69F869"/>
<stop offset="1" stop-color="#DBFFDB"/>
</linearGradient>
<linearGradient id="paint6_linear_145_122" x1="11.7501" y1="2247.5" x2="17.8703" y2="1967.62" gradientUnits="userSpaceOnUse">
<stop stop-color="#69F869"/>
<stop offset="1" stop-color="#00D200"/>
</linearGradient>
<linearGradient id="paint7_linear_145_122" x1="34" y1="1926" x2="34" y2="2015" gradientUnits="userSpaceOnUse">
<stop stop-color="#00D200"/>
<stop offset="1" stop-color="#74E274"/>
</linearGradient>
<linearGradient id="paint8_linear_145_122" x1="34" y1="2158" x2="34" y2="2069" gradientUnits="userSpaceOnUse">
<stop stop-color="#00D200"/>
<stop offset="1" stop-color="#74E274"/>
</linearGradient>
<linearGradient id="paint9_linear_145_122" x1="11.7501" y1="1965" x2="17.8703" y2="1685.12" gradientUnits="userSpaceOnUse">
<stop stop-color="#00D200"/>
<stop offset="1" stop-color="#90EE90"/>
</linearGradient>
<linearGradient id="paint10_linear_145_122" x1="11.7501" y1="1538" x2="17.8703" y2="1258.12" gradientUnits="userSpaceOnUse">
<stop stop-color="#00A300" stop-opacity="0.5"/>
<stop offset="1" stop-color="#90EE90" stop-opacity="0.5"/>
</linearGradient>
<linearGradient id="paint11_linear_145_122" x1="12" y1="930" x2="6.37971" y2="1209.89" gradientUnits="userSpaceOnUse">
<stop stop-color="#00A300" stop-opacity="0.5"/>
<stop offset="1" stop-color="#90EE90" stop-opacity="0.5"/>
</linearGradient>
<linearGradient id="paint12_linear_145_122" x1="12.25" y1="649" x2="6.12982" y2="928.877" gradientUnits="userSpaceOnUse">
<stop stop-color="#9790FF"/>
<stop offset="1" stop-color="#00A300" stop-opacity="0.5"/>
</linearGradient>
<linearGradient id="paint13_linear_145_122" x1="11.7496" y1="458.216" x2="11.7349" y2="314.098" gradientUnits="userSpaceOnUse">
<stop stop-color="#9791FF"/>
<stop offset="0.962914" stop-color="#ABA6FF" stop-opacity="0"/>
</linearGradient>
<linearGradient id="paint14_linear_145_122" x1="12.5013" y1="298.5" x2="12.5002" y2="342" gradientUnits="userSpaceOnUse">
<stop stop-color="#9791FF"/>
<stop offset="0.962914" stop-color="#ABA6FF" stop-opacity="0"/>
</linearGradient>
<linearGradient id="paint15_linear_145_122" x1="314.75" y1="21.5" x2="314.25" y2="-21" gradientUnits="userSpaceOnUse">
<stop stop-color="#9790FF"/>
<stop offset="1" stop-color="#9790FF" stop-opacity="0.8"/>
</linearGradient>
</defs>
</svg>
