<svg width="312" height="258" viewBox="0 0 312 258" fill="none" xmlns="http://www.w3.org/2000/svg">
<g clip-path="url(#clip0_196_202)">
<path d="M35.6287 196.092C35.6231 196.1 35.6198 196.112 35.6142 196.121L15.4183 190.709C15.1023 190.368 14.7951 190.019 14.4949 189.668C12.6357 187.524 11.015 185.185 9.66111 182.692C8.1149 179.812 7.03179 176.708 6.4515 173.493C5.3076 167.104 6.2177 160.43 9.84355 155.149L9.84409 155.148L9.84503 155.147L9.84624 155.147L9.8475 155.147C9.93654 155.014 10.0326 154.88 10.1287 154.746C10.1737 154.914 10.2164 155.079 10.2653 155.246L10.2676 155.25C10.9043 157.505 11.722 159.706 12.7127 161.83L12.7119 161.833C12.7882 161.997 12.8645 162.161 12.9448 162.322L12.9447 162.323L12.9451 162.325L12.946 162.326L12.9471 162.326C15.376 167.398 18.7254 171.976 22.8254 175.829C22.8385 175.843 22.8493 175.853 22.8624 175.866C22.8758 175.88 22.8903 175.893 22.9056 175.904C22.9079 175.908 22.911 175.909 22.9133 175.913C23.8225 176.77 24.7731 177.585 25.7558 178.355L25.7549 178.358C26.5266 178.968 27.323 179.549 28.1323 180.106C29.8602 181.285 31.7535 182.446 33.3437 183.816C34.8907 185.147 36.1574 186.677 36.7288 188.621C36.77 188.778 36.8121 188.933 36.8471 189.089L35.1499 193.042L36.3388 193.354L35.6848 195.346L35.4969 195.923L35.6287 196.092Z" fill="#F0F0F0"/>
<path d="M30.6346 194.786L30.2077 194.672C30.2338 194.412 30.2592 194.156 30.2783 193.897C30.3374 193.192 30.3509 192.484 30.3186 191.778C30.3035 191.46 30.2742 191.145 30.2285 190.83C29.9716 189.034 29.1668 187.301 27.5422 186.359C27.0685 186.087 26.5643 185.873 26.0402 185.72C25.0079 185.397 23.9126 185.246 22.8599 185.024C22.601 184.968 22.3399 184.908 22.0914 184.838L22.0852 184.837C20.7297 184.497 19.4636 183.869 18.3737 182.995C17.0434 181.857 15.9182 180.5 15.0468 178.983C14.4664 178.028 13.9352 177.045 13.4551 176.036L13.456 176.033C13.39 175.905 13.3279 175.775 13.2668 175.642C12.1473 173.22 11.2795 170.691 10.6772 168.093C10.3674 166.778 10.1296 165.448 9.96483 164.108C9.96124 164.095 9.95909 164.082 9.95842 164.069C9.57935 161.11 9.54082 158.117 9.8436 155.149L9.84413 155.148L9.84508 155.147L9.84628 155.147L9.84755 155.147C9.85681 155.013 9.87312 154.877 9.88858 154.744C9.91893 154.469 10.3429 154.569 10.3095 154.844C10.2932 154.98 10.2785 155.109 10.2653 155.246L10.2676 155.249C9.97997 158.092 10.0074 160.957 10.3495 163.794L10.3486 163.797C10.3666 163.942 10.3854 164.084 10.4042 164.225C10.9179 168.159 12.0374 171.991 13.7231 175.584L13.7246 175.591C13.7412 175.629 13.7617 175.665 13.7814 175.703C13.7823 175.705 13.7828 175.706 13.7829 175.708C13.783 175.71 13.7827 175.712 13.782 175.713C13.786 175.711 13.7851 175.714 13.7851 175.714C14.1791 176.55 14.6086 177.365 15.068 178.169C15.903 179.708 16.9753 181.107 18.2456 182.314C19.3171 183.282 20.6013 183.985 21.9943 184.366C22.1346 184.403 22.274 184.444 22.415 184.478C22.5272 184.508 22.6402 184.535 22.7541 184.559C23.8238 184.793 24.9316 184.946 25.9892 185.249C26.4699 185.388 26.9382 185.567 27.3889 185.784C28.1241 186.16 28.7716 186.687 29.2888 187.33C29.8061 187.973 30.1814 188.718 30.3902 189.516C30.6073 190.291 30.7321 191.089 30.7619 191.893C30.7748 192.157 30.7744 192.42 30.7731 192.686L30.7723 192.689C30.7653 193.114 30.7442 193.542 30.7098 193.97C30.7099 193.984 30.7083 193.998 30.7052 194.012C30.6861 194.27 30.6599 194.53 30.6346 194.786Z" fill="white"/>
<path d="M13.6462 175.962C12.3653 176.47 10.9449 176.507 9.6386 176.065C8.33233 175.624 7.2253 174.734 6.5152 173.553C6.37234 173.314 6.73795 173.081 6.881 173.321C7.54022 174.421 8.57151 175.251 9.78873 175.659C11.006 176.067 12.3289 176.028 13.5189 175.548C13.7776 175.444 13.9035 175.859 13.6462 175.962Z" fill="white"/>
<path d="M21.9423 184.489C23.0801 181.916 23.2042 179.008 22.2901 176.345C22.1993 176.081 22.6138 175.955 22.7045 176.218C23.6507 178.991 23.5153 182.017 22.3254 184.692C22.2118 184.947 21.8293 184.743 21.9423 184.489Z" fill="white"/>
<path d="M10.2207 163.822C10.7574 163.729 11.2624 163.504 11.6903 163.167C12.1182 162.831 12.4556 162.393 12.6722 161.894C12.7825 161.638 13.1648 161.843 13.0552 162.097C12.8134 162.648 12.4401 163.13 11.9682 163.503C11.4963 163.876 10.94 164.128 10.348 164.236C10.2931 164.251 10.2345 164.244 10.1842 164.218C10.1338 164.191 10.0956 164.146 10.0771 164.093C10.0605 164.038 10.0663 163.978 10.0932 163.928C10.1201 163.877 10.1659 163.839 10.2207 163.822Z" fill="white"/>
<path d="M42.3347 183.254L41.7407 184.786L39.0249 184.014L37.8517 186.748L37.6491 187.217L37.6483 187.22L36.8469 189.089L35.1497 193.042L36.3386 193.354L35.6846 195.346L35.4968 195.923L35.6286 196.091L35.6576 196.133L35.6676 196.145C35.615 196.205 35.5592 196.263 35.5027 196.324C35.5445 196.256 35.5784 196.191 35.614 196.121L27.7239 194.007C27.6433 193.722 27.5658 193.438 27.4922 193.151C26.8415 190.709 26.3563 188.227 26.0399 185.72C26.0214 185.565 25.9997 185.409 25.9882 185.253L25.989 185.25C25.7233 182.962 25.645 180.658 25.7548 178.358L25.7556 178.355C25.8184 177.096 25.9461 175.842 26.1381 174.596C26.6383 171.379 27.642 168.26 29.1123 165.354C29.1216 165.34 29.13 165.326 29.1373 165.311C31.9553 159.767 36.4427 155.148 42.1667 152.994C42.4061 152.898 42.6493 152.813 42.8947 152.732C42.8987 152.73 42.8987 152.73 42.9018 152.731C42.9022 152.731 42.9026 152.731 42.9031 152.731C42.9035 152.731 42.9039 152.731 42.9043 152.731C42.9046 152.73 42.905 152.73 42.9052 152.73C42.9055 152.729 42.9056 152.729 42.9057 152.729C43.0591 152.68 43.2094 152.63 43.3628 152.581C43.2991 152.744 43.2323 152.906 43.1717 153.07C42.3177 155.25 41.6444 157.496 41.1584 159.786L41.1567 159.792C41.1132 159.967 41.0758 160.144 41.0408 160.324L41.0391 160.331C39.925 165.847 39.8435 171.523 40.7986 177.071C40.799 177.085 40.8008 177.099 40.8042 177.112C40.8062 177.13 40.8091 177.144 40.8112 177.161C41.1713 179.226 41.6804 181.262 42.3347 183.254Z" fill="#F0F0F0"/>
<path d="M43.4522 152.768C43.359 152.866 43.2623 152.968 43.172 153.069C42.4713 153.823 41.8024 154.605 41.1655 155.417C40.0325 156.848 39.0043 158.358 38.0887 159.936C38.0159 160.059 37.9428 160.185 37.873 160.311C35.9069 163.763 34.4893 167.5 33.6708 171.387C33.6608 171.425 33.6544 171.46 33.6476 171.498C33.4576 172.405 33.3047 173.32 33.1891 174.24C32.9273 175.971 32.9398 177.731 33.2262 179.458C33.2702 179.685 33.3209 179.91 33.3785 180.129C33.5243 180.665 33.7205 181.187 33.9647 181.687C34.1397 182.051 34.339 182.403 34.5614 182.741C34.6947 182.947 34.8348 183.151 34.9851 183.349C35.0718 183.464 35.1616 183.579 35.2515 183.694C35.3277 183.782 35.4004 183.873 35.4766 183.961C36.2669 184.881 37.1528 185.749 37.8517 186.748L37.6499 187.218C36.9826 186.192 36.0818 185.31 35.2812 184.396C34.778 183.828 34.3288 183.215 33.9394 182.564C33.8892 182.475 33.8358 182.386 33.7892 182.295C33.5313 181.833 33.3165 181.349 33.1475 180.848C33.0603 180.597 32.9833 180.341 32.9169 180.076C32.544 178.37 32.464 176.612 32.6803 174.879C32.7926 173.767 32.961 172.661 33.1847 171.565C33.2108 171.422 33.2398 171.282 33.2723 171.14C33.8393 168.536 34.6711 165.996 35.7547 163.561C37.1269 160.471 38.8907 157.57 41.0028 154.93C41.6066 154.173 42.2408 153.439 42.9053 152.728C42.9921 152.629 43.0818 152.534 43.175 152.436C43.3652 152.233 43.6425 152.566 43.4522 152.768Z" fill="white"/>
<path d="M33.382 171.624C32.0523 171.26 30.8954 170.435 30.1178 169.298C29.3402 168.16 28.9927 166.784 29.1371 165.415C29.1673 165.138 29.5997 165.172 29.5695 165.45C29.4326 166.724 29.7565 168.006 30.4827 169.064C31.2089 170.121 32.2897 170.885 33.5298 171.218C33.7993 171.29 33.6498 171.697 33.382 171.624Z" fill="white"/>
<path d="M34.8687 183.417C37.3295 182.047 39.1821 179.801 40.0572 177.127C40.1437 176.862 40.5511 177.01 40.4648 177.275C39.5489 180.056 37.6162 182.389 35.0523 183.809C34.8078 183.944 34.6255 183.551 34.8687 183.417Z" fill="white"/>
<path d="M37.9649 159.878C38.45 160.126 38.9892 160.25 39.5339 160.239C40.0787 160.228 40.612 160.082 41.086 159.814C41.3286 159.675 41.5106 160.069 41.2696 160.206C40.7445 160.5 40.1554 160.66 39.5535 160.674C38.9517 160.688 38.3555 160.554 37.817 160.285C37.7641 160.264 37.7213 160.223 37.6972 160.172C37.673 160.12 37.6695 160.062 37.6872 160.008C37.707 159.954 37.7473 159.91 37.7993 159.886C37.8513 159.862 37.9108 159.859 37.9649 159.878Z" fill="white"/>
<path d="M93.1584 211.809C93.1455 211.858 93.1231 211.904 93.0925 211.944C93.0618 211.984 93.0236 212.017 92.9799 212.042C92.9362 212.068 92.888 212.084 92.8379 212.09C92.7879 212.097 92.7371 212.093 92.6884 212.08L5.34529 188.677C5.29659 188.664 5.25094 188.641 5.21093 188.61C5.17093 188.58 5.13735 188.542 5.11213 188.498C5.08691 188.454 5.07052 188.406 5.06392 188.356C5.05732 188.306 5.06063 188.256 5.07366 188.207C5.08669 188.158 5.10918 188.113 5.13985 188.073C5.17052 188.033 5.20877 188 5.25241 187.974C5.29606 187.949 5.34424 187.933 5.39422 187.926C5.44419 187.92 5.49498 187.923 5.54368 187.936L92.8868 211.34C92.9356 211.353 92.9813 211.375 93.0214 211.406C93.0615 211.436 93.0951 211.475 93.1203 211.518C93.1456 211.562 93.162 211.61 93.1685 211.66C93.175 211.71 93.1716 211.761 93.1584 211.809Z" fill="#CCCCCC"/>
<path d="M285.142 99.943L228.672 84.8119C228.43 84.7473 228.203 84.6358 228.004 84.4836C227.805 84.3314 227.638 84.1415 227.512 83.9249C227.387 83.7082 227.305 83.469 227.272 83.221C227.239 82.9729 227.256 82.7208 227.321 82.4792C227.385 82.2376 227.497 82.0111 227.65 81.8127C227.802 81.6143 227.992 81.4479 228.209 81.323C228.426 81.1982 228.666 81.1173 228.914 81.085C229.163 81.0527 229.415 81.0696 229.657 81.1347L286.127 96.2659C286.37 96.3304 286.597 96.442 286.796 96.5942C286.995 96.7464 287.162 96.9362 287.287 97.1529C287.413 97.3695 287.494 97.6087 287.527 97.8568C287.56 98.1048 287.544 98.3569 287.479 98.5985C287.414 98.8402 287.302 99.0667 287.15 99.2651C286.997 99.4634 286.807 99.6298 286.59 99.7547C286.373 99.8796 286.133 99.9605 285.885 99.9928C285.636 100.025 285.384 100.008 285.142 99.943Z" fill="#6C63FF"/>
<path d="M283.195 107.209L226.725 92.0774C226.238 91.946 225.822 91.6267 225.569 91.1895C225.317 90.7523 225.248 90.2331 225.379 89.7459C225.509 89.2587 225.828 88.8433 226.265 88.5909C226.703 88.3386 227.223 88.2699 227.711 88.4001L284.181 103.531C284.669 103.663 285.085 103.982 285.337 104.419C285.59 104.856 285.658 105.375 285.527 105.863C285.397 106.35 285.078 106.765 284.641 107.018C284.203 107.27 283.684 107.339 283.195 107.209Z" fill="#6C63FF"/>
<path d="M249.257 105.901L224.779 99.3421C224.291 99.2107 223.875 98.8913 223.622 98.4541C223.37 98.017 223.301 97.4978 223.432 97.0105C223.562 96.5233 223.881 96.1079 224.319 95.8556C224.756 95.6032 225.276 95.5346 225.764 95.6647L250.242 102.224C250.485 102.288 250.712 102.4 250.911 102.552C251.11 102.704 251.277 102.894 251.402 103.111C251.528 103.327 251.609 103.567 251.642 103.815C251.675 104.063 251.659 104.315 251.594 104.557C251.529 104.798 251.417 105.025 251.265 105.223C251.112 105.421 250.922 105.588 250.705 105.713C250.488 105.838 250.248 105.919 250 105.951C249.751 105.983 249.499 105.966 249.257 105.901Z" fill="#6C63FF"/>
<path d="M274.071 141.261L217.601 126.13C217.113 125.999 216.696 125.68 216.443 125.242C216.19 124.805 216.121 124.285 216.252 123.798C216.383 123.31 216.702 122.894 217.14 122.642C217.578 122.39 218.098 122.322 218.586 122.452L275.056 137.584C275.545 137.714 275.961 138.034 276.214 138.471C276.467 138.908 276.536 139.428 276.405 139.916C276.275 140.403 275.955 140.819 275.518 141.071C275.08 141.323 274.56 141.392 274.071 141.261Z" fill="#E6E6E6"/>
<path d="M272.124 148.526L215.654 133.394C215.166 133.264 214.749 132.944 214.496 132.507C214.243 132.07 214.175 131.55 214.305 131.062C214.436 130.575 214.755 130.159 215.193 129.907C215.631 129.654 216.151 129.586 216.64 129.717L273.11 144.848C273.598 144.979 274.015 145.298 274.268 145.736C274.521 146.173 274.589 146.693 274.459 147.18C274.328 147.668 274.009 148.084 273.571 148.336C273.133 148.588 272.613 148.656 272.124 148.526Z" fill="#E6E6E6"/>
<path d="M238.186 147.219L213.708 140.66C213.219 140.529 212.803 140.21 212.55 139.773C212.297 139.335 212.228 138.816 212.359 138.328C212.489 137.84 212.809 137.425 213.246 137.172C213.684 136.92 214.205 136.852 214.693 136.983L239.171 143.542C239.414 143.606 239.641 143.718 239.84 143.87C240.039 144.022 240.206 144.212 240.331 144.429C240.457 144.645 240.538 144.885 240.571 145.133C240.604 145.381 240.588 145.633 240.523 145.875C240.458 146.116 240.346 146.343 240.194 146.541C240.041 146.739 239.851 146.906 239.634 147.031C239.417 147.156 239.177 147.237 238.929 147.269C238.681 147.301 238.428 147.284 238.186 147.219Z" fill="#E6E6E6"/>
<path d="M262.391 184.85L205.921 169.718C205.679 169.654 205.453 169.542 205.254 169.39C205.055 169.237 204.889 169.048 204.763 168.831C204.638 168.614 204.557 168.375 204.524 168.128C204.491 167.88 204.508 167.628 204.572 167.386C204.637 167.145 204.749 166.919 204.901 166.72C205.053 166.522 205.243 166.356 205.46 166.231C205.677 166.106 205.916 166.025 206.164 165.992C206.413 165.96 206.665 165.977 206.907 166.041L263.377 181.172C263.619 181.237 263.845 181.349 264.044 181.501C264.243 181.654 264.409 181.843 264.535 182.06C264.66 182.276 264.741 182.515 264.774 182.763C264.807 183.011 264.79 183.263 264.726 183.504C264.661 183.746 264.549 183.972 264.397 184.171C264.245 184.369 264.055 184.535 263.838 184.66C263.621 184.785 263.382 184.866 263.134 184.898C262.885 184.931 262.633 184.914 262.391 184.85Z" fill="#E6E6E6"/>
<path d="M260.445 192.115L203.975 176.984C203.487 176.852 203.071 176.533 202.818 176.096C202.566 175.659 202.497 175.139 202.628 174.652C202.758 174.165 203.077 173.75 203.515 173.497C203.952 173.245 204.472 173.176 204.96 173.306L261.43 188.437C261.918 188.569 262.334 188.888 262.586 189.325C262.839 189.763 262.907 190.282 262.777 190.769C262.646 191.256 262.327 191.672 261.89 191.924C261.453 192.176 260.933 192.245 260.445 192.115Z" fill="#E6E6E6"/>
<path d="M226.506 190.808L202.028 184.249C201.54 184.118 201.123 183.799 200.87 183.361C200.617 182.924 200.548 182.404 200.679 181.917C200.81 181.429 201.129 181.013 201.567 180.761C202.005 180.509 202.525 180.441 203.013 180.572L227.492 187.131C227.734 187.195 227.961 187.307 228.16 187.459C228.359 187.611 228.526 187.801 228.652 188.018C228.777 188.234 228.859 188.474 228.892 188.722C228.924 188.97 228.908 189.222 228.843 189.463C228.779 189.705 228.667 189.932 228.514 190.13C228.362 190.328 228.171 190.495 227.954 190.62C227.737 190.744 227.498 190.825 227.249 190.858C227.001 190.89 226.748 190.873 226.506 190.808Z" fill="#E6E6E6"/>
<path d="M189.716 140.083L155.72 130.974C154.809 130.729 154.033 130.133 153.561 129.317C153.089 128.501 152.96 127.532 153.203 126.622L159.169 104.357C159.413 103.448 160.009 102.673 160.826 102.203C161.643 101.732 162.613 101.604 163.524 101.848L197.521 110.957C198.431 111.202 199.208 111.798 199.68 112.614C200.152 113.429 200.28 114.398 200.038 115.308L194.072 137.573C193.827 138.482 193.231 139.257 192.415 139.728C191.598 140.198 190.628 140.326 189.716 140.083Z" fill="#E6E6E6"/>
<path d="M194.386 113.098L165.169 105.269C164.339 105.048 163.456 105.164 162.712 105.592C161.969 106.02 161.426 106.726 161.202 107.554L156.563 124.869C156.342 125.697 156.46 126.58 156.889 127.323C157.319 128.066 158.026 128.609 158.856 128.832L177.486 133.824C181.123 134.795 184.997 134.285 188.256 132.407C191.515 130.529 193.893 127.436 194.87 123.807L196.678 117.059C196.899 116.231 196.781 115.349 196.352 114.606C195.922 113.863 195.215 113.321 194.386 113.098Z" fill="white"/>
<path d="M184.561 116.739L184.431 116.873C185.721 115.169 185.646 112.623 184.645 110.81C183.645 108.997 181.895 107.821 180.067 107.051C178.71 106.479 177.246 106.093 175.768 106.249C173.628 106.476 171.683 107.806 169.964 109.271C169.178 109.941 168.371 110.729 168.152 111.771C167.949 112.738 168.299 113.699 168.546 114.632C168.794 115.565 168.912 116.672 168.343 117.465C168.003 117.938 167.482 118.205 167.027 118.544C166.571 118.883 166.135 119.389 166.155 119.973C166.172 120.199 166.249 120.417 166.376 120.605C166.503 120.793 166.677 120.945 166.88 121.046C167.278 121.227 167.706 121.331 168.143 121.353L179.398 122.62C180.163 122.706 180.937 122.606 181.655 122.329C182.372 122.051 183.012 121.605 183.519 121.027C184.026 120.45 184.386 119.758 184.567 119.011C184.748 118.265 184.746 117.485 184.561 116.739Z" fill="#2F2E41"/>
<path d="M174.718 121.285C177.64 122.068 180.641 120.338 181.422 117.422C182.204 114.506 180.469 111.508 177.548 110.725C174.627 109.942 171.626 111.672 170.844 114.588C170.063 117.504 171.797 120.503 174.718 121.285Z" fill="#FFB9B9"/>
<path d="M186.278 133.352C183.473 134.442 180.393 134.607 177.486 133.824L161.256 129.476C161.23 129.44 161.206 129.406 161.181 129.369L163.825 125.558C164.367 124.901 165.079 124.404 165.884 124.12C166.688 123.836 167.555 123.776 168.391 123.947L169.37 124.146L172.196 122.784C172.196 122.784 178.442 124.221 178.378 124.091L181.523 127.346L181.524 127.329L182.973 127.814C183.783 128.084 184.504 128.569 185.059 129.218C185.614 129.866 185.981 130.652 186.122 131.493L186.278 133.352Z" fill="#6C63FF"/>
<path d="M182.463 112.449C182.52 111.691 181.872 111.164 181.283 110.835C179.578 109.878 177.701 109.264 175.76 109.026C174.344 108.855 172.833 108.909 171.559 109.706C170.521 110.387 169.761 111.416 169.415 112.607C169.182 113.312 169.152 114.068 169.326 114.791C169.4 115.125 169.561 115.435 169.792 115.689C170.022 115.943 170.315 116.132 170.641 116.239L170.646 116.477C173.4 116.819 176.309 115.83 178.518 113.802C177.948 114.763 177.117 115.543 176.121 116.052C178.105 115.816 179.985 115.035 181.55 113.795C181.976 113.463 182.42 113.025 182.463 112.449Z" fill="#2F2E41"/>
<path d="M200.787 98.7656L166.791 89.6563C165.88 89.4112 165.104 88.8153 164.632 87.9995C164.16 87.1838 164.031 86.2146 164.274 85.3048L170.24 63.0401C170.484 62.1308 171.08 61.3559 171.897 60.8853C172.714 60.4148 173.684 60.2871 174.595 60.5302L208.592 69.6394C209.502 69.8846 210.279 70.4804 210.751 71.2962C211.223 72.112 211.352 73.0811 211.109 73.9909L205.143 96.2557C204.898 97.1649 204.302 97.9399 203.486 98.4104C202.669 98.8809 201.699 99.0087 200.787 98.7656Z" fill="#CCCCCC"/>
<path d="M205.457 71.7806L176.24 63.952C175.41 63.7307 174.527 63.8469 173.783 64.2751C173.04 64.7034 172.497 65.4087 172.273 66.2364L167.634 83.5512C167.413 84.3799 167.53 85.2625 167.96 86.0054C168.39 86.7484 169.097 87.2911 169.926 87.5146L188.557 92.5066C192.194 93.4781 196.068 92.9689 199.327 91.0908C202.586 89.2128 204.965 86.1194 205.94 82.4899L207.748 75.742C207.969 74.9137 207.852 74.0314 207.423 73.2887C206.993 72.5461 206.286 72.0037 205.457 71.7806Z" fill="white"/>
<path d="M182.926 69.3444C184.302 69.7131 185.716 68.8984 186.084 67.5247C186.452 66.151 185.635 64.7385 184.259 64.3697C182.883 64.001 181.469 64.8158 181.101 66.1895C180.733 67.5632 181.55 68.9757 182.926 69.3444Z" fill="#2F2E41"/>
<path d="M184.38 79.8639C187.866 80.798 191.448 78.7341 192.38 75.254C193.313 71.7739 191.243 68.1956 187.757 67.2616C184.271 66.3275 180.689 68.3915 179.756 71.8715C178.824 75.3516 180.894 78.9299 184.38 79.8639Z" fill="#2F2E41"/>
<path d="M184.903 80.0019C187.735 80.7609 190.646 79.0837 191.404 76.2558C192.161 73.4279 190.479 70.5201 187.647 69.761C184.814 69.002 181.903 70.6792 181.146 73.5071C180.388 76.3351 182.07 79.2429 184.903 80.0019Z" fill="#9E616A"/>
<path d="M191.156 70.5957C190.404 69.8079 189.454 69.2361 188.405 68.9402C187.356 68.6444 186.247 68.6352 185.194 68.9138C184.141 69.1923 183.183 69.7483 182.419 70.5236C181.655 71.299 181.114 72.2651 180.852 73.3211C183.29 74.6765 185.902 75.9135 188.957 75.6606L190.046 74.2288L190.003 75.9421C190.759 76.5159 191.531 77.037 192.554 76.6223C192.87 75.5839 192.907 74.4808 192.661 73.4232C192.416 72.3656 191.897 71.3906 191.156 70.5957Z" fill="#2F2E41"/>
<path d="M183.082 59.4834C182.307 58.8763 181.378 58.4976 180.399 58.3903C179.42 58.283 178.431 58.4513 177.544 58.8762C176.667 59.3229 175.916 59.9793 175.355 60.7868C174.795 61.5943 174.443 62.5279 174.332 63.5043C174.103 65.4896 174.825 67.4455 175.466 69.3393C176.108 71.233 176.683 73.274 176.165 75.2039C175.792 76.594 174.881 77.779 173.634 78.499C172.386 79.2191 170.903 79.4155 169.509 79.0451C170.956 80.1855 172.47 81.3589 174.27 81.7519C176.069 82.1449 178.238 81.5033 178.998 79.8282C179.545 78.6213 179.255 77.2235 179.051 75.9137C178.719 73.7795 178.646 71.6134 178.834 69.4622C178.924 68.4356 179.087 67.3748 179.66 66.5179C180.102 65.8876 180.735 65.416 181.467 65.1728C182.198 64.9295 182.988 64.9273 183.721 65.1666L184.45 64.7965C184.803 63.8793 184.862 62.8746 184.617 61.9223C184.371 60.9699 183.835 60.1174 183.082 59.4834Z" fill="#2F2E41"/>
<path d="M196.109 92.4498C193.644 93.1544 191.033 93.1742 188.557 92.507L170.975 87.7959L170.953 87.7651L173.597 83.9526C174.14 83.2956 174.852 82.7986 175.656 82.5151C176.461 82.2315 177.328 82.1721 178.164 82.3431L179.142 82.5421L181.968 81.1803C181.968 81.1803 188.215 82.616 188.151 82.4858L191.296 85.7403L191.296 85.7255L192.745 86.2103C193.555 86.4798 194.276 86.9645 194.831 87.6124C195.386 88.2602 195.754 89.0468 195.895 89.8874L196.109 92.4498Z" fill="#6C63FF"/>
<path d="M178.037 183.672L144.041 174.563C143.13 174.317 142.353 173.722 141.881 172.906C141.409 172.09 141.281 171.121 141.523 170.211L147.489 147.946C147.734 147.037 148.33 146.262 149.147 145.792C149.963 145.321 150.934 145.193 151.845 145.436L185.841 154.546C186.752 154.791 187.529 155.387 188 156.202C188.472 157.018 188.601 157.987 188.358 158.897L182.393 181.162C182.148 182.071 181.552 182.846 180.735 183.317C179.919 183.787 178.948 183.915 178.037 183.672Z" fill="#E6E6E6"/>
<path d="M182.706 156.688L153.49 148.859C152.66 148.638 151.776 148.754 151.032 149.182C150.289 149.61 149.746 150.316 149.523 151.144L144.883 168.458C144.662 169.287 144.78 170.17 145.21 170.913C145.639 171.656 146.347 172.198 147.176 172.422L165.807 177.414C169.444 178.385 173.317 177.875 176.576 175.997C179.835 174.119 182.214 171.026 183.19 167.397L184.998 160.649C185.219 159.821 185.102 158.939 184.672 158.196C184.243 157.453 183.536 156.911 182.706 156.688Z" fill="white"/>
<path d="M165.121 163.781C169.007 164.822 173.001 162.521 174.04 158.641C175.08 154.761 172.772 150.772 168.886 149.73C164.999 148.689 161.006 150.99 159.966 154.87C158.926 158.75 161.234 162.74 165.121 163.781Z" fill="#2F2E41"/>
<path d="M164.876 164.704C168.348 165.635 171.916 163.579 172.844 160.113C173.773 156.647 171.712 153.083 168.24 152.152C164.767 151.222 161.2 153.278 160.271 156.744C159.342 160.21 161.404 163.774 164.876 164.704Z" fill="#FFB8B8"/>
<path d="M175.134 176.722C172.194 178.003 168.905 178.247 165.807 177.413L150.129 173.212L152.726 169.469C153.268 168.812 153.98 168.315 154.785 168.031C155.589 167.747 156.456 167.687 157.292 167.858L158.271 168.057L161.097 166.695C161.097 166.695 167.343 168.132 167.279 168.002L170.424 171.257L170.425 171.24L171.874 171.725C172.684 171.995 173.405 172.48 173.96 173.128C174.515 173.776 174.882 174.563 175.024 175.404L175.134 176.722Z" fill="#6C63FF"/>
<path d="M173.78 158.004C173.95 157.548 174.096 157.082 174.219 156.611C174.494 155.687 174.571 154.715 174.445 153.759C174.262 152.689 173.683 151.727 172.822 151.063C171.966 150.419 170.892 150.132 169.828 150.263C169.139 149.457 168.256 148.839 167.262 148.468C166.762 148.29 166.226 148.236 165.701 148.309C165.175 148.383 164.675 148.582 164.243 148.89C164.046 149.071 163.832 149.234 163.605 149.377C162.979 149.707 162.233 149.436 161.591 149.162C161.822 149.498 162.053 149.835 162.284 150.171C161.896 150.169 161.508 150.166 161.12 150.163C161.475 150.533 161.829 150.902 162.183 151.272C160.758 151.678 159.77 153.135 159.526 154.633C159.296 156.051 159.625 157.493 160.123 158.829C160.621 158.244 160.768 157.422 160.965 156.665C161.028 156.42 161.108 156.179 161.206 155.944C163.731 157.313 166.439 158.483 169.572 158.223L170.522 156.975C170.6 157.005 170.679 157.034 170.757 157.065L170.72 158.532C171.391 159.042 172.074 159.513 172.905 159.433C172.885 159.655 172.849 159.879 172.81 160.092C172.942 159.86 173.065 159.623 173.184 159.384C173.298 159.357 173.41 159.322 173.519 159.278C173.649 158.864 173.737 158.437 173.78 158.004Z" fill="#2F2E41"/>
<path d="M308.676 76.1929L162.047 36.9037C161.829 36.8451 161.644 36.7027 161.531 36.5077C161.418 36.3128 161.387 36.0812 161.445 35.8637L162.738 31.0406C162.796 30.8233 162.939 30.6381 163.134 30.5256C163.329 30.4132 163.561 30.3827 163.779 30.4408L310.408 69.7299C310.625 69.7885 310.811 69.9309 310.924 70.1259C311.037 70.3209 311.067 70.5525 311.009 70.77L309.717 75.593C309.659 75.8103 309.516 75.9956 309.321 76.108C309.126 76.2205 308.894 76.251 308.676 76.1929Z" fill="#E4E4E4"/>
<path d="M166.609 35.6582C167.253 35.8308 167.915 35.4495 168.087 34.8066C168.259 34.1637 167.877 33.5026 167.233 33.33C166.589 33.1575 165.927 33.5388 165.755 34.1817C165.582 34.8246 165.965 35.4857 166.609 35.6582Z" fill="white"/>
<path d="M171.035 36.8438C171.679 37.0163 172.341 36.635 172.513 35.9921C172.685 35.3492 172.303 34.6881 171.659 34.5156C171.015 34.343 170.353 34.7243 170.181 35.3672C170.008 36.0101 170.391 36.6712 171.035 36.8438Z" fill="white"/>
<path d="M175.461 38.0303C176.105 38.2029 176.767 37.8216 176.939 37.1786C177.111 36.5357 176.729 35.8747 176.085 35.7021C175.441 35.5295 174.779 35.9108 174.607 36.5537C174.435 37.1967 174.817 37.8577 175.461 38.0303Z" fill="white"/>
<path d="M305.483 70.7626L300.386 69.3969C300.286 69.3701 300.201 69.3047 300.149 69.215C300.097 69.1254 300.083 69.0188 300.11 68.9189C300.136 68.8189 300.202 68.7337 300.292 68.682C300.381 68.6303 300.488 68.6163 300.588 68.6431L305.685 70.0088C305.785 70.0356 305.87 70.1011 305.922 70.1907C305.974 70.2804 305.988 70.3869 305.961 70.4869C305.935 70.5868 305.869 70.672 305.779 70.7237C305.69 70.7755 305.583 70.7894 305.483 70.7626Z" fill="white"/>
<path d="M305.104 72.1767L300.008 70.811C299.958 70.7977 299.912 70.7748 299.871 70.7436C299.83 70.7124 299.796 70.6735 299.77 70.6291C299.745 70.5847 299.728 70.5357 299.721 70.4849C299.714 70.4341 299.718 70.3824 299.731 70.3329C299.744 70.2835 299.767 70.2371 299.798 70.1964C299.83 70.1558 299.869 70.1217 299.913 70.0961C299.957 70.0705 300.007 70.0539 300.057 70.0472C300.108 70.0405 300.16 70.0439 300.21 70.0572L305.306 71.4229C305.356 71.4362 305.402 71.4591 305.443 71.4903C305.484 71.5215 305.518 71.5604 305.544 71.6048C305.569 71.6492 305.586 71.6982 305.593 71.749C305.599 71.7998 305.596 71.8514 305.583 71.9009C305.57 71.9504 305.547 71.9968 305.515 72.0375C305.484 72.0781 305.445 72.1122 305.401 72.1378C305.356 72.1634 305.307 72.18 305.256 72.1867C305.206 72.1934 305.154 72.1899 305.104 72.1767Z" fill="white"/>
<path d="M304.726 73.5898L299.629 72.2241C299.529 72.1973 299.443 72.1318 299.392 72.0422C299.34 71.9525 299.326 71.846 299.352 71.746C299.379 71.6461 299.445 71.5609 299.534 71.5092C299.624 71.4575 299.731 71.4435 299.831 71.4703L304.928 72.836C305.028 72.8628 305.113 72.9282 305.165 73.0179C305.217 73.1075 305.231 73.2141 305.204 73.314C305.177 73.414 305.112 73.4992 305.022 73.5509C304.932 73.6026 304.826 73.6166 304.726 73.5898Z" fill="white"/>
<path d="M267.201 111.246C268.366 111.558 269.563 110.869 269.874 109.706C270.186 108.543 269.494 107.348 268.329 107.036C267.165 106.724 265.968 107.413 265.657 108.576C265.345 109.739 266.037 110.934 267.201 111.246Z" fill="#6C63FF"/>
<path d="M274.049 113.081C275.214 113.393 276.411 112.704 276.722 111.541C277.034 110.378 276.342 109.183 275.178 108.871C274.013 108.559 272.816 109.248 272.505 110.411C272.193 111.574 272.885 112.769 274.049 113.081Z" fill="#6C63FF"/>
<path d="M280.898 114.916C282.062 115.228 283.259 114.539 283.57 113.376C283.882 112.213 283.19 111.018 282.026 110.706C280.861 110.394 279.664 111.083 279.353 112.246C279.041 113.409 279.733 114.604 280.898 114.916Z" fill="#6C63FF"/>
<path d="M256.21 152.266C257.375 152.578 258.571 151.888 258.883 150.726C259.195 149.563 258.503 148.367 257.338 148.055C256.174 147.743 254.977 148.433 254.665 149.595C254.354 150.758 255.045 151.954 256.21 152.266Z" fill="#E6E6E6"/>
<path d="M263.058 154.101C264.223 154.413 265.42 153.723 265.731 152.561C266.043 151.398 265.351 150.202 264.186 149.89C263.022 149.578 261.825 150.268 261.514 151.43C261.202 152.593 261.894 153.789 263.058 154.101Z" fill="#E6E6E6"/>
<path d="M269.906 155.936C271.071 156.248 272.268 155.558 272.579 154.396C272.891 153.233 272.199 152.037 271.035 151.725C269.87 151.413 268.673 152.103 268.362 153.265C268.05 154.428 268.742 155.624 269.906 155.936Z" fill="#E6E6E6"/>
<path d="M244.51 195.932C245.675 196.244 246.871 195.554 247.183 194.392C247.494 193.229 246.803 192.033 245.638 191.721C244.473 191.409 243.277 192.099 242.965 193.261C242.654 194.424 243.345 195.62 244.51 195.932Z" fill="#E6E6E6"/>
<path d="M251.358 197.767C252.523 198.079 253.719 197.389 254.031 196.227C254.342 195.064 253.651 193.868 252.486 193.556C251.322 193.244 250.125 193.934 249.813 195.096C249.502 196.259 250.193 197.455 251.358 197.767Z" fill="#E6E6E6"/>
<path d="M258.206 199.602C259.371 199.914 260.568 199.224 260.879 198.062C261.191 196.899 260.499 195.703 259.334 195.391C258.17 195.079 256.973 195.769 256.661 196.931C256.35 198.094 257.042 199.29 258.206 199.602Z" fill="#E6E6E6"/>
<path d="M207.255 94.8733L198.226 85.0901C198.054 84.9033 197.834 84.7663 197.591 84.6935C197.347 84.6208 197.088 84.6149 196.841 84.6766C196.595 84.7384 196.369 84.8653 196.189 85.0442C196.009 85.223 195.88 85.4472 195.817 85.693L192.749 97.5684C192.667 97.884 192.698 98.2182 192.835 98.5142C192.972 98.8103 193.207 99.0499 193.501 99.1925C193.795 99.3351 194.129 99.3719 194.447 99.2967C194.764 99.2214 195.046 99.0388 195.244 98.7797L197.578 95.7243L199.442 104.542C199.531 104.959 199.782 105.325 200.14 105.557C200.499 105.79 200.935 105.872 201.353 105.784C201.771 105.696 202.137 105.446 202.37 105.089C202.604 104.732 202.686 104.297 202.598 103.879L200.692 94.8612L205.628 97.1147C205.925 97.2504 206.26 97.2792 206.576 97.1963C206.892 97.1134 207.169 96.9238 207.361 96.6598C207.552 96.3958 207.647 96.0737 207.627 95.748C207.608 95.4223 207.477 95.1133 207.255 94.8733Z" fill="#3F3D56"/>
<path d="M49.8622 131.757C50.2032 131.541 50.4924 131.253 50.7097 130.913C50.9269 130.573 51.0668 130.19 51.1196 129.79C51.1724 129.39 51.1366 128.984 51.015 128.599C50.8934 128.214 50.6887 127.861 50.4155 127.563L55.0723 118.935L49.9897 119.383L46.3467 127.508C45.8773 127.999 45.6046 128.645 45.5804 129.324C45.5562 130.002 45.7822 130.666 46.2155 131.19C46.6489 131.714 47.2594 132.061 47.9315 132.166C48.6036 132.27 49.2906 132.125 49.8622 131.757Z" fill="#FFB8B8"/>
<path d="M71.3436 96.1255L68.2073 100.398C68.2073 100.398 67.7255 105.381 66.1141 106.086C64.5028 106.79 65.0337 106.932 64.8207 107.727C64.6222 108.286 64.3082 108.795 63.8992 109.224C63.4902 109.653 62.9954 109.991 62.4468 110.216C61.172 110.726 52.0622 125.612 52.0622 125.612L47.2839 124.331C47.7684 123.141 48.1023 121.894 48.278 120.621C48.5097 118.695 50.8497 114.209 51.5936 113.557C52.3375 112.904 52.0907 111.701 52.5167 110.111C52.9428 108.521 54.2176 108.011 54.9277 105.361C55.6378 102.711 64.3621 82.8933 64.7357 80.437C65.1093 77.9808 68.5974 76.6432 68.5974 76.6432L71.252 77.3544L71.3436 96.1255Z" fill="#E6E6E6"/>
<path d="M35.7479 190.183L39.1872 191.105L44.3729 178.299L39.2964 176.938L35.7479 190.183Z" fill="#FFB6B6"/>
<path d="M35.2553 187.531L40.8381 188.676L40.2083 191.026L44.4674 196.028C44.6778 196.275 44.8037 196.582 44.8266 196.906C44.8496 197.229 44.7685 197.551 44.595 197.825C44.4216 198.099 44.1651 198.31 43.8628 198.428C43.5605 198.546 43.2283 198.564 42.9147 198.48L36.3726 196.727L35.868 194.1L34.8047 196.307L32.3381 195.646L35.2553 187.531Z" fill="#2F2E41"/>
<path d="M55.0682 195.36L58.5075 196.281L63.6932 183.475L58.6167 182.115L55.0682 195.36Z" fill="#FFB6B6"/>
<path d="M54.5756 192.707L60.1584 193.852L59.5286 196.203L63.7877 201.205C63.9981 201.452 64.124 201.759 64.147 202.083C64.1699 202.406 64.0888 202.728 63.9154 203.002C63.742 203.276 63.4854 203.487 63.1831 203.605C62.8808 203.723 62.5486 203.741 62.235 203.657L55.693 201.904L55.1883 199.277L54.1251 201.484L51.6584 200.823L54.5756 192.707Z" fill="#2F2E41"/>
<path d="M37.3239 178.364L37.3613 178.374L45.0395 157.35C44.8323 156.411 44.8608 155.436 45.1225 154.511C45.3842 153.586 45.8709 152.74 46.5393 152.049L46.6799 151.903L46.7388 150.701C46.8146 149.157 47.367 147.674 48.3204 146.456L53.0736 126.199C54.6909 111.345 67.6902 104.857 67.6902 104.857L83.4294 109.075L83.7029 121.57C81.6652 134.25 82.155 148.292 78.424 160.114C75.5858 169.107 68.9018 176.07 64.9957 184.521L65.0792 184.596C65.3951 184.809 65.4154 185.33 65.1247 185.76C64.8339 186.19 64.3422 186.366 64.0264 186.153L55.7916 183.637C55.4757 183.424 55.4554 182.903 55.7462 182.473C56.0369 182.043 56.5286 181.867 56.8445 182.08L57.3332 182.517L67.2435 161.9L68.3943 158.14L69.2725 153.76L67.6407 133.564L56.436 156.09L44.5969 180.57C44.6999 180.729 44.7521 180.915 44.7466 181.105C44.7412 181.294 44.6784 181.477 44.5665 181.63C44.4546 181.783 44.2988 181.899 44.1198 181.961C43.9408 182.024 43.7469 182.031 43.5638 181.981L36.8376 180.179C36.7182 180.147 36.6063 180.092 36.5082 180.017C36.4102 179.941 36.3279 179.848 36.2661 179.741C36.2042 179.634 36.1641 179.516 36.1479 179.394C36.1317 179.271 36.1398 179.147 36.1717 179.028C36.2037 178.909 36.2588 178.797 36.334 178.699C36.4092 178.601 36.5029 178.519 36.6099 178.457C36.7169 178.396 36.835 178.356 36.9575 178.34C37.08 178.324 37.2045 178.332 37.3239 178.364Z" fill="#2F2E41"/>
<path d="M53.8347 111.529C53.318 111.39 53.0516 111.211 52.996 110.963C52.9146 110.6 53.3154 110.262 53.7796 109.87C54.1125 109.622 54.403 109.322 54.64 108.981C55.0548 108.235 61.8234 88.384 62.0966 84.1285C62.1598 83.1439 62.6419 81.9892 63.5292 80.6965C65.9528 77.1664 68.1558 76.4721 72.5445 75.0894C72.9007 74.9771 73.2719 74.8596 73.6579 74.7368C74.1573 74.5776 74.3765 73.6647 74.6086 72.698C74.8667 71.6236 75.1334 70.5124 75.8418 69.9631L75.8879 69.9272L75.9462 69.9292C77.291 69.9763 81.6957 70.575 83.9934 72.0897L84.025 72.1108L84.0441 72.1436C84.483 72.9024 84.2272 74.0757 83.9798 75.2103C83.7765 76.1417 83.5847 77.0213 83.8226 77.4894C85.6415 81.0679 88.5959 81.7993 88.6259 81.8066L88.7727 81.8414L88.7484 81.9899C86.8084 93.7395 83.9961 111.505 84.2001 112.288C84.212 112.324 84.2136 112.363 84.2048 112.401C84.196 112.438 84.1771 112.472 84.1502 112.5C83.2998 113.405 55.7823 112.051 53.8347 111.529Z" fill="#E6E6E6"/>
<path d="M83.5121 68.4835C87.7574 69.621 92.1195 67.1075 93.2551 62.8693C94.3907 58.6312 91.8698 54.2734 87.6245 53.1358C83.3792 51.9983 79.0172 54.5119 77.8815 58.75C76.7459 62.9881 79.2668 67.346 83.5121 68.4835Z" fill="#FFB8B8"/>
<path d="M65.3704 51.725C67.0755 50.5602 68.2312 48.7184 69.7306 47.2786C71.2299 45.8389 73.45 44.7856 75.2529 45.6972C76.4957 46.3256 77.2025 47.7582 77.3712 49.1894C77.5397 50.6206 77.2542 52.0725 76.9701 53.4938C77.7075 50.6142 80.348 48.3386 83.2035 48.1218C86.0588 47.905 88.9085 49.7638 89.9305 52.5098C90.8236 52.0394 91.8589 51.9126 92.84 52.1536C93.8211 52.3946 94.6798 52.9865 95.2535 53.8172C96.3697 55.5192 96.0268 58.0974 94.5006 59.4779C93.7413 60.1451 92.7639 60.5123 91.752 60.5106C90.7401 60.509 89.7633 60.1386 89.005 59.4689L88.2497 59.8631C88.2473 60.5002 88.0208 61.1159 87.6096 61.6027C87.1985 62.0895 86.629 62.4164 86.0007 62.5261C85.0013 62.6481 83.7443 62.2465 83.1537 63.1009C82.7409 63.6979 82.9929 64.5207 83.3259 65.1537C83.6588 65.7866 84.0751 66.4597 83.9433 67.1768C83.7446 68.2588 82.4493 68.7071 81.3927 68.6635C80.1054 68.5799 78.872 68.1148 77.8504 67.3275C76.8288 66.5402 76.0654 65.4666 75.658 64.2441C75.6422 64.1961 75.6242 64.1475 75.6038 64.0981C75.0925 62.8977 74.8315 61.6059 74.837 60.3018C74.8424 58.9977 75.114 57.7086 75.6353 56.5133C75.8443 56.0448 75.8634 55.6597 75.5564 55.4533C74.2298 54.5609 69.8551 54.5156 68.3619 55.134C66.8685 55.7523 65.5396 56.7441 64.0754 57.4359C62.6111 58.1278 60.8816 58.5007 59.4404 57.8193C58.2862 57.2735 57.4896 56.1176 57.0795 54.8708C56.719 53.5976 56.5481 52.2785 56.5726 50.9559C58.841 53.2221 62.6866 53.5584 65.3704 51.725Z" fill="#2F2E41"/>
<path d="M77.7625 139.233C77.5753 138.876 77.4688 138.482 77.4506 138.079C77.4324 137.676 77.503 137.274 77.6572 136.901C77.8115 136.528 78.0457 136.194 78.3434 135.922C78.6412 135.649 78.9951 135.445 79.3804 135.324L79.6619 125.523L83.8395 128.453L82.9318 137.311C83.0929 137.971 83.006 138.667 82.6876 139.267C82.3692 139.866 81.8414 140.329 81.2042 140.566C80.567 140.803 79.8647 140.798 79.2304 140.552C78.5961 140.307 78.0738 139.838 77.7625 139.233Z" fill="#FFB8B8"/>
<path d="M76.9747 97.6343L77.5548 102.902C77.5548 102.902 75.4802 107.459 76.5235 108.875C77.5667 110.291 77.0358 110.148 76.8228 110.943C76.7157 111.526 76.7326 112.125 76.8725 112.7C77.0123 113.276 77.2719 113.816 77.6344 114.285C78.4833 115.365 78.9299 132.811 78.9299 132.811L83.7082 134.091C83.8839 132.818 84.2179 131.572 84.7023 130.381C85.4648 128.597 85.6812 123.542 85.3633 122.605C85.0454 121.668 85.8603 120.75 86.2864 119.16C86.7125 117.57 85.8637 116.49 86.5737 113.84C87.2838 111.19 89.6371 89.6656 90.5416 87.3517C91.4462 85.0377 89.0942 82.1352 89.0942 82.1352L86.4396 81.4239L76.9747 97.6343Z" fill="#E6E6E6"/>
</g>
<defs>
<clipPath id="clip0_196_202">
<rect width="270.266" height="193.85" fill="white" transform="translate(50.1721) rotate(15)"/>
</clipPath>
</defs>
</svg>
