<svg width="235" height="171" viewBox="0 0 235 171" fill="none" xmlns="http://www.w3.org/2000/svg">
<g id="undraw_programming_re_kg9v 1" clip-path="url(#clip0_145_231)">
<path id="Vector" d="M136.887 30.1452C141.291 30.1452 144.862 26.5731 144.862 22.1666C144.862 17.7601 141.291 14.188 136.887 14.188C132.483 14.188 128.912 17.7601 128.912 22.1666C128.912 26.5731 132.483 30.1452 136.887 30.1452Z" fill="#F2F2F2"/>
<path id="Vector_2" d="M198.75 148.557C210.603 139.524 216.265 124.345 212.72 109.865C212.632 109.506 212.539 109.147 212.442 108.789C210.092 100.194 204.278 92.0248 195.806 89.2785C188.691 86.9725 180.926 88.7458 173.504 87.8288C158.935 86.0287 147.639 74.2344 139.691 61.8857C131.743 49.537 125.635 35.7144 115.074 25.5126C97.6664 8.69658 69.2696 5.07608 47.6863 16.022C26.1029 26.968 12.3546 51.2526 12.9409 75.4552C13.5273 99.6579 27.8883 122.797 48.744 135.074C56.4056 139.584 65.2669 142.779 74.0857 141.661C81.7377 140.691 88.6904 136.578 96.3064 135.356C108.28 133.436 120.178 138.853 130.535 145.165C140.891 151.476 150.895 158.958 162.664 161.884C174.092 164.725 188.249 156.559 198.75 148.557Z" fill="#F2F2F2"/>
<path id="Vector_3" d="M181.719 16.5305C181.459 16.3572 181.196 16.1929 180.937 16.0255C173.425 11.2193 165.374 7.31476 156.95 4.3926L154.997 31.3518H142.614V0.457189C141.835 0.295828 141.049 0.143432 140.264 0V31.3518H125.548C117.447 31.3518 109.678 28.1321 103.949 22.401C98.2211 16.6699 95.003 8.89689 95.003 0.791898C94.2145 0.962223 93.432 1.14447 92.6495 1.33871V31.3518H80.6638L78.8031 5.64465C70.146 8.96638 61.9274 13.3346 54.33 18.6521C54.1986 18.7418 54.0672 18.8344 53.9388 18.924C53.2787 19.3872 52.6276 19.8593 51.9795 20.3375V123.187H87.3033L86.679 114.536L83.2443 67.0395H152.413L148.979 114.536L148.355 123.187H183.287V17.5704C182.767 17.2178 182.245 16.8712 181.719 16.5305ZM92.6495 59.1955H82.6769L80.8341 33.7065H92.6495V59.1955ZM140.264 59.1955H123.514V58.6905C123.514 58.4478 123.466 58.2074 123.373 57.9831C123.28 57.7589 123.144 57.5552 122.972 57.3836C122.801 57.2121 122.597 57.0762 122.373 56.9835C122.148 56.8909 121.908 56.8434 121.665 56.8438H114.384C114.141 56.8437 113.901 56.8914 113.677 56.9842C113.453 57.077 113.25 57.213 113.078 57.3845C112.907 57.556 112.771 57.7596 112.678 57.9837C112.586 58.2078 112.538 58.448 112.538 58.6905V59.1955H95.003V33.7065H140.264V59.1955ZM142.614 59.1955V33.7065H154.827L152.984 59.1955H142.614Z" fill="#3F3D56"/>
<path id="Vector_4" d="M0 129.773C2.59463 132.849 5.40101 135.74 8.39862 138.424L226.601 138.723C229.599 136.039 232.405 133.148 235 130.072L0 129.773Z" fill="#3F3D56"/>
<path id="Vector_5" d="M147.97 102.073V127.683C147.971 128.009 148.1 128.322 148.331 128.553C148.562 128.784 148.874 128.914 149.201 128.914H187.133C187.459 128.914 187.772 128.784 188.003 128.553C188.234 128.322 188.363 128.009 188.363 127.683V102.073C188.363 101.747 188.233 101.435 188.002 101.204C187.772 100.974 187.459 100.844 187.133 100.844H149.201C148.875 100.844 148.562 100.974 148.332 101.204C148.101 101.435 147.971 101.747 147.97 102.073Z" fill="#3F3D56"/>
<path id="Vector_6" d="M148.86 102.392V127.367C148.861 127.541 148.93 127.708 149.053 127.832C149.176 127.955 149.344 128.024 149.518 128.025H186.817C186.992 128.024 187.159 127.955 187.282 127.832C187.405 127.708 187.475 127.541 187.475 127.367V102.392C187.475 102.217 187.406 102.05 187.282 101.926C187.159 101.802 186.992 101.733 186.817 101.732H149.518C149.343 101.733 149.176 101.802 149.053 101.926C148.93 102.05 148.86 102.217 148.86 102.392Z" fill="#6C63FF"/>
<path id="Vector_7" d="M147.177 132.678C147.247 132.765 147.335 132.835 147.435 132.883C147.536 132.931 147.646 132.956 147.758 132.956H188.374C188.485 132.955 188.595 132.93 188.695 132.883C188.796 132.835 188.884 132.765 188.954 132.679C189.024 132.593 189.074 132.492 189.1 132.384C189.126 132.276 189.128 132.163 189.105 132.054L188.474 129.058C188.448 128.936 188.392 128.822 188.311 128.727C188.229 128.632 188.126 128.559 188.009 128.515C187.925 128.482 187.835 128.465 187.744 128.465H148.386C148.295 128.465 148.205 128.482 148.12 128.515C148.004 128.559 147.9 128.632 147.819 128.727C147.737 128.822 147.681 128.936 147.655 129.058L147.024 132.054C147.002 132.163 147.004 132.275 147.03 132.383C147.057 132.491 147.107 132.592 147.177 132.678Z" fill="#2F2E41"/>
<path id="Vector_8" d="M186.35 129.755H187.31C187.39 129.755 187.455 129.69 187.455 129.61V129.15C187.455 129.07 187.39 129.004 187.31 129.004H186.35C186.27 129.004 186.204 129.07 186.204 129.15V129.61C186.204 129.69 186.27 129.755 186.35 129.755Z" fill="#3F3D56"/>
<path id="Vector_9" d="M183.848 129.755H184.808C184.888 129.755 184.953 129.69 184.953 129.61V129.15C184.953 129.07 184.888 129.004 184.808 129.004H183.848C183.768 129.004 183.702 129.07 183.702 129.15V129.61C183.702 129.69 183.768 129.755 183.848 129.755Z" fill="#3F3D56"/>
<path id="Vector_10" d="M181.346 129.755H182.306C182.386 129.755 182.451 129.69 182.451 129.61V129.15C182.451 129.07 182.386 129.004 182.306 129.004H181.346C181.266 129.004 181.2 129.07 181.2 129.15V129.61C181.2 129.69 181.266 129.755 181.346 129.755Z" fill="#3F3D56"/>
<path id="Vector_11" d="M178.844 129.755H179.804C179.884 129.755 179.949 129.69 179.949 129.61V129.15C179.949 129.07 179.884 129.004 179.804 129.004H178.844C178.764 129.004 178.698 129.07 178.698 129.15V129.61C178.698 129.69 178.764 129.755 178.844 129.755Z" fill="#3F3D56"/>
<path id="Vector_12" d="M176.342 129.755H177.302C177.382 129.755 177.448 129.69 177.448 129.61V129.15C177.448 129.07 177.382 129.004 177.302 129.004H176.342C176.262 129.004 176.197 129.07 176.197 129.15V129.61C176.197 129.69 176.262 129.755 176.342 129.755Z" fill="#3F3D56"/>
<path id="Vector_13" d="M173.84 129.755H174.8C174.88 129.755 174.946 129.69 174.946 129.61V129.15C174.946 129.07 174.88 129.004 174.8 129.004H173.84C173.76 129.004 173.695 129.07 173.695 129.15V129.61C173.695 129.69 173.76 129.755 173.84 129.755Z" fill="#3F3D56"/>
<path id="Vector_14" d="M171.338 129.755H172.298C172.378 129.755 172.444 129.69 172.444 129.61V129.15C172.444 129.07 172.378 129.004 172.298 129.004H171.338C171.258 129.004 171.193 129.07 171.193 129.15V129.61C171.193 129.69 171.258 129.755 171.338 129.755Z" fill="#3F3D56"/>
<path id="Vector_15" d="M168.836 129.755H169.796C169.876 129.755 169.942 129.69 169.942 129.61V129.15C169.942 129.07 169.876 129.004 169.796 129.004H168.836C168.756 129.004 168.691 129.07 168.691 129.15V129.61C168.691 129.69 168.756 129.755 168.836 129.755Z" fill="#3F3D56"/>
<path id="Vector_16" d="M166.335 129.755H167.294C167.374 129.755 167.44 129.69 167.44 129.61V129.15C167.44 129.07 167.374 129.004 167.294 129.004H166.335C166.254 129.004 166.189 129.07 166.189 129.15V129.61C166.189 129.69 166.254 129.755 166.335 129.755Z" fill="#3F3D56"/>
<path id="Vector_17" d="M163.833 129.755H164.792C164.872 129.755 164.938 129.69 164.938 129.61V129.15C164.938 129.07 164.872 129.004 164.792 129.004H163.833C163.752 129.004 163.687 129.07 163.687 129.15V129.61C163.687 129.69 163.752 129.755 163.833 129.755Z" fill="#3F3D56"/>
<path id="Vector_18" d="M161.331 129.755H162.29C162.371 129.755 162.436 129.69 162.436 129.61V129.15C162.436 129.07 162.371 129.004 162.29 129.004H161.331C161.25 129.004 161.185 129.07 161.185 129.15V129.61C161.185 129.69 161.25 129.755 161.331 129.755Z" fill="#3F3D56"/>
<path id="Vector_19" d="M158.829 129.755H159.788C159.869 129.755 159.934 129.69 159.934 129.61V129.15C159.934 129.07 159.869 129.004 159.788 129.004H158.829C158.748 129.004 158.683 129.07 158.683 129.15V129.61C158.683 129.69 158.748 129.755 158.829 129.755Z" fill="#3F3D56"/>
<path id="Vector_20" d="M156.327 129.755H157.286C157.367 129.755 157.432 129.69 157.432 129.61V129.15C157.432 129.07 157.367 129.004 157.286 129.004H156.327C156.246 129.004 156.181 129.07 156.181 129.15V129.61C156.181 129.69 156.246 129.755 156.327 129.755Z" fill="#3F3D56"/>
<path id="Vector_21" d="M153.825 129.755H154.784C154.865 129.755 154.93 129.69 154.93 129.61V129.15C154.93 129.07 154.865 129.004 154.784 129.004H153.825C153.744 129.004 153.679 129.07 153.679 129.15V129.61C153.679 129.69 153.744 129.755 153.825 129.755Z" fill="#3F3D56"/>
<path id="Vector_22" d="M151.323 129.755H152.282C152.363 129.755 152.428 129.69 152.428 129.61V129.15C152.428 129.07 152.363 129.004 152.282 129.004H151.323C151.242 129.004 151.177 129.07 151.177 129.15V129.61C151.177 129.69 151.242 129.755 151.323 129.755Z" fill="#3F3D56"/>
<path id="Vector_23" d="M148.821 129.755H149.78C149.861 129.755 149.926 129.69 149.926 129.61V129.15C149.926 129.07 149.861 129.004 149.78 129.004H148.821C148.74 129.004 148.675 129.07 148.675 129.15V129.61C148.675 129.69 148.74 129.755 148.821 129.755Z" fill="#3F3D56"/>
<path id="Vector_24" d="M186.38 131.007H187.339C187.42 131.007 187.485 130.942 187.485 130.861V130.402C187.485 130.321 187.42 130.256 187.339 130.256H186.38C186.299 130.256 186.234 130.321 186.234 130.402V130.861C186.234 130.942 186.299 131.007 186.38 131.007Z" fill="#3F3D56"/>
<path id="Vector_25" d="M183.878 131.007H184.837C184.918 131.007 184.983 130.942 184.983 130.861V130.402C184.983 130.321 184.918 130.256 184.837 130.256H183.878C183.797 130.256 183.732 130.321 183.732 130.402V130.861C183.732 130.942 183.797 131.007 183.878 131.007Z" fill="#3F3D56"/>
<path id="Vector_26" d="M181.376 131.007H182.335C182.416 131.007 182.481 130.942 182.481 130.861V130.402C182.481 130.321 182.416 130.256 182.335 130.256H181.376C181.295 130.256 181.23 130.321 181.23 130.402V130.861C181.23 130.942 181.295 131.007 181.376 131.007Z" fill="#3F3D56"/>
<path id="Vector_27" d="M178.874 131.007H179.833C179.914 131.007 179.979 130.942 179.979 130.861V130.402C179.979 130.321 179.914 130.256 179.833 130.256H178.874C178.793 130.256 178.728 130.321 178.728 130.402V130.861C178.728 130.942 178.793 131.007 178.874 131.007Z" fill="#3F3D56"/>
<path id="Vector_28" d="M176.372 131.007H177.331C177.412 131.007 177.477 130.942 177.477 130.861V130.402C177.477 130.321 177.412 130.256 177.331 130.256H176.372C176.291 130.256 176.226 130.321 176.226 130.402V130.861C176.226 130.942 176.291 131.007 176.372 131.007Z" fill="#3F3D56"/>
<path id="Vector_29" d="M173.87 131.007H174.829C174.91 131.007 174.975 130.942 174.975 130.861V130.402C174.975 130.321 174.91 130.256 174.829 130.256H173.87C173.789 130.256 173.724 130.321 173.724 130.402V130.861C173.724 130.942 173.789 131.007 173.87 131.007Z" fill="#3F3D56"/>
<path id="Vector_30" d="M171.368 131.007H172.327C172.408 131.007 172.473 130.942 172.473 130.861V130.402C172.473 130.321 172.408 130.256 172.327 130.256H171.368C171.287 130.256 171.222 130.321 171.222 130.402V130.861C171.222 130.942 171.287 131.007 171.368 131.007Z" fill="#3F3D56"/>
<path id="Vector_31" d="M168.866 131.007H169.825C169.906 131.007 169.971 130.942 169.971 130.861V130.402C169.971 130.321 169.906 130.256 169.825 130.256H168.866C168.785 130.256 168.72 130.321 168.72 130.402V130.861C168.72 130.942 168.785 131.007 168.866 131.007Z" fill="#3F3D56"/>
<path id="Vector_32" d="M166.364 131.007H167.323C167.404 131.007 167.469 130.942 167.469 130.861V130.402C167.469 130.321 167.404 130.256 167.323 130.256H166.364C166.284 130.256 166.218 130.321 166.218 130.402V130.861C166.218 130.942 166.284 131.007 166.364 131.007Z" fill="#3F3D56"/>
<path id="Vector_33" d="M163.862 131.007H164.821C164.902 131.007 164.967 130.942 164.967 130.861V130.402C164.967 130.321 164.902 130.256 164.821 130.256H163.862C163.782 130.256 163.716 130.321 163.716 130.402V130.861C163.716 130.942 163.782 131.007 163.862 131.007Z" fill="#3F3D56"/>
<path id="Vector_34" d="M161.36 131.007H162.32C162.4 131.007 162.465 130.942 162.465 130.861V130.402C162.465 130.321 162.4 130.256 162.32 130.256H161.36C161.28 130.256 161.214 130.321 161.214 130.402V130.861C161.214 130.942 161.28 131.007 161.36 131.007Z" fill="#3F3D56"/>
<path id="Vector_35" d="M158.858 131.007H159.818C159.898 131.007 159.963 130.942 159.963 130.861V130.402C159.963 130.321 159.898 130.256 159.818 130.256H158.858C158.778 130.256 158.712 130.321 158.712 130.402V130.861C158.712 130.942 158.778 131.007 158.858 131.007Z" fill="#3F3D56"/>
<path id="Vector_36" d="M156.356 131.007H157.316C157.396 131.007 157.461 130.942 157.461 130.861V130.402C157.461 130.321 157.396 130.256 157.316 130.256H156.356C156.276 130.256 156.21 130.321 156.21 130.402V130.861C156.21 130.942 156.276 131.007 156.356 131.007Z" fill="#3F3D56"/>
<path id="Vector_37" d="M153.854 131.007H154.814C154.894 131.007 154.959 130.942 154.959 130.861V130.402C154.959 130.321 154.894 130.256 154.814 130.256H153.854C153.774 130.256 153.708 130.321 153.708 130.402V130.861C153.708 130.942 153.774 131.007 153.854 131.007Z" fill="#3F3D56"/>
<path id="Vector_38" d="M151.352 131.007H152.312C152.392 131.007 152.458 130.942 152.458 130.861V130.402C152.458 130.321 152.392 130.256 152.312 130.256H151.352C151.272 130.256 151.207 130.321 151.207 130.402V130.861C151.207 130.942 151.272 131.007 151.352 131.007Z" fill="#3F3D56"/>
<path id="Vector_39" d="M148.85 131.007H149.81C149.89 131.007 149.956 130.942 149.956 130.861V130.402C149.956 130.321 149.89 130.256 149.81 130.256H148.85C148.77 130.256 148.705 130.321 148.705 130.402V130.861C148.705 130.942 148.77 131.007 148.85 131.007Z" fill="#3F3D56"/>
<path id="Vector_40" d="M165.614 132.509H175.33C175.41 132.509 175.476 132.443 175.476 132.363V131.904C175.476 131.823 175.41 131.758 175.33 131.758H165.614C165.533 131.758 165.468 131.823 165.468 131.904V132.363C165.468 132.443 165.533 132.509 165.614 132.509Z" fill="#3F3D56"/>
<path id="Vector_41" d="M155.319 107.196H154.47C154.213 107.196 154.004 107.405 154.004 107.663C154.004 107.92 154.213 108.129 154.47 108.129H155.319C155.577 108.129 155.786 107.92 155.786 107.663C155.786 107.405 155.577 107.196 155.319 107.196Z" fill="white"/>
<path id="Vector_42" d="M165.033 107.196H164.184C163.926 107.196 163.718 107.405 163.718 107.663C163.718 107.92 163.926 108.129 164.184 108.129H165.033C165.291 108.129 165.499 107.92 165.499 107.663C165.499 107.405 165.291 107.196 165.033 107.196Z" fill="white"/>
<path id="Vector_43" d="M167.785 107.196H166.936C166.678 107.196 166.47 107.405 166.47 107.663C166.47 107.92 166.678 108.129 166.936 108.129H167.785C168.043 108.129 168.252 107.92 168.252 107.663C168.252 107.405 168.043 107.196 167.785 107.196Z" fill="white"/>
<path id="Vector_44" d="M162.391 107.119H157.112C156.855 107.119 156.646 107.327 156.646 107.585C156.646 107.843 156.855 108.052 157.112 108.052H162.391C162.648 108.052 162.857 107.843 162.857 107.585C162.857 107.327 162.648 107.119 162.391 107.119Z" fill="white"/>
<path id="Vector_45" d="M175.343 107.119H170.064C169.806 107.119 169.598 107.327 169.598 107.585C169.598 107.843 169.806 108.052 170.064 108.052H175.343C175.6 108.052 175.809 107.843 175.809 107.585C175.809 107.327 175.6 107.119 175.343 107.119Z" fill="white"/>
<path id="Vector_46" d="M157.91 109.302H157.06C156.803 109.302 156.594 109.511 156.594 109.769C156.594 110.026 156.803 110.235 157.06 110.235H157.91C158.167 110.235 158.376 110.026 158.376 109.769C158.376 109.511 158.167 109.302 157.91 109.302Z" fill="white"/>
<path id="Vector_47" d="M167.623 109.302H166.774C166.517 109.302 166.308 109.511 166.308 109.769C166.308 110.026 166.517 110.235 166.774 110.235H167.623C167.881 110.235 168.09 110.026 168.09 109.769C168.09 109.511 167.881 109.302 167.623 109.302Z" fill="white"/>
<path id="Vector_48" d="M170.376 109.302H169.526C169.269 109.302 169.06 109.511 169.06 109.769C169.06 110.026 169.269 110.235 169.526 110.235H170.376C170.633 110.235 170.842 110.026 170.842 109.769C170.842 109.511 170.633 109.302 170.376 109.302Z" fill="white"/>
<path id="Vector_49" d="M164.981 109.225H159.703C159.445 109.225 159.236 109.433 159.236 109.691C159.236 109.949 159.445 110.158 159.703 110.158H164.981C165.239 110.158 165.448 109.949 165.448 109.691C165.448 109.433 165.239 109.225 164.981 109.225Z" fill="white"/>
<path id="Vector_50" d="M177.933 109.225H172.654C172.397 109.225 172.188 109.433 172.188 109.691C172.188 109.949 172.397 110.158 172.654 110.158H177.933C178.19 110.158 178.399 109.949 178.399 109.691C178.399 109.433 178.19 109.225 177.933 109.225Z" fill="white"/>
<path id="Vector_51" d="M160.5 111.408H159.651C159.393 111.408 159.185 111.617 159.185 111.874C159.185 112.132 159.393 112.341 159.651 112.341H160.5C160.758 112.341 160.966 112.132 160.966 111.874C160.966 111.617 160.758 111.408 160.5 111.408Z" fill="white"/>
<path id="Vector_52" d="M170.214 111.408H169.364C169.107 111.408 168.898 111.617 168.898 111.874C168.898 112.132 169.107 112.341 169.364 112.341H170.214C170.471 112.341 170.68 112.132 170.68 111.874C170.68 111.617 170.471 111.408 170.214 111.408Z" fill="white"/>
<path id="Vector_53" d="M172.966 111.408H172.117C171.859 111.408 171.65 111.617 171.65 111.874C171.65 112.132 171.859 112.341 172.117 112.341H172.966C173.223 112.341 173.432 112.132 173.432 111.874C173.432 111.617 173.223 111.408 172.966 111.408Z" fill="white"/>
<path id="Vector_54" d="M167.572 111.33H162.293C162.035 111.33 161.827 111.539 161.827 111.797C161.827 112.054 162.035 112.263 162.293 112.263H167.572C167.829 112.263 168.038 112.054 168.038 111.797C168.038 111.539 167.829 111.33 167.572 111.33Z" fill="white"/>
<path id="Vector_55" d="M180.523 111.33H175.244C174.987 111.33 174.778 111.539 174.778 111.797C174.778 112.054 174.987 112.263 175.244 112.263H180.523C180.781 112.263 180.989 112.054 180.989 111.797C180.989 111.539 180.781 111.33 180.523 111.33Z" fill="white"/>
<path id="Vector_56" d="M163.09 113.514H162.241C161.984 113.514 161.775 113.723 161.775 113.98C161.775 114.238 161.984 114.447 162.241 114.447H163.09C163.348 114.447 163.557 114.238 163.557 113.98C163.557 113.723 163.348 113.514 163.09 113.514Z" fill="white"/>
<path id="Vector_57" d="M172.804 113.514H171.955C171.697 113.514 171.489 113.723 171.489 113.98C171.489 114.238 171.697 114.447 171.955 114.447H172.804C173.062 114.447 173.27 114.238 173.27 113.98C173.27 113.723 173.062 113.514 172.804 113.514Z" fill="white"/>
<path id="Vector_58" d="M175.556 113.514H174.707C174.449 113.514 174.241 113.723 174.241 113.98C174.241 114.238 174.449 114.447 174.707 114.447H175.556C175.814 114.447 176.023 114.238 176.023 113.98C176.023 113.723 175.814 113.514 175.556 113.514Z" fill="white"/>
<path id="Vector_59" d="M170.162 113.436H164.883C164.626 113.436 164.417 113.644 164.417 113.902C164.417 114.16 164.626 114.369 164.883 114.369H170.162C170.419 114.369 170.628 114.16 170.628 113.902C170.628 113.644 170.419 113.436 170.162 113.436Z" fill="white"/>
<path id="Vector_60" d="M165.033 121.886H164.184C163.926 121.886 163.718 122.095 163.718 122.353C163.718 122.61 163.926 122.819 164.184 122.819H165.033C165.291 122.819 165.499 122.61 165.499 122.353C165.499 122.095 165.291 121.886 165.033 121.886Z" fill="white"/>
<path id="Vector_61" d="M167.785 121.886H166.936C166.678 121.886 166.47 122.095 166.47 122.353C166.47 122.61 166.678 122.819 166.936 122.819H167.785C168.043 122.819 168.252 122.61 168.252 122.353C168.252 122.095 168.043 121.886 167.785 121.886Z" fill="white"/>
<path id="Vector_62" d="M175.343 121.964H170.064C169.806 121.964 169.598 122.173 169.598 122.431C169.598 122.688 169.806 122.897 170.064 122.897H175.343C175.6 122.897 175.809 122.688 175.809 122.431C175.809 122.173 175.6 121.964 175.343 121.964Z" fill="white"/>
<path id="Vector_63" d="M155.319 121.886H154.47C154.213 121.886 154.004 122.095 154.004 122.353C154.004 122.61 154.213 122.819 154.47 122.819H155.319C155.577 122.819 155.786 122.61 155.786 122.353C155.786 122.095 155.577 121.886 155.319 121.886Z" fill="white"/>
<path id="Vector_64" d="M162.391 121.964H157.112C156.855 121.964 156.646 122.173 156.646 122.431C156.646 122.688 156.855 122.897 157.112 122.897H162.391C162.648 122.897 162.857 122.688 162.857 122.431C162.857 122.173 162.648 121.964 162.391 121.964Z" fill="white"/>
<path id="Vector_65" d="M157.91 119.781H157.06C156.803 119.781 156.594 119.99 156.594 120.247C156.594 120.505 156.803 120.714 157.06 120.714H157.91C158.167 120.714 158.376 120.505 158.376 120.247C158.376 119.99 158.167 119.781 157.91 119.781Z" fill="white"/>
<path id="Vector_66" d="M167.623 119.781H166.774C166.517 119.781 166.308 119.99 166.308 120.247C166.308 120.505 166.517 120.714 166.774 120.714H167.623C167.881 120.714 168.09 120.505 168.09 120.247C168.09 119.99 167.881 119.781 167.623 119.781Z" fill="white"/>
<path id="Vector_67" d="M170.376 119.781H169.526C169.269 119.781 169.06 119.99 169.06 120.247C169.06 120.505 169.269 120.714 169.526 120.714H170.376C170.633 120.714 170.842 120.505 170.842 120.247C170.842 119.99 170.633 119.781 170.376 119.781Z" fill="white"/>
<path id="Vector_68" d="M164.981 119.858H159.703C159.445 119.858 159.236 120.067 159.236 120.325C159.236 120.582 159.445 120.791 159.703 120.791H164.981C165.239 120.791 165.448 120.582 165.448 120.325C165.448 120.067 165.239 119.858 164.981 119.858Z" fill="white"/>
<path id="Vector_69" d="M160.5 117.675H159.651C159.393 117.675 159.185 117.884 159.185 118.142C159.185 118.399 159.393 118.608 159.651 118.608H160.5C160.758 118.608 160.966 118.399 160.966 118.142C160.966 117.884 160.758 117.675 160.5 117.675Z" fill="white"/>
<path id="Vector_70" d="M170.214 117.675H169.364C169.107 117.675 168.898 117.884 168.898 118.142C168.898 118.399 169.107 118.608 169.364 118.608H170.214C170.471 118.608 170.68 118.399 170.68 118.142C170.68 117.884 170.471 117.675 170.214 117.675Z" fill="white"/>
<path id="Vector_71" d="M172.966 117.675H172.117C171.859 117.675 171.65 117.884 171.65 118.142C171.65 118.399 171.859 118.608 172.117 118.608H172.966C173.223 118.608 173.432 118.399 173.432 118.142C173.432 117.884 173.223 117.675 172.966 117.675Z" fill="white"/>
<path id="Vector_72" d="M167.572 117.753H162.293C162.035 117.753 161.827 117.962 161.827 118.219C161.827 118.477 162.035 118.686 162.293 118.686H167.572C167.829 118.686 168.038 118.477 168.038 118.219C168.038 117.962 167.829 117.753 167.572 117.753Z" fill="white"/>
<path id="Vector_73" d="M163.09 115.569H162.241C161.984 115.569 161.775 115.778 161.775 116.036C161.775 116.293 161.984 116.502 162.241 116.502H163.09C163.348 116.502 163.557 116.293 163.557 116.036C163.557 115.778 163.348 115.569 163.09 115.569Z" fill="white"/>
<path id="Vector_74" d="M172.804 115.569H171.955C171.697 115.569 171.489 115.778 171.489 116.036C171.489 116.293 171.697 116.502 171.955 116.502H172.804C173.062 116.502 173.27 116.293 173.27 116.036C173.27 115.778 173.062 115.569 172.804 115.569Z" fill="white"/>
<path id="Vector_75" d="M175.556 115.569H174.707C174.449 115.569 174.241 115.778 174.241 116.036C174.241 116.293 174.449 116.502 174.707 116.502H175.556C175.814 116.502 176.023 116.293 176.023 116.036C176.023 115.778 175.814 115.569 175.556 115.569Z" fill="white"/>
<path id="Vector_76" d="M170.162 115.647H164.883C164.626 115.647 164.417 115.856 164.417 116.114C164.417 116.372 164.626 116.58 164.883 116.58H170.162C170.419 116.58 170.628 116.372 170.628 116.114C170.628 115.856 170.419 115.647 170.162 115.647Z" fill="white"/>
<path id="Vector_77" d="M150.804 146.564L146.817 140.258L159.332 130.277L164.497 124.551C165.169 123.807 166.023 123.253 166.975 122.943C167.928 122.633 168.945 122.579 169.925 122.785C170.905 122.992 171.814 123.452 172.561 124.12C173.307 124.788 173.866 125.64 174.18 126.592C174.645 128.002 174.545 129.537 173.9 130.875C173.256 132.213 172.117 133.247 170.724 133.761L162.556 136.771L150.804 146.564Z" fill="#FFB6B6"/>
<path id="Vector_78" d="M57.2522 100.845V131.492H78.7117V100.845C78.712 100.625 78.6417 100.41 78.5111 100.232C78.3805 100.055 78.1964 99.924 77.9859 99.8589C77.8867 99.8261 77.7828 99.81 77.6783 99.8111H58.2886C58.1527 99.8108 58.018 99.8374 57.8924 99.8892C57.7667 99.941 57.6525 100.017 57.5562 100.113C57.46 100.209 57.3836 100.323 57.3314 100.449C57.2792 100.574 57.2523 100.709 57.2522 100.845ZM65.6269 111.375C65.6325 110.771 65.8763 110.194 66.3053 109.768C66.7343 109.343 67.3138 109.105 67.9177 109.105C68.5216 109.105 69.1011 109.343 69.5301 109.768C69.9591 110.194 70.2029 110.771 70.2085 111.375V114.931C70.2054 115.537 69.9627 116.117 69.5334 116.544C69.1042 116.972 68.5233 117.211 67.9177 117.211C67.3122 117.211 66.7313 116.972 66.302 116.544C65.8727 116.117 65.63 115.537 65.6269 114.931V111.375Z" fill="#2F2E41"/>
<path id="Vector_79" d="M57.1865 130.511V133.467C57.187 133.62 57.2478 133.766 57.3557 133.875C57.4636 133.983 57.61 134.045 57.763 134.046H78.201C78.3542 134.045 78.5008 133.984 78.6088 133.875C78.7168 133.767 78.7774 133.62 78.7774 133.467V130.511H57.1865Z" fill="#3F3D56"/>
<path id="Vector_80" d="M23.4934 54.6717V110.628C23.494 111.341 23.7774 112.025 24.2813 112.529C24.7853 113.033 25.4687 113.317 26.1814 113.317H109.063C109.775 113.317 110.459 113.033 110.963 112.529C111.467 112.025 111.75 111.341 111.751 110.628V54.6717C111.749 53.9592 111.465 53.2765 110.961 52.773C110.457 52.2695 109.775 51.9863 109.063 51.9854H26.1814C25.4693 51.9863 24.7866 52.2695 24.2828 52.773C23.7789 53.2765 23.4951 53.9592 23.4934 54.6717Z" fill="#3F3D56"/>
<path id="Vector_81" d="M25.4377 55.368V109.938C25.4384 110.319 25.59 110.684 25.8592 110.953C26.1285 111.223 26.4935 111.375 26.8743 111.375H108.373C108.753 111.375 109.118 111.223 109.388 110.953C109.657 110.684 109.809 110.319 109.809 109.938V55.368C109.809 54.9866 109.658 54.6207 109.389 54.3507C109.119 54.0807 108.754 53.9286 108.373 53.9277H26.8743C26.4931 53.9286 26.1277 54.0807 25.8584 54.3507C25.5891 54.6207 25.4378 54.9866 25.4377 55.368Z" fill="white"/>
<path id="Vector_82" d="M40.5624 133.846C40.6454 133.95 40.7508 134.034 40.8708 134.091C40.9908 134.149 41.1223 134.178 41.2553 134.178H89.7415C89.8741 134.177 90.005 134.148 90.1247 134.091C90.2444 134.033 90.3498 133.95 90.4333 133.847C90.5169 133.744 90.5764 133.624 90.6076 133.495C90.6388 133.366 90.6408 133.232 90.6136 133.102L89.861 129.525C89.8298 129.379 89.7626 129.243 89.6656 129.13C89.5686 129.017 89.4448 128.93 89.3055 128.877C89.2046 128.837 89.0972 128.817 88.9889 128.817H42.005C41.8967 128.817 41.7893 128.837 41.6884 128.877C41.5491 128.93 41.4253 129.017 41.3283 129.13C41.2312 129.243 41.1641 129.379 41.1329 129.525L40.3802 133.102C40.3535 133.232 40.3559 133.366 40.3874 133.494C40.4189 133.623 40.4787 133.743 40.5624 133.846Z" fill="#2F2E41"/>
<path id="Vector_83" d="M105.728 61.4447H29.4702C29.3909 61.4429 29.3155 61.4102 29.2601 61.3535C29.2046 61.2968 29.1736 61.2206 29.1736 61.1413C29.1736 61.062 29.2046 60.9858 29.2601 60.9291C29.3155 60.8724 29.3909 60.8397 29.4702 60.8379H105.728C105.807 60.8397 105.882 60.8724 105.938 60.9291C105.993 60.9858 106.024 61.062 106.024 61.1413C106.024 61.2206 105.993 61.2968 105.938 61.3535C105.882 61.4102 105.807 61.4429 105.728 61.4447Z" fill="#3F3D56"/>
<path id="Vector_84" d="M34.661 59.2887C35.6425 59.2887 36.4382 58.4749 36.4382 57.471C36.4382 56.4671 35.6425 55.6533 34.661 55.6533C33.6795 55.6533 32.8838 56.4671 32.8838 57.471C32.8838 58.4749 33.6795 59.2887 34.661 59.2887Z" fill="#3F3D56"/>
<path id="Vector_85" d="M40.8007 59.2887C41.7822 59.2887 42.5779 58.4749 42.5779 57.471C42.5779 56.4671 41.7822 55.6533 40.8007 55.6533C39.8191 55.6533 39.0234 56.4671 39.0234 57.471C39.0234 58.4749 39.8191 59.2887 40.8007 59.2887Z" fill="#3F3D56"/>
<path id="Vector_86" d="M46.9401 59.2887C47.9216 59.2887 48.7173 58.4749 48.7173 57.471C48.7173 56.4671 47.9216 55.6533 46.9401 55.6533C45.9585 55.6533 45.1628 56.4671 45.1628 57.471C45.1628 58.4749 45.9585 59.2887 46.9401 59.2887Z" fill="#3F3D56"/>
<path id="Vector_87" d="M102.031 56.103H97.6701C97.5839 56.105 97.5019 56.1407 97.4416 56.2024C97.3814 56.2641 97.3477 56.3469 97.3477 56.4332C97.3477 56.5195 97.3814 56.6023 97.4416 56.664C97.5019 56.7257 97.5839 56.7614 97.6701 56.7634H102.031C102.117 56.7622 102.2 56.7269 102.261 56.6651C102.322 56.6033 102.356 56.52 102.356 56.4332C102.356 56.3464 102.322 56.2632 102.261 56.2014C102.2 56.1396 102.117 56.1043 102.031 56.103Z" fill="#3F3D56"/>
<path id="Vector_88" d="M102.031 57.3433H97.6702C97.584 57.3452 97.5019 57.3808 97.4415 57.4425C97.3812 57.5042 97.3474 57.5871 97.3474 57.6735C97.3474 57.7598 97.3812 57.8427 97.4415 57.9044C97.5019 57.9661 97.584 58.0017 97.6702 58.0036H102.031C102.118 58.0026 102.201 57.9673 102.262 57.9055C102.323 57.8437 102.357 57.7603 102.357 57.6735C102.357 57.5866 102.323 57.5032 102.262 57.4414C102.201 57.3796 102.118 57.3443 102.031 57.3433Z" fill="#3F3D56"/>
<path id="Vector_89" d="M102.031 58.583H97.6701C97.5839 58.585 97.5019 58.6207 97.4416 58.6824C97.3814 58.7441 97.3477 58.8269 97.3477 58.9132C97.3477 58.9995 97.3814 59.0823 97.4416 59.144C97.5019 59.2057 97.5839 59.2414 97.6701 59.2434H102.031C102.117 59.2422 102.2 59.2068 102.261 59.145C102.322 59.0833 102.356 59 102.356 58.9132C102.356 58.8264 102.322 58.7431 102.261 58.6813C102.2 58.6196 102.117 58.5842 102.031 58.583Z" fill="#3F3D56"/>
<path id="Vector_90" d="M207.157 131.808C207.288 132.192 207.538 132.523 207.87 132.756C208.201 132.988 208.598 133.11 209.003 133.102L216.916 132.899C217.324 132.891 217.718 132.751 218.04 132.5C218.362 132.249 218.594 131.901 218.702 131.507L219.822 119.528C220.219 119.708 220.651 119.797 221.087 119.789C221.466 119.779 221.84 119.695 222.186 119.541C222.532 119.387 222.845 119.167 223.106 118.892C223.367 118.617 223.572 118.294 223.708 117.94C223.844 117.586 223.909 117.209 223.9 116.83C223.89 116.451 223.806 116.078 223.652 115.731C223.499 115.385 223.278 115.072 223.004 114.811C222.729 114.549 222.406 114.345 222.052 114.208C221.698 114.072 221.321 114.007 220.943 114.016C220.768 114.016 220.594 114.034 220.424 114.07C220.239 113.87 220.013 113.71 219.763 113.602C219.512 113.494 219.241 113.439 218.968 113.442L206.797 113.756C206.696 113.76 206.596 113.773 206.497 113.794C206.23 113.844 205.977 113.95 205.755 114.106C205.532 114.262 205.346 114.463 205.208 114.697C205.07 114.931 204.984 115.192 204.955 115.462C204.927 115.732 204.956 116.006 205.042 116.263L207.157 131.808ZM220.051 118.715L220.848 115.861C220.939 115.531 220.941 115.183 220.854 114.852C220.893 114.852 220.927 114.834 220.966 114.834C221.512 114.822 222.04 115.028 222.435 115.406C222.83 115.784 223.059 116.303 223.072 116.85C223.084 117.396 222.88 117.926 222.503 118.322C222.127 118.718 221.608 118.948 221.062 118.962C220.709 118.973 220.36 118.888 220.051 118.715Z" fill="#2F2E41"/>
<path id="Vector_91" d="M206.497 113.794C206.756 115.277 209.672 116.32 213.177 116.138C216.401 115.99 219.036 114.857 219.519 113.515C219.34 113.462 219.155 113.438 218.968 113.442L206.797 113.756C206.696 113.76 206.596 113.773 206.497 113.794Z" fill="#3F3D56"/>
<path id="Vector_92" d="M213.82 125.226C213.836 125.222 213.851 125.215 213.865 125.206L215.583 124.081C215.604 124.067 215.621 124.049 215.633 124.027C215.644 124.005 215.651 123.981 215.651 123.956C215.651 123.931 215.644 123.907 215.633 123.885C215.621 123.863 215.604 123.844 215.583 123.831L213.797 122.661C213.781 122.65 213.762 122.642 213.743 122.638C213.724 122.635 213.704 122.635 213.685 122.639C213.665 122.643 213.647 122.651 213.631 122.662C213.615 122.673 213.601 122.687 213.59 122.703C213.579 122.72 213.572 122.738 213.568 122.757C213.564 122.777 213.565 122.797 213.569 122.816C213.573 122.835 213.58 122.853 213.592 122.87C213.603 122.886 213.617 122.9 213.633 122.91L215.229 123.956L213.701 124.956C213.672 124.975 213.65 125.005 213.64 125.038C213.63 125.072 213.632 125.109 213.646 125.141C213.66 125.173 213.686 125.2 213.717 125.215C213.749 125.231 213.785 125.235 213.82 125.226Z" fill="#6C63FF"/>
<path id="Vector_93" d="M211.106 125.351C211.134 125.344 211.16 125.328 211.18 125.306C211.2 125.284 211.213 125.256 211.217 125.226C211.221 125.197 211.216 125.167 211.203 125.14C211.19 125.114 211.169 125.091 211.143 125.077L209.559 124.168L211.09 123.03C211.106 123.019 211.119 123.004 211.129 122.987C211.139 122.97 211.146 122.952 211.149 122.932C211.152 122.913 211.151 122.893 211.146 122.874C211.141 122.855 211.133 122.837 211.121 122.821C211.109 122.806 211.095 122.792 211.078 122.782C211.061 122.772 211.042 122.766 211.023 122.763C211.004 122.76 210.984 122.761 210.965 122.766C210.946 122.771 210.928 122.779 210.912 122.791L209.198 124.064C209.178 124.079 209.162 124.099 209.152 124.121C209.141 124.144 209.137 124.168 209.138 124.193C209.14 124.218 209.147 124.242 209.16 124.263C209.173 124.284 209.191 124.302 209.213 124.314L210.995 125.336C211.028 125.355 211.068 125.361 211.106 125.351Z" fill="#6C63FF"/>
<path id="Vector_94" d="M213.649 126.212C213.663 126.208 213.677 126.202 213.689 126.195C213.706 126.184 213.721 126.171 213.732 126.155C213.744 126.139 213.752 126.121 213.757 126.102C213.762 126.083 213.763 126.063 213.76 126.044C213.757 126.025 213.75 126.006 213.74 125.989L211.304 121.983C211.283 121.949 211.25 121.925 211.211 121.915C211.173 121.906 211.132 121.912 211.099 121.933C211.065 121.954 211.04 121.987 211.031 122.025C211.022 122.064 211.028 122.104 211.049 122.138L213.484 126.145C213.501 126.172 213.526 126.193 213.555 126.205C213.585 126.217 213.618 126.22 213.649 126.212Z" fill="#6C63FF"/>
<path id="Vector_95" d="M76.7105 77.9395H63.512C62.9736 77.9395 62.5371 78.3762 62.5371 78.9148V80.2049C62.5371 80.7436 62.9736 81.1803 63.512 81.1803H76.7105C77.249 81.1803 77.6854 80.7436 77.6854 80.2049V78.9148C77.6854 78.3762 77.249 77.9395 76.7105 77.9395Z" fill="#6C63FF"/>
<path id="Vector_96" d="M84.4038 84.4214H55.8187C55.2802 84.4214 54.8438 84.8581 54.8438 85.3968V86.6869C54.8438 87.2256 55.2802 87.6623 55.8187 87.6623H84.4038C84.9422 87.6623 85.3787 87.2256 85.3787 86.6869V85.3968C85.3787 84.8581 84.9422 84.4214 84.4038 84.4214Z" fill="#E6E6E6"/>
<path id="Vector_97" d="M84.4038 90.9028H55.8187C55.2802 90.9028 54.8438 91.3395 54.8438 91.8782V93.1683C54.8438 93.707 55.2802 94.1437 55.8187 94.1437H84.4038C84.9422 94.1437 85.3787 93.707 85.3787 93.1683V91.8782C85.3787 91.3395 84.9422 90.9028 84.4038 90.9028Z" fill="#E6E6E6"/>
<path id="Vector_98" d="M86.8269 112.608L86.8916 112.812L86.895 112.819L88.8439 118.747L91.0858 125.578L95.3039 138.416L95.3447 140.41V140.417L95.6582 156.459L94.7894 158.633L95.7672 162.199C95.7672 162.199 95.3175 156.809 92.9052 159.904C91.539 161.663 89.941 163.463 88.6293 165.151C90.5407 165.924 92.4828 166.624 94.4555 167.25C94.8814 167.387 95.3107 167.516 95.74 167.646C95.832 167.673 95.924 167.7 96.016 167.728C102.555 169.662 109.316 170.75 116.132 170.963C116.486 170.973 116.834 170.98 117.171 170.986C117.29 170.99 117.406 170.993 117.522 170.993C117.903 170.997 118.282 171 118.663 171C119.433 171 120.2 170.989 120.963 170.966C126.612 170.807 132.228 170.047 137.716 168.699C137.678 166.432 137.576 163.784 137.43 160.954C137.362 159.567 135.832 158.064 135.74 156.611C135.675 155.521 137.048 154.495 136.977 153.387C136.513 146.566 135.934 149.184 135.505 144.354C135.46 143.88 135.419 143.427 135.382 142.994C135.106 139.892 134.915 137.952 134.915 137.952L136.748 126.393L139.627 108.244L139.406 107.88L139.157 107.757L123.971 100.237L123.147 98.1237C122.907 97.5149 122.49 96.9918 121.95 96.6219C121.41 96.2519 120.772 96.052 120.118 96.0478L110.115 96.0069C109.596 96.0045 109.083 96.1261 108.621 96.3614C108.158 96.5968 107.758 96.9392 107.454 97.3602L104.745 101.113L86.8269 112.608Z" fill="#3F3D56"/>
<path id="Vector_99" d="M97.6105 135.559L95.3447 140.41L93.7979 143.723L91.1369 157.662L89.8047 159.076L88.6633 154.069L76.7172 156.722C76.3253 154.544 76.6123 156.796 76.3704 154.406C76.4385 154.338 76.51 154.27 76.5816 154.202C76.7724 154.025 76.9325 153.858 76.9291 153.697C76.7928 145.455 77.2017 131.428 80.6157 122.93C81.1503 121.542 81.8553 120.226 82.7144 119.013C82.7826 118.921 82.8473 118.829 82.9121 118.737C84.4862 116.531 85.481 114.36 86.8916 112.816V112.812C86.9004 112.805 86.9084 112.797 86.9155 112.788C86.9206 112.786 86.9252 112.782 86.9291 112.778L96.619 107.638L97.0346 119.323L97.3311 127.722L97.6105 135.559Z" fill="#3F3D56"/>
<path id="Vector_100" d="M132.551 136.937L135.381 142.995L136.369 145.105L139.029 159.043L140.357 160.454L141.501 155.447L142.038 155.337L151.733 153.328L154.558 162.306C155.195 161.245 155.446 159.996 155.268 158.77C155.091 157.545 154.496 156.418 153.584 155.581C153.391 155.407 153.23 155.237 153.235 155.076C153.396 145.381 152.803 127.679 147.45 120.393C145.751 118.081 144.731 115.778 143.247 114.169C143.242 114.165 143.242 114.16 143.237 114.16L139.626 108.244L139.406 107.881L139.157 107.757L132.551 136.937Z" fill="#3F3D56"/>
<path id="Ellipse 5" d="M115.405 93.1588C122.755 93.1588 128.713 87.1976 128.713 79.844C128.713 72.4905 122.755 66.5293 115.405 66.5293C108.055 66.5293 102.097 72.4905 102.097 79.844C102.097 87.1976 108.055 93.1588 115.405 93.1588Z" fill="#FFB6B6"/>
<path id="Vector_101" d="M133.393 70.5435C133.29 70.4332 133.166 70.3449 133.027 70.2838C132.889 70.2227 132.74 70.1901 132.59 70.1879L132.79 69.6321C132.855 69.457 132.873 69.2678 132.841 69.0836C132.809 68.8995 132.729 68.7272 132.608 68.5843C132.488 68.4414 132.332 68.333 132.156 68.2704C131.98 68.2077 131.79 68.193 131.607 68.2277L130.878 68.3681L130.947 67.881C130.973 67.6996 130.952 67.5145 130.885 67.3438C130.818 67.1732 130.708 67.0229 130.566 66.9077C130.423 66.7925 130.253 66.7164 130.072 66.687C129.891 66.6575 129.706 66.6756 129.534 66.7396C129.378 66.8011 129.21 66.8268 129.043 66.8149C128.875 66.8031 128.712 66.7538 128.566 66.6708C128.42 66.5904 128.293 66.4789 128.194 66.3442C128.095 66.2095 128.026 66.0548 127.993 65.8909L127.739 64.6658L127.712 64.6C126.476 62.5382 124.098 61.0381 121.189 60.4883C118.6 59.9953 115.945 60.2463 113.385 60.4823C112.37 60.578 111.223 60.6855 110.267 61.2712C109.455 61.7732 108.768 62.7773 108.908 63.7902C106.384 63.0163 103.678 64.5612 102.337 66.5095C100.748 68.8283 100.488 71.7328 100.447 74.0038C100.333 79.3765 101.441 83.7721 103.732 87.071C103.899 87.3101 103.941 87.8091 104.273 87.9764L104.204 87.8659C104.574 88.0511 104.951 88.35 104.81 88.6697C104.407 89.59 107.086 91.625 108.974 92.2973C112.417 93.5255 116.996 93.4209 120.216 92.9786L120.329 92.2166C121.491 92.0583 122.309 91.7565 122.539 91.2843C122.945 90.9377 123.292 90.6269 123.594 90.3401L123.597 90.3371C123.603 90.3311 123.615 90.3221 123.62 90.3162C125.075 88.9207 125.413 88.1259 125.565 86.9157C125.711 85.7294 125.451 84.5251 125.186 83.4404C130.783 84.307 122.981 77.476 128.196 76.1553C128.256 76.1368 128.317 76.1219 128.378 76.1105C128.531 76.0746 128.683 76.0387 128.829 75.9969C129.535 75.8053 130.21 75.5167 130.836 75.1393C132.294 74.2518 132.775 73.0745 133.527 71.7477C133.636 71.5588 133.682 71.3402 133.657 71.1236C133.633 70.907 133.541 70.7038 133.393 70.5435Z" fill="#2F2E41"/>
<path id="Vector_102" d="M162.474 137.885C162.471 138.408 162.466 139.14 162.442 140.045C162.439 140.171 162.436 140.299 162.433 140.431C162.394 142.095 162.355 143.491 162.292 145.041C162.289 145.149 162.286 145.254 162.28 145.361C162.197 147.525 162.065 150.044 161.838 154.033C161.417 161.402 160.682 155.046 159.945 157.631C159.909 157.759 159.87 157.911 159.834 158.091C159.723 158.741 159.534 159.376 159.273 159.982C158.881 160.215 158.478 160.439 158.081 160.664C156.949 161.294 155.799 161.901 154.64 162.477C153.989 162.8 153.335 163.117 152.678 163.422C152.574 163.469 152.472 163.517 152.37 163.562C149.006 165.119 145.538 166.443 141.992 167.524C141.299 167.734 140.609 167.937 139.91 168.125C139.181 168.328 138.452 168.519 137.715 168.699C132.227 170.047 126.611 170.807 120.962 170.967C120.201 170.991 119.433 171 118.663 171C118.28 171 117.904 170.997 117.522 170.994C117.405 170.994 117.289 170.991 117.172 170.988C116.835 170.979 116.485 170.973 116.133 170.964C109.317 170.751 102.556 169.663 96.0173 167.728L95.7395 167.647C95.3095 167.515 94.8824 167.387 94.4553 167.249C92.484 166.625 90.5417 165.926 88.6282 165.152C87.1677 164.563 85.7241 163.932 84.2975 163.257C84.2844 163.254 84.2722 163.248 84.2616 163.239C83.9629 163.102 83.6613 162.958 83.3626 162.812C83.3238 162.791 83.282 162.77 83.2402 162.749C82.1261 162.205 81.024 161.636 79.9339 161.04C79.017 158.933 77.7267 158.53 76.9263 156.677C76.6933 156.127 76.5249 155.551 76.4245 154.962C76.4245 154.956 76.4215 154.95 76.4215 154.941C76.5051 156.053 76.0661 152.969 76.4185 154.929C76.4155 154.893 76.4126 154.855 76.4096 154.81C76.4006 154.702 76.3887 154.571 76.3708 154.406C75.3463 144.399 75.412 132.954 74.967 123.524C74.9371 122.914 74.9063 122.33 74.8744 121.773C74.8655 121.587 74.8535 121.405 74.8416 121.226C74.8625 121.172 74.8864 121.115 74.9132 121.061C74.919 121.046 74.9259 121.031 74.9341 121.017C74.9429 120.998 74.9529 120.98 74.964 120.963C74.97 120.954 74.9789 120.942 74.9849 120.933C74.9893 120.923 74.9943 120.913 74.9998 120.903C75.0267 120.861 75.0566 120.816 75.0894 120.775C75.1044 120.757 75.1163 120.742 75.1313 120.727C75.1416 120.711 75.1536 120.697 75.1671 120.685C75.1763 120.671 75.1873 120.657 75.2 120.646C75.2119 120.634 75.2238 120.619 75.2388 120.604C75.2452 120.595 75.2533 120.587 75.2627 120.58C75.2863 120.553 75.3123 120.528 75.3403 120.506C75.4469 120.408 75.5607 120.318 75.6808 120.237C75.7226 120.21 75.7674 120.183 75.8092 120.153C76.1102 119.973 76.4272 119.821 76.756 119.699C76.8695 119.657 76.983 119.618 77.1055 119.576C77.1503 119.564 77.1921 119.549 77.2369 119.534C77.3026 119.514 77.3683 119.493 77.437 119.478C77.7775 119.376 78.1448 119.289 78.5421 119.209C78.5899 119.2 78.6406 119.191 78.6914 119.179C78.7631 119.164 78.8378 119.152 78.9124 119.14C79.014 119.122 79.1185 119.104 79.223 119.086C80.1101 118.946 81.1166 118.841 82.2277 118.773C82.3322 118.767 82.4367 118.761 82.5413 118.755C82.6637 118.749 82.7862 118.743 82.9116 118.737C83.0162 118.731 83.1237 118.728 83.2312 118.725C83.3357 118.719 83.4433 118.716 83.5538 118.713C83.8554 118.704 84.166 118.695 84.4826 118.689C85.3846 118.671 86.3344 118.677 87.332 118.698C87.7949 118.71 88.2668 118.722 88.7506 118.743C88.7835 118.743 88.8134 118.746 88.8432 118.746C89.2644 118.761 89.6885 118.778 90.1245 118.802C90.4292 118.817 90.7368 118.832 91.0444 118.85C91.3341 118.868 91.6268 118.886 91.9225 118.907C92.1525 118.919 92.3825 118.937 92.6154 118.952C92.8125 118.967 93.0097 118.982 93.2068 118.994L93.4756 119.012C93.6219 119.024 93.7683 119.032 93.9176 119.047C94.2462 119.074 94.5747 119.101 94.9092 119.128C95.2407 119.158 95.5782 119.188 95.9157 119.218C96.2532 119.248 96.5937 119.281 96.9342 119.313C96.97 119.316 97.0029 119.319 97.0358 119.322C97.3464 119.355 97.657 119.385 97.9706 119.418C98.0423 119.424 98.1169 119.43 98.1886 119.439C98.4876 119.469 98.7924 119.504 99.0942 119.536C99.1868 119.546 99.2789 119.556 99.3718 119.566C99.6081 119.592 99.8412 119.614 100.079 119.642C100.393 119.678 100.712 119.711 101.023 119.753C101.265 119.78 101.507 119.806 101.749 119.836C102.128 119.881 102.513 119.929 102.899 119.98C103.045 119.998 103.191 120.016 103.338 120.037C104.437 120.174 105.548 120.326 106.677 120.485C108.388 120.727 110.126 120.99 111.877 121.274C113.63 121.557 115.393 121.857 117.166 122.173C117.614 122.254 118.062 122.334 118.513 122.418C118.716 122.457 118.919 122.496 119.122 122.535C119.469 122.597 119.815 122.663 120.162 122.729C120.508 122.795 120.855 122.86 121.201 122.929C121.613 123.01 122.028 123.09 122.441 123.171C125.156 123.709 127.856 124.283 130.49 124.883C130.923 124.982 131.356 125.084 131.786 125.182C132.646 125.382 133.498 125.586 134.343 125.792C134.576 125.845 134.806 125.902 135.036 125.959C135.609 126.102 136.182 126.246 136.747 126.392L136.846 126.419C137.261 126.521 137.667 126.625 138.073 126.733C139.032 126.984 139.975 127.238 140.901 127.495C141.517 127.665 142.125 127.838 142.726 128.012C143.625 128.272 144.506 128.535 145.364 128.801C145.576 128.867 145.788 128.932 145.997 128.995C146.624 129.189 147.242 129.386 147.843 129.584C148.32 129.739 148.786 129.897 149.246 130.056C149.706 130.214 150.157 130.373 150.599 130.531C150.883 130.633 151.164 130.74 151.445 130.842C151.848 130.991 152.245 131.141 152.633 131.29C152.753 131.335 152.869 131.383 152.986 131.427C153.06 131.46 153.132 131.487 153.204 131.517C153.344 131.574 153.487 131.628 153.625 131.684C153.765 131.738 153.903 131.795 154.04 131.855C154.174 131.908 154.312 131.965 154.443 132.022C154.578 132.076 154.709 132.133 154.84 132.192C154.951 132.237 155.058 132.285 155.163 132.333C155.375 132.425 155.587 132.518 155.793 132.614C155.895 132.661 155.996 132.706 156.098 132.754L156.331 132.862C156.364 132.88 156.397 132.895 156.429 132.909C156.504 132.945 156.582 132.984 156.656 133.02C156.83 133.101 157 133.187 157.167 133.268C157.391 133.382 157.609 133.495 157.818 133.606C158.03 133.719 158.236 133.833 158.433 133.943C158.466 133.961 158.496 133.979 158.529 133.997C158.574 134.021 158.619 134.048 158.663 134.072C158.816 134.159 158.962 134.248 159.108 134.335C159.395 134.511 159.667 134.684 159.921 134.858C159.978 134.897 160.031 134.935 160.088 134.971C160.276 135.106 160.455 135.237 160.623 135.372C160.623 135.375 160.623 135.375 160.626 135.375C160.682 135.417 160.736 135.461 160.79 135.503C160.835 135.545 160.883 135.581 160.927 135.623C161.083 135.757 161.226 135.886 161.357 136.017C161.401 136.058 161.443 136.101 161.483 136.146C161.5 136.16 161.516 136.176 161.531 136.193C161.59 136.253 161.644 136.313 161.695 136.373C161.703 136.381 161.71 136.39 161.716 136.4C161.788 136.483 161.853 136.567 161.916 136.651C161.946 136.692 161.979 136.734 162.006 136.776C162.041 136.827 162.077 136.881 162.107 136.932C162.134 136.973 162.158 137.018 162.182 137.06C162.245 137.168 162.299 137.281 162.343 137.398C162.377 137.477 162.404 137.559 162.424 137.643C162.446 137.722 162.463 137.803 162.474 137.885Z" fill="#2F2E41"/>
<path id="Vector_103" opacity="0.2" d="M162.475 137.885C162.472 138.408 162.466 139.14 162.442 140.045C162.439 140.171 162.433 140.299 162.43 140.431C162.4 141.701 162.355 143.27 162.292 145.042C162.289 145.149 162.286 145.254 162.28 145.361C162.197 147.525 162.065 150.044 161.838 154.033C161.417 161.402 160.683 155.046 159.945 157.631C157.896 156.37 155.65 155.049 153.249 153.692C152.816 153.447 152.378 153.201 151.937 152.954C147.135 150.274 141.771 147.465 136.171 144.683C135.95 144.572 135.726 144.462 135.505 144.354C122.677 138.01 108.675 131.84 97.3315 127.722C95.1423 126.927 93.0516 126.21 91.0863 125.58C86.9467 124.256 83.3687 123.33 80.6149 122.929C77.7477 122.511 75.7675 122.66 74.9671 123.524C74.9372 122.914 74.9063 122.331 74.8745 121.773C74.8625 121.587 74.8506 121.405 74.8386 121.226C74.8571 121.177 74.881 121.13 74.9042 121.082C74.9075 121.076 74.9099 121.068 74.9133 121.062C74.919 121.046 74.926 121.031 74.9342 121.017C74.943 120.998 74.953 120.98 74.9641 120.963C74.9738 120.942 74.9858 120.922 74.9999 120.903C75.0268 120.861 75.0567 120.817 75.0895 120.775C75.1137 120.743 75.1396 120.713 75.1672 120.685C75.1763 120.671 75.1874 120.658 75.2 120.646C75.212 120.634 75.2239 120.619 75.2388 120.604C75.2452 120.595 75.2533 120.587 75.2627 120.58C75.2864 120.553 75.3124 120.528 75.3404 120.506C75.447 120.408 75.5608 120.318 75.6809 120.237C75.7227 120.21 75.7675 120.183 75.8093 120.153C76.1103 119.973 76.4272 119.821 76.7561 119.699C76.8696 119.657 76.9831 119.618 77.1055 119.576C77.1503 119.564 77.1921 119.55 77.2369 119.535C77.3027 119.514 77.3684 119.493 77.4371 119.478C77.7775 119.376 78.1449 119.29 78.5421 119.209C78.6616 119.185 78.7871 119.161 78.9125 119.14C79.014 119.122 79.1186 119.104 79.2231 119.086C80.1102 118.946 81.1167 118.841 82.2277 118.773C82.3323 118.767 82.4368 118.761 82.5413 118.755C82.6638 118.749 82.7862 118.743 82.9117 118.737C83.0162 118.731 83.1237 118.728 83.2313 118.725C83.3358 118.719 83.4433 118.716 83.5538 118.713C83.8555 118.704 84.1661 118.695 84.4827 118.689C85.3847 118.674 86.3345 118.68 87.332 118.701C87.795 118.71 88.2669 118.725 88.7507 118.746C88.7806 118.746 88.8134 118.749 88.8433 118.749C89.2644 118.761 89.6915 118.782 90.1246 118.803C90.4292 118.817 90.7369 118.832 91.0445 118.85C91.3342 118.868 91.6269 118.886 91.9226 118.907C92.1526 118.919 92.3825 118.937 92.6155 118.952C92.8126 118.967 93.0097 118.982 93.2069 118.994C93.4428 119.012 93.6788 119.03 93.9177 119.048C94.2462 119.074 94.5748 119.101 94.9093 119.128C95.2408 119.158 95.5783 119.188 95.9158 119.218C96.2533 119.248 96.5938 119.281 96.9343 119.313C96.9701 119.316 97.003 119.319 97.0358 119.322C97.3464 119.355 97.6571 119.385 97.9707 119.418C99.7089 119.594 101.498 119.801 103.338 120.037C104.437 120.177 105.55 120.327 106.677 120.488C108.388 120.73 110.127 120.993 111.877 121.274C113.63 121.558 115.393 121.857 117.166 122.173C117.614 122.254 118.062 122.335 118.513 122.418C119.063 122.52 119.612 122.623 120.162 122.729C120.508 122.795 120.855 122.86 121.201 122.929C121.613 123.01 122.029 123.091 122.441 123.171C125.156 123.709 127.856 124.283 130.49 124.883C130.923 124.982 131.356 125.084 131.786 125.182C132.646 125.382 133.499 125.586 134.343 125.792C134.576 125.849 134.806 125.905 135.036 125.962C135.612 126.106 136.183 126.249 136.747 126.392V126.395C136.78 126.401 136.813 126.41 136.846 126.419C137.258 126.524 137.667 126.629 138.073 126.736C139.032 126.987 139.975 127.24 140.902 127.495C141.517 127.668 142.126 127.839 142.726 128.012C143.625 128.275 144.507 128.538 145.364 128.801C145.576 128.867 145.788 128.932 145.997 128.995C146.624 129.192 147.239 129.389 147.843 129.584C148.321 129.739 148.786 129.898 149.246 130.056C149.706 130.214 150.157 130.373 150.599 130.531C150.886 130.633 151.167 130.737 151.445 130.839C151.851 130.988 152.245 131.138 152.633 131.29C152.753 131.335 152.869 131.383 152.986 131.428C153.204 131.511 153.416 131.598 153.625 131.684C153.765 131.738 153.903 131.795 154.04 131.855C154.174 131.909 154.312 131.965 154.443 132.022C154.578 132.076 154.709 132.133 154.841 132.192C154.951 132.237 155.059 132.285 155.163 132.333C155.375 132.426 155.587 132.518 155.793 132.614C155.895 132.662 155.996 132.706 156.098 132.754L156.331 132.862C156.364 132.88 156.397 132.895 156.429 132.91C156.683 133.029 156.928 133.149 157.167 133.268C157.391 133.382 157.609 133.495 157.818 133.606C158.066 133.737 158.302 133.866 158.529 133.997C158.574 134.021 158.619 134.048 158.664 134.072C158.816 134.159 158.962 134.248 159.109 134.335C159.395 134.511 159.667 134.685 159.921 134.858C160.172 135.031 160.405 135.202 160.623 135.372C160.623 135.375 160.623 135.375 160.626 135.375C160.73 135.459 160.832 135.542 160.927 135.623C161.083 135.757 161.226 135.886 161.358 136.017C161.402 136.058 161.443 136.101 161.483 136.146C161.5 136.16 161.516 136.176 161.531 136.194C161.593 136.262 161.656 136.331 161.716 136.4C161.788 136.483 161.853 136.567 161.916 136.651C161.946 136.693 161.979 136.734 162.006 136.776C162.041 136.827 162.077 136.881 162.107 136.932C162.134 136.974 162.158 137.018 162.182 137.06C162.245 137.168 162.299 137.281 162.343 137.398C162.376 137.477 162.403 137.559 162.424 137.643C162.446 137.722 162.463 137.803 162.475 137.885Z" fill="black"/>
</g>
<defs>
<clipPath id="clip0_145_231">
<rect width="235" height="171" fill="white"/>
</clipPath>
</defs>
</svg>
