<svg width="204" height="199" viewBox="0 0 204 199" fill="none" xmlns="http://www.w3.org/2000/svg">
<g id="undraw_designer_re_5v95 1" clip-path="url(#clip0_196_53)">
<path id="Vector" d="M191.925 55.3985C190.015 51.9577 187.896 48.6369 185.58 45.4547C183.957 43.2221 182.242 41.0641 180.436 38.9805H180.431C177.162 35.2086 173.606 31.694 169.796 28.4678C169.016 27.8064 168.226 27.1585 167.425 26.5242C160.195 20.7803 152.178 16.1019 143.618 12.6318L143.694 25.1238L144.513 167.525H73.5192L69.5266 25.3925L69.824 13.1C35.0179 27.7193 10.5789 62.0919 10.5789 102.167C10.5724 110.439 11.6291 118.677 13.7231 126.68C14.6075 130.063 15.6783 133.395 16.9306 136.66C17.3827 137.845 17.8596 139.02 18.3614 140.184C18.6032 140.751 18.8496 141.313 19.1051 141.873C19.4328 142.604 19.7741 143.333 20.1245 144.053C20.3957 144.62 20.6745 145.183 20.9608 145.742C21.3293 146.475 21.7098 147.203 22.1023 147.925C22.4052 148.491 22.7172 149.053 23.0336 149.613C28.139 158.632 34.6585 166.775 42.3441 173.733C44.5344 175.718 46.8136 177.599 49.1817 179.377C65.9378 191.951 86.3301 198.75 107.289 198.75C128.249 198.75 148.641 191.951 165.397 179.377C166.686 178.411 167.948 177.412 169.183 176.381C170.004 175.7 170.811 175.005 171.604 174.298C171.814 174.11 172.025 173.923 172.233 173.733C179.318 167.319 185.416 159.894 190.329 151.699C192.133 148.695 193.769 145.593 195.23 142.408C195.616 141.568 195.991 140.72 196.353 139.866C198.021 135.947 199.424 131.92 200.553 127.813C200.727 127.179 200.895 126.543 201.057 125.904V125.901C201.084 125.791 201.114 125.678 201.141 125.567C201.308 124.895 201.468 124.217 201.622 123.54V123.538C202.119 121.355 202.539 119.146 202.881 116.91C202.924 116.624 202.967 116.337 203.008 116.05C203.024 115.946 203.039 115.843 203.051 115.739V115.736C203.295 114.01 203.493 112.27 203.645 110.517C203.88 107.766 203.999 104.982 204 102.167C204.026 85.8055 199.869 69.7079 191.925 55.3985Z" fill="#F2F2F2"/>
<path id="Vector_2" d="M182.427 160.469C188.152 152.744 190.353 141.864 185.9 133.346C181.724 142.928 174.289 150.725 164.91 155.36C161.287 157.134 157.072 158.73 155.395 162.396C154.351 164.677 154.55 167.37 155.389 169.734C156.228 172.097 157.655 174.2 159.066 176.274L159.141 176.896C168.029 173.215 176.703 168.193 182.427 160.469Z" fill="#E6E6E6"/>
<path id="Vector_3" d="M185.711 133.414C185.454 141.364 182.696 149.031 177.828 155.327C176.804 156.7 175.569 157.904 174.17 158.894C172.776 159.815 171.16 160.345 169.491 160.431C167.936 160.542 166.333 160.476 164.832 160.963C164.068 161.224 163.367 161.643 162.777 162.193C162.186 162.743 161.718 163.411 161.404 164.154C160.573 165.985 160.451 168.006 160.4 169.986C160.343 172.184 160.32 174.468 159.281 176.466C159.156 176.708 159.539 176.889 159.665 176.647C161.471 173.171 160.298 169.105 161.375 165.45C161.877 163.745 162.897 162.18 164.602 161.497C166.092 160.899 167.746 160.966 169.321 160.867C170.95 160.807 172.54 160.35 173.952 159.535C175.397 158.619 176.676 157.464 177.734 156.12C180.162 153.132 182.106 149.782 183.493 146.191C185.098 142.101 185.991 137.768 186.133 133.378C186.142 133.106 185.719 133.144 185.711 133.414Z" fill="white"/>
<path id="Vector_4" d="M179.515 153.392C180.683 154.064 182.053 154.3 183.379 154.057C184.706 153.813 185.902 153.107 186.755 152.064C186.927 151.853 186.606 151.576 186.434 151.788C185.641 152.761 184.527 153.418 183.291 153.642C182.055 153.866 180.78 153.641 179.696 153.009C179.46 152.872 179.28 153.255 179.515 153.392Z" fill="white"/>
<path id="Vector_5" d="M170.286 160.479C169.547 157.826 169.835 154.993 171.094 152.544C171.219 152.302 170.836 152.121 170.711 152.363C169.405 154.914 169.111 157.863 169.887 160.621C169.961 160.884 170.36 160.74 170.286 160.479Z" fill="white"/>
<path id="Vector_6" d="M184.536 142.121C184.03 141.955 183.572 141.666 183.205 141.28C182.839 140.894 182.573 140.423 182.434 139.909C182.363 139.645 181.964 139.79 182.035 140.051C182.191 140.618 182.485 141.138 182.889 141.566C183.294 141.993 183.797 142.315 184.355 142.504C184.406 142.526 184.463 142.528 184.516 142.509C184.568 142.49 184.611 142.452 184.637 142.403C184.661 142.352 184.663 142.294 184.644 142.241C184.626 142.188 184.587 142.145 184.536 142.121Z" fill="white"/>
<path id="Vector_7" d="M154.036 126.567C154.076 126.733 154.115 126.899 154.152 127.067C154.672 129.3 155.009 131.571 155.16 133.859C155.174 134.035 155.186 134.215 155.196 134.391C155.501 139.906 154.778 145.429 153.064 150.68C152.38 152.769 151.538 154.803 150.546 156.765C149.174 159.473 147.472 162.301 147.088 165.218C147.044 165.522 147.019 165.828 147.014 166.135L158.376 176.938C158.414 176.95 158.45 176.964 158.488 176.976L158.922 177.428C158.98 177.331 159.039 177.228 159.097 177.131C159.131 177.074 159.162 177.015 159.196 176.959C159.218 176.92 159.24 176.882 159.262 176.848C159.269 176.836 159.277 176.823 159.282 176.813C159.303 176.779 159.32 176.746 159.34 176.715C159.668 176.143 159.992 175.568 160.313 174.99C160.315 174.987 160.315 174.987 160.315 174.982C162.748 170.568 164.834 165.913 166.146 161.09C166.185 160.945 166.227 160.797 166.261 160.647C166.841 158.47 167.241 156.249 167.458 154.006C167.572 152.778 167.625 151.545 167.615 150.311C167.583 147.124 167.049 143.961 166.033 140.94C164.006 134.916 160.073 129.607 154.467 126.779C154.323 126.707 154.182 126.637 154.036 126.567Z" fill="#E6E6E6"/>
<path id="Vector_8" d="M153.925 126.735C158.512 133.237 160.932 141.017 160.841 148.97C160.851 150.683 160.592 152.387 160.071 154.018C159.513 155.592 158.543 156.987 157.262 158.059C156.087 159.082 154.768 159.994 153.863 161.285C153.41 161.952 153.103 162.708 152.963 163.502C152.822 164.297 152.852 165.112 153.049 165.894C153.49 167.856 154.61 169.542 155.763 171.154C157.043 172.943 158.401 174.781 158.777 177.001C158.822 177.27 159.238 177.183 159.192 176.915C158.538 173.053 155.151 170.512 153.807 166.946C153.18 165.283 153.051 163.42 154 161.85C154.83 160.476 156.191 159.535 157.389 158.509C158.654 157.481 159.647 156.16 160.283 154.661C160.885 153.06 161.21 151.37 161.244 149.661C161.382 145.815 160.914 141.971 159.856 138.27C158.673 134.039 156.773 130.042 154.24 126.452C154.083 126.229 153.769 126.514 153.925 126.735Z" fill="white"/>
<path id="Vector_9" d="M161.021 146.411C162.359 146.245 163.595 145.61 164.507 144.618C165.42 143.626 165.95 142.343 166.002 140.997C166.012 140.725 165.589 140.697 165.579 140.97C165.532 142.223 165.039 143.419 164.187 144.34C163.336 145.262 162.182 145.849 160.935 145.996C160.664 146.029 160.752 146.443 161.021 146.411Z" fill="white"/>
<path id="Vector_10" d="M157.926 157.618C155.736 155.945 154.258 153.51 153.787 150.797C153.741 150.529 153.325 150.615 153.372 150.883C153.867 153.705 155.41 156.236 157.693 157.972C157.91 158.137 158.142 157.782 157.926 157.618Z" fill="white"/>
<path id="Vector_11" d="M158.236 134.393C157.731 134.565 157.192 134.609 156.666 134.521C156.141 134.434 155.645 134.217 155.224 133.891C155.008 133.723 154.777 134.078 154.991 134.245C155.458 134.603 156.006 134.842 156.586 134.94C157.167 135.038 157.763 134.993 158.322 134.808C158.376 134.795 158.423 134.762 158.454 134.715C158.484 134.669 158.496 134.612 158.486 134.557C158.475 134.503 158.442 134.455 158.395 134.424C158.348 134.393 158.291 134.382 158.236 134.393Z" fill="white"/>
<path id="Vector_12" d="M4.51482 117.208C-0.561898 109.044 -1.87071 98.0217 3.26052 89.8926C6.64296 99.7817 13.4189 108.157 22.3896 113.537C25.8567 115.6 29.928 117.533 31.3013 121.323C32.1559 123.681 31.7387 126.349 30.7102 128.636C29.6816 130.924 28.0883 132.904 26.5123 134.857L26.3876 135.47C17.8279 131.081 9.59154 125.371 4.51482 117.208Z" fill="#E6E6E6"/>
<path id="Vector_13" d="M3.44425 89.9759C3.05296 97.9203 5.17813 105.786 9.51789 112.455C10.4266 113.908 11.5589 115.208 12.8731 116.308C14.1879 117.339 15.755 117.999 17.4117 118.22C18.9522 118.457 20.5554 118.521 22.0114 119.128C22.7521 119.45 23.4163 119.924 23.9605 120.52C24.5046 121.116 24.9165 121.82 25.1691 122.587C25.8481 124.479 25.8056 126.503 25.6952 128.48C25.5726 130.676 25.4104 132.954 26.2826 135.03C26.3883 135.282 25.9913 135.431 25.8858 135.18C24.3684 131.568 25.8682 127.611 25.0927 123.881C24.7309 122.14 23.8416 120.498 22.1981 119.679C20.7609 118.962 19.1076 118.894 17.5458 118.668C15.9265 118.476 14.3789 117.891 13.0382 116.964C11.6722 115.934 10.4917 114.68 9.54713 113.254C7.36939 110.079 5.70509 106.582 4.61521 102.89C3.34794 98.6838 2.81049 94.2921 3.02611 89.9049C3.03956 89.6334 3.45762 89.7061 3.44425 89.9759Z" fill="white"/>
<path id="Vector_14" d="M7.99393 110.39C6.77461 110.965 5.39024 111.089 4.08804 110.739C2.78585 110.389 1.65064 109.588 0.885138 108.479C0.731018 108.255 1.07368 108.005 1.228 108.23C1.93893 109.264 2.99646 110.01 4.20972 110.333C5.42299 110.657 6.71207 110.536 7.8443 109.994C8.09049 109.876 8.23871 110.273 7.99393 110.39Z" fill="white"/>
<path id="Vector_15" d="M16.6148 118.202C17.5678 115.619 17.5109 112.772 16.4554 110.228C16.3507 109.977 16.7476 109.827 16.8523 110.079C17.9457 112.728 17.9989 115.691 17.0012 118.377C16.9059 118.633 16.52 118.457 16.6148 118.202Z" fill="white"/>
<path id="Vector_16" d="M3.90646 98.7489C4.42468 98.6245 4.90385 98.3735 5.30094 98.0184C5.69803 97.6634 6.0006 97.2154 6.18148 96.7147C6.27346 96.4577 6.65925 96.6339 6.56788 96.8893C6.36545 97.4415 6.0307 97.9359 5.59284 98.3291C5.15499 98.7224 4.62737 99.0025 4.05609 99.1452C4.00337 99.1631 3.94578 99.1604 3.89503 99.1374C3.84428 99.1145 3.80417 99.0731 3.78286 99.0217C3.76331 98.9692 3.76533 98.911 3.78847 98.8599C3.81162 98.8088 3.85402 98.7689 3.90646 98.7489Z" fill="white"/>
<path id="Vector_17" d="M35.5709 85.7217C35.518 85.8838 35.4652 86.0459 35.4144 86.211C34.7151 88.3943 34.1944 90.6307 33.8577 92.8983C33.8289 93.0732 33.8023 93.2509 33.7786 93.4262C33.0257 98.8979 33.2965 104.462 34.5773 109.834C35.089 111.972 35.7627 114.068 36.5927 116.103C37.7391 118.914 39.206 121.871 39.3514 124.809C39.37 125.116 39.3696 125.423 39.3501 125.729L27.1467 135.574C27.1078 135.583 27.0709 135.594 27.0318 135.603L26.5625 136.018C26.5124 135.916 26.4626 135.809 26.4124 135.707C26.3831 135.648 26.3565 135.587 26.3271 135.528C26.3084 135.488 26.2898 135.448 26.2707 135.413C26.2644 135.399 26.2583 135.386 26.2542 135.375C26.2351 135.34 26.221 135.306 26.2041 135.273C25.924 134.677 25.6476 134.077 25.3749 133.475C25.3726 133.472 25.3726 133.472 25.3731 133.467C23.3071 128.871 21.6072 124.062 20.6921 119.148C20.6647 119 20.6348 118.849 20.6129 118.697C20.2127 116.48 19.9947 114.234 19.961 111.981C19.9465 110.748 19.9946 109.514 20.105 108.285C20.3964 105.111 21.1859 102.002 22.4446 99.0732C24.9547 93.2342 29.3067 88.2619 35.1246 85.8979C35.2735 85.8376 35.4198 85.7793 35.5709 85.7217Z" fill="#E6E6E6"/>
<path id="Vector_18" d="M35.6686 85.8984C30.5667 92.0063 27.5217 99.5643 26.9659 107.499C26.8159 109.205 26.9361 110.924 27.3221 112.593C27.7507 114.206 28.6041 115.675 29.7936 116.848C30.8806 117.963 32.122 118.979 32.9186 120.339C33.316 121.041 33.5603 121.819 33.6355 122.622C33.7106 123.425 33.6149 124.235 33.3547 124.999C32.7557 126.918 31.5019 128.508 30.2217 130.021C28.8002 131.7 27.2971 133.422 26.742 135.604C26.6748 135.868 26.2679 135.749 26.3351 135.485C27.3009 131.688 30.8839 129.431 32.5135 125.986C33.2738 124.379 33.5538 122.533 32.7356 120.891C32.0201 119.454 30.7409 118.406 29.6304 117.286C28.4532 116.159 27.5703 114.762 27.0586 113.215C26.5888 111.572 26.4025 109.86 26.5077 108.154C26.6831 104.31 27.4627 100.516 28.818 96.9137C30.3419 92.7933 32.5604 88.9636 35.3775 85.5903C35.5519 85.3816 35.8419 85.6911 35.6686 85.8984Z" fill="white"/>
<path id="Vector_19" d="M26.9943 104.934C25.6739 104.66 24.494 103.926 23.6653 102.864C22.8366 101.801 22.413 100.479 22.4702 99.1336C22.473 99.0788 22.4971 99.0272 22.5373 98.9897C22.5775 98.9522 22.6307 98.9317 22.6857 98.9326C22.7407 98.9336 22.7931 98.9557 22.8321 98.9945C22.871 99.0333 22.8933 99.0857 22.8944 99.1406C22.8388 100.393 23.2335 101.625 24.0072 102.613C24.7809 103.6 25.8827 104.279 27.1137 104.527C27.3812 104.581 27.2602 104.987 26.9943 104.934Z" fill="white"/>
<path id="Vector_20" d="M29.1677 116.355C31.486 114.865 33.157 112.558 33.8475 109.892C33.9156 109.628 34.3225 109.748 34.2544 110.012C33.5307 112.784 31.7869 115.181 29.371 116.726C29.1406 116.873 28.9386 116.501 29.1677 116.355Z" fill="white"/>
<path id="Vector_21" d="M30.7487 93.1813C31.2375 93.3935 31.7714 93.4813 32.3025 93.4365C32.8336 93.3918 33.3452 93.216 33.7915 92.925C34.0199 92.7751 34.2217 93.1478 33.9948 93.2967C33.5002 93.616 32.9349 93.8094 32.3482 93.8601C31.7616 93.9108 31.1714 93.8173 30.6293 93.5877C30.5763 93.5703 30.532 93.5335 30.5053 93.4846C30.4786 93.4358 30.4716 93.3787 30.4855 93.3248C30.5016 93.2711 30.5383 93.2259 30.5875 93.199C30.6368 93.1721 30.6947 93.1657 30.7487 93.1813Z" fill="white"/>
<path id="Vector_22" d="M98.7548 33.8792C106.175 33.8792 112.191 27.8716 112.191 20.4609C112.191 13.0501 106.175 7.04248 98.7548 7.04248C91.3342 7.04248 85.3186 13.0501 85.3186 20.4609C85.3186 27.8716 91.3342 33.8792 98.7548 33.8792Z" fill="#FF6584"/>
<path id="Vector_23" d="M139.893 19.7609C138.683 18.4836 137.405 17.2719 136.064 16.131C133.447 13.9143 130.549 12.0293 127.319 10.8419C126.103 10.3934 124.846 10.0631 123.567 9.85545C123.413 9.83064 123.261 9.8058 123.108 9.78548C123.097 9.78435 123.085 9.78435 123.074 9.78548C123.05 9.77879 123.026 9.77426 123.002 9.77193C122.687 9.7313 122.373 9.69969 122.057 9.67713C120.352 9.56398 118.641 9.71784 116.984 10.1331C116.023 10.3753 115.085 10.7016 114.182 11.1083C113.276 11.551 112.398 12.0478 111.553 12.5959C111.099 12.8714 110.631 13.1238 110.151 13.3522C108.751 14.0147 107.269 14.4884 105.744 14.7608C104.713 14.9453 103.67 15.048 102.624 15.0678C101.716 15.0858 100.859 15.1174 99.9976 15.4448C99.0785 15.7897 98.2529 16.3445 97.5869 17.0649C96.9208 17.7854 96.4328 18.6514 96.1617 19.5939C96.1404 19.6775 96.1464 19.7659 96.1789 19.8459C96.2115 19.9259 96.2688 19.9934 96.3426 20.0386C96.5754 20.2056 96.8014 20.3952 97.0478 20.5442C97.2652 20.6433 97.4973 20.7066 97.7349 20.7316C98.1237 20.8129 98.5133 20.8919 98.9036 20.9686C100.339 21.253 101.78 21.5051 103.228 21.7248C106.139 22.165 109.067 22.475 112.012 22.6549C112.03 22.6575 112.048 22.659 112.066 22.6594C115.392 22.8599 118.727 22.8923 122.057 22.7565C122.561 22.7361 123.063 22.7113 123.567 22.682C125.667 22.5646 127.761 22.3795 129.85 22.1266C131.783 21.8919 133.708 21.6007 135.626 21.253C136.996 21.0047 138.36 20.7278 139.719 20.4223C139.785 20.4028 139.845 20.3666 139.893 20.3173C139.941 20.2679 139.975 20.2071 139.993 20.1406C140.01 20.0741 140.01 20.0042 139.993 19.9377C139.976 19.8712 139.941 19.8103 139.893 19.7609Z" fill="#E6E6E6"/>
<path id="Vector_24" d="M111.966 37.653C110.021 35.5749 107.878 33.6908 105.567 32.0275C104.801 31.4903 104.012 30.9846 103.2 30.5218C102.206 29.9483 101.172 29.4437 100.108 29.0116C99.8709 28.9146 99.6313 28.822 99.3917 28.734C98.0305 28.2305 96.6185 27.8762 95.1806 27.6775C95.1693 27.6753 95.158 27.6775 95.1467 27.6753C95.1241 27.6708 95.0992 27.6662 95.0766 27.6617C94.3796 27.5715 93.6773 27.5285 92.9745 27.533C92.4704 27.533 91.9641 27.5601 91.4623 27.6098C90.6515 27.6896 89.8477 27.8284 89.0572 28.0252C88.6662 28.1222 88.2774 28.2351 87.8954 28.3638C87.3382 28.5469 86.7912 28.7594 86.2566 29.0004C86.2476 29.0049 86.2408 29.0071 86.2318 29.0116C85.3343 29.4501 84.4647 29.9431 83.6278 30.488C83.6097 30.4993 83.5894 30.5106 83.5713 30.5218C82.6207 31.0898 81.6149 31.5602 80.5695 31.9259C79.6721 32.2394 78.7516 32.4824 77.8163 32.6528C76.7864 32.8378 75.7433 32.9398 74.697 32.9576C73.7883 32.9756 72.9316 33.0072 72.0727 33.3368C71.1533 33.6816 70.3274 34.2364 69.661 34.9568C68.9946 35.6772 68.5061 36.5433 68.2346 37.4859C68.2136 37.5696 68.2199 37.6578 68.2524 37.7377C68.2849 37.8176 68.342 37.8852 68.4154 37.9306C68.6482 38.0977 68.8765 38.285 69.1206 38.434C69.3378 38.5339 69.57 38.5972 69.8078 38.6214C70.1966 38.7026 70.5854 38.7839 70.9764 38.8606C72.4118 39.1451 73.8539 39.3964 75.3028 39.6146C77.2897 39.9149 79.2848 40.1549 81.2883 40.3347C82.2376 40.4228 83.1878 40.495 84.1386 40.5514C86.5776 40.6982 89.0188 40.7553 91.4623 40.723C91.9664 40.7162 92.4704 40.705 92.9745 40.6891C95.9672 40.6011 98.9509 40.3769 101.926 40.0164C105.241 39.6158 108.534 39.047 111.792 38.3121C111.858 38.2928 111.918 38.2569 111.966 38.2077C112.014 38.1586 112.048 38.0979 112.066 38.0316C112.083 37.9653 112.083 37.8956 112.066 37.8292C112.048 37.7629 112.014 37.7022 111.966 37.653Z" fill="#E6E6E6"/>
<path id="Vector_25" d="M78.4756 1.64101L90.3125 164.999L66.6387 167.098V3.71939C69.4596 1.51878 73.5091 1.17449 78.4756 1.64101Z" fill="#CCCCCC"/>
<path id="Vector_26" d="M136.905 1.64101L125.068 164.999L148.742 167.098V3.71939C145.921 1.51878 141.871 1.17449 136.905 1.64101Z" fill="#CCCCCC"/>
<path id="Vector_27" d="M149.299 3.79055C148.564 1.9918 147.002 0.75 145.196 0.75H69.9319C67.4207 0.75 65.3795 3.15633 65.3795 6.11694V168.482C65.3576 169.984 65.9199 171.436 66.9482 172.532C67.4862 173.097 68.1674 173.505 68.9193 173.713C69.2491 173.804 69.5898 173.85 69.9319 173.849H145.196C145.538 173.85 145.879 173.804 146.209 173.713C148.234 173.169 149.748 171.032 149.748 168.482V6.11694C149.75 5.31973 149.598 4.52967 149.299 3.79055ZM148.238 168.482C148.238 170.459 146.873 172.069 145.196 172.069H69.9319C68.5418 172.069 67.3641 170.963 67.0047 169.457C66.9279 169.138 66.8892 168.81 66.8895 168.482V6.11694C66.8895 4.13965 68.2547 2.53277 69.9319 2.53277H145.196C145.505 2.53253 145.811 2.58758 146.1 2.69532C147.337 3.14835 148.238 4.51006 148.238 6.11694V168.482Z" fill="#CCCCCC"/>
<path id="Vector_28" d="M148.994 50.103H66.135V51.6121H148.994V50.103Z" fill="#CCCCCC"/>
<path id="Vector_29" d="M148.994 18.9512H66.135V20.4603H148.994V18.9512Z" fill="#CCCCCC"/>
<path id="Vector_30" d="M148.994 75.2549H66.135V76.764H148.994V75.2549Z" fill="#CCCCCC"/>
<path id="Vector_31" d="M93.0233 1.42725H91.5122V96.6338H93.0233V1.42725Z" fill="#CCCCCC"/>
<path id="Vector_32" d="M123.616 1.42725H122.105V96.6338H123.616V1.42725Z" fill="#CCCCCC"/>
<path id="Vector_33" d="M158.437 164.417H59.2087C57.4061 164.42 55.6779 165.136 54.4032 166.409C53.1286 167.682 52.4116 169.407 52.4094 171.208C52.4085 172.073 52.5751 172.931 52.8999 173.734C53.4047 174.993 54.2754 176.072 55.3998 176.832C56.5241 177.593 57.8507 177.999 59.2087 178H158.437C159.624 178 160.79 177.689 161.82 177.099C162.849 176.509 163.706 175.66 164.305 174.637C164.476 174.347 164.624 174.046 164.748 173.734C165.073 172.931 165.24 172.073 165.239 171.208C165.236 169.407 164.519 167.681 163.244 166.408C161.969 165.135 160.24 164.42 158.437 164.417Z" fill="#CCCCCC"/>
<path id="Vector_34" d="M148.994 93.1128H66.6387V98.1431H148.994V93.1128Z" fill="#CCCCCC"/>
<path id="Vector_35" d="M107.061 91.6035H108.572C109.306 91.6035 110.011 91.895 110.531 92.4139C111.05 92.9327 111.342 93.6364 111.342 94.3702H104.29C104.29 94.0069 104.362 93.6471 104.501 93.3114C104.64 92.9758 104.844 92.6708 105.102 92.4139C105.359 92.1569 105.664 91.9532 106 91.8141C106.337 91.6751 106.697 91.6035 107.061 91.6035Z" fill="#CCCCCC"/>
<path id="ab6171fa-7d69-4734-b81c-8dff60f9761b" d="M109.269 107.299C117.889 107.299 124.876 100.321 124.876 91.7123C124.876 83.1039 117.889 76.1255 109.269 76.1255C100.649 76.1255 93.6614 83.1039 93.6614 91.7123C93.6614 100.321 100.649 107.299 109.269 107.299Z" fill="#FFB8B8"/>
<path id="bf427902-b9bf-4946-b5d7-5c1c7e04535e" d="M91.8584 76.718C91.9764 74.9281 93.1617 73.0965 96.9275 72.1394C96.9275 72.1394 103.39 63.8862 112.172 68.2143C112.172 68.2143 116.43 67.4827 119.587 71.8943C119.587 71.8943 122.717 70.0506 124.038 73.3184C124.038 73.3184 127.709 79.984 126.357 86.7828C125.006 93.5817 124.314 94.4302 124.314 94.4302C124.314 94.4302 126.037 80.3669 116.114 81.342C106.192 82.3172 98.2036 78.8325 95.9566 86.4622C94.0907 92.7976 94.3258 96.0879 94.3258 96.0879C94.3258 96.0879 88.0864 89.7678 90.2078 84.7912C91.2928 82.2458 91.6764 79.4785 91.8584 76.718Z" fill="#2F2E41"/>
<path id="Vector_36" d="M66.8262 176.894H153.155C152.578 170.318 152.201 145.179 152.201 143.524C152.201 136.227 146.222 128.263 146.222 128.263L144.082 127.081L126.209 121.512L121.583 115.512C121.099 114.882 120.475 114.373 119.76 114.024C119.045 113.676 118.259 113.497 117.464 113.504L102.853 113.613C101.567 113.623 100.331 114.112 99.3877 114.984L90.34 123.367L77.0697 129.695L77.0472 129.673L76.9086 129.776L74.9392 131.192L73.6724 132.106C73.6724 132.106 70.3492 136.088 67.6932 148.031C67.2936 149.827 67.0131 173.079 66.8262 176.894Z" fill="#6C63FF"/>
<path id="Vector_37" d="M173.137 173.733C172.929 173.923 172.719 174.11 172.508 174.298C171.713 175.004 170.906 175.699 170.088 176.381C168.851 177.411 167.589 178.409 166.301 179.377H50.0859C47.7193 177.603 45.4401 175.721 43.2483 173.733H173.137Z" fill="#CCCCCC"/>
<path id="Vector_38" d="M130.537 175.088H87.8162L88.7202 170.799H129.633L130.537 175.088Z" fill="#2F2E41"/>
<path id="Vector_39" d="M169.188 156.577H158.071C157.82 156.576 157.572 156.631 157.345 156.736C157.117 156.841 156.915 156.995 156.754 157.187C156.599 157.157 156.441 157.142 156.283 157.142C155.937 157.141 155.594 157.209 155.274 157.341C154.953 157.473 154.662 157.667 154.417 157.912C154.172 158.156 153.978 158.447 153.845 158.766C153.712 159.086 153.644 159.429 153.644 159.775C153.644 160.121 153.712 160.463 153.845 160.783C153.978 161.103 154.172 161.393 154.417 161.638C154.662 161.882 154.953 162.076 155.274 162.208C155.594 162.34 155.937 162.408 156.283 162.408C156.681 162.408 157.074 162.317 157.432 162.142L157.617 164.417L158.354 173.411C158.389 173.523 158.436 173.631 158.494 173.733C158.643 174.006 158.863 174.234 159.131 174.393C159.398 174.552 159.704 174.636 160.015 174.636H167.244C167.556 174.636 167.861 174.552 168.129 174.393C168.397 174.234 168.618 174.006 168.767 173.733C168.824 173.631 168.87 173.522 168.905 173.411L170.849 158.823C170.929 158.564 170.947 158.289 170.901 158.021C170.856 157.753 170.748 157.5 170.586 157.282C170.424 157.063 170.214 156.886 169.971 156.763C169.728 156.641 169.46 156.577 169.188 156.577ZM156.283 161.656C155.784 161.656 155.305 161.457 154.953 161.104C154.6 160.752 154.402 160.273 154.402 159.775C154.402 159.276 154.6 158.798 154.953 158.445C155.305 158.092 155.784 157.894 156.283 157.893C156.317 157.893 156.349 157.902 156.383 157.905C156.308 158.208 156.318 158.525 156.41 158.823L157.206 161.406C156.925 161.568 156.607 161.655 156.283 161.656Z" fill="#3F3D56"/>
<path id="Vector_40" d="M144.079 108.849H73.7092C73.1046 108.85 72.5251 109.09 72.0975 109.517C71.67 109.944 71.4294 110.523 71.4285 111.127V158.55C71.429 159.154 71.6695 159.733 72.0971 160.16C72.5247 160.587 73.1045 160.827 73.7092 160.828H144.079C144.684 160.827 145.264 160.587 145.692 160.16C146.119 159.733 146.36 159.154 146.36 158.55V111.127C146.359 110.523 146.119 109.944 145.691 109.517C145.264 109.09 144.684 108.85 144.079 108.849Z" fill="#3F3D56"/>
<path id="Vector_41" d="M116.819 146.848H100.357C100.124 146.848 99.9007 146.941 99.7362 147.106C99.5717 147.271 99.4795 147.494 99.4797 147.726V173.698H117.698V147.726C117.699 147.611 117.676 147.497 117.632 147.39C117.587 147.284 117.523 147.187 117.441 147.105C117.359 147.024 117.262 146.959 117.156 146.915C117.049 146.871 116.935 146.848 116.819 146.848ZM108.643 161.605C108.129 161.602 107.635 161.397 107.271 161.033C106.907 160.67 106.702 160.178 106.699 159.663V156.668C106.7 156.153 106.905 155.66 107.27 155.296C107.634 154.933 108.128 154.729 108.643 154.729C109.159 154.729 109.653 154.933 110.017 155.296C110.382 155.66 110.587 156.153 110.587 156.668V159.663C110.585 160.178 110.379 160.67 110.015 161.033C109.651 161.397 109.158 161.602 108.643 161.605Z" fill="#2F2E41"/>
<path id="Vector_42" d="M99.4233 172.867V175.372C99.4236 175.502 99.4754 175.627 99.5673 175.719C99.6592 175.81 99.7838 175.862 99.9139 175.862H117.265C117.394 175.862 117.519 175.81 117.611 175.718C117.703 175.626 117.754 175.502 117.755 175.372V172.867H99.4233Z" fill="#3F3D56"/>
<path id="Vector_43" d="M142.583 158.054C143.197 158.054 143.694 157.558 143.694 156.945C143.694 156.332 143.197 155.835 142.583 155.835C141.97 155.835 141.472 156.332 141.472 156.945C141.472 157.558 141.97 158.054 142.583 158.054Z" fill="#2F2E41"/>
<path id="Vector_44" d="M82.5924 155.336C82.5413 155.336 82.4908 155.346 82.4436 155.365C82.3965 155.385 82.3536 155.414 82.3175 155.45C82.2814 155.486 82.2527 155.529 82.2332 155.576C82.2137 155.623 82.2036 155.673 82.2036 155.724V157.722C82.2039 157.825 82.245 157.923 82.3178 157.996C82.3907 158.069 82.4895 158.109 82.5924 158.109C82.6953 158.109 82.7941 158.069 82.867 157.996C82.9398 157.923 82.9809 157.825 82.9812 157.722V155.724C82.9812 155.673 82.9711 155.623 82.9516 155.576C82.9321 155.529 82.9034 155.486 82.8673 155.45C82.8312 155.414 82.7884 155.385 82.7412 155.365C82.694 155.346 82.6435 155.336 82.5924 155.336Z" fill="#2F2E41"/>
<path id="Vector_45" d="M84.7037 155.336C84.6527 155.336 84.6021 155.346 84.5549 155.365C84.5078 155.385 84.4649 155.414 84.4288 155.45C84.3927 155.486 84.3641 155.529 84.3445 155.576C84.325 155.623 84.3149 155.673 84.3149 155.724V157.722C84.3149 157.825 84.3559 157.924 84.4288 157.997C84.5017 158.069 84.6006 158.11 84.7037 158.11C84.8068 158.11 84.9057 158.069 84.9786 157.997C85.0516 157.924 85.0925 157.825 85.0925 157.722V155.724C85.0925 155.673 85.0825 155.623 85.0629 155.576C85.0434 155.529 85.0147 155.486 84.9786 155.45C84.9425 155.414 84.8997 155.385 84.8525 155.365C84.8053 155.346 84.7548 155.336 84.7037 155.336Z" fill="#2F2E41"/>
<path id="Vector_46" d="M86.8148 155.336C86.7638 155.336 86.7132 155.346 86.666 155.365C86.6189 155.385 86.576 155.414 86.5399 155.45C86.5038 155.486 86.4752 155.529 86.4556 155.576C86.4361 155.623 86.426 155.673 86.426 155.724V157.722C86.4263 157.825 86.4674 157.923 86.5402 157.996C86.6131 158.069 86.7119 158.109 86.8148 158.109C86.9178 158.109 87.0165 158.069 87.0894 157.996C87.1623 157.923 87.2033 157.825 87.2036 157.722V155.724C87.2036 155.673 87.1936 155.623 87.174 155.576C87.1545 155.529 87.1258 155.486 87.0897 155.45C87.0536 155.414 87.0108 155.385 86.9636 155.365C86.9164 155.346 86.8659 155.336 86.8148 155.336Z" fill="#2F2E41"/>
<path id="Vector_47" d="M88.9261 155.336C88.8751 155.336 88.8245 155.346 88.7773 155.365C88.7302 155.385 88.6873 155.414 88.6512 155.45C88.6151 155.486 88.5865 155.529 88.5669 155.576C88.5474 155.623 88.5374 155.673 88.5374 155.724V157.722C88.5376 157.825 88.5787 157.923 88.6516 157.996C88.7245 158.069 88.8232 158.109 88.9261 158.109C89.0291 158.109 89.1278 158.069 89.2007 157.996C89.2736 157.923 89.3147 157.825 89.3149 157.722V155.724C89.3149 155.673 89.3049 155.623 89.2853 155.576C89.2658 155.529 89.2372 155.486 89.2011 155.45C89.165 155.414 89.1221 155.385 89.0749 155.365C89.0277 155.346 88.9772 155.336 88.9261 155.336Z" fill="#2F2E41"/>
<path id="Vector_48" d="M90.6104 173.959C93.8562 173.959 96.4874 171.331 96.4874 168.09C96.4874 164.848 93.8562 162.221 90.6104 162.221C87.3646 162.221 84.7334 164.848 84.7334 168.09C84.7334 171.331 87.3646 173.959 90.6104 173.959Z" fill="#FFB8B8"/>
<path id="Vector_49" d="M131.668 175.088C134.914 175.088 137.545 172.46 137.545 169.219C137.545 165.977 134.914 163.35 131.668 163.35C128.422 163.35 125.791 165.977 125.791 169.219C125.791 172.46 128.422 175.088 131.668 175.088Z" fill="#FFB8B8"/>
<path id="Vector_50" d="M192.329 98.3756C191.748 97.4163 191.06 96.3922 189.982 96.0789C188.734 95.7162 187.452 96.4368 186.365 97.1478C183.112 99.2744 179.98 101.579 176.983 104.051L176.986 104.088C179.32 103.927 181.256 110.124 183.59 109.964C185.276 109.847 187.417 103.358 188.907 102.561C189.472 102.259 190.023 101.855 190.664 101.827C191.46 101.792 192.154 102.347 192.7 102.927C195.926 106.359 196.86 111.606 200.479 114.62C198.197 108.999 195.471 103.567 192.329 98.3756Z" fill="#3F3D56"/>
<path id="Vector_51" d="M198.539 106.709C200.241 109.78 202.046 112.789 203.955 115.737V115.739C203.943 115.843 203.928 115.947 203.912 116.051C203.681 115.698 203.453 115.345 203.227 114.99C201.513 112.306 199.885 109.57 198.342 106.784C197.61 105.459 196.895 104.123 196.199 102.777C195.661 101.734 195.135 100.685 194.619 99.6303C194.472 99.3278 194.33 99.0253 194.188 98.7206C193.853 98.0072 193.523 97.2894 193.17 96.5851C192.768 95.7814 192.278 94.9417 191.538 94.4022C191.202 94.1463 190.8 93.9912 190.379 93.9552C189.785 93.9588 189.204 94.1251 188.699 94.436C184.876 96.4432 181.307 98.901 178.069 101.757C174.827 104.601 171.929 107.814 169.434 111.33C169.357 111.439 169.176 111.335 169.253 111.224C169.558 110.795 169.866 110.373 170.182 109.953C174.104 104.745 178.913 100.266 184.389 96.7205C185.309 96.1245 186.247 95.5564 187.203 95.0162C187.684 94.743 188.168 94.4744 188.661 94.2215C189.133 93.9454 189.662 93.7817 190.207 93.743C192.083 93.7136 193.055 95.8356 193.722 97.2623C193.93 97.7115 194.142 98.16 194.357 98.6077C195.169 100.301 196.012 101.98 196.886 103.646C197.424 104.673 197.975 105.694 198.539 106.709Z" fill="#3F3D56"/>
<path id="Vector_52" d="M177.884 100.708C177.775 100.587 177.667 100.466 177.558 100.345C176.693 99.3892 175.764 98.445 174.577 97.8973C174.01 97.6279 173.392 97.4848 172.765 97.4779C172.118 97.4956 171.48 97.6346 170.884 97.8876C170.6 98.0006 170.323 98.1288 170.051 98.2654C169.739 98.4221 169.433 98.5892 169.128 98.7576C168.556 99.0738 167.991 99.4038 167.434 99.7476C166.326 100.432 165.252 101.168 164.213 101.957C163.674 102.366 163.146 102.789 162.63 103.224C162.149 103.629 161.679 104.045 161.218 104.472C161.119 104.562 160.972 104.415 161.071 104.325C161.192 104.212 161.315 104.099 161.438 103.988C161.785 103.675 162.138 103.368 162.496 103.066C163.149 102.516 163.819 101.987 164.506 101.479C165.575 100.688 166.68 99.9517 167.822 99.2686C168.392 98.9275 168.971 98.6007 169.557 98.2883C169.734 98.194 169.913 98.1018 170.094 98.0145C170.505 97.8074 170.933 97.6337 171.372 97.4952C171.994 97.2943 172.652 97.2297 173.301 97.3059C173.928 97.397 174.532 97.6056 175.081 97.9209C176.247 98.5718 177.151 99.5785 178.032 100.561C178.121 100.661 177.974 100.808 177.884 100.708Z" fill="#3F3D56"/>
<path id="Vector_53" d="M169.35 105.305C169.054 105.319 168.761 105.236 168.517 105.066C167.872 104.578 167.889 103.405 168.569 101.481C168.754 100.959 169.044 100.481 169.422 100.076C169.799 99.6714 170.255 99.3479 170.763 99.1259C171.238 98.9137 171.753 98.8025 172.273 98.7994C172.794 98.7963 173.31 98.9014 173.788 99.108C173.871 99.1441 173.953 99.183 174.034 99.2246C174.588 99.5339 175.106 99.9013 175.581 100.321C175.985 100.67 176.416 100.988 176.869 101.271L177.021 101.359L176.877 101.46C173.216 104.035 170.733 105.305 169.35 105.305Z" fill="#3F3D56"/>
<path id="Vector_54" d="M183.43 89.9843C182.226 89.9841 181.06 89.5666 180.13 88.8032C179.199 88.0397 178.563 86.9775 178.33 85.7979C177.323 86.0014 176.399 86.4983 175.675 87.2256C174.951 87.953 174.458 88.8784 174.26 89.8849C174.062 90.8914 174.167 91.934 174.561 92.8811C174.956 93.8282 175.623 94.6374 176.477 95.2065C177.332 95.7756 178.336 96.0791 179.363 96.0788C180.39 96.0785 181.394 95.7743 182.249 95.2046C183.103 94.635 183.769 93.8254 184.163 92.878C184.557 91.9307 184.661 90.888 184.462 89.8816C184.123 89.9499 183.777 89.9843 183.43 89.9843Z" fill="#3F3D56"/>
<path id="Vector_55" opacity="0.74" d="M44.2636 98.3367C48.5483 98.3367 52.0218 94.8679 52.0218 90.5888C52.0218 86.3097 48.5483 82.8408 44.2636 82.8408C39.9788 82.8408 36.5054 86.3097 36.5054 90.5888C36.5054 94.8679 39.9788 98.3367 44.2636 98.3367Z" fill="#3F3D56"/>
<path id="Vector_56" opacity="0.74" d="M52.0219 98.3367C56.3066 98.3367 59.7801 94.8679 59.7801 90.5888C59.7801 86.3097 56.3066 82.8408 52.0219 82.8408C47.7371 82.8408 44.2637 86.3097 44.2637 90.5888C44.2637 94.8679 47.7371 98.3367 52.0219 98.3367Z" fill="#6C63FF"/>
<path id="Vector_57" opacity="0.74" d="M48.2084 92.1614C52.4932 92.1614 55.9666 88.6926 55.9666 84.4135C55.9666 80.1344 52.4932 76.6655 48.2084 76.6655C43.9237 76.6655 40.4502 80.1344 40.4502 84.4135C40.4502 88.6926 43.9237 92.1614 48.2084 92.1614Z" fill="#FF6584"/>
<path id="Vector_58" d="M68.4952 82.1935L48.5674 88.4458L48.7029 88.8765L68.6307 82.6243L68.4952 82.1935Z" fill="#3F3D56"/>
<path id="Vector_59" d="M68.6222 83.2395C69.1215 83.2395 69.5263 82.8352 69.5263 82.3366C69.5263 81.8379 69.1215 81.4336 68.6222 81.4336C68.1228 81.4336 67.718 81.8379 67.718 82.3366C67.718 82.8352 68.1228 83.2395 68.6222 83.2395Z" fill="#3F3D56"/>
<path id="Vector_60" d="M197.992 122.967C199.316 123.899 200.589 124.849 202.045 125.567C202.018 125.678 201.988 125.791 201.961 125.901C201.783 125.818 201.609 125.73 201.434 125.64C199.958 124.868 198.688 123.818 197.302 122.906C196.616 122.432 195.865 122.056 195.074 121.791C194.249 121.543 193.386 121.442 192.526 121.493C188.939 121.669 185.865 123.807 182.531 124.883C180.899 125.412 179.163 125.694 177.461 125.362C175.759 125.03 174.247 124.127 172.743 123.31C171.261 122.502 169.644 121.689 167.913 121.689C166.502 121.691 165.02 122.256 164.265 123.502C164.241 123.539 164.204 123.566 164.161 123.576C164.119 123.586 164.073 123.58 164.036 123.557C163.998 123.535 163.97 123.499 163.958 123.456C163.947 123.414 163.952 123.369 163.973 123.33C164.142 123.046 164.35 122.787 164.59 122.56C165.576 121.628 167.025 121.26 168.356 121.369C170.078 121.509 171.649 122.321 173.139 123.138C174.719 124.005 176.337 124.938 178.164 125.127C179.968 125.317 181.753 124.845 183.426 124.211C186.665 122.98 189.861 120.931 193.464 121.159C195.164 121.267 196.62 122.003 197.992 122.967Z" fill="#3F3D56"/>
<path id="Vector_61" d="M56.2116 57.681V58.1393C56.0597 58.1093 55.9053 58.0941 55.7505 58.0941H53.3861V63.1642C53.3856 63.9148 53.0869 64.6346 52.5554 65.1654C52.0239 65.6962 51.3032 65.9946 50.5516 65.995H47.057V66.776C47.057 67.0891 47.1192 67.3991 47.2401 67.688H46.7564C46.6553 67.3946 46.6041 67.0864 46.6049 66.776V65.995H44.6836V65.5435H46.6049V60.4734C46.6054 59.7228 46.9041 59.003 47.4356 58.4722C47.9671 57.9414 48.6878 57.6431 49.4394 57.6426H52.934V56.8525H53.3861V57.6426H55.7504C55.9049 57.6428 56.0592 57.6556 56.2116 57.681Z" fill="#6C63FF"/>
<path id="Vector_62" d="M50.5515 54.0308H44.2405C43.4889 54.0312 42.7682 54.3296 42.2367 54.8604C41.7052 55.3911 41.4064 56.1109 41.406 56.8615V63.1642C41.4064 63.9148 41.7052 64.6346 42.2367 65.1654C42.7682 65.6961 43.4889 65.9945 44.2405 65.995H50.5515C51.3032 65.9945 52.0239 65.6961 52.5554 65.1654C53.0868 64.6346 53.3856 63.9148 53.386 63.1642V56.8525C53.3833 56.1034 53.0836 55.3859 52.5523 54.857C52.0211 54.3282 51.3016 54.0311 50.5515 54.0308ZM52.934 63.1642C52.9331 63.795 52.6818 64.3996 52.2352 64.8457C51.7886 65.2917 51.1831 65.5426 50.5515 65.5435H44.2405C43.6089 65.5426 43.0034 65.2917 42.5568 64.8457C42.1102 64.3996 41.8589 63.795 41.8581 63.1642V56.8615C41.8589 56.2308 42.1102 55.6261 42.5568 55.1801C43.0034 54.734 43.6089 54.4831 44.2405 54.4822H50.5515C51.1816 54.483 51.7858 54.7326 52.2322 55.1767C52.6786 55.6208 52.9309 56.2233 52.934 56.8525V63.1642Z" fill="#3F3D56"/>
<path id="Vector_63" d="M46.6047 65.5435V65.9949H47.0568V65.5435H46.6047ZM46.6047 65.5435V65.9949H47.0568V65.5435H46.6047ZM56.2114 57.6809C56.059 57.6556 55.9048 57.6427 55.7503 57.6426H49.4393C48.6876 57.643 47.9669 57.9414 47.4354 58.4722C46.904 59.0029 46.6052 59.7227 46.6047 60.4733V66.776C46.6039 67.0863 46.6551 67.3946 46.7562 67.688C46.947 68.2474 47.3083 68.7332 47.7894 69.0773C48.2706 69.4214 48.8475 69.6065 49.4393 69.6068H55.7503C56.5019 69.6063 57.2226 69.3079 57.7541 68.7772C58.2856 68.2464 58.5844 67.5266 58.5848 66.776V60.4733C58.5846 59.8025 58.3459 59.1536 57.9112 58.6422C57.4765 58.1307 56.8741 57.7901 56.2114 57.6809ZM58.1327 66.776C58.1319 67.4068 57.8806 68.0115 57.434 68.4575C56.9874 68.9035 56.3819 69.1544 55.7503 69.1553H49.4393C48.8077 69.1544 48.2022 68.9034 47.7556 68.4574C47.309 68.0114 47.0577 67.4067 47.0568 66.776V60.4733C47.0577 59.8426 47.309 59.2379 47.7556 58.7919C48.2022 58.3459 48.8077 58.0949 49.4393 58.0941H55.7503C56.3821 58.0943 56.9879 58.345 57.4346 58.7912C57.8814 59.2374 58.1325 59.8424 58.1327 60.4733V66.776ZM46.6047 65.5435V65.9949H47.0568V65.5435H46.6047Z" fill="#3F3D56"/>
<path id="Vector_64" d="M42.1406 124.392H15.3324C15.1458 124.392 14.9668 124.466 14.8347 124.597C14.7025 124.729 14.6279 124.907 14.6272 125.094V126.681C15.5117 130.064 16.5824 133.395 17.8347 136.661H42.1406C42.2329 136.661 42.3244 136.643 42.4097 136.607C42.4951 136.572 42.5726 136.52 42.6379 136.455C42.7032 136.39 42.755 136.312 42.7903 136.227C42.8255 136.142 42.8437 136.051 42.8436 135.958V125.094C42.8434 124.908 42.7692 124.729 42.6374 124.597C42.5057 124.466 42.327 124.392 42.1406 124.392Z" fill="#6C63FF"/>
<path id="Vector_65" d="M39.5865 140.184H19.2656C19.5075 140.751 19.7539 141.313 20.0093 141.873H39.5865C40.6896 141.889 40.6783 140.168 39.5865 140.184Z" fill="#E4E4E4"/>
<path id="Vector_66" d="M39.5863 144.053H21.0286C21.2998 144.62 21.5786 145.183 21.8649 145.742H39.5863C40.6894 145.758 40.6781 144.04 39.5863 144.053Z" fill="#E4E4E4"/>
<path id="Vector_67" d="M39.5863 147.925H23.0063C23.3092 148.492 23.6212 149.054 23.9376 149.613H39.5863C40.6893 149.629 40.678 147.909 39.5863 147.925Z" fill="#E4E4E4"/>
<path id="Vector_68" d="M178.566 43.8667H178.438C178.839 43.8671 179.234 43.9604 179.593 44.1395H179.006C178.375 44.1402 177.769 44.3911 177.323 44.8371C176.876 45.2831 176.625 45.8879 176.624 46.5187V52.8215C176.625 53.4523 176.876 54.057 177.323 54.5031C177.769 54.9491 178.375 55.2 179.006 55.2007H179.38C179.08 55.3183 178.76 55.3789 178.438 55.3794H178.566C179.258 55.3786 179.921 55.1039 180.41 54.6156C180.899 54.1272 181.174 53.4651 181.175 52.7745V46.4716C181.174 45.781 180.899 45.1189 180.41 44.6305C179.921 44.1422 179.258 43.8675 178.566 43.8667Z" fill="#3F3D56"/>
<path id="Vector_69" opacity="0.21" d="M178.566 43.8667H178.438C178.839 43.8671 179.234 43.9604 179.593 44.1395H179.006C178.375 44.1402 177.769 44.3911 177.323 44.8371C176.876 45.2831 176.625 45.8879 176.624 46.5187V52.8215C176.625 53.4523 176.876 54.057 177.323 54.5031C177.769 54.9491 178.375 55.2 179.006 55.2007H179.38C179.08 55.3183 178.76 55.3789 178.438 55.3794H178.566C179.258 55.3786 179.921 55.1039 180.41 54.6156C180.899 54.1272 181.174 53.4651 181.175 52.7745V46.4716C181.174 45.781 180.899 45.1189 180.41 44.6305C179.921 44.1422 179.258 43.8675 178.566 43.8667Z" fill="black"/>
<path id="Vector_70" d="M161.84 43.8667H161.711C162.112 43.8671 162.507 43.9604 162.866 44.1395H162.28C161.648 44.1402 161.042 44.3911 160.596 44.8371C160.149 45.2831 159.898 45.8879 159.897 46.5187V52.8215C159.898 53.4523 160.149 54.057 160.596 54.5031C161.042 54.9491 161.648 55.2 162.28 55.2007H162.653C162.353 55.3183 162.033 55.3789 161.711 55.3794H161.84C162.531 55.3786 163.194 55.1039 163.683 54.6156C164.172 54.1272 164.447 53.4651 164.448 52.7745V46.4716C164.447 45.781 164.172 45.1189 163.683 44.6305C163.194 44.1422 162.531 43.8675 161.84 43.8667Z" fill="#6C63FF"/>
<path id="Vector_71" opacity="0.21" d="M161.84 43.8667H161.711C162.112 43.8671 162.507 43.9604 162.866 44.1395H162.28C161.648 44.1402 161.042 44.3911 160.596 44.8371C160.149 45.2831 159.898 45.8879 159.897 46.5187V52.8215C159.898 53.4523 160.149 54.057 160.596 54.5031C161.042 54.9491 161.648 55.2 162.28 55.2007H162.653C162.353 55.3183 162.033 55.3789 161.711 55.3794H161.84C162.531 55.3786 163.194 55.1039 163.683 54.6156C164.172 54.1272 164.447 53.4651 164.448 52.7745V46.4716C164.447 45.781 164.172 45.1189 163.683 44.6305C163.194 44.1422 162.531 43.8675 161.84 43.8667Z" fill="black"/>
<path id="Vector_72" d="M162.305 55.2202C161.673 55.2195 161.068 54.9686 160.621 54.5226C160.174 54.0766 159.923 53.4718 159.922 52.841V46.5382C159.923 45.9074 160.174 45.3027 160.621 44.8566C161.068 44.4106 161.673 44.1597 162.305 44.159H162.891C162.532 43.98 162.137 43.8866 161.736 43.8862H155.425C154.733 43.887 154.07 44.1617 153.581 44.6501C153.092 45.1384 152.817 45.8005 152.816 46.4912V52.794C152.817 53.4846 153.092 54.1467 153.581 54.6351C154.07 55.1234 154.733 55.3981 155.425 55.3989H161.736C162.059 55.3985 162.378 55.3379 162.678 55.2202L162.305 55.2202Z" fill="#6C63FF"/>
<path id="Vector_73" d="M179.032 55.2202C178.4 55.2195 177.795 54.9686 177.348 54.5226C176.901 54.0766 176.65 53.4718 176.649 52.841V46.5382C176.65 45.9074 176.901 45.3027 177.348 44.8566C177.795 44.4106 178.4 44.1597 179.032 44.159H179.618C179.259 43.98 178.864 43.8866 178.463 43.8862H172.152C171.46 43.887 170.797 44.1617 170.308 44.6501C169.819 45.1384 169.544 45.8005 169.543 46.4912V52.794C169.544 53.4846 169.819 54.1467 170.308 54.6351C170.797 55.1234 171.46 55.3981 172.152 55.3989H178.463C178.786 55.3985 179.105 55.3379 179.405 55.2202L179.032 55.2202Z" fill="#3F3D56"/>
<path id="Vector_74" d="M186.484 45.4551C188.8 48.6373 190.919 51.9581 192.829 55.3989H188.878C188.187 55.3979 187.524 55.1231 187.035 54.6348C186.546 54.1465 186.271 53.4845 186.27 52.7939V46.4912C186.269 46.1348 186.342 45.7821 186.484 45.4551Z" fill="#FF6584"/>
<path id="Vector_75" d="M178.562 58.7056L176.351 55.3985L174.735 52.9809C174.641 52.8396 174.508 52.728 174.353 52.6589C174.198 52.5898 174.026 52.566 173.858 52.5903C173.69 52.6147 173.532 52.6861 173.402 52.7964C173.273 52.9067 173.178 53.0512 173.128 53.2134L172.447 55.3985L171.078 59.7892C171.023 59.9641 171.024 60.1513 171.079 60.3259C171.134 60.5005 171.242 60.6541 171.387 60.7662C171.532 60.8783 171.707 60.9436 171.89 60.9533C172.073 60.9631 172.255 60.9169 172.411 60.8208L172.897 60.5206C172.995 60.4603 173.107 60.426 173.221 60.4209C173.336 60.4159 173.45 60.4401 173.553 60.4914C173.656 60.5428 173.744 60.6194 173.809 60.7142C173.873 60.809 173.913 60.9187 173.923 61.033L174.369 65.8864C174.39 66.1093 174.493 66.3165 174.658 66.4675C174.824 66.6186 175.04 66.7027 175.264 66.7036C175.291 66.7036 175.318 66.7013 175.347 66.699L176.03 66.6381C176.148 66.6274 176.262 66.5936 176.367 66.5387C176.472 66.4838 176.564 66.4088 176.64 66.318C176.716 66.2272 176.772 66.1224 176.807 66.0096C176.842 65.8968 176.855 65.7782 176.844 65.6606L176.385 60.6492C176.374 60.5315 176.394 60.413 176.444 60.3056C176.494 60.1983 176.571 60.1058 176.667 60.0376C176.764 59.9694 176.877 59.9279 176.995 59.9172C177.113 59.9064 177.231 59.9269 177.339 59.9765L177.438 60.0217C177.616 60.1036 177.816 60.1251 178.008 60.083C178.199 60.0409 178.372 59.9375 178.499 59.7885C178.626 59.6395 178.701 59.453 178.712 59.2576C178.724 59.0621 178.671 58.8683 178.562 58.7056Z" fill="#CCCCCC"/>
</g>
<defs>
<clipPath id="clip0_196_53">
<rect width="204" height="198" fill="white" transform="translate(0 0.75)"/>
</clipPath>
</defs>
</svg>
