<svg width="171" height="207" viewBox="0 0 171 207" fill="none" xmlns="http://www.w3.org/2000/svg">
<g id="undraw_predictive_analytics_re_wxt8 1" clip-path="url(#clip0_154_524)">
<g id="Group">
<path id="Vector" d="M158.715 17.5234H23.8298C18.8817 17.5234 14.8582 21.553 14.8582 26.5085V119.08C14.8582 124.035 18.8817 128.065 23.8298 128.065H158.715C163.663 128.065 167.687 124.035 167.687 119.08V26.5085C167.687 21.553 163.663 17.5234 158.715 17.5234Z" fill="#F2F2F2"/>
<path id="Vector_2" d="M144.081 24.6538H9.19574C4.24768 24.6538 0.224121 28.6834 0.224121 33.6388V126.21C0.224121 131.166 4.24768 135.195 9.19574 135.195H144.081C149.029 135.195 153.053 131.166 153.053 126.21V33.6388C153.053 28.6834 149.029 24.6538 144.081 24.6538ZM152.109 98.9641C152.109 118.452 136.335 134.251 116.876 134.251H9.19574C4.76187 134.251 1.16751 130.651 1.16751 126.21V33.6388C1.16751 29.1983 4.76185 25.5986 9.19571 25.5986H144.081C148.515 25.5986 152.109 29.1984 152.109 33.6389V98.9641Z" fill="#3F3D56"/>
</g>
<g id="Group_2">
<path id="Vector_3" d="M19.4912 115.134L18.6929 114.63C19.2118 113.804 19.7473 113.004 20.2839 112.25L21.0518 112.799C20.5255 113.538 20.0006 114.323 19.4912 115.134Z" fill="#CCCCCC"/>
<path id="Vector_4" d="M24.6929 108.4L24.0176 107.741C25.4571 106.263 26.9721 104.995 28.5203 103.971L29.0404 104.759C27.5481 105.746 26.0854 106.971 24.6929 108.4ZM48.2282 102.437C47.1018 102.437 46.0755 102.292 45.3071 102.166L45.4596 101.234C46.2381 101.362 47.1757 101.492 48.2282 101.492C49.1578 101.492 50.0715 101.39 51.0213 101.179L51.2249 102.102C50.2074 102.327 49.2271 102.437 48.2282 102.437ZM34.1122 102.312L33.8285 101.411C34.8419 101.09 35.8917 100.851 36.9486 100.697C37.8563 100.566 38.7241 100.502 39.6014 100.502H39.6595V101.447H39.6014C38.7697 101.447 37.9463 101.507 37.0838 101.632C36.0771 101.778 35.077 102.007 34.1122 102.312ZM56.5985 99.5813L55.9955 98.8547C57.2973 97.7717 58.2303 96.4622 59.2184 95.0757L59.6125 94.5242L60.378 95.0764L59.9863 95.6245C58.9618 97.0622 57.994 98.4203 56.5985 99.5813ZM64.164 90.9184L63.5836 90.1734C64.8552 89.1797 66.2919 88.3744 67.9756 87.7117C68.2623 87.5987 68.5364 87.4979 68.7994 87.4082L69.1039 88.3022C68.8538 88.3878 68.5935 88.4836 68.3208 88.591C66.7226 89.2201 65.3631 89.9813 64.164 90.9184ZM75.5531 87.6368C75.2357 87.6368 74.9346 87.6338 74.6454 87.6306L74.6564 86.6858C74.9521 86.6892 75.2608 86.6899 75.5874 86.692C76.6975 86.692 78.2436 86.6604 80.3644 86.4145L80.4731 87.3528C78.2823 87.607 76.7118 87.6336 75.5531 87.6368ZM86.2118 86.3995L86.0247 85.4736C87.7192 85.1304 89.6905 84.7219 91.6418 84.2176L91.8776 85.1325C89.904 85.6425 87.9182 86.054 86.2118 86.3995ZM97.4347 83.3414L97.0819 82.4651C98.9735 81.7013 100.616 80.84 102.103 79.8316L102.632 80.614C101.089 81.6603 99.3888 82.5525 97.4347 83.3414ZM106.966 76.5903L106.201 76.0381C106.464 75.6722 106.692 75.3154 106.912 74.9703C107.561 73.9517 108.233 72.8983 109.833 71.6052L109.945 71.5154L110.529 72.2568L110.425 72.3401C108.945 73.5367 108.344 74.4802 107.707 75.4789C107.48 75.8349 107.245 76.203 106.966 76.5903ZM115.43 69.5043L115.085 68.6245C116.767 67.9644 118.666 67.4332 120.73 67.0454L120.904 67.9741C118.898 68.351 117.056 68.8658 115.43 69.5043Z" fill="#CCCCCC"/>
<path id="Vector_5" d="M126.67 67.2804L126.611 66.3374C127.528 66.28 128.486 66.2421 129.46 66.2246L129.477 67.1694C128.517 67.1865 127.573 67.2238 126.67 67.2804Z" fill="#CCCCCC"/>
</g>
<g id="Group_3">
<path id="Vector_6" d="M30.0107 34.8911H16.7749C16.1098 34.8911 15.5674 35.4344 15.5674 36.1005C15.5674 36.7713 16.1098 37.3145 16.7749 37.3145H30.0107C30.6757 37.3145 31.2182 36.7713 31.2182 36.1005C31.2182 35.4344 30.6757 34.8911 30.0107 34.8911Z" fill="#E6E6E6"/>
<path id="Vector_7" d="M52.1803 34.8911H38.9446C38.2795 34.8911 37.7371 35.4344 37.7371 36.1005C37.7371 36.7713 38.2795 37.3145 38.9446 37.3145H52.1803C52.8454 37.3145 53.3879 36.7713 53.3879 36.1005C53.3879 35.4344 52.8454 34.8911 52.1803 34.8911Z" fill="#E6E6E6"/>
<path id="Vector_8" d="M74.3498 34.8911H61.114C60.449 34.8911 59.9065 35.4344 59.9065 36.1005C59.9065 36.7713 60.4489 37.3145 61.114 37.3145H74.3498C75.0148 37.3145 75.5573 36.7713 75.5573 36.1005C75.5573 35.4344 75.0148 34.8911 74.3498 34.8911Z" fill="#E6E6E6"/>
</g>
<path id="Vector_9" d="M135.836 114.41H15.5542V115.354H135.836V114.41Z" fill="#E6E6E6"/>
<path id="Vector_10" d="M129.482 45.4394C120.921 45.6614 114.534 48.1841 110.487 52.927C108.992 54.6843 108.384 56.0684 107.742 57.5329C107.105 58.9784 106.454 60.4665 104.94 62.408V60.8019C105.879 59.4225 106.384 58.2698 106.879 57.1502C107.549 55.6196 108.185 54.1741 109.77 52.3176C113.997 47.3574 120.619 44.7261 129.454 44.4946L129.482 45.4394Z" fill="#CCCCCC"/>
<path id="Vector_11" d="M107.742 57.5325C107.105 58.9781 106.454 60.4662 104.94 62.4077C104.761 62.6392 104.567 62.8801 104.36 63.1305C98.8977 69.6354 91.6006 71.7707 85.7327 73.4902C85.3648 73.5989 85.0063 73.6981 84.6573 73.7925C79.4403 75.2097 76.5819 75.1578 74.4545 75.1247C72.3178 75.0869 70.9074 75.0633 68.3839 76.5088C63.7565 79.1496 61.8603 83.0138 60.0255 86.7505C58.134 90.5958 56.351 94.2286 51.8038 95.934C48.6482 97.115 46.4313 96.5292 44.0869 95.915C42.0728 95.3812 38.4428 82.2419 35.2285 80.3258C28.5918 81.7194 24.5588 103.44 19.5259 115.071L18.658 114.693C23.823 102.77 28.0777 80.8644 35.0304 79.4C38.1294 78.748 42.2096 94.4412 44.3275 94.9986C46.5256 95.5797 48.5963 96.1229 51.4737 95.0458C55.6717 93.4775 57.2943 90.1659 59.1764 86.3348C60.9877 82.65 63.0396 78.474 67.9122 75.6869C70.6621 74.1138 72.2612 74.1421 74.4687 74.1799C76.5724 74.2177 79.412 74.2649 84.6573 72.8147C84.9214 72.7391 85.1903 72.6635 85.4686 72.5832C91.2138 70.9015 98.3599 68.8087 103.633 62.5258C104.152 61.907 104.582 61.3354 104.94 60.8016C105.879 59.4222 106.383 58.2695 106.879 57.1499C107.549 55.6193 108.383 56.0681 107.742 57.5325Z" fill="#6C63FF"/>
<g id="Group_4">
<path id="Vector_12" d="M57.4408 165.609C57.0674 164.307 56.428 163.196 55.6667 162.404L52.9009 149.776L46.8721 151.255L50.3269 163.905C50.0997 164.976 50.1451 166.253 50.5185 167.555C51.3715 170.53 53.6126 172.506 55.5242 171.968C57.4357 171.431 58.2938 168.583 57.4408 165.609Z" fill="#FFB6B6"/>
<path id="Vector_13" d="M56.6068 82.7774C56.6068 82.7774 47.086 82.5822 44.6651 89.5259C42.4616 95.8461 39.8494 113.21 41.2615 114.213L47.2721 156.958L55.8432 155.779L53.6434 104.491L56.6068 82.7774Z" fill="#6C63FF"/>
</g>
<path id="Vector_14" d="M100.695 162.122L99.0062 207H76.6008L75.6952 186.89L71.7141 207H47.7002L50.6954 172.43L53.7897 165.16L55.8841 160.232L100.695 162.122Z" fill="#2F2E41"/>
<path id="Vector_15" d="M82.7705 74.2558L67.2046 73.311L62.016 79.9246L50.6953 84.1762L55.8839 134.723L53.5255 164.957C53.5255 164.957 86.544 191.411 100.695 162.122L96.9212 126.692L97.8646 85.5934L87.0157 80.8694L82.7705 74.2558Z" fill="#6C63FF"/>
<g id="Group_5">
<path id="Vector_16" d="M112.737 62.7578C112.906 64.3956 112.692 65.9358 112.198 67.1707L114.791 82.671L107.39 83.691L105.557 67.8576C104.821 66.7499 104.297 65.2861 104.128 63.6483C103.742 59.9067 105.357 56.6743 107.734 56.4284C110.111 56.1825 112.352 59.0163 112.737 62.7578Z" fill="#FFB6B6"/>
<path id="Vector_17" d="M99.8467 87.3678C97.2955 83.0005 90.9669 82.5888 88.1324 86.7772C87.3575 87.9222 87.5734 89.2093 87.3884 90.7556C86.603 97.3203 99.1639 116.719 107.855 118.952C108.996 119.245 109.646 120.477 110.797 120.725C114.207 121.459 117.382 118.748 117.198 115.26L114.837 70.52L104.919 73.9081L105.553 97.1363L99.8467 87.3678Z" fill="#6C63FF"/>
</g>
<g id="Group_6">
<path id="Vector_18" d="M76.6029 72.0882C84.1753 72.0882 90.3139 65.9403 90.3139 58.3566C90.3139 50.7728 84.1753 44.625 76.6029 44.625C69.0305 44.625 62.8918 50.7728 62.8918 58.3566C62.8918 65.9403 69.0305 72.0882 76.6029 72.0882Z" fill="#FFB6B6"/>
<path id="Vector_19" d="M89.3741 48.2735C89.2562 48.3019 91.179 46.4249 91.2609 46.3839C93.1477 45.4391 91.209 54.6745 89.8458 54.4147C86.4921 53.7769 85.044 52.5109 83.7421 55.6713C83.3789 56.5499 83.1525 57.542 82.445 58.1703C81.4733 59.0253 79.8601 58.9545 79.0677 59.9748C78.4308 60.7968 78.6148 62.0062 79.0865 62.9321C79.5582 63.8627 80.2752 64.6516 80.7044 65.6011C81.1856 66.6688 79.1337 70.0653 78.3507 71.9738V71.9785L78.346 71.9897C78.138 72.4903 77.6435 71.0482 77.1215 70.9043C76.4969 70.732 75.5767 72.2092 74.5818 71.9407C74.5771 71.9407 74.5724 71.936 74.5677 71.936C73.6196 71.6715 72.563 71.388 71.5158 71.1046H71.5111C68.563 70.3015 67.8178 71.4542 67.6763 71.4211L65.8461 69.5032C65.218 69.0452 65.289 67.5666 64.8461 67.1695C64.4839 66.8447 63.5809 67.5952 63.3148 67.283C62.0099 65.7524 61.7097 64.2213 60.9405 61.1984C60.2376 58.4348 58.7801 50.1631 61.7754 49.7899C64.6008 49.4356 62.5348 45.4958 65.3791 45.6422C65.2093 44.9242 65.5253 44.1542 66.0395 43.6251C66.5489 43.0913 67.2281 42.7606 67.9121 42.4771C71.2847 41.0977 70.7234 39.912 74.28 40.7151C74.6337 40.2191 79.7704 40.5497 80.412 40.7151C80.4591 40.7245 78.8224 41.1167 81.3554 40.7151C81.261 41.2962 82.8647 41.5513 82.7704 42.1323C83.1242 41.6552 86.9261 44.3951 87.0157 44.9667C87.1336 45.68 86.0581 45.3163 86.7751 45.4249C87.1996 45.4911 87.926 46.3556 87.8553 46.7854C88.1619 46.3697 88.4685 45.9587 88.7798 45.543C88.8364 45.5477 88.8883 45.5572 88.9449 45.5666C90.3788 45.8406 88.7349 50.5353 88.794 49.0719C88.9024 46.3839 90.8034 47.957 89.3741 48.2735Z" fill="#2F2E41"/>
</g>
<path id="Vector_20" d="M141.902 121.359C142.007 121.62 142.372 121.62 142.478 121.359C143.214 119.541 144.263 117.504 145.403 115.948C145.586 115.699 145.334 115.366 145.044 115.471L142.599 116.357V101.199H141.781V116.357L139.335 115.471C139.045 115.366 138.793 115.699 138.975 115.948C140.116 117.504 141.165 119.541 141.902 121.359Z" fill="#3F3D56"/>
<path id="Vector_21" d="M157.935 136.966C157.856 137.236 158.142 137.463 158.386 137.325C160.092 136.359 162.178 135.418 164.037 134.91C164.335 134.828 164.345 134.411 164.052 134.312L161.587 133.483L171 121.613L170.359 121.104L160.947 132.973L159.581 130.756C159.419 130.493 159.016 130.597 159.004 130.906C158.931 132.835 158.487 135.083 157.935 136.966Z" fill="#3F3D56"/>
<g id="Group_7">
<path id="Vector_22" d="M150.278 147.081H134.372C133.384 147.081 132.581 146.277 132.581 145.288C130.478 139.131 130.519 133.099 132.581 127.184C132.581 126.195 133.384 125.39 134.372 125.39H150.278C151.266 125.39 152.069 126.195 152.069 127.184V145.288C152.069 146.277 151.266 147.081 150.278 147.081Z" fill="#E6E6E6"/>
<path id="Vector_23" d="M137.78 125.924C135.203 125.924 133.115 128.016 133.115 130.597V144.903C133.115 145.811 133.849 146.547 134.755 146.547H143.552C147.961 146.547 151.535 142.967 151.535 138.551V127.568C151.535 126.66 150.801 125.924 149.894 125.924H137.78Z" fill="white"/>
<g id="Group_8">
<path id="Vector_24" d="M146.029 131.185H138.582C138.394 131.185 138.241 131.032 138.241 130.844C138.241 130.656 138.394 130.503 138.582 130.503H146.029C146.217 130.503 146.369 130.656 146.369 130.844C146.369 131.032 146.217 131.185 146.029 131.185Z" fill="#E6E6E6"/>
<path id="Vector_25" d="M146.029 138.457H138.582C138.394 138.457 138.241 138.304 138.241 138.116C138.241 137.928 138.394 137.775 138.582 137.775H146.029C146.217 137.775 146.369 137.928 146.369 138.116C146.369 138.304 146.217 138.457 146.029 138.457Z" fill="#E6E6E6"/>
<path id="Vector_26" d="M150.025 134.824H134.586C134.398 134.824 134.245 134.671 134.245 134.483C134.245 134.295 134.398 134.142 134.586 134.142H150.025C150.213 134.142 150.366 134.295 150.366 134.483C150.366 134.671 150.213 134.824 150.025 134.824Z" fill="#E6E6E6"/>
</g>
<path id="Vector_27" d="M150.207 141.413H143.765C143.577 141.413 143.425 141.26 143.425 141.072C143.425 140.884 143.577 140.731 143.765 140.731H150.207C150.395 140.731 150.548 140.884 150.548 141.072C150.548 141.26 150.395 141.413 150.207 141.413Z" fill="#E6E6E6"/>
</g>
<g id="Group_9">
<path id="Vector_28" d="M5.87884 11.6791C9.12564 11.6791 11.7577 9.09861 11.7577 5.91546C11.7577 2.73231 9.12564 0.151855 5.87884 0.151855C2.63205 0.151855 0 2.73231 0 5.91546C0 9.09861 2.63205 11.6791 5.87884 11.6791Z" fill="#6C63FF"/>
<path id="Vector_29" d="M53.0071 3.94352H21.3636C20.278 3.94352 19.3948 3.05896 19.3948 1.97176C19.3948 0.884564 20.278 0 21.3636 0H53.0071C54.0927 0 54.9759 0.884564 54.9759 1.97176C54.9759 3.05896 54.0927 3.94352 53.0071 3.94352Z" fill="#F2F2F2"/>
<path id="Vector_30" d="M77.7018 10.6173H21.3636C20.278 10.6173 19.3948 9.73278 19.3948 8.64559C19.3948 7.55839 20.278 6.67383 21.3636 6.67383H77.7018C78.7874 6.67383 79.6706 7.55839 79.6706 8.64559C79.6706 9.73278 78.7874 10.6173 77.7018 10.6173Z" fill="#F2F2F2"/>
</g>
</g>
<defs>
<clipPath id="clip0_154_524">
<rect width="171" height="207" fill="white"/>
</clipPath>
</defs>
</svg>
