<svg width="413" height="288" viewBox="0 0 413 288" fill="none" xmlns="http://www.w3.org/2000/svg">
<g clip-path="url(#clip0_269_4)">
<path d="M82.2875 288C127.734 288 164.575 285.196 164.575 281.737C164.575 278.277 127.734 275.473 82.2875 275.473C36.8414 275.473 0 278.277 0 281.737C0 285.196 36.8414 288 82.2875 288Z" fill="#E6E6E6"/>
<path d="M62.899 63.9018C77.2196 57.7969 95.056 61.6649 112.475 64.3495C112.637 61.0985 114.602 57.1419 112.544 54.8738C110.043 52.1183 110.274 49.2231 111.778 46.3111C115.626 38.8649 110.113 30.9417 104.547 24.3537C103.293 22.8721 101.707 21.708 99.9194 20.956C98.1317 20.2039 96.1922 19.8851 94.2585 20.0254L83.9478 20.7636C81.4388 20.9432 79.0444 21.8865 77.0849 23.4673C75.1255 25.0482 73.6944 27.1911 72.9833 29.6093C70.5213 32.9653 69.2036 36.312 70.0332 39.6413C66.3456 42.1671 65.726 45.2161 67.3831 48.6532C68.7882 50.8173 68.7733 52.9239 67.3192 54.9722C65.4095 57.5836 63.9469 60.4955 62.9912 63.5883L62.899 63.9018Z" fill="#2F2E41"/>
<path d="M403.213 248.971H111.344C108.748 248.971 106.259 247.938 104.424 246.098C102.588 244.259 101.557 241.764 101.557 239.162C207.36 226.838 311.174 226.838 413 239.162C413 241.764 411.969 244.259 410.134 246.098C408.298 247.938 405.809 248.971 403.213 248.971Z" fill="#2F2E41"/>
<path d="M413 239.74L101.557 239.163L137.652 178.29L137.825 178.002V43.8458C137.825 42.2174 138.145 40.605 138.767 39.1006C139.388 37.5961 140.3 36.2292 141.448 35.0777C142.597 33.9263 143.961 33.013 145.462 32.3899C146.963 31.7668 148.572 31.4462 150.197 31.4463H362.634C364.258 31.4462 365.867 31.7668 367.368 32.3899C368.869 33.013 370.233 33.9263 371.382 35.0777C372.531 36.2292 373.442 37.5961 374.064 39.1006C374.685 40.605 375.005 42.2174 375.005 43.8458V178.925L413 239.74Z" fill="#3F3D56"/>
<path d="M149.915 40.1006C148.846 40.1018 147.822 40.5277 147.066 41.2849C146.311 42.0421 145.886 43.0687 145.885 44.1395V166.462C145.886 167.532 146.311 168.559 147.066 169.316C147.822 170.073 148.846 170.499 149.915 170.5H364.643C365.711 170.499 366.736 170.073 367.491 169.316C368.246 168.559 368.671 167.532 368.673 166.462V44.1395C368.671 43.0687 368.247 42.0421 367.491 41.2849C366.736 40.5278 365.711 40.1018 364.643 40.1006H149.915Z" fill="white"/>
<path d="M150.814 186.656C150.484 186.657 150.161 186.752 149.883 186.93C149.605 187.109 149.384 187.363 149.245 187.664L138.123 211.897C138.002 212.161 137.949 212.451 137.969 212.741C137.989 213.03 138.082 213.31 138.238 213.555C138.394 213.799 138.609 214 138.863 214.139C139.117 214.279 139.402 214.352 139.692 214.352H373.582C373.877 214.352 374.166 214.276 374.423 214.133C374.68 213.989 374.897 213.782 375.051 213.531C375.206 213.28 375.294 212.993 375.307 212.699C375.321 212.404 375.258 212.111 375.127 211.847L363.037 187.613C362.895 187.325 362.675 187.083 362.402 186.914C362.129 186.744 361.814 186.655 361.493 186.656H150.814Z" fill="#2F2E41"/>
<path d="M256.415 38.0816C257.846 38.0816 259.006 36.9191 259.006 35.4851C259.006 34.0511 257.846 32.8887 256.415 32.8887C254.985 32.8887 253.825 34.0511 253.825 35.4851C253.825 36.9191 254.985 38.0816 256.415 38.0816Z" fill="white"/>
<path d="M233.426 218.968C233.046 218.968 232.677 219.094 232.376 219.325C232.074 219.557 231.857 219.881 231.758 220.249L228.968 230.634C228.899 230.891 228.89 231.16 228.942 231.421C228.993 231.681 229.104 231.927 229.265 232.137C229.426 232.348 229.634 232.519 229.872 232.637C230.109 232.754 230.371 232.816 230.636 232.816H283.693C283.968 232.816 284.239 232.75 284.484 232.623C284.729 232.497 284.94 232.313 285.099 232.089C285.259 231.864 285.363 231.604 285.402 231.331C285.441 231.058 285.414 230.779 285.324 230.518L281.737 220.132C281.62 219.792 281.399 219.498 281.107 219.289C280.814 219.08 280.464 218.968 280.105 218.968H233.426Z" fill="#2F2E41"/>
<path d="M375.005 175.982V178.29H137.652L137.831 178.002V175.982H375.005Z" fill="#2F2E41"/>
<path d="M368.385 80.7787C390.641 80.7787 408.683 62.6957 408.683 40.3893C408.683 18.0829 390.641 0 368.385 0C346.129 0 328.087 18.0829 328.087 40.3893C328.087 62.6957 346.129 80.7787 368.385 80.7787Z" fill="#6C63FF"/>
<path d="M385.08 57.9874H351.69C351.08 57.9868 350.494 57.7434 350.063 57.3107C349.631 56.878 349.388 56.2913 349.387 55.6794V35.4847C349.388 34.8728 349.631 34.2861 350.063 33.8535C350.494 33.4208 351.08 33.1774 351.69 33.1768H385.08C385.69 33.1774 386.275 33.4208 386.707 33.8535C387.139 34.2861 387.382 34.8728 387.382 35.4847V55.6794C387.382 56.2913 387.139 56.878 386.707 57.3107C386.275 57.7434 385.69 57.9868 385.08 57.9874ZM351.69 35.4847V55.6794H385.081L385.08 35.4847L351.69 35.4847Z" fill="white"/>
<path d="M378.747 35.4846H358.022V26.2527C358.022 19.566 362.381 14.7129 368.385 14.7129C374.389 14.7129 378.747 19.566 378.747 26.2527L378.747 35.4846ZM360.325 33.1766H376.444V26.2527C376.444 20.8172 373.13 17.0209 368.385 17.0209C363.639 17.0209 360.325 20.8172 360.325 26.2527L360.325 33.1766Z" fill="white"/>
<path d="M368.385 47.3132C369.657 47.3132 370.687 46.2799 370.687 45.0052C370.687 43.7306 369.657 42.6973 368.385 42.6973C367.113 42.6973 366.082 43.7306 366.082 45.0052C366.082 46.2799 367.113 47.3132 368.385 47.3132Z" fill="white"/>
<path d="M340.254 129.01H174.304C173.489 129.009 172.708 128.684 172.132 128.107C171.556 127.529 171.232 126.746 171.231 125.93V84.671C171.232 83.8543 171.556 83.0715 172.132 82.494C172.708 81.9166 173.489 81.5918 174.304 81.5908H340.254C341.069 81.5918 341.85 81.9166 342.426 82.494C343.002 83.0715 343.326 83.8543 343.327 84.671V125.93C343.326 126.746 343.002 127.529 342.426 128.107C341.85 128.684 341.069 129.009 340.254 129.01ZM174.304 82.8229C173.815 82.8234 173.346 83.0183 173.001 83.3648C172.655 83.7112 172.461 84.181 172.46 84.671V125.93C172.461 126.42 172.655 126.89 173.001 127.236C173.346 127.582 173.815 127.777 174.304 127.778H340.254C340.743 127.777 341.211 127.582 341.557 127.236C341.903 126.89 342.097 126.42 342.098 125.93V84.671C342.097 84.181 341.903 83.7112 341.557 83.3647C341.211 83.0183 340.743 82.8234 340.254 82.8229L174.304 82.8229Z" fill="#E6E6E6"/>
<path d="M200.089 116.265C207.003 116.265 212.607 110.647 212.607 103.718C212.607 96.7883 207.003 91.1709 200.089 91.1709C193.175 91.1709 187.571 96.7883 187.571 103.718C187.571 110.647 193.175 116.265 200.089 116.265Z" fill="#E6E6E6"/>
<path d="M229 95.3535C228.726 95.3531 228.454 95.4068 228.201 95.5117C227.947 95.6166 227.717 95.7706 227.523 95.9648C227.329 96.1591 227.175 96.3897 227.07 96.6437C226.965 96.8976 226.911 97.1698 226.911 97.4447C226.911 97.7196 226.965 97.9917 227.07 98.2457C227.175 98.4996 227.329 98.7303 227.523 98.9245C227.717 99.1187 227.947 99.2727 228.201 99.3776C228.454 99.4825 228.726 99.5362 229 99.5358H327.359C327.912 99.5358 328.443 99.3155 328.834 98.9233C329.225 98.5311 329.445 97.9993 329.445 97.4447C329.445 96.8901 329.225 96.3582 328.834 95.966C328.443 95.5738 327.912 95.3535 327.359 95.3535H229Z" fill="#E6E6E6"/>
<path d="M229 107.9C228.447 107.9 227.916 108.121 227.525 108.513C227.134 108.905 226.914 109.437 226.914 109.992C226.914 110.546 227.134 111.078 227.525 111.47C227.916 111.862 228.447 112.083 229 112.083H271.324C271.878 112.083 272.408 111.862 272.8 111.47C273.191 111.078 273.411 110.546 273.411 109.992C273.411 109.437 273.191 108.905 272.8 108.513C272.408 108.121 271.878 107.9 271.324 107.9H229Z" fill="#E6E6E6"/>
<path d="M137.244 108.746L106.567 125.092L106.179 111.47C116.192 109.795 125.718 106.878 134.526 102.129L137.734 94.1843C138.084 93.3186 138.652 92.5589 139.383 91.9798C140.114 91.4007 140.983 91.022 141.904 90.8811C142.825 90.7401 143.767 90.8416 144.637 91.1756C145.507 91.5097 146.276 92.0648 146.867 92.7865C147.733 93.8424 148.165 95.1885 148.078 96.5521C147.99 97.9156 147.388 99.1948 146.394 100.13L137.244 108.746Z" fill="#FFB8B8"/>
<path d="M62.2876 203.124C62.0638 202.302 62.0163 201.441 62.1482 200.599C62.2801 199.756 62.5884 198.951 63.0528 198.237L69.7917 187.871C71.3856 185.42 73.8313 183.649 76.6544 182.902C79.4774 182.156 82.4764 182.487 85.0696 183.831C82.2374 188.663 82.6322 192.902 86.0477 196.586C80.7456 199.18 75.8452 202.528 71.4984 206.527C70.7048 207.069 69.7935 207.414 68.8403 207.531C67.8871 207.649 66.9196 207.537 66.0185 207.204C65.1173 206.871 64.3086 206.327 63.6596 205.617C63.0107 204.908 62.5403 204.053 62.2876 203.124Z" fill="#2F2E41"/>
<path d="M138.641 189.571C137.622 191.275 136.182 192.687 134.461 193.672C132.74 194.657 130.795 195.183 128.813 195.198L84.0446 195.538L82.103 184.251L101.907 178.413L85.2096 165.569L103.46 144.163L136.61 175.13C138.547 176.94 139.806 179.362 140.176 181.99C140.546 184.619 140.004 187.295 138.641 189.571Z" fill="#2F2E41"/>
<path d="M77.0548 266.762H66.5702C57.1565 202.089 47.5744 137.234 75.8898 113.027L109.285 118.476L105.014 146.888L86.3744 168.294L77.0548 266.762Z" fill="#2F2E41"/>
<path d="M86.2712 281.412C85.4505 281.637 84.5916 281.684 83.7511 281.552C82.9107 281.42 82.1076 281.111 81.3948 280.646L70.0107 279.112C67.5645 277.514 65.7975 275.063 65.0525 272.234C64.3076 269.404 64.6378 266.399 65.9792 263.799C70.8002 266.638 75.0293 266.242 78.7043 262.818C81.301 268.073 85.5795 267.753 89.6655 272.18C90.2065 272.976 90.5501 273.889 90.6676 274.844C90.7852 275.8 90.6732 276.769 90.3411 277.673C90.0091 278.576 89.4664 279.386 88.7585 280.037C88.0506 280.687 87.1978 281.159 86.2712 281.412Z" fill="#2F2E41"/>
<path d="M101.907 69.8257L82.4912 65.1552C85.7159 58.5396 85.9814 51.1783 84.4328 43.3599L97.6356 42.9707C98.0493 52.693 99.3009 61.7761 101.907 69.8257Z" fill="#FFB8B8"/>
<path d="M107.243 130.195C93.1093 139.848 83.1225 130.525 75.5015 116.141C76.5605 107.339 74.8458 96.8059 71.6701 85.3608C70.2577 80.3127 70.785 74.9174 73.1478 70.2399C75.5107 65.5624 79.5373 61.9428 84.4328 60.0957L101.13 67.1014C115.309 78.6846 118.099 91.2315 112.78 104.465L107.243 130.195Z" fill="#6C63FF"/>
<path d="M66.5701 79.5559L51.0374 87.7292L78.608 104.076L82.4443 113.56C82.7003 114.193 82.8251 114.872 82.8109 115.555C82.7967 116.238 82.6439 116.91 82.3618 117.532C82.0797 118.154 81.6741 118.712 81.17 119.171C80.6658 119.631 80.0735 119.983 79.4292 120.205C78.6968 120.459 77.9159 120.538 77.1476 120.438C76.3793 120.339 75.6446 120.062 75.0008 119.63C74.3571 119.198 73.8219 118.622 73.4371 117.948C73.0523 117.275 72.8284 116.52 72.7829 115.745L72.3949 109.135L37.353 97.5451C36.1724 97.1546 35.0959 96.5 34.2051 95.6307C33.3142 94.7615 32.6324 93.7005 32.2113 92.528C31.5974 90.819 31.5662 88.9543 32.1224 87.2256C32.6787 85.4969 33.791 84.0017 35.2854 82.9742L63.4636 63.5986L66.5701 79.5559Z" fill="#FFB8B8"/>
<path d="M82.1029 81.1123C75.6248 78.2669 69.7341 81.3578 62.2987 83.8367L61.1338 63.209C68.5168 59.265 75.556 58.2016 82.103 61.263L82.1029 81.1123Z" fill="#6C63FF"/>
<path d="M89.8521 53.1879C96.6984 53.1879 102.248 47.6253 102.248 40.7634C102.248 33.9015 96.6984 28.3389 89.8521 28.3389C83.0058 28.3389 77.4558 33.9015 77.4558 40.7634C77.4558 47.6253 83.0058 53.1879 89.8521 53.1879Z" fill="#FFB8B8"/>
<path d="M104.682 39.1965C92.4087 40.4013 83.0564 38.3894 77.0793 32.6611V28.0479H103.641L104.682 39.1965Z" fill="#2F2E41"/>
</g>
<defs>
<clipPath id="clip0_269_4">
<rect width="413" height="288" fill="white"/>
</clipPath>
</defs>
</svg>
