<svg width="158" height="149" viewBox="0 0 158 149" fill="none" xmlns="http://www.w3.org/2000/svg">
<g id="undraw_feeling_proud_qne1 1" clip-path="url(#clip0_154_2)">
<path id="Vector" d="M114.709 84.5518V125.712L121.583 136.932L122.107 137.786H149.232L149.78 84.5518H114.709Z" fill="#E6E6E6"/>
<path id="Vector_2" opacity="0.1" d="M114.709 84.5518V125.712L121.583 136.932L122.005 84.5518H114.709Z" fill="black"/>
<path id="Vector_3" d="M49.2239 83.4536V124.614L42.3492 135.834L41.826 136.688H14.7005L14.1525 83.4536H49.2239Z" fill="#E6E6E6"/>
<path id="Vector_4" opacity="0.1" d="M49.2238 83.4536V124.614L42.3491 135.834L41.9272 83.4536H49.2238Z" fill="black"/>
<path id="Vector_5" d="M158 82.6307V85.1001H10.5906V81.5329L24.2903 74.3984H145.944L158 82.6307Z" fill="#E6E6E6"/>
<path id="Vector_6" opacity="0.1" d="M158 82.6305V85.1H10.5906V81.5327L158 82.6305Z" fill="black"/>
<path id="Vector_7" d="M31.6883 94.9789H25.1123L22.3723 93.0581H34.7022L31.6883 94.9789Z" fill="#3F3D56"/>
<path id="Vector_8" d="M31.6883 102.936H25.1123L22.3723 101.016H34.7022L31.6883 102.936Z" fill="#3F3D56"/>
<path id="Vector_9" d="M31.6883 114.187H25.1123L22.3723 112.266H34.7022L31.6883 114.187Z" fill="#3F3D56"/>
<path id="Vector_10" d="M31.6883 125.437H25.1123L22.3723 123.517H34.7022L31.6883 125.437Z" fill="#3F3D56"/>
<path id="Vector_11" d="M132.244 96.0761H138.82L141.56 94.1553H129.23L132.244 96.0761Z" fill="#3F3D56"/>
<path id="Vector_12" d="M132.244 104.034H138.82L141.56 102.113H129.23L132.244 104.034Z" fill="#3F3D56"/>
<path id="Vector_13" d="M132.244 115.285H138.82L141.56 113.364H129.23L132.244 115.285Z" fill="#3F3D56"/>
<path id="Vector_14" d="M132.244 126.535H138.82L141.56 124.614H129.23L132.244 126.535Z" fill="#3F3D56"/>
<path id="Vector_15" d="M136.723 26.8008H81.3627C81.0877 26.8007 80.8155 26.855 80.5614 26.9603C80.3074 27.0657 80.0766 27.2201 79.8822 27.4148C79.6878 27.6095 79.5335 27.8407 79.4283 28.0951C79.3231 28.3495 79.269 28.6222 79.269 28.8975V66.2448C79.269 66.5201 79.3231 66.7928 79.4283 67.0472C79.5335 67.3016 79.6878 67.5328 79.8822 67.7275C80.0766 67.9222 80.3074 68.0766 80.5614 68.182C80.8155 68.2874 81.0877 68.3416 81.3627 68.3415H102.378L101.59 73.3757C101.59 73.3757 97.091 75.7696 100.255 75.84C103.418 75.9104 118.323 75.84 118.323 75.84C118.323 75.84 121.205 75.84 116.635 73.3053L115.895 68.3415H136.723C136.998 68.3416 137.27 68.2874 137.524 68.182C137.778 68.0766 138.009 67.9222 138.203 67.7275C138.398 67.5328 138.552 67.3016 138.657 67.0472C138.762 66.7928 138.816 66.5201 138.816 66.2448V28.8975C138.816 28.6222 138.762 28.3495 138.657 28.0951C138.552 27.8407 138.398 27.6095 138.203 27.4148C138.009 27.2201 137.778 27.0657 137.524 26.9603C137.27 26.855 136.998 26.8007 136.723 26.8008Z" fill="#3F3D56"/>
<path id="Vector_16" d="M136.813 29.0186H81.2727V60.1389H136.813V29.0186Z" fill="#F2F2F2"/>
<path id="Vector_17" d="M109.042 28.3847C109.237 28.3847 109.394 28.2271 109.394 28.0327C109.394 27.8383 109.237 27.6807 109.042 27.6807C108.848 27.6807 108.691 27.8383 108.691 28.0327C108.691 28.2271 108.848 28.3847 109.042 28.3847Z" fill="#F2F2F2"/>
<path id="Vector_18" d="M109.043 66.8279C109.78 66.8279 110.378 66.2289 110.378 65.4901C110.378 64.7513 109.78 64.1523 109.043 64.1523C108.305 64.1523 107.707 64.7513 107.707 65.4901C107.707 66.2289 108.305 66.8279 109.043 66.8279Z" fill="#F2F2F2"/>
<path id="Vector_19" d="M106.961 79.6421V80.3463H69.1377V79.7829L69.1897 79.6421L70.1219 77.1074H106.188L106.961 79.6421Z" fill="#3F3D56"/>
<path id="Vector_20" d="M121.517 78.9527C121.448 79.2477 121.188 79.5589 120.6 79.8532C118.491 80.9093 114.202 79.5715 114.202 79.5715C114.202 79.5715 110.898 79.0083 110.898 77.5297C110.991 77.4661 111.087 77.4085 111.188 77.3572C112.074 76.8874 115.014 75.7281 120.228 77.4063C120.612 77.527 120.955 77.7522 121.218 78.0566C121.335 78.1718 121.423 78.313 121.475 78.4687C121.527 78.6245 121.541 78.7903 121.517 78.9527Z" fill="#3F3D56"/>
<path id="Vector_21" opacity="0.1" d="M121.517 78.9527C118.935 79.9433 116.634 80.0172 114.273 78.3746C113.38 77.7134 112.298 77.3568 111.188 77.3572C112.074 76.8874 115.015 75.7281 120.228 77.4063C120.612 77.527 120.955 77.7522 121.219 78.0566C121.336 78.1718 121.423 78.313 121.475 78.4687C121.527 78.6245 121.541 78.7903 121.517 78.9527Z" fill="black"/>
<path id="Vector_22" d="M118.28 78.3748C118.785 78.3748 119.194 78.2487 119.194 78.0932C119.194 77.9376 118.785 77.8115 118.28 77.8115C117.775 77.8115 117.366 77.9376 117.366 78.0932C117.366 78.2487 117.775 78.3748 118.28 78.3748Z" fill="#F2F2F2"/>
<path id="Vector_23" opacity="0.1" d="M106.961 79.6421V80.3463H69.1377V79.7829L69.1897 79.6421H106.961Z" fill="black"/>
<path id="Vector_24" d="M21.0303 3.62108e-05C20.6465 -0.0315276 20.2621 0.0544672 19.9281 0.246626C19.6002 0.471522 19.3935 0.865517 19.1826 1.23215C18.376 2.65069 17.284 3.88599 15.9758 4.85983C15.023 5.5589 13.8116 6.43056 13.9746 7.71947C14.0606 8.14512 14.2176 8.55321 14.439 8.9266C15.318 10.7037 17.7167 12.0769 17.4808 14.1047C18.3541 12.6405 17.186 11.9165 18.0593 10.4523C18.4752 9.755 19.1977 8.96789 19.8256 9.40579C20.0359 9.55241 20.1739 9.81539 20.3928 9.94404C20.9152 10.251 21.4709 9.66414 21.9333 9.24845C23.5277 7.81501 25.7952 8.19054 27.7793 8.63717C28.716 8.84802 29.7448 9.12465 30.2985 10.0212C31.0266 11.2 29.6069 12.4732 29.2481 13.806C29.2189 13.9195 29.2175 14.0385 29.2441 14.1527C29.2707 14.2669 29.3246 14.373 29.4011 14.4618C29.4776 14.5506 29.5744 14.6196 29.6833 14.6628C29.7922 14.7059 29.9099 14.7221 30.0264 14.7098C30.6217 14.6509 31.327 14.6027 31.3622 14.3411C32.1112 14.3678 33.029 14.2828 33.3499 13.5017C33.448 13.1927 33.4999 12.8708 33.5038 12.5465C33.6216 11.2344 34.1776 10.0374 34.546 8.78863C34.9144 7.53983 35.0746 6.07633 34.4529 4.96913C34.231 4.60075 33.9567 4.26678 33.6384 3.9778C30.1107 0.558798 25.4725 -0.00503886 21.0303 3.62108e-05Z" fill="#2F2E41"/>
<path id="Vector_25" d="M18.248 16.6659C18.248 16.6659 19.0152 23.0689 16.202 23.5812C13.3889 24.0934 18.7594 32.8015 18.7594 32.8015L31.5465 34.3382L28.4776 24.0934C28.4776 24.0934 26.4317 23.3251 27.7104 18.2026C28.9891 13.0802 18.248 16.6659 18.248 16.6659Z" fill="#FFB8B8"/>
<path id="Vector_26" d="M10.4479 126.669L11.4709 140.756H16.8413L15.307 126.669H10.4479Z" fill="#FFB8B8"/>
<path id="Vector_27" d="M49.832 100.033L50.5992 111.815L56.4814 109.254L54.1795 99.521L49.832 100.033Z" fill="#FFB8B8"/>
<path id="Vector_28" d="M6.61182 72.8845C6.61182 72.8845 6.86755 87.7395 8.40201 92.6058C9.93646 97.4721 9.68071 97.7282 9.42497 98.4965C9.16923 99.2649 8.91349 98.7527 8.91349 100.033C8.91349 101.314 8.40201 121.547 8.91349 123.34C9.42497 125.133 7.37905 128.206 8.91349 128.463C10.4479 128.719 17.6087 128.463 17.8644 126.926C18.1201 125.389 15.8185 124.877 16.8414 123.852C17.8644 122.828 19.3988 101.826 19.3988 101.826L22.9792 87.2273L29.6285 79.5436H43.6942L48.0418 96.4476C48.0418 96.4476 46.2516 101.314 47.5303 101.314C48.809 101.314 56.4812 102.851 56.4812 97.2159C56.4812 91.5813 53.9238 74.9335 53.4123 74.4212C52.9009 73.909 53.6681 72.1162 52.9008 71.3478C52.1336 70.5794 43.1827 65.2009 39.8581 64.1764C36.5335 63.152 31.8696 61.9326 31.8696 61.9326L6.61182 72.8845Z" fill="#2F2E41"/>
<path id="Vector_29" d="M56.4811 107.204C56.4811 107.204 52.645 105.924 50.8549 109.766C49.0647 113.607 49.8319 114.632 49.8319 114.632C49.8319 114.632 55.7139 116.681 56.7369 115.656C57.182 115.211 58.5952 115.056 60.0499 115.023C62.2656 114.973 62.855 111.834 60.7625 111.103C60.7001 111.081 60.6369 111.062 60.573 111.046C58.5271 110.534 56.4811 107.204 56.4811 107.204Z" fill="#2F2E41"/>
<path id="Vector_30" d="M24.0022 20.8921C28.2394 20.8921 31.6744 17.4521 31.6744 13.2085C31.6744 8.96497 28.2394 5.5249 24.0022 5.5249C19.7649 5.5249 16.33 8.96497 16.33 13.2085C16.33 17.4521 19.7649 20.8921 24.0022 20.8921Z" fill="#FFB8B8"/>
<path id="Vector_31" d="M14.0283 26.7829C14.0283 26.7829 26.5596 29.3441 29.6285 25.2462C32.6973 21.1483 33.976 36.7716 33.976 36.7716L35.5105 53.1633L33.2088 62.1275C33.2088 62.1275 21.189 71.8601 17.3529 72.6284C13.5168 73.3968 7.63477 73.909 7.63477 73.909C7.63477 73.909 9.42496 45.4797 9.42496 44.9674C9.42496 44.4552 14.0283 26.7829 14.0283 26.7829Z" fill="#6C63FF"/>
<path id="Vector_32" d="M17.8394 21.9794C17.8394 21.9794 15.0513 20.3799 14.2841 21.9166C13.5168 23.4533 6.3561 27.2951 5.58888 27.2951C4.82166 27.2951 7.12332 48.5531 6.10036 51.1143C5.0774 53.6755 0.21833 72.3723 3.03148 73.909C5.84462 75.4457 3.7987 72.3723 6.61184 76.2141C9.42499 80.0559 23.235 80.0559 24.0022 78.5192C24.7694 76.9824 17.8644 65.457 19.1431 54.7C20.4218 43.9429 22.4678 29.0879 20.6776 27.039C18.8874 24.99 17.8394 21.9794 17.8394 21.9794Z" fill="#2F2E41"/>
<path id="Vector_33" d="M27.071 23.7092L27.4273 22.4814C27.4273 22.4814 38.0679 26.0142 38.5794 28.3193C39.0909 30.6244 38.8351 46.76 37.0449 48.0406C35.2547 49.3212 32.6973 51.3702 34.4875 54.4436C36.2777 57.517 38.3236 60.8466 39.8581 61.1027C41.3925 61.3588 44.2057 63.1517 43.4384 64.9445C42.6712 66.7374 33.4646 63.4078 33.4646 63.4078C33.4646 63.4078 27.3268 58.7976 27.5825 51.6263C27.8383 44.4549 27.071 23.7092 27.071 23.7092Z" fill="#2F2E41"/>
<path id="Vector_34" d="M36.022 53.9316L29.8842 65.4571C29.8842 65.4571 20.9333 74.6774 26.0481 75.7019C31.1629 76.7263 33.9761 67.2499 33.9761 67.2499L40.6253 57.7735L36.022 53.9316Z" fill="#FFB8B8"/>
<path id="Vector_35" d="M21.4041 2.01063C21.0949 1.98768 20.7851 2.04785 20.5068 2.18492C20.2553 2.36893 20.0479 2.60692 19.8999 2.88148C19.2178 3.90908 18.3286 4.78244 17.2895 5.44549C16.5138 5.9396 15.5277 6.55567 15.6604 7.46667C15.7325 7.77211 15.8607 8.06144 16.0385 8.31986C16.7565 9.58857 17.0424 11.057 16.8528 12.5029L18.9856 9.39822C19.3241 8.90538 19.9123 8.34905 20.4234 8.65856C20.5946 8.76219 20.707 8.94806 20.8852 9.03899C21.3104 9.25596 21.7627 8.84117 22.1392 8.54735C23.4371 7.5342 25.2829 7.79963 26.898 8.1153C27.6605 8.26432 28.4981 8.45985 28.9488 9.09355C29.6979 10.1466 28.9157 11.6683 29.3529 12.8848C29.4753 12.799 29.5792 12.6895 29.6585 12.5627C29.7378 12.4359 29.7909 12.2945 29.8147 12.1468C30.4244 12.1657 31.1715 12.1056 31.4328 11.5535C31.5122 11.3372 31.5546 11.1089 31.558 10.8784C31.6539 9.95103 32.1066 9.10499 32.4064 8.22235C32.7063 7.33971 32.8367 6.30531 32.3306 5.52275C32.1455 5.2576 31.9221 5.02146 31.6676 4.82208C28.7959 2.40555 25.0202 2.00704 21.4041 2.01063Z" fill="#2F2E41"/>
<path id="Vector_36" d="M36.022 27.2949L38.4048 27.9283C38.4048 27.9283 43.95 42.1499 42.6713 51.8825C41.3926 61.615 40.6253 59.5661 40.6253 59.5661C40.6253 59.5661 38.5794 54.9559 33.9761 55.9804L36.022 27.2949Z" fill="#2F2E41"/>
<path id="Vector_37" d="M10.8022 138.894C10.1855 139.734 10.3091 140.933 9.76284 141.82C9.28931 142.589 8.39689 142.992 7.8046 143.673C7.61561 143.9 7.44713 144.143 7.30115 144.399C6.75171 145.32 6.30512 146.502 6.84624 147.428C7.28154 148.174 8.19652 148.465 9.03566 148.664C10.0963 148.915 11.1983 149.115 12.2711 148.924C13.344 148.732 14.3926 148.074 14.7751 147.052C14.8503 146.795 14.9396 146.542 15.0428 146.295C15.6243 145.149 17.4483 145.136 18.0434 143.997C18.4599 143.2 18.077 142.236 17.6944 141.421L16.5255 138.935C16.1377 138.109 14.5652 138.584 13.7455 138.386C12.6764 138.128 11.5713 137.844 10.8022 138.894Z" fill="#2F2E41"/>
<path id="Vector_38" d="M2.26416 59.0541L13.0053 75.7019C13.0053 75.7019 19.6545 84.1538 21.7004 80.312C23.7464 76.4702 14.5397 70.0672 14.5397 70.0672L7.63471 57.2612L2.26416 59.0541Z" fill="#FFB8B8"/>
<path id="Vector_39" d="M7.63476 27.8072L5.58884 27.2949C5.58884 27.2949 1.497 28.5755 0.474036 33.954C-0.548925 39.3326 0.218294 60.8467 1.497 61.1028C2.7757 61.3589 7.81249 57.3568 8.61872 58.2053C9.42495 59.0538 6.86754 54.6998 7.63476 52.3947C8.40197 50.0896 7.63476 27.8072 7.63476 27.8072Z" fill="#2F2E41"/>
<g id="Group 13">
<path id="Rectangle 55" d="M103.786 39.2397H97.1758V40.8334H103.786V39.2397Z" fill="#6C63FF"/>
<path id="Rectangle 56" d="M126.676 39.2397H124.35V40.8334H126.676V39.2397Z" fill="#6C63FF"/>
<path id="Rectangle 57" d="M131.327 39.2397H129.001V40.8334H131.327V39.2397Z" fill="#6C63FF"/>
<path id="Rectangle 58" d="M121.902 39.2397H106.111V40.8334H121.902V39.2397Z" fill="#6C63FF"/>
<path id="Rectangle 59" d="M95.4622 49.5371H88.8523V51.1307H95.4622V49.5371Z" fill="#6C63FF"/>
<path id="Rectangle 60" d="M118.352 49.5371H116.026V51.1307H118.352V49.5371Z" fill="#6C63FF"/>
<path id="Rectangle 61" d="M123.003 49.5371H120.678V51.1307H123.003V49.5371Z" fill="#6C63FF"/>
<path id="Rectangle 62" d="M113.578 49.5371H97.7878V51.1307H113.578V49.5371Z" fill="#6C63FF"/>
<path id="Rectangle 63" d="M122.759 42.7949H116.149V44.3886H122.759V42.7949Z" fill="#6C63FF"/>
<path id="Rectangle 64" d="M131.694 42.7949H125.084V44.3886H131.694V42.7949Z" fill="#6C63FF"/>
<path id="Rectangle 66" d="M91.178 42.7949H88.8523V44.3886H91.178V42.7949Z" fill="#6C63FF"/>
<path id="Rectangle 67" d="M95.8294 42.7949H93.5037V44.3886H95.8294V42.7949Z" fill="#6C63FF"/>
<path id="Rectangle 68" d="M113.945 42.7949H98.155V44.3886H113.945V42.7949Z" fill="#6C63FF"/>
<path id="Rectangle 69" d="M109.049 46.2271H102.439V47.8207H109.049V46.2271Z" fill="#6C63FF"/>
<path id="Rectangle 70" d="M100.114 46.2271H93.5037V47.8207H100.114V46.2271Z" fill="#6C63FF"/>
<path id="Rectangle 71" d="M91.178 46.2271H88.8523V47.8207H91.178V46.2271Z" fill="#6C63FF"/>
<path id="Rectangle 73" d="M131.694 46.2271H129.368V47.8207H131.694V46.2271Z" fill="#6C63FF"/>
<path id="Rectangle 74" d="M127.043 46.2271H111.252V47.8207H127.043V46.2271Z" fill="#6C63FF"/>
</g>
</g>
<defs>
<clipPath id="clip0_154_2">
<rect width="158" height="149" fill="white"/>
</clipPath>
</defs>
</svg>
