<svg
        viewBox="0 0 33 25"
        fill="none"
        xmlns="http://www.w3.org/2000/svg"
    >
        <path
            d="M12.3751 18.625V6.98962C12.3736 6.78272 12.4533 6.58015 12.6043 6.40773C12.7553 6.23531 12.9706 6.10087 13.2229 6.02152C13.4751 5.94218 13.7528 5.92155 14.0206 5.96224C14.2884 6.00294 14.5341 6.10313 14.7264 6.25004L22.3989 12.073C22.655 12.2681 22.7988 12.5321 22.7988 12.8073C22.7988 13.0825 22.655 13.3465 22.3989 13.5417L14.7264 19.3646C14.5341 19.5115 14.2884 19.6117 14.0206 19.6524C13.7528 19.6931 13.4751 19.6725 13.2229 19.5931C12.9706 19.5138 12.7553 19.3793 12.6043 19.2069C12.4533 19.0345 12.3736 18.8319 12.3751 18.625Z"
            fill="white"
        />
    </svg>