<svg
        viewBox="0 0 520 508"
        fill="none"
        xmlns="http://www.w3.org/2000/svg"
    >
        <path
            d="M211.803 302.134C211.803 302.134 211.803 302.159 211.828 302.134C211.879 302.159 211.93 302.185 212.006 302.21C212.336 302.312 212.641 302.388 212.971 302.489C212.971 302.489 212.971 302.489 212.996 302.515C213.022 302.515 213.022 302.515 213.022 302.515C213.174 302.591 213.809 302.896 213.986 302.997C214.189 303.124 215.205 303.81 215.332 303.861C215.865 304.267 217.439 305.892 218.2 306.832C220.663 309.93 222.465 313.739 224.065 317.37C225.715 321.103 231.452 321.357 234.016 318.665C234.347 318.335 234.677 318.005 235.007 317.7C235.387 317.345 235.768 317.014 236.149 316.659C236.301 316.532 236.682 316.253 236.987 315.999C237.063 315.973 237.114 315.923 237.139 315.897C237.241 315.846 237.317 315.77 237.342 315.745C237.393 315.719 237.393 315.719 237.393 315.719C238.459 314.932 239.551 314.17 240.719 313.536C241.252 313.231 241.81 312.951 242.369 312.698C242.09 312.85 243.892 312.113 244.349 311.987C244.755 311.885 245.187 311.809 245.568 311.682C245.618 311.656 245.669 311.656 245.72 311.631C245.745 311.631 245.745 311.631 245.771 311.631C246.507 311.656 247.192 311.631 247.929 311.656C247.852 311.656 247.802 311.656 247.776 311.656C247.979 311.758 249.02 311.936 249.604 312.088C249.629 312.088 249.629 312.088 249.629 312.088C249.655 312.113 249.68 312.113 249.706 312.113C249.883 312.215 250.086 312.317 250.239 312.418C250.518 312.596 250.797 312.774 251.076 312.951C251.076 312.951 251.076 312.951 251.102 312.977C251.127 313.002 251.153 313.002 251.153 313.028C251.356 313.205 251.787 313.561 251.863 313.637C252.27 314.043 252.676 314.45 253.057 314.907C253.184 315.059 253.285 315.186 253.361 315.237C253.437 315.338 253.463 315.364 253.463 315.364C253.564 315.542 253.691 315.745 253.818 315.923C254.275 316.608 254.707 317.319 255.113 318.056C256.027 319.706 256.763 321.408 257.372 323.16C258.007 324.912 258.515 326.715 258.997 328.518C260.241 333.165 265.445 334.181 269 331.768C269.025 331.743 269.076 331.717 269.127 331.692C269.177 331.641 269.228 331.616 269.304 331.565C270.066 331.083 270.777 330.575 271.564 330.143C272.071 329.864 272.63 329.635 273.138 329.356C273.138 329.356 273.138 329.33 273.163 329.33C273.315 329.254 273.493 329.178 273.671 329.127C274.356 328.924 275.042 328.696 275.753 328.518C276.083 328.442 276.387 328.416 276.717 328.315H276.743C277.453 328.34 278.164 328.289 278.875 328.289C278.926 328.289 278.951 328.289 278.977 328.289H279.002C279.383 328.365 279.738 328.442 280.119 328.543C280.5 328.645 280.881 328.772 281.262 328.899H281.287C281.363 328.949 281.439 329 281.566 329.076C281.871 329.229 283.166 330.067 283.242 330.067C287.354 333.343 289.588 338.421 291.391 343.627C291.492 343.881 291.594 344.135 291.696 344.389C291.696 344.389 291.696 344.389 291.696 344.414C291.772 344.592 291.822 344.846 291.899 345.151C292.051 345.785 292.152 346.446 292.279 347.081C292.279 347.131 292.305 347.157 292.305 347.207C292.305 347.487 292.356 347.792 292.381 348.071C292.457 349.01 292.508 349.95 292.559 350.89C292.787 355.587 292.686 360.285 292.508 364.983C292.203 373.566 291.645 382.124 290.934 390.656C290.68 393.906 290.401 397.131 290.096 400.382C289.157 410.666 288.091 420.951 286.923 431.21C286.491 435.07 285.857 438.904 285.857 442.815C285.857 444.16 285.857 445.506 285.857 446.852C285.857 453.048 285.857 459.219 285.857 465.39C272.935 465.39 260.038 465.39 247.116 465.39C223.176 465.39 199.262 465.39 175.322 465.39C171.971 465.39 168.645 465.39 165.294 465.39C165.294 459.219 165.294 453.048 165.294 446.852C165.294 441.621 165.294 436.365 165.294 431.108C165.294 428.086 163.263 426.029 160.623 424.988C160.598 424.988 160.547 424.963 160.521 424.963C160.445 424.912 160.394 424.887 160.318 424.887C160.293 424.861 160.293 424.861 160.268 424.861C160.242 424.836 160.191 424.81 160.166 424.81C160.115 424.785 160.064 424.76 160.014 424.734C159.988 424.734 159.963 424.709 159.937 424.709C159.912 424.684 159.912 424.684 159.887 424.684C158.313 423.947 156.739 423.236 155.19 422.449C150.164 419.91 145.315 417.04 140.796 413.713C138.892 412.291 136.175 410.006 133.967 407.797C131.479 405.283 129.981 403.48 128.305 400.763C126.401 397.614 125.132 394.516 124.878 391.24C124.853 390.91 124.827 390.58 124.827 390.25C124.65 374.15 125.437 358 125.005 341.926C124.954 340.377 124.904 338.853 124.827 337.304C124.904 337.05 125.107 336.441 125.208 336.06C125.234 336.034 125.259 336.009 125.259 335.983C125.259 335.933 125.284 335.907 125.284 335.882C125.284 335.857 125.284 335.857 125.284 335.857C125.386 335.704 125.462 335.552 125.513 335.476C125.767 335.019 126.071 334.587 126.325 334.155C126.376 334.079 126.401 334.003 126.452 333.952V333.927C126.478 333.927 126.503 333.901 126.503 333.876C126.579 333.825 126.655 333.774 126.731 333.673C127.214 333.216 127.671 332.682 128.178 332.225C128.382 332.047 128.585 331.87 128.788 331.667C128.864 331.616 128.915 331.565 128.965 331.514C128.965 331.514 128.991 331.489 129.016 331.463C129.042 331.463 129.092 331.413 129.143 331.387C129.879 330.854 130.616 330.397 131.377 329.94C135.49 327.477 140.11 326.156 144.756 325.115C144.832 325.09 144.908 325.09 144.985 325.039C144.934 340.58 144.578 356.197 144.985 371.738C144.985 372.017 144.985 372.271 144.985 372.55C144.985 380.727 157.678 380.727 157.678 372.55C157.678 359.777 157.678 346.979 157.678 334.206C157.678 318.157 157.678 302.134 157.678 286.085C157.678 278.772 157.678 271.433 157.678 264.119C157.678 255.511 157.678 246.928 157.678 238.32C157.678 233.774 157.018 228.289 158.77 224.023C161.74 216.887 171.082 212.697 177.708 217.548C181.593 220.417 183.04 225.013 183.065 229.635C183.09 237.151 183.065 244.668 183.065 252.184C183.065 263.485 183.065 274.785 183.065 286.085C183.065 293.779 183.065 301.474 183.065 309.168C183.065 309.803 183.065 310.463 183.065 311.098C183.065 311.529 183.065 311.936 183.065 312.367C183.065 318.69 191.697 320.976 194.895 315.567C195.174 315.085 195.479 314.627 195.784 314.145C196.114 313.662 196.444 313.205 196.774 312.723C197.002 312.444 197.205 312.139 197.409 311.86C197.434 311.809 197.485 311.783 197.51 311.733C197.586 311.631 197.662 311.529 197.739 311.428C198.881 310.107 199.973 308.787 201.217 307.568C201.978 306.806 202.791 306.095 203.578 305.384C203.654 305.308 203.73 305.232 203.781 305.181C203.806 305.181 203.806 305.181 203.806 305.156C203.857 305.13 203.933 305.079 204.06 304.978C204.466 304.699 204.872 304.419 205.304 304.14C206.066 303.657 206.827 303.251 207.614 302.845C207.665 302.819 207.741 302.794 207.792 302.769C207.944 302.692 208.096 302.642 208.198 302.616C208.731 302.464 209.29 302.337 209.823 302.185C209.95 302.159 210.026 302.108 210.102 302.083C210.153 302.108 210.204 302.108 210.28 302.108C210.762 302.134 211.244 302.108 211.727 302.134C211.752 302.134 211.778 302.134 211.803 302.134Z"
            fill="white"
        />
        <path
            d="M144.985 231.743C144.985 234.409 144.985 237.05 144.985 239.716C142.725 239.716 140.491 239.716 138.232 239.716C138.232 219.046 138.232 198.325 138.232 177.629C138.232 175.597 138.232 173.566 138.232 171.534C158.694 171.534 179.181 171.534 199.617 171.534C201.597 171.534 203.603 171.534 205.583 171.534C205.583 192.23 205.583 212.951 205.583 233.647C205.583 235.653 205.583 237.685 205.583 239.716C202.308 239.716 199.033 239.716 195.758 239.716C195.758 236.771 195.758 233.825 195.758 230.879C195.758 226.131 195.124 221.56 193.144 217.167C188.523 206.908 177.404 201.042 166.36 203.226C156.409 205.206 147.98 213.459 145.721 223.337C145.086 226.131 144.985 228.924 144.985 231.743Z"
            fill="white"
        />
        <path
            d="M205.583 53.6569C205.583 74.3527 205.583 95.074 205.583 115.77C205.583 117.801 205.583 119.833 205.583 121.864C185.121 121.864 164.659 121.864 144.198 121.864C142.217 121.864 140.212 121.864 138.232 121.864C138.232 101.168 138.232 80.4472 138.232 59.7514C138.232 57.7199 138.232 55.6884 138.232 53.6569C158.694 53.6569 179.181 53.6569 199.617 53.6569C201.597 53.6569 203.603 53.6569 205.583 53.6569ZM198.399 71.534C199.947 69.5025 198.703 66.2268 196.672 65.0333C194.235 63.5858 191.722 64.6777 190.173 66.7346C182.836 76.3334 175.525 85.9576 168.214 95.5564C163.72 90.4777 159.176 85.3736 154.682 80.2948C152.981 78.3649 149.707 78.5427 147.955 80.2948C146.051 82.1994 146.254 85.0942 147.955 87.0242C153.667 93.4742 159.379 99.9241 165.116 106.374C167.35 108.913 170.854 107.669 172.58 105.409C180.12 95.531 187.635 85.6783 195.149 75.8002C196.241 74.3781 197.307 72.9561 198.399 71.534Z"
            fill="white"
        />
        <path
            d="M414.746 251.626C414.746 259.295 414.746 266.964 414.746 274.658C414.746 276.334 414.695 278.035 414.67 279.737C409.135 279.737 403.601 279.737 398.041 279.737C379.61 279.737 361.154 279.737 342.698 279.737C320.383 279.737 298.068 279.737 275.753 279.737C256.459 279.737 237.164 279.737 217.87 279.737C210.534 279.737 203.121 279.508 195.758 279.584C195.758 272.22 195.758 264.881 195.758 257.517C195.758 253.708 195.758 249.874 195.758 246.065C200.1 246.065 204.415 246.065 208.757 246.065C210.457 246.065 211.93 244.617 211.93 242.89C211.93 221.153 211.93 199.391 211.93 177.629C211.93 175.597 211.93 173.566 211.93 171.534C211.93 170.468 211.93 169.427 211.93 168.36C211.93 166.633 210.483 165.186 208.757 165.186C187.228 165.186 165.726 165.186 144.198 165.186C142.217 165.186 140.212 165.186 138.232 165.186C137.165 165.186 136.125 165.186 135.058 165.186C133.357 165.186 131.885 166.633 131.885 168.36C131.885 190.122 131.885 211.885 131.885 233.647C131.885 236.669 131.885 239.742 131.885 242.763C131.885 242.814 131.885 242.84 131.885 242.89C131.885 243.119 131.936 243.322 131.961 243.525C132.063 244.211 132.367 244.744 132.824 245.125C132.9 245.227 133.002 245.303 133.104 245.354C133.18 245.43 133.281 245.506 133.357 245.531C133.84 245.887 134.424 246.065 135.058 246.065C138.206 246.065 141.354 246.065 144.502 246.065C144.655 246.065 144.832 246.065 144.985 246.065C144.985 247.969 144.985 249.874 144.985 251.778C144.985 261.098 144.985 270.417 144.985 279.737C133.586 279.737 122.213 279.737 110.839 279.737C110.839 272.576 110.839 265.44 110.839 258.279C110.839 236.034 110.839 213.789 110.839 191.544C110.839 164.754 110.839 137.964 110.839 111.174C110.839 100.762 110.839 90.3253 110.839 79.9139C110.839 67.1409 110.839 54.3933 110.839 41.6457C110.839 33.9514 110.839 26.2825 110.839 18.6137C110.839 16.9377 110.89 15.2109 110.941 13.5095C119.293 13.5095 127.696 13.5095 136.074 13.5095C161.258 13.5095 186.441 13.5095 211.625 13.5095C242.191 13.5095 272.732 13.5095 303.297 13.5095C329.598 13.5095 355.899 13.5095 382.2 13.5095C390.882 13.5095 399.539 13.5095 408.221 13.5095C410.379 13.5095 412.563 13.6111 414.746 13.6365C414.746 20.7467 414.746 27.857 414.746 34.9672C414.746 40.1475 414.746 45.3024 414.746 50.4827C414.746 67.5472 414.746 84.6371 414.746 101.702C414.746 128.517 414.746 155.308 414.746 182.098C414.746 205.257 414.746 228.441 414.746 251.626ZM391.161 235.247V217.217H248.563V235.247H391.161ZM391.161 192.687V174.658H248.563V192.687H391.161ZM391.161 117.268V99.2385H248.563V117.268H391.161ZM391.161 75.3431V57.2882H248.563V75.3431H391.161ZM211.93 125.038C211.93 123.972 211.93 122.931 211.93 121.864C211.93 101.168 211.93 80.4472 211.93 59.7514C211.93 57.7199 211.93 55.6884 211.93 53.6569C211.93 52.6158 211.93 51.5492 211.93 50.4827C211.93 48.7813 210.483 47.3085 208.757 47.3085C187.228 47.3085 165.726 47.3085 144.198 47.3085C141.151 47.3085 138.105 47.3085 135.058 47.3085C134.094 47.3085 133.383 47.664 132.875 48.1973C132.799 48.2481 132.723 48.3496 132.672 48.4258C132.164 48.9337 131.885 49.6193 131.885 50.4827C131.885 72.245 131.885 94.0074 131.885 115.77C131.885 118.868 131.885 121.94 131.885 125.038C131.885 126.74 133.332 128.213 135.058 128.213C136.125 128.213 137.165 128.213 138.232 128.213C158.694 128.213 179.181 128.213 199.617 128.213C202.664 128.213 205.71 128.213 208.757 128.213C210.457 128.213 211.93 126.765 211.93 125.038Z"
            fill="white"
        />
        <path
            d="M423.834 470.443C423.834 475.928 424.063 481.464 423.834 486.949C423.682 491.393 420.61 494.389 416.218 494.567C405.708 494.973 395.122 494.567 384.612 494.567C361.51 494.567 338.382 494.567 315.28 494.567C286.948 494.567 258.616 494.567 230.285 494.567C204.466 494.567 178.648 494.567 152.829 494.567C136.861 494.567 120.867 494.567 104.899 494.567C101.522 494.567 97.2318 495.176 94.4647 492.967C90.6566 489.92 91.6975 484.054 91.6975 479.686C91.6975 473.642 91.6721 467.599 91.6975 461.53C91.7229 456.781 94.617 453.251 99.5674 453.201C103.452 453.15 107.336 453.201 111.22 453.201C124.396 453.201 137.572 453.201 150.747 453.201C151.357 453.201 151.991 453.201 152.601 453.201C152.601 459.397 152.601 465.567 152.601 471.738C152.601 475.191 155.495 478.086 158.947 478.086C173.976 478.086 189.006 478.086 204.035 478.086C227.949 478.086 251.889 478.086 275.829 478.086C281.287 478.086 286.745 478.086 292.203 478.086C295.631 478.086 298.55 475.191 298.55 471.738C298.55 465.567 298.398 459.397 298.423 453.201C314.721 453.201 331.045 453.201 347.344 453.201C369.71 453.201 392.075 453.201 414.416 453.201C417.386 453.201 420.204 453.404 422.235 455.968C425.028 459.473 423.834 466.253 423.834 470.443Z"
            fill="#F1D6D0"
        />
        <path
            d="M329.42 439.996C329.42 440.174 329.421 440.351 329.446 440.504C319.215 440.504 308.984 440.504 298.753 440.504C298.905 438.117 299.083 435.73 299.362 433.343C300.733 421.459 302.053 409.549 303.094 397.614C311.878 397.614 320.637 397.614 329.42 397.614C329.42 409.727 329.42 421.839 329.42 433.978C329.42 435.984 329.42 437.99 329.42 439.996Z"
            fill="#F1D6D0"
        />
        <path
            d="M112.134 356.07C112.134 365.694 112.134 375.293 112.134 384.917C98.882 384.917 85.6554 384.917 72.4035 384.917C65.0412 384.917 57.679 384.917 50.2915 384.917C40.4413 384.917 31.1751 381.844 24.0414 374.836C17.0854 368.005 13.4297 358.838 13.3789 349.112C13.3789 346.598 13.3789 344.084 13.3789 341.57C13.3789 328.797 13.3789 315.999 13.3789 303.226C13.3789 284.079 13.3789 264.958 13.3789 245.811C13.3789 224.759 13.3789 203.733 13.3789 182.682C13.3789 164.475 13.3789 146.242 13.3789 128.01C13.3789 117.293 13.3789 106.577 13.3789 95.8358C13.3789 92.6108 13.2773 89.335 13.8866 86.1354C16.273 73.4386 25.3107 62.5701 37.7503 58.5833C45.0617 56.2471 52.8048 56.8311 60.3701 56.8311C70.1694 56.8311 79.9687 56.8311 89.7935 56.8311C91.7229 56.8311 93.6777 56.8311 95.6325 56.8311C96.5718 56.8311 97.4095 56.6534 98.1458 56.374C98.1458 62.113 98.1458 67.8266 98.1458 73.5655C84.8938 73.5655 71.6418 73.5655 58.3899 73.5655C56.6636 73.5655 54.9373 73.464 53.2109 73.5909C45.0364 74.2258 39.0704 80.7519 38.7658 88.8779C38.715 90.1476 38.7658 91.4427 38.7658 92.7377C38.7658 116.912 38.7658 141.113 38.7658 165.287C38.7658 200.534 38.7658 235.755 38.7658 271.001C38.7658 291.418 38.5119 311.885 38.7658 332.301C38.8673 341.138 45.2141 347.944 54.1503 348.274C58.7707 348.452 63.4165 348.274 68.0369 348.274C82.7359 348.274 97.4349 348.274 112.134 348.274C112.134 350.864 112.134 353.454 112.134 356.07Z"
            fill="#F1D6D0"
        />
        <path
            d="M506.57 89.6143C506.773 92.7631 506.646 95.9881 506.646 99.1623C506.646 115.744 506.646 132.352 506.646 148.934C506.646 174.074 506.646 199.239 506.646 224.378C506.646 249.213 506.646 274.048 506.646 298.883C506.646 314.247 506.646 329.61 506.646 344.973C506.646 350.433 506.52 355.638 504.768 360.945C500.021 375.318 486.134 384.79 471.181 384.917C457.497 385.044 443.788 384.917 430.105 384.917C404.49 384.917 378.9 384.917 353.31 384.917C347.471 384.917 341.606 384.917 335.767 384.917C325.206 384.917 314.671 384.917 304.11 384.917C304.541 378.975 304.897 373.007 305.125 367.065C305.379 361.25 305.988 354.546 305.354 348.274C313.147 348.274 320.941 348.274 328.735 348.274C350.669 348.274 372.604 348.274 394.563 348.274C414.086 348.274 433.608 348.274 453.156 348.274C457.65 348.274 462.169 348.325 466.662 348.274C475.776 348.198 482.732 341.697 482.859 332.479C483.011 322.855 482.859 313.205 482.859 303.556C482.859 283.876 482.859 264.17 482.859 244.49C482.859 221.484 482.859 198.502 482.859 175.521C482.859 156.019 482.859 136.516 482.859 116.989C482.859 107.745 483.138 98.4259 482.859 89.1826C482.707 83.5706 480.117 78.4919 475.167 75.597C471.435 73.4132 467.373 73.5655 463.26 73.5655C452.852 73.5655 442.418 73.5655 432.009 73.5655C430.486 73.5655 428.963 73.5655 427.439 73.5655C427.439 67.9789 427.439 62.3923 427.439 56.8311C434.446 56.8311 441.453 56.8311 448.434 56.8311C454.146 56.8311 459.858 56.8311 465.545 56.8311C468.871 56.8311 472.349 56.6534 475.649 57.0597C492.049 59.0658 505.529 73.0577 506.57 89.6143Z"
            fill="#F1D6D0"
        />
        <path
            d="M144.985 292.433C144.985 299.315 144.985 306.171 144.985 313.053C143.944 312.672 142.725 312.571 141.38 312.875C129.981 315.44 114.749 321.636 112.413 334.79C112.362 335.044 112.337 335.323 112.312 335.577C102.055 335.577 91.8244 335.577 81.5681 335.577C74.1805 335.577 66.7676 335.577 59.38 335.577C56.4859 335.577 51.9162 336.542 51.4593 332.936C50.85 328.01 51.4593 322.626 51.4593 317.675C51.4593 305.486 51.4593 293.271 51.4593 281.082C51.4593 247.131 51.4593 213.154 51.4593 179.203C51.4593 152.387 51.4593 125.597 51.4593 98.7814C51.4593 96.0389 51.4593 93.2964 51.4593 90.5285C51.4593 88.37 51.5862 86.5671 54.1756 86.2624C59.5831 85.6021 65.4728 86.2624 70.9056 86.2624C78.7756 86.2624 86.6201 86.2624 94.4647 86.2624C95.6832 86.2624 96.9272 86.2624 98.1458 86.2624C98.1458 91.4173 98.1458 96.5468 98.1458 101.702C98.1458 128.517 98.1458 155.308 98.1458 182.098C98.1458 205.257 98.1458 228.441 98.1458 251.626C98.1458 262.926 97.7142 274.302 98.1458 285.603C98.1458 285.755 98.1458 285.933 98.1458 286.085C98.1458 289.513 101.04 292.433 104.492 292.433C117.973 292.433 131.479 292.433 144.985 292.433Z"
            fill="#D4F6F9"
        />
        <path
            d="M242.623 299.366C238.815 300.102 235.007 301.854 231.605 304.165C228.939 299.493 225.537 295.176 221.044 292.433C236.631 292.433 252.219 292.433 267.806 292.433C290.122 292.433 312.462 292.433 334.777 292.433C354.071 292.433 373.34 292.433 392.634 292.433C401.951 292.433 411.369 292.814 420.686 292.433C420.839 292.433 420.966 292.433 421.093 292.433C424.545 292.433 427.439 289.539 427.439 286.085C427.439 283.977 427.439 281.844 427.439 279.737C427.439 272.576 427.439 265.44 427.439 258.279C427.439 236.034 427.439 213.789 427.439 191.544C427.439 164.754 427.439 137.964 427.439 111.174C427.439 102.87 427.439 94.5661 427.439 86.2623C434.268 86.2623 441.123 86.2623 447.952 86.2623C452.928 86.2623 457.878 86.2623 462.854 86.2623C464.707 86.2623 468.033 85.6529 469.404 87.0242C470.749 88.37 470.165 91.8743 470.165 93.7535C470.165 98.9084 470.165 104.089 470.165 109.244C470.165 126.943 470.165 144.642 470.165 162.342C470.165 184.637 470.165 206.958 470.165 229.254C470.165 249.95 470.165 270.62 470.165 291.316C470.165 303.861 470.165 316.38 470.165 328.924C470.165 331.463 470.902 335.247 467.576 335.653C465.164 335.933 462.143 335.577 459.605 335.577C442.367 335.577 425.129 335.577 407.891 335.577C385.779 335.577 363.693 335.577 341.581 335.577C328.329 335.577 315.077 335.577 301.825 335.577C297.408 325.267 289.868 315.262 277.58 315.592C274.534 315.669 271.513 316.329 268.67 317.472C264.125 306.451 255.951 296.776 242.623 299.366Z"
            fill="#D4F6F9"
        />
        <path
            d="M427.439 73.5655C427.439 77.7809 427.439 82.0216 427.439 86.2623C426.475 86.2623 425.535 86.2624 424.571 86.2624C416.396 86.2624 416.421 73.5655 424.571 73.5655C425.535 73.5655 426.5 73.5655 427.439 73.5655Z"
            fill="#030000"
        />
        <path
            d="M427.439 44.1343C427.439 48.3496 427.439 52.5904 427.439 56.8311C425.358 56.8311 423.301 56.8311 421.22 56.8311C417.132 56.8311 415.101 53.6569 415.101 50.4827C415.101 47.3085 417.132 44.1343 421.22 44.1343C423.301 44.1343 425.358 44.1343 427.439 44.1343Z"
            fill="#030000"
        />
        <path
            d="M421.22 56.8311C423.301 56.8311 425.358 56.8311 427.439 56.8311C427.439 62.3923 427.439 67.9789 427.439 73.5655C426.5 73.5655 425.535 73.5655 424.571 73.5655C416.421 73.5655 416.396 86.2624 424.571 86.2624C425.535 86.2624 426.475 86.2623 427.439 86.2623C427.439 94.5661 427.439 102.87 427.439 111.174C427.439 137.964 427.439 164.754 427.439 191.544C427.439 213.789 427.439 236.034 427.439 258.279C427.439 265.44 427.439 272.576 427.439 279.737L421.093 279.737C418.96 279.737 416.828 279.737 414.67 279.737C414.695 278.035 414.746 276.334 414.746 274.658C414.746 266.964 414.746 259.295 414.746 251.626C414.746 228.441 414.746 205.257 414.746 182.098C414.746 155.308 414.746 128.517 414.746 101.702C414.746 84.6371 414.746 67.5472 414.746 50.4827H415.101C415.101 53.6569 417.132 56.8311 421.22 56.8311Z"
            fill="#030000"
        />
        <path
            d="M421.093 279.737C418.985 281.844 416.878 283.977 414.746 286.085C414.746 285.933 414.771 285.755 414.746 285.603C414.594 283.673 414.619 281.692 414.67 279.737C416.828 279.737 418.96 279.737 421.093 279.737Z"
            fill="#030000"
        />
        <path
            d="M420.559 13.5095C418.655 13.6619 416.701 13.6619 414.746 13.6365C414.746 11.478 414.746 9.31959 414.746 7.16113C416.878 9.29419 418.985 11.4019 421.093 13.5095C420.915 13.5095 420.737 13.5095 420.559 13.5095Z"
            fill="#030000"
        />
        <path
            d="M414.746 285.603C414.771 285.755 414.746 285.933 414.746 286.085C416.878 283.977 418.985 281.844 421.093 279.737L427.439 279.737C427.439 281.844 427.439 283.977 427.439 286.085C427.439 289.539 424.545 292.433 421.093 292.433C420.966 292.433 420.839 292.433 420.686 292.433C411.369 292.814 401.951 292.433 392.634 292.433C373.34 292.433 354.071 292.433 334.777 292.433C312.462 292.433 290.122 292.433 267.806 292.433C252.219 292.433 236.631 292.433 221.044 292.433C220.358 292.002 219.622 291.621 218.886 291.265C212.844 288.497 206.421 289.132 200.607 292.179C200.455 292.256 200.303 292.332 200.15 292.433C198.678 292.433 197.205 292.433 195.758 292.433C195.758 288.142 195.758 283.876 195.758 279.584C203.121 279.508 210.534 279.737 217.87 279.737C237.164 279.737 256.459 279.737 275.753 279.737C298.068 279.737 320.383 279.737 342.698 279.737C361.154 279.737 379.61 279.737 398.041 279.737C403.601 279.737 409.135 279.737 414.67 279.737C414.619 281.692 414.594 283.673 414.746 285.603Z"
            fill="#030000"
        />
        <path
            d="M389.257 219.122H250.467V233.342H389.257V219.122Z"
            fill="#030000"
        />
        <path
            d="M389.257 176.562H250.467V190.783H389.257V176.562Z"
            fill="#030000"
        />
        <path
            d="M389.257 101.143H250.467V115.363H389.257V101.143Z"
            fill="#030000"
        />
        <path
            d="M389.257 59.1927H250.467V73.4386H389.257V59.1927Z"
            fill="#030000"
        />
        <path
            d="M342.114 397.614C342.114 411.758 342.114 425.877 342.114 439.996C342.114 440.174 342.114 440.351 342.089 440.504C337.874 440.504 333.66 440.504 329.446 440.504C329.421 440.351 329.42 440.174 329.42 439.996C329.42 437.99 329.42 435.984 329.42 433.978C329.42 421.839 329.42 409.727 329.42 397.614C332.035 397.614 334.676 397.614 337.29 397.614C338.89 397.614 340.515 397.614 342.114 397.614Z"
            fill="#030000"
        />
        <path
            d="M342.114 397.309C342.114 397.411 342.114 397.512 342.114 397.614C340.515 397.614 338.89 397.614 337.29 397.614C334.676 397.614 332.035 397.614 329.42 397.614C329.42 395.506 329.42 393.373 329.42 391.266C329.42 387.177 332.594 385.146 335.767 385.146C338.941 385.146 342.114 387.177 342.114 391.266C342.114 393.297 342.114 395.303 342.114 397.309Z"
            fill="#030000"
        />
        <path
            d="M335.767 384.917C341.606 384.917 347.471 384.917 353.31 384.917C378.9 384.917 404.49 384.917 430.105 384.917C443.788 384.917 457.497 385.044 471.181 384.917C486.134 384.79 500.021 375.318 504.768 360.945C506.52 355.638 506.646 350.433 506.646 344.973C506.646 329.61 506.646 314.247 506.646 298.883C506.646 274.048 506.646 249.213 506.646 224.378C506.646 199.239 506.646 174.074 506.646 148.934C506.646 132.352 506.646 115.744 506.646 99.1623C506.646 95.9881 506.773 92.7631 506.57 89.6143C505.529 73.0577 492.049 59.0658 475.649 57.0597C472.349 56.6534 468.871 56.8311 465.545 56.8311C459.858 56.8311 454.146 56.8311 448.434 56.8311C441.453 56.8311 434.446 56.8311 427.439 56.8311C427.439 52.5904 427.439 48.3496 427.439 44.1343C428.176 44.1343 428.912 44.1343 429.648 44.1343C441.758 44.1343 453.867 44.1343 465.977 44.1343C470.369 44.1343 474.659 44.1597 479.026 44.8199C488.241 46.2166 496.873 50.5843 503.778 56.8057C513.958 66.049 519.315 79.3553 519.34 92.9917C519.34 97.1054 519.34 101.219 519.34 105.308C519.34 124.683 519.34 144.033 519.34 163.408C519.34 189.741 519.34 216.049 519.34 242.383C519.34 266.176 519.34 289.97 519.34 313.739C519.34 325.521 519.391 337.304 519.34 349.061C519.289 363.942 512.689 378.137 500.909 387.304C491.567 394.617 480.574 397.614 468.871 397.614C450.948 397.614 433.05 397.614 415.152 397.614C390.806 397.614 366.46 397.614 342.114 397.614C342.114 397.512 342.114 397.411 342.114 397.309C342.114 395.303 342.114 393.297 342.114 391.266C342.114 387.177 338.941 385.146 335.767 385.146L335.767 384.917Z"
            fill="#030000"
        />
        <path
            d="M342.089 440.504C337.874 440.504 333.66 440.504 329.446 440.504C329.954 447.995 341.581 448.02 342.089 440.504Z"
            fill="#030000"
        />
        <path
            d="M329.446 440.504C329.954 447.995 341.581 448.02 342.089 440.504C351.989 440.504 361.916 440.504 371.842 440.504C383.622 440.504 395.426 440.504 407.206 440.504C409.999 440.504 412.791 440.478 415.584 440.504C422.946 440.555 429.724 443.83 433.659 450.23C437.239 456.095 436.528 463.003 436.528 469.529C436.528 475.318 436.655 481.108 436.528 486.898C436.299 498.122 427.719 506.959 416.396 507.264C415.736 507.289 415.076 507.264 414.39 507.264C400.402 507.264 386.414 507.264 372.426 507.264C346.582 507.264 320.738 507.264 294.894 507.264C265.572 507.264 236.225 507.264 206.878 507.264C182.38 507.264 157.856 507.264 133.357 507.264C122.035 507.264 110.687 507.518 99.3897 507.264C91.7483 507.111 84.5384 503.099 81.1365 496.065C78.3186 490.275 79.0041 483.597 79.0041 477.325C79.0041 471.789 78.8771 466.228 79.0041 460.717C79.2833 449.518 87.9402 440.783 99.1613 440.504C116.932 440.047 134.779 440.402 152.601 440.478C152.601 444.719 152.601 448.96 152.601 453.201C151.991 453.201 151.357 453.201 150.747 453.201C137.572 453.201 124.396 453.201 111.22 453.201C107.336 453.201 103.452 453.15 99.5674 453.201C94.617 453.251 91.7229 456.781 91.6975 461.53C91.6721 467.599 91.6975 473.642 91.6975 479.686C91.6975 484.054 90.6566 489.92 94.4647 492.967C97.2318 495.176 101.522 494.567 104.899 494.567C120.867 494.567 136.861 494.567 152.829 494.567C178.648 494.567 204.466 494.567 230.285 494.567C258.616 494.567 286.948 494.567 315.28 494.567C338.382 494.567 361.51 494.567 384.612 494.567C395.122 494.567 405.708 494.973 416.218 494.567C420.61 494.389 423.682 491.393 423.834 486.949C424.063 481.464 423.834 475.928 423.834 470.443C423.834 466.253 425.028 459.473 422.235 455.968C420.204 453.404 417.386 453.201 414.416 453.201C392.075 453.201 369.71 453.201 347.344 453.201C331.045 453.201 314.721 453.201 298.423 453.201C298.423 448.96 298.499 444.719 298.753 440.504C308.984 440.504 319.215 440.504 329.446 440.504Z"
            fill="#030000"
        />
        <path
            d="M329.42 397.614C320.637 397.614 311.878 397.614 303.094 397.614C303.475 393.373 303.805 389.158 304.11 384.917C314.671 384.917 325.206 384.917 335.767 384.917L335.767 385.146C332.594 385.146 329.42 387.177 329.42 391.266C329.42 393.373 329.42 395.506 329.42 397.614Z"
            fill="#030000"
        />
        <path
            d="M305.354 348.274C302.739 348.274 300.124 348.274 297.509 348.274C294.996 348.274 292.965 346.801 291.848 344.694C290.655 341.672 291.239 338.244 294.31 336.441C295.25 335.882 296.418 335.628 297.585 335.628C299.591 337.152 301.571 338.701 303.602 340.224C304.541 342.738 305.074 345.455 305.354 348.274Z"
            fill="#030000"
        />
        <path
            d="M305.354 348.274C305.074 345.455 304.541 342.738 303.602 340.224C303.094 338.701 302.51 337.126 301.825 335.577C315.077 335.577 328.329 335.577 341.581 335.577C363.693 335.577 385.779 335.577 407.891 335.577C425.129 335.577 442.367 335.577 459.605 335.577C462.143 335.577 465.164 335.933 467.576 335.653C470.902 335.247 470.165 331.463 470.165 328.924C470.165 316.38 470.165 303.861 470.165 291.316C470.165 270.62 470.165 249.95 470.165 229.254C470.165 206.958 470.165 184.637 470.165 162.342C470.165 144.642 470.165 126.943 470.165 109.244C470.165 104.089 470.165 98.9084 470.165 93.7535C470.165 91.8743 470.749 88.37 469.404 87.0242C468.033 85.6529 464.707 86.2623 462.854 86.2623C457.878 86.2623 452.928 86.2623 447.952 86.2623C441.123 86.2623 434.268 86.2623 427.439 86.2623C427.439 82.0216 427.439 77.7809 427.439 73.5655C428.963 73.5655 430.486 73.5655 432.009 73.5655C442.418 73.5655 452.852 73.5655 463.26 73.5655C467.373 73.5655 471.435 73.4132 475.167 75.597C480.117 78.4919 482.707 83.5706 482.859 89.1826C483.138 98.4259 482.859 107.745 482.859 116.989C482.859 136.516 482.859 156.019 482.859 175.521C482.859 198.502 482.859 221.484 482.859 244.49C482.859 264.17 482.859 283.876 482.859 303.556C482.859 313.205 483.011 322.855 482.859 332.479C482.732 341.697 475.776 348.198 466.662 348.274C462.169 348.325 457.65 348.274 453.156 348.274C433.608 348.274 414.086 348.274 394.563 348.274C372.604 348.274 350.669 348.274 328.735 348.274C320.941 348.274 313.147 348.274 305.354 348.274Z"
            fill="#030000"
        />
        <path
            d="M303.602 340.224C301.571 338.701 299.591 337.152 297.585 335.628C299.794 335.653 302.053 336.695 302.993 338.726C303.221 339.209 303.424 339.716 303.602 340.224Z"
            fill="#030000"
        />
        <path
            d="M299.616 335.577C300.352 335.577 301.089 335.577 301.825 335.577C302.51 337.126 303.094 338.701 303.602 340.224C303.424 339.716 303.221 339.209 302.993 338.726C302.053 336.695 299.794 335.653 297.585 335.628C297.56 335.628 297.535 335.603 297.509 335.577C298.22 335.577 298.905 335.577 299.616 335.577Z"
            fill="#030000"
        />
        <path
            d="M292.203 440.504C293.726 440.504 295.275 440.504 296.798 440.504C297.458 440.504 298.093 440.504 298.753 440.504C298.499 444.719 298.423 448.96 298.423 453.201C296.341 453.201 294.285 453.201 292.203 453.201C288.116 453.201 286.085 450.026 286.085 446.852C286.085 443.678 288.116 440.504 292.203 440.504Z"
            fill="#030000"
        />
        <path
            d="M297.509 397.614C293.168 397.614 291.137 394.033 291.391 390.681C291.619 387.71 293.676 384.917 297.509 384.917C298.423 384.917 299.312 384.917 300.226 384.917C301.52 384.917 302.815 384.917 304.11 384.917C303.805 389.158 303.475 393.373 303.094 397.614C301.241 397.614 299.362 397.614 297.509 397.614Z"
            fill="#030000"
        />
        <path
            d="M292.254 346.827C292.203 345.709 292.533 348.249 292.305 347.207C292.305 347.157 292.279 347.131 292.279 347.081C292.254 347.004 292.254 346.903 292.254 346.827Z"
            fill="#030000"
        />
        <path
            d="M291.848 344.694C292.965 346.801 294.996 348.274 297.509 348.274C300.124 348.274 302.739 348.274 305.354 348.274C305.988 354.546 305.379 361.25 305.125 367.065C304.897 373.007 304.541 378.975 304.11 384.917C302.815 384.917 301.52 384.917 300.226 384.917C299.312 384.917 298.423 384.917 297.509 384.917C293.676 384.917 291.619 387.71 291.391 390.681L290.934 390.656C291.645 382.124 292.203 373.566 292.508 364.983C292.686 360.285 292.787 355.587 292.559 350.89C292.508 349.95 292.457 349.01 292.381 348.071C292.356 347.792 292.305 347.487 292.305 347.207C292.533 348.249 292.203 345.709 292.254 346.827C292.254 346.903 292.254 347.004 292.279 347.081C292.152 346.446 292.051 345.785 291.899 345.151C291.822 344.846 291.772 344.592 291.696 344.414C291.721 344.465 291.746 344.516 291.797 344.592C291.848 344.744 291.924 344.897 292.026 345.125C291.975 344.973 291.899 344.846 291.848 344.694Z"
            fill="#030000"
        />
        <path
            d="M292.203 465.39C290.096 467.523 287.964 469.63 285.857 471.738C285.857 469.63 285.857 467.523 285.857 465.39C287.964 465.39 290.096 465.39 292.203 465.39Z"
            fill="#030000"
        />
        <path
            d="M291.391 390.681C291.137 394.033 293.168 397.614 297.509 397.614C299.362 397.614 301.241 397.614 303.094 397.614C302.053 409.549 300.733 421.459 299.362 433.343C299.083 435.73 298.905 438.117 298.753 440.504C298.093 440.504 297.458 440.504 296.798 440.504C295.275 440.504 293.726 440.504 292.203 440.504C288.116 440.504 286.085 443.678 286.085 446.852H285.857C285.857 445.506 285.857 444.16 285.857 442.815C285.857 438.904 286.491 435.07 286.923 431.21C288.091 420.951 289.157 410.666 290.096 400.382C290.401 397.131 290.68 393.906 290.934 390.656L291.391 390.681Z"
            fill="#030000"
        />
        <path
            d="M283.243 330.068C283.192 329.991 283.115 329.94 283.039 329.889C283.141 329.991 283.217 330.042 283.243 330.068Z"
            fill="#030000"
        />
        <path
            d="M281.262 328.899C280.881 328.619 281.541 328.899 281.719 329.026C281.668 329.026 281.541 329 281.287 328.899H281.262Z"
            fill="#030000"
        />
        <path
            d="M278.977 328.289C277.58 327.959 280.145 328.289 279.002 328.289H278.977Z"
            fill="#030000"
        />
        <path
            d="M276.717 328.315C275.423 328.289 277.961 327.934 276.743 328.315H276.717Z"
            fill="#030000"
        />
        <path
            d="M272.782 329.483C272.071 329.711 274.077 328.772 273.163 329.33C273.138 329.33 273.138 329.356 273.138 329.356C273.011 329.407 272.909 329.432 272.782 329.483Z"
            fill="#030000"
        />
        <path
            d="M271.234 325.14C267.705 324.201 264.176 323.261 260.647 322.322C263.034 320.316 265.75 318.64 268.67 317.472C269.71 319.986 270.548 322.601 271.234 325.14Z"
            fill="#030000"
        />
        <path
            d="M276.743 328.315C277.961 327.934 275.423 328.289 276.717 328.315C276.387 328.416 276.083 328.442 275.753 328.518C275.042 328.696 274.356 328.924 273.671 329.127C273.493 329.178 273.315 329.254 273.163 329.33C274.077 328.772 272.071 329.711 272.782 329.483C272.909 329.432 273.011 329.407 273.138 329.356C272.63 329.635 272.071 329.864 271.564 330.143C270.777 330.575 270.066 331.083 269.304 331.565C269.406 331.489 269.507 331.387 269.609 331.311C270.218 330.803 269.101 331.59 268.873 331.819C268.873 331.819 268.923 331.794 269 331.768C265.445 334.181 260.241 333.165 258.997 328.518C258.515 326.715 258.007 324.912 257.372 323.16L260.647 322.322C264.176 323.261 267.705 324.201 271.234 325.14C270.548 322.601 269.71 319.986 268.67 317.472C271.513 316.329 274.534 315.669 277.58 315.592C289.868 315.262 297.408 325.267 301.825 335.577C301.089 335.577 300.352 335.577 299.616 335.577C298.905 335.577 298.22 335.577 297.509 335.577C297.535 335.603 297.56 335.628 297.585 335.628C296.418 335.628 295.25 335.882 294.31 336.441C291.239 338.244 290.655 341.672 291.848 344.694C291.822 344.668 291.822 344.617 291.797 344.592C291.772 344.516 291.721 344.465 291.696 344.389C291.594 344.135 291.492 343.881 291.391 343.627C289.588 338.421 287.354 333.343 283.242 330.067C283.216 330.041 283.14 329.991 283.039 329.889C283.115 329.94 283.191 329.991 283.242 330.067C283.166 330.067 281.871 329.229 281.566 329.076C281.439 329 281.363 328.949 281.287 328.899C281.541 329 281.668 329.026 281.719 329.026C281.541 328.899 280.881 328.619 281.262 328.899C280.881 328.772 280.5 328.645 280.119 328.543C279.738 328.442 279.383 328.365 279.002 328.289C280.145 328.289 277.58 327.959 278.977 328.289C278.951 328.289 278.926 328.289 278.875 328.289C278.164 328.289 277.453 328.34 276.743 328.315Z"
            fill="#030000"
        />
        <path
            d="M268.873 331.819C269.101 331.59 270.218 330.803 269.609 331.311C269.507 331.387 269.406 331.489 269.304 331.565C269.228 331.616 269.177 331.641 269.127 331.692C269.076 331.717 269.025 331.743 269 331.768C268.923 331.794 268.873 331.819 268.873 331.819Z"
            fill="#030000"
        />
        <path
            d="M251.306 313.104C251.255 313.079 251.204 313.053 251.153 313.028V313.002C251.204 313.028 251.229 313.079 251.306 313.104Z"
            fill="#030000"
        />
        <path
            d="M251.153 313.002C251.153 313.002 251.127 313.002 251.102 312.977C251.127 312.977 251.153 313.002 251.153 313.002Z"
            fill="#030000"
        />
        <path
            d="M390.222 234.307H249.502V218.157H390.222V234.307ZM250.467 219.122V233.342H389.257V219.122H250.467Z"
            fill="#030000"
        />
        <path
            d="M249.502 191.722V175.597H390.222V191.722H249.502ZM389.257 176.562H250.467V190.783H389.257V176.562Z"
            fill="#030000"
        />
        <path
            d="M389.257 101.143H250.467V115.363H389.257V101.143ZM249.502 116.328V100.178H390.222V116.328H249.502Z"
            fill="#030000"
        />
        <path
            d="M389.257 73.4386V59.1927H250.467V73.4386H389.257ZM249.502 58.2532H390.222V74.3781H249.502V58.2532Z"
            fill="#030000"
        />
        <path
            d="M248.563 75.3431V57.2882H391.161V75.3431H248.563ZM390.222 58.2532H249.502V74.3781H390.222V58.2532Z"
            fill="#030000"
        />
        <path
            d="M249.502 100.178V116.328H390.222V100.178H249.502ZM248.563 117.268V99.2385H391.161V117.268H248.563Z"
            fill="#030000"
        />
        <path
            d="M248.563 192.687V174.658H391.161V192.687H248.563ZM249.502 175.597V191.722H390.222V175.597H249.502Z"
            fill="#030000"
        />
        <path
            d="M390.222 234.307V218.157H249.502V234.307H390.222ZM248.563 217.217H391.161V235.247H248.563V217.217Z"
            fill="#030000"
        />
        <path
            d="M245.72 311.631C244.679 311.631 246.837 311.276 245.771 311.631C245.745 311.631 245.745 311.631 245.72 311.631Z"
            fill="#030000"
        />
        <path
            d="M237.267 315.796C237.292 315.77 237.342 315.77 237.342 315.745C237.317 315.77 237.241 315.846 237.139 315.897C237.19 315.846 237.216 315.821 237.267 315.796Z"
            fill="#030000"
        />
        <path
            d="M235.032 310.971C231.706 310.539 228.381 310.107 225.055 309.676C226.959 307.67 229.193 305.765 231.605 304.165C232.925 306.4 234.042 308.736 235.032 310.971Z"
            fill="#030000"
        />
        <path
            d="M221.044 292.433C218.175 292.433 215.332 292.433 212.463 292.433C208.35 292.433 204.238 292.433 200.15 292.433C200.303 292.332 200.455 292.256 200.607 292.179C206.421 289.132 212.844 288.497 218.886 291.265C219.622 291.621 220.358 292.002 221.044 292.433Z"
            fill="#030000"
        />
        <path
            d="M211.93 59.7514C211.93 80.4472 211.93 101.168 211.93 121.864L208.757 121.864C207.69 121.864 206.649 121.864 205.583 121.864C205.583 119.833 205.583 117.801 205.583 115.77C205.583 95.074 205.583 74.3527 205.583 53.6569C206.649 53.6569 207.69 53.6569 208.757 53.6569L211.93 53.6569C211.93 55.6884 211.93 57.7199 211.93 59.7514Z"
            fill="#030000"
        />
        <path
            d="M211.803 302.134C210.864 301.829 213.022 302.185 211.828 302.134C211.803 302.159 211.803 302.134 211.803 302.134Z"
            fill="#030000"
        />
        <path
            d="M210.102 302.083C209.366 302.058 210.965 301.778 210.102 302.083V302.083Z"
            fill="#030000"
        />
        <path
            d="M208.757 121.864C207.69 122.931 206.649 123.972 205.583 125.038C205.583 123.972 205.583 122.931 205.583 121.864C206.649 121.864 207.69 121.864 208.757 121.864Z"
            fill="#030000"
        />
        <path
            d="M208.757 239.716C207.69 240.783 206.649 241.849 205.583 242.89C205.583 241.824 205.583 240.783 205.583 239.716C206.649 239.716 207.69 239.716 208.757 239.716Z"
            fill="#030000"
        />
        <path
            d="M208.757 53.6569C207.69 53.6569 206.649 53.6569 205.583 53.6569C205.583 52.5904 205.583 51.5492 205.583 50.4827C206.649 51.5492 207.69 52.6158 208.757 53.6569Z"
            fill="#030000"
        />
        <path
            d="M208.757 171.534C207.69 171.534 206.649 171.534 205.583 171.534C205.583 170.468 205.583 169.427 205.583 168.36C206.649 169.427 207.69 170.468 208.757 171.534Z"
            fill="#030000"
        />
        <path
            d="M208.757 239.716C207.69 239.716 206.649 239.716 205.583 239.716C205.583 237.685 205.583 235.653 205.583 233.647C205.583 212.951 205.583 192.23 205.583 171.534C206.649 171.534 207.69 171.534 208.757 171.534H211.93C211.93 173.566 211.93 175.597 211.93 177.629C211.93 199.391 211.93 221.153 211.93 242.89C211.93 244.617 210.457 246.065 208.757 246.065C204.415 246.065 200.1 246.065 195.758 246.065C195.758 243.957 195.758 241.824 195.758 239.716C199.033 239.716 202.308 239.716 205.583 239.716C205.583 240.783 205.583 241.824 205.583 242.89C206.649 241.849 207.69 240.783 208.757 239.716Z"
            fill="#030000"
        />
        <path
            d="M203.985 304.978C203.985 305.003 203.959 305.029 203.908 305.055C203.933 305.003 203.985 304.978 203.985 304.978Z"
            fill="#030000"
        />
        <path
            d="M203.909 305.054C203.883 305.08 203.858 305.131 203.806 305.157C203.832 305.105 203.883 305.054 203.909 305.054Z"
            fill="#030000"
        />
        <path
            d="M203.781 305.181C203.806 305.181 203.806 305.181 203.806 305.156L203.781 305.181Z"
            fill="#030000"
        />
        <path
            d="M197.764 311.352C197.764 311.377 197.739 311.402 197.739 311.428C197.662 311.529 197.586 311.631 197.51 311.733C197.485 311.783 197.434 311.809 197.409 311.86C197.256 311.986 197.713 311.402 197.764 311.352Z"
            fill="#030000"
        />
        <path
            d="M195.758 295.354C195.758 301.016 195.758 306.705 195.758 312.367C191.823 311.301 187.863 310.234 183.928 309.168C186.898 304.14 190.96 299.087 195.758 295.354Z"
            fill="#030000"
        />
        <path
            d="M183.268 286.085C183.268 282.911 185.324 279.737 189.412 279.737C189.539 279.737 189.691 279.737 189.818 279.737C191.798 279.66 193.778 279.61 195.758 279.584C195.758 283.876 195.758 288.142 195.758 292.433C193.626 292.433 191.519 292.433 189.412 292.433C185.324 292.433 183.268 289.259 183.268 286.085Z"
            fill="#030000"
        />
        <path
            d="M195.758 239.716C195.758 241.824 195.758 243.957 195.758 246.065C194.921 246.065 194.058 246.065 193.22 246.065C189.132 246.065 189.132 239.716 193.22 239.716C194.058 239.716 194.921 239.716 195.758 239.716Z"
            fill="#030000"
        />
        <path
            d="M195.758 246.065C195.758 249.874 195.758 253.708 195.758 257.517C195.758 264.881 195.758 272.22 195.758 279.584C193.778 279.61 191.798 279.66 189.818 279.737C189.691 279.737 189.539 279.737 189.412 279.737C185.324 279.737 183.268 282.911 183.268 286.085H183.065C183.065 274.785 183.065 263.485 183.065 252.184C183.065 244.668 183.09 237.151 183.065 229.635C183.04 225.013 181.593 220.417 177.708 217.548C171.082 212.697 161.74 216.887 158.77 224.023C157.018 228.289 157.678 233.774 157.678 238.32C157.678 246.928 157.678 255.511 157.678 264.119C157.678 271.433 157.678 278.772 157.678 286.085H153.794C153.794 282.911 151.738 279.737 147.65 279.737C146.762 279.737 145.873 279.737 144.985 279.737C144.985 270.417 144.985 261.098 144.985 251.778C144.985 249.874 144.985 247.969 144.985 246.065C145.289 246.065 145.569 246.065 145.848 246.065C147.498 246.065 149.097 244.617 149.021 242.89C148.945 241.189 147.625 239.716 145.848 239.716C145.569 239.716 145.264 239.716 144.985 239.716C144.985 237.05 144.985 234.409 144.985 231.743C144.985 228.924 145.086 226.131 145.721 223.337C147.98 213.459 156.409 205.206 166.36 203.226C177.404 201.042 188.523 206.908 193.144 217.167C195.124 221.56 195.758 226.131 195.758 230.879C195.758 233.825 195.758 236.771 195.758 239.716C194.921 239.716 194.058 239.716 193.22 239.716C189.132 239.716 189.132 246.065 193.22 246.065C194.058 246.065 194.921 246.065 195.758 246.065Z"
            fill="#030000"
        />
        <path
            d="M189.412 292.433C191.519 292.433 193.626 292.433 195.758 292.433C195.758 293.398 195.758 294.389 195.758 295.354C190.96 299.087 186.898 304.14 183.928 309.168H183.065C183.065 301.474 183.065 293.779 183.065 286.085H183.268C183.268 289.259 185.324 292.433 189.412 292.433Z"
            fill="#030000"
        />
        <path
            d="M253.361 315.237C253.285 315.186 253.184 315.059 253.057 314.907C252.676 314.45 252.27 314.043 251.863 313.637C251.787 313.561 251.356 313.205 251.153 313.028C251.204 313.053 251.255 313.079 251.306 313.104C251.229 313.079 251.204 313.028 251.153 313.002C251.153 313.002 251.127 312.977 251.102 312.977C251.076 312.951 251.076 312.951 251.076 312.951C250.797 312.774 250.518 312.596 250.239 312.418C250.086 312.317 249.883 312.215 249.706 312.113C249.68 312.113 249.655 312.113 249.629 312.088C249.629 312.088 249.629 312.088 249.604 312.088C249.02 311.936 247.979 311.758 247.776 311.656C247.802 311.656 247.852 311.656 247.929 311.656C247.192 311.631 246.507 311.656 245.771 311.631C246.837 311.276 244.679 311.631 245.72 311.631C245.669 311.656 245.618 311.656 245.568 311.682C245.187 311.809 244.755 311.885 244.349 311.987C243.892 312.113 242.09 312.85 242.369 312.698C241.81 312.951 241.252 313.231 240.719 313.536C239.551 314.17 238.459 314.932 237.393 315.719C237.393 315.719 237.393 315.719 237.342 315.745C237.342 315.77 237.292 315.77 237.267 315.796C237.216 315.821 237.19 315.846 237.139 315.897C237.114 315.923 237.063 315.973 236.987 315.999C236.682 316.253 236.301 316.532 236.149 316.659C235.768 317.014 235.387 317.345 235.007 317.7C234.677 318.005 234.347 318.335 234.016 318.665C231.452 321.357 225.715 321.103 224.065 317.37C222.465 313.739 220.663 309.93 218.2 306.832C217.439 305.892 215.865 304.267 215.332 303.861C215.205 303.81 214.189 303.124 213.986 302.997C213.809 302.896 213.174 302.591 213.022 302.515C213.022 302.515 213.022 302.515 212.996 302.515C212.971 302.489 212.971 302.489 212.971 302.489C212.641 302.388 212.336 302.312 212.006 302.21C211.93 302.185 211.879 302.159 211.828 302.134C213.022 302.185 210.864 301.829 211.803 302.134C211.778 302.134 211.752 302.134 211.727 302.134C211.244 302.108 210.762 302.134 210.28 302.108C210.204 302.108 210.153 302.108 210.102 302.083C209.366 302.058 210.965 301.778 210.102 302.083C210.026 302.108 209.95 302.159 209.823 302.185C209.29 302.337 208.731 302.464 208.198 302.616C208.096 302.642 207.944 302.692 207.792 302.769C207.741 302.794 207.665 302.819 207.614 302.845C206.827 303.251 206.066 303.657 205.304 304.14C204.872 304.419 204.466 304.699 204.06 304.978C203.933 305.079 203.857 305.13 203.806 305.156C203.857 305.13 203.882 305.08 203.908 305.055C203.959 305.029 203.985 305.003 203.985 304.978C203.985 304.978 203.933 305.003 203.908 305.055C203.882 305.055 203.831 305.105 203.806 305.156H203.781L203.781 305.181C203.73 305.232 203.654 305.308 203.578 305.384C202.791 306.095 201.978 306.806 201.217 307.568C199.973 308.787 198.881 310.107 197.739 311.428C197.739 311.402 197.764 311.377 197.764 311.352C197.713 311.402 197.256 311.986 197.409 311.86C197.205 312.139 197.002 312.444 196.774 312.723C196.444 313.205 196.114 313.662 195.784 314.145C195.479 314.627 195.174 315.085 194.895 315.567C191.697 320.976 183.065 318.69 183.065 312.367C183.065 311.936 183.065 311.529 183.065 311.098C183.065 310.463 183.065 309.803 183.065 309.168H183.928C187.863 310.234 191.823 311.301 195.758 312.367C195.758 306.705 195.758 301.016 195.758 295.354C197.155 294.236 198.627 293.271 200.15 292.433C204.238 292.433 208.35 292.433 212.463 292.433C215.332 292.433 218.175 292.433 221.044 292.433C225.537 295.176 228.939 299.493 231.605 304.165C229.193 305.765 226.959 307.67 225.055 309.676C228.381 310.107 231.706 310.539 235.032 310.971C234.042 308.736 232.925 306.4 231.605 304.165C235.007 301.854 238.815 300.102 242.623 299.366C255.951 296.776 264.125 306.451 268.67 317.472C265.75 318.64 263.034 320.316 260.647 322.322L257.372 323.16C256.763 321.408 256.027 319.706 255.113 318.056C254.707 317.319 254.275 316.608 253.818 315.923C253.691 315.745 253.564 315.542 253.463 315.364C253.463 315.364 253.437 315.338 253.361 315.237Z"
            fill="#030000"
        />
        <path
            d="M168.214 95.5564C169.432 96.9277 170.625 98.2736 171.844 99.6448C169.356 99.9749 166.868 100.28 164.355 100.61C165.446 99.1877 166.513 97.7657 167.604 96.369C167.807 96.0897 168.011 95.8358 168.214 95.5564Z"
            fill="#030000"
        />
        <path
            d="M165.294 465.39C165.294 467.497 165.294 469.63 165.294 471.738C163.162 469.63 161.055 467.523 158.947 465.39C161.055 465.39 163.187 465.39 165.294 465.39Z"
            fill="#030000"
        />
        <path
            d="M152.601 471.738C152.601 465.567 152.601 459.397 152.601 453.201C154.708 453.201 156.815 453.201 158.947 453.201C163.035 453.201 165.066 450.026 165.066 446.852H165.294C165.294 453.048 165.294 459.219 165.294 465.39C163.187 465.39 161.055 465.39 158.947 465.39C161.055 467.523 163.162 469.63 165.294 471.738C165.294 469.63 165.294 467.497 165.294 465.39C168.645 465.39 171.971 465.39 175.322 465.39C199.262 465.39 223.176 465.39 247.116 465.39C260.038 465.39 272.935 465.39 285.857 465.39C285.857 467.523 285.857 469.63 285.857 471.738C287.964 469.63 290.096 467.523 292.203 465.39C290.096 465.39 287.964 465.39 285.857 465.39C285.857 459.219 285.857 453.048 285.857 446.852H286.085C286.085 450.026 288.116 453.201 292.203 453.201C294.285 453.201 296.341 453.201 298.423 453.201C298.398 459.397 298.55 465.567 298.55 471.738C298.55 475.191 295.631 478.086 292.203 478.086C286.745 478.086 281.287 478.086 275.829 478.086C251.889 478.086 227.949 478.086 204.035 478.086C189.006 478.086 173.976 478.086 158.947 478.086C155.495 478.086 152.601 475.191 152.601 471.738Z"
            fill="#030000"
        />
        <path
            d="M164.355 100.61C166.868 100.28 169.356 99.9749 171.844 99.6448C170.625 98.2736 169.432 96.9277 168.214 95.5564C175.525 85.9576 182.836 76.3334 190.173 66.7346C191.722 64.6777 194.235 63.5858 196.672 65.0333C198.703 66.2268 199.947 69.5025 198.399 71.534C197.307 72.9561 196.241 74.3781 195.149 75.8002C187.635 85.6783 180.12 95.531 172.58 105.409C170.854 107.669 167.35 108.913 165.116 106.374C159.379 99.9241 153.667 93.4742 147.955 87.0242C146.254 85.0942 146.051 82.1994 147.955 80.2948C149.707 78.5427 152.981 78.3649 154.682 80.2948C159.176 85.3736 163.72 90.4777 168.214 95.5564C168.011 95.8358 167.807 96.0897 167.604 96.369C166.513 97.7657 165.446 99.1877 164.355 100.61Z"
            fill="#FA786D"
        />
        <path
            d="M160.521 424.963C160.572 424.988 160.598 425.014 160.624 425.014C160.573 425.014 160.496 424.963 160.42 424.937C160.471 424.937 160.496 424.963 160.521 424.963Z"
            fill="#030000"
        />
        <path
            d="M160.318 424.887C160.394 424.887 160.445 424.912 160.521 424.963C160.496 424.963 160.471 424.937 160.42 424.937C160.394 424.912 160.369 424.887 160.318 424.887Z"
            fill="#030000"
        />
        <path
            d="M160.166 424.81C160.191 424.81 160.242 424.836 160.268 424.861C160.141 424.81 160.014 424.76 159.937 424.709C159.963 424.709 159.988 424.734 160.014 424.734C160.064 424.76 160.115 424.785 160.166 424.81Z"
            fill="#030000"
        />
        <path
            d="M159.937 424.709C159.912 424.684 159.912 424.684 159.887 424.684L159.937 424.709Z"
            fill="#030000"
        />
        <path
            d="M158.947 440.504C163.035 440.504 165.066 443.678 165.066 446.852C165.066 450.026 163.035 453.201 158.947 453.201C156.815 453.201 154.708 453.201 152.601 453.201C152.601 448.96 152.601 444.719 152.601 440.478C154.733 440.504 156.84 440.504 158.947 440.504Z"
            fill="#030000"
        />
        <path
            d="M157.678 334.206C157.678 346.979 157.678 359.777 157.678 372.55C157.678 380.727 144.985 380.727 144.985 372.55C144.985 372.271 144.985 372.017 144.985 371.738C144.578 356.197 144.934 340.58 144.985 325.039C151.357 323.414 150.113 314.907 144.985 313.053C144.985 306.171 144.985 299.315 144.985 292.433C145.873 292.433 146.762 292.433 147.65 292.433C151.738 292.433 153.794 289.259 153.794 286.085H157.678C157.678 302.134 157.678 318.157 157.678 334.206Z"
            fill="#030000"
        />
        <path
            d="M158.947 440.504C156.84 440.504 154.733 440.504 152.601 440.478C152.601 438.752 152.601 437.025 152.601 435.273C154.124 435.958 155.673 436.619 157.246 437.228C155.698 435.196 154.149 433.14 152.601 431.108C152.601 432.505 152.601 433.876 152.601 435.273C143.817 431.337 135.515 426.131 128.305 419.833C121.426 413.84 115.688 406.299 113.302 397.614C113.581 397.614 113.886 397.614 114.165 397.614C115.612 397.614 117.034 397.614 118.481 397.614C122.568 397.614 124.624 394.44 124.624 391.266L124.878 391.24C125.132 394.516 126.401 397.614 128.305 400.763C129.981 403.48 131.479 405.283 133.967 407.797C136.175 410.006 138.892 412.291 140.796 413.713C145.315 417.04 150.164 419.91 155.19 422.449C156.739 423.236 158.313 423.947 159.887 424.684C159.887 424.684 159.887 424.684 159.912 424.709H159.937C160.014 424.76 160.141 424.81 160.268 424.861C160.293 424.861 160.293 424.861 160.318 424.887C160.369 424.887 160.394 424.912 160.42 424.937C160.496 424.963 160.573 425.014 160.624 425.014C160.598 425.014 160.572 424.988 160.521 424.963C160.547 424.963 160.598 424.988 160.623 424.988C163.263 426.029 165.294 428.086 165.294 431.108C165.294 436.365 165.294 441.621 165.294 446.852H165.066C165.066 443.678 163.035 440.504 158.947 440.504Z"
            fill="#030000"
        />
        <path
            d="M152.601 431.108C154.149 433.14 155.698 435.196 157.246 437.228C155.673 436.619 154.124 435.958 152.601 435.273C152.601 433.876 152.601 432.505 152.601 431.108Z"
            fill="#030000"
        />
        <path
            d="M144.985 246.065C144.985 243.957 144.985 241.824 144.985 239.716C145.264 239.716 145.569 239.716 145.848 239.716C147.625 239.716 148.945 241.189 149.021 242.89C149.097 244.617 147.498 246.065 145.848 246.065C145.569 246.065 145.289 246.065 144.985 246.065Z"
            fill="#030000"
        />
        <path
            d="M144.985 279.737C145.873 279.737 146.762 279.737 147.65 279.737C151.738 279.737 153.794 282.911 153.794 286.085C153.794 289.259 151.738 292.433 147.65 292.433C146.762 292.433 145.873 292.433 144.985 292.433C144.985 288.193 144.985 283.977 144.985 279.737Z"
            fill="#030000"
        />
        <path
            d="M144.985 313.053C150.113 314.907 151.357 323.414 144.985 325.039C144.985 324.252 144.985 323.49 144.985 322.703C144.985 319.478 144.985 316.278 144.985 313.053Z"
            fill="#030000"
        />
        <path
            d="M144.198 165.186C165.726 165.186 187.228 165.186 208.757 165.186C210.483 165.186 211.93 166.633 211.93 168.36C211.93 169.427 211.93 170.468 211.93 171.534H208.757C207.69 170.468 206.649 169.427 205.583 168.36C205.583 169.427 205.583 170.468 205.583 171.534C203.603 171.534 201.597 171.534 199.617 171.534C179.181 171.534 158.694 171.534 138.232 171.534C138.232 170.468 138.232 169.427 138.232 168.36L138.232 165.186C140.212 165.186 142.217 165.186 144.198 165.186Z"
            fill="#030000"
        />
        <path
            d="M208.757 128.213C205.71 128.213 202.664 128.213 199.617 128.213C179.181 128.213 158.694 128.213 138.232 128.213L138.232 125.038C138.232 123.972 138.232 122.931 138.232 121.864C140.212 121.864 142.217 121.864 144.198 121.864C164.659 121.864 185.121 121.864 205.583 121.864C205.583 122.931 205.583 123.972 205.583 125.038C206.649 123.972 207.69 122.931 208.757 121.864L211.93 121.864C211.93 122.931 211.93 123.972 211.93 125.038C211.93 126.765 210.457 128.213 208.757 128.213Z"
            fill="#030000"
        />
        <path
            d="M138.232 168.36C138.232 169.427 138.232 170.468 138.232 171.534C137.165 171.534 136.125 171.534 135.058 171.534C136.125 170.468 137.191 169.427 138.232 168.36Z"
            fill="#030000"
        />
        <path
            d="M135.058 171.534C136.125 171.534 137.165 171.534 138.232 171.534C138.232 173.566 138.232 175.597 138.232 177.629C138.232 198.325 138.232 219.046 138.232 239.716C137.622 239.716 137.013 239.716 136.404 239.716C135.947 239.716 135.515 239.716 135.058 239.716C133.434 239.716 131.885 241.113 131.885 242.763C131.885 239.742 131.885 236.669 131.885 233.647C131.885 211.885 131.885 190.122 131.885 168.36C131.885 166.633 133.357 165.186 135.058 165.186C136.125 165.186 137.165 165.186 138.232 165.186L138.232 168.36C137.191 169.427 136.125 170.468 135.058 171.534Z"
            fill="#030000"
        />
        <path
            d="M138.232 121.864C138.232 122.931 138.232 123.972 138.232 125.038C137.191 123.972 136.125 122.931 135.058 121.864C136.125 121.864 137.165 121.864 138.232 121.864Z"
            fill="#030000"
        />
        <path
            d="M138.232 50.4827C138.232 51.5492 138.232 52.6158 138.232 53.6569C137.165 53.6569 136.125 53.6569 135.058 53.6569C132.063 53.6569 131.25 50.2288 132.672 48.4258C132.697 48.3496 132.799 48.2734 132.875 48.1973C134.652 46.6483 138.232 47.4355 138.232 50.4827Z"
            fill="#030000"
        />
        <path
            d="M205.583 50.4827C205.583 51.5492 205.583 52.5904 205.583 53.6569C203.603 53.6569 201.597 53.6569 199.617 53.6569C179.181 53.6569 158.694 53.6569 138.232 53.6569C138.232 52.6158 138.232 51.5492 138.232 50.4827C138.232 47.4355 134.652 46.6483 132.875 48.1973C133.383 47.664 134.094 47.3085 135.058 47.3085C138.105 47.3085 141.151 47.3085 144.198 47.3085C165.726 47.3085 187.228 47.3085 208.757 47.3085C210.483 47.3085 211.93 48.7813 211.93 50.4827C211.93 51.5492 211.93 52.6158 211.93 53.6569L208.757 53.6569C207.69 52.6158 206.649 51.5492 205.583 50.4827Z"
            fill="#030000"
        />
        <path
            d="M135.058 239.716C135.515 239.716 135.947 239.716 136.404 239.716C137.013 239.716 137.622 239.716 138.232 239.716C138.232 240.783 138.232 241.824 138.232 242.89C138.232 245.709 135.236 246.598 133.357 245.531C133.281 245.481 133.18 245.43 133.104 245.354C133.002 245.303 132.926 245.201 132.824 245.125C132.418 244.693 132.113 244.135 131.961 243.525C131.936 243.322 131.885 243.119 131.885 242.89C131.885 242.84 131.885 242.814 131.885 242.763C131.885 241.113 133.434 239.716 135.058 239.716Z"
            fill="#030000"
        />
        <path
            d="M144.985 239.716C144.985 241.824 144.985 243.957 144.985 246.065C144.832 246.065 144.655 246.065 144.502 246.065C141.354 246.065 138.206 246.065 135.058 246.065C134.424 246.065 133.84 245.887 133.357 245.531C135.236 246.598 138.232 245.709 138.232 242.89C138.232 241.824 138.232 240.783 138.232 239.716C140.491 239.716 142.725 239.716 144.985 239.716Z"
            fill="#030000"
        />
        <path
            d="M133.104 245.354C133.18 245.43 133.282 245.481 133.359 245.532C133.282 245.507 133.18 245.43 133.104 245.354Z"
            fill="#030000"
        />
        <path
            d="M133.104 245.354C133.002 245.303 132.926 245.201 132.824 245.125C132.9 245.227 133.002 245.303 133.104 245.354Z"
            fill="#030000"
        />
        <path
            d="M132.875 48.1973C132.799 48.2738 132.697 48.3503 132.672 48.4268C132.723 48.3503 132.799 48.2483 132.875 48.1973Z"
            fill="#030000"
        />
        <path
            d="M132.824 245.125C132.418 244.693 132.113 244.135 131.961 243.525C132.063 244.211 132.367 244.744 132.824 245.125Z"
            fill="#030000"
        />
        <path
            d="M135.058 121.864C136.125 122.931 137.191 123.972 138.232 125.038L138.232 128.213C137.165 128.213 136.125 128.213 135.058 128.213C133.332 128.213 131.885 126.74 131.885 125.038C131.885 121.94 131.885 118.868 131.885 115.77C131.885 94.0074 131.885 72.245 131.885 50.4827C131.885 49.6193 132.164 48.9337 132.672 48.4258C131.25 50.2288 132.063 53.6569 135.058 53.6569C136.125 53.6569 137.165 53.6569 138.232 53.6569C138.232 55.6884 138.232 57.7199 138.232 59.7514C138.232 80.4472 138.232 101.168 138.232 121.864C137.165 121.864 136.125 121.864 135.058 121.864Z"
            fill="#030000"
        />
        <path
            d="M129.27 331.235C129.245 331.26 129.169 331.336 129.016 331.463C128.991 331.489 128.965 331.514 128.965 331.514C128.737 331.667 129.219 331.26 129.27 331.235Z"
            fill="#030000"
        />
        <path
            d="M126.452 333.952C126.071 334.257 126.731 333.444 126.503 333.876C126.503 333.901 126.478 333.927 126.452 333.952Z"
            fill="#030000"
        />
        <path
            d="M125.284 335.857C125.284 335.857 125.284 335.857 125.284 335.882C125.284 335.907 125.259 335.933 125.259 335.983C125.259 336.009 125.234 336.034 125.208 336.06C125.157 336.161 125.107 336.263 125.056 336.339C125.056 336.288 125.107 336.187 125.157 336.06C125.208 335.958 125.234 335.907 125.284 335.857Z"
            fill="#030000"
        />
        <path
            d="M125.005 341.926C125.437 358 124.65 374.15 124.827 390.25C124.827 390.58 124.853 390.91 124.878 391.24L124.624 391.266C124.624 388.091 122.568 384.917 118.481 384.917C116.374 384.917 114.241 384.917 112.134 384.917C112.134 375.293 112.134 365.694 112.134 356.07C112.134 353.454 112.134 350.864 112.134 348.274C113.149 348.274 114.165 348.274 115.18 348.274C116.272 348.274 117.389 348.274 118.481 348.274C122.568 348.274 124.624 345.1 124.624 341.926H125.005Z"
            fill="#030000"
        />
        <path
            d="M125.056 336.339C124.953 336.519 124.979 336.493 125.056 336.339V336.339Z"
            fill="#030000"
        />
        <path
            d="M124.802 337.38C124.32 338.904 124.777 335.704 124.827 337.253C124.827 337.279 124.827 337.279 124.827 337.304C124.827 337.329 124.802 337.355 124.802 337.38Z"
            fill="#030000"
        />
        <path
            d="M124.827 337.253C124.777 335.704 124.32 338.904 124.802 337.38C124.802 337.355 124.827 337.329 124.827 337.304C124.904 338.853 124.954 340.377 125.005 341.926H124.624C124.624 338.751 122.568 335.577 118.481 335.577C116.424 335.577 114.368 335.577 112.312 335.577C112.337 335.323 112.362 335.044 112.413 334.79C114.749 321.636 129.981 315.44 141.38 312.875C142.725 312.571 143.944 312.672 144.985 313.053C144.985 316.278 144.985 319.478 144.985 322.703C144.985 323.49 144.985 324.252 144.985 325.039C144.908 325.09 144.832 325.09 144.756 325.115C140.11 326.156 135.49 327.477 131.377 329.94C130.616 330.397 129.879 330.854 129.143 331.387C129.092 331.413 129.042 331.463 129.016 331.463C129.169 331.336 129.245 331.26 129.27 331.235C129.219 331.26 128.737 331.667 128.965 331.514C128.915 331.565 128.864 331.616 128.788 331.667C128.585 331.87 128.382 332.047 128.178 332.225C127.671 332.682 127.214 333.216 126.731 333.673C126.655 333.774 126.579 333.825 126.503 333.876C126.731 333.444 126.071 334.257 126.452 333.952C126.401 334.003 126.376 334.079 126.325 334.155C126.071 334.587 125.767 335.019 125.513 335.476C125.462 335.552 125.386 335.704 125.284 335.857C125.234 335.907 125.208 335.958 125.157 336.06C125.107 336.187 125.056 336.288 125.056 336.339C124.954 336.517 124.98 336.491 125.056 336.339C125.107 336.263 125.157 336.161 125.208 336.06C125.107 336.441 124.904 337.05 124.827 337.304C124.827 337.279 124.827 337.279 124.827 337.253Z"
            fill="#030000"
        />
        <path
            d="M124.624 341.926C124.624 345.1 122.568 348.274 118.481 348.274C110.306 348.274 110.306 335.577 118.481 335.577C122.568 335.577 124.624 338.751 124.624 341.926Z"
            fill="#030000"
        />
        <path
            d="M118.481 384.917C122.568 384.917 124.624 388.091 124.624 391.266C124.624 394.44 122.568 397.614 118.481 397.614C110.306 397.614 110.306 384.917 118.481 384.917Z"
            fill="#030000"
        />
        <path
            d="M113.302 397.614C94.7693 397.614 76.2623 397.614 57.7298 397.614C50.4184 397.614 43.1323 397.868 35.9986 395.913C20.995 391.799 9.01234 380.397 3.57955 365.897C-8.34465e-06 356.4 0.685438 346.116 0.685438 336.136C0.685438 321.255 0.685438 306.375 0.685438 291.494C0.685438 271.027 0.685438 250.559 0.685438 230.092C0.685438 208.914 0.685438 187.761 0.685438 166.582C0.685438 149.594 0.685438 132.606 0.685438 115.592C0.685438 107.898 0.634664 100.178 0.685438 92.4838C0.863146 65.5411 22.772 44.2105 49.5552 44.1343C64.9143 44.1089 80.2734 44.1343 95.6325 44.1343C96.5718 44.1343 97.4095 44.312 98.1458 44.5914C98.1458 48.5274 98.1458 52.438 98.1458 56.374C97.4095 56.6534 96.5718 56.8311 95.6325 56.8311C93.6777 56.8311 91.7229 56.8311 89.7935 56.8311C79.9687 56.8311 70.1694 56.8311 60.3701 56.8311C52.8048 56.8311 45.0617 56.2471 37.7503 58.5833C25.3107 62.5701 16.273 73.4386 13.8866 86.1354C13.2773 89.335 13.3789 92.6108 13.3789 95.8358C13.3789 106.577 13.3789 117.293 13.3789 128.01C13.3789 146.242 13.3789 164.475 13.3789 182.682C13.3789 203.733 13.3789 224.759 13.3789 245.811C13.3789 264.958 13.3789 284.079 13.3789 303.226C13.3789 315.999 13.3789 328.797 13.3789 341.57C13.3789 344.084 13.3789 346.598 13.3789 349.112C13.4297 358.838 17.0854 368.005 24.0414 374.836C31.1751 381.844 40.4413 384.917 50.2915 384.917C57.679 384.917 65.0412 384.917 72.4035 384.917C85.6554 384.917 98.882 384.917 112.134 384.917C112.134 386.263 112.134 387.609 112.134 388.955C112.134 391.951 112.54 394.846 113.302 397.614Z"
            fill="#030000"
        />
        <path
            d="M112.134 388.955C112.134 387.609 112.134 386.263 112.134 384.917C114.241 384.917 116.374 384.917 118.481 384.917C110.306 384.917 110.306 397.614 118.481 397.614C117.034 397.614 115.612 397.614 114.165 397.614C113.886 397.614 113.581 397.614 113.302 397.614C112.54 394.846 112.134 391.951 112.134 388.955Z"
            fill="#030000"
        />
        <path
            d="M118.481 335.577C110.306 335.577 110.306 348.274 118.481 348.274C117.389 348.274 116.272 348.274 115.18 348.274C114.165 348.274 113.149 348.274 112.134 348.274C112.134 345.811 112.134 343.322 112.134 340.859C112.134 339.056 112.083 337.329 112.312 335.577C114.368 335.577 116.424 335.577 118.481 335.577Z"
            fill="#030000"
        />
        <path
            d="M81.5681 335.577C91.8244 335.577 102.055 335.577 112.312 335.577C112.083 337.329 112.134 339.056 112.134 340.859C112.134 343.322 112.134 345.811 112.134 348.274C97.4349 348.274 82.7359 348.274 68.0369 348.274C63.4165 348.274 58.7707 348.452 54.1503 348.274C45.2141 347.944 38.8673 341.138 38.7658 332.301C38.5119 311.885 38.7658 291.418 38.7658 271.001C38.7658 235.755 38.7658 200.534 38.7658 165.287C38.7658 141.113 38.7658 116.912 38.7658 92.7377C38.7658 91.4427 38.715 90.1476 38.7658 88.8779C39.0704 80.7519 45.0364 74.2258 53.2109 73.5909C54.9373 73.464 56.6636 73.5655 58.3899 73.5655C71.6418 73.5655 84.8938 73.5655 98.1458 73.5655C98.1458 77.8063 98.1458 82.0216 98.1458 86.2624C96.9272 86.2624 95.6832 86.2624 94.4647 86.2624C86.6201 86.2624 78.7756 86.2624 70.9056 86.2624C65.4728 86.2624 59.5831 85.6021 54.1756 86.2624C51.5862 86.5671 51.4593 88.37 51.4593 90.5285C51.4593 93.2964 51.4593 96.0389 51.4593 98.7814C51.4593 125.597 51.4593 152.387 51.4593 179.203C51.4593 213.154 51.4593 247.131 51.4593 281.082C51.4593 293.271 51.4593 305.486 51.4593 317.675C51.4593 322.626 50.85 328.01 51.4593 332.936C51.9162 336.542 56.4859 335.577 59.38 335.577C66.7676 335.577 74.1805 335.577 81.5681 335.577Z"
            fill="#030000"
        />
        <path
            d="M110.839 279.737C110.839 281.844 110.839 283.977 110.839 286.085C108.707 283.977 106.6 281.844 104.493 279.737C106.6 279.737 108.707 279.737 110.839 279.737Z"
            fill="#030000"
        />
        <path
            d="M98.1458 285.603C97.7142 274.302 98.1458 262.926 98.1458 251.626C98.1458 228.441 98.1458 205.257 98.1458 182.098C98.1458 155.308 98.1458 128.517 98.1458 101.702C98.1458 96.5468 98.1458 91.4173 98.1458 86.2624C98.425 86.2624 98.7043 86.2624 98.9835 86.2624C103.071 86.2624 105.127 83.0881 105.127 79.9139H110.839C110.839 90.3253 110.839 100.762 110.839 111.174C110.839 137.964 110.839 164.754 110.839 191.544C110.839 213.789 110.839 236.034 110.839 258.279C110.839 265.44 110.839 272.576 110.839 279.737C108.707 279.737 106.6 279.737 104.493 279.737C106.6 281.844 108.707 283.977 110.839 286.085C110.839 283.977 110.839 281.844 110.839 279.737C122.213 279.737 133.586 279.737 144.985 279.737C144.985 283.977 144.985 288.193 144.985 292.433C131.479 292.433 117.973 292.433 104.492 292.433C101.04 292.433 98.1458 289.513 98.1458 286.085C98.1458 285.933 98.1458 285.755 98.1458 285.603Z"
            fill="#030000"
        />
        <path
            d="M110.839 7.16113C110.839 7.33888 110.814 7.49124 110.839 7.6436C110.992 9.57352 110.966 11.5542 110.941 13.5095C108.783 13.5095 106.65 13.5095 104.493 13.5095C106.6 11.4019 108.707 9.29419 110.839 7.16113Z"
            fill="#030000"
        />
        <path
            d="M110.839 7.16113C108.707 9.29419 106.6 11.4019 104.493 13.5095C106.65 13.5095 108.783 13.5095 110.941 13.5095C110.89 15.2109 110.839 16.9377 110.839 18.6137C110.839 26.2825 110.839 33.9514 110.839 41.6457C110.839 54.3933 110.839 67.1409 110.839 79.9139H105.127C105.127 76.7397 103.071 73.5655 98.9836 73.5655C98.7043 73.5655 98.425 73.5655 98.1458 73.5655C98.1458 67.8266 98.1458 62.113 98.1458 56.374C102.944 54.3679 102.969 46.5975 98.1458 44.5914C98.1458 41.3918 98.1458 38.1668 98.1458 34.9672C98.1458 25.6985 98.1458 16.4298 98.1458 7.16113C98.1458 3.73298 101.04 0.812713 104.493 0.812713C104.67 0.812713 104.848 0.838106 105.026 0.812713C117.77 0.381021 130.616 0.812713 143.385 0.812713C169.686 0.812713 195.987 0.812713 222.288 0.812713C252.854 0.812713 283.394 0.812713 313.96 0.812713C339.144 0.812713 364.327 0.812713 389.511 0.812713C400.047 0.812713 410.582 0.812713 421.093 0.812713C424.545 0.812713 427.439 3.73298 427.439 7.16113C427.439 7.33888 427.439 7.49124 427.439 7.6436C427.871 18.9438 427.439 30.3455 427.439 41.6457C427.439 42.4837 427.439 43.2963 427.439 44.1343C425.358 44.1343 423.301 44.1343 421.22 44.1343C417.132 44.1343 415.101 47.3085 415.101 50.4827H414.746C414.746 45.3024 414.746 40.1475 414.746 34.9672C414.746 27.857 414.746 20.7467 414.746 13.6365C416.701 13.6619 418.655 13.6619 420.559 13.5095C420.737 13.5095 420.915 13.5095 421.093 13.5095C418.985 11.4019 416.878 9.29419 414.746 7.16113C414.746 9.31959 414.746 11.478 414.746 13.6365C412.563 13.6111 410.379 13.5095 408.221 13.5095C399.539 13.5095 390.882 13.5095 382.2 13.5095C355.899 13.5095 329.598 13.5095 303.297 13.5095C272.732 13.5095 242.191 13.5095 211.625 13.5095C186.441 13.5095 161.258 13.5095 136.074 13.5095C127.696 13.5095 119.293 13.5095 110.941 13.5095C110.966 11.5542 110.992 9.57352 110.839 7.6436C110.814 7.49124 110.839 7.33888 110.839 7.16113Z"
            fill="#030000"
        />
        <path
            d="M98.9836 73.5655C103.071 73.5655 105.127 76.7397 105.127 79.9139C105.127 83.0881 103.071 86.2624 98.9835 86.2624C98.7043 86.2624 98.425 86.2624 98.1458 86.2624C98.1458 82.0216 98.1458 77.8063 98.1458 73.5655C98.425 73.5655 98.7043 73.5655 98.9836 73.5655Z"
            fill="#030000"
        />
        <path
            d="M98.1458 56.374C102.944 54.3679 102.969 46.5975 98.1458 44.5914C98.1458 48.5274 98.1458 52.438 98.1458 56.374Z"
            fill="#030000"
        />
    </svg>