<svg width="238" height="232" viewBox="0 0 238 232" fill="none" xmlns="http://www.w3.org/2000/svg">
<g id="signInPageSVG" clip-path="url(#clip0_84_38)">
<g id="Group">
<path id="Vector" d="M73.4952 170.19H43.6828C42.9313 170.19 42.3197 169.579 42.3197 168.829C42.3197 168.078 42.9313 167.468 43.6828 167.468H73.4952C74.2468 167.468 74.858 168.078 74.858 168.829C74.858 169.579 74.2468 170.19 73.4952 170.19Z" fill="#6C63FF"/>
<path id="Vector_2" d="M20.2518 177.474C20.2518 177.718 20.4485 177.915 20.6933 177.915H96.4845C96.7294 177.915 96.926 177.718 96.926 177.474C96.926 177.229 96.7294 177.033 96.4845 177.033H20.6933C20.4485 177.033 20.2518 177.229 20.2518 177.474Z" fill="#3F3D56"/>
</g>
<path id="Vector_3" d="M180.159 88.6691C193.478 88.6691 204.274 77.8906 204.274 64.5947C204.274 51.2987 193.478 40.5203 180.159 40.5203C166.841 40.5203 156.044 51.2987 156.044 64.5947C156.044 77.8906 166.841 88.6691 180.159 88.6691Z" fill="#FF6884"/>
<path id="Vector_4" d="M0 207.895C0 208.139 0.19664 208.336 0.44151 208.336H194.21C194.455 208.336 194.652 208.139 194.652 207.895C194.652 207.65 194.455 207.454 194.21 207.454H0.44151C0.19664 207.454 0 207.65 0 207.895Z" fill="#3F3D56"/>
<g id="Group_2">
<path id="Vector_5" d="M2.80283 178.131L2.18298 177.453L62.6793 122.342L84.475 132.097L108.011 91.802L127.348 82.4968L145.265 112.307C154.938 87.3075 179.196 61.1518 208.264 34.6151L208.979 35.1931C181.716 61.2507 158.39 87.4265 145.153 113.905L128.581 86.2506C127.798 84.9441 126.152 84.4395 124.77 85.0818C114.2 89.9917 105.383 98.0062 99.4994 108.054L84.7562 133.228L81.3907 131.722C70.1353 126.685 56.959 128.796 47.8476 137.096L2.80283 178.131Z" fill="#3F3D56"/>
<path id="Vector_6" d="M209.628 39.6324L208.71 39.6961L207.228 36.4896L203.909 35.8167L203.781 34.9066L209.25 34.1306L209.628 39.6324Z" fill="#3F3D56"/>
</g>
<path id="Vector_7" d="M115.263 59.2527L118.515 46.772L131.184 46.1637L134.974 63.3678L115.263 59.2527Z" fill="#FFB6B6"/>
<path id="Vector_8" opacity="0.1" d="M115.263 59.2527L118.515 46.772L131.184 46.1637L134.974 63.3678L115.263 59.2527Z" fill="black"/>
<path id="Vector_9" d="M123.599 53.7566C132.044 53.7566 138.891 46.922 138.891 38.4911C138.891 30.0602 132.044 23.2256 123.599 23.2256C115.154 23.2256 108.308 30.0602 108.308 38.4911C108.308 46.922 115.154 53.7566 123.599 53.7566Z" fill="#FFB6B6"/>
<path id="Vector_10" d="M132.036 41.7223C132.036 41.7223 126.227 30.2323 119.421 30.8957C112.615 31.559 109.03 32.3658 109.03 32.3658C109.03 32.3658 107.009 23.4169 116.521 19.9747C116.521 19.9747 104.427 8.07308 118.826 2.23482C133.225 -3.60344 141.282 3.84252 141.282 3.84252C141.282 3.84252 151.94 14.4647 138.516 22.4038C138.516 22.4038 148.484 35.7887 136.416 46.8209C136.416 46.8209 139.115 37.8934 136.299 39.5398C133.482 41.1861 132.036 41.7223 132.036 41.7223Z" fill="#2F2E41"/>
<path id="Vector_11" d="M106.728 122.376L104.694 124.322L90 155.777L88.3915 207.804H113.08L124.661 182.039L132.464 207.555H154.662L159.808 161.236L145.975 128.478L106.728 122.376Z" fill="#2F2E41"/>
<path id="Vector_12" d="M132.303 57.9844H115.816L97.8816 67.6191L102.064 86.2462C102.064 86.2462 101.099 97.4867 103.35 105.837C105.602 114.187 104.637 125.106 104.637 125.106L145.975 128.478L147.262 90.5818L146.619 65.2105L132.303 57.9844Z" fill="#E6E6E6"/>
<path id="Vector_13" d="M100.616 67.7797C100.616 67.7797 90.6434 68.1008 89.0349 74.524C87.4264 80.9471 86.1396 114.026 86.1396 114.026C86.1396 114.026 87.1047 133.655 97.8816 124.322C108.658 114.99 107.693 86.7279 107.693 86.7279L100.616 67.7797Z" fill="#E6E6E6"/>
<path id="Vector_14" d="M197.344 231.63H138.575C136.584 231.63 134.965 230.013 134.965 228.026V167.374C134.965 165.387 136.584 163.771 138.575 163.771H197.344C199.335 163.771 200.954 165.387 200.954 167.374V228.026C200.954 230.013 199.335 231.63 197.344 231.63Z" fill="white"/>
<path id="Vector_15" d="M197.344 232H138.574C136.38 232 134.594 230.217 134.594 228.026V167.374C134.594 165.183 136.38 163.4 138.574 163.4H197.344C199.539 163.4 201.325 165.183 201.325 167.374V228.026C201.325 230.217 199.539 232 197.344 232ZM138.574 164.141C136.789 164.141 135.336 165.591 135.336 167.374V228.026C135.336 229.809 136.789 231.259 138.574 231.259H197.344C199.13 231.259 200.583 229.809 200.583 228.026V167.374C200.583 165.591 199.13 164.141 197.344 164.141H138.574Z" fill="#3F3D56"/>
<g id="Group_3">
<path id="Vector_16" d="M170.279 215.696H165.435C164.845 215.696 164.365 215.326 164.365 214.872V194.052C164.365 193.598 164.845 193.228 165.435 193.228H170.279C170.868 193.228 171.348 193.598 171.348 194.052V214.872C171.348 215.326 170.868 215.696 170.279 215.696Z" fill="#6C63FF"/>
<path id="Vector_17" d="M154.265 203.427C153.788 203.427 153.4 203.725 153.4 204.093V214.848C153.4 215.215 153.788 215.514 154.265 215.514H159.108C159.585 215.514 159.972 215.215 159.972 214.848V204.093C159.972 203.725 159.585 203.427 159.108 203.427H154.265Z" fill="#6C63FF"/>
<path id="Vector_18" d="M181.449 215.696H176.605C176.015 215.696 175.535 215.326 175.535 214.872V180.752C175.535 180.298 176.015 179.928 176.605 179.928H181.449C182.038 179.928 182.518 180.298 182.518 180.752V214.872C182.518 215.326 182.038 215.696 181.449 215.696Z" fill="#6C63FF"/>
</g>
<g id="Group_4">
<path id="Vector_19" d="M77.2139 66.1386H71.6809C71.0072 66.1386 70.4592 65.7164 70.4592 65.1972V41.4156C70.4592 40.8964 71.0072 40.4741 71.6809 40.4741H77.2139C77.8876 40.4741 78.4356 40.8964 78.4356 41.4156V65.1972C78.4356 65.7163 77.8876 66.1386 77.2139 66.1386Z" fill="#6C63FF"/>
<path id="Vector_20" d="M58.9214 52.1239C58.3772 52.1239 57.9343 52.4652 57.9343 52.8845V65.1707C57.9343 65.59 58.3772 65.9313 58.9214 65.9313H64.4544C64.9986 65.9313 65.4415 65.59 65.4415 65.1707V52.8845C65.4415 52.4652 64.9986 52.1239 64.4544 52.1239H58.9214Z" fill="#6C63FF"/>
<path id="Vector_21" d="M89.9734 66.1387H84.4404C83.7668 66.1387 83.2188 65.7164 83.2188 65.1972V26.2233C83.2188 25.7042 83.7668 25.2819 84.4404 25.2819H89.9734C90.6471 25.2819 91.1951 25.7042 91.1951 26.2233V65.1972C91.1951 65.7164 90.6471 66.1387 89.9734 66.1387Z" fill="#6C63FF"/>
</g>
<path id="Vector_22" d="M158.95 172.595C161.815 172.321 163.789 168.455 163.358 163.958C163.21 162.159 162.633 160.422 161.675 158.891L161.123 153.802L161.207 153.776L162.596 129.643C162.919 124.032 160.694 118.518 156.407 114.875C153.857 112.707 151.137 111.61 149.388 114.348C146.485 118.893 150.245 137.625 152.714 148.275L153.671 159.656C153.021 161.341 152.784 163.157 152.981 164.951C153.411 169.447 156.084 172.869 158.95 172.595Z" fill="#FFB6B6"/>
<path id="Vector_23" d="M143.08 65.8527C143.08 65.8527 151.444 62.6412 155.304 72.2758C159.165 81.9105 163.347 129.442 163.347 129.442L143.723 125.909L143.08 65.8527Z" fill="#E6E6E6"/>
<g id="Group_5">
<path id="Vector_24" d="M28.2299 61.1403H16.9675C16.2159 61.1403 15.6044 60.5297 15.6044 59.7794C15.6044 59.0291 16.2159 58.4188 16.9675 58.4188H28.2299C28.9815 58.4188 29.5928 59.0291 29.5928 59.7794C29.5928 60.5297 28.9815 61.1403 28.2299 61.1403Z" fill="#E6E6E6"/>
<path id="Vector_25" d="M28.2299 41.8514H16.9675C16.2159 41.8514 15.6044 41.2409 15.6044 40.4905C15.6044 39.7402 16.2159 39.1299 16.9675 39.1299H28.2299C28.9815 39.1299 29.5928 39.7402 29.5928 40.4905C29.5928 41.2409 28.9815 41.8514 28.2299 41.8514Z" fill="#E6E6E6"/>
<path id="Vector_26" d="M28.2299 27.9412H16.9675C16.2159 27.9412 15.6044 27.3306 15.6044 26.5803C15.6044 25.83 16.2159 25.2197 16.9675 25.2197H28.2299C28.9815 25.2197 29.5928 25.83 29.5928 26.5803C29.5928 27.3306 28.9815 27.9412 28.2299 27.9412Z" fill="#E6E6E6"/>
<path id="Vector_27" d="M15.1526 66.206C15.1526 66.4505 15.3492 66.6467 15.5941 66.6467H91.3853C91.6301 66.6467 91.8268 66.4505 91.8268 66.206C91.8268 65.9616 91.6301 65.7653 91.3853 65.7653H15.5941C15.3492 65.7653 15.1526 65.9616 15.1526 66.206Z" fill="#3F3D56"/>
</g>
<path id="Vector_28" d="M161.326 180.282C161.326 180.526 161.522 180.722 161.767 180.722H237.559C237.803 180.722 238 180.526 238 180.282C238 180.037 237.803 179.841 237.559 179.841H161.767C161.522 179.841 161.326 180.037 161.326 180.282Z" fill="#3F3D56"/>
<path id="Vector_29" d="M139.066 216.208C139.066 216.452 139.263 216.649 139.507 216.649H215.299C215.543 216.649 215.74 216.452 215.74 216.208C215.74 215.964 215.543 215.767 215.299 215.767H139.507C139.263 215.767 139.066 215.964 139.066 216.208Z" fill="#3F3D56"/>
<path id="Vector_30" d="M88.0998 63.9778C85.234 64.2517 83.2605 68.1178 83.6917 72.615C83.8393 74.4138 84.4162 76.1511 85.3742 77.6817L85.9265 82.7714L85.8419 82.7967L84.4535 106.93C84.1307 112.541 86.3557 118.055 90.6423 121.698C93.1923 123.866 95.9126 124.963 97.6619 122.225C100.564 117.68 96.8047 98.9477 94.3357 88.2976L93.3785 76.9167C94.0287 75.2321 94.2653 73.4165 94.0684 71.6218C93.638 67.1262 90.9656 63.7039 88.0998 63.9778Z" fill="#FFB6B6"/>
</g>
<defs>
<clipPath id="clip0_84_38">
<rect width="238" height="232" fill="white"/>
</clipPath>
</defs>
</svg>
