<svg width="139" height="240" viewBox="0 0 139 240" fill="none" xmlns="http://www.w3.org/2000/svg">
<g id="undraw_love_it_50rw 1" clip-path="url(#clip0_84_96)">
<path id="Vector" d="M19.4465 239.456C19.4465 239.758 19.6891 240 19.9912 240H138.455C138.757 240 139 239.758 139 239.456C139 239.155 138.757 238.913 138.455 238.913H19.9912C19.6891 238.913 19.4465 239.155 19.4465 239.456Z" fill="#484565"/>
<path id="Vector_2" d="M81.7451 0.150706C81.7451 0.150706 71.7174 -2.27478 65.6487 12.3786C60.5914 24.5929 57.0032 31.1157 61.1086 35.5464C62.5777 37.1314 64.6738 37.9856 66.8341 38.0587L89.9466 38.8169C89.9466 38.8169 98.4318 16.6084 93.2739 8.57825C88.1159 0.543535 81.7451 0.150706 81.7451 0.150706Z" fill="#2F2E41"/>
<path id="Vector_3" d="M86.5323 36.9716L75.4154 40.6212V24.6477H85.5025L86.5323 36.9716Z" fill="#F6A6A9"/>
<path id="Vector_4" d="M78.0013 230.531H67.5847L61.548 174.996H77.6443L78.0013 230.531Z" fill="#F6A6A9"/>
<path id="Vector_5" d="M57.4426 239.456C56.3487 239.456 55.3739 239.429 54.637 239.361C51.8681 239.109 49.2319 237.072 47.9046 235.88C47.3097 235.345 47.1174 234.491 47.4287 233.756C47.6529 233.226 48.0969 232.833 48.6461 232.678L55.9551 230.595L67.7906 222.624L67.9233 222.862C67.9736 222.949 69.1361 225.041 69.5251 226.452C69.6716 226.991 69.635 227.439 69.4107 227.781C69.2551 228.023 69.04 228.16 68.8615 228.238C69.0766 228.462 69.7494 228.914 71.8135 229.243C74.8342 229.723 75.4657 226.598 75.4932 226.466L75.5115 226.361L75.603 226.301C77.0401 225.379 77.9234 224.958 78.2301 225.045C78.4223 225.1 78.7381 225.196 79.594 233.701C79.6809 233.966 80.2805 235.926 79.8731 237.794C79.4292 239.831 70.5183 239.128 68.7334 238.968C68.683 238.972 62.0101 239.447 57.438 239.447V239.456H57.4426Z" fill="#2F2E41"/>
<path id="Vector_6" d="M101.526 230.531H91.1137L85.0724 174.996H101.169L101.526 230.531Z" fill="#F6A6A9"/>
<path id="Vector_7" d="M80.9716 239.456C79.8778 239.456 78.9029 239.429 78.1661 239.361C75.3971 239.109 72.761 237.072 71.4337 235.88C70.8387 235.345 70.6465 234.491 70.9577 233.756C71.182 233.226 71.6259 232.833 72.1751 232.678L79.4842 230.595L91.3196 222.624L91.4523 222.862C91.5027 222.949 92.6652 225.041 93.0542 226.452C93.2007 226.991 93.164 227.439 92.9398 227.781C92.7842 228.023 92.5691 228.16 92.3906 228.238C92.6057 228.462 93.2785 228.914 95.3426 229.243C98.3632 229.723 98.9948 226.598 99.0223 226.466L99.0406 226.361L99.1321 226.301C100.569 225.379 101.453 224.958 101.759 225.045C101.951 225.1 102.267 225.196 103.123 233.701C103.21 233.966 103.81 235.926 103.402 237.794C102.958 239.831 94.0473 239.128 92.2624 238.968C92.2121 238.972 85.5392 239.447 80.967 239.447V239.456H80.9716Z" fill="#2F2E41"/>
<path id="Vector_8" d="M104.523 94.1282H53.9231L72.111 34.3862H92.2853L104.523 94.1282Z" fill="#DDDEDF"/>
<path id="uuid-91f12725-4651-4192-855e-1b1e45ba96a1-211" d="M52.5455 127.651C51.9413 131.31 49.4974 133.936 47.0854 133.511C44.6735 133.087 43.2044 129.78 43.8085 126.121C44.0282 124.655 44.6094 123.271 45.5019 122.078L48.2571 106.607L55.7583 108.174L52.2434 123.257C52.7057 124.682 52.8109 126.189 52.55 127.651H52.5455Z" fill="#F6A6A9"/>
<path id="Vector_9" d="M75.2964 34.3953C75.2964 34.3953 62.7287 34.0664 61.406 37.3644C60.0834 40.6669 44.5408 119.223 44.5408 119.223H54.7927L75.2964 34.3953Z" fill="#DDDEDF"/>
<path id="Vector_10" d="M77.9647 28.4207C84.0841 28.4207 89.0449 23.4696 89.0449 17.3621C89.0449 11.2546 84.0841 6.30353 77.9647 6.30353C71.8452 6.30353 66.8844 11.2546 66.8844 17.3621C66.8844 23.4696 71.8452 28.4207 77.9647 28.4207Z" fill="#F6A6A9"/>
<path id="Vector_11" d="M79.7039 3.8004C79.7039 3.8004 65.4794 24.9172 67.873 38.0907L59.5983 32.9154C59.5983 32.9154 65.4244 6.24873 74.1065 4.17953L79.7039 3.79584V3.8004Z" fill="#2F2E41"/>
<path id="Vector_12" d="M94.0061 94.1281H60.8019L42.6322 168.551C42.2981 171.693 44.2936 174.626 47.3554 175.444C57.3236 178.107 81.2416 181.884 117.448 171.369C120.931 170.36 122.908 166.692 121.814 163.239L94.0061 94.1327V94.1281Z" fill="#2F2E41"/>
<path id="Vector_13" d="M49.2228 44.9834L48.9939 44.755L48.7651 44.9834C37.6299 33.8792 19.5838 33.8929 8.45779 45.0063C-2.66825 56.1242 -2.89251 74.3588 8.24269 85.463L49.0214 126.121L89.7726 85.4128C100.899 74.2948 100.665 56.0603 89.5346 44.956C78.3995 33.8517 60.3534 33.8655 49.2273 44.9788L49.2228 44.9834Z" fill="#6C63FF"/>
<path id="Vector_14" d="M79.3376 39.9771L88.5369 35.2678C92.7429 33.7147 97.4341 34.2355 101.196 36.6792C112.638 44.1064 135.192 60.4819 125.499 68.576C112.725 79.2463 95.4569 60.322 95.4569 60.322L79.3376 39.9771Z" fill="#DDDEDF"/>
<path id="uuid-8411e106-0120-401a-9ba4-6dca08ef376d-212" d="M79.1363 48.0256C75.9372 46.1437 74.3674 42.9188 75.6351 40.8222C76.9029 38.7302 80.5231 38.5611 83.7268 40.4431C85.0174 41.1785 86.1021 42.2199 86.8893 43.4806L100.345 51.6387L96.1709 58.0518L83.3469 49.3274C81.8458 49.2406 80.3995 48.793 79.1318 48.021H79.1363V48.0256Z" fill="#F6A6A9"/>
<path id="Vector_15" d="M88.2806 55.4208L92.1068 46.299L110.803 52.4746L102.441 66.3652L88.2806 55.4208Z" fill="#DDDEDF"/>
</g>
<defs>
<clipPath id="clip0_84_96">
<rect width="139" height="240" fill="white"/>
</clipPath>
</defs>
</svg>
