<svg width="60" height="60" viewBox="0 0 60 60" fill="none" xmlns="http://www.w3.org/2000/svg">
<g id="&#240;&#159;&#166;&#134; icon &#34;facebook&#34;">
<path id="Vector" d="M60 42.57C60 53.49 53.49 60 42.57 60H39C37.35 60 36 58.65 36 57V39.69C36 38.88 36.66 38.19 37.47 38.19L42.75 38.1C43.17 38.07 43.53 37.77 43.62 37.35L44.67 31.62C44.76 31.08 44.34 30.57 43.77 30.57L37.38 30.66C36.54 30.66 35.88 30 35.85 29.19L35.73 21.84C35.73 21.36 36.12 20.94 36.63 20.94L43.83 20.82C44.34 20.82 44.73 20.43 44.73 19.92L44.61 12.72C44.61 12.21 44.22 11.82 43.71 11.82L35.61 11.94C30.63 12.03 26.67 16.11 26.76 21.09L26.91 29.34C26.94 30.18 26.28 30.84 25.44 30.87L21.84 30.93C21.33 30.93 20.94 31.32 20.94 31.83L21.03 37.53C21.03 38.04 21.42 38.43 21.93 38.43L25.53 38.37C26.37 38.37 27.03 39.03 27.06 39.84L27.33 56.94C27.36 58.62 26.01 60 24.33 60H17.43C6.51 60 0 53.49 0 42.54V17.43C0 6.51 6.51 0 17.43 0H42.57C53.49 0 60 6.51 60 17.43V42.57Z" fill="#03A9F4"/>
</g>
</svg>
