<svg width="303" height="315" viewBox="0 0 303 315" fill="none" xmlns="http://www.w3.org/2000/svg">
<g clip-path="url(#clip0_85_295)">
<path d="M269.196 239.724L269.19 239.866L276.304 315H224.395L217.666 268.855L214.704 313.817L161.397 313.225L167.06 254.195L171.875 226.833V226.827L172.598 222.709H267.781L267.905 224.2L269.196 239.724Z" fill="#2F2E41"/>
<path d="M132.014 283.279C137.512 284.28 143.244 278.096 144.818 269.467C145.507 265.689 145.285 262.07 144.356 259.11L145.199 254.136L159.345 187.22C159.345 187.22 185.395 135.173 185.394 126.137C185.394 117.102 177.859 112.671 177.859 112.671L167.663 112.766L135.689 190.767L129.93 248.407L128.999 256.315C127.084 258.758 125.598 262.067 124.91 265.844C123.336 274.473 126.516 282.279 132.014 283.279Z" fill="#FFB6B6"/>
<path d="M235.731 80.428L226.254 58.5385L195.455 63.863L193.382 89.6165L235.731 80.428Z" fill="#FFB6B6"/>
<path opacity="0.1" d="M235.731 80.428L226.254 58.5385L195.455 63.863L193.382 89.6165L235.731 80.428Z" fill="black"/>
<path d="M302.661 125.982C302.661 125.982 280.746 85.1608 276.6 81.0196C274.754 79.176 271.853 79.1504 269.2 79.6877L238.693 69.1875L228.352 63.3843L227.671 74.4248L193.723 80.511C193.911 73.778 194.862 71.217 194.862 71.217L182.424 85.7525L158.14 97.5846L158.153 97.6911C156.371 98.3125 154.681 99.3757 153.401 101.134C148.663 107.642 135.632 186.917 135.632 186.917L163.47 192.833L167.259 169.086L169.986 190.467L172.059 230.4C172.059 230.4 209.966 262.939 228.327 251.107C246.689 239.274 269.196 239.866 269.196 239.866L269.758 221.356C270.158 220.718 270.381 220.343 270.381 220.343L269.789 154.684V137.213C274.301 143.492 279.746 148.892 286.077 151.421C306.808 159.703 302.661 125.982 302.661 125.982Z" fill="#E6E6E6"/>
<path d="M207.635 67.7143C223.284 67.7143 235.97 55.0433 235.97 39.4128C235.97 23.7822 223.284 11.1112 207.635 11.1112C191.986 11.1112 179.3 23.7822 179.3 39.4128C179.3 55.0433 191.986 67.7143 207.635 67.7143Z" fill="#FFB6B6"/>
<path d="M227.962 47.4111C227.962 47.4111 230.426 38.7975 235.97 39.4128C241.514 40.028 242.746 35.106 241.514 32.645C240.282 30.184 237.818 17.879 237.818 17.879C237.818 17.879 239.05 9.26547 231.658 8.03497C224.266 6.80447 221.803 5.57396 220.571 3.11295C219.339 0.651947 200.859 -1.80906 194.7 1.88245C188.54 5.57396 183.612 12.6566 179.3 14.6526C174.988 16.6485 171.293 20.34 173.756 26.4925C176.22 32.645 179.794 44.678 179.794 44.678C179.794 44.678 186.076 42.489 187.308 46.1805C188.54 49.8721 183.612 44.95 189.772 35.106C195.932 25.262 195.932 15.418 205.787 19.1095C215.643 22.801 226.73 21.5705 225.498 28.9535C224.266 36.3365 227.962 47.4111 227.962 47.4111Z" fill="#2F2E41"/>
<path d="M226.23 271.775H11.0365C4.95086 271.775 0 266.829 0 260.751V146.575C0 140.497 4.95086 135.552 11.0365 135.552H226.23C232.315 135.552 237.266 140.497 237.266 146.575V260.751C237.266 266.829 232.315 271.775 226.23 271.775Z" fill="white"/>
<path d="M226.23 271.775H11.0365C4.95086 271.775 0 266.829 0 260.751V146.575C0 140.497 4.95086 135.552 11.0365 135.552H226.23C232.315 135.552 237.266 140.497 237.266 146.575V260.751C237.266 266.829 232.315 271.775 226.23 271.775ZM11.0365 137.393C5.96731 137.393 1.84302 141.512 1.84302 146.575V260.751C1.84302 265.814 5.96731 269.934 11.0365 269.934H226.23C231.299 269.934 235.423 265.814 235.423 260.751V146.575C235.423 141.512 231.299 137.393 226.23 137.393H11.0365Z" fill="#3F3D56"/>
<path d="M209.621 149.358C211.148 149.358 212.385 148.122 212.385 146.597C212.385 145.072 211.148 143.836 209.621 143.836C208.094 143.836 206.856 145.072 206.856 146.597C206.856 148.122 208.094 149.358 209.621 149.358Z" fill="#3F3D56"/>
<path d="M216.993 149.358C218.52 149.358 219.758 148.122 219.758 146.597C219.758 145.072 218.52 143.836 216.993 143.836C215.466 143.836 214.229 145.072 214.229 146.597C214.229 148.122 215.466 149.358 216.993 149.358Z" fill="#3F3D56"/>
<path d="M224.365 149.358C225.892 149.358 227.13 148.122 227.13 146.597C227.13 145.072 225.892 143.836 224.365 143.836C222.838 143.836 221.601 145.072 221.601 146.597C221.601 148.122 222.838 149.358 224.365 149.358Z" fill="#3F3D56"/>
<path d="M15.6657 191.237C14.9035 191.237 14.2834 191.857 14.2834 192.618C14.2834 192.989 14.427 193.333 14.6875 193.586C14.9503 193.855 15.2945 193.999 15.6657 193.999H222.522C223.284 193.999 223.904 193.379 223.904 192.618C223.904 192.247 223.761 191.904 223.5 191.65C223.238 191.381 222.893 191.237 222.522 191.237H15.6657Z" fill="#E6E6E6"/>
<path d="M196.72 190.777V194.459H15.6655C15.1587 194.459 14.698 194.256 14.3662 193.916C14.0252 193.585 13.8225 193.124 13.8225 192.618C13.8225 191.606 14.6519 190.777 15.6655 190.777H196.72Z" fill="#6C63FF"/>
<path d="M220.218 183.874H201.788C199.756 183.874 198.102 182.223 198.102 180.192C198.102 178.162 199.756 176.511 201.788 176.511H220.218C222.251 176.511 223.904 178.162 223.904 180.192C223.904 182.223 222.251 183.874 220.218 183.874Z" fill="#E6E6E6"/>
<path d="M99.5006 164.545H17.0479C15.0154 164.545 13.3618 162.894 13.3618 160.863C13.3618 158.833 15.0154 157.182 17.0479 157.182H99.5006C101.533 157.182 103.187 158.833 103.187 160.863C103.187 162.894 101.533 164.545 99.5006 164.545Z" fill="#E6E6E6"/>
<path d="M15.6657 232.657C14.9035 232.657 14.2834 233.276 14.2834 234.037C14.2834 234.409 14.427 234.752 14.6875 235.005C14.9503 235.274 15.2945 235.418 15.6657 235.418H222.522C223.284 235.418 223.904 234.799 223.904 234.037C223.904 233.666 223.761 233.323 223.5 233.069C223.238 232.801 222.893 232.657 222.522 232.657H15.6657Z" fill="#E6E6E6"/>
<path d="M125.764 232.196V235.878H15.6655C15.1587 235.878 14.698 235.676 14.3662 235.335C14.0252 235.004 13.8225 234.544 13.8225 234.037C13.8225 233.025 14.6519 232.196 15.6655 232.196H125.764Z" fill="#6C63FF"/>
<path d="M220.218 225.293H201.788C199.756 225.293 198.102 223.642 198.102 221.612C198.102 219.581 199.756 217.93 201.788 217.93H220.218C222.251 217.93 223.904 219.581 223.904 221.612C223.904 223.642 222.251 225.293 220.218 225.293Z" fill="#E6E6E6"/>
<path d="M252.483 69.8928C268.422 69.8928 281.344 57.2585 281.344 41.6733C281.344 26.0881 268.422 13.4538 252.483 13.4538C236.544 13.4538 223.622 26.0881 223.622 41.6733C223.622 57.2585 236.544 69.8928 252.483 69.8928Z" fill="#6C63FF"/>
<path d="M262.279 27.4392C258.436 34.4273 254.594 41.4155 250.752 48.4037C248.303 44.082 245.867 39.7527 243.413 35.4344C242.565 33.9431 240.259 35.2845 241.109 36.7796C243.954 41.7854 246.771 46.808 249.616 51.8138C250.103 52.6697 251.439 52.6896 251.92 51.8138C256.141 44.1373 260.362 36.4608 264.582 28.7843C265.41 27.2801 263.106 25.9338 262.279 27.4392Z" fill="white"/>
<path d="M292.324 116.057L263.569 102.317C263.569 102.317 262.415 93.1217 257.022 89.8417C256.105 87.6572 255.051 85.2573 254.093 83.3557C251.723 78.6532 255.277 69.7791 252.316 69.7791C249.354 69.7791 244.976 79.1119 245.208 81.6112C245.386 83.5297 246.973 86.8793 247.301 89.8114C243.69 91.1718 240.777 93.5035 238.861 95.3601C237.204 96.9667 236.588 99.3638 237.236 101.578C239.113 107.995 243.805 121.249 250.539 121.249C259.423 121.249 261.793 119.474 261.793 119.474C261.793 119.474 280.154 142.547 293.777 144.321C307.4 146.096 292.324 116.057 292.324 116.057Z" fill="#FFB6B6"/>
</g>
<defs>
<clipPath id="clip0_85_295">
<rect width="303" height="315" fill="white"/>
</clipPath>
</defs>
</svg>
