<svg
            viewBox="0 0 35 35"
            fill="none"
            xmlns="http://www.w3.org/2000/svg"
        >
            <path
                d="M26.2501 17.5C26.243 16.7328 25.9339 15.9992 25.3897 15.4583L19.1334 9.1875C18.8602 8.91588 18.4906 8.76343 18.1053 8.76343C17.72 8.76343 17.3504 8.91588 17.0772 9.1875C16.9405 9.32307 16.832 9.48436 16.758 9.66208C16.6839 9.83979 16.6458 10.0304 16.6458 10.2229C16.6458 10.4154 16.6839 10.606 16.758 10.7838C16.832 10.9615 16.9405 11.1228 17.0772 11.2583L21.8751 16.0417H7.29177C6.90499 16.0417 6.53406 16.1953 6.26057 16.4688C5.98708 16.7423 5.83344 17.1132 5.83344 17.5C5.83344 17.8868 5.98708 18.2577 6.26057 18.5312C6.53406 18.8047 6.90499 18.9583 7.29177 18.9583H21.8751L17.0772 23.7562C16.8026 24.0289 16.6475 24.3995 16.6462 24.7865C16.6448 25.1735 16.7972 25.5452 17.0699 25.8198C17.3426 26.0944 17.7132 26.2494 18.1002 26.2508C18.4871 26.2522 18.8588 26.0997 19.1334 25.8271L25.3897 19.5562C25.9374 19.0118 26.2468 18.2723 26.2501 17.5Z"
                fill="white"
            />
        </svg>