<svg
        viewBox="-70 -80 500 1000"
        fill="none"
        xmlns="http://www.w3.org/2000/svg"
        width="430" height="500"
    >


        <path
            d="M298.693 86.2242C295.548 83.6068 292.118 81.3308 288.433 79.4389L289.699 77.0207C289.699 77.7035 290.838 78.1871 291.407 77.4474C294.367 73.6067 298.636 71.1885 303.219 69.6807C307.36 72.4687 311.188 75.6693 314.632 79.2113C309.324 81.5584 304.001 83.8913 298.693 86.2242Z"
            fill="#5FAB76"
        />
        <path
            d="M323.555 57.8597C324.394 60.4629 325.234 63.0803 326.074 65.6976L324.38 66.2382C324.281 65.911 324.01 65.6407 323.583 65.5981C319.101 65.2282 314.475 65.5554 310.05 66.2524C307.132 66.7076 304.172 67.4188 301.369 68.4715C299.163 67.049 296.857 65.7545 294.481 64.6023C298.679 62.0845 303.703 60.7901 308.47 60.1073C312.526 59.524 316.738 59.2822 320.837 59.6236C321.548 59.6805 321.819 58.9977 321.634 58.4714L323.555 57.8597Z"
            fill="white"
        />
        <path
            d="M276.365 59.1684C269.05 56.8356 261.223 59.14 254.591 62.4402C250.934 64.2609 247.319 66.4231 244.146 69.012C243.263 69.7233 241.997 68.4715 242.893 67.746C246.38 64.9011 250.35 62.4971 254.406 60.5625C257.537 59.0546 260.91 57.7886 264.368 57.0774C268.723 57.2054 273.077 57.7317 277.375 58.6421C277.247 59.0404 276.877 59.3391 276.365 59.1684Z"
            fill="#5FAB76"
        />
        <path
            d="M185.073 71.5299C185.955 72.2127 184.788 73.4218 183.906 72.8528C183.877 72.8386 183.849 72.8243 183.82 72.7959C183.749 72.739 183.692 72.6963 183.65 72.6679C183.393 72.4829 183.137 72.2838 182.881 72.0989C181.97 71.4445 181.045 70.7902 180.106 70.1643C166.914 61.4018 149.026 53.0945 133.087 58.6848C131.991 59.0689 131.536 57.3477 132.603 56.9778C137.655 55.1997 143.049 54.8157 148.342 55.4131C157.265 56.4373 165.804 59.8797 173.631 64.1756C177.587 66.352 181.501 68.756 185.073 71.5299Z"
            fill="#626262"
        />
        <path
            d="M323.583 67.3761C319.485 67.0347 315.272 67.2766 311.217 67.8598C308.57 68.2439 305.837 68.8129 303.219 69.6806C302.607 69.2538 301.995 68.8555 301.369 68.4715C304.172 67.4188 307.132 66.7076 310.05 66.2524C314.475 65.5554 319.101 65.2282 323.583 65.598C324.01 65.6407 324.281 65.911 324.38 66.2382C324.551 66.7645 324.295 67.433 323.583 67.3761Z"
            fill="#626262"
        />
        <path
            d="M259.103 76.7788C255.445 78.5854 251.816 80.7476 248.657 83.3365C248.045 83.8344 247.262 83.3934 247.106 82.8386C247.063 82.5826 247.12 82.3123 247.405 82.0847C250.891 79.2255 254.862 76.8357 258.918 74.8869C260.398 74.1757 261.949 73.5071 263.514 72.9381C265.165 72.9808 266.802 73.0946 268.452 73.2937C265.208 74.0476 262.034 75.3137 259.103 76.7788Z"
            fill="#626262"
        />
        <path
            d="M279.552 59.14L285.53 78.0163C285.088 77.8172 284.661 77.6323 284.22 77.4616L280.093 64.4174L278.343 58.8555C278.741 58.9408 279.154 59.0404 279.552 59.14Z"
            fill="#5FAB76"
        />
        <path
            d="M275.966 74.6735C278.827 75.399 281.573 76.3236 284.22 77.4616L285.031 80.0221L284.078 80.3208C284.007 80.0647 283.822 79.8514 283.494 79.7376C275.981 77.3336 267.954 79.5384 261.066 82.8386C257.011 84.7732 253.04 87.1772 249.554 90.0364C249.283 90.264 249.212 90.5342 249.269 90.7903L247.832 91.2739C246.949 88.685 246.081 86.0818 245.199 83.4787L247.106 82.8386C247.262 83.3933 248.045 83.8343 248.657 83.3365C251.816 80.7475 255.445 78.5853 259.103 76.7788C262.034 75.3136 265.208 74.0476 268.452 73.2937C270.971 73.5782 273.476 74.0476 275.966 74.6735Z"
            fill="white"
        />
        <path
            d="M107.115 195.841C106.987 195.898 106.831 195.94 106.674 195.955C102.689 196.453 98.6904 196.936 94.7057 197.434C77.3439 199.568 59.9963 201.701 42.6344 203.835C32.3454 205.087 22.0706 206.367 11.7816 207.619L11.5966 206.083C11.5112 205.428 11.44 204.774 11.3546 204.12C14.8412 203.693 18.3136 203.266 21.786 202.839C39.1478 200.706 56.5097 198.572 73.8573 196.438C84.1463 195.172 94.4353 193.906 104.71 192.64C104.767 193.152 104.838 193.664 104.895 194.177C105.037 195.4 106.176 195.969 107.115 195.841Z"
            fill="#626262"
        />
        <path
            d="M279.481 64.6165C279.652 65.214 279.197 65.9963 278.428 65.7545C271.128 63.4074 263.286 65.7261 256.655 69.012C253.41 70.6336 250.18 72.5255 247.291 74.7446C246.465 74.958 245.654 75.1714 244.857 75.4132C244.601 75.1145 244.558 74.6593 244.957 74.3321C248.443 71.4729 252.414 69.0831 256.47 67.1343C263.358 63.8342 271.384 61.6293 278.898 64.0333C279.225 64.1471 279.41 64.3605 279.481 64.6165Z"
            fill="#5FAB76"
        />
        <path
            d="M134.937 21.7855L134.154 23.6916L133.115 23.4071L132.418 25.8965C131.977 25.6689 131.593 25.3275 131.336 24.9008C131.151 24.5878 130.938 24.3033 130.739 24.0188C130.639 23.8766 130.539 23.7343 130.44 23.5921C130.483 23.649 130.511 23.6774 130.525 23.6916C130.511 23.6774 130.44 23.5778 130.383 23.5067C130.383 23.4925 130.369 23.4925 130.369 23.4925C130.369 23.4783 130.354 23.4783 130.354 23.4783C129.984 23.0658 129.657 22.6532 129.287 22.2407C128.462 21.2876 127.579 20.3915 126.654 19.5238C126.071 18.9832 125.473 18.4569 124.861 17.9448C123.936 17.1767 123.894 17.134 123.082 16.5508C119.681 14.0472 115.91 11.9561 111.982 10.4199C99.8289 5.65453 86.4375 5.27046 73.6296 7.10546C73.7719 6.55069 73.9142 6.01015 74.0565 5.45538C74.7396 2.80956 71.6372 1.37284 69.8868 2.56773C70.143 2.36858 70.4418 2.24056 70.7691 2.18366C79.7916 0.761176 88.9279 0.249081 98.0073 1.44397C108.595 2.838 118.856 6.50802 127.323 13.1226C129.999 15.2136 132.731 17.6603 134.78 20.4768C134.168 20.6333 133.542 20.804 132.93 20.9747C133.599 21.245 134.268 21.5295 134.937 21.7855Z"
            fill="#3D3232"
        />
        <path
            d="M186.866 62.5824C187.734 63.1514 188.915 61.9565 188.033 61.2737C184.461 58.4856 180.547 56.0816 176.591 53.9195C168.764 49.6235 160.225 46.1811 151.303 45.1569C146.009 44.5595 140.615 44.9436 135.563 46.7075C134.496 47.0915 134.951 48.8127 136.033 48.4287C151.986 42.8383 169.874 51.1314 183.052 59.9081C183.991 60.534 184.93 61.1741 185.841 61.8427C186.097 62.0276 186.354 62.2125 186.61 62.3975C186.652 62.4259 186.724 62.4828 186.78 62.5255C186.809 62.5397 186.837 62.5682 186.852 62.5824H186.866ZM181.6 83.6352C178.028 80.8613 174.115 78.4573 170.144 76.2809C162.317 71.985 153.779 68.5426 144.856 67.5326C139.562 66.921 134.168 67.305 129.131 69.0831C128.049 69.453 128.519 71.1742 129.6 70.7901C145.539 65.1998 163.442 73.5071 176.62 82.2696C177.559 82.8955 178.484 83.5498 179.409 84.2042C179.665 84.3891 179.921 84.5882 180.163 84.7732C180.206 84.8016 180.277 84.8443 180.334 84.9012C180.362 84.9296 180.391 84.9439 180.419 84.9723V84.9581C181.302 85.5271 182.468 84.318 181.6 83.6352ZM190.922 52.9095C191.804 53.4785 192.971 52.2694 192.089 51.6008C188.517 48.8127 184.603 46.4087 180.647 44.2323C172.82 39.9364 164.281 36.5082 155.358 35.484C150.064 34.8724 144.671 35.2707 139.619 37.0345C138.552 37.4186 139.007 39.1398 140.103 38.7558C156.041 33.1654 173.93 41.4585 187.108 50.2352C188.061 50.8611 188.986 51.5012 189.897 52.1698C190.153 52.3547 190.409 52.5396 190.666 52.7246C190.694 52.753 190.765 52.8099 190.836 52.8526C190.865 52.8668 190.893 52.8953 190.922 52.9095ZM178.555 96.025C174.983 93.237 171.084 90.833 167.113 88.6565C159.286 84.3749 150.748 80.9325 141.825 79.9083C136.531 79.3108 131.137 79.6949 126.085 81.4588C125.018 81.8428 125.473 83.5641 126.569 83.18C142.508 77.5896 160.396 85.8827 173.588 94.6594C174.528 95.2853 175.453 95.9255 176.378 96.594C176.62 96.7789 176.876 96.9639 177.132 97.1488C177.175 97.1772 177.246 97.2341 177.303 97.2768C177.317 97.291 177.345 97.3053 177.36 97.3195C178.256 97.9169 179.451 96.7078 178.555 96.025ZM197.909 39.6235C195.774 47.4045 193.64 55.157 191.505 62.938C187.862 76.1814 184.233 89.4247 180.59 102.668C179.978 104.93 179.352 107.206 178.711 109.482C172.35 108.429 166.003 107.376 159.642 106.31C147.602 104.318 135.563 102.312 123.509 100.321C120.151 99.7519 116.792 99.1972 113.434 98.6424C113.32 98.6282 113.206 98.5997 113.106 98.5713L133.443 26.2094C133.741 26.2379 134.04 26.2094 134.339 26.1241C147.147 22.4541 160.567 22.3972 173.304 26.3232C181.373 28.7984 188.944 32.7386 195.689 37.8027C195.689 37.8027 195.76 37.8596 195.831 37.9165C195.817 37.9165 195.817 37.9165 195.817 37.9165C195.831 37.9307 195.86 37.9449 195.903 37.9734L195.917 37.9876C195.945 38.0161 195.988 38.0445 196.016 38.0587C196.088 38.1156 196.144 38.1583 196.173 38.1725C196.415 38.3859 196.671 38.5708 196.913 38.7842C197.255 39.0545 197.582 39.3247 197.909 39.6235ZM183.906 72.8527C184.788 73.4217 185.955 72.2126 185.073 71.5298C181.501 68.756 177.587 66.352 173.631 64.1756C165.804 59.8797 157.265 56.4373 148.342 55.4131C143.049 54.8156 137.655 55.1997 132.603 56.9778C131.536 57.3476 131.991 59.0689 133.087 58.6848C149.026 53.0944 166.914 61.4017 180.106 70.1642C181.045 70.7901 181.97 71.4445 182.881 72.0988C183.137 72.2837 183.393 72.4829 183.65 72.6678C183.692 72.6963 183.749 72.7389 183.82 72.7958C183.849 72.8243 183.877 72.8385 183.906 72.8527Z"
            fill="white"
        />
        <path
            d="M289.073 90.4774C289.016 90.5059 288.959 90.5343 288.902 90.5485C288.888 90.5485 288.874 90.5485 288.845 90.5485C288.689 90.5628 288.532 90.577 288.376 90.6054L285.031 80.0221L284.22 77.4617C284.661 77.6324 285.088 77.8173 285.529 78.0164L289.415 90.3209C289.301 90.3778 289.187 90.4205 289.073 90.4774Z"
            fill="#626262"
        />
        <path
            d="M274.059 51.2737C266.545 48.8839 258.519 51.0745 251.631 54.3747C248.643 55.8114 245.683 57.4899 242.95 59.4245C241.157 59.8797 239.378 60.406 237.628 60.9893C237.486 60.5625 237.343 60.1358 237.201 59.709C236.674 58.1585 236.148 56.6222 235.636 55.0575C243.078 48.5141 252.2 43.1797 262.29 42.6819C264.951 42.5396 267.641 42.7245 270.245 43.3647C270.985 43.5496 271.697 43.7772 272.423 44.019C272.465 44.0332 272.565 44.0759 272.679 44.1186C272.75 44.1328 272.821 44.1755 272.892 44.2039C273.163 44.332 273.462 44.4173 273.775 44.4315L275.995 51.4302L274.643 51.8569C274.572 51.6009 274.387 51.3733 274.059 51.2737Z"
            fill="white"
        />
        <path
            d="M181.6 83.6352C182.468 84.318 181.302 85.5271 180.419 84.9581C180.391 84.9439 180.362 84.9155 180.334 84.9012C180.277 84.8443 180.206 84.8017 180.163 84.7732C179.921 84.5883 179.665 84.3891 179.409 84.2042C178.484 83.5499 177.559 82.8955 176.619 82.2696C163.442 73.5071 145.539 65.1998 129.6 70.7902C128.519 71.1743 128.049 69.453 129.131 69.0832C134.168 67.3051 139.562 66.921 144.856 67.5327C153.779 68.5427 162.317 71.9851 170.144 76.281C174.115 78.4574 178.028 80.8614 181.6 83.6352Z"
            fill="#626262"
        />
        <path
            d="M285.53 78.0164C286.511 78.4573 287.479 78.9267 288.433 79.4388C292.118 81.3307 295.548 83.6067 298.693 86.2241C297.498 86.7504 296.317 87.2767 295.121 87.8031C293.214 88.6423 291.307 89.4816 289.415 90.3209L285.53 78.0164Z"
            fill="white"
        />
        <path
            d="M224.041 187.324L263.475 205.29"
            stroke="#686868"
            strokeWidth="5"
            strokeMiterlimit="10"
        />
        <path
            d="M215.587 205.631L311.362 249.287"
            stroke="#686868"
            strokeWidth="5"
            strokeMiterlimit="10"
        />
        <path
            d="M208.301 221.164L304.09 264.821"
            stroke="#686868"
            strokeWidth="5"
            strokeMiterlimit="10"
        />
        <path
            d="M199.563 239.358L295.352 283.014"
            stroke="#686868"
            strokeWidth="5"
            strokeMiterlimit="10"
        />
        <path
            d="M215.1 204.191L215.157 204.034L217.747 204.262L217.505 204.746L230.299 211.261C227.538 223.764 219.825 242.996 210.731 263.11C206.989 261.46 203.246 259.81 199.489 258.16C198.308 257.634 197.098 257.15 195.974 256.51C192.032 254.277 189.015 250.308 188.061 245.87C201.751 221.062 210.148 208.117 213.136 203.665C213.478 203.138 214.004 202.797 214.574 202.655L214.118 203.793L214.602 203.992H214.616L215.1 204.191Z"
            fill="#626262"
        />
        <path
            d="M199.716 265.984C202.406 267.164 205.096 268.345 207.785 269.54C206.305 272.755 204.797 275.969 203.274 279.184L184.375 270.863L175.609 290.749L193.796 298.758C184.902 316.738 176.691 332.442 172.123 341.048C168.807 347.307 161.819 350.949 154.86 349.555C150.833 348.744 148.172 346.582 146.436 344.121C143.347 339.74 143.134 333.936 145.454 329.099C160.695 297.463 173.446 272.769 183.664 253.907C184.76 255.87 186.154 257.676 187.777 259.213C191.235 262.499 195.461 264.106 199.716 265.984Z"
            fill="#626262"
        />
        <path
            d="M130.383 23.5067C130.44 23.5778 130.511 23.6772 130.525 23.6914C130.511 23.6772 130.482 23.6488 130.44 23.592C130.426 23.5778 130.411 23.5635 130.397 23.5493C130.383 23.5351 130.383 23.5209 130.383 23.5067Z"
            fill="#3D3232"
        />
        <path
            d="M242.893 67.746C241.997 68.4715 243.263 69.7233 244.146 69.012C247.319 66.4231 250.934 64.2609 254.591 62.4401C261.223 59.14 269.05 56.8356 276.365 59.1684C276.877 59.3391 277.247 59.0404 277.375 58.6421C277.702 58.7132 278.016 58.7844 278.343 58.8555L280.093 64.4174L279.481 64.6166C279.41 64.3605 279.225 64.1471 278.898 64.0333C271.384 61.6293 263.358 63.8342 256.47 67.1344C252.414 69.0832 248.443 71.4729 244.957 74.3321C244.558 74.6593 244.601 75.1145 244.857 75.4132C244.146 75.6266 243.434 75.8542 242.723 76.096C241.029 71.0604 239.321 66.0248 237.628 60.9892C239.378 60.406 241.157 59.8797 242.95 59.4245C241.968 60.1073 241.029 60.8185 240.118 61.5724C239.236 62.2979 240.503 63.5497 241.371 62.8242C243.434 61.1457 245.683 59.6378 248.017 58.3007C253.396 57.2907 258.889 56.8782 264.368 57.0774C260.91 57.7886 257.537 59.0546 254.406 60.5625C250.35 62.497 246.38 64.9011 242.893 67.746Z"
            fill="#5FAB76"
        />
        <path
            d="M246.223 75.5839C245.74 75.9822 245.156 75.783 244.857 75.4132C245.654 75.1714 246.465 74.958 247.291 74.7446C246.921 75.0149 246.565 75.2994 246.223 75.5839Z"
            fill="#626262"
        />
        <path
            d="M338.412 220.521C340.746 226.424 340.29 232.868 337.8 238.644C332.278 251.361 326.614 264.006 321.036 276.695C318.887 281.574 316.767 286.482 314.575 291.347C312.355 296.297 308.328 300.479 303.375 302.755C297.114 305.657 290.368 305.628 284.035 303.068C285.672 303.594 287.465 303.239 288.433 301.603C289.315 300.095 288.931 297.52 287.152 296.738C292.076 298.829 297.797 298.132 302.251 295.273C307.146 292.129 308.968 286.539 311.202 281.489C314.475 274.049 317.749 266.61 321.022 259.184C324.024 252.371 327.027 245.543 330.03 238.729C330.571 237.506 331.154 236.282 331.652 235.03C333.588 230.194 333.147 224.774 330.443 220.336C327.724 215.884 323.313 214.035 318.816 212.057C313.294 209.625 307.787 207.207 302.279 204.774C298.665 203.181 295.05 201.588 291.435 200.009C294.239 198.771 296.929 197.377 299.519 195.841C305.41 198.43 311.288 201.019 317.179 203.608C320.239 204.959 323.313 206.282 326.358 207.662C331.937 210.18 336.178 214.86 338.412 220.521Z"
            fill="#626262"
        />
        <path
            d="M336.292 131.544C336.292 131.587 336.292 131.644 336.292 131.687C336.292 131.758 336.292 131.815 336.277 131.872C336.092 141.858 320.424 141.715 320.282 131.544C320.424 121.374 336.007 121.231 336.277 131.132C336.292 131.274 336.292 131.402 336.292 131.544Z"
            fill="#5FAB76"
        />
        <path
            d="M314.39 28.6988C314.504 28.7131 314.874 28.77 315.016 28.7984C314.604 28.3859 314.191 27.9734 313.778 27.5609C313.892 27.9307 314.02 28.2863 314.134 28.6562C313.935 28.642 313.678 28.6135 313.579 28.5993C313.123 28.5566 312.654 28.5139 312.184 28.4855C298.01 27.5324 284.348 33.1797 275.041 43.9337C274.97 44.019 274.899 44.0759 274.814 44.1328L274.301 42.5112L274.13 41.2025C274.315 41.1883 274.5 41.1598 274.685 41.1314C274.23 40.918 273.775 40.7189 273.305 40.5482C276.692 36.7928 280.648 33.5495 285.046 31.046C294.025 25.9535 305.681 23.393 315.97 25.3702C316.582 25.484 317.023 26.053 317.208 26.6078C317.834 28.5566 318.46 30.4912 319.086 32.44C323.512 46.167 327.938 59.8797 332.378 73.6067C332.592 74.2895 332.236 75.3137 331.553 75.6124C326.757 77.7319 321.975 79.8372 317.179 81.9425C316.368 81.0037 315.514 80.079 314.632 79.2113C319.243 77.1772 323.868 75.143 328.479 73.1089C328.635 73.5925 328.792 74.0619 328.948 74.5456C329.219 73.877 329.489 73.2084 329.76 72.5399C329.333 72.7248 328.906 72.9097 328.479 73.1089C327.995 71.6437 327.525 70.1785 327.056 68.7276C326.728 67.7176 326.401 66.7077 326.074 65.6977C325.234 63.0803 324.394 60.463 323.555 57.8598C322.701 55.214 321.847 52.5824 320.993 49.9508C320.296 47.7602 319.584 45.5695 318.887 43.3931C318.204 41.2594 317.507 39.1257 316.824 37.0062C315.927 34.2181 315.03 31.43 314.134 28.6562C314.248 28.6846 314.347 28.6846 314.39 28.6988Z"
            fill="#F1B356"
        />
        <path
            d="M329.76 72.5398C329.489 73.2084 329.219 73.8769 328.948 74.5455C328.792 74.0619 328.635 73.5924 328.479 73.1088C328.906 72.9096 329.333 72.7247 329.76 72.5398Z"
            fill="#4BA88C"
        />
        <path
            d="M320.282 131.545C320.424 141.715 336.092 141.858 336.277 131.872C335.779 158.273 321.591 182.64 299.519 195.841C293.015 192.982 286.526 190.123 280.022 187.263C281.403 186.822 282.769 186.31 284.121 185.755C306.051 176.666 319.926 155.03 320.282 131.545Z"
            fill="#5FAB76"
        />
        <path
            d="M336.277 131.132C336.007 121.231 320.424 121.374 320.282 131.544C320.04 115.001 313.081 99.6523 301.611 88.813C306.293 86.7504 310.96 84.6878 315.628 82.6252C316.14 82.3976 316.667 82.17 317.179 81.9424C328.991 95.2568 335.922 112.654 336.277 131.132Z"
            fill="#5FAB76"
        />
        <path
            d="M327.056 68.7275C327.525 70.1785 327.995 71.6436 328.479 73.1088C323.868 75.1429 319.243 77.1771 314.632 79.2112C311.188 75.6693 307.36 72.4687 303.219 69.6806C305.837 68.8129 308.57 68.2439 311.217 67.8598C315.272 67.2766 319.485 67.0348 323.583 67.3762C324.295 67.4331 324.551 66.7645 324.38 66.2382L326.074 65.6976C326.401 66.7076 326.728 67.7176 327.056 68.7275Z"
            fill="white"
        />
        <path
            d="M320.993 49.9507C321.847 52.5823 322.701 55.2139 323.555 57.8597L321.634 58.4714C321.534 58.1442 321.264 57.8739 320.837 57.8455C316.354 57.4756 311.729 57.8028 307.303 58.4998C302.18 59.3106 296.971 60.8611 292.645 63.7203C291.82 63.3363 290.98 62.9664 290.126 62.6108C289.002 62.1414 287.878 61.7146 286.753 61.3021C291.45 55.6975 299.049 53.3362 306.065 52.3405C310.121 51.7572 314.347 51.5154 318.432 51.8426C319.214 51.9137 319.456 51.0887 319.172 50.5339L320.993 49.9507Z"
            fill="white"
        />
        <path
            d="M321.634 58.4714C321.819 58.9977 321.548 59.6805 320.837 59.6236C316.738 59.2822 312.526 59.524 308.47 60.1072C303.703 60.79 298.679 62.0845 294.481 64.6023C293.869 64.2893 293.257 63.9906 292.645 63.7203C296.971 60.8611 302.18 59.3106 307.303 58.4998C311.729 57.8028 316.354 57.4756 320.837 57.8455C321.264 57.8739 321.534 58.1442 321.634 58.4714Z"
            fill="#626262"
        />
        <path
            d="M318.887 43.3931C319.584 45.5695 320.296 47.7601 320.993 49.9507L319.172 50.5339C319.029 50.2921 318.787 50.093 318.432 50.0645C313.949 49.6947 309.324 50.0361 304.898 50.7331C297.455 51.8995 289.827 54.6449 284.989 60.6905C283.196 60.1073 281.374 59.581 279.553 59.14L278.656 56.2808L282.527 55.0575C282.683 55.6691 283.708 56.0105 284.22 55.3277C288.874 49.2822 296.758 46.7928 304.03 45.7544C308.086 45.1712 312.312 44.9294 316.397 45.2565C317.179 45.3276 317.421 44.5026 317.137 43.9621L318.887 43.3931Z"
            fill="white"
        />
        <path
            d="M319.172 50.5339C319.456 51.0887 319.214 51.9138 318.432 51.8426C314.347 51.5155 310.121 51.7573 306.065 52.3405C299.049 53.3362 291.45 55.6976 286.753 61.3022C286.17 61.0888 285.586 60.8896 284.989 60.6905C289.827 54.6449 297.455 51.8995 304.898 50.7331C309.324 50.0361 313.949 49.6947 318.432 50.0645C318.787 50.093 319.029 50.2921 319.172 50.5339Z"
            fill="#626262"
        />
        <path
            d="M316.824 37.0061C317.507 39.1256 318.204 41.2593 318.887 43.3931L317.137 43.9621C316.994 43.706 316.752 43.5069 316.397 43.4784C311.914 43.1086 307.289 43.4357 302.863 44.147C296.231 45.1996 289.443 47.4756 284.633 52.2409L282.242 49.0403C282.513 49.0403 282.797 48.9265 282.996 48.6705C287.65 42.6249 295.534 40.1356 302.806 39.0829C306.848 38.5139 311.074 38.2579 315.158 38.5993C315.955 38.6704 316.197 37.8454 315.899 37.3048L316.824 37.0061Z"
            fill="white"
        />
        <path
            d="M317.137 43.9621C317.421 44.5026 317.179 45.3277 316.397 45.2566C312.312 44.9294 308.086 45.1712 304.03 45.7544C296.758 46.7928 288.874 49.2822 284.22 55.3278C283.708 56.0105 282.683 55.6692 282.527 55.0575C282.484 54.8726 282.513 54.6592 282.683 54.4316C283.281 53.6492 283.936 52.9095 284.633 52.241C289.443 47.4756 296.231 45.1997 302.863 44.147C307.289 43.4358 311.914 43.1086 316.397 43.4785C316.752 43.5069 316.994 43.706 317.137 43.9621Z"
            fill="#626262"
        />
        <path
            d="M317.179 81.9425C316.667 82.1701 316.14 82.3977 315.628 82.6253C310.96 84.6879 306.293 86.7505 301.611 88.8131C300.671 87.9027 299.689 87.0492 298.693 86.2242C304.001 83.8913 309.324 81.5584 314.632 79.2113C315.514 80.079 316.368 81.0036 317.179 81.9425Z"
            fill="#5FAB76"
        />
        <path
            d="M314.134 28.6561C315.03 31.4299 315.927 34.218 316.824 37.0061L315.899 37.3048C315.756 37.0487 315.514 36.8638 315.159 36.8211C310.676 36.4513 306.065 36.7785 301.639 37.4755C294.054 38.6704 286.284 41.5011 281.459 47.7743C280.961 48.4144 281.588 49.0403 282.242 49.0403L284.633 52.2409C283.936 52.9095 283.281 53.6492 282.683 54.4315C282.513 54.6591 282.484 54.8725 282.527 55.0574L278.656 56.2808L274.814 44.1327C274.899 44.0758 274.97 44.0189 275.041 43.9336C284.348 33.1796 298.01 27.5323 312.184 28.4854C312.654 28.5138 313.123 28.5565 313.579 28.5992C313.678 28.6134 313.935 28.6419 314.134 28.6561Z"
            fill="white"
        />
        <path
            d="M315.898 37.3048C316.197 37.8454 315.955 38.6704 315.158 38.5993C311.074 38.2579 306.848 38.5139 302.806 39.0829C295.534 40.1356 287.65 42.6249 282.996 48.6705C282.797 48.9265 282.513 49.0403 282.242 49.0403C281.587 49.0403 280.961 48.4144 281.459 47.7743C286.284 41.5012 294.054 38.6704 301.639 37.4755C306.065 36.7785 310.676 36.4513 315.158 36.8212C315.514 36.8639 315.756 37.0488 315.898 37.3048Z"
            fill="#626262"
        />
        <path
            d="M313.778 27.5608C314.191 27.9733 314.604 28.3858 315.016 28.7984C314.874 28.7699 314.504 28.713 314.39 28.6988C314.347 28.6846 314.248 28.6846 314.134 28.6561C314.02 28.2863 313.892 27.9306 313.778 27.5608Z"
            fill="#4BA88C"
        />
        <path
            d="M301.369 68.4714C301.995 68.8555 302.607 69.2538 303.219 69.6805C298.636 71.1884 294.367 73.6066 291.407 77.4473C290.838 78.187 289.699 77.7034 289.699 77.0206C289.699 76.8641 289.742 76.7076 289.87 76.5512C292.83 72.6962 296.914 70.1357 301.369 68.4714Z"
            fill="#5FAB76"
        />
        <path
            d="M301.611 88.813C299.291 89.8372 296.957 90.8614 294.637 91.8856C293.228 92.5115 291.82 93.1943 290.382 93.7633C289.116 94.2469 287.693 94.3892 286.369 94.6595C274.059 97.0777 261.749 99.5101 249.44 101.928C248.443 102.128 247.575 101.658 247.248 100.691C247.063 100.164 246.892 99.6239 246.707 99.0976L248.486 98.5002C249.226 98.9127 249.952 99.3394 250.678 99.752C250.507 99.2256 250.322 98.6993 250.151 98.173C255.488 97.1346 260.81 96.0677 266.147 95.0293C273.063 93.6637 279.979 92.2981 286.91 90.9326C287.38 90.833 287.878 90.6907 288.376 90.6054L288.945 92.3977L289.97 92.0705L289.415 90.3209C291.307 89.4816 293.214 88.6423 295.121 87.8031C296.317 87.2768 297.498 86.7504 298.693 86.2241C299.689 87.0492 300.671 87.9027 301.611 88.813Z"
            fill="#F1B356"
        />
        <path
            d="M301.369 68.4715C296.914 70.1358 292.83 72.6963 289.87 76.5512C289.742 76.7077 289.699 76.8642 289.699 77.0207L288.433 79.4389C287.479 78.9268 286.511 78.4574 285.53 78.0164L279.552 59.14C281.374 59.581 283.196 60.1073 284.989 60.6905C284.889 60.7901 284.804 60.9039 284.718 61.0177C284.021 61.9281 285.572 62.81 286.255 61.9139C286.412 61.7005 286.583 61.5013 286.753 61.3022C287.878 61.7147 289.002 62.1415 290.126 62.6109C290.98 62.9665 291.82 63.3363 292.645 63.7204C290.567 65.086 288.689 66.7503 287.123 68.7845C286.426 69.6949 287.977 70.5768 288.66 69.6806C290.268 67.5896 292.261 65.9253 294.481 64.6024C296.857 65.7546 299.163 67.049 301.369 68.4715Z"
            fill="#5FAB76"
        />
        <path
            d="M280.022 187.263C286.526 190.123 293.015 192.982 299.519 195.841C296.929 197.377 294.239 198.771 291.435 200.009C283.694 196.595 275.938 193.181 268.196 189.781C272.181 189.369 276.151 188.529 280.022 187.263Z"
            fill="#5FAB76"
        />
        <path
            d="M292.645 63.7203C293.257 63.9906 293.869 64.2893 294.481 64.6023C292.261 65.9252 290.268 67.5895 288.66 69.6806C287.977 70.5767 286.426 69.6948 287.123 68.7844C288.689 66.7502 290.567 65.0859 292.645 63.7203Z"
            fill="#5FAB76"
        />
        <path
            d="M268.196 189.781C275.938 193.181 283.694 196.595 291.435 200.009C287.565 201.687 283.509 203.053 279.296 204.063C265.35 207.391 250.92 206.481 237.756 202.029L239.976 197.989L221.106 186.182L218.629 192.413C215.911 190.521 213.336 188.472 210.888 186.239C211.528 184.817 212.112 183.351 212.837 181.986C214.687 178.486 217.818 175.713 221.461 174.319C233.942 185.94 251.304 191.573 268.196 189.781Z"
            fill="#5FAB76"
        />
        <path
            d="M288.589 90.6908C288.618 90.6908 289.13 90.5485 288.902 90.5485C288.959 90.5343 289.016 90.5058 289.073 90.4774C289.187 90.4205 289.301 90.3778 289.415 90.3209L289.97 92.0706L288.945 92.3978L288.376 90.6054C288.532 90.577 288.689 90.5627 288.845 90.5485C288.874 90.5485 288.888 90.5485 288.902 90.5485C288.803 90.6054 288.717 90.6339 288.618 90.6765C288.603 90.6765 288.603 90.6908 288.589 90.6908Z"
            fill="#626262"
        />
        <path
            d="M288.902 90.5485C289.13 90.5485 288.618 90.6907 288.589 90.6907C288.603 90.6907 288.603 90.6765 288.618 90.6765C288.717 90.6338 288.803 90.6054 288.902 90.5485Z"
            fill="#626262"
        />
        <path
            d="M287.152 296.738C288.931 297.52 289.315 300.095 288.433 301.603C287.465 303.239 285.672 303.594 284.035 303.068C283.879 303.011 283.722 302.954 283.566 302.883C281.787 302.129 281.417 299.512 282.285 298.018C283.352 296.212 285.387 295.984 287.152 296.738Z"
            fill="#626262"
        />
        <path
            d="M285.031 80.0221L288.376 90.6054C287.878 90.6907 287.38 90.833 286.91 90.9326C279.979 92.2981 273.063 93.6637 266.147 95.0293C260.81 96.0677 255.488 97.1346 250.151 98.173C249.368 95.8686 248.6 93.5784 247.832 91.274L249.269 90.7903C249.411 91.3451 250.208 91.7861 250.806 91.2882C253.979 88.6993 257.608 86.5371 261.251 84.7163C267.883 81.4161 275.71 79.1117 283.025 81.4446C283.793 81.7006 284.249 80.9183 284.078 80.3208L285.031 80.0221Z"
            fill="white"
        />
        <path
            d="M259.928 284.76C269.007 288.758 278.087 292.741 287.152 296.738C285.387 295.984 283.352 296.211 282.285 298.018C281.417 299.512 281.787 302.129 283.566 302.883C282.854 302.57 282.142 302.257 281.431 301.944C273.134 298.288 264.852 294.647 256.555 291.005L258.22 287.236L223.852 272.1L225.033 269.412C236.66 274.519 248.301 279.64 259.928 284.76Z"
            fill="#626262"
        />
        <path
            d="M286.753 61.3022C286.583 61.5014 286.412 61.7005 286.255 61.9139C285.572 62.8101 284.021 61.9281 284.718 61.0177C284.804 60.9039 284.889 60.7901 284.989 60.6906C285.586 60.8897 286.17 61.0888 286.753 61.3022Z"
            fill="#5FAB76"
        />
        <path
            d="M280.093 64.4174L284.22 77.4615C281.573 76.3236 278.827 75.3989 275.966 74.6735C273.476 74.0476 270.971 73.5782 268.452 73.2937C272.551 72.3406 276.792 72.2126 280.876 73.507C281.958 73.8627 282.427 72.1414 281.346 71.7858C275.454 69.9081 269.249 70.847 263.514 72.938C258.035 72.7816 252.57 73.4075 247.291 74.7446C250.18 72.5255 253.41 70.6336 256.655 69.012C263.286 65.726 271.128 63.4074 278.428 65.7545C279.197 65.9963 279.652 65.2139 279.481 64.6165L280.093 64.4174Z"
            fill="#5FAB76"
        />
        <path
            d="M284.078 80.3209C284.249 80.9183 283.793 81.7007 283.025 81.4446C275.71 79.1118 267.883 81.4162 261.251 84.7163C257.608 86.5371 253.979 88.6993 250.806 91.2882C250.208 91.7861 249.411 91.3451 249.269 90.7904C249.212 90.5343 249.283 90.264 249.553 90.0364C253.04 87.1773 257.011 84.7732 261.066 82.8387C267.954 79.5385 275.98 77.3336 283.494 79.7376C283.822 79.8514 284.007 80.0648 284.078 80.3209Z"
            fill="#626262"
        />
        <path
            d="M281.346 71.7859C282.427 72.1415 281.958 73.8627 280.876 73.5071C276.792 72.2126 272.551 72.3406 268.452 73.2937C266.801 73.0946 265.165 72.9808 263.514 72.9381C269.249 70.847 275.454 69.9082 281.346 71.7859Z"
            fill="#5FAB76"
        />
        <path
            d="M271.512 183.522C274.344 184.774 277.19 186.026 280.022 187.263C276.151 188.529 272.181 189.369 268.196 189.781C263.913 187.889 259.615 186.012 255.331 184.12C249.582 181.588 243.818 179.056 238.055 176.524C234.013 174.745 230.37 172.967 225.745 173.323C224.265 173.437 222.828 173.778 221.461 174.319C219.64 172.626 217.932 170.819 216.353 168.871C219.526 167.206 223.098 166.267 226.684 166.168C230.512 166.068 234.084 167.05 237.543 168.572C248.885 173.536 260.198 178.543 271.512 183.522Z"
            fill="#626262"
        />
        <path
            d="M278.656 56.2808L279.553 59.14C279.154 59.0405 278.741 58.9409 278.343 58.8555L275.995 51.4302L273.775 44.4315C274.145 44.4458 274.515 44.3604 274.814 44.1328L278.656 56.2808Z"
            fill="#626262"
        />
        <path
            d="M275.995 51.4302L278.343 58.8556C278.016 58.7844 277.702 58.7133 277.375 58.6422C277.546 58.2012 277.404 57.6464 276.834 57.4615C272.736 56.1528 268.495 56.2097 264.368 57.0774C258.889 56.8783 253.396 57.2908 248.017 58.3008C249.269 57.5753 250.535 56.8925 251.816 56.2666C258.448 52.9665 266.275 50.662 273.59 52.9949C274.358 53.2367 274.814 52.4686 274.643 51.8569L275.995 51.4302Z"
            fill="white"
        />
        <path
            d="M277.589 311.887L268.837 331.774L193.796 298.758C193.896 298.544 193.996 298.331 194.109 298.118L268.467 330.835L276.664 312.243L251.987 301.389L252.272 300.749L277.589 311.887Z"
            fill="#626262"
        />
        <path
            d="M276.834 57.4614C277.404 57.6464 277.546 58.2011 277.375 58.6421C273.077 57.7317 268.723 57.2054 264.368 57.0774C268.495 56.2097 272.736 56.1527 276.834 57.4614Z"
            fill="#626262"
        />
        <path
            d="M276.664 312.243L268.467 330.835L194.109 298.118C194.209 297.904 194.323 297.691 194.423 297.478L268.111 329.896L275.724 312.613L251.702 302.044L251.987 301.389L276.664 312.243Z"
            fill="#626262"
        />
        <path
            d="M275.724 312.613L268.111 329.896L194.423 297.478C197.141 291.958 199.916 286.24 202.662 280.465L217.32 286.923L214.175 294.078L248.543 309.199L251.702 302.044L275.724 312.613Z"
            fill="#626262"
        />
        <path
            d="M274.301 42.5111L274.814 44.1327C274.515 44.3603 274.145 44.4457 273.775 44.4315L273.277 42.8383L274.301 42.5111Z"
            fill="#626262"
        />
        <path
            d="M274.643 51.8569C274.814 52.4685 274.358 53.2367 273.59 52.9948C266.275 50.662 258.448 52.9664 251.816 56.2666C250.535 56.8924 249.269 57.5752 248.017 58.3007C246.309 58.6137 244.63 58.9835 242.95 59.4245C245.683 57.4899 248.643 55.8114 251.631 54.3747C258.519 51.0745 266.545 48.8839 274.059 51.2736C274.387 51.3732 274.572 51.6008 274.643 51.8569Z"
            fill="#626262"
        />
        <path
            d="M274.685 41.1313C274.5 41.1598 274.315 41.1882 274.13 41.2024C273.59 41.2736 273.063 41.3447 272.522 41.4158C272.778 41.1171 273.035 40.8326 273.305 40.5481C273.775 40.7188 274.23 40.9179 274.685 41.1313Z"
            fill="#4BA88C"
        />
        <path
            d="M272.679 44.1186C272.565 44.0759 272.465 44.0333 272.423 44.019C271.697 43.7772 270.985 43.5496 270.245 43.3647C267.641 42.7246 264.951 42.5396 262.29 42.6819C252.2 43.1798 243.078 48.5141 235.636 55.0575C235.507 54.7161 235.394 54.3605 235.28 54.0191C234.81 52.6251 233.202 52.5255 232.334 53.2225C236.674 49.2965 241.456 45.7829 246.75 43.2509C252.884 40.3206 259.729 38.5994 266.56 39.1968C268.808 39.396 271.156 39.7516 273.305 40.5482C273.035 40.8327 272.779 41.1172 272.522 41.4159C273.063 41.3448 273.59 41.2736 274.13 41.2025L274.301 42.5112L273.277 42.8384L273.775 44.4316C273.462 44.4173 273.163 44.332 272.892 44.204C272.821 44.1755 272.75 44.1328 272.679 44.1186Z"
            fill="#F1B356"
        />
        <path
            d="M247.291 74.7447C252.57 73.4075 258.035 72.7816 263.514 72.9381C261.949 73.5071 260.398 74.1757 258.918 74.8869C254.862 76.8357 250.891 79.2255 247.405 82.0847C247.12 82.3123 247.063 82.5825 247.106 82.8386L245.199 83.4787C244.373 81.0178 243.548 78.5569 242.723 76.096C243.434 75.8542 244.146 75.6266 244.857 75.4132C245.156 75.7831 245.74 75.9822 246.223 75.5839C246.565 75.2994 246.921 75.0149 247.291 74.7447Z"
            fill="white"
        />
        <path
            d="M258.22 287.236L256.555 291.005C256.342 290.891 256.114 290.806 255.901 290.721L257.281 287.591L224.222 273.039L222.842 276.169C222.628 276.069 222.401 275.969 222.187 275.87L223.852 272.1L258.22 287.236Z"
            fill="#626262"
        />
        <path
            d="M257.281 287.591L255.901 290.721C255.687 290.607 255.474 290.522 255.26 290.422L256.342 287.961L224.578 273.978L223.497 276.453C223.283 276.354 223.055 276.254 222.842 276.169L224.222 273.039L257.281 287.591Z"
            fill="#626262"
        />
        <path
            d="M256.555 291.005L252.272 300.749L251.617 300.465L255.901 290.721C256.114 290.806 256.342 290.891 256.555 291.005Z"
            fill="#626262"
        />
        <path
            d="M256.342 287.961L255.26 290.422C251.09 288.587 246.935 286.766 242.765 284.931C236.347 282.1 229.915 279.284 223.497 276.453L224.578 273.978L256.342 287.961Z"
            fill="#626262"
        />
        <path
            d="M255.26 290.422C255.474 290.521 255.687 290.607 255.901 290.721L251.617 300.465L250.962 300.166L255.26 290.422Z"
            fill="#626262"
        />
        <path
            d="M255.26 290.422L250.962 300.166L219.199 286.197L223.496 276.453C229.915 279.284 236.347 282.1 242.765 284.931C246.935 286.766 251.09 288.587 255.26 290.422Z"
            fill="#626262"
        />
        <path
            d="M251.617 300.465L252.272 300.749L251.987 301.389L251.332 301.105L251.617 300.465Z"
            fill="#626262"
        />
        <path
            d="M251.338 301.087L251.054 301.739L251.707 302.023L251.991 301.371L251.338 301.087Z"
            fill="#626262"
        />
        <path
            d="M251.702 302.044L248.543 309.199L214.175 294.078L217.32 286.923L217.975 287.207L215.114 293.708L248.187 308.26L251.048 301.759L251.702 302.044Z"
            fill="#626262"
        />
        <path
            d="M250.962 300.166L251.617 300.465L251.332 301.105L250.678 300.82L250.962 300.166Z"
            fill="#626262"
        />
        <path
            d="M250.683 300.802L250.4 301.455L251.052 301.738L251.336 301.086L250.683 300.802Z"
            fill="#626262"
        />
        <path
            d="M251.048 301.759L248.187 308.26L215.114 293.708L217.975 287.207L218.629 287.492L216.054 293.352L247.817 307.321L250.393 301.475L251.048 301.759Z"
            fill="#626262"
        />
        <path
            d="M250.962 300.166L250.678 300.82L218.914 286.837L219.199 286.197L250.962 300.166Z"
            fill="#626262"
        />
        <path
            d="M218.914 286.837L250.678 300.82L250.393 301.475L218.629 287.492L218.914 286.837Z"
            fill="#626262"
        />
        <path
            d="M250.151 98.173C250.322 98.6993 250.507 99.2256 250.678 99.7519C249.952 99.3394 249.226 98.9127 248.486 98.5001C249.041 98.3863 249.596 98.2868 250.151 98.173Z"
            fill="#4BA88C"
        />
        <path
            d="M218.629 287.492L250.393 301.475L247.817 307.321L216.054 293.352L218.629 287.492Z"
            fill="#626262"
        />
        <path
            d="M250.151 98.173C249.596 98.2868 249.041 98.3864 248.486 98.5002L246.707 99.0977C246.252 97.7321 245.782 96.3665 245.327 95.0009C243.349 89.1118 241.371 83.2369 239.378 77.3479C240.474 76.8927 241.598 76.4801 242.723 76.0961C243.548 78.557 244.373 81.0179 245.199 83.4788C246.081 86.0819 246.949 88.6851 247.832 91.274C248.6 93.5784 249.368 95.8686 250.151 98.173Z"
            fill="#F1B356"
        />
        <path
            d="M242.95 59.4245C244.63 58.9836 246.309 58.6137 248.017 58.3008C245.683 59.6379 243.434 61.1458 241.371 62.8243C240.503 63.5498 239.236 62.298 240.118 61.5725C241.029 60.8186 241.968 60.1073 242.95 59.4245Z"
            fill="#5FAB76"
        />
        <path
            d="M237.628 60.9893C239.321 66.0249 241.029 71.0605 242.723 76.0961C241.598 76.4801 240.474 76.8927 239.378 77.3478C237.685 72.298 235.991 67.2482 234.284 62.1984C235.394 61.7716 236.504 61.3591 237.628 60.9893Z"
            fill="#5FAB76"
        />
        <path
            d="M239.976 197.989L237.756 202.029C237.585 201.972 237.414 201.915 237.244 201.858L239.264 198.174L221.362 186.979L219.085 192.711C218.928 192.626 218.772 192.512 218.629 192.413L221.106 186.182L239.976 197.989Z"
            fill="#5FAB76"
        />
        <path
            d="M234.284 62.1984C235.991 67.2482 237.685 72.298 239.378 77.3478C229.758 81.2739 221.134 87.7035 214.73 96.2242C199.531 116.395 199.247 144.546 213.592 165.243C214.46 166.495 215.385 167.704 216.353 168.871C213.706 170.25 211.315 172.128 209.408 174.432C207.842 176.339 206.604 178.501 205.509 180.777C201.353 176.111 197.781 170.862 194.921 165.101C180.917 136.808 186.097 102.099 208.17 79.4247C215.613 71.7717 224.578 65.9822 234.284 62.1984Z"
            fill="#5FAB76"
        />
        <path
            d="M239.264 198.174L237.244 201.858C237.073 201.801 236.902 201.73 236.731 201.687L238.553 198.359L221.618 187.761L219.526 193.01C219.384 192.925 219.227 192.825 219.085 192.711L221.362 186.979L239.264 198.174Z"
            fill="#5FAB76"
        />
        <path
            d="M238.553 198.359L236.731 201.687C230.655 199.525 224.863 196.623 219.526 193.01L221.618 187.761L238.553 198.359Z"
            fill="#5FAB76"
        />
        <path
            d="M237.756 202.029L232.177 212.214L230.299 211.261C230.327 211.076 230.37 210.891 230.413 210.706L231.964 211.502L237.244 201.858C237.414 201.915 237.585 201.972 237.756 202.029Z"
            fill="#5FAB76"
        />
        <path
            d="M237.201 59.709C237.343 60.1358 237.486 60.5625 237.628 60.9893C236.504 61.3591 235.394 61.7716 234.284 62.1984C233.487 59.837 232.69 57.4615 231.893 55.1002C232.362 56.0817 233.757 56.7076 234.824 55.7545C235.095 55.5127 235.365 55.2709 235.636 55.0575C236.148 56.6222 236.674 58.1585 237.201 59.709Z"
            fill="#F1B356"
        />
        <path
            d="M237.244 201.858L231.964 211.502L230.413 210.706C230.455 210.521 230.484 210.336 230.527 210.165L231.75 210.791L236.731 201.687C236.902 201.73 237.073 201.801 237.244 201.858Z"
            fill="#5FAB76"
        />
        <path
            d="M236.731 201.687L231.75 210.791L230.527 210.165C230.527 210.137 230.541 210.108 230.541 210.08L216.324 202.84C216.139 202.74 215.926 202.669 215.726 202.626L219.526 193.01C224.863 196.623 230.655 199.525 236.731 201.687Z"
            fill="#5FAB76"
        />
        <path
            d="M235.636 55.0574C235.365 55.2708 235.095 55.5126 234.824 55.7544C233.757 56.7075 232.362 56.0816 231.893 55.1001C231.879 55.0574 231.864 55.0148 231.85 54.9721C231.736 54.6307 231.722 54.3035 231.793 54.0332C231.793 54.0048 231.807 53.9763 231.822 53.9621C231.822 53.9052 231.85 53.8625 231.879 53.8056C231.907 53.7203 231.964 53.6207 232.035 53.5354C232.035 53.5211 232.035 53.5069 232.064 53.4927C232.135 53.4073 232.206 53.322 232.306 53.2366C232.32 53.2224 232.32 53.2224 232.334 53.2224C233.202 52.5254 234.81 52.625 235.28 54.019C235.394 54.3604 235.507 54.716 235.636 55.0574Z"
            fill="#F1B356"
        />
        <path
            d="M232.035 53.5354C231.964 53.6208 231.907 53.7205 231.879 53.806C231.907 53.7063 231.964 53.6208 232.035 53.5354Z"
            fill="#4BA88C"
        />
        <path
            d="M231.793 54.0332C231.722 54.3035 231.736 54.6306 231.85 54.972C231.736 54.6733 231.708 54.3461 231.793 54.0332Z"
            fill="#4BA88C"
        />
        <path
            d="M230.541 210.08C230.541 210.108 230.527 210.137 230.527 210.165L217.989 203.793L217.747 204.262L215.157 204.034L215.726 202.626C215.926 202.669 216.139 202.74 216.324 202.839L230.541 210.08Z"
            fill="#5FAB76"
        />
        <path
            d="M230.527 210.165C230.484 210.336 230.455 210.521 230.413 210.706L217.747 204.262L217.989 203.793L230.527 210.165Z"
            fill="#5FAB76"
        />
        <path
            d="M230.413 210.706C230.37 210.891 230.327 211.076 230.299 211.261L217.505 204.746L217.747 204.262L230.413 210.706Z"
            fill="#5FAB76"
        />
        <path
            d="M213.35 264.262C217.249 265.969 221.134 267.691 225.033 269.412L223.852 272.1L222.187 275.87C217.391 273.765 212.581 271.645 207.785 269.54C208.782 267.392 209.764 265.244 210.731 263.11C211.599 263.494 212.482 263.878 213.35 264.262Z"
            fill="#626262"
        />
        <path
            d="M223.496 276.453L219.199 286.197L218.558 285.898L222.842 276.169C223.055 276.254 223.283 276.354 223.496 276.453Z"
            fill="#626262"
        />
        <path
            d="M222.187 275.87C222.401 275.969 222.628 276.069 222.842 276.169L218.558 285.898L217.904 285.614L222.187 275.87Z"
            fill="#626262"
        />
        <path
            d="M219.526 193.01L215.726 202.626C215.541 202.583 215.356 202.569 215.171 202.569L219.085 192.711C219.227 192.825 219.384 192.925 219.526 193.01Z"
            fill="#5FAB76"
        />
        <path
            d="M218.558 285.898L219.199 286.197L218.914 286.837L218.274 286.553L218.558 285.898Z"
            fill="#626262"
        />
        <path
            d="M219.085 192.711L215.171 202.569C214.972 202.569 214.773 202.598 214.574 202.655L218.63 192.413C218.772 192.512 218.928 192.626 219.085 192.711Z"
            fill="#5FAB76"
        />
        <path
            d="M221.461 174.319C217.818 175.713 214.687 178.487 212.837 181.986C212.112 183.352 211.528 184.817 210.888 186.239C208.995 184.518 207.202 182.697 205.508 180.777C206.604 178.501 207.842 176.339 209.408 174.433C211.315 172.128 213.706 170.25 216.353 168.871C217.932 170.819 219.64 172.626 221.461 174.319Z"
            fill="#5FAB76"
        />
        <path
            d="M218.914 286.837L218.629 287.492L217.975 287.207L218.274 286.553L218.914 286.837Z"
            fill="#626262"
        />
        <path
            d="M217.91 285.597L217.626 286.25L218.279 286.533L218.562 285.881L217.91 285.597Z"
            fill="#626262"
        />
        <path
            d="M218.274 286.553L217.975 287.207L217.32 286.923L217.619 286.268L218.274 286.553Z"
            fill="#626262"
        />
        <path
            d="M217.904 285.614L217.619 286.268L202.975 279.824C203.075 279.611 203.175 279.398 203.274 279.184L217.904 285.614Z"
            fill="#626262"
        />
        <path
            d="M217.619 286.268L217.32 286.923L202.662 280.465C202.776 280.251 202.876 280.038 202.975 279.824L217.619 286.268Z"
            fill="#626262"
        />
        <path
            d="M215.726 202.626L215.157 204.034L214.616 203.992H214.602L215.171 202.569C215.356 202.569 215.541 202.583 215.726 202.626Z"
            fill="#5FAB76"
        />
        <path
            d="M215.171 202.569L214.602 203.992L214.118 203.793L214.574 202.655C214.773 202.598 214.972 202.569 215.171 202.569Z"
            fill="#5FAB76"
        />
        <path
            d="M215.157 204.034L215.1 204.191L214.616 203.992L215.157 204.034Z"
            fill="#5FAB76"
        />
        <path
            d="M210.888 186.239C210.888 186.253 210.874 186.268 210.874 186.282C207.999 192.811 205.124 199.34 202.25 205.869C198.905 213.465 195.561 221.062 192.217 228.643C190.082 233.494 187.449 238.146 187.748 243.608C187.791 244.376 187.89 245.13 188.061 245.87C186.652 248.416 185.187 251.104 183.664 253.907C181.515 250.151 180.405 245.784 180.604 241.474C180.761 237.875 181.857 234.632 183.294 231.389C189.47 217.335 195.661 203.295 201.851 189.255C203.061 186.495 204.171 183.565 205.508 180.777C207.202 182.697 208.995 184.518 210.888 186.239Z"
            fill="#626262"
        />
        <path
            d="M199.489 258.16C203.246 259.81 206.989 261.46 210.731 263.11C209.764 265.244 208.782 267.392 207.785 269.54C205.096 268.345 202.406 267.164 199.716 265.984C195.461 264.106 191.235 262.499 187.777 259.213C186.154 257.676 184.76 255.87 183.664 253.907C185.187 251.104 186.652 248.416 188.061 245.87C189.015 250.308 192.032 254.277 195.974 256.51C197.098 257.15 198.308 257.634 199.489 258.16Z"
            fill="#626262"
        />
        <path
            d="M202.805 36.8496C203.488 37.504 203.744 38.5424 203.488 39.4386C202.648 42.4827 201.823 45.5268 200.983 48.5709C197.354 61.8143 193.711 75.0434 190.082 88.2867C188.033 95.7406 185.984 103.18 183.948 110.634L181.373 109.923C180.49 109.78 179.594 109.624 178.711 109.482C179.352 107.206 179.978 104.93 180.59 102.668C184.233 89.4247 187.862 76.1814 191.505 62.938C193.64 55.157 195.774 47.4045 197.909 39.6235C197.966 39.6662 198.023 39.7088 198.08 39.7657C198.407 40.036 198.72 40.3205 199.033 40.6192C198.806 39.7515 198.578 38.898 198.35 38.0303L201.41 35.5552C201.88 35.9819 202.349 36.4087 202.805 36.8496Z"
            fill="#3D3232"
        />
        <path
            d="M203.274 279.184C203.175 279.398 203.075 279.611 202.975 279.824L184.731 271.802L176.548 290.394L194.109 298.118C193.996 298.331 193.896 298.544 193.796 298.758L175.609 290.749L184.375 270.863L203.274 279.184Z"
            fill="#626262"
        />
        <path
            d="M202.975 279.824C202.876 280.038 202.776 280.251 202.662 280.465L185.101 272.74L177.488 290.024L194.423 297.478C194.323 297.691 194.209 297.904 194.109 298.118L176.548 290.394L184.731 271.802L202.975 279.824Z"
            fill="#626262"
        />
        <path
            d="M185.101 272.74L202.662 280.465C199.916 286.24 197.141 291.958 194.423 297.478L177.488 290.024L185.101 272.74Z"
            fill="#626262"
        />
        <path
            d="M201.41 35.5551L198.35 38.0303C198.208 38.5566 198.051 39.0971 197.909 39.6235C197.582 39.3247 197.254 39.0545 196.913 38.7842C196.671 38.5708 196.415 38.3859 196.173 38.1725C196.144 38.1583 196.088 38.1156 196.016 38.0587C196.016 38.0587 196.016 38.0587 196.002 38.0445C196.002 38.0445 195.988 38.0445 195.988 38.0303C195.974 38.0303 195.959 38.016 195.945 38.0018C195.931 38.0018 195.931 37.9876 195.917 37.9876L195.903 37.9734C195.86 37.9449 195.846 37.9307 195.831 37.9165C195.76 37.8596 195.689 37.8027 195.689 37.8027C188.944 32.7386 181.373 28.7983 173.304 26.3232C160.567 22.3972 147.147 22.4541 134.339 26.1241C134.04 26.2094 133.741 26.2379 133.443 26.2094L134.154 23.6916L134.937 21.7855C135.264 21.9277 135.606 22.07 135.933 22.198C135.577 21.6148 135.207 21.0316 134.78 20.4768C142.38 18.4853 150.278 17.6176 158.119 18.1297C169.461 18.8836 180.519 22.3403 190.381 27.9448C194.209 30.1213 198.066 32.6106 201.41 35.5551Z"
            fill="#3D3232"
        />
        <path
            d="M198.35 38.0303C198.578 38.898 198.806 39.7515 199.033 40.6192C198.72 40.3205 198.407 40.036 198.08 39.7657C198.023 39.7088 197.966 39.6661 197.909 39.6235C198.051 39.0971 198.208 38.5566 198.35 38.0303Z"
            fill="#3D3232"
        />
        <path
            d="M196.002 38.0444C196.016 38.0585 196.016 38.0585 196.016 38.0585C195.988 38.0444 195.945 38.016 195.917 37.9877C195.931 37.9877 195.931 38.0018 195.945 38.0018C195.959 38.016 195.974 38.0302 195.988 38.0302C195.988 38.0444 196.002 38.0444 196.002 38.0444Z"
            fill="#3D3232"
        />
        <path
            d="M195.832 37.9165C195.846 37.9309 195.86 37.9454 195.904 37.9742C195.86 37.9454 195.832 37.9309 195.832 37.9165C195.817 37.9165 195.817 37.9165 195.832 37.9165Z"
            fill="#3D3232"
        />
        <path
            d="M192.089 51.6008C192.971 52.2693 191.804 53.4785 190.922 52.9095C190.893 52.8952 190.865 52.881 190.836 52.8526C190.765 52.8099 190.694 52.753 190.666 52.7245C190.409 52.5396 190.153 52.3547 189.897 52.1698C188.986 51.5012 188.061 50.8611 187.108 50.2352C173.93 41.4584 156.041 33.1654 140.103 38.7557C139.007 39.1398 138.552 37.4186 139.619 37.0345C144.671 35.2706 150.064 34.8723 155.358 35.484C164.281 36.5082 172.82 39.9364 180.647 44.2323C184.603 46.4087 188.517 48.8127 192.089 51.6008Z"
            fill="#626262"
        />
        <path
            d="M188.033 61.2737C188.915 61.9565 187.734 63.1514 186.866 62.5824C186.837 62.5682 186.809 62.554 186.78 62.5255C186.724 62.4829 186.652 62.426 186.61 62.3975C186.354 62.2126 186.097 62.0277 185.841 61.8427C184.93 61.1742 183.991 60.534 183.052 59.9082C169.874 51.1314 151.986 42.8383 136.033 48.4287C134.951 48.8128 134.496 47.0916 135.563 46.7075C140.615 44.9436 146.009 44.5595 151.303 45.157C160.225 46.1812 168.764 49.6236 176.591 53.9195C180.547 56.0817 184.461 58.4857 188.033 61.2737Z"
            fill="#626262"
        />
        <path
            d="M183.948 110.634C183.707 111.487 183.479 112.355 183.237 113.209C182.824 114.717 181.373 115.3 179.95 115.072C179.807 115.044 179.651 115.015 179.494 114.987C170.899 113.621 162.303 112.142 153.708 110.705C142.052 108.771 130.411 106.836 118.756 104.901C116.294 104.489 113.633 104.304 111.214 103.65C110.317 103.408 109.421 103.052 108.538 102.668L112.366 101.217L113.106 98.5713C113.206 98.5997 113.32 98.6282 113.434 98.6424C116.792 99.1972 120.151 99.752 123.509 100.321C135.563 102.312 147.602 104.318 159.642 106.31C166.003 107.376 172.35 108.429 178.711 109.482C178.512 110.25 178.299 111.018 178.085 111.786C179.181 111.16 180.277 110.549 181.373 109.923L183.948 110.634Z"
            fill="#3D3232"
        />
        <path
            d="M181.373 109.923C180.277 110.549 179.181 111.16 178.085 111.786C178.299 111.018 178.512 110.25 178.711 109.482C179.594 109.624 180.49 109.781 181.373 109.923Z"
            fill="#3D3232"
        />
        <path
            d="M180.42 84.959V84.9734C180.392 84.9445 180.363 84.9301 180.334 84.9012C180.363 84.9157 180.392 84.9445 180.42 84.959Z"
            fill="#626262"
        />
        <path
            d="M178.555 96.0251C179.451 96.7079 178.256 97.917 177.36 97.3195C177.345 97.3053 177.317 97.2911 177.303 97.2769C177.246 97.2342 177.175 97.1773 177.132 97.1488C176.876 96.9639 176.619 96.779 176.378 96.5941C175.453 95.9255 174.528 95.2854 173.588 94.6595C160.396 85.8828 142.508 77.5897 126.569 83.18C125.473 83.5641 125.018 81.8429 126.085 81.4588C131.137 79.6949 136.531 79.3109 141.825 79.9083C150.747 80.9325 159.286 84.3749 167.113 88.6566C171.084 90.833 174.983 93.237 178.555 96.0251Z"
            fill="#626262"
        />
        <path
            d="M166.473 282.271C166.672 283.679 166.117 285.159 164.609 285.557C164.48 285.586 164.338 285.614 164.224 285.657C163.257 285.941 162.289 286.211 161.321 286.482V283.694C161.947 282.598 162.559 281.503 163.185 280.408C162.431 280.607 161.677 280.792 160.923 280.991C160.624 279.014 160.339 277.036 160.04 275.059C158.19 262.513 156.326 249.966 154.476 237.42C153.38 230.037 152.284 222.641 151.189 215.258C151.744 215.414 152.313 215.599 152.854 215.798L156.554 215.258C156.838 217.221 157.137 219.184 157.422 221.147C159.272 233.693 161.136 246.24 162.986 258.786C164.153 266.624 165.306 274.447 166.473 282.271Z"
            fill="#8F99EC"
        />
        <path
            d="M163.185 280.408C162.559 281.503 161.947 282.598 161.321 283.694C161.193 282.797 161.051 281.887 160.923 280.991C161.677 280.792 162.431 280.607 163.185 280.408Z"
            fill="#F1B356"
        />
        <path
            d="M161.321 283.694V286.482C154.519 288.359 147.602 289.896 140.786 291.631C130.198 294.334 119.61 297.037 109.036 299.754C106.816 300.308 104.596 301.005 102.362 301.446C102.006 301.517 101.65 301.574 101.28 301.603L101.067 298.971L102.12 298.815L101.736 296.098C104.781 295.33 107.841 294.547 110.886 293.765C121.802 290.977 132.717 288.189 143.632 285.401C149.396 283.935 155.159 282.456 160.923 280.991C161.051 281.887 161.193 282.798 161.321 283.694Z"
            fill="#8F99EC"
        />
        <path
            d="M160.04 275.059C160.339 277.036 160.624 279.014 160.923 280.991C155.159 282.456 149.396 283.935 143.632 285.401C132.717 288.189 121.802 290.977 110.886 293.765C107.841 294.547 104.781 295.329 101.736 296.098L92.0445 227.861C92.4145 227.733 92.7561 227.534 93.0407 227.292C108.481 214.475 129.344 209.909 148.613 214.575C149.467 214.774 150.335 215.002 151.189 215.258C152.284 222.64 153.38 230.037 154.476 237.42C156.326 249.966 158.19 262.513 160.04 275.059ZM155.472 271.489C156.582 271.773 157.052 270.052 155.942 269.767C151.914 268.757 147.716 268.203 143.589 267.833C135.364 267.107 126.797 267.363 118.87 269.881C114.188 271.361 109.819 273.693 106.204 277.065C105.365 277.861 106.631 279.113 107.471 278.331C118.799 267.733 137.071 268.103 151.402 270.649C152.754 270.891 154.12 271.147 155.472 271.489ZM153.423 259.91C154.533 260.194 155.003 258.473 153.893 258.203C149.865 257.178 145.681 256.624 141.54 256.268C133.329 255.543 124.747 255.799 116.835 258.302C112.139 259.782 107.77 262.129 104.169 265.5C103.33 266.282 104.582 267.534 105.422 266.752C116.75 256.154 135.036 256.538 149.353 259.07C150.719 259.312 152.085 259.568 153.423 259.91ZM151.858 248.402C152.968 248.686 153.451 246.965 152.341 246.695C148.3 245.671 144.116 245.116 139.989 244.76C131.763 244.035 123.196 244.291 115.27 246.794C110.588 248.274 106.204 250.621 102.604 253.992C101.764 254.774 103.031 256.026 103.856 255.244C115.198 244.646 133.471 245.03 147.787 247.562C149.154 247.804 150.52 248.06 151.858 248.402ZM150.548 238.643C151.658 238.928 152.128 237.221 151.018 236.936C146.991 235.912 142.792 235.357 138.665 235.002C130.44 234.276 121.873 234.532 113.946 237.036C109.264 238.53 104.895 240.862 101.28 244.234C100.441 245.016 101.707 246.268 102.547 245.486C113.875 234.888 132.162 235.272 146.478 237.804C147.83 238.046 149.196 238.302 150.548 238.643ZM150.377 228.985C151.488 229.255 151.957 227.548 150.847 227.264C146.82 226.239 142.622 225.699 138.495 225.329C130.269 224.603 121.702 224.86 113.775 227.363C109.093 228.857 104.724 231.19 101.11 234.561C100.27 235.343 101.537 236.609 102.376 235.827C113.704 225.229 131.977 225.599 146.307 228.145C147.659 228.387 149.026 228.643 150.377 228.985Z"
            fill="white"
        />
        <path
            d="M156.141 212.512C156.283 213.437 156.411 214.347 156.554 215.258L152.854 215.798C152.242 215.172 151.616 214.561 150.989 213.935C151.061 214.376 151.117 214.817 151.189 215.258C150.335 215.002 149.467 214.774 148.613 214.575C129.344 209.909 108.481 214.475 93.0407 227.292C92.7561 227.534 92.4145 227.733 92.0445 227.861L91.6887 225.329L91.4184 223.238C91.7884 223.195 92.1441 223.138 92.4999 223.096C92.0161 222.754 91.518 222.427 90.9914 222.143C96.5557 217.776 102.632 214.234 109.293 211.702C119.14 207.975 129.956 206.737 140.416 207.818C145.055 208.288 149.879 209.027 154.277 210.649C155.088 210.962 155.999 211.574 156.141 212.512Z"
            fill="#8F99EC"
        />
        <path
            d="M155.942 269.767C157.052 270.052 156.582 271.773 155.472 271.489C154.12 271.147 152.754 270.891 151.402 270.649C137.071 268.103 118.799 267.733 107.471 278.331C106.631 279.113 105.365 277.861 106.204 277.065C109.819 273.693 114.188 271.361 118.87 269.881C126.797 267.363 135.364 267.107 143.589 267.833C147.716 268.203 151.914 268.757 155.942 269.767Z"
            fill="#626262"
        />
        <path
            d="M153.893 258.203C155.003 258.473 154.533 260.194 153.423 259.91C152.085 259.568 150.719 259.312 149.353 259.07C135.036 256.538 116.75 256.154 105.422 266.752C104.582 267.534 103.33 266.282 104.169 265.5C107.77 262.129 112.139 259.782 116.835 258.302C124.747 255.799 133.329 255.543 141.54 256.268C145.681 256.624 149.865 257.178 153.893 258.203Z"
            fill="#626262"
        />
        <path
            d="M150.989 213.935C151.616 214.561 152.242 215.172 152.854 215.798C152.313 215.599 151.744 215.414 151.189 215.258C151.118 214.817 151.061 214.376 150.989 213.935Z"
            fill="#F1B356"
        />
        <path
            d="M152.341 246.695C153.451 246.965 152.968 248.686 151.858 248.402C150.52 248.06 149.154 247.804 147.787 247.562C133.471 245.03 115.198 244.646 103.856 255.244C103.031 256.026 101.764 254.774 102.604 253.992C106.204 250.621 110.588 248.274 115.27 246.794C123.196 244.291 131.763 244.035 139.989 244.76C144.116 245.116 148.3 245.671 152.341 246.695Z"
            fill="#626262"
        />
        <path
            d="M151.018 236.937C152.128 237.221 151.658 238.928 150.548 238.644C149.196 238.302 147.83 238.046 146.478 237.804C132.162 235.272 113.875 234.888 102.547 245.486C101.707 246.268 100.441 245.016 101.28 244.234C104.895 240.863 109.264 238.53 113.946 237.036C121.873 234.533 130.44 234.276 138.665 235.002C142.792 235.358 146.991 235.912 151.018 236.937Z"
            fill="#626262"
        />
        <path
            d="M150.847 227.264C151.957 227.548 151.488 229.255 150.377 228.985C149.026 228.643 147.659 228.387 146.307 228.146C131.977 225.599 113.704 225.229 102.376 235.827C101.537 236.609 100.27 235.343 101.11 234.561C104.724 231.19 109.093 228.857 113.775 227.363C121.702 224.86 130.269 224.604 138.495 225.329C142.622 225.699 146.82 226.239 150.847 227.264Z"
            fill="#626262"
        />
        <path
            d="M135.933 22.198C135.606 22.07 135.264 21.9277 134.937 21.7855C134.268 21.5294 133.599 21.2449 132.93 20.9747C133.542 20.804 134.168 20.6333 134.78 20.4768C135.207 21.0316 135.577 21.6148 135.933 22.198Z"
            fill="#3D3232"
        />
        <path
            d="M134.154 23.6916L133.443 26.2094C133.087 26.181 132.731 26.0814 132.418 25.8965L133.115 23.4071L134.154 23.6916Z"
            fill="#626262"
        />
        <path
            d="M133.443 26.2094L113.106 98.5713C112.751 98.5002 112.409 98.4006 112.082 98.2868L116.75 81.6864L120.25 69.2254L123.595 57.2907L126.484 47.0204L129.301 36.9777L132.418 25.8965C132.731 26.0814 133.087 26.181 133.443 26.2094Z"
            fill="#626262"
        />
        <path
            d="M132.418 25.8964L129.301 36.9776L126.427 36.1668C126.541 35.8681 126.526 35.5267 126.284 35.2137C115.426 21.7143 95.3177 19.1254 79.0801 19.6375C77.4577 19.6944 75.8496 19.7655 74.2415 19.9362C73.8146 19.9931 73.5442 20.2634 73.4446 20.5906L70.328 19.7798C70.7834 17.9874 71.253 16.2093 71.7226 14.417C72.3488 11.9845 72.9892 9.53786 73.6296 7.10541C86.4375 5.2704 99.8289 5.65447 111.982 10.4198C115.91 11.9561 119.681 14.0471 123.082 16.5507C123.894 17.1339 123.936 17.1766 124.861 17.9447C125.473 18.4568 126.071 18.9832 126.654 19.5237C127.579 20.3914 128.462 21.2876 129.287 22.2407C129.657 22.6532 129.984 23.0657 130.354 23.4782V23.4924C130.369 23.5209 130.383 23.5351 130.397 23.5493C130.411 23.5636 130.426 23.5778 130.44 23.592C130.539 23.7343 130.639 23.8765 130.739 24.0188C130.938 24.3033 131.151 24.5878 131.336 24.9007C131.593 25.3274 131.977 25.6688 132.418 25.8964Z"
            fill="white"
        />
        <path
            d="M130.383 23.5069C130.383 23.5212 130.383 23.5356 130.397 23.5499C130.383 23.5356 130.369 23.5212 130.354 23.4926H130.369C130.369 23.4926 130.383 23.4926 130.383 23.5069Z"
            fill="#3D3232"
        />
        <path
            d="M130.354 23.4783C130.354 23.4783 130.369 23.4783 130.369 23.493H130.354V23.4783Z"
            fill="#3D3232"
        />
        <path
            d="M129.301 36.9776L126.484 47.0204L124.762 46.5367C124.875 46.238 124.861 45.8824 124.619 45.5837C113.761 32.0701 93.6669 29.4954 77.415 30.0075C75.8069 30.0501 74.1846 30.1213 72.5907 30.292C72.1638 30.3489 71.8934 30.6191 71.7938 30.9463L67.681 29.8794C68.5633 26.5081 69.4457 23.1511 70.328 19.7798L73.4446 20.5906C73.2738 21.1311 73.53 21.7997 74.2415 21.7144C78.4966 21.2592 82.8513 21.2876 87.1348 21.4868C95.7588 21.9135 104.639 23.3502 112.523 27.006C117.347 29.2393 121.688 32.3261 125.018 36.4798C125.487 37.0488 126.185 36.7216 126.427 36.1668L129.301 36.9776Z"
            fill="white"
        />
        <path
            d="M126.284 35.2138C126.526 35.5268 126.541 35.8682 126.427 36.1669C126.185 36.7217 125.487 37.0488 125.018 36.4798C121.688 32.3262 117.347 29.2394 112.523 27.0061C104.639 23.3503 95.7588 21.9136 87.1348 21.4868C82.8513 21.2877 78.4966 21.2592 74.2415 21.7144C73.53 21.7998 73.2738 21.1312 73.4446 20.5907C73.5442 20.2635 73.8146 19.9932 74.2415 19.9363C75.8496 19.7656 77.4577 19.6945 79.0801 19.6376C95.3177 19.1255 115.426 21.7144 126.284 35.2138Z"
            fill="#626262"
        />
        <path
            d="M126.484 47.0205L123.595 57.2908L121.859 56.8072C121.987 56.5084 121.972 56.1528 121.73 55.8541C110.872 42.3547 90.7637 39.7658 74.5261 40.2779C72.9038 40.3348 71.2957 40.4059 69.6876 40.5766C69.1895 40.6193 68.9049 40.9891 68.848 41.3874L64.9487 40.3632C65.8594 36.8639 66.7702 33.3788 67.681 29.8795L71.7938 30.9464C71.623 31.4869 71.8792 32.1555 72.5907 32.0701C76.8458 31.615 81.2005 31.6434 85.4698 31.8568C94.108 32.2693 102.974 33.706 110.872 37.376C115.682 39.5951 120.023 42.6819 123.367 46.8355C123.837 47.4188 124.534 47.0774 124.762 46.5368L126.484 47.0205Z"
            fill="white"
        />
        <path
            d="M124.619 45.5837C124.861 45.8824 124.875 46.238 124.762 46.5367C124.534 47.0773 123.837 47.4187 123.367 46.8355C120.023 42.6818 115.682 39.595 110.872 37.3759C102.974 33.7059 94.108 32.2692 85.4698 31.8567C81.2005 31.6433 76.8458 31.6149 72.5907 32.0701C71.8792 32.1554 71.623 31.4868 71.7938 30.9463C71.8934 30.6191 72.1638 30.3489 72.5907 30.292C74.1846 30.1213 75.8069 30.0501 77.415 30.0075C93.6669 29.4954 113.761 32.0701 124.619 45.5837Z"
            fill="#626262"
        />
        <path
            d="M123.595 57.2907L120.25 69.2254L118.5 68.7417C118.543 68.4999 118.5 68.2154 118.301 67.9736C107.442 54.4742 87.3341 51.8853 71.0965 52.3974C69.4884 52.4543 67.866 52.5254 66.2579 52.6961C65.7598 52.753 65.4752 53.1229 65.4183 53.5212L61.7609 52.5681C62.8282 48.4998 63.8813 44.4315 64.9487 40.3632L68.848 41.3873C68.7768 41.8852 69.0472 42.4115 69.6876 42.3546C73.9427 41.8994 78.2973 41.9279 82.5667 42.127C91.2049 42.5538 100.071 43.9905 107.969 47.6463C112.779 49.8796 117.134 52.9664 120.464 57.1058C120.934 57.689 121.631 57.3476 121.859 56.8071L123.595 57.2907Z"
            fill="white"
        />
        <path
            d="M121.73 55.8541C121.972 56.1528 121.987 56.5084 121.859 56.8071C121.631 57.3477 120.934 57.6891 120.464 57.1059C117.134 52.9664 112.779 49.8796 107.969 47.6463C100.071 43.9905 91.2049 42.5538 82.5667 42.1271C78.2974 41.9279 73.9427 41.8995 69.6876 42.3547C69.0472 42.4116 68.7768 41.8853 68.848 41.3874C68.9049 40.9891 69.1895 40.6193 69.6876 40.5766C71.2957 40.4059 72.9038 40.3348 74.5261 40.2779C90.7637 39.7658 110.872 42.3547 121.73 55.8541Z"
            fill="#626262"
        />
        <path
            d="M120.25 69.2254L116.75 81.6864L114.487 81.0463C114.601 80.7618 114.586 80.4062 114.345 80.0932C103.486 66.5938 83.3778 64.0191 67.1402 64.5312C65.5321 64.5739 63.9098 64.645 62.3017 64.8157C61.8036 64.8726 61.519 65.2425 61.4621 65.6408L58.5447 64.8868C59.5551 61.0177 60.5655 57.1343 61.5759 53.2651C61.6328 53.0375 61.704 52.7957 61.7609 52.5681L65.4183 53.5212C65.3471 54.0191 65.6175 54.5454 66.2579 54.4742C70.5272 54.0191 74.8677 54.0475 79.1512 54.2466C87.7752 54.6734 96.6554 56.1101 104.539 59.7659C109.364 61.9992 113.704 65.086 117.034 69.2397C117.561 69.8798 118.358 69.3961 118.5 68.7418L120.25 69.2254Z"
            fill="white"
        />
        <path
            d="M118.301 67.9736C118.5 68.2154 118.543 68.4999 118.5 68.7417C118.358 69.3961 117.561 69.8797 117.034 69.2396C113.704 65.0859 109.364 61.9991 104.539 59.7658C96.6554 56.1101 87.7752 54.6733 79.1512 54.2466C74.8677 54.0474 70.5272 54.019 66.2579 54.4742C65.6175 54.5453 65.3471 54.019 65.4183 53.5211C65.4752 53.1228 65.7598 52.753 66.2579 52.6961C67.866 52.5254 69.4883 52.4543 71.0965 52.3974C87.3341 51.8853 107.442 54.4742 118.301 67.9736Z"
            fill="#626262"
        />
        <path
            d="M116.75 81.6864L112.082 98.2868C111.271 98.0165 110.488 97.6609 109.691 97.3337C99.5727 93.237 89.4545 89.126 79.3362 85.0292C73.8715 82.8244 68.4068 80.6053 62.9421 78.3862C60.5655 77.4332 58.2032 76.3379 55.7981 75.399C56.7089 71.8997 57.6197 68.3862 58.5447 64.8868L61.4621 65.6408C61.3909 66.1386 61.6613 66.6649 62.3017 66.5938C66.571 66.1386 70.9257 66.1671 75.195 66.3662C83.8332 66.793 92.6991 68.2297 100.597 71.8855C105.407 74.1188 109.748 77.2056 113.078 81.3592C113.548 81.9424 114.245 81.601 114.487 81.0463L116.75 81.6864Z"
            fill="white"
        />
        <path
            d="M114.345 80.0933C114.586 80.4062 114.601 80.7618 114.487 81.0463C114.245 81.6011 113.548 81.9425 113.078 81.3593C109.748 77.2056 105.407 74.1188 100.597 71.8855C92.6991 68.2297 83.8332 66.793 75.195 66.3663C70.9257 66.1671 66.571 66.1387 62.3017 66.5939C61.6613 66.665 61.3909 66.1387 61.4621 65.6408C61.519 65.2425 61.8036 64.8727 62.3017 64.8158C63.9098 64.6451 65.5321 64.5739 67.1402 64.5313C83.3778 64.0192 103.486 66.5939 114.345 80.0933Z"
            fill="#626262"
        />
        <path
            d="M113.106 98.5714L112.366 101.217L111.342 100.933L112.082 98.2869C112.409 98.4007 112.751 98.5002 113.106 98.5714Z"
            fill="#626262"
        />
        <path
            d="M112.366 101.217L108.538 102.668C107.642 102.27 106.759 101.871 105.906 101.516C95.1184 97.1488 84.3313 92.7817 73.5442 88.4005C66.3291 85.4844 59.1139 82.5541 51.8988 79.638C50.5469 79.0832 49.6361 77.8741 50.0345 76.352C50.2622 75.4985 50.4757 74.6451 50.7034 73.8058L53.3219 74.4886C53.9338 75.5839 54.56 76.6792 55.1862 77.7745C55.3854 76.9779 55.5989 76.1956 55.7981 75.399C58.2031 76.3378 60.5655 77.4331 62.9421 78.3862C68.4068 80.6053 73.8715 82.8243 79.3362 85.0292C89.4545 89.126 99.5727 93.2369 109.691 97.3337C110.488 97.6609 111.271 98.0165 112.082 98.2868L111.342 100.933L112.366 101.217Z"
            fill="#3D3232"
        />
        <path
            d="M108.453 194.177C108.581 195.215 107.912 195.77 107.115 195.841C108.908 195.201 108.794 192.142 106.674 192.398C106.019 192.484 105.365 192.555 104.71 192.64C104.44 190.535 104.198 188.416 103.927 186.31C103.059 179.297 102.205 172.285 101.337 165.272L101.793 165.215L101.409 162.398L100.996 162.455C100.583 159.07 100.156 155.684 99.7435 152.299C98.9466 145.798 98.1354 139.297 97.3385 132.796C97.8508 132.739 98.3631 132.683 98.8754 132.611C98.2919 132.028 97.6942 131.431 97.0965 130.833L96.9115 129.297C97.5662 129.212 98.2208 129.141 98.8754 129.055C99.9285 128.927 100.555 129.98 100.654 130.833C100.982 133.465 101.309 136.082 101.636 138.714C103.031 150.051 104.426 161.388 105.82 172.726C106.688 179.881 107.571 187.022 108.453 194.177Z"
            fill="#626262"
        />
        <path
            d="M106.674 192.398C108.794 192.142 108.908 195.201 107.115 195.841C106.176 195.969 105.037 195.4 104.895 194.177C104.838 193.664 104.767 193.152 104.71 192.64C105.365 192.555 106.019 192.484 106.674 192.398Z"
            fill="#626262"
        />
        <path
            d="M103.927 186.31C104.198 188.416 104.44 190.535 104.71 192.64C94.4353 193.906 84.1463 195.172 73.8573 196.438C56.5097 198.572 39.1478 200.706 21.786 202.84C18.3136 203.266 14.8412 203.693 11.3546 204.12C10.5719 197.619 9.76076 191.132 8.96382 184.632C8.79305 183.195 8.60804 181.744 8.43727 180.307L8.63651 180.279L9.02074 183.095L22.8391 181.232L26.3399 168.686L41.7094 189.923L47.6864 174.617L58.9005 172.939L65.7456 147.732L86.2952 185.172L90.4364 166.737L101.337 165.272C102.205 172.285 103.059 179.297 103.927 186.31Z"
            fill="#626262"
        />
        <path
            d="M101.736 296.098L102.12 298.815L101.067 298.971L100.669 296.197C100.839 296.197 101.024 296.197 101.181 296.211C101.095 296.226 101.024 296.254 100.967 296.297C100.768 296.439 101.964 296.297 101.423 296.226C101.337 296.211 101.266 296.211 101.181 296.211C101.352 296.169 101.579 296.14 101.707 296.112C101.722 296.112 101.722 296.112 101.736 296.098Z"
            fill="#626262"
        />
        <path
            d="M101.409 162.398L101.793 165.215L101.337 165.272C101.224 164.333 101.11 163.394 100.996 162.455L101.409 162.398Z"
            fill="#48CB3F"
        />
        <path
            d="M92.0445 227.861L101.736 296.098C101.722 296.112 101.722 296.112 101.707 296.112C101.579 296.14 101.352 296.169 101.181 296.212C101.024 296.197 100.839 296.197 100.669 296.197L98.4627 280.664L96.8262 269.056L95.1896 257.563L93.8092 247.819L92.4572 238.302L91.0057 228.074C91.3614 228.089 91.7172 228.003 92.0445 227.861Z"
            fill="#626262"
        />
        <path
            d="M101.423 296.226C101.964 296.297 100.768 296.439 100.967 296.297C101.024 296.254 101.095 296.226 101.181 296.211C101.266 296.211 101.337 296.211 101.423 296.226Z"
            fill="#626262"
        />
        <path
            d="M100.996 162.455C101.11 163.394 101.224 164.333 101.337 165.272L90.4364 166.737L86.2952 185.172L65.7456 147.732L58.9005 172.939L47.6864 174.617L41.7094 189.923L26.3399 168.686L22.8391 181.232L9.02074 183.095L8.63651 180.279L20.6048 178.657L25.1872 162.242L40.9552 184.034L45.6372 172.043L56.6377 170.407L64.849 140.179L85.1567 177.206L88.0883 164.191L100.996 162.455Z"
            fill="#48CB3F"
        />
        <path
            d="M101.067 298.971L101.28 301.603C99.6724 301.773 97.9931 301.674 96.4135 301.717C85.6975 302.029 74.9673 302.342 64.2371 302.67C57.0647 302.883 49.878 303.096 42.6913 303.31C41.6098 303.338 40.2863 302.456 40.1155 301.347C39.959 300.394 39.8024 299.426 39.6459 298.473L42.6913 297.975C43.5452 298.63 44.3991 299.27 45.2529 299.924C45.1391 299.227 45.0252 298.516 44.9114 297.819C47.3307 297.677 49.8211 297.762 52.2261 297.691C57.6197 297.534 63.0275 297.364 68.421 297.207C78.5108 296.909 88.6006 296.61 98.6904 296.311C99.3166 296.283 99.9997 296.211 100.669 296.197L101.067 298.971Z"
            fill="#8F99EC"
        />
        <path
            d="M99.7435 152.299C100.156 155.684 100.583 159.07 100.996 162.455L88.0883 164.191L85.1567 177.206L64.849 140.179L64.4363 136.85C71.9361 135.94 79.4216 135.015 86.9214 134.091C90.3937 133.65 93.8661 133.237 97.3385 132.796C98.1354 139.297 98.9466 145.798 99.7435 152.299Z"
            fill="#626262"
        />
        <path
            d="M98.4627 280.664L100.669 296.197C99.9997 296.211 99.3166 296.283 98.6904 296.311C88.6006 296.61 78.5108 296.909 68.421 297.207C63.0275 297.364 57.6197 297.534 52.2261 297.691C49.8211 297.762 47.3306 297.677 44.9114 297.819C44.3848 294.533 43.8583 291.261 43.3317 287.975L45.7795 287.577C45.8933 288.118 46.4625 288.587 47.0887 288.231C50.4472 286.297 54.0477 284.732 57.6481 283.352C65.034 280.507 72.9465 278.459 80.9016 278.53C85.8398 278.573 90.7495 279.526 95.1469 281.802C95.8584 282.172 96.4988 281.546 96.4988 280.948L98.4627 280.664Z"
            fill="white"
        />
        <path
            d="M98.8754 132.611C98.3631 132.682 97.8508 132.739 97.3385 132.796C97.2531 132.142 97.1819 131.488 97.0965 130.833C97.6942 131.431 98.2919 132.028 98.8754 132.611Z"
            fill="#626262"
        />
        <path
            d="M96.8262 269.056L98.4627 280.664L96.4988 280.948C96.4988 280.692 96.3708 280.422 96.0577 280.265C81.7555 272.883 63.9098 278.089 50.2765 284.604C48.8961 285.258 47.5157 285.927 46.1922 286.695C45.8222 286.908 45.7226 287.264 45.7795 287.577L43.3317 287.975C42.734 284.305 42.1506 280.635 41.5529 276.965C41.5244 276.766 41.4817 276.567 41.4532 276.368L44.5983 275.87C44.7122 276.425 45.2956 276.894 45.9218 276.524C49.2803 274.604 52.8808 273.039 56.4812 271.659C63.8671 268.814 71.7653 266.766 79.7347 266.823C84.6729 266.866 89.5683 267.833 93.98 270.109C94.6915 270.464 95.3319 269.853 95.3319 269.27L96.8262 269.056Z"
            fill="white"
        />
        <path
            d="M97.0965 130.833C97.1819 131.488 97.2531 132.142 97.3385 132.796C93.8661 133.237 90.3937 133.65 86.9214 134.091C79.4216 135.015 71.9361 135.94 64.4363 136.85C54.5742 138.074 44.6979 139.283 34.8358 140.492C24.561 141.744 14.272 143.024 3.99719 144.276C3.94026 143.764 3.86911 143.252 3.81218 142.739C3.21448 143.337 2.63101 143.92 2.03331 144.518L0.496355 144.703C0.410969 144.048 0.339814 143.394 0.254428 142.739C0.126348 141.701 1.16521 141.075 2.03331 140.961C6.01799 140.478 10.0027 139.98 14.0016 139.496C31.3492 137.362 48.7111 135.229 66.0729 133.095C76.3477 131.829 86.6367 130.563 96.9115 129.297L97.0965 130.833Z"
            fill="#626262"
        />
        <path
            d="M95.1896 257.562L96.8262 269.056L95.3319 269.27C95.3319 268.999 95.1896 268.743 94.8765 268.573C80.5886 261.176 62.7428 266.396 49.1095 272.897C47.7291 273.551 46.3487 274.234 45.0252 274.988C44.6552 275.201 44.5414 275.557 44.5983 275.87L41.4532 276.368C40.8413 272.541 40.2294 268.729 39.6174 264.917L42.9902 264.376C43.104 264.917 43.6875 265.386 44.3137 265.031C47.658 263.11 51.2584 261.531 54.8731 260.151C62.259 257.321 70.1572 255.258 78.1124 255.329C83.0648 255.372 87.9602 256.325 92.3718 258.615C93.0692 258.985 93.7238 258.359 93.7238 257.776L95.1896 257.562Z"
            fill="white"
        />
        <path
            d="M96.0577 280.265C96.3708 280.422 96.4988 280.692 96.4988 280.948C96.4988 281.546 95.8584 282.172 95.1469 281.802C90.7495 279.526 85.8398 278.573 80.9016 278.53C72.9465 278.459 65.034 280.507 57.6481 283.352C54.0477 284.732 50.4472 286.297 47.0887 288.231C46.4626 288.587 45.8933 288.118 45.7795 287.577C45.7225 287.264 45.8222 286.908 46.1922 286.695C47.5157 285.927 48.8961 285.258 50.2765 284.604C63.9098 278.089 81.7555 272.883 96.0577 280.265Z"
            fill="#626262"
        />
        <path
            d="M93.8092 247.818L95.1896 257.562L93.7238 257.776C93.7238 257.506 93.5815 257.235 93.2684 257.079C78.9662 249.682 61.1348 254.902 47.4872 261.403C46.1068 262.058 44.7406 262.74 43.4171 263.494C43.0471 263.708 42.9333 264.063 42.9902 264.376L39.6174 264.917C39.0909 261.673 38.5786 258.43 38.052 255.201L41.624 254.632C41.7379 255.173 42.3071 255.642 42.9333 255.286C46.2918 253.352 49.8922 251.787 53.4927 250.407C60.8786 247.577 68.791 245.514 76.7462 245.585C81.6843 245.628 86.5798 246.581 90.9914 248.857C91.703 249.212 92.3434 248.615 92.3434 248.032L93.8092 247.818Z"
            fill="white"
        />
        <path
            d="M94.8765 268.573C95.1896 268.743 95.3319 268.999 95.3319 269.27C95.3319 269.853 94.6915 270.465 93.98 270.109C89.5683 267.833 84.6729 266.866 79.7347 266.823C71.7653 266.766 63.8671 268.814 56.4812 271.659C52.8808 273.039 49.2803 274.604 45.9218 276.524C45.2956 276.894 44.7121 276.425 44.5983 275.87C44.5414 275.557 44.6552 275.201 45.0252 274.988C46.3487 274.234 47.7291 273.551 49.1095 272.897C62.7429 266.396 80.5886 261.176 94.8765 268.573Z"
            fill="#626262"
        />
        <path
            d="M92.4572 238.302L93.8092 247.819L92.3434 248.032C92.3434 247.762 92.2011 247.506 91.888 247.335C77.6 239.938 59.7543 245.144 46.121 251.659C44.7406 252.314 43.3602 252.982 42.0367 253.75C41.6667 253.964 41.5671 254.319 41.624 254.632L38.052 255.201C37.5397 252.029 37.0274 248.857 36.5293 245.699L39.162 245.272C39.2759 245.813 39.8594 246.282 40.4855 245.927C43.844 244.006 47.4303 242.427 51.0449 241.048C58.4308 238.217 66.3291 236.154 74.2984 236.225C79.2366 236.268 84.1321 237.221 88.5437 239.511C89.241 239.881 89.8956 239.255 89.8956 238.672L92.4572 238.302Z"
            fill="white"
        />
        <path
            d="M93.2684 257.079C93.5815 257.235 93.7238 257.506 93.7238 257.776C93.7238 258.359 93.0692 258.985 92.3718 258.615C87.9602 256.325 83.0648 255.372 78.1124 255.329C70.1572 255.258 62.259 257.321 54.8731 260.151C51.2584 261.531 47.658 263.11 44.3137 265.031C43.6875 265.386 43.104 264.917 42.9902 264.376C42.9333 264.063 43.0471 263.708 43.4171 263.494C44.7406 262.74 46.1068 262.058 47.4872 261.403C61.1347 254.903 78.9662 249.682 93.2684 257.079Z"
            fill="#626262"
        />
        <path
            d="M92.4999 223.096C92.1441 223.138 91.7884 223.195 91.4184 223.238C90.7068 223.337 89.9953 223.423 89.2695 223.508C89.8387 223.039 90.408 222.584 90.9914 222.143C91.518 222.427 92.0161 222.754 92.4999 223.096Z"
            fill="#F1B356"
        />
        <path
            d="M91.0057 228.074L92.4572 238.302L89.8957 238.672C89.8957 238.402 89.7533 238.131 89.4403 237.975C75.1381 230.578 57.3066 235.798 43.6591 242.299C42.2929 242.954 40.9125 243.636 39.589 244.39C39.219 244.604 39.1051 244.959 39.162 245.272L36.5293 245.699C36.2305 243.907 35.9458 242.129 35.6612 240.336C35.3197 238.202 34.9639 236.069 34.6366 233.949C44.6552 227.761 55.912 223.053 67.7949 222.598C71.7938 222.441 75.565 222.712 79.3789 223.579C80.9159 223.921 82.4244 224.347 83.9186 224.86C84.4594 225.059 85.0144 225.272 85.5552 225.485C85.6406 225.514 85.6975 225.542 85.7402 225.557C85.7402 225.557 85.7402 225.557 85.7544 225.557C85.7544 225.557 85.7544 225.557 85.7687 225.571C85.7971 225.571 85.854 225.599 85.9252 225.628C86.1671 225.742 86.409 225.855 86.6652 225.969C87.7325 226.467 88.8426 227.008 89.8103 227.705C90.1803 227.975 90.593 228.074 91.0057 228.074Z"
            fill="white"
        />
        <path
            d="M91.888 247.335C92.2011 247.506 92.3434 247.762 92.3434 248.032C92.3434 248.615 91.703 249.212 90.9914 248.857C86.5798 246.581 81.6843 245.628 76.7462 245.585C68.791 245.514 60.8786 247.577 53.4927 250.407C49.8922 251.787 46.2918 253.352 42.9333 255.287C42.3071 255.642 41.7378 255.173 41.624 254.632C41.5671 254.319 41.6667 253.964 42.0367 253.75C43.3602 252.982 44.7406 252.314 46.121 251.659C59.7543 245.144 77.6 239.938 91.888 247.335Z"
            fill="#626262"
        />
        <path
            d="M91.6888 225.329L92.0445 227.861C91.7172 228.003 91.3614 228.089 91.0057 228.074L90.6357 225.471L91.6888 225.329Z"
            fill="#626262"
        />
        <path
            d="M85.7402 225.557C85.6975 225.542 85.6406 225.514 85.5552 225.485C85.0144 225.272 84.4594 225.059 83.9186 224.86C82.4244 224.347 80.9159 223.921 79.3789 223.579C75.565 222.712 71.7938 222.441 67.7949 222.598C55.912 223.053 44.6552 227.761 34.6366 233.949C34.5227 233.266 34.4089 232.598 34.3093 231.915C34.0816 230.493 32.3027 229.682 31.0219 230.052C30.78 230.123 30.5665 230.208 30.3815 230.322C37.4259 225.813 45.011 222.029 53.0515 219.696C62.3444 217.007 72.3346 216.31 81.7697 218.657C84.8436 219.426 88.1595 220.492 90.9914 222.143C90.408 222.584 89.8387 223.039 89.2695 223.508C89.9953 223.423 90.7068 223.337 91.4184 223.238L91.6888 225.329L90.6357 225.471L91.0057 228.074C90.593 228.074 90.1803 227.975 89.8103 227.704C88.8425 227.007 87.7325 226.467 86.6652 225.969C86.409 225.855 86.1671 225.741 85.9252 225.628C85.854 225.599 85.7971 225.571 85.7686 225.571C85.7544 225.557 85.7544 225.557 85.7402 225.557Z"
            fill="#8F99EC"
        />
        <path
            d="M89.4403 237.975C89.7533 238.131 89.8956 238.402 89.8956 238.672C89.8956 239.255 89.241 239.881 88.5437 239.511C84.1321 237.221 79.2366 236.268 74.2985 236.225C66.3291 236.154 58.4309 238.217 51.045 241.047C47.4303 242.427 43.8441 244.006 40.4855 245.927C39.8594 246.282 39.2759 245.813 39.1621 245.272C39.1051 244.959 39.219 244.604 39.589 244.39C40.9125 243.636 42.2929 242.954 43.6591 242.299C57.3066 235.798 75.1381 230.578 89.4403 237.975Z"
            fill="#626262"
        />
        <path
            d="M69.8868 2.56776C71.6372 1.37287 74.7396 2.80958 74.0565 5.45541C73.9142 6.01018 73.7719 6.55072 73.6296 7.10549C73.1457 7.17661 72.6619 7.24774 72.1922 7.31886C70.7549 7.54646 69.3318 6.97747 68.9049 5.45541C68.6345 4.48812 69.033 3.20788 69.8868 2.56776Z"
            fill="#3D3232"
        />
        <path
            d="M73.6296 7.10548C72.9892 9.53793 72.3488 11.9846 71.7226 14.4171C71.253 16.2094 70.7834 17.9875 70.328 19.7798C69.4457 23.1511 68.5633 26.5082 67.681 29.8795C66.7702 33.3788 65.8594 36.8639 64.9487 40.3632C63.8813 44.4315 62.8282 48.4998 61.7609 52.5681C61.704 52.7957 61.6328 53.0376 61.5759 53.2651C60.5655 57.1343 59.5551 61.0177 58.5447 64.8869C57.6197 68.3862 56.7089 71.8997 55.7981 75.399C55.1293 75.143 54.4604 74.9012 53.7773 74.6736C53.6208 74.6309 53.4784 74.5455 53.3219 74.4886L50.7034 73.8058C51.2584 71.6721 51.8134 69.5384 52.3684 67.4047C55.7554 54.4458 59.1282 41.5012 62.5151 28.5423C64.6498 20.3773 66.7702 12.2122 68.9049 4.03291C69.0757 3.35012 69.4457 2.86647 69.8868 2.56775C69.033 3.20787 68.6345 4.4881 68.9049 5.4554C69.3318 6.97746 70.7549 7.54645 72.1922 7.31885C72.6619 7.24773 73.1457 7.1766 73.6296 7.10548Z"
            fill="#3D3232"
        />
        <path
            d="M64.4363 136.85L64.849 140.179L56.6377 170.407L45.6372 172.043L40.9552 184.034L25.1872 162.242L20.6048 178.657L8.63651 180.279L8.43727 180.307C7.2134 170.407 6.00377 160.52 4.7799 150.62C4.50951 148.5 4.26758 146.395 3.99719 144.276C14.272 143.024 24.561 141.744 34.8358 140.492C44.6979 139.283 54.5742 138.074 64.4363 136.85Z"
            fill="#626262"
        />
        <path
            d="M55.7981 75.399C55.5989 76.1956 55.3854 76.978 55.1862 77.7746C54.56 76.6793 53.9338 75.584 53.3219 74.4886C53.4784 74.5455 53.6208 74.6309 53.7773 74.6736C54.4604 74.9012 55.1292 75.143 55.7981 75.399Z"
            fill="#3D3232"
        />
        <path
            d="M44.9114 297.819C45.0252 298.516 45.1391 299.227 45.2529 299.924C44.3991 299.27 43.5452 298.63 42.6913 297.975C42.8337 297.961 42.976 297.975 43.1183 297.961C43.716 297.89 44.3137 297.847 44.9114 297.819Z"
            fill="#F1B356"
        />
        <path
            d="M43.3317 287.975C43.8583 291.261 44.3848 294.533 44.9114 297.819C44.3137 297.847 43.716 297.89 43.1183 297.961C42.9759 297.975 42.8336 297.961 42.6913 297.975L39.6459 298.473C39.347 296.624 39.0482 294.775 38.7493 292.926C36.7855 280.721 34.8216 268.501 32.8577 256.297C31.6196 248.644 30.3957 240.991 29.1576 233.323C29.1007 232.954 29.1007 232.569 29.1576 232.214C28.9442 234.163 30.9507 236.282 33.0712 234.917C33.5835 234.589 34.11 234.262 34.6366 233.949C34.9639 236.069 35.3197 238.203 35.6612 240.336C35.9458 242.129 36.2304 243.907 36.5293 245.699C37.0274 248.857 37.5397 252.029 38.052 255.201C38.5786 258.43 39.0909 261.674 39.6174 264.917C40.2294 268.729 40.8413 272.541 41.4532 276.368C41.4817 276.567 41.5244 276.766 41.5528 276.965C42.1505 280.635 42.734 284.305 43.3317 287.975Z"
            fill="#8F99EC"
        />
        <path
            d="M34.3093 231.915C34.4089 232.598 34.5227 233.266 34.6366 233.949C34.11 234.262 33.5835 234.589 33.0712 234.917C30.9507 236.282 28.9442 234.163 29.1576 232.214C29.1576 232.214 29.1576 232.214 29.1576 232.2C29.1719 232.072 29.2003 231.944 29.243 231.816C29.2715 231.702 29.3142 231.602 29.3569 231.503C29.3711 231.446 29.3996 231.375 29.4423 231.318C29.5419 231.133 29.67 230.948 29.8265 230.777C29.8976 230.706 29.983 230.621 30.0684 230.549C30.0684 230.521 30.0827 230.521 30.0969 230.535C30.1538 230.478 30.225 230.436 30.2961 230.379C30.3246 230.35 30.353 230.336 30.3815 230.322C30.5665 230.208 30.78 230.123 31.0219 230.052C32.3027 229.682 34.0816 230.493 34.3093 231.915Z"
            fill="#8F99EC"
        />
        <path
            d="M30.2959 230.379C30.2248 230.436 30.1537 230.478 30.0969 230.535C30.1537 230.464 30.2248 230.407 30.2959 230.379Z"
            fill="#F1B356"
        />
        <path
            d="M30.0687 230.55C29.9832 230.621 29.8977 230.706 29.8265 230.777C29.8835 230.692 29.969 230.607 30.0687 230.55Z"
            fill="#F1B356"
        />
        <path
            d="M29.8265 230.777C29.67 230.948 29.5419 231.133 29.4423 231.318C29.5419 231.119 29.67 230.934 29.8265 230.777Z"
            fill="#F1B356"
        />
        <path
            d="M29.3574 231.503C29.3145 231.603 29.2716 231.703 29.243 231.817C29.2716 231.703 29.3002 231.603 29.3574 231.503Z"
            fill="#F1B356"
        />
        <path
            d="M11.5965 206.083L11.7816 207.619C11.1269 207.704 10.4723 207.776 9.81767 207.861C8.77881 207.989 8.15264 206.95 8.03879 206.083C7.72571 203.465 7.3984 200.834 7.07109 198.216C5.67645 186.879 4.2818 175.542 2.88716 164.191C2.10446 157.704 1.29329 151.203 0.496353 144.703L2.0333 144.518C2.68793 144.432 3.34256 144.361 3.99718 144.276C4.26757 146.395 4.5095 148.501 4.77989 150.62C6.00376 160.521 7.2134 170.407 8.43726 180.307C8.60804 181.744 8.79304 183.195 8.96381 184.632C9.76075 191.132 10.5719 197.619 11.3546 204.12C10.8423 204.177 10.33 204.248 9.81767 204.305C10.4154 204.902 11.0131 205.485 11.5965 206.083Z"
            fill="#626262"
        />
        <path
            d="M11.3546 204.12C11.44 204.774 11.5112 205.428 11.5965 206.083C11.0131 205.485 10.4154 204.902 9.81767 204.305C10.33 204.248 10.8423 204.177 11.3546 204.12Z"
            fill="#626262"
        />
        <path
            d="M3.81219 142.74C3.86911 143.252 3.94027 143.764 3.99719 144.276C3.34256 144.361 2.68794 144.432 2.03331 144.518C2.63101 143.92 3.21448 143.337 3.81219 142.74Z"
            fill="#626262"
        />
        <path
            d="M263.475 205.29L319.83 230.98"
            stroke="#686868"
            strokeWidth="5"
            strokeMiterlimit="10"
        />
        <path
            opacity="0.4"
            d="M262.109 189.642C294.789 189.642 321.281 163.161 321.281 130.495C321.281 97.8293 294.789 71.3483 262.109 71.3483C229.429 71.3483 202.936 97.8293 202.936 130.495C202.936 163.161 229.429 189.642 262.109 189.642Z"
            fill="#D8E7EC"
        />
        <line
            x1="1"
            y1="-50"
            x2="98"
            y2="48"
            stroke="#7d7d7d"
            strokeOpacity="0.5"
            strokeWidth="2"
            strokeDasharray="4 4"
            stroke-dasharray="5 5"
        />
        <line
            x1="30"
            y1="168"
            x2="-70"
            y2="144"
            stroke="#7d7d7d"
            strokeOpacity="0.5"
            strokeWidth="2"
            strokeDasharray="4 4"
            stroke-dasharray="5 5"
        />
        <line
            x1="300"
            y1="47"
            x2="400"
            y2="-10"
            stroke="#7d7d7d"
            strokeOpacity="0.5"
            strokeWidth="2"
            strokeDasharray="4 4"
            stroke-dasharray="5 5"
        />
        <line
            x1="304"
            y1="236"
            x2="427"
            y2="174"
            stroke="#7d7d7d"
            strokeOpacity="0.5"
            strokeWidth="2"
            strokeDasharray="4 4"
            stroke-dasharray="5 5"
        />
        <line
            x1="150"
            y1="58"
            x2="211"
            y2="-40"
            stroke="#7d7d7d"
            strokeOpacity="0.5"
            strokeWidth="2"
            strokeDasharray="4 4"
            stroke-dasharray="5 5"
        />
        <line
            x1="300"
            y1="256"
            x2="428"
            y2="305"
            stroke="#7d7d7d"
            strokeOpacity="0.5"
            strokeWidth="2"
            strokeDasharray="4 4"
            stroke-dasharray="5 5"
        />
        <line
            x1="257"
            y1="259"
            x2="290"
            y2="400"
            stroke="#7d7d7d"
            strokeOpacity="0.5"
            strokeWidth="2"
            strokeDasharray="4 4"
            stroke-dasharray="5 5"
        />
        <line
            x1="81.495"
            y1="261.313"
            x2="-10.3612"
            y2="358.932"
            stroke="#7d7d7d"
            strokeOpacity="0.5"
            strokeWidth="2"
            strokeDasharray="4 4"
            stroke-dasharray="5 5"
        />
        <text x="0" y="-65" dominant-baseline="middle" text-anchor="middle" font-size="25"  fill="#4db193" font-family="Alatsi, Arial, sans-serif" font-weight="bolder">
            OBESITY
        </text>
        <text x="210" y="-60" dominant-baseline="middle" text-anchor="middle" font-size="25"  fill="#4db193" font-family="Alatsi" font-weight="bolder">
            HEART DISEASE
        </text>
        <text x="420" y="-25" dominant-baseline="middle" text-anchor="middle" font-size="25"  fill="#4db193" font-family="Alatsi" font-weight="bolder">
            CANCER
        </text>
        <text x="450" y="160" dominant-baseline="middle" text-anchor="middle" font-size="25"  fill="#4db193" font-family="Alatsi" font-weight="bolder">
            DIABETES
        </text>
        <text x="445" y="325" dominant-baseline="middle" text-anchor="middle" font-size="25"  fill="#4db193" font-family="Alatsi" font-weight="bolder">
            CHRONIC
        </text>
        <text x="446" y="350" dominant-baseline="middle" text-anchor="middle" font-size="25"  fill="#4db193" font-family="Alatsi" font-weight="bolder">
            DISEASES
        </text>
        <text x="290" y="420" dominant-baseline="middle" text-anchor="middle" font-size="25"  fill="#4db193" font-family="Alatsi" font-weight="bolder">
            STROKE
        </text>
        <text x="-80" y="130" dominant-baseline="middle" text-anchor="middle" font-size="25"  fill="#4db193" font-family="Alatsi" font-weight="bolder">
            ASTHMA
        </text>
        <text x="0" y="370" dominant-baseline="middle" text-anchor="middle" font-size="25"  fill="#4db193" font-family="Alatsi" font-weight="bolder">
            HIGH BLOOD
        </text>
        <text x="0" y="400" dominant-baseline="middle" text-anchor="middle" font-size="25"  fill="#4db193" font-family="Alatsi" font-weight="bolder">
            PRESSURE
        </text>
    </svg>
    