<svg width="58" height="61" viewBox="0 0 58 61" fill="none" xmlns="http://www.w3.org/2000/svg">
<g id="Frame" clip-path="url(#clip0_221_697)">
<g id="Group">
<g id="XMLID_1_">
<g id="Group_2">
<path id="Vector" d="M37.7109 40.8896C37.3832 40.3762 37.0627 39.8628 36.7279 39.3494C36.8063 39.3002 36.8846 39.258 36.9701 39.2087C37.2336 39.3353 37.6325 39.2158 37.6325 38.836V38.8289C39.6982 37.6403 41.7639 36.4588 43.8438 35.3053C47.5763 33.2376 52.4342 34.377 54.7136 38.0061C55.5256 39.3002 56.2807 40.6505 56.5015 42.1767C56.8078 44.2726 56.2379 46.4458 54.9558 48.1338C54.3076 48.9848 53.4884 49.674 52.5624 50.2226C50.3685 51.4745 48.1746 52.7264 45.9807 53.9712C43.2241 49.6177 40.4675 45.2502 37.7109 40.8896Z" fill="white"/>
<path id="Vector_2" d="M25.3311 55.7787C21.2354 55.7787 17.1396 55.7787 13.0439 55.7787C10.7787 55.7787 8.51362 55.7787 6.24849 55.7787C5.41509 55.7787 4.62443 55.7577 3.85514 55.3638C2.52313 54.6816 1.85357 53.3664 1.83932 51.9176C1.82507 50.743 1.82507 49.5685 1.82507 48.394C8.42102 48.394 15.017 48.394 21.6129 48.394C22.4677 48.394 23.3367 48.394 24.1986 48.394C23.8282 49.6388 23.7356 50.9681 23.9635 52.3044C24.1701 53.5352 24.6901 54.6956 25.3311 55.7787Z" fill="white"/>
<path id="Vector_3" d="M36.7493 28.8208C36.7493 30.2907 36.7422 31.7606 36.7422 33.2376C36.7422 34.9326 36.7422 36.6346 36.7422 38.3366C35.859 38.843 34.9686 39.3494 34.0853 39.8558C32.1906 40.9389 30.2816 42.0079 28.394 43.098C26.6061 44.1319 25.2527 45.7003 24.512 47.5148C24.5048 47.5148 24.4977 47.5148 24.4906 47.5148C17.7379 47.5148 10.9924 47.5148 4.23976 47.5148C3.43485 47.5148 2.62995 47.5148 1.82504 47.5148C1.82504 44.4836 1.83929 41.4453 1.83929 38.414C1.83929 35.7484 1.83929 33.0758 1.83929 30.4033C1.83929 29.918 1.8108 29.3764 1.78943 28.8208C5.69998 28.8208 9.60341 28.8208 13.5211 28.8208C19.9247 28.8208 26.3355 28.8208 32.7462 28.8208C34.0782 28.8208 35.4173 28.8208 36.7493 28.8208ZM24.69 39.7362C26.4067 39.7362 26.4138 37.0988 24.69 37.0988C23.3224 37.0988 21.9619 37.0988 20.5943 37.0988C20.5943 36.1001 20.5943 35.0943 20.5943 34.0886C20.5943 33.6526 20.5943 33.2095 20.5943 32.7664C20.5943 31.0714 17.9231 31.0714 17.9231 32.7664C17.9231 34.2082 17.9231 35.657 17.9231 37.0988C17.0256 37.0988 16.1281 37.0988 15.2306 37.0988C14.7819 37.0988 14.3402 37.0988 13.8915 37.0988C12.1748 37.0988 12.1677 39.7362 13.8915 39.7362C15.2377 39.7362 16.584 39.7362 17.9231 39.7362C17.9231 40.5309 17.9231 41.3187 17.9231 42.1134C17.9231 42.5495 17.9231 42.9925 17.9231 43.4286C17.9231 45.1306 20.5943 45.1306 20.5943 43.4286C20.5943 42.1978 20.5943 40.967 20.5943 39.7362C21.5131 39.7362 22.432 39.7362 23.3509 39.7362C23.7996 39.7362 24.2484 39.7362 24.69 39.7362Z" fill="white"/>
<path id="Vector_4" d="M36.7422 27.379C36.7422 27.5689 36.7422 27.7518 36.7422 27.9417C32.8459 27.9417 28.9567 27.9417 25.0676 27.9417C18.6568 27.9417 12.2461 27.9417 5.83532 27.9417C4.48194 27.9417 3.14281 27.9417 1.78943 27.9417C1.8108 27.1047 1.91764 26.2889 2.2738 25.6278C2.67981 24.8823 3.28527 24.2071 3.79101 23.5319C4.66002 22.3574 5.52903 21.1899 6.39804 20.0153C6.91802 19.3191 7.45938 18.6298 7.96511 17.9195C8.86974 16.6324 8.84125 15.2609 8.84125 13.7699C8.84125 13.4605 8.84125 13.158 8.84125 12.8486C9.11905 12.9119 9.41109 12.9471 9.69601 12.9541C14.2833 13.0596 18.8776 12.9541 23.4649 12.9541C25.2385 12.9541 27.0121 12.9892 28.7858 12.9541C28.971 12.9471 29.1491 12.94 29.3271 12.9119C29.32 13.6996 29.2773 14.5014 29.3699 15.282C29.491 16.2737 29.9468 17.0755 30.5452 17.8491C31.8772 19.5652 33.2021 21.2883 34.5341 23.0044C35.5883 24.3688 36.7351 25.5504 36.7422 27.379Z" fill="white"/>
<path id="Vector_5" d="M31.9341 4.93633C31.9483 6.05459 31.9341 7.17989 31.9341 8.30519C31.9341 9.67665 31.7631 10.9567 30.3813 11.7022C30.1604 11.8218 29.9183 11.9062 29.6618 11.9694C28.5079 12.2578 27.0548 12.0749 25.9721 12.0749C21.1356 12.0749 16.299 12.0749 11.4624 12.0749C10.8784 12.0749 10.2943 12.096 9.71018 12.0749C9.30417 12.0609 8.92664 11.9905 8.57761 11.864C7.42368 11.456 6.63302 10.4644 6.59028 9.12104C6.54755 7.89024 6.59028 6.65241 6.59028 5.42161C6.59028 4.866 6.56892 4.31038 6.78261 3.7829C7.25273 2.6154 8.40666 1.96132 9.63895 1.91912C13.464 1.91912 17.2891 1.91912 21.1071 1.91912C23.2938 1.91912 25.4735 1.91912 27.6603 1.91912C28.0592 1.91912 28.4652 1.90505 28.8712 1.91912C30.6092 1.98242 31.9127 3.20618 31.9341 4.93633Z" fill="white"/>
<path id="Vector_6" d="M53.0113 50.9822C52.5198 51.2705 52.071 50.5109 52.5625 50.2226C53.0611 49.9342 53.5099 50.7008 53.0113 50.9822Z" fill="#030000"/>
<path id="Vector_7" d="M52.6266 51.2002C50.4399 52.4451 48.2602 53.6899 46.0734 54.9348L46.0663 54.9207C46.2515 54.8082 46.3655 54.5831 46.2159 54.344C46.1375 54.2174 46.0592 54.0978 45.9808 53.9712C48.1747 52.7264 50.3686 51.4745 52.5625 50.2226C52.071 50.511 52.5198 51.2705 53.0113 50.9822C52.8831 51.0525 52.7549 51.1299 52.6266 51.2002Z" fill="#030000"/>
<path id="Vector_8" d="M46.0663 54.9207C45.874 55.0403 45.5962 55.0262 45.4466 54.7871C45.3683 54.6605 45.2899 54.5409 45.2115 54.4143C45.468 54.2666 45.7244 54.1189 45.9808 53.9712C46.0592 54.0978 46.1375 54.2174 46.2159 54.344C46.3655 54.5831 46.2515 54.8082 46.0663 54.9207Z" fill="#030000"/>
<path id="Vector_9" d="M54.7136 38.0061C52.4343 34.377 47.5763 33.2376 43.8439 35.3053C41.7639 36.4588 39.6983 37.6403 37.6326 38.8289C37.6326 38.4984 37.6326 38.1608 37.6326 37.8302C39.0287 37.0355 40.4248 36.2407 41.8138 35.446C44.0718 34.166 46.2657 33.104 48.9796 33.4416C52.8332 33.9339 55.661 36.8526 56.9503 40.3481C58.4247 44.3359 56.6654 48.83 53.0112 50.9822C53.5098 50.7008 53.0611 49.9342 52.5625 50.2226C53.4885 49.674 54.3076 48.9848 54.9558 48.1338C56.238 46.4458 56.8078 44.2726 56.5015 42.1767C56.2807 40.6505 55.5257 39.3002 54.7136 38.0061Z" fill="#030000"/>
<path id="Vector_10" d="M44.2356 52.8811C41.479 48.5135 38.7224 44.16 35.9586 39.7925C36.215 39.6448 36.4715 39.4971 36.7279 39.3494C37.0627 39.8628 37.3832 40.3762 37.7109 40.8896C40.4675 45.2502 43.2241 49.6177 45.9807 53.9712C45.7243 54.1189 45.4679 54.2666 45.2115 54.4143C44.8838 53.9009 44.5633 53.3875 44.2356 52.8811Z" fill="#030000"/>
<path id="Vector_11" d="M37.6326 28.3777C37.6326 31.5286 37.6326 34.6794 37.6326 37.8302C37.3405 37.999 37.0414 38.1678 36.7422 38.3366C36.7422 36.6346 36.7422 34.9326 36.7422 33.2376C36.7422 31.7606 36.7493 30.2907 36.7493 28.8208C36.8989 28.8208 37.0414 28.8208 37.1909 28.8208C37.4759 28.8208 37.6183 28.6028 37.6183 28.3777H37.6326Z" fill="#030000"/>
<path id="Vector_12" d="M37.6325 38.836C37.6325 39.2158 37.2336 39.3353 36.9701 39.2087C37.1909 39.0821 37.4117 38.9555 37.6325 38.8289V38.836Z" fill="#030000"/>
<path id="Vector_13" d="M37.1909 27.9417C37.4759 27.9417 37.6183 28.1597 37.6183 28.3777C37.6183 28.6028 37.4759 28.8208 37.1909 28.8208C37.0414 28.8208 36.8989 28.8208 36.7493 28.8208C36.7493 28.5254 36.7493 28.2371 36.7422 27.9417C36.8918 27.9417 37.0414 27.9417 37.1909 27.9417Z" fill="#030000"/>
<path id="Vector_14" d="M36.9701 39.2087C36.8419 39.1454 36.7422 39.0188 36.7422 38.836C36.7422 38.6672 36.7422 38.5054 36.7422 38.3366C37.0414 38.1678 37.3405 37.999 37.6326 37.8302C37.6326 38.1608 37.6326 38.4984 37.6326 38.8289C37.4118 38.9555 37.1909 39.0821 36.9701 39.2087Z" fill="#030000"/>
<path id="Vector_15" d="M35.7307 39.4267C35.4315 38.9415 36.2008 38.5054 36.5 38.9837C36.5783 39.1032 36.6567 39.2298 36.7279 39.3494C36.4715 39.4971 36.2151 39.6448 35.9586 39.7925C35.8874 39.6729 35.8091 39.5463 35.7307 39.4267Z" fill="#030000"/>
<path id="Vector_16" d="M30.2247 12.518C30.2247 12.5813 30.2247 12.6446 30.2247 12.7079C29.9397 12.8064 29.6406 12.8767 29.3271 12.9119C29.3343 12.7783 29.3343 12.6517 29.3343 12.518C29.3343 12.2719 29.5052 12.1312 29.6975 12.096C29.9397 12.0609 30.2247 12.1945 30.2247 12.518Z" fill="#030000"/>
<path id="Vector_17" d="M29.3698 15.282C29.2772 14.5014 29.3199 13.6996 29.3271 12.9119C29.6405 12.8767 29.9396 12.8064 30.2246 12.7079C30.2103 13.8332 30.075 15.0992 30.5095 16.1471C30.83 16.9067 31.4497 17.5748 31.9483 18.2289C33.316 19.9942 34.6836 21.7666 36.0512 23.5319C36.5213 24.1367 37.0128 24.7135 37.3049 25.4238C37.604 26.1834 37.6325 26.943 37.6325 27.7377C37.6325 27.9487 37.6325 28.1667 37.6325 28.3777H37.6183C37.6183 28.1597 37.4758 27.9417 37.1909 27.9417C37.0413 27.9417 36.8917 27.9417 36.7422 27.9417C36.7422 27.7518 36.7422 27.5689 36.7422 27.379C36.735 25.5504 35.5882 24.3688 34.534 23.0044C33.202 21.2883 31.8771 19.5652 30.5451 17.8491C29.9468 17.0755 29.4909 16.2737 29.3698 15.282Z" fill="#030000"/>
<path id="Vector_18" d="M36.3433 59.3586C37.9602 58.7467 39.4774 57.6777 40.9733 56.8267C42.3836 56.0249 43.8011 55.2161 45.2115 54.4143C45.2898 54.5409 45.3682 54.6605 45.4465 54.7871C45.5961 55.0262 45.8739 55.0403 46.0662 54.9207L46.0734 54.9348C43.68 56.2992 41.2867 57.6636 38.9004 59.021C38.2523 59.3938 37.6112 59.7876 36.9202 60.076C34.9828 60.8778 32.7889 60.9833 30.7873 60.3643C28.8142 59.7595 27.0904 58.4865 25.9579 56.7845C25.9294 56.7423 25.9009 56.7001 25.8795 56.6579C25.965 56.6579 26.0433 56.6579 26.1217 56.6579C26.5562 56.6579 26.6631 56.1656 26.4494 55.9124L26.4707 55.8983C27.3754 57.326 28.5435 58.4865 30.1462 59.1968C32.0908 60.0549 34.3559 60.1182 36.3433 59.3586Z" fill="#030000"/>
<path id="Vector_19" d="M26.4494 55.9124C26.6631 56.1656 26.5562 56.6579 26.1217 56.6579C26.0434 56.6579 25.965 56.6579 25.8795 56.6579C25.6872 56.3695 25.502 56.0812 25.3311 55.7787C25.5946 55.7787 25.8582 55.7787 26.1217 55.7787C26.2642 55.7787 26.371 55.835 26.4494 55.9124Z" fill="#030000"/>
<path id="Vector_20" d="M24.5119 47.5148C25.0604 47.5359 25.0533 48.394 24.4905 48.394C24.3908 48.394 24.2982 48.394 24.1985 48.394C24.284 48.0986 24.3837 47.8032 24.5119 47.5148Z" fill="#030000"/>
<path id="Vector_21" d="M24.69 37.0988C26.4138 37.0988 26.4066 39.7362 24.69 39.7362C24.2484 39.7362 23.7996 39.7362 23.3509 39.7362C22.432 39.7362 21.5131 39.7362 20.5942 39.7362C20.5942 38.8571 20.5942 37.9779 20.5942 37.0988C21.9619 37.0988 23.3224 37.0988 24.69 37.0988Z" fill="#D54240"/>
<path id="Vector_22" d="M36.7422 38.836C36.7422 39.0188 36.8419 39.1454 36.9701 39.2087C36.8846 39.2579 36.8063 39.3001 36.7279 39.3494C36.6567 39.2298 36.5783 39.1032 36.5 38.9837C36.2008 38.5054 35.4315 38.9415 35.7307 39.4267C35.809 39.5463 35.8874 39.6729 35.9586 39.7925C34.6337 40.552 33.316 41.3116 31.9911 42.0642C30.4667 42.9363 28.6646 43.731 27.354 44.9196C25.8083 46.3122 24.8609 48.2744 24.7398 50.3351C24.6258 52.2411 25.2669 53.8728 26.2143 55.4904C26.2926 55.6311 26.3781 55.7647 26.4707 55.8983L26.4493 55.9124C26.371 55.835 26.2641 55.7787 26.1217 55.7787C25.8581 55.7787 25.5946 55.7787 25.331 55.7787C24.69 54.6956 24.17 53.5352 23.9634 52.3044C23.7355 50.9681 23.8281 49.6388 24.1985 48.394C24.2982 48.394 24.3908 48.394 24.4905 48.394C25.0532 48.394 25.0604 47.5359 24.5119 47.5148C25.2527 45.7003 26.6061 44.1319 28.3939 43.098C30.2815 42.0079 32.1905 40.9389 34.0853 39.8558C34.9685 39.3494 35.8589 38.843 36.7422 38.3366C36.7422 38.5054 36.7422 38.6672 36.7422 38.836Z" fill="#030000"/>
<path id="Vector_23" d="M20.5942 39.7362C20.5942 40.967 20.5942 42.1978 20.5942 43.4286C20.5942 45.1306 17.9231 45.1306 17.9231 43.4286C17.9231 42.9925 17.9231 42.5495 17.9231 42.1134C17.9231 41.3187 17.9231 40.5309 17.9231 39.7362C18.8135 39.7362 19.7039 39.7362 20.5942 39.7362Z" fill="#D54240"/>
<path id="Vector_24" d="M19.2622 40.2848C20.3047 40.2848 21.1498 39.4503 21.1498 38.421C21.1498 37.3917 20.3047 36.5572 19.2622 36.5572C18.2197 36.5572 17.3746 37.3917 17.3746 38.421C17.3746 39.4503 18.2197 40.2848 19.2622 40.2848Z" fill="#D54240"/>
<path id="Vector_25" d="M20.5942 34.0886C20.5942 35.0943 20.5942 36.1001 20.5942 37.0988C19.7039 37.0988 18.8135 37.0988 17.9231 37.0988C17.9231 35.657 17.9231 34.2082 17.9231 32.7664C17.9231 31.0714 20.5942 31.0714 20.5942 32.7664C20.5942 33.2095 20.5942 33.6526 20.5942 34.0886Z" fill="#D54240"/>
<path id="Vector_26" d="M17.9231 37.0988C17.9231 37.9779 17.9231 38.8571 17.9231 39.7362C16.584 39.7362 15.2377 39.7362 13.8915 39.7362C12.1677 39.7362 12.1748 37.0988 13.8915 37.0988C14.3402 37.0988 14.7819 37.0988 15.2306 37.0988C16.1281 37.0988 17.0256 37.0988 17.9231 37.0988Z" fill="#D54240"/>
<path id="Vector_27" d="M31.9342 8.30519C31.9342 7.17989 31.9484 6.05459 31.9342 4.93633C31.9128 3.20618 30.6093 1.98242 28.8713 1.91912C28.4653 1.90505 28.0592 1.91912 27.6604 1.91912C25.4736 1.91912 23.2939 1.91912 21.1071 1.91912C17.2892 1.91912 13.4641 1.91912 9.63904 1.91912C10.2089 1.89802 10.216 1.03998 9.66041 1.03998C9.76725 1.03998 9.86698 1.03998 9.9667 1.03998C14.8531 0.969649 19.7466 1.03998 24.6331 1.03998C26.1218 1.03998 27.639 0.948549 29.1277 1.04701C30.9298 1.16658 32.5183 2.48177 32.7818 4.26818C32.9457 5.37942 32.8246 6.56801 32.8246 7.67924C32.8246 8.88191 32.9314 10.0916 32.2405 11.1536C31.749 11.9132 31.0367 12.4266 30.2246 12.7079C30.2246 12.6446 30.2246 12.5813 30.2246 12.518C30.2246 12.1945 29.9397 12.0609 29.6975 12.096L29.6619 11.9694C29.9184 11.9062 30.1605 11.8218 30.3814 11.7022C31.7632 10.9567 31.9342 9.67665 31.9342 8.30519Z" fill="#030000"/>
<path id="Vector_28" d="M9.66038 1.03998C10.216 1.03998 10.2089 1.89802 9.63901 1.91912C9.10478 1.91912 9.06916 1.15251 9.53216 1.04701C9.56778 1.03998 9.60339 1.03998 9.63901 1.03998C9.64613 1.03998 9.65325 1.03998 9.66038 1.03998Z" fill="#030000"/>
<path id="Vector_29" d="M9.69604 12.9541C9.41112 12.9471 9.11907 12.9119 8.84128 12.8486C8.84128 12.6657 8.84128 12.4758 8.84128 12.293C8.84128 12.082 8.71306 11.9484 8.56348 11.8991L8.57772 11.864C8.92675 11.9905 9.30427 12.0609 9.71029 12.0749C10.2944 12.096 10.8785 12.0749 11.4626 12.0749C16.2991 12.0749 21.1357 12.0749 25.9722 12.0749C27.0549 12.0749 28.508 12.2578 29.6619 11.9694L29.6976 12.096C29.5052 12.1312 29.3343 12.2719 29.3343 12.518C29.3343 12.6517 29.3343 12.7783 29.3272 12.9119C29.1491 12.94 28.971 12.9471 28.7858 12.9541C27.0122 12.9893 25.2385 12.9541 23.4649 12.9541C18.8776 12.9541 14.2833 13.0596 9.69604 12.9541Z" fill="#030000"/>
<path id="Vector_30" d="M8.84119 12.293C8.84119 12.4758 8.84119 12.6657 8.84119 12.8486C8.5349 12.7923 8.23573 12.6939 7.95081 12.5743C7.95081 12.4829 7.95081 12.3844 7.95081 12.293C7.95081 11.9413 8.29983 11.8077 8.56339 11.8991C8.71297 11.9483 8.84119 12.082 8.84119 12.293Z" fill="#030000"/>
<path id="Vector_31" d="M5.69996 7.42605C5.69996 6.34998 5.5575 5.16139 5.77119 4.09939C6.12734 2.29891 7.74427 1.14548 9.53216 1.04701C9.06916 1.15251 9.10478 1.91912 9.63901 1.91912C8.40672 1.96132 7.25278 2.6154 6.78266 3.7829C6.56897 4.31038 6.59034 4.866 6.59034 5.42161C6.59034 6.65241 6.5476 7.89024 6.59034 9.12103C6.63308 10.4644 7.42374 11.456 8.57767 11.8639L8.56343 11.8991C8.29987 11.8077 7.95084 11.9413 7.95084 12.293C7.95084 12.3844 7.95084 12.4829 7.95084 12.5743C7.20292 12.2437 6.56897 11.7022 6.15584 10.9637C5.5575 9.88061 5.69996 8.61465 5.69996 7.42605Z" fill="#030000"/>
<path id="Vector_32" d="M13.5211 28.8208C9.60338 28.8208 5.69995 28.8208 1.7894 28.8208C1.78228 28.5324 1.78228 28.2371 1.7894 27.9417C3.14278 27.9417 4.48191 27.9417 5.83529 27.9417C12.246 27.9417 18.6568 27.9417 25.0675 27.9417C28.9567 27.9417 32.8459 27.9417 36.7422 27.9417C36.7493 28.2371 36.7493 28.5254 36.7493 28.8208C35.4173 28.8208 34.0782 28.8208 32.7462 28.8208C26.3354 28.8208 19.9247 28.8208 13.5211 28.8208Z" fill="#030000"/>
<path id="Vector_33" d="M21.6129 48.394C15.017 48.394 8.42102 48.394 1.82507 48.394C1.82507 48.0986 1.82507 47.8102 1.82507 47.5148C2.62998 47.5148 3.43488 47.5148 4.23979 47.5148C10.9924 47.5148 17.738 47.5148 24.4906 47.5148C24.4977 47.5148 24.5049 47.5148 24.512 47.5148C24.3838 47.8032 24.284 48.0986 24.1986 48.394C23.3367 48.394 22.4677 48.394 21.6129 48.394Z" fill="#030000"/>
<path id="Vector_34" d="M1.82499 47.5148C1.82499 47.8102 1.82499 48.0986 1.82499 48.394C1.66828 48.394 1.5187 48.394 1.36199 48.394C1.12693 48.394 0.984468 48.2463 0.948853 48.0704C0.948853 47.9931 0.948853 47.9228 0.948853 47.8454C0.984468 47.6625 1.12693 47.5148 1.36199 47.5148C1.5187 47.5148 1.66828 47.5148 1.82499 47.5148Z" fill="#030000"/>
<path id="Vector_35" d="M10.508 56.6579C8.86968 56.6579 7.22426 56.6931 5.57883 56.6579C2.72961 56.5946 0.948853 54.351 0.948853 51.6714C0.948853 50.4687 0.948853 49.2731 0.948853 48.0704C0.984468 48.2463 1.12693 48.394 1.36199 48.394C1.5187 48.394 1.66828 48.394 1.82499 48.394C1.82499 49.5685 1.82499 50.743 1.83923 51.9176C1.85348 53.3664 2.52305 54.6816 3.85506 55.3638C4.62435 55.7577 5.415 55.7787 6.2484 55.7787C8.51353 55.7787 10.7787 55.7787 13.0438 55.7787C17.1395 55.7787 21.2353 55.7787 25.331 55.7787C25.502 56.0812 25.6872 56.3695 25.8795 56.6579C25.851 56.6579 25.8225 56.6579 25.794 56.6579C20.7011 56.7353 15.601 56.6579 10.508 56.6579Z" fill="#030000"/>
<path id="Vector_36" d="M1.78941 27.9417C1.78229 28.2371 1.78229 28.5324 1.78941 28.8208C1.66119 28.8208 1.52586 28.8208 1.39764 28.8208C1.11272 28.8208 0.970258 28.6028 0.963135 28.3847C0.963135 28.1667 1.1056 27.9417 1.39764 27.9417C1.52586 27.9417 1.66119 27.9417 1.78941 27.9417Z" fill="#030000"/>
<path id="Vector_37" d="M0.948896 29.4046C0.948896 29.0599 0.941772 28.7223 0.941772 28.3848H0.963142C0.970265 28.6028 1.11273 28.8208 1.39765 28.8208C1.52586 28.8208 1.6612 28.8208 1.78942 28.8208C1.81078 29.3764 1.83928 29.918 1.83928 30.4033C1.83928 33.0758 1.83928 35.7484 1.83928 38.414C1.83928 41.4453 1.82503 44.4836 1.82503 47.5148C1.66832 47.5148 1.51874 47.5148 1.36203 47.5148C1.12697 47.5148 0.984511 47.6625 0.948896 47.8454C0.948896 44.2093 0.948896 40.5802 0.948896 36.9441C0.948896 34.4332 0.948896 31.9224 0.948896 29.4046Z" fill="#030000"/>
<path id="Vector_38" d="M7.94373 15.3946C8.00071 14.4592 7.95798 13.5167 7.95085 12.5743C8.23577 12.6939 8.53494 12.7923 8.84123 12.8486C8.84123 13.158 8.84123 13.4605 8.84123 13.7699C8.84123 15.2609 8.86972 16.6324 7.9651 17.9195C7.45936 18.6298 6.91801 19.3191 6.39803 20.0153C5.52902 21.1899 4.66 22.3574 3.79099 23.5319C3.28526 24.2071 2.6798 24.8823 2.27378 25.6278C1.91763 26.2889 1.81078 27.1047 1.78942 27.9417C1.6612 27.9417 1.52586 27.9417 1.39765 27.9417C1.1056 27.9417 0.963142 28.1667 0.963142 28.3847H0.941772C0.941772 27.0625 1.02725 25.7966 1.87489 24.622C3.32087 22.6246 4.82383 20.6553 6.29831 18.679C7.06047 17.6592 7.86538 16.7309 7.94373 15.3946Z" fill="#030000"/>
<path id="Vector_39" d="M0.948888 47.8454C0.948888 47.9228 0.948888 47.9931 0.948888 48.0705C0.927519 47.9931 0.927519 47.9157 0.948888 47.8454Z" fill="#030000"/>
</g>
</g>
</g>
</g>
<defs>
<clipPath id="clip0_221_697">
<rect width="56.8918" height="60.1121" fill="white" transform="translate(0.756592 0.828987)"/>
</clipPath>
</defs>
</svg>
