<svg width="237" height="301" viewBox="0 0 237 301" fill="none" xmlns="http://www.w3.org/2000/svg">
<path d="M168.519 90.417C163.115 90.0257 158.073 93.5626 154.379 97.259C149.424 102.217 145.773 108.682 143.89 115.451C143.73 116.017 143.585 116.567 143.455 117.133C142.195 122.511 141.876 128.57 144.759 133.092C143.513 132.281 142.282 131.411 141.05 130.599C139.123 129.338 137.182 128.091 135.255 126.83C131.879 124.641 128.518 122.453 125.172 120.22C120.101 116.843 119.797 110.827 120.695 105.304C121.825 98.2302 125.07 91.3448 129.663 85.8509C133.372 81.4152 139.312 76.0953 145.585 77.5448C148.077 78.1102 150.409 79.8352 152.597 81.1253C154.35 82.1545 156.103 83.1982 157.87 84.2419C157.87 84.2419 157.87 84.2419 157.885 84.2564C158.001 84.3868 158.16 84.4738 158.319 84.5028C160.058 85.532 161.796 86.5612 163.535 87.5904C165.099 88.5181 166.881 89.3878 168.519 90.417Z" fill="white"/>
<path d="M236.596 197.207C236.596 198.512 236.842 200.077 236.596 201.353C236.451 202.121 235.9 202.295 235.248 202.686C233.727 203.585 232.192 204.498 230.67 205.397C218.052 212.877 205.447 220.357 192.829 227.837C184.498 232.78 176.168 237.708 167.838 242.651L167.664 242.347C167.664 241.897 167.664 241.434 167.664 240.984C168.634 240.332 169.808 239.81 170.793 239.216C173.053 237.868 175.313 236.534 177.573 235.186C183.846 231.475 190.12 227.764 196.378 224.039C208.2 217.037 220.022 210.036 231.829 203.02C232.829 202.44 233.988 201.44 235.104 201.077C235.104 201.092 235.104 201.121 235.104 201.135C235.017 201.208 235.002 201.309 235.147 201.396C235.118 201.382 235.104 201.28 235.104 201.135C235.162 201.077 235.248 201.034 235.321 200.99C235.567 200.918 235.466 200.933 235.321 200.99C235.292 201.005 235.248 201.019 235.205 201.034C235.176 201.048 235.133 201.048 235.104 201.077C235.104 200.744 235.147 200.251 235.147 200.179C235.147 194.859 235.147 189.539 235.147 184.219C235.147 170.332 235.147 156.445 235.147 142.558C235.147 141.239 235.176 139.92 235.133 138.601C234.915 131.991 232.655 125.656 229.149 120.09C225.817 114.828 221.239 109.696 215.908 106.333C216.038 106.246 216.168 106.174 216.299 106.101C216.052 106.101 215.806 106.101 215.56 106.101C215.676 106.174 215.792 106.246 215.908 106.333C212.474 108.319 209.069 110.305 205.636 112.291C205.563 111.784 205.462 111.291 205.346 110.798C208.751 108.798 212.155 106.826 215.56 104.84C215.777 104.71 216.081 104.71 216.299 104.84C216.733 105.116 217.153 105.42 217.574 105.71C224.484 110.682 230.236 117.582 233.582 125.424C235.596 130.15 236.581 135.064 236.596 140.195C236.61 141.674 236.596 143.153 236.596 144.631C236.596 159.301 236.596 173.97 236.596 188.64C236.596 191.496 236.596 194.351 236.596 197.207Z" fill="#193E69"/>
<path d="M235.205 201.034C235.248 201.019 235.292 201.005 235.321 200.99C235.248 201.034 235.162 201.077 235.104 201.135C235.104 201.121 235.104 201.092 235.104 201.077C235.133 201.048 235.176 201.048 235.205 201.034Z" fill="#193E69"/>
<path d="M235.133 138.601C235.176 139.92 235.147 141.239 235.147 142.558C235.147 156.445 235.147 170.332 235.147 184.219C235.147 189.539 235.147 194.859 235.147 200.179C235.147 200.251 235.104 200.744 235.104 201.077C233.988 201.44 232.829 202.44 231.829 203.02C220.022 210.036 208.2 217.037 196.378 224.039C190.12 227.764 183.846 231.475 177.573 235.186C175.313 236.534 173.053 237.868 170.793 239.216C169.808 239.81 168.634 240.332 167.664 240.984C167.664 228.17 167.664 215.385 167.664 202.571C167.664 195.7 167.664 188.814 167.664 181.943C167.664 178.653 167.461 175.464 166.78 172.231C164.839 162.968 159.971 154.72 152.669 148.994C152.568 148.835 152.423 148.719 152.249 148.661C150.902 147.632 149.467 146.69 147.961 145.849C154.393 142.109 160.826 138.369 167.244 134.629C173.068 131.237 178.892 127.845 184.701 124.468C186.28 123.554 187.845 122.641 189.424 121.728C190.757 124.815 192.278 127.845 194.509 130.179C197.247 133.049 201.724 134.078 204.129 130.237C205.94 127.381 205.925 123.279 205.969 120.017C205.998 117.466 206.027 114.842 205.636 112.291C209.069 110.305 212.474 108.319 215.908 106.333C221.239 109.696 225.817 114.828 229.149 120.09C232.655 125.656 234.915 131.991 235.133 138.601ZM229.149 192.293C229.627 192.032 230.004 191.336 229.989 190.742L229.975 190.249L227.048 191.829L226.194 191.046L224.832 194.337L223.253 192.003L222.557 194.265L219.602 195.859L219.616 196.366C219.616 196.961 220.022 197.251 220.5 196.99L222.572 195.859L222.63 198.483C222.63 199.092 223.035 199.367 223.513 199.106L226.31 197.57C226.788 197.323 227.164 196.613 227.15 196.018L227.092 193.409L229.149 192.293ZM229.946 189.133L229.902 187.249C229.888 186.654 229.497 186.379 229.019 186.625L226.976 187.727L226.918 185.147C226.904 184.567 226.512 184.291 226.034 184.538L223.267 186.016C222.789 186.277 222.412 186.973 222.427 187.567L222.47 190.148L220.399 191.264C219.921 191.525 219.544 192.221 219.558 192.815L219.587 194.656L222.065 193.308L222.572 191.771L223.166 189.93L224.788 192.496L226.092 189.321L226.962 190.249L227.28 190.583L229.946 189.133ZM228.613 136.702C229.41 136.238 228.686 134.991 227.874 135.455C213.039 144.008 198.204 152.56 183.354 161.113C181.297 162.301 179.239 163.49 177.168 164.664C176.371 165.143 177.095 166.389 177.906 165.925C192.742 157.373 207.577 148.82 222.427 140.268C224.484 139.079 226.541 137.891 228.613 136.702ZM227.295 143.573C228.106 143.109 227.382 141.862 226.57 142.326C218.486 146.979 210.402 151.647 202.318 156.3C201.174 156.967 200.015 157.634 198.856 158.301C198.044 158.764 198.769 160.011 199.58 159.547C207.664 154.894 215.748 150.241 223.832 145.573C224.991 144.907 226.15 144.24 227.295 143.573ZM227.295 148.603C228.106 148.139 227.382 146.892 226.57 147.356C223.253 149.27 219.921 151.183 216.603 153.097C216.125 153.372 215.647 153.647 215.169 153.923C214.372 154.387 215.096 155.633 215.907 155.17C219.225 153.256 222.557 151.343 225.875 149.429C226.353 149.154 226.831 148.878 227.295 148.603ZM210.141 158.489C210.953 158.025 210.214 156.779 209.417 157.242C203.115 160.866 196.827 164.49 190.54 168.114C189.641 168.636 188.743 169.158 187.83 169.665C187.034 170.144 187.758 171.39 188.569 170.926C194.857 167.302 201.145 163.679 207.447 160.055C208.345 159.533 209.243 159.011 210.141 158.489ZM205.621 172.796C206.433 172.332 205.694 171.086 204.882 171.535C196.407 176.319 187.932 181.088 179.457 185.871C178.254 186.538 177.066 187.22 175.864 187.886C175.052 188.35 175.777 189.597 176.603 189.133C185.078 184.364 193.553 179.595 202.028 174.811C203.231 174.144 204.419 173.463 205.621 172.796ZM195.494 172.796C196.306 172.332 195.581 171.071 194.77 171.535C189.25 174.724 183.745 177.899 178.24 181.073C177.443 181.523 176.661 181.972 175.864 182.436C175.052 182.9 175.791 184.146 176.603 183.683C182.108 180.508 187.628 177.333 193.133 174.159C193.915 173.71 194.712 173.246 195.494 172.796ZM193.234 163.215C194.031 162.751 193.307 161.49 192.495 161.954C187.642 164.751 182.803 167.549 177.95 170.347C177.254 170.738 176.559 171.144 175.864 171.535C175.052 172.014 175.791 173.26 176.603 172.796C181.441 169.999 186.295 167.201 191.148 164.418C191.844 164.012 192.539 163.606 193.234 163.215ZM193.234 191.452C194.031 190.988 193.307 189.727 192.495 190.191C187.642 192.989 182.803 195.787 177.95 198.584C177.254 198.976 176.559 199.382 175.864 199.773C175.052 200.237 175.791 201.498 176.603 201.034C181.441 198.236 186.295 195.439 191.148 192.641C191.844 192.25 192.539 191.844 193.234 191.452ZM191.554 198.425C192.365 197.946 191.626 196.7 190.815 197.164C186.454 199.686 182.093 202.194 177.733 204.701C177.11 205.064 176.487 205.426 175.864 205.789C175.052 206.252 175.791 207.499 176.603 207.035C180.963 204.528 185.324 202.005 189.685 199.497C190.308 199.135 190.931 198.773 191.554 198.425ZM191.554 204.73C192.365 204.267 191.626 203.02 190.815 203.484C186.454 205.992 182.093 208.514 177.733 211.022C177.11 211.384 176.487 211.746 175.864 212.094C175.052 212.558 175.791 213.819 176.603 213.355C180.963 210.833 185.324 208.325 189.685 205.818C190.308 205.455 190.931 205.093 191.554 204.73ZM191.25 186.915C192.061 186.451 191.336 185.19 190.525 185.669C186.338 188.075 182.151 190.481 177.964 192.902C177.356 193.25 176.762 193.583 176.168 193.931C175.357 194.395 176.081 195.656 176.892 195.192C181.079 192.771 185.266 190.365 189.453 187.944C190.062 187.611 190.656 187.263 191.25 186.915ZM185.266 144.109C186.077 143.66 185.353 142.399 184.542 142.848C180.63 145.008 176.733 147.168 172.821 149.328C172.256 149.632 171.706 149.937 171.155 150.241C170.329 150.69 171.068 151.951 171.88 151.502C175.791 149.342 179.688 147.182 183.6 145.022C184.151 144.718 184.716 144.414 185.266 144.109ZM184.484 149.908C185.295 149.458 184.571 148.212 183.759 148.661C180.587 150.4 177.428 152.154 174.256 153.894C173.806 154.14 173.357 154.401 172.908 154.648C172.097 155.097 172.821 156.344 173.633 155.894C176.805 154.155 179.964 152.401 183.136 150.661C183.586 150.4 184.035 150.154 184.484 149.908ZM184.078 173.507C184.875 173.043 184.151 171.796 183.339 172.26C181.166 173.521 178.979 174.768 176.805 176.029C176.487 176.203 176.182 176.391 175.864 176.565C175.052 177.029 175.791 178.29 176.603 177.826C178.776 176.565 180.963 175.304 183.136 174.057C183.455 173.869 183.759 173.695 184.078 173.507ZM183.455 139.34C184.281 138.891 183.542 137.644 182.731 138.094C178.254 140.558 173.777 143.037 169.301 145.501C168.663 145.863 168.026 146.211 167.388 146.559C166.563 147.008 167.302 148.27 168.113 147.82C172.589 145.341 177.066 142.877 181.543 140.398C182.18 140.05 182.818 139.703 183.455 139.34Z" fill="white"/>
<path d="M229.989 190.742C230.004 191.336 229.627 192.032 229.149 192.293L227.092 193.409L227.092 193.366L227.063 193.38V193.337L229.149 192.206C229.584 191.96 229.931 191.322 229.917 190.771L229.902 190.38L227.034 191.931V191.887L227.048 191.844L227.048 191.829L229.975 190.249L229.989 190.742Z" fill="#4AA086"/>
<path d="M229.902 187.249L229.946 189.133L227.28 190.583L226.962 190.249L227.019 190.177L227.309 190.481L229.873 189.09L229.83 187.278C229.815 186.741 229.453 186.48 229.019 186.712L226.947 187.828V187.785L226.976 187.77L226.976 187.727L229.019 186.625C229.497 186.379 229.888 186.654 229.902 187.249Z" fill="#4AA086"/>
<path d="M229.917 190.771C229.931 191.322 229.584 191.96 229.149 192.206L227.063 193.337V193.38L227.034 193.395L227.092 196.047C227.092 196.598 226.744 197.251 226.31 197.483L223.513 199.019C223.064 199.266 222.702 199.005 222.688 198.439L222.644 195.772L222.615 195.801V195.758L220.5 196.903C220.051 197.135 219.689 196.874 219.674 196.323V195.917L222.586 194.337V194.293H222.615L223.267 192.177L224.832 194.496L226.194 191.191L227.005 191.931L227.034 191.887V191.931L229.902 190.38L229.917 190.771Z" fill="#4AA086"/>
<path d="M229.83 187.278L229.873 189.09L227.309 190.481L227.019 190.177L226.092 189.177L224.803 192.337L223.151 189.742L222.499 191.771L222.021 193.25L219.645 194.525L219.616 192.786C219.616 192.235 219.964 191.597 220.399 191.351L222.514 190.22V190.177L222.543 190.162L222.485 187.524C222.485 186.973 222.833 186.335 223.267 186.103L226.034 184.625C226.469 184.393 226.831 184.639 226.846 185.19L226.904 187.814L226.947 187.785V187.828L229.019 186.712C229.453 186.48 229.815 186.741 229.83 187.278Z" fill="#4AA086"/>
<path d="M227.874 135.455C228.686 134.991 229.41 136.238 228.613 136.702C226.541 137.891 224.484 139.079 222.427 140.268C207.577 148.82 192.742 157.373 177.906 165.925C177.095 166.389 176.371 165.143 177.168 164.664C179.239 163.49 181.297 162.301 183.354 161.113C198.204 152.56 213.039 144.008 227.874 135.455Z" fill="#193E69"/>
<path d="M226.57 142.326C227.382 141.862 228.106 143.109 227.295 143.573C226.15 144.24 224.991 144.907 223.832 145.573C215.748 150.241 207.664 154.894 199.58 159.547C198.769 160.011 198.044 158.764 198.856 158.301C200.015 157.634 201.174 156.967 202.318 156.3C210.402 151.647 218.486 146.979 226.57 142.326Z" fill="#193E69"/>
<path d="M226.57 147.356C227.382 146.892 228.106 148.139 227.295 148.603C226.831 148.878 226.353 149.154 225.875 149.429C222.557 151.343 219.225 153.256 215.907 155.17C215.096 155.633 214.372 154.387 215.169 153.923C215.647 153.647 216.125 153.372 216.603 153.097C219.921 151.183 223.253 149.27 226.57 147.356Z" fill="#193E69"/>
<path d="M227.15 196.018C227.164 196.613 226.788 197.323 226.31 197.57L223.513 199.106C223.035 199.367 222.63 199.092 222.63 198.483L222.572 195.859L222.615 195.845L222.615 195.801L222.644 195.772L222.688 198.439C222.702 199.005 223.064 199.266 223.513 199.019L226.31 197.483C226.744 197.251 227.092 196.598 227.092 196.047L227.034 193.395L227.063 193.38L227.063 193.424L227.092 193.409L227.15 196.018Z" fill="#4AA086"/>
<path d="M227.092 193.366L227.093 193.41L227.063 193.425L227.063 193.38L227.092 193.366Z" fill="#4AA086"/>
<path d="M227.048 191.829L227.048 191.844L227.034 191.844L227.034 191.887L227.005 191.931L226.194 191.191L224.832 194.496L223.267 192.177L222.615 194.293H222.586L222.586 194.25L222.557 194.265L223.253 192.003L224.832 194.337L226.194 191.046L227.048 191.829Z" fill="#4AA086"/>
<path d="M227.048 191.844L227.034 191.887L227.034 191.844L227.048 191.844Z" fill="#4AA086"/>
<path d="M226.092 189.177L227.019 190.177L226.962 190.249L226.092 189.321L224.788 192.496L223.166 189.93L222.572 191.771H222.499L223.151 189.742L224.803 192.337L226.092 189.177Z" fill="#4AA086"/>
<path d="M226.976 187.727L226.977 187.771L226.947 187.786L226.932 187.757L226.976 187.727Z" fill="#4AA086"/>
<path d="M226.918 185.147L226.976 187.727L226.932 187.757L226.947 187.785L226.904 187.814L226.846 185.19C226.831 184.639 226.469 184.393 226.034 184.625L223.267 186.103C222.833 186.335 222.485 186.973 222.485 187.524L222.543 190.162L222.514 190.177L222.499 190.133L222.47 190.148L222.427 187.567C222.412 186.973 222.789 186.277 223.267 186.016L226.034 184.538C226.512 184.291 226.904 184.567 226.918 185.147Z" fill="#4AA086"/>
<path d="M222.615 195.801L222.616 195.846L222.572 195.86V195.816L222.615 195.801Z" fill="#4AA086"/>
<path d="M222.615 195.758V195.801L222.572 195.816L222.572 195.859L220.5 196.99C220.022 197.251 219.616 196.961 219.616 196.366L219.602 195.859L222.557 194.265L222.557 194.293H222.586V194.337L219.674 195.917V196.323C219.689 196.874 220.051 197.135 220.5 196.903L222.615 195.758Z" fill="#4AA086"/>
<path d="M222.586 194.25L222.586 194.293H222.557L222.557 194.265L222.586 194.25Z" fill="#4AA086"/>
<path d="M222.572 191.771L222.065 193.308L219.587 194.656L219.558 192.815C219.544 192.221 219.921 191.525 220.399 191.264L222.47 190.148L222.47 190.191L222.514 190.177V190.22L220.399 191.351C219.964 191.597 219.616 192.235 219.616 192.786L219.645 194.525L222.021 193.25L222.499 191.771H222.572Z" fill="#4AA086"/>
<path d="M222.499 190.133L222.515 190.178L222.47 190.192L222.47 190.148L222.499 190.133Z" fill="#4AA086"/>
<path d="M216.299 106.101C216.168 106.174 216.038 106.246 215.908 106.333C215.792 106.246 215.676 106.174 215.56 106.101C215.806 106.101 216.052 106.101 216.299 106.101Z" fill="#193E69"/>
<path d="M209.417 157.242C210.214 156.779 210.953 158.025 210.141 158.489C209.243 159.011 208.345 159.533 207.447 160.055C201.145 163.679 194.857 167.302 188.569 170.926C187.758 171.39 187.034 170.144 187.83 169.665C188.743 169.158 189.641 168.636 190.54 168.114C196.827 164.49 203.115 160.866 209.417 157.242Z" fill="#193E69"/>
<path d="M205.636 112.291C206.027 114.842 205.998 117.466 205.969 120.017C205.925 123.279 205.94 127.381 204.129 130.237C201.724 134.078 197.247 133.049 194.509 130.179C192.278 127.845 190.757 124.815 189.424 121.728C189.656 121.583 189.888 121.452 190.12 121.322C190.525 121.09 190.54 120.641 190.351 120.336L190.395 120.322C191.786 123.685 193.365 127.033 195.813 129.44C197.204 130.817 199.247 131.991 201.217 131.049C203.463 129.976 203.955 127.048 204.23 124.844C204.636 121.568 204.651 118.133 204.433 114.842C204.375 113.987 204.303 113.059 204.158 112.117C204.274 112.523 204.723 112.827 205.187 112.552C205.332 112.465 205.491 112.378 205.636 112.291Z" fill="#193E69"/>
<path d="M204.882 171.535C205.694 171.086 206.433 172.332 205.621 172.796C204.419 173.463 203.231 174.144 202.028 174.811C193.553 179.595 185.078 184.364 176.603 189.133C175.777 189.597 175.052 188.35 175.864 187.886C177.066 187.22 178.254 186.538 179.457 185.871C187.932 181.088 196.407 176.319 204.882 171.535Z" fill="#193E69"/>
<path d="M205.636 112.291C205.491 112.378 205.332 112.465 205.187 112.552C204.723 112.827 204.274 112.523 204.158 112.117C204.158 112.045 204.143 111.972 204.114 111.885V111.871C204.114 111.653 204.216 111.45 204.462 111.305C204.752 111.131 205.056 110.957 205.346 110.798C205.462 111.291 205.563 111.784 205.636 112.291Z" fill="#193E69"/>
<path d="M201.666 105.174C201.695 105.174 201.724 105.188 201.753 105.203C202.028 105.333 202.304 105.42 202.564 105.594C203.897 106.464 204.593 108.131 205.027 109.58C205.158 109.986 205.259 110.378 205.346 110.798C205.056 110.957 204.752 111.131 204.462 111.305C204.216 111.45 204.114 111.653 204.114 111.871C203.868 110.305 203.405 108.74 202.506 107.551C202.231 107.16 201.912 106.899 201.507 106.652C201.289 106.522 201.507 106.681 201.289 106.594C200.101 106.087 198.942 105.493 197.769 104.942C194.466 103.391 191.148 101.84 187.83 100.289C187.917 100.332 187.99 100.347 188.077 100.347C188.164 100.376 188.251 100.361 188.337 100.347C188.627 100.303 188.888 100.1 188.917 99.7523C188.931 99.7233 188.931 99.6798 188.931 99.6508C188.946 99.5929 188.946 99.5494 188.931 99.5059C188.931 99.4044 188.931 99.3029 188.931 99.2015C193.031 101.115 197.189 102.927 201.231 104.971C201.347 105.029 201.463 105.087 201.579 105.145C201.579 105.145 201.594 105.145 201.608 105.145C201.608 105.145 201.608 105.145 201.623 105.159H201.637C201.652 105.159 201.652 105.159 201.666 105.174Z" fill="#193E69"/>
<path d="M204.433 114.842C204.651 118.133 204.636 121.568 204.23 124.844C203.955 127.048 203.463 129.976 201.217 131.049C199.247 131.991 197.204 130.817 195.813 129.44C193.365 127.033 191.786 123.685 190.395 120.322C189.656 118.568 188.975 116.799 188.251 115.176C188.077 114.799 187.57 114.755 187.251 114.915C181.34 117.814 174.009 116.828 168.837 112.958C168.084 112.407 167.359 113.654 168.098 114.219C173.502 118.234 181.021 119.206 187.251 116.509C187.801 117.756 188.323 119.061 188.874 120.38C181.601 124.598 174.328 128.831 167.055 133.064C165.592 131.933 164.346 130.396 163.115 129.063C161.405 127.222 159.724 125.352 158.058 123.467C157.334 122.656 156.668 121.757 155.784 121.105C153.973 119.756 151.945 118.698 149.974 117.611C148.482 116.77 146.99 115.959 145.483 115.176C147.323 108.972 150.684 103.086 155.204 98.4767C159.29 94.3019 165.259 90.2721 171.228 92.4754C171.474 92.5624 171.72 92.6639 171.966 92.7799C174.473 93.925 176.95 95.1716 179.457 96.3458C182.253 97.6649 185.049 98.9695 187.83 100.289C191.148 101.84 194.466 103.391 197.769 104.942C198.942 105.493 200.101 106.087 201.289 106.594C201.507 106.681 201.289 106.522 201.507 106.652C201.912 106.899 202.231 107.16 202.506 107.551C203.405 108.74 203.868 110.305 204.114 111.871V111.885C204.114 111.958 204.129 112.045 204.158 112.117C204.303 113.059 204.375 113.987 204.433 114.842Z" fill="#DEFB8C"/>
<path d="M204.158 112.117C204.158 112.045 204.143 111.972 204.114 111.885C204.114 111.958 204.129 112.045 204.158 112.117Z" fill="#193E69"/>
<path d="M194.77 171.535C195.581 171.071 196.306 172.332 195.494 172.796C194.712 173.246 193.915 173.71 193.133 174.159C187.628 177.333 182.108 180.508 176.603 183.683C175.791 184.146 175.052 182.9 175.864 182.436C176.661 181.972 177.443 181.523 178.24 181.073C183.745 177.899 189.25 174.724 194.77 171.535Z" fill="#193E69"/>
<path d="M192.495 161.954C193.307 161.49 194.031 162.751 193.234 163.215C192.539 163.606 191.844 164.012 191.148 164.418C186.295 167.201 181.441 169.999 176.603 172.796C175.791 173.26 175.052 172.014 175.864 171.535C176.559 171.144 177.254 170.738 177.95 170.347C182.803 167.549 187.642 164.751 192.495 161.954Z" fill="#193E69"/>
<path d="M192.495 190.191C193.307 189.727 194.031 190.988 193.234 191.452C192.539 191.844 191.844 192.25 191.148 192.641C186.295 195.439 181.441 198.236 176.603 201.034C175.791 201.498 175.052 200.237 175.864 199.773C176.559 199.382 177.254 198.976 177.95 198.584C182.803 195.787 187.642 192.989 192.495 190.191Z" fill="#193E69"/>
<path d="M190.815 197.164C191.626 196.7 192.365 197.946 191.554 198.425C190.931 198.773 190.308 199.135 189.685 199.497C185.324 202.005 180.963 204.528 176.603 207.035C175.791 207.499 175.052 206.252 175.864 205.789C176.487 205.426 177.11 205.064 177.733 204.701C182.093 202.194 186.454 199.686 190.815 197.164Z" fill="#193E69"/>
<path d="M190.815 203.484C191.626 203.02 192.365 204.267 191.554 204.73C190.931 205.093 190.308 205.455 189.685 205.818C185.324 208.325 180.963 210.833 176.603 213.355C175.791 213.819 175.052 212.558 175.864 212.094C176.487 211.746 177.11 211.384 177.733 211.022C182.093 208.514 186.454 205.992 190.815 203.484Z" fill="#193E69"/>
<path d="M190.525 185.669C191.336 185.19 192.061 186.451 191.25 186.915C190.656 187.263 190.062 187.611 189.453 187.944C185.266 190.365 181.079 192.771 176.892 195.192C176.081 195.656 175.357 194.395 176.168 193.931C176.762 193.583 177.356 193.25 177.964 192.902C182.151 190.481 186.338 188.075 190.525 185.669Z" fill="#193E69"/>
<path d="M190.351 120.336C190.54 120.641 190.525 121.09 190.12 121.322C189.888 121.452 189.656 121.583 189.424 121.728C189.236 121.278 189.047 120.829 188.874 120.38C189.047 120.278 189.207 120.177 189.381 120.075C189.786 119.843 190.163 120.032 190.351 120.336Z" fill="#193E69"/>
<path d="M190.395 120.322L190.351 120.336C190.163 120.032 189.786 119.843 189.381 120.075C189.207 120.177 189.047 120.278 188.874 120.38C188.323 119.061 187.801 117.756 187.251 116.509C187.497 116.393 187.744 116.277 187.99 116.161C187.657 116.075 187.324 115.988 186.99 115.901C187.077 116.104 187.164 116.306 187.251 116.509C181.021 119.206 173.502 118.234 168.098 114.219C167.359 113.654 168.084 112.407 168.837 112.958C174.009 116.828 181.34 117.814 187.251 114.915C187.57 114.755 188.077 114.799 188.251 115.176C188.975 116.799 189.656 118.568 190.395 120.322Z" fill="#193E69"/>
<path d="M189.424 121.728C187.845 122.641 186.28 123.554 184.701 124.468C178.892 127.845 173.068 131.237 167.244 134.629L167.215 134.571C167.635 134.354 167.823 133.629 167.302 133.252C167.215 133.194 167.142 133.136 167.055 133.064C174.328 128.831 181.601 124.598 188.874 120.38C189.047 120.829 189.236 121.278 189.424 121.728Z" fill="#193E69"/>
<path d="M188.931 99.6508C188.946 99.5929 188.946 99.5494 188.931 99.5059C188.931 99.5494 188.931 99.6073 188.931 99.6508Z" fill="#193E69"/>
<path d="M188.931 99.5059C188.931 99.5494 188.931 99.6073 188.931 99.6508C188.931 99.6798 188.931 99.7233 188.917 99.7523C188.845 100.013 188.627 100.26 188.337 100.347C188.251 100.361 188.164 100.376 188.077 100.347C187.758 100.303 187.483 100.057 187.483 99.6508C187.483 99.6218 187.483 99.5784 187.483 99.5494C187.599 99.1435 188.062 98.7956 188.569 99.0275C188.801 99.1435 188.917 99.3174 188.931 99.5059Z" fill="#193E69"/>
<path d="M188.931 99.2015C188.931 99.3029 188.931 99.4044 188.931 99.5059C188.917 99.3174 188.801 99.1435 188.569 99.0275C188.685 99.0855 188.816 99.1435 188.931 99.2015Z" fill="#193E69"/>
<path d="M188.932 80.6034C188.932 86.8076 188.931 92.9973 188.931 99.2015C188.816 99.1435 188.685 99.0855 188.569 99.0275C188.207 98.8536 187.845 98.6941 187.483 98.5202C187.483 97.2735 187.483 96.0124 187.483 94.7513C187.483 88.7065 187.483 82.6473 187.483 76.6026C187.816 76.4142 188.149 76.2112 188.482 76.0228C188.671 75.9213 188.743 75.7474 188.743 75.5879H188.932C188.932 77.2549 188.932 78.9364 188.932 80.6034Z" fill="#193E69"/>
<path d="M188.932 42.6101C188.932 53.6124 188.932 64.5857 188.932 75.5879H188.743C188.743 75.2255 188.352 74.8486 187.932 75.0951C187.787 75.182 187.628 75.269 187.483 75.356C187.483 71.5436 187.483 67.7312 187.483 63.9188C187.483 51.612 187.483 39.3196 187.483 27.0127C187.483 22.9104 187.483 18.8226 187.483 14.7203C187.483 12.401 187.802 9.76278 186.498 7.77687C186.903 8.16825 187.295 8.57413 187.686 8.98001C187.975 9.26993 188.323 9.25543 188.584 9.06699C188.946 10.4876 188.932 12.0531 188.932 13.6186C188.932 23.2873 188.932 32.9415 188.932 42.6101Z" fill="#193E69"/>
<path d="M188.714 7.96531C189.076 8.3422 188.903 8.83506 188.584 9.06699C188.381 8.26972 188.062 7.50144 187.57 6.79115C187.961 7.16804 188.338 7.55943 188.714 7.96531Z" fill="#193E69"/>
<path d="M188.743 75.5879C188.743 75.7474 188.671 75.9213 188.482 76.0228C188.149 76.2112 187.816 76.4142 187.483 76.6026C187.483 76.1822 187.483 75.7764 187.483 75.356C187.628 75.269 187.787 75.182 187.932 75.0951C188.352 74.8486 188.743 75.2255 188.743 75.5879Z" fill="#193E69"/>
<path d="M187.483 98.5202C187.845 98.6941 188.207 98.8536 188.569 99.0275C188.062 98.7956 187.599 99.1435 187.483 99.5494C187.483 99.216 187.483 98.8681 187.483 98.5202Z" fill="#193E69"/>
<path d="M188.917 99.7523C188.845 100.013 188.627 100.26 188.337 100.347C188.627 100.303 188.888 100.1 188.917 99.7523Z" fill="#193E69"/>
<path d="M188.584 9.06699C188.323 9.25543 187.975 9.26993 187.686 8.98001C187.295 8.57413 186.903 8.16825 186.498 7.77687C186.309 7.50145 186.106 7.24053 185.86 6.99411C185.382 6.51575 184.889 6.16785 184.382 5.92142C183.455 5.18214 182.484 4.52983 181.47 3.9645C182.731 3.84853 183.977 4.06597 185.179 4.70378C185.194 4.68928 185.208 4.70378 185.223 4.73277C186.034 5.35609 186.816 6.05187 187.57 6.79115C188.062 7.50144 188.381 8.26972 188.584 9.06699Z" fill="#193E69"/>
<path d="M188.077 100.347C187.99 100.347 187.917 100.332 187.83 100.289C187.497 100.129 187.41 99.8248 187.483 99.5494C187.483 99.5784 187.483 99.6218 187.483 99.6508C187.483 100.057 187.758 100.303 188.077 100.347Z" fill="#193E69"/>
<path d="M187.99 116.161C187.744 116.277 187.497 116.393 187.251 116.509C187.164 116.306 187.077 116.104 186.99 115.901C187.324 115.988 187.657 116.075 187.99 116.161Z" fill="#193E69"/>
<path d="M187.83 100.289C185.049 98.9695 182.253 97.6649 179.457 96.3458C176.95 95.1716 174.473 93.925 171.966 92.7799C171.72 92.6639 171.474 92.5624 171.228 92.4754L171.271 92.374C171.923 92.6204 172.662 91.7796 172.097 91.2288C174.806 92.2145 177.53 93.8525 180.022 95.0267C182.514 96.1863 184.991 97.3605 187.483 98.5202C187.483 98.8681 187.483 99.216 187.483 99.5494C187.41 99.8248 187.497 100.129 187.83 100.289Z" fill="#193E69"/>
<path d="M186.498 7.77687C187.802 9.76278 187.483 12.401 187.483 14.7203C187.483 18.8226 187.483 22.9104 187.483 27.0127C187.483 39.3196 187.483 51.612 187.483 63.9188C187.483 67.7312 187.483 71.5436 187.483 75.356C181.224 78.9944 174.994 82.6328 168.75 86.2712C167.982 86.7206 167.214 87.1555 166.447 87.6049C165.94 87.3149 165.433 87.0395 164.954 86.7496C163.013 85.59 161.057 84.4448 159.101 83.2851C158.363 76.0373 154.914 68.3835 147.149 66.673C140.369 65.18 133.531 68.6589 128.417 72.8337C121.187 78.7335 115.928 87.0685 112.857 95.8239C110.264 103.231 108.931 112.03 111.481 119.655C105.816 122.931 100.166 126.236 94.5156 129.527C93.9361 129.86 93.3711 130.193 92.8061 130.527C92.8061 130.498 92.8061 130.454 92.8061 130.425C92.7047 129.367 92.1107 128.57 91.3283 128.164C91.3139 128.12 91.2849 128.077 91.2414 128.048C89.9086 126.845 88.7061 126.033 86.9531 126.961C85.9245 127.512 84.9248 128.149 83.9107 128.729C79.8252 131.107 75.7397 133.484 71.6542 135.861C68.1916 137.876 64.7291 139.891 61.2665 141.891C60.2524 142.5 59.2093 143.008 58.6443 144.138C57.9344 145.573 58.2676 147.661 58.2676 149.197C58.2676 149.589 58.2676 149.98 58.2676 150.371C57.8619 150.618 57.4418 150.879 57.0362 151.14C56.8768 150.197 56.3263 149.502 55.6019 149.125C55.5729 149.081 55.5439 149.038 55.5005 148.994C54.1676 147.806 52.9796 146.979 51.2121 147.922C50.1835 148.458 49.1984 149.096 48.1842 149.676C44.0987 152.053 40.0132 154.43 35.9277 156.807C32.4652 158.822 29.0026 160.837 25.5401 162.852C24.5115 163.447 23.4828 163.954 22.9178 165.085C22.2079 166.52 22.5267 168.607 22.5267 170.158C22.5267 170.564 22.5267 170.955 22.5122 171.361C18.0645 173.985 13.6023 176.623 9.15458 179.261C8.83585 179.45 8.53161 179.624 8.21289 179.812C8.21289 171.68 8.21289 163.548 8.21289 155.416C8.21289 145.457 8.21289 135.499 8.21289 125.54C8.21289 123.119 8.12596 120.67 8.38674 118.263C8.44469 117.698 8.53162 117.133 8.61854 116.567C8.61854 116.538 8.63303 116.509 8.63303 116.48C10.0094 108.421 14.7323 101.274 21.4401 96.6647C22.063 96.2298 22.715 95.8239 23.3669 95.4326C26.4818 93.6206 29.6111 91.8521 32.7259 90.0691C40.4044 85.6479 48.0683 81.2412 55.7468 76.8345C66.1634 70.8623 76.5655 64.89 86.9821 58.9178C98.181 52.4672 109.394 46.0311 120.608 39.595C130.72 33.7967 140.833 27.9839 150.93 22.1856C158.015 18.1268 165.099 14.0535 172.169 9.99471C173.082 9.47286 174.009 8.93652 174.922 8.41467C175.849 7.87833 176.776 7.35648 177.704 6.82014C179.833 5.6025 182.224 4.81974 184.382 5.92142C185.107 6.50125 185.817 7.11006 186.498 7.77687ZM174.226 41.0881C175.284 40.5082 176.124 38.9572 176.095 37.6236L176.066 36.5219L169.518 40.0734L167.591 38.3194L164.578 45.6832L161.043 40.4502L159.478 45.5093L152.857 49.0897L152.872 50.2059C152.901 51.554 153.784 52.1773 154.857 51.5975L159.507 49.0752L159.623 54.946C159.652 56.3086 160.536 56.9319 161.608 56.3521L167.881 52.9166C168.953 52.3367 169.793 50.7712 169.764 49.4231L169.634 43.5813L174.226 41.0881ZM176.008 34.0286L175.907 29.7959C175.864 28.4768 174.994 27.8534 173.937 28.4188L169.359 30.8831L169.228 25.1138C169.199 23.7946 168.316 23.1713 167.258 23.7367L161.057 27.0707C159.985 27.636 159.145 29.1726 159.174 30.5062L159.275 36.3045L154.639 38.7977C153.582 39.3776 152.727 40.9431 152.741 42.2767L152.814 46.379L158.377 43.3784L159.493 39.9429L160.825 35.7971L164.476 41.5664L167.388 34.449L169.344 36.5364L170.025 37.2612L176.008 34.0286ZM70.8573 123.424C71.6542 122.96 70.9298 121.699 70.1185 122.177C65.8301 124.641 61.5418 127.12 57.2535 129.584C56.6305 129.947 56.022 130.295 55.3991 130.657C54.6022 131.121 55.3266 132.368 56.1379 131.904C60.4263 129.425 64.7146 126.961 69.0029 124.482C69.6259 124.134 70.2344 123.772 70.8573 123.424ZM63.4976 121.206C64.2945 120.742 63.5701 119.481 62.7588 119.959C57.2535 123.119 51.7482 126.294 46.2429 129.469C45.4606 129.918 44.6637 130.382 43.8814 130.831C43.0701 131.295 43.7945 132.556 44.6058 132.078C50.1111 128.918 55.6164 125.743 61.1217 122.569C61.9185 122.119 62.7008 121.655 63.4976 121.206ZM54.0517 132.745C54.8485 132.266 54.1241 131.005 53.3128 131.498C44.403 136.89 35.4786 142.297 26.5542 147.704C25.2648 148.487 23.9899 149.27 22.715 150.038C21.9182 150.516 22.6426 151.777 23.4394 151.285C32.3637 145.878 41.2881 140.471 50.2125 135.078C51.4874 134.296 52.7768 133.513 54.0517 132.745ZM44.0842 97.404C44.8231 95.8384 45.0984 93.78 43.9249 92.3595C42.8673 91.0838 41.0563 91.2288 39.7959 92.084C38.2602 93.1422 37.2606 94.9687 37.1302 96.8241C37.0288 98.3752 37.7676 100.187 39.4772 100.477C41.4475 100.796 43.1715 99.2014 44.0118 97.5779C44.0408 97.5199 44.0697 97.462 44.0842 97.404ZM38.1588 135.803C38.9701 135.339 38.2312 134.078 37.4199 134.557C33.1316 137.021 28.8433 139.5 24.5549 141.964C23.932 142.326 23.3235 142.674 22.715 143.037C21.9037 143.5 22.6281 144.747 23.4394 144.283C27.7277 141.804 32.016 139.34 36.3189 136.861C36.9273 136.513 37.5358 136.151 38.1588 135.803ZM34.0008 103.782C34.7397 102.217 35.015 100.158 33.827 98.7376C32.7839 97.462 30.9729 97.6069 29.7125 98.4622C28.1623 99.5203 27.1772 101.332 27.0468 103.188C26.9454 104.753 27.6842 106.565 29.3938 106.855C31.3641 107.174 33.0736 105.58 33.9284 103.956C33.9574 103.898 33.9864 103.84 34.0008 103.782ZM23.2221 109.972C24.0044 108.377 24.3521 106.217 23.1206 104.739C22.0775 103.463 20.2666 103.623 19.0062 104.478C17.456 105.522 16.4708 107.348 16.3404 109.203C16.239 110.755 16.9779 112.581 18.6874 112.856C20.6578 113.19 22.3673 111.595 23.2221 109.972Z" fill="white"/>
<path d="M187.483 94.7513C187.483 96.0124 187.483 97.2735 187.483 98.5202C184.991 97.3605 182.514 96.1863 180.022 95.0267C177.53 93.8525 174.806 92.2145 172.097 91.2288C172.082 91.2143 172.082 91.2143 172.068 91.1998C170.75 90.0402 169.156 89.1124 167.562 88.2137C173.618 84.6912 179.674 81.1543 185.73 77.6318C186.309 77.2839 186.889 76.9505 187.483 76.6026C187.483 82.6473 187.483 88.7065 187.483 94.7513Z" fill="#83D5FF"/>
<path d="M187.483 75.356C187.483 75.7764 187.483 76.1822 187.483 76.6026C186.889 76.9505 186.309 77.2839 185.73 77.6318C179.674 81.1543 173.618 84.6912 167.562 88.2137C167.186 88.0108 166.809 87.8078 166.447 87.6049C167.214 87.1555 167.982 86.7206 168.75 86.2712C174.994 82.6328 181.224 78.9944 187.483 75.356Z" fill="#193E69"/>
<path d="M186.164 5.34159C186.744 5.79095 187.208 6.26931 187.57 6.79115C186.816 6.05187 186.034 5.35609 185.223 4.73277C185.541 4.90672 185.86 5.10965 186.164 5.34159Z" fill="#193E69"/>
<path d="M185.86 6.99411C186.106 7.24053 186.309 7.50145 186.498 7.77687C185.817 7.11006 185.107 6.50125 184.382 5.92142C184.889 6.16785 185.382 6.51575 185.86 6.99411Z" fill="#193E69"/>
<path d="M184.542 142.848C185.353 142.399 186.077 143.66 185.266 144.109C184.716 144.414 184.151 144.718 183.6 145.022C179.688 147.182 175.791 149.342 171.88 151.502C171.068 151.951 170.329 150.69 171.155 150.241C171.706 149.937 172.256 149.632 172.821 149.328C176.733 147.168 180.63 145.008 184.542 142.848Z" fill="#193E69"/>
<path d="M177.211 0.775424C180.253 1.47122 182.847 2.84833 185.179 4.70378C183.977 4.06597 182.731 3.84853 181.47 3.9645C181.47 3.9645 181.47 3.96449 181.456 3.96449C179.631 2.94978 177.631 2.225 175.386 1.90609C172.734 1.51471 170.271 1.79013 167.91 2.47143C167.78 2.38445 167.649 2.29748 167.519 2.2105C167.157 1.97857 166.794 1.73214 166.432 1.50021C166.302 1.41324 166.186 1.38425 166.07 1.38425C169.634 0.166604 173.473 -0.0798239 177.211 0.775424Z" fill="#193E69"/>
<path d="M183.759 148.661C184.571 148.212 185.295 149.458 184.484 149.908C184.035 150.154 183.586 150.4 183.136 150.661C179.964 152.401 176.805 154.155 173.633 155.894C172.821 156.344 172.097 155.097 172.908 154.648C173.357 154.401 173.806 154.14 174.256 153.894C177.428 152.154 180.587 150.4 183.759 148.661Z" fill="#193E69"/>
<path d="M183.339 172.26C184.151 171.796 184.875 173.043 184.078 173.507C183.759 173.695 183.455 173.869 183.136 174.057C180.963 175.304 178.776 176.565 176.603 177.826C175.791 178.29 175.052 177.029 175.864 176.565C176.182 176.391 176.487 176.203 176.805 176.029C178.979 174.768 181.166 173.521 183.339 172.26Z" fill="#193E69"/>
<path d="M182.731 138.094C183.542 137.644 184.281 138.891 183.455 139.34C182.818 139.703 182.18 140.05 181.543 140.398C177.066 142.877 172.589 145.341 168.113 147.82C167.302 148.27 166.563 147.008 167.388 146.559C168.026 146.211 168.663 145.863 169.301 145.501C173.777 143.037 178.254 140.558 182.731 138.094Z" fill="#193E69"/>
<path d="M181.47 3.9645C182.484 4.52983 183.455 5.18214 184.382 5.92142C182.224 4.81974 179.833 5.6025 177.704 6.82014C176.776 7.35648 175.849 7.87833 174.922 8.41467C175.371 8.18274 175.559 7.47246 175.009 7.11006C174.893 7.03759 174.777 6.96511 174.661 6.89263C175.559 6.37078 176.458 5.86343 177.356 5.34158C178.674 4.6023 180.065 4.08045 181.456 3.96449C181.47 3.96449 181.47 3.9645 181.47 3.9645Z" fill="#193E69"/>
<path d="M181.456 3.96449C180.065 4.08045 178.674 4.6023 177.356 5.34158C176.458 5.86343 175.559 6.37078 174.661 6.89263C172.416 5.39957 170.156 3.93549 167.91 2.47143C170.271 1.79013 172.734 1.51471 175.386 1.90609C177.631 2.225 179.631 2.94978 181.456 3.96449Z" fill="#83D5FF"/>
<path d="M176.095 37.6236C176.124 38.9572 175.284 40.5082 174.226 41.0881L169.634 43.5813L169.634 43.4799L169.547 43.5234V43.4364L174.227 40.8851C175.197 40.3633 175.965 38.9427 175.936 37.7106L175.922 36.7973L169.475 40.2908V40.1893L169.533 40.0879L169.518 40.0734L176.066 36.5219L176.095 37.6236Z" fill="#4AA086"/>
<path d="M175.907 29.7959L176.008 34.0286L170.025 37.2612L169.344 36.5364L169.46 36.348L170.097 37.0293L175.849 33.9272L175.748 29.8829C175.719 28.6652 174.907 28.0999 173.937 28.6072L169.286 31.115V31.028L169.359 30.9845L169.359 30.8831L173.937 28.4188C174.994 27.8534 175.864 28.4768 175.907 29.7959Z" fill="#4AA086"/>
<path d="M175.936 37.7106C175.965 38.9427 175.197 40.3633 174.227 40.8851L169.547 43.4364V43.5234L169.475 43.5668L169.605 49.5101C169.634 50.7422 168.852 52.1918 167.881 52.7281L161.608 56.1491C160.623 56.6855 159.797 56.1057 159.782 54.859L159.667 48.8868L159.594 48.9303V48.8433L154.857 51.409C153.872 51.9309 153.06 51.3655 153.031 50.1189L153.017 49.2057L159.536 45.6687L159.522 45.5817H159.594L161.057 40.8416L164.578 46.0456L167.62 38.6238L169.417 40.2763L169.475 40.1893V40.2908L175.922 36.7973L175.936 37.7106Z" fill="#4AA086"/>
<path d="M175.748 29.8829L175.849 33.9272L170.097 37.0293L169.46 36.348L167.374 34.1301L164.491 41.1895L160.811 35.3912L159.348 39.9284L158.29 43.2334L152.973 46.1036L152.901 42.1897C152.886 40.9576 153.669 39.5225 154.654 39.0007L159.362 36.4639V36.3625L159.435 36.319L159.319 30.4192C159.304 29.2016 160.072 27.781 161.057 27.2591L167.272 23.9251C168.243 23.4178 169.054 23.9831 169.069 25.2007L169.199 31.0715L169.286 31.028V31.115L173.937 28.6072C174.907 28.0999 175.719 28.6652 175.748 29.8829Z" fill="#4AA086"/>
<path d="M175.009 7.11006C175.559 7.47246 175.371 8.18274 174.922 8.41467C174.748 8.50165 174.516 8.50165 174.284 8.35669C173.951 8.13926 173.603 7.92182 173.27 7.68989C173.734 7.42897 174.198 7.15355 174.661 6.89263C174.777 6.96511 174.893 7.03759 175.009 7.11006Z" fill="#193E69"/>
<path d="M174.922 8.41467C174.009 8.93652 173.082 9.47286 172.169 9.99471C165.099 14.0535 158.015 18.1268 150.93 22.1856C140.833 27.9839 130.72 33.7967 120.608 39.595C109.394 46.0311 98.181 52.4672 86.9821 58.9178C76.5655 64.89 66.1634 70.8623 55.7468 76.8345C48.0683 81.2412 40.4044 85.6479 32.7259 90.0691C29.6111 91.8521 26.4818 93.6206 23.3669 95.4326C22.715 95.8239 22.063 96.2298 21.4401 96.6647L21.4258 96.6502C21.8604 96.4328 22.0487 95.708 21.5127 95.3456C21.3968 95.2586 21.2664 95.1861 21.1505 95.0992C22.3095 94.3309 23.5554 93.6496 24.7724 92.9538C30.3212 89.7647 35.8844 86.5757 41.4477 83.3866C50.8067 78.0087 60.1801 72.6308 69.5391 67.2529C80.7815 60.8023 92.0239 54.3372 103.281 47.8866C114.349 41.5229 125.432 35.1593 136.515 28.7957C145.425 23.6787 154.321 18.5617 163.231 13.4592C166.577 11.5313 169.924 9.61782 173.27 7.68989C173.603 7.92182 173.951 8.13926 174.284 8.35669C174.516 8.50165 174.748 8.50165 174.922 8.41467Z" fill="#193E69"/>
<path d="M167.91 2.47143C170.156 3.93549 172.416 5.39957 174.661 6.89263C174.198 7.15355 173.734 7.42897 173.27 7.68989C173.241 7.67539 173.227 7.6609 173.198 7.64641C170.851 6.12436 168.504 4.58781 166.157 3.03677C166.736 2.81933 167.316 2.63088 167.91 2.47143Z" fill="#193E69"/>
<path d="M173.27 7.68989C169.924 9.61782 166.577 11.5313 163.231 13.4592C154.321 18.5617 145.425 23.6787 136.515 28.7957C125.432 35.1593 114.349 41.5229 103.281 47.8866C92.0239 54.3372 80.7815 60.8023 69.5391 67.2529C60.1801 72.6308 50.8067 78.0087 41.4477 83.3866C35.8844 86.5757 30.3212 89.7647 24.7724 92.9538C23.5554 93.6496 22.3095 94.3309 21.1505 95.0992C19.0208 93.6641 16.9057 92.229 14.776 90.7939C14.7615 90.7794 14.7325 90.7649 14.718 90.7504C16.1233 89.6343 17.6156 88.6341 19.1947 87.7208C21.2375 86.5322 23.2947 85.3435 25.352 84.1549C34.1894 79.0234 43.0268 73.9064 51.8643 68.7894C64.2657 61.585 76.6816 54.3951 89.083 47.2053C101.644 39.9284 114.19 32.6515 126.751 25.3747C136.066 19.9678 145.367 14.5754 154.683 9.18294C158.435 7.00858 162.144 4.51533 166.157 3.03677C168.504 4.58781 170.851 6.12436 173.198 7.64641C173.227 7.6609 173.241 7.67539 173.27 7.68989Z" fill="#83D5FF"/>
<path d="M172.097 91.2288C172.662 91.7796 171.923 92.6204 171.271 92.374C171.199 92.345 171.112 92.287 171.039 92.229C170.271 91.5622 169.417 90.9679 168.519 90.417C169.098 90.4605 169.677 90.533 170.271 90.678C170.88 90.8229 171.489 91.0114 172.097 91.2288Z" fill="#193E69"/>
<path d="M172.068 91.1998C172.082 91.2143 172.082 91.2143 172.097 91.2288C171.489 91.0114 170.88 90.8229 170.271 90.678C169.677 90.533 169.098 90.4605 168.519 90.417C166.881 89.3878 165.099 88.5181 163.535 87.5904C161.796 86.5612 160.058 85.532 158.319 84.5028C158.739 84.6188 159.218 84.3868 159.16 83.836C159.145 83.6475 159.13 83.4736 159.101 83.2851C161.057 84.4448 163.013 85.59 164.954 86.7496C165.433 87.0395 165.94 87.3149 166.447 87.6049C166.302 87.6918 166.143 87.7788 165.998 87.8658C165.404 88.2137 165.94 89.1559 166.548 88.808C166.881 88.6051 167.229 88.4166 167.562 88.2137C169.156 89.1124 170.75 90.0402 172.068 91.1998Z" fill="#193E69"/>
<path d="M171.271 92.374L171.228 92.4754C165.259 90.2721 159.29 94.3019 155.204 98.4767C150.684 103.086 147.323 108.972 145.483 115.176C145.324 115.089 145.15 115.002 144.991 114.915C144.484 114.639 143.991 115.031 143.904 115.451H143.89C145.773 108.682 149.424 102.217 154.379 97.259C158.073 93.5626 163.115 90.0257 168.519 90.417C169.417 90.9679 170.271 91.5622 171.039 92.229C171.112 92.287 171.199 92.345 171.271 92.374Z" fill="#193E69"/>
<path d="M169.764 49.4231C169.793 50.7712 168.953 52.3367 167.881 52.9166L161.608 56.3521C160.536 56.9319 159.652 56.3086 159.623 54.946L159.507 49.0752L159.594 49.0317L159.594 48.9303L159.667 48.8868L159.782 54.859C159.797 56.1057 160.623 56.6855 161.608 56.1491L167.881 52.7281C168.852 52.1918 169.634 50.7422 169.605 49.5101L169.475 43.5668L169.547 43.5234L169.562 43.6248L169.634 43.5813L169.764 49.4231Z" fill="#4AA086"/>
<path d="M169.634 43.4799L169.634 43.5813L169.562 43.6248L169.547 43.5234L169.634 43.4799Z" fill="#4AA086"/>
<path d="M169.533 40.0879L169.475 40.1883V40.0877L169.518 40.0734L169.533 40.0879Z" fill="#4AA086"/>
<path d="M169.518 40.0734L169.475 40.0877V40.1893L169.417 40.2763L167.62 38.6238L164.578 46.0456L161.057 40.8416L159.594 45.5817H159.522L159.522 45.4803L159.478 45.5093L161.043 40.4502L164.578 45.6832L167.591 38.3194L169.518 40.0734Z" fill="#4AA086"/>
<path d="M167.374 34.1301L169.46 36.348L169.344 36.5364L167.388 34.449L164.476 41.5664L160.825 35.7971L159.493 39.9429L159.348 39.9284L160.811 35.3912L164.491 41.1895L167.374 34.1301Z" fill="#4AA086"/>
<path d="M169.359 30.8831L169.359 30.9845L169.286 31.028L169.272 30.9266L169.359 30.8831Z" fill="#4AA086"/>
<path d="M169.228 25.1138L169.359 30.8831L169.272 30.9266L169.286 31.028L169.199 31.0715L169.069 25.2007C169.054 23.9831 168.243 23.4178 167.272 23.9251L161.057 27.2591C160.072 27.781 159.304 29.2016 159.319 30.4192L159.435 36.319L159.362 36.3625L159.362 36.261L159.275 36.3045L159.174 30.5062C159.145 29.1726 159.985 27.636 161.057 27.0707L167.258 23.7367C168.316 23.1713 169.199 23.7946 169.228 25.1138Z" fill="#4AA086"/>
<path d="M167.519 2.2105C167.649 2.29748 167.78 2.38445 167.91 2.47143C167.316 2.63088 166.736 2.81933 166.157 3.03677C166.012 2.94979 165.853 2.84832 165.708 2.74685C165.215 2.42794 165.317 1.80462 165.679 1.5292C165.795 1.47122 165.925 1.42773 166.055 1.38425L166.07 1.38425C166.186 1.38425 166.302 1.41324 166.432 1.50021C166.794 1.73214 167.157 1.97857 167.519 2.2105Z" fill="#193E69"/>
<path d="M167.664 242.347L167.838 242.651C167.664 242.753 167.475 242.869 167.302 242.97C166.823 243.246 166.215 242.898 166.215 242.347C166.215 237.157 166.215 231.968 166.215 226.778C166.215 211.601 166.215 196.424 166.215 181.247C166.215 169.23 161.202 157.677 151.945 150.284C152.104 150.183 152.278 150.096 152.437 149.995C152.843 149.748 152.857 149.313 152.669 148.994C159.971 154.72 164.839 162.968 166.78 172.231C167.461 175.464 167.664 178.653 167.664 181.943C167.664 188.814 167.664 195.7 167.664 202.571C167.664 215.385 167.664 228.17 167.664 240.984C167.446 241.129 167.258 241.274 167.07 241.419C166.925 241.535 166.736 241.622 166.577 241.724C166.939 241.926 167.302 242.129 167.664 242.347Z" fill="#193E69"/>
<path d="M167.664 240.984C167.664 241.434 167.664 241.897 167.664 242.347C167.302 242.129 166.939 241.926 166.577 241.724C166.736 241.622 166.925 241.535 167.07 241.419C167.258 241.274 167.446 241.129 167.664 240.984Z" fill="#193E69"/>
<path d="M167.562 88.2137C167.229 88.4166 166.881 88.6051 166.548 88.808C165.94 89.1559 165.404 88.2137 165.998 87.8658C166.143 87.7788 166.302 87.6918 166.447 87.6049C166.809 87.8078 167.186 88.0108 167.562 88.2137Z" fill="#193E69"/>
<path d="M167.302 133.252C167.823 133.629 167.635 134.354 167.215 134.571C167.041 134.673 166.809 134.673 166.577 134.499C166.288 134.296 166.012 134.064 165.737 133.832C166.186 133.571 166.621 133.31 167.055 133.064C167.142 133.136 167.215 133.194 167.302 133.252Z" fill="#193E69"/>
<path d="M167.215 134.571L167.244 134.629C160.826 138.369 154.393 142.109 147.961 145.849C147.598 145.631 147.236 145.428 146.86 145.24C146.86 145.646 146.86 146.066 146.86 146.487C147.222 146.269 147.598 146.066 147.961 145.849C149.467 146.69 150.902 147.632 152.249 148.661C152.09 148.603 151.887 148.617 151.698 148.733C151.365 148.936 151.032 149.125 150.699 149.313C149.279 148.27 147.743 147.327 146.135 146.487C145.643 146.226 145.672 145.501 146.135 145.24C147.932 144.182 149.743 143.138 151.539 142.094C156.276 139.34 161.014 136.586 165.737 133.832C166.012 134.064 166.288 134.296 166.577 134.499C166.809 134.673 167.041 134.673 167.215 134.571Z" fill="#193E69"/>
<path d="M167.055 133.064C166.621 133.31 166.186 133.571 165.737 133.832C164.752 133.005 163.868 132.049 162.999 131.092C163.027 131.063 163.056 131.049 163.085 131.02C163.781 130.396 162.752 129.367 162.071 129.99C162.057 130.005 162.042 130.019 162.028 130.034C161.912 129.903 161.796 129.773 161.68 129.642C160.043 127.86 158.42 126.062 156.812 124.25C156.102 123.438 155.479 122.627 154.581 122.018C151.597 119.974 148.308 118.278 145.092 116.596C145.208 116.118 145.338 115.64 145.483 115.176C146.99 115.959 148.482 116.77 149.974 117.611C151.945 118.698 153.973 119.756 155.784 121.105C156.668 121.757 157.334 122.656 158.058 123.467C159.724 125.352 161.405 127.222 163.115 129.063C164.346 130.396 165.592 131.933 167.055 133.064Z" fill="#193E69"/>
<path d="M165.708 2.74685C165.853 2.84832 166.012 2.94979 166.157 3.03677C162.144 4.51533 158.435 7.00858 154.683 9.18294C145.367 14.5754 136.066 19.9678 126.751 25.3747C114.19 32.6515 101.644 39.9284 89.083 47.2053C76.6816 54.3951 64.2657 61.585 51.8643 68.7894C43.0268 73.9064 34.1894 79.0234 25.352 84.1549C23.2947 85.3435 21.2375 86.5322 19.1947 87.7208C17.6156 88.6341 16.1233 89.6343 14.718 90.7504C14.4138 90.562 14.1241 90.3591 13.8199 90.1562C13.4866 89.9242 13.1534 90.0402 12.9506 90.2721L12.9361 90.2576C17.5142 86.4452 23.2368 83.7056 28.3509 80.7339C38.4488 74.8921 48.5322 69.0359 58.6156 63.1941C71.7124 55.5983 84.7947 48.017 97.8915 40.4213C110.22 33.2749 122.549 26.1285 134.878 18.9821C142.876 14.3434 150.858 9.7193 158.855 5.08067C160.043 4.39937 161.231 3.68908 162.434 3.00778C163.477 2.42795 164.563 1.92059 165.679 1.5292C165.317 1.80462 165.215 2.42794 165.708 2.74685Z" fill="#193E69"/>
<path d="M165.679 1.5292C165.795 1.47122 165.925 1.42773 166.055 1.38425C165.91 1.38425 165.78 1.44223 165.679 1.5292Z" fill="#193E69"/>
<path d="M165.737 133.832C161.014 136.586 156.276 139.34 151.539 142.094C149.743 143.138 147.932 144.182 146.135 145.24C145.672 145.501 145.643 146.226 146.135 146.487C147.743 147.327 149.279 148.27 150.699 149.313C147.482 151.212 144.266 153.097 141.05 154.981C132.328 160.098 123.621 165.215 114.9 170.332C103.947 176.754 93.009 183.175 82.0709 189.597C71.6832 195.685 61.2811 201.788 50.8935 207.876C44.0119 211.92 37.1158 215.965 30.2197 220.009C28.9882 220.734 27.7568 221.473 26.5253 222.183C24.1783 223.531 21.6575 223.995 19.2526 223.763C19.1222 223.749 18.9773 223.734 18.8324 223.705C18.5282 223.662 18.2239 223.604 17.9052 223.56C12.6607 222.459 8.31441 217.965 8.213 211.906C8.11158 205.557 8.213 199.193 8.213 192.844C8.213 188.93 8.213 185.002 8.213 181.088C12.6172 178.479 17.007 175.869 21.4112 173.26C21.7879 173.043 22.1501 172.84 22.5123 172.608C22.4978 174.188 22.4833 175.782 22.5268 177.362C22.5847 179.276 23.8017 180.073 25.2649 180.783C25.5692 181.044 25.9313 181.204 26.2935 181.291C26.308 181.291 26.337 181.305 26.3515 181.305C26.3805 181.32 26.395 181.334 26.4239 181.349C26.5833 181.421 26.7282 181.421 26.8586 181.363C27.467 181.392 28.1045 181.233 28.684 180.914C34.8702 177.507 40.8536 173.637 46.9094 169.999C49.1985 168.622 51.531 167.302 53.8055 165.867C57.4709 163.563 57.0942 159.823 57.0942 156.054C57.0942 154.836 57.1811 153.575 57.1377 152.343C57.1522 152.343 57.1811 152.328 57.1956 152.314C57.5433 152.096 57.9055 151.879 58.2532 151.662C58.2387 153.242 58.2242 154.822 58.2677 156.402C58.3257 158.33 59.5426 159.127 60.9914 159.837C61.2956 160.084 61.6433 160.243 62.02 160.33H62.0345C62.0779 160.344 62.1069 160.373 62.1504 160.388C62.3097 160.46 62.4546 160.46 62.585 160.417C63.1935 160.446 63.831 160.286 64.4105 159.968C70.6112 156.561 76.58 152.676 82.6359 149.052C84.9394 147.675 87.2719 146.342 89.532 144.921C93.1973 142.616 92.8207 138.862 92.8207 135.093C92.8207 133.991 92.8931 132.861 92.8786 131.744C98.6012 128.396 104.324 125.076 110.046 121.728C110.655 121.38 111.249 121.032 111.843 120.684C111.944 120.96 112.046 121.235 112.162 121.496C113.625 124.931 116.131 127.932 119.565 129.512C124.578 131.802 130.126 130.614 134.878 128.294C136.081 129.077 137.269 129.86 138.471 130.643C141.079 132.353 143.643 134.267 146.352 135.803C146.903 136.122 147.468 136.354 148.047 136.528C148.12 136.586 148.192 136.644 148.279 136.702C148.511 136.861 148.728 136.861 148.917 136.76C153.958 137.789 159.435 134.296 162.999 131.092C163.868 132.049 164.752 133.005 165.737 133.832ZM68.1338 169.651C68.9451 169.172 68.2062 167.926 67.4094 168.404C54.2981 176.145 41.1868 183.9 28.0755 191.655C26.2211 192.742 24.3812 193.844 22.5268 194.931C21.7155 195.41 22.4543 196.671 23.2511 196.192C36.3624 188.437 49.4737 180.682 62.585 172.941C64.4394 171.84 66.2794 170.738 68.1338 169.651ZM64.4249 165.925C65.2218 165.447 64.4974 164.186 63.6861 164.664C57.9055 168.129 52.125 171.579 46.3299 175.029C45.5186 175.522 44.6928 176.014 43.8815 176.493C43.0847 176.971 43.8091 178.232 44.6059 177.754C50.4009 174.304 56.1815 170.839 61.962 167.389C62.7878 166.897 63.5991 166.418 64.4249 165.925ZM62.1794 184.364C62.9762 183.886 62.2518 182.639 61.455 183.117C50.2705 189.727 39.1006 196.323 27.9306 202.933C26.3225 203.89 24.7144 204.832 23.1063 205.789C22.3094 206.252 23.0338 207.514 23.8451 207.035C35.0151 200.425 46.185 193.815 57.3695 187.205C58.9776 186.263 60.5712 185.306 62.1794 184.364ZM58.0504 181.494C58.8472 181.03 58.1228 179.783 57.3115 180.247C53.0232 182.726 48.7349 185.19 44.432 187.669C43.8236 188.017 43.2151 188.379 42.5921 188.727C41.7953 189.191 42.5197 190.438 43.331 189.974C47.6193 187.509 51.9076 185.031 56.196 182.566C56.8189 182.204 57.4274 181.856 58.0504 181.494ZM40.9695 191.046C41.7663 190.583 41.0419 189.321 40.2306 189.8C35.2469 192.713 30.2487 195.613 25.2504 198.526C24.5405 198.947 23.8306 199.367 23.1063 199.773C22.3094 200.251 23.0338 201.498 23.8451 201.034C28.8289 198.12 33.8271 195.207 38.8253 192.308C39.5352 191.887 40.2451 191.467 40.9695 191.046ZM38.5645 181.494C39.3614 181.03 38.637 179.783 37.8257 180.247C33.5373 182.726 29.249 185.19 24.9607 187.669C24.3377 188.017 23.7292 188.379 23.1063 188.727C22.3094 189.191 23.0338 190.438 23.8451 189.974C28.1335 187.509 32.4218 185.031 36.7101 182.566C37.3331 182.204 37.9416 181.856 38.5645 181.494Z" fill="#83D5FF"/>
<path d="M162.071 129.99C162.752 129.367 163.781 130.396 163.085 131.02C163.056 131.049 163.027 131.063 162.999 131.092C162.665 130.73 162.347 130.382 162.028 130.034C162.042 130.019 162.057 130.005 162.071 129.99Z" fill="#193E69"/>
<path d="M162.028 130.034C162.347 130.382 162.665 130.73 162.999 131.092C159.435 134.296 153.958 137.789 148.917 136.76C149.366 136.557 149.554 135.818 149.018 135.455C148.917 135.383 148.801 135.31 148.7 135.209C153.408 136.528 158.71 132.991 162.028 130.034Z" fill="#193E69"/>
<path d="M161.68 129.642C161.796 129.773 161.912 129.903 162.028 130.034C158.71 132.991 153.408 136.528 148.7 135.209C142.934 131.005 143.426 123.177 145.005 116.901C145.034 116.799 145.063 116.698 145.092 116.596C148.308 118.278 151.597 119.974 154.581 122.018C155.479 122.627 156.102 123.438 156.812 124.25C158.42 126.062 160.043 127.86 161.68 129.642Z" fill="#193E69"/>
<path d="M159.594 48.9303L159.594 49.0317L159.507 49.0752L159.507 48.9738L159.594 48.9303Z" fill="#4AA086"/>
<path d="M159.594 48.8433V48.9303L159.507 48.9738L159.507 49.0752L154.857 51.5975C153.784 52.1773 152.901 51.554 152.872 50.2059L152.857 49.0897L159.478 45.5093L159.464 45.5672L159.522 45.5817L159.536 45.6687L153.017 49.2057L153.031 50.1189C153.06 51.3655 153.872 51.9309 154.857 51.409L159.594 48.8433Z" fill="#4AA086"/>
<path d="M159.521 45.4803V45.5798L159.464 45.5656L159.478 45.5093L159.521 45.4803Z" fill="#4AA086"/>
<path d="M159.493 39.9429L158.377 43.3784L152.814 46.379L152.741 42.2767C152.727 40.9431 153.582 39.3776 154.639 38.7977L159.275 36.3045L159.275 36.4059L159.362 36.3625V36.4639L154.654 39.0007C153.669 39.5225 152.886 40.9576 152.901 42.1897L152.973 46.1036L158.29 43.2334L159.348 39.9284L159.493 39.9429Z" fill="#4AA086"/>
<path d="M159.362 36.261L159.362 36.3625L159.275 36.4059L159.275 36.3045L159.362 36.261Z" fill="#4AA086"/>
<path d="M159.16 83.836C159.218 84.3868 158.739 84.6188 158.319 84.5028C158.174 84.4158 158.03 84.3288 157.885 84.2564C157.87 84.2419 157.87 84.2419 157.87 84.2419C157.783 84.1404 157.725 83.9954 157.71 83.836C157.667 83.3431 157.609 82.8648 157.537 82.3719C158.058 82.6763 158.58 82.9807 159.101 83.2851C159.13 83.4736 159.145 83.6475 159.16 83.836Z" fill="#193E69"/>
<path d="M159.101 83.2851C158.58 82.9807 158.058 82.6763 157.537 82.3719L157.537 82.3574C156.479 74.8921 152.104 67.6442 143.672 67.7747C137.052 67.8762 130.967 72.0654 126.432 76.5736C120.304 82.6618 115.827 90.562 113.408 98.8536C111.524 105.348 110.626 113.001 112.944 119.553L112.77 119.611C112.669 119.336 112.35 119.133 112.017 119.336C111.843 119.438 111.654 119.539 111.481 119.655C108.931 112.03 110.264 103.231 112.857 95.8239C115.928 87.0685 121.187 78.7335 128.417 72.8337C133.531 68.6589 140.369 65.18 147.149 66.673C154.914 68.3835 158.363 76.0373 159.101 83.2851Z" fill="#193E69"/>
<path d="M158.319 84.5028C158.174 84.4158 158.03 84.3288 157.885 84.2564C158.001 84.3868 158.16 84.4738 158.319 84.5028Z" fill="#193E69"/>
<path d="M157.87 84.2419C156.103 83.1982 154.35 82.1545 152.597 81.1253C150.409 79.8352 148.077 78.1102 145.585 77.5448C139.312 76.0953 133.372 81.4152 129.663 85.8509C125.07 91.3448 121.825 98.2302 120.695 105.304C119.797 110.827 120.101 116.843 125.172 120.22C128.518 122.453 131.879 124.641 135.255 126.83L135.124 127.019C134.907 126.874 134.632 126.816 134.342 126.961C134.052 127.106 133.748 127.251 133.458 127.381C131.662 126.193 129.865 125.018 128.055 123.844C125.838 122.395 123.288 121.032 121.579 118.959C117.594 114.103 118.594 106.681 120.144 101.057C122.057 94.1135 125.78 87.4309 130.923 82.3429C135.009 78.2841 140.847 74.4283 146.845 76.3707C149.453 77.2259 151.901 79.0234 154.234 80.415C155.335 81.0673 156.436 81.7051 157.537 82.3574L157.537 82.3719C157.609 82.8648 157.667 83.3431 157.71 83.836C157.725 83.9954 157.783 84.1404 157.87 84.2419Z" fill="#193E69"/>
<path d="M157.537 82.3574C156.436 81.7051 155.335 81.0673 154.234 80.415C151.901 79.0234 149.453 77.2259 146.845 76.3707C140.847 74.4283 135.009 78.2841 130.923 82.3429C125.78 87.4309 122.057 94.1135 120.144 101.057C118.594 106.681 117.594 114.103 121.579 118.959C123.288 121.032 125.838 122.395 128.055 123.844C129.865 125.018 131.662 126.193 133.458 127.381C129.17 129.324 124.172 130.222 119.782 128.019C117.087 126.656 115.103 124.323 113.799 121.626C113.466 120.945 113.19 120.264 112.944 119.553C110.626 113.001 111.524 105.348 113.408 98.8536C115.827 90.562 120.304 82.6618 126.432 76.5736C130.967 72.0654 137.052 67.8762 143.672 67.7747C152.104 67.6442 156.479 74.8921 157.537 82.3574Z" fill="#DEFB8C"/>
<path d="M152.669 148.994C152.857 149.313 152.843 149.748 152.437 149.995C152.278 150.096 152.104 150.183 151.945 150.284C151.539 149.951 151.133 149.632 150.699 149.313C151.032 149.125 151.365 148.936 151.698 148.733C151.887 148.617 152.09 148.603 152.249 148.661C152.394 148.762 152.539 148.878 152.669 148.994Z" fill="#193E69"/>
<path d="M152.249 148.661C152.394 148.762 152.539 148.878 152.669 148.994C152.568 148.835 152.423 148.719 152.249 148.661Z" fill="#193E69"/>
<path d="M151.945 150.284C151.177 150.719 150.438 151.169 149.684 151.604C143.078 155.474 136.472 159.359 129.851 163.229C119.405 169.361 108.96 175.493 98.5142 181.624C87.3008 188.205 76.0729 194.786 64.845 201.367C55.9351 206.6 47.0252 211.833 38.1009 217.066C34.3775 219.255 30.6832 221.56 26.8875 223.633C24.8302 224.764 22.6281 225.271 20.4549 225.271C20.4694 225.271 20.4694 225.256 20.4839 225.256C20.991 224.981 20.9475 224.039 20.3101 223.937C19.9624 223.879 19.6147 223.821 19.2526 223.763C21.6575 223.995 24.1783 223.531 26.5253 222.183C27.7568 221.473 28.9882 220.734 30.2197 220.009C37.1158 215.965 44.0119 211.92 50.8935 207.876C61.2811 201.788 71.6832 195.685 82.0709 189.597C93.009 183.175 103.947 176.754 114.9 170.332C123.621 165.215 132.328 160.098 141.05 154.981C144.266 153.097 147.482 151.212 150.699 149.313C151.133 149.632 151.539 149.951 151.945 150.284Z" fill="#193E69"/>
<path d="M149.018 135.455C149.554 135.818 149.366 136.557 148.917 136.76C148.627 136.702 148.337 136.629 148.047 136.528C146.657 135.542 145.57 134.383 144.759 133.092C145.498 133.6 146.251 134.078 147.019 134.513C147.57 134.832 148.135 135.064 148.7 135.209C148.801 135.31 148.917 135.383 149.018 135.455Z" fill="#193E69"/>
<path d="M148.917 136.76C148.728 136.861 148.511 136.861 148.279 136.702C148.192 136.644 148.12 136.586 148.047 136.528C148.337 136.629 148.627 136.702 148.917 136.76Z" fill="#193E69"/>
<path d="M147.961 145.849C147.598 146.066 147.222 146.269 146.86 146.487C146.86 146.066 146.86 145.646 146.86 145.24C147.236 145.428 147.598 145.631 147.961 145.849Z" fill="#193E69"/>
<path d="M148.7 135.209C148.135 135.064 147.57 134.832 147.019 134.513C146.251 134.078 145.498 133.6 144.759 133.092C141.876 128.57 142.195 122.511 143.455 117.133C143.585 116.567 143.73 116.017 143.89 115.451H143.904C143.846 115.712 143.933 116.002 144.252 116.161C144.527 116.306 144.802 116.451 145.092 116.596C145.063 116.698 145.034 116.799 145.005 116.901C143.426 123.177 142.934 131.005 148.7 135.209Z" fill="#193E69"/>
<path d="M148.047 136.528C147.468 136.354 146.903 136.122 146.352 135.803C143.643 134.267 141.079 132.353 138.471 130.643C137.269 129.86 136.081 129.077 134.878 128.294C134.951 128.28 135.009 128.236 135.081 128.207C135.632 127.932 135.501 127.309 135.124 127.019L135.255 126.83C137.182 128.091 139.123 129.338 141.05 130.599C142.282 131.411 143.513 132.281 144.759 133.092C145.57 134.383 146.657 135.542 148.047 136.528Z" fill="#193E69"/>
<path d="M144.991 114.915C145.15 115.002 145.324 115.089 145.483 115.176C145.338 115.64 145.208 116.118 145.092 116.596C144.802 116.451 144.527 116.306 144.252 116.161C143.933 116.002 143.846 115.712 143.904 115.451C143.991 115.031 144.484 114.639 144.991 114.915Z" fill="#193E69"/>
<path d="M135.124 127.019C135.501 127.309 135.632 127.932 135.081 128.207C135.009 128.236 134.951 128.28 134.878 128.294C134.4 127.99 133.936 127.686 133.458 127.381C133.748 127.251 134.052 127.106 134.342 126.961C134.632 126.816 134.907 126.874 135.124 127.019Z" fill="#193E69"/>
<path d="M133.458 127.381C133.936 127.686 134.4 127.99 134.878 128.294C130.126 130.614 124.578 131.802 119.565 129.512C116.131 127.932 113.625 124.931 112.162 121.496C112.046 121.235 111.944 120.96 111.843 120.684C112.089 120.554 112.321 120.409 112.553 120.278C112.828 120.119 112.857 119.843 112.77 119.611L112.944 119.553C113.19 120.264 113.466 120.945 113.799 121.626C115.103 124.323 117.087 126.656 119.782 128.019C124.172 130.222 129.17 129.324 133.458 127.381Z" fill="#193E69"/>
<path d="M112.77 119.611C112.857 119.843 112.828 120.119 112.553 120.278C112.321 120.409 112.089 120.554 111.843 120.684C111.698 120.351 111.582 120.003 111.481 119.655C111.654 119.539 111.843 119.438 112.017 119.336C112.35 119.133 112.669 119.336 112.77 119.611Z" fill="#193E69"/>
<path d="M111.843 120.684C111.249 121.032 110.655 121.38 110.046 121.728C104.324 125.076 98.6012 128.396 92.8786 131.744C92.8786 131.339 92.8496 130.933 92.8061 130.527C93.3711 130.193 93.9361 129.86 94.5156 129.527C100.166 126.236 105.816 122.931 111.481 119.655C111.582 120.003 111.698 120.351 111.843 120.684Z" fill="#193E69"/>
<path d="M92.8786 131.744C92.8931 132.861 92.8207 133.991 92.8207 135.093C92.8207 138.862 93.1973 142.616 89.532 144.921C87.2719 146.342 84.9394 147.675 82.6359 149.052C76.58 152.676 70.6112 156.561 64.4105 159.968C63.831 160.286 63.1935 160.446 62.585 160.417C62.9762 160.272 63.1645 159.692 62.7009 159.446C62.6285 159.417 62.556 159.373 62.4836 159.344C63.0341 159.417 63.5267 159.199 64.0048 158.953C64.932 158.46 65.8302 157.851 66.7285 157.315C72.9436 153.589 79.1443 149.879 85.3595 146.153C87.156 145.08 89.7783 143.964 90.9228 142.123C91.9079 140.529 91.7341 138.702 91.7341 136.919C91.7341 135.107 91.7341 133.295 91.7341 131.483C91.7341 131.469 91.7341 131.44 91.7341 131.425H91.7486C91.7486 131.802 92.1397 132.179 92.5599 131.933C92.6613 131.875 92.7772 131.802 92.8786 131.744Z" fill="#193E69"/>
<path d="M92.8786 131.744C92.7772 131.802 92.6613 131.875 92.5599 131.933C92.1397 132.179 91.7486 131.802 91.7486 131.425C91.7486 131.266 91.8211 131.092 92.0095 130.991C92.2703 130.831 92.5453 130.672 92.8061 130.527C92.8496 130.933 92.8786 131.339 92.8786 131.744Z" fill="#193E69"/>
<path d="M92.8061 130.425C92.8061 130.454 92.8061 130.498 92.8061 130.527C92.5453 130.672 92.2703 130.831 92.0095 130.991C91.8211 131.092 91.7486 131.266 91.7486 131.425H91.7341C91.7196 129.802 90.8937 128.251 88.9813 129.179C88.257 129.527 87.576 130.005 86.8806 130.411C83.9541 132.121 81.0132 133.832 78.0867 135.557C73.2333 138.398 68.3655 141.239 63.5121 144.08C64.0482 143.732 63.628 142.906 63.092 143.08C69.5824 139.268 76.0729 135.47 82.5633 131.672C84.5481 130.512 86.504 129.179 88.5612 128.164C88.793 128.048 89.0248 127.961 89.2566 127.903C89.2711 127.903 89.2711 127.903 89.2711 127.903C89.6912 128.12 90.0679 128.454 90.4736 128.816C90.9372 129.251 91.6471 128.628 91.3283 128.164C92.1107 128.57 92.7047 129.367 92.8061 130.425Z" fill="#193E69"/>
<path d="M91.7341 136.919C91.7341 138.702 91.9079 140.529 90.9228 142.123C89.7783 143.964 87.156 145.08 85.3595 146.153C79.1443 149.879 72.9436 153.589 66.7285 157.315C65.8302 157.851 64.932 158.46 64.0048 158.953C63.5267 159.199 63.0341 159.417 62.4836 159.344L62.4691 159.344C62.1793 159.199 61.8751 159.069 61.5853 158.938C61.5709 158.938 61.5564 158.924 61.5419 158.924C60.9479 158.359 60.9189 157.474 60.9189 156.648C60.9189 154.648 60.9189 152.647 60.9189 150.647C60.9189 148.052 61.0347 145.675 63.5121 144.08C68.3655 141.239 73.2333 138.398 78.0867 135.557C81.0132 133.832 83.9541 132.121 86.8806 130.411C87.576 130.005 88.257 129.527 88.9813 129.179C90.8937 128.251 91.7196 129.802 91.7341 131.425C91.7341 131.44 91.7341 131.469 91.7341 131.483C91.7341 133.295 91.7341 135.107 91.7341 136.919Z" fill="#83D5FF"/>
<path d="M91.3283 128.164C91.6471 128.628 90.9372 129.251 90.4736 128.816C90.0679 128.454 89.6912 128.12 89.2711 127.903C89.9955 127.729 90.7199 127.831 91.3283 128.164Z" fill="#193E69"/>
<path d="M91.2414 128.048C91.2849 128.077 91.3139 128.12 91.3283 128.164C90.7199 127.831 89.9955 127.729 89.2711 127.903C89.2711 127.903 89.2711 127.903 89.2566 127.903C88.7785 127.686 88.2426 127.613 87.5617 127.86C87.2574 127.976 86.9242 128.236 86.649 128.396C85.2147 129.237 83.7804 130.063 82.3606 130.889C75.4935 134.89 68.6264 138.876 61.7592 142.877C60.5568 143.573 59.4702 144.124 59.3543 145.805C59.2529 147.226 59.3543 148.704 59.3543 150.125C59.3543 150.299 59.3543 150.487 59.3543 150.661C59.3543 150.56 59.3253 150.473 59.2674 150.386C59.1225 150.154 58.7893 150.038 58.5285 150.197C58.4416 150.255 58.3545 150.313 58.2676 150.371C58.2676 149.98 58.2676 149.589 58.2676 149.197C58.2676 147.661 57.9344 145.573 58.6443 144.138C59.2093 143.008 60.2524 142.5 61.2665 141.891C64.7291 139.891 68.1916 137.876 71.6542 135.861C75.7397 133.484 79.8252 131.107 83.9107 128.729C84.9248 128.149 85.9245 127.512 86.9531 126.961C88.7061 126.033 89.9086 126.845 91.2414 128.048Z" fill="#193E69"/>
<path d="M89.2566 127.903C89.0248 127.961 88.793 128.048 88.5612 128.164C86.504 129.179 84.5481 130.512 82.5633 131.672C76.0729 135.47 69.5824 139.268 63.092 143.08C63.0485 143.109 63.0052 143.124 62.9618 143.153C62.9183 143.182 62.8749 143.211 62.8459 143.24C58.9922 145.805 59.8324 150.574 59.8324 154.604C59.8324 155.561 59.6876 156.793 59.8614 157.851C59.3978 157.329 59.3544 156.735 59.3544 155.981C59.3544 154.198 59.3543 152.444 59.3543 150.661C59.3543 150.487 59.3543 150.299 59.3543 150.125C59.3543 148.704 59.2529 147.226 59.3543 145.805C59.4702 144.124 60.5568 143.573 61.7592 142.877C68.6264 138.876 75.4935 134.89 82.3606 130.889C83.7804 130.063 85.2147 129.237 86.649 128.396C86.9242 128.236 87.2574 127.976 87.5617 127.86C88.2426 127.613 88.7785 127.686 89.2566 127.903Z" fill="#83D5FF"/>
<path d="M80.9696 300.388L80.7958 300.707L79.8106 300.156L79.9845 299.837L80.9696 300.388Z" fill="#193E69"/>
<path d="M70.1185 122.177C70.9298 121.699 71.6542 122.96 70.8573 123.424C70.2344 123.772 69.6259 124.134 69.0029 124.482C64.7146 126.961 60.4263 129.425 56.1379 131.904C55.3266 132.368 54.6022 131.121 55.3991 130.657C56.022 130.295 56.6305 129.947 57.2535 129.584C61.5418 127.12 65.8301 124.641 70.1185 122.177Z" fill="#193E69"/>
<path d="M67.4094 168.404C68.2062 167.926 68.9451 169.172 68.1338 169.651C66.2794 170.738 64.4394 171.84 62.585 172.941C49.4737 180.682 36.3624 188.437 23.2511 196.192C22.4543 196.671 21.7155 195.41 22.5268 194.931C24.3812 193.844 26.2211 192.742 28.0755 191.655C41.1868 183.9 54.2981 176.145 67.4094 168.404Z" fill="#193E69"/>
<path d="M63.6861 164.664C64.4974 164.186 65.2218 165.447 64.4249 165.925C63.5991 166.418 62.7878 166.897 61.962 167.389C56.1815 170.839 50.4009 174.304 44.6059 177.754C43.8091 178.232 43.0847 176.971 43.8815 176.493C44.6928 176.014 45.5186 175.522 46.3299 175.029C52.125 171.579 57.9055 168.129 63.6861 164.664Z" fill="#193E69"/>
<path d="M62.7588 119.959C63.5701 119.481 64.2945 120.742 63.4976 121.206C62.7008 121.655 61.9185 122.119 61.1217 122.569C55.6164 125.743 50.1111 128.918 44.6058 132.078C43.7945 132.556 43.0701 131.295 43.8814 130.831C44.6637 130.382 45.4606 129.918 46.2429 129.469C51.7482 126.294 57.2535 123.119 62.7588 119.959Z" fill="#193E69"/>
<path d="M63.092 143.08C63.628 142.906 64.0482 143.732 63.5121 144.08C62.9471 144.414 62.4402 143.631 62.8459 143.24C62.8749 143.211 62.9183 143.182 62.9618 143.153C63.0052 143.124 63.0485 143.109 63.092 143.08Z" fill="#193E69"/>
<path d="M62.8459 143.24C62.4402 143.631 62.9471 144.414 63.5121 144.08C61.0347 145.675 60.9189 148.052 60.9189 150.647C60.9189 152.647 60.9189 154.648 60.9189 156.648C60.9189 157.474 60.9479 158.359 61.5419 158.924C61.1507 158.735 60.7595 158.562 60.4118 158.33C60.18 158.17 59.9918 158.025 59.8614 157.851C59.6876 156.793 59.8324 155.561 59.8324 154.604C59.8324 150.574 58.9922 145.805 62.8459 143.24Z" fill="#193E69"/>
<path d="M62.7009 159.446C63.1645 159.692 62.9762 160.272 62.585 160.417C62.3967 160.402 62.2083 160.373 62.0345 160.33H62.02C61.6723 160.156 61.3246 159.997 60.9914 159.837C60.7306 159.649 60.4989 159.402 60.3106 159.098C60.0788 158.735 59.9483 158.315 59.8614 157.851C59.9918 158.025 60.18 158.17 60.4118 158.33C60.7595 158.562 61.1507 158.735 61.5419 158.924C61.5564 158.924 61.5709 158.938 61.5853 158.938C61.7592 159.098 61.9767 159.214 62.2519 159.301C62.3244 159.315 62.3966 159.344 62.4691 159.344L62.4836 159.344C62.556 159.373 62.6285 159.417 62.7009 159.446Z" fill="#193E69"/>
<path d="M62.585 160.417C62.4546 160.46 62.3097 160.46 62.1504 160.388C62.1069 160.373 62.0779 160.344 62.0345 160.33C62.2083 160.373 62.3967 160.402 62.585 160.417Z" fill="#193E69"/>
<path d="M62.4691 159.344C62.3966 159.344 62.3244 159.315 62.2519 159.301C61.9767 159.214 61.7592 159.098 61.5853 158.938C61.8751 159.069 62.1793 159.199 62.4691 159.344Z" fill="#193E69"/>
<path d="M61.455 183.117C62.2518 182.639 62.9762 183.886 62.1794 184.364C60.5712 185.306 58.9776 186.263 57.3695 187.205C46.185 193.815 35.0151 200.425 23.8451 207.035C23.0338 207.514 22.3094 206.252 23.1063 205.789C24.7144 204.832 26.3225 203.89 27.9306 202.933C39.1006 196.323 50.2705 189.727 61.455 183.117Z" fill="#193E69"/>
<path d="M62.02 160.33C61.6723 160.156 61.3246 159.997 60.9914 159.837C61.2956 160.084 61.6433 160.243 62.02 160.33Z" fill="#193E69"/>
<path d="M60.3106 159.098C60.4989 159.402 60.7306 159.649 60.9914 159.837C59.5426 159.127 58.3257 158.33 58.2677 156.402C58.2242 154.822 58.2387 153.242 58.2532 151.662C58.456 151.531 58.6444 151.415 58.8472 151.285C58.9197 151.227 59.0066 151.183 59.079 151.14C59.2384 151.038 59.3543 150.85 59.3543 150.661C59.3543 152.444 59.3544 154.198 59.3544 155.981C59.3544 156.735 59.3978 157.329 59.8614 157.851C59.9483 158.315 60.0788 158.735 60.3106 159.098Z" fill="#193E69"/>
<path d="M59.2674 150.386C59.3253 150.473 59.3543 150.56 59.3543 150.661C59.3543 150.85 59.2384 151.038 59.079 151.14C59.0066 151.183 58.9197 151.227 58.8472 151.285C58.6444 151.415 58.456 151.531 58.2532 151.662C58.2532 151.227 58.2676 150.806 58.2676 150.371C58.3545 150.313 58.4416 150.255 58.5285 150.197C58.7893 150.038 59.1225 150.154 59.2674 150.386Z" fill="#193E69"/>
<path d="M57.0362 151.14C57.4418 150.879 57.8619 150.618 58.2676 150.371C58.2676 150.806 58.2532 151.227 58.2532 151.662C57.9055 151.879 57.5433 152.096 57.1956 152.314C57.1811 152.328 57.1522 152.343 57.1377 152.343C57.1377 152.024 57.1087 151.705 57.0797 151.386C57.0652 151.299 57.0651 151.212 57.0362 151.14Z" fill="#193E69"/>
<path d="M57.3115 180.247C58.1228 179.783 58.8472 181.03 58.0504 181.494C57.4274 181.856 56.8189 182.204 56.196 182.566C51.9076 185.031 47.6193 187.509 43.331 189.974C42.5197 190.438 41.7953 189.191 42.5921 188.727C43.2151 188.379 43.8236 188.017 44.432 187.669C48.7349 185.19 53.0232 182.726 57.3115 180.247Z" fill="#193E69"/>
<path d="M57.1377 152.343C57.1811 153.575 57.0942 154.836 57.0942 156.054C57.0942 159.823 57.4709 163.563 53.8055 165.867C51.531 167.302 49.1985 168.622 46.9094 169.999C40.8536 173.637 34.8702 177.507 28.684 180.914C28.1045 181.233 27.467 181.392 26.8586 181.363C27.2497 181.218 27.4381 180.638 26.9745 180.407C26.9021 180.378 26.8296 180.334 26.7572 180.305C27.2932 180.378 27.8003 180.16 28.2784 179.899C29.2056 179.406 30.0893 178.812 31.0021 178.261C37.2028 174.55 43.4179 170.825 49.6186 167.114C51.4296 166.027 54.0519 164.925 55.1964 163.07C56.1815 161.475 56.0077 159.663 56.0077 157.866C56.0077 156.054 56.0077 154.242 56.0077 152.444C56.0077 151.459 55.7179 150.502 55.066 150.067L55.095 149.908C55.4716 149.908 55.8192 149.473 55.6019 149.125C56.3263 149.502 56.8768 150.197 57.0362 151.14C56.9782 151.169 56.9349 151.212 56.8769 151.241C56.79 151.285 56.7176 151.328 56.6451 151.386C56.3988 151.531 56.2829 151.879 56.4423 152.125C56.5872 152.357 56.8914 152.473 57.1377 152.343Z" fill="#193E69"/>
<path d="M57.0797 151.386C57.1087 151.705 57.1377 152.024 57.1377 152.343C56.8914 152.473 56.5872 152.357 56.4423 152.125C56.2829 151.879 56.3988 151.531 56.6451 151.386C56.7176 151.328 56.79 151.285 56.8769 151.241C56.9349 151.212 56.9782 151.169 57.0362 151.14C57.0651 151.212 57.0652 151.299 57.0797 151.386Z" fill="#193E69"/>
<path d="M56.0077 157.866C56.0077 159.663 56.1815 161.475 55.1964 163.07C54.0519 164.925 51.4296 166.027 49.6186 167.114C43.4179 170.825 37.2028 174.55 31.0021 178.261C30.0893 178.812 29.2056 179.406 28.2784 179.899C27.8003 180.16 27.2932 180.378 26.7572 180.305C26.7427 180.305 26.7282 180.291 26.7137 180.291C26.4529 180.16 26.1632 180.044 25.8879 179.914C25.2215 179.392 25.1925 178.45 25.1925 177.594C25.1925 175.594 25.1925 173.594 25.1925 171.593C25.1925 168.998 25.2939 166.621 27.7713 165.041C32.6391 162.185 37.4925 159.344 42.3603 156.503C45.2868 154.793 48.2133 153.068 51.1543 151.357C51.8352 150.951 52.5306 150.473 53.255 150.125C54.0374 149.748 54.6314 149.792 55.066 150.067C55.7179 150.502 56.0077 151.459 56.0077 152.444C56.0077 154.242 56.0077 156.054 56.0077 157.866Z" fill="#DEFB8C"/>
<path d="M55.6019 149.125C55.8192 149.473 55.4716 149.908 55.095 149.908C54.9646 149.908 54.8486 149.864 54.7327 149.763C54.3271 149.4 53.9359 149.067 53.5158 148.864C54.2546 148.675 54.9934 148.777 55.6019 149.125Z" fill="#193E69"/>
<path d="M55.5005 148.994C55.5439 149.038 55.5729 149.081 55.6019 149.125C54.9934 148.777 54.2546 148.675 53.5158 148.864C53.0377 148.646 52.516 148.588 51.8351 148.82C51.5164 148.922 51.1977 149.183 50.9079 149.357C49.4881 150.183 48.0539 151.009 46.6341 151.85C39.7669 155.836 32.8998 159.837 26.0327 163.823C24.8157 164.519 23.7436 165.07 23.6133 166.752C23.5118 168.172 23.6133 169.651 23.6133 171.086C23.6133 171.289 23.6133 171.477 23.6133 171.68C23.6133 171.318 23.2221 170.941 22.8019 171.187C22.7005 171.245 22.6136 171.303 22.5122 171.361C22.5267 170.955 22.5267 170.564 22.5267 170.158C22.5267 168.607 22.2079 166.52 22.9178 165.085C23.4828 163.954 24.5115 163.447 25.5401 162.852C29.0026 160.837 32.4652 158.822 35.9277 156.807C40.0132 154.43 44.0987 152.053 48.1842 149.676C49.1984 149.096 50.1835 148.458 51.2121 147.922C52.9796 146.979 54.1676 147.806 55.5005 148.994Z" fill="#193E69"/>
<path d="M55.095 149.908L55.066 150.067C54.6314 149.792 54.0374 149.748 53.255 150.125C52.5306 150.473 51.8352 150.951 51.1543 151.357C48.2133 153.068 45.2868 154.793 42.3603 156.503C37.4925 159.344 32.6391 162.185 27.7713 165.041C28.3653 164.664 27.8149 163.722 27.2209 164.099C33.7693 160.272 40.3032 156.445 46.8371 152.618C48.8219 151.459 50.7778 150.139 52.835 149.11C53.0523 148.994 53.284 148.922 53.5158 148.864C53.9359 149.067 54.3271 149.4 54.7327 149.763C54.8486 149.864 54.9646 149.908 55.095 149.908Z" fill="#193E69"/>
<path d="M53.3128 131.498C54.1241 131.005 54.8485 132.266 54.0517 132.745C52.7768 133.513 51.4874 134.296 50.2125 135.078C41.2881 140.471 32.3637 145.878 23.4394 151.285C22.6426 151.777 21.9182 150.516 22.715 150.038C23.9899 149.27 25.2648 148.487 26.5542 147.704C35.4786 142.297 44.403 136.89 53.3128 131.498Z" fill="#193E69"/>
<path d="M53.5158 148.864C53.284 148.922 53.0523 148.994 52.835 149.11C50.7778 150.139 48.8219 151.459 46.8371 152.618C40.3032 156.445 33.7693 160.272 27.2209 164.099C27.1774 164.128 27.134 164.157 27.1051 164.186C23.2658 166.752 24.1061 171.521 24.1061 175.565C24.1061 176.522 23.9612 177.754 24.1351 178.827C23.657 178.29 23.6135 177.696 23.6135 176.928C23.6135 175.188 23.6133 173.42 23.6133 171.68C23.6133 171.477 23.6133 171.289 23.6133 171.086C23.6133 169.651 23.5118 168.172 23.6133 166.752C23.7436 165.07 24.8157 164.519 26.0327 163.823C32.8998 159.837 39.7669 155.836 46.6341 151.85C48.0539 151.009 49.4881 150.183 50.9079 149.357C51.1977 149.183 51.5164 148.922 51.8351 148.82C52.516 148.588 53.0377 148.646 53.5158 148.864Z" fill="#DEFB8C"/>
<path d="M43.9249 92.3595C45.0984 93.78 44.8231 95.8384 44.0842 97.404C44.2726 96.6502 43.1572 96.0849 42.766 96.8532C43.2876 95.7805 43.6787 93.896 42.6067 93.0843C42.3169 92.8668 41.8823 92.7943 41.5346 92.8813C40.9985 93.0118 40.5494 93.2727 40.1438 93.6496C39.1441 94.5773 38.5067 95.9689 38.5791 97.346C38.6081 97.8244 38.7529 98.3607 39.0572 98.6796C39.3904 99.0275 39.7381 99.129 40.2307 99.0565C40.5929 99.013 41.1144 98.7666 41.4766 98.4767C42.0271 98.0418 42.4328 97.462 42.766 96.8532C42.3459 97.6794 43.5916 98.4187 44.0118 97.5779C43.1715 99.2014 41.4475 100.796 39.4772 100.477C37.7676 100.187 37.0288 98.3752 37.1302 96.8241C37.2606 94.9687 38.2602 93.1422 39.7959 92.084C41.0563 91.2288 42.8673 91.0838 43.9249 92.3595Z" fill="#193E69"/>
<path d="M42.766 96.8532C43.1572 96.0849 44.2726 96.6502 44.0842 97.404C44.0697 97.462 44.0408 97.5199 44.0118 97.5779C43.5916 98.4187 42.3459 97.6794 42.766 96.8532Z" fill="#193E69"/>
<path d="M42.6067 93.0843C43.6787 93.896 43.2876 95.7805 42.766 96.8532C42.4328 97.462 42.0271 98.0418 41.4766 98.4767C41.1144 98.7666 40.5929 99.013 40.2307 99.0565C39.7381 99.129 39.3904 99.0275 39.0572 98.6796C38.7529 98.3607 38.6081 97.8244 38.5791 97.346C38.5067 95.9689 39.1441 94.5773 40.1438 93.6496C40.5494 93.2727 40.9985 93.0118 41.5346 92.8813C41.8823 92.7943 42.3169 92.8668 42.6067 93.0843Z" fill="#83D5FF"/>
<path d="M40.2306 189.8C41.0419 189.321 41.7663 190.583 40.9695 191.046C40.2451 191.467 39.5352 191.887 38.8253 192.308C33.8271 195.207 28.8289 198.12 23.8451 201.034C23.0338 201.498 22.3094 200.251 23.1063 199.773C23.8306 199.367 24.5405 198.947 25.2504 198.526C30.2487 195.613 35.2469 192.713 40.2306 189.8Z" fill="#193E69"/>
<path d="M37.8257 180.247C38.637 179.783 39.3614 181.03 38.5645 181.494C37.9416 181.856 37.3331 182.204 36.7101 182.566C32.4218 185.031 28.1335 187.509 23.8451 189.974C23.0338 190.438 22.3094 189.191 23.1063 188.727C23.7292 188.379 24.3377 188.017 24.9607 187.669C29.249 185.19 33.5373 182.726 37.8257 180.247Z" fill="#193E69"/>
<path d="M37.4199 134.557C38.2312 134.078 38.9701 135.339 38.1588 135.803C37.5358 136.151 36.9273 136.513 36.3189 136.861C32.016 139.34 27.7277 141.804 23.4394 144.283C22.6281 144.747 21.9037 143.5 22.715 143.037C23.3235 142.674 23.932 142.326 24.5549 141.964C28.8433 139.5 33.1316 137.021 37.4199 134.557Z" fill="#193E69"/>
<path d="M33.827 98.7376C35.015 100.158 34.7397 102.217 34.0008 103.782C34.1747 103.028 33.0737 102.463 32.6681 103.231C33.2041 102.159 33.5953 100.274 32.5087 99.4623C32.2334 99.2449 31.7988 99.1724 31.4366 99.2594C30.9151 99.3899 30.466 99.6508 30.0458 100.028C29.0607 100.955 28.4232 102.347 28.4956 103.71C28.5101 104.202 28.6695 104.724 28.9737 105.043C29.3069 105.406 29.6402 105.493 30.1327 105.435C30.5094 105.391 31.0165 105.145 31.3932 104.84C31.9437 104.405 32.3493 103.84 32.6681 103.231C32.2624 104.057 33.5083 104.797 33.9284 103.956C33.0736 105.58 31.3641 107.174 29.3938 106.855C27.6842 106.565 26.9454 104.753 27.0468 103.188C27.1772 101.332 28.1623 99.5203 29.7125 98.4622C30.9729 97.6069 32.7839 97.462 33.827 98.7376Z" fill="#193E69"/>
<path d="M32.6681 103.231C33.0737 102.463 34.1747 103.028 34.0008 103.782C33.9864 103.84 33.9574 103.898 33.9284 103.956C33.5083 104.797 32.2624 104.057 32.6681 103.231Z" fill="#193E69"/>
<path d="M32.5087 99.4623C33.5953 100.274 33.2041 102.159 32.6681 103.231C32.3493 103.84 31.9437 104.405 31.3932 104.84C31.0165 105.145 30.5094 105.391 30.1327 105.435C29.6402 105.493 29.3069 105.406 28.9737 105.043C28.6695 104.724 28.5101 104.202 28.4956 103.71C28.4232 102.347 29.0607 100.955 30.0458 100.028C30.466 99.6508 30.9151 99.3899 31.4366 99.2594C31.7988 99.1724 32.2334 99.2449 32.5087 99.4623Z" fill="#DEFB8C"/>
<path d="M27.2209 164.099C27.8149 163.722 28.3653 164.664 27.7713 165.041C27.2208 165.36 26.7139 164.577 27.1051 164.186C27.134 164.157 27.1774 164.128 27.2209 164.099Z" fill="#193E69"/>
<path d="M27.1051 164.186C26.7139 164.577 27.2208 165.36 27.7713 165.041C25.2939 166.621 25.1925 168.998 25.1925 171.593C25.1925 173.594 25.1925 175.594 25.1925 177.594C25.1925 178.45 25.2215 179.392 25.8879 179.914C25.4678 179.725 25.0622 179.522 24.6855 179.276C24.4537 179.131 24.28 178.986 24.1351 178.827C23.9612 177.754 24.1061 176.522 24.1061 175.565C24.1061 171.521 23.2658 166.752 27.1051 164.186Z" fill="#193E69"/>
<path d="M26.9745 180.407C27.4381 180.638 27.2497 181.218 26.8586 181.363C26.6847 181.349 26.5109 181.334 26.3515 181.305C26.337 181.305 26.308 181.291 26.2935 181.291C25.9458 181.117 25.5981 180.957 25.2649 180.783C25.0041 180.595 24.7724 180.349 24.584 180.044C24.3522 179.682 24.222 179.276 24.1351 178.827C24.28 178.986 24.4537 179.131 24.6855 179.276C25.0622 179.522 25.4678 179.725 25.8879 179.914C26.0618 180.059 26.2646 180.175 26.5254 180.247C26.5833 180.262 26.6558 180.276 26.7137 180.291C26.7282 180.291 26.7427 180.305 26.7572 180.305C26.8296 180.334 26.9021 180.378 26.9745 180.407Z" fill="#193E69"/>
<path d="M26.8586 181.363C26.7282 181.421 26.5833 181.421 26.4239 181.349C26.395 181.334 26.3805 181.32 26.3515 181.305C26.5109 181.334 26.6847 181.349 26.8586 181.363Z" fill="#193E69"/>
<path d="M26.7137 180.291C26.6558 180.276 26.5833 180.262 26.5254 180.247C26.2646 180.175 26.0618 180.059 25.8879 179.914C26.1632 180.044 26.4529 180.16 26.7137 180.291Z" fill="#193E69"/>
<path d="M26.2935 181.291C25.9458 181.117 25.5981 180.957 25.2649 180.783C25.5692 181.044 25.9313 181.204 26.2935 181.291Z" fill="#193E69"/>
<path d="M24.584 180.044C24.7724 180.349 25.0041 180.595 25.2649 180.783C23.8017 180.073 22.5847 179.276 22.5268 177.362C22.4833 175.782 22.4978 174.188 22.5123 172.608C22.7875 172.448 23.0773 172.289 23.3526 172.115C23.5409 172.014 23.6133 171.84 23.6133 171.68C23.6133 173.42 23.6135 175.188 23.6135 176.928C23.6135 177.696 23.657 178.29 24.1351 178.827C24.222 179.276 24.3522 179.682 24.584 180.044Z" fill="#193E69"/>
<path d="M23.1206 104.739C24.3521 106.217 24.0044 108.377 23.2221 109.972C23.6422 109.146 22.3966 108.406 21.9619 109.233C22.498 108.16 22.8892 106.275 21.8026 105.464C21.5273 105.246 21.0927 105.188 20.745 105.275C20.2089 105.391 19.7598 105.652 19.3397 106.043C18.3545 106.957 17.7171 108.363 17.7895 109.725C17.804 110.218 17.9634 110.74 18.2676 111.059C18.6008 111.407 18.9485 111.508 19.4266 111.45C19.8033 111.407 20.3104 111.146 20.687 110.856C21.2376 110.421 21.6432 109.856 21.9619 109.233C21.5563 110.073 22.8019 110.798 23.2221 109.972C22.3673 111.595 20.6578 113.19 18.6874 112.856C16.9779 112.581 16.239 110.755 16.3404 109.203C16.4708 107.348 17.456 105.522 19.0062 104.478C20.2666 103.623 22.0775 103.463 23.1206 104.739Z" fill="#193E69"/>
<path d="M23.6133 171.68C23.6133 171.84 23.5409 172.014 23.3526 172.115C23.0773 172.289 22.7875 172.448 22.5123 172.608C22.5123 172.187 22.5122 171.782 22.5122 171.361C22.6136 171.303 22.7005 171.245 22.8019 171.187C23.2221 170.941 23.6133 171.318 23.6133 171.68Z" fill="#193E69"/>
<path d="M23.2221 109.972C23.6422 109.146 22.3966 108.406 21.9619 109.233C21.5563 110.073 22.8019 110.798 23.2221 109.972Z" fill="#193E69"/>
<path d="M22.5122 171.361C22.5122 171.782 22.5123 172.187 22.5123 172.608C22.1501 172.84 21.7879 173.043 21.4112 173.26C17.007 175.869 12.6172 178.479 8.213 181.088C8.213 180.653 8.21289 180.233 8.21289 179.812C8.53161 179.624 8.83585 179.45 9.15458 179.261C13.6023 176.623 18.0645 173.985 22.5122 171.361Z" fill="#193E69"/>
<path d="M21.5127 95.3456C22.0487 95.708 21.8604 96.4328 21.4258 96.6502C21.2374 96.7517 21.0056 96.7517 20.7738 96.5922C20.4695 96.3893 20.1798 96.1864 19.8755 95.9834C20.2522 95.708 20.6289 95.4471 21.0201 95.1862C21.0635 95.1572 21.107 95.1282 21.1505 95.0992C21.2664 95.1861 21.3968 95.2586 21.5127 95.3456Z" fill="#193E69"/>
<path d="M21.4258 96.6502L21.4401 96.6647C14.7323 101.274 10.0094 108.421 8.63303 116.48C8.662 116.248 8.56065 116.002 8.28538 115.843C7.99563 115.683 7.69139 115.509 7.40164 115.35C8.95181 107.594 13.443 100.622 19.8755 95.9834C20.1798 96.1864 20.4695 96.3893 20.7738 96.5922C21.0056 96.7517 21.2374 96.7517 21.4258 96.6502Z" fill="#193E69"/>
<path d="M21.1505 95.0992C21.107 95.1282 21.0635 95.1572 21.0201 95.1862C20.6289 95.4471 20.2522 95.708 19.8755 95.9834C19.8611 95.9689 19.8323 95.9544 19.8178 95.9399C17.7316 94.5338 15.6309 93.1132 13.5446 91.7072C13.9213 91.3738 14.3124 91.0549 14.718 90.7504C14.7325 90.7649 14.7615 90.7794 14.776 90.7939C16.9057 92.229 19.0208 93.6641 21.1505 95.0992Z" fill="#193E69"/>
<path d="M20.3101 223.937C20.9475 224.039 20.991 224.981 20.4839 225.256C20.4694 225.256 20.4694 225.271 20.4549 225.271C20.2811 225.271 20.0929 225.271 19.919 225.256C19.8756 224.85 19.8176 224.416 19.7597 224.01C19.9335 223.908 19.6003 224.053 19.4844 224.039C19.1512 223.966 18.6876 224.053 18.3399 224.039C17.4416 223.995 16.5434 223.865 15.6597 223.691C15.8045 223.459 16.0798 223.285 16.4275 223.328C16.9201 223.401 17.4126 223.488 17.9052 223.56C18.2095 223.618 18.5137 223.676 18.8324 223.705C18.9773 223.734 19.1222 223.749 19.2526 223.763C19.6147 223.821 19.9624 223.879 20.3101 223.937Z" fill="#193E69"/>
<path d="M19.919 225.256C20.0929 225.271 20.2811 225.271 20.4549 225.271C19.3539 225.88 17.3837 225.445 16.2391 225.256C9.87908 224.256 4.09852 220.444 1.7805 214.269C0.418661 210.659 0.563537 206.876 0.563537 203.092C0.563537 190.844 0.563537 178.595 0.563537 166.331C0.563537 152.633 0.563537 138.92 0.563537 125.221C0.563537 122.409 0.534562 119.597 0.563537 116.799C0.578025 115.509 0.650463 114.234 0.795339 112.972C0.809827 113.175 0.91124 113.378 1.14304 113.509C1.50523 113.712 1.86742 113.915 2.22961 114.118C1.65011 119.901 2.0123 125.874 2.0123 131.628C2.0123 145.747 2.0123 159.866 2.0123 173.985C2.0123 184.494 2.0123 194.989 2.0123 205.499C2.0123 210.746 2.98297 215.892 7.06848 219.574C8.64763 220.98 10.5165 222.038 12.5013 222.778C13.4575 223.444 14.5006 223.981 15.5872 224.387C15.6451 224.561 15.8045 224.691 16.0508 224.735C16.5868 224.822 17.1229 224.894 17.6589 224.981C18.108 225.082 18.5572 225.14 19.0208 225.184C19.0787 225.198 19.1511 225.213 19.2236 225.213C19.4554 225.256 19.7017 225.285 19.9335 225.329C19.9335 225.3 19.9335 225.285 19.919 225.256Z" fill="#193E69"/>
<path d="M19.919 225.256C19.9335 225.285 19.9335 225.3 19.9335 225.329C19.7017 225.285 19.4554 225.256 19.2236 225.213C19.4554 225.242 19.6872 225.256 19.919 225.256Z" fill="#193E69"/>
<path d="M19.7597 224.01C19.8176 224.416 19.8756 224.85 19.919 225.256C19.6872 225.256 19.4554 225.242 19.2236 225.213C19.1511 225.213 19.0787 225.198 19.0208 225.184C18.5572 225.111 18.108 225.053 17.6589 224.981C16.949 224.836 16.2681 224.633 15.5872 224.387C15.4858 224.184 15.5293 223.908 15.6597 223.691C16.5434 223.865 17.4416 223.995 18.3399 224.039C18.6876 224.053 19.1512 223.966 19.4844 224.039C19.6003 224.053 19.9335 223.908 19.7597 224.01Z" fill="#193E69"/>
<path d="M19.8178 95.9399C19.8323 95.9544 19.8611 95.9689 19.8755 95.9834C13.443 100.622 8.95181 107.594 7.40164 115.35C5.82249 114.465 4.25776 113.581 2.67861 112.697C2.59169 112.654 2.49027 112.596 2.40335 112.552C2.9249 108.696 3.92455 104.927 5.77896 101.39C7.74928 97.6214 10.4008 94.4034 13.5446 91.7072C15.6309 93.1132 17.7316 94.5338 19.8178 95.9399Z" fill="#437FBF"/>
<path d="M19.0208 225.184C18.5572 225.111 18.108 225.053 17.6589 224.981C18.108 225.082 18.5572 225.14 19.0208 225.184Z" fill="#193E69"/>
<path d="M18.8324 223.705C18.5282 223.662 18.2239 223.604 17.9052 223.56C18.2095 223.618 18.5137 223.676 18.8324 223.705Z" fill="#193E69"/>
<path d="M17.9052 223.56C17.4126 223.488 16.9201 223.401 16.4275 223.328C16.0798 223.285 15.8045 223.459 15.6597 223.691C15.4858 223.647 15.3264 223.618 15.1526 223.575C14.2544 223.372 13.3706 223.111 12.5013 222.778C9.45893 220.676 7.24236 217.356 6.83671 213.268C6.63388 211.268 6.76427 209.195 6.76427 207.195C6.76427 198.396 6.76427 189.626 6.76427 180.841H6.95261C6.95261 181.204 7.34377 181.595 7.76391 181.349C7.90879 181.262 8.06812 181.175 8.213 181.088C8.213 185.002 8.213 188.93 8.213 192.844C8.213 199.193 8.11158 205.557 8.213 211.906C8.31441 217.965 12.6607 222.459 17.9052 223.56Z" fill="#193E69"/>
<path d="M17.6589 224.981C17.1229 224.894 16.5868 224.822 16.0508 224.735C15.8045 224.691 15.6451 224.561 15.5872 224.387C16.2681 224.633 16.949 224.836 17.6589 224.981Z" fill="#193E69"/>
<path d="M15.1526 223.575C15.3264 223.618 15.4858 223.647 15.6597 223.691C15.5293 223.908 15.4858 224.184 15.5872 224.387C14.5006 223.981 13.4575 223.444 12.5013 222.778C13.3706 223.111 14.2544 223.372 15.1526 223.575Z" fill="#193E69"/>
<path d="M13.8199 90.1562C14.1241 90.3591 14.4138 90.562 14.718 90.7504C14.3124 91.0549 13.9213 91.3738 13.5446 91.7072C13.3853 91.6057 13.2402 91.5043 13.0808 91.4028C12.6462 91.1129 12.6898 90.5765 12.9506 90.2721C13.1534 90.0402 13.4866 89.9242 13.8199 90.1562Z" fill="#193E69"/>
<path d="M13.0808 91.4028C13.2402 91.5043 13.3853 91.6057 13.5446 91.7072C10.4008 94.4034 7.74928 97.6214 5.77896 101.39C3.92455 104.927 2.9249 108.696 2.40335 112.552C2.2295 112.451 2.05589 112.349 1.86755 112.248C1.38946 111.987 0.954835 112.306 0.838934 112.697C1.83858 104.289 5.86614 96.4038 12.3131 90.7794C12.516 90.6055 12.7333 90.4171 12.9361 90.2576L12.9506 90.2721C12.6898 90.5765 12.6462 91.1129 13.0808 91.4028Z" fill="#193E69"/>
<path d="M8.28538 115.843C8.56065 116.002 8.662 116.248 8.63303 116.48C8.63303 116.509 8.61854 116.538 8.61854 116.567C8.53162 117.002 8.06816 117.379 7.56109 117.104C7.41622 117.031 7.27134 116.944 7.12647 116.857C7.18442 116.35 7.27125 115.843 7.40164 115.35C7.69139 115.509 7.99563 115.683 8.28538 115.843Z" fill="#193E69"/>
<path d="M8.61854 116.567C8.53162 117.133 8.44469 117.698 8.38674 118.263C8.12596 120.67 8.21289 123.119 8.21289 125.54C8.21289 135.499 8.21289 145.457 8.21289 155.416C8.21289 163.548 8.21289 171.68 8.21289 179.812C7.87967 180.001 7.54669 180.204 7.21347 180.407C7.03962 180.508 6.95261 180.667 6.95261 180.841H6.76427C6.76427 179.189 6.76436 177.522 6.76436 175.869C6.76436 163.316 6.76436 150.748 6.76436 138.195C6.76436 133.977 6.76436 129.759 6.76436 125.54C6.76436 122.946 6.69192 120.322 6.99616 117.727C7.02513 117.437 7.06852 117.147 7.12647 116.857C7.27134 116.944 7.41622 117.031 7.56109 117.104C8.06816 117.379 8.53162 117.002 8.61854 116.567Z" fill="#193E69"/>
<path d="M8.21289 179.812C8.21289 180.233 8.213 180.653 8.213 181.088C8.06812 181.175 7.90879 181.262 7.76391 181.349C7.34377 181.595 6.95261 181.204 6.95261 180.841C6.95261 180.667 7.03962 180.508 7.21347 180.407C7.54669 180.204 7.87967 180.001 8.21289 179.812Z" fill="#193E69"/>
<path d="M12.5013 222.778C10.5165 222.038 8.64763 220.98 7.06848 219.574C2.98297 215.892 2.0123 210.746 2.0123 205.499C2.0123 194.989 2.0123 184.494 2.0123 173.985C2.0123 159.866 2.0123 145.747 2.0123 131.628C2.0123 125.874 1.65011 119.901 2.22961 114.118C3.73632 114.958 5.2431 115.799 6.74981 116.654C6.8802 116.727 6.99608 116.799 7.12647 116.857C7.06852 117.147 7.02513 117.437 6.99616 117.727C6.69192 120.322 6.76436 122.946 6.76436 125.54C6.76436 129.759 6.76436 133.977 6.76436 138.195C6.76436 150.748 6.76436 163.316 6.76436 175.869C6.76436 177.522 6.76427 179.189 6.76427 180.841C6.76427 189.626 6.76427 198.396 6.76427 207.195C6.76427 209.195 6.63388 211.268 6.83671 213.268C7.24236 217.356 9.45893 220.676 12.5013 222.778Z" fill="#193E69"/>
<path d="M2.67861 112.697C4.25776 113.581 5.82249 114.465 7.40164 115.35C7.27125 115.843 7.18442 116.35 7.12647 116.857C6.99608 116.799 6.8802 116.727 6.74981 116.654C5.2431 115.799 3.73632 114.958 2.22961 114.118C2.28756 113.596 2.3454 113.074 2.40335 112.552C2.49027 112.596 2.59169 112.654 2.67861 112.697Z" fill="#193E69"/>
<path d="M1.86755 112.248C2.05589 112.349 2.2295 112.451 2.40335 112.552C2.3454 113.074 2.28756 113.596 2.22961 114.118C1.86742 113.915 1.50523 113.712 1.14304 113.509C0.91124 113.378 0.809827 113.175 0.795339 112.972C0.795339 112.885 0.809959 112.784 0.838934 112.697C0.954835 112.306 1.38946 111.987 1.86755 112.248Z" fill="#193E69"/>
<path d="M0.838934 112.697C0.809804 112.784 0.795258 112.886 0.795258 112.974C0.780693 112.886 0.79524 112.784 0.838934 112.697Z" fill="#193E69"/>
</svg>
