<svg viewBox="0 0 54 54" fill="none" xmlns="http://www.w3.org/2000/svg">
<g id="Frame" clip-path="url(#clip0_220_639)">
<g id="Group">
<g id="XMLID_1_">
<g id="Group_2">
<path id="Vector" d="M19.7699 36.361C21.1503 38.0796 21.3189 40.3669 21.0004 42.4731H14.1173C13.5177 42.4731 12.9681 42.7168 12.5683 43.1168C12.5496 43.0855 12.5246 43.048 12.4934 43.0168C10.6071 41.2044 8.72706 39.392 6.84702 37.5796C6.20369 36.9609 5.54162 36.4172 5.14812 35.5985C4.57974 34.4298 4.03634 33.2487 3.48045 32.08C2.83088 30.7051 2.1813 29.3302 1.53172 27.9553C1.31311 27.4928 1.0945 27.0678 1.05078 26.5428C0.994564 25.9741 1.11948 25.2367 1.53796 24.8055C2.05638 24.2555 2.9433 24.4242 3.53042 24.7742C4.71091 25.4804 5.21683 27.4115 5.74774 28.599C6.22867 29.6926 6.62842 30.9988 7.4279 31.9237C7.44039 31.9487 7.46537 31.98 7.49036 32.005C9.32042 34.0174 11.2629 35.9485 13.1429 37.9171C13.4927 38.2796 14.0424 37.7234 13.6988 37.3609C11.8625 35.4423 9.9825 33.5486 8.17741 31.5988C8.38353 30.9676 8.83324 30.3363 9.47033 30.1239C10.757 29.6864 12.0249 30.8301 12.993 31.5363C14.0798 32.33 15.1479 33.1674 16.2784 33.8924C17.5151 34.6861 18.8268 35.186 19.7699 36.361Z" fill="white"/>
<path id="Vector_2" d="M52.3864 24.8055C53.0609 25.5179 52.9547 26.6928 52.5987 27.5115C52.0928 28.649 51.5369 29.7614 51.006 30.8801C50.3439 32.2737 49.6881 33.6611 49.0323 35.0548C48.6763 35.8047 48.2828 36.4172 47.6832 36.9922C45.597 38.9983 43.5171 41.0107 41.431 43.0168C41.3997 43.048 41.3747 43.0855 41.356 43.123C40.9563 42.723 40.4066 42.4731 39.8008 42.4731H32.9177C32.6242 40.5357 32.7366 38.4733 33.8359 36.7984C34.5667 35.6798 35.5847 35.0798 36.7153 34.4486C38.0332 33.7174 39.2386 32.7737 40.4503 31.8862C41.4559 31.1488 42.6801 29.9739 43.9918 30.0426C44.8662 30.0801 45.4908 30.8176 45.7407 31.6113C45.547 31.8175 45.3409 32.0175 45.1535 32.2112C44.5102 32.8799 43.8669 33.5549 43.2235 34.2236C42.2242 35.2735 41.2248 36.3172 40.2255 37.3609C39.8757 37.7234 40.4254 38.2796 40.7751 37.9171C42.5615 36.0485 44.3416 34.1861 46.1279 32.3175C46.2279 32.2112 46.3215 32.105 46.409 31.9987C46.4652 31.955 46.5152 31.8987 46.5401 31.83C47.0211 31.1988 47.3271 30.5113 47.6582 29.7551C48.2078 28.5177 48.7262 27.2678 49.3071 26.0429C49.7756 25.0679 51.3558 23.7243 52.3864 24.8055Z" fill="white"/>
<path id="Vector_3" d="M51.4557 23.6743C53.6355 23.6305 53.9978 26.3116 53.292 27.8615C52.7486 29.0552 52.174 30.2301 51.6118 31.4175C50.9373 32.8487 50.2564 34.2798 49.5819 35.711C49.1821 36.5547 48.6387 37.1609 47.9767 37.7984C45.978 39.7232 43.9793 41.6481 41.9806 43.573C41.9056 43.648 41.8306 43.6792 41.7495 43.6855C41.6495 43.473 41.5184 43.2855 41.356 43.123C41.3747 43.0855 41.3997 43.048 41.4309 43.0168C43.5171 41.0107 45.597 38.9983 47.6831 36.9922C48.2827 36.4172 48.6762 35.8047 49.0322 35.0548C49.6881 33.6611 50.3439 32.2737 51.006 30.8801C51.5369 29.7614 52.0928 28.649 52.5987 27.5115C52.9547 26.6928 53.0609 25.5179 52.3863 24.8055C51.3557 23.7243 49.7755 25.0679 49.3071 26.0429C48.7262 27.2678 48.2078 28.5177 47.6581 29.7551C47.3271 30.5113 47.021 31.1988 46.5401 31.83C46.5651 31.7613 46.5713 31.6863 46.5526 31.5988C46.4964 31.3613 46.4089 31.1175 46.2965 30.8926C46.2965 30.8863 46.3028 30.8863 46.3028 30.8801C46.9898 29.6426 47.477 28.2615 48.0454 26.9678C48.7324 25.4304 49.4757 23.7118 51.4557 23.6743Z" fill="#193E69"/>
<path id="Vector_4" d="M52.786 16.5935C53.2919 16.5935 53.2919 17.3747 52.786 17.3747C50.8623 17.3747 48.9448 17.3747 47.021 17.3747C47.1084 17.1185 47.1959 16.856 47.2771 16.5935C49.1134 16.5935 50.9497 16.5935 52.786 16.5935Z" fill="#193E69"/>
<path id="Vector_5" d="M47.0398 6.80664C47.9267 9.10024 48.1703 11.6938 47.8268 14.1249C47.7081 14.9686 47.5208 15.7936 47.2772 16.5935C47.0023 16.5935 46.7338 16.5935 46.4589 16.5935C46.69 15.8873 46.8712 15.1623 47.0023 14.4124C47.4083 11.9938 47.196 9.40647 46.3215 7.10662C45.2347 4.23805 42.9425 2.31943 39.9819 1.55073C37.5772 0.92577 34.9164 1.157 32.6304 2.13819C30.1008 3.22562 28.2645 5.26924 27.084 7.71908C27.009 7.87532 26.8779 7.93156 26.7467 7.91906C26.9903 7.88781 27.2276 7.61908 27.084 7.32535C26.9778 7.10662 26.8654 6.88788 26.7467 6.67539C28.0833 4.22555 30.0945 2.28193 32.7366 1.257C35.4411 0.207067 38.5828 0.132072 41.306 1.15076C44.023 2.17569 45.9905 4.10056 47.0398 6.80664Z" fill="#193E69"/>
<path id="Vector_6" d="M46.4589 16.5935C46.7337 16.5935 47.0023 16.5935 47.2771 16.5935C47.1959 16.856 47.1085 17.1185 47.021 17.3747C46.74 17.3747 46.4651 17.3747 46.1841 17.3747C46.2778 17.1185 46.3715 16.856 46.4589 16.5935Z" fill="#193E69"/>
<path id="Vector_7" d="M46.3215 7.10662C47.1959 9.40647 47.4083 11.9938 47.0023 14.4124C46.8711 15.1623 46.69 15.8873 46.4589 16.5935C44.304 16.5935 42.1429 16.5935 39.9881 16.5935C39.8007 16.5935 39.6758 16.7185 39.6133 16.881C39.3447 17.5372 39.0762 18.1934 38.8076 18.8496C38.3516 17.031 37.9019 15.2186 37.446 13.4C37.4272 13.3375 37.4147 13.2687 37.396 13.2062C37.3023 12.825 36.7464 12.8375 36.6465 13.2062C35.8782 15.881 35.1162 18.5559 34.3542 21.2369C33.6359 17.4934 32.9239 13.7499 32.2056 10.0127C32.1931 9.94393 32.1806 9.88144 32.1681 9.81269C32.0932 9.40647 31.5248 9.46896 31.4124 9.81269C30.6941 12.075 29.9696 14.3311 29.245 16.5935C27.6898 16.5935 26.1408 16.5935 24.5855 16.5935C24.4169 16.5935 24.2483 16.7122 24.2045 16.881C24.0296 17.5434 23.861 18.2121 23.6861 18.8746C23.0865 17.081 22.4744 15.2811 21.8685 13.4875C21.7561 13.1437 21.2065 13.0875 21.119 13.4875C21.1065 13.5562 21.0878 13.6187 21.0753 13.6874C20.5382 16.1935 20.0073 18.6934 19.4639 21.1994C18.6581 17.9434 17.8399 14.6936 17.0279 11.4376C16.9093 10.9564 16.7906 10.4814 16.6719 10.0064C16.6532 9.94393 16.6407 9.87519 16.6219 9.81269C16.5283 9.43772 15.9599 9.43772 15.8724 9.81269C15.2853 12.1688 14.6919 14.5186 14.1048 16.8747C11.7751 16.8747 9.44534 16.8747 7.12185 16.8747C7.08437 16.7747 7.0469 16.6685 7.01567 16.5623C5.46042 11.6876 6.26615 5.088 11.1817 2.45692C13.8737 1.01952 17.1029 0.863275 19.9823 1.80696C22.9179 2.77565 25.079 4.96926 26.4094 7.71908C26.4843 7.87532 26.6155 7.93156 26.7466 7.91906C26.8778 7.93156 27.009 7.87532 27.0839 7.71908C28.2644 5.26924 30.1007 3.22562 32.6303 2.13819C34.9163 1.15701 37.5771 0.925771 39.9818 1.55073C42.9424 2.31943 45.2347 4.23805 46.3215 7.10662Z" fill="#F55845"/>
<path id="Vector_8" d="M46.1841 17.3747C46.4652 17.3747 46.74 17.3747 47.0211 17.3747C45.8906 20.4682 43.8419 23.1743 41.2311 25.2429C36.4904 28.9927 31.756 32.7424 27.0215 36.4922C26.9591 36.5422 26.8966 36.5672 26.8279 36.5734C27.1027 36.5047 27.3026 36.161 27.0215 35.9422C26.9278 35.8672 26.8404 35.7985 26.7467 35.7235C28.7766 34.1111 30.8066 32.505 32.8365 30.8988C35.4161 28.8552 37.9957 26.8116 40.5815 24.768C43.0674 22.7993 45.0536 20.2933 46.1841 17.3747Z" fill="#193E69"/>
<path id="Vector_9" d="M46.5526 31.5988C46.5713 31.6863 46.5651 31.7613 46.5401 31.83C46.5026 31.8862 46.4589 31.9425 46.4089 31.9987C46.209 32.1425 45.878 32.1175 45.8031 31.805C45.7843 31.7425 45.7656 31.6738 45.7406 31.6113C45.953 31.3863 46.1466 31.1488 46.2965 30.8926C46.4089 31.1175 46.4964 31.3613 46.5526 31.5988Z" fill="#193E69"/>
<path id="Vector_10" d="M46.4089 31.9987C46.4589 31.9425 46.5026 31.8862 46.5401 31.83C46.5151 31.8987 46.4651 31.955 46.4089 31.9987Z" fill="#193E69"/>
<path id="Vector_11" d="M39.9881 16.5935C42.1429 16.5935 44.304 16.5935 46.4589 16.5935C46.3715 16.856 46.2778 17.1185 46.1841 17.3747C44.2041 17.3747 42.2241 17.3747 40.2442 17.3747C40.2816 17.281 40.3254 17.181 40.3628 17.0872C40.2379 17.181 40.113 17.281 39.9881 17.3747C40.0755 17.3747 40.1567 17.3747 40.2442 17.3747C39.8632 18.3184 39.4822 19.2558 39.0949 20.1995C38.9575 20.5307 38.4391 20.6057 38.3392 20.1995C38.3204 20.137 38.3079 20.0683 38.2892 20.0058L38.3392 19.9933C38.589 19.9933 38.8388 19.9933 39.0949 19.9933C39.0012 19.6121 38.9013 19.2308 38.8076 18.8496C39.0762 18.1934 39.3448 17.5372 39.6133 16.881C39.6758 16.7185 39.8007 16.5935 39.9881 16.5935Z" fill="#193E69"/>
<path id="Vector_12" d="M46.4089 31.9987C46.3215 32.105 46.2278 32.2112 46.1279 32.3175C44.3415 34.1861 42.5614 36.0485 40.7751 37.9171C40.4253 38.2796 39.8756 37.7234 40.2254 37.3609C41.2248 36.3172 42.2241 35.2735 43.2235 34.2236C43.8668 33.5549 44.5101 32.8799 45.1535 32.2112C45.3409 32.0175 45.547 31.8175 45.7406 31.6113C45.7656 31.6738 45.7843 31.7425 45.8031 31.805C45.878 32.1175 46.209 32.1425 46.4089 31.9987Z" fill="#193E69"/>
<path id="Vector_13" d="M40.2442 17.3747C42.2241 17.3747 44.2041 17.3747 46.1841 17.3747C45.0536 20.2933 43.0673 22.7993 40.5815 24.768C37.9956 26.8116 35.416 28.8552 32.8365 30.8988C30.8065 32.505 28.7766 34.1111 26.7467 35.7235C22.3558 32.2487 17.9648 28.7677 13.5739 25.2929C13.0056 24.843 12.4122 24.4055 11.8563 23.9368C9.90756 22.2931 8.36481 20.0433 7.40918 17.6559C9.15805 17.6559 10.9132 17.6559 12.662 17.6559C13.2429 17.6559 13.8238 17.6559 14.4109 17.6559C14.5795 17.6559 14.7419 17.5372 14.7857 17.3684C15.2728 15.4186 15.76 13.4687 16.2472 11.5188C17.0654 14.8124 17.8899 18.1059 18.7144 21.3994C18.8518 21.9432 18.9829 22.4869 19.1203 23.0243C19.214 23.3931 19.7887 23.4056 19.8699 23.0243C19.8824 22.9556 19.9011 22.8931 19.9136 22.8243C20.4695 20.237 21.0254 17.6434 21.575 15.0498C22.1684 16.8185 22.7617 18.5746 23.3614 20.337C23.48 20.6932 24.0109 20.7307 24.1109 20.337C24.1296 20.2745 24.1421 20.2058 24.1608 20.1433C24.4044 19.2246 24.648 18.2996 24.8854 17.3747C26.4344 17.3747 27.9834 17.3747 29.5324 17.3747C29.7072 17.3747 29.8571 17.2497 29.9071 17.0872C30.5067 15.2248 31.1001 13.3625 31.6935 11.5001C32.418 15.2748 33.1425 19.0558 33.8608 22.8243C33.8733 22.8931 33.8858 22.9556 33.8983 23.0243C33.9732 23.4181 34.5541 23.3743 34.654 23.0243C35.4348 20.2933 36.2155 17.5497 36.9963 14.8124C37.4272 16.5435 37.8582 18.2746 38.2892 20.0058C38.3079 20.0683 38.3204 20.137 38.3392 20.1995C38.4391 20.6057 38.9575 20.5307 39.0949 20.1995C39.4822 19.2558 39.8632 18.3184 40.2442 17.3747Z" fill="#F55845"/>
<path id="Vector_14" d="M46.2965 30.8926C46.1466 31.1488 45.953 31.3863 45.7406 31.6113C45.4908 30.8176 44.8662 30.0801 43.9918 30.0426C42.6801 29.9739 41.4559 31.1488 40.4503 31.8862C39.2386 32.7737 38.0331 33.7174 36.7152 34.4486C35.5847 35.0798 34.5666 35.6798 33.8359 36.7984C32.7366 38.4733 32.6241 40.5357 32.9177 42.4731H32.137C31.8247 40.2607 32.0183 37.9296 33.3861 36.086C34.4167 34.6986 35.8346 34.1299 37.2461 33.2237C38.5266 32.3987 39.732 31.4488 40.9562 30.5551C42.0868 29.7239 43.5733 28.7989 44.9911 29.5052C45.5533 29.7864 46.0092 30.3051 46.2965 30.8926Z" fill="#193E69"/>
<path id="Vector_15" d="M41.9805 44.6542V51.61C41.9805 52.8099 40.9999 53.7848 39.8007 53.7848H31.8308C30.6316 53.7848 29.651 52.8099 29.651 51.61V44.6542C29.651 43.448 30.6316 42.4731 31.8308 42.4731H32.1369C32.1556 42.6106 32.1744 42.7543 32.1993 42.8918C32.2118 42.9855 32.2556 43.0543 32.3055 43.098H31.8308C30.9751 43.098 30.2756 43.7917 30.2756 44.6542V51.61C30.2756 52.4662 30.9751 53.1599 31.8308 53.1599H39.8007C40.6564 53.1599 41.3559 52.4662 41.3559 51.61V44.6542C41.3559 43.7917 40.6564 43.098 39.8007 43.098H32.7677C32.8927 43.0105 32.9801 42.8668 32.9489 42.6793C32.9364 42.6106 32.9239 42.5418 32.9176 42.4731H39.8007C40.4065 42.4731 40.9562 42.723 41.3559 43.123C41.2123 43.3855 41.4683 43.7042 41.7494 43.6855C41.8993 43.973 41.9805 44.3042 41.9805 44.6542Z" fill="#193E69"/>
<path id="Vector_16" d="M41.7494 43.6855C41.4683 43.7042 41.2123 43.3855 41.3559 43.123C41.5183 43.2855 41.6495 43.473 41.7494 43.6855Z" fill="#193E69"/>
<path id="Vector_17" d="M41.356 44.6542V51.61C41.356 52.4662 40.6564 53.1599 39.8007 53.1599H31.8309C30.9752 53.1599 30.2756 52.4662 30.2756 51.61V44.6542C30.2756 43.7917 30.9752 43.098 31.8309 43.098H32.3056C32.4305 43.2043 32.6241 43.1918 32.7678 43.098H39.8007C40.6564 43.098 41.356 43.7917 41.356 44.6542Z" fill="#9AD5F5"/>
<path id="Vector_18" d="M40.3628 17.0872C40.3253 17.181 40.2816 17.281 40.2441 17.3747C40.1567 17.3747 40.0755 17.3747 39.988 17.3747C40.113 17.281 40.2379 17.181 40.3628 17.0872Z" fill="#193E69"/>
<path id="Vector_19" d="M38.8076 18.8496C38.9012 19.2308 39.0012 19.6121 39.0949 19.9933C38.8388 19.9933 38.5889 19.9933 38.3391 19.9933C38.4953 19.6121 38.6514 19.2308 38.8076 18.8496Z" fill="#193E69"/>
<path id="Vector_20" d="M37.4459 13.4C37.9019 15.2186 38.3516 17.031 38.8075 18.8496C38.6514 19.2308 38.4952 19.6121 38.3391 19.9933L38.2891 20.0058C37.8582 18.2746 37.4272 16.5435 36.9962 14.8124C37.1274 14.3436 37.2648 13.8812 37.396 13.4125L37.4459 13.4Z" fill="#193E69"/>
<path id="Vector_21" d="M37.3961 13.2062C37.4148 13.2687 37.4273 13.3375 37.446 13.4L37.3961 13.4125C37.1462 13.4125 36.8964 13.4125 36.6465 13.4125C36.7652 13.8812 36.8776 14.3436 36.9963 14.8124C36.2156 17.5497 35.4348 20.2933 34.6541 23.0243C34.5541 23.3743 33.9733 23.4181 33.8983 23.0243C33.8858 22.9556 33.8733 22.8931 33.8608 22.8243L33.8983 22.8181C34.1482 22.8181 34.398 22.8181 34.6541 22.8181C34.5541 22.2931 34.4542 21.7619 34.3543 21.2369C35.1163 18.5559 35.8783 15.881 36.6465 13.2062C36.7465 12.8375 37.3024 12.825 37.3961 13.2062Z" fill="#193E69"/>
<path id="Vector_22" d="M37.396 13.4125C37.2648 13.8812 37.1274 14.3436 36.9963 14.8124C36.8776 14.3436 36.7652 13.8812 36.6465 13.4125C36.8963 13.4125 37.1462 13.4125 37.396 13.4125Z" fill="#193E69"/>
<path id="Vector_23" d="M34.3543 21.2369C34.4542 21.7619 34.5541 22.2931 34.6541 22.8181C34.398 22.8181 34.1482 22.8181 33.8983 22.8181C34.0482 22.2931 34.1981 21.7619 34.3543 21.2369Z" fill="#193E69"/>
<path id="Vector_24" d="M32.2056 10.0127C32.9239 13.7499 33.636 17.4934 34.3543 21.2369C34.1981 21.7619 34.0482 22.2931 33.8983 22.8181L33.8608 22.8243C33.1425 19.0558 32.418 15.2748 31.6935 11.5001C31.8496 11.0064 32.012 10.5126 32.1682 10.0189L32.2056 10.0127Z" fill="#193E69"/>
<path id="Vector_25" d="M32.9489 42.6793C32.9802 42.8668 32.8927 43.0105 32.7678 43.098H32.3056C32.2556 43.0543 32.2119 42.9855 32.1994 42.8918C32.1744 42.7543 32.1557 42.6106 32.137 42.4731H32.9177C32.924 42.5418 32.9364 42.6106 32.9489 42.6793Z" fill="#193E69"/>
<path id="Vector_26" d="M32.3055 43.098H32.7677C32.6241 43.1918 32.4305 43.2043 32.3055 43.098Z" fill="#193E69"/>
<path id="Vector_27" d="M32.1682 9.81269C32.1807 9.88144 32.1932 9.94393 32.2056 10.0127L32.1682 10.0189C31.9183 10.0189 31.6685 10.0189 31.4124 10.0189C31.5061 10.5126 31.5998 11.0064 31.6935 11.5001C31.1001 13.3625 30.5067 15.2248 29.9071 17.0872C29.8572 17.2497 29.7073 17.3747 29.5324 17.3747C27.9834 17.3747 26.4344 17.3747 24.8854 17.3747C24.9104 17.281 24.9353 17.181 24.9603 17.0872C24.8354 17.181 24.7105 17.281 24.5856 17.3747C24.6855 17.3747 24.7854 17.3747 24.8854 17.3747C24.648 18.2996 24.4044 19.2246 24.1609 20.1433L24.1109 20.1308C23.9672 19.712 23.8298 19.2933 23.6862 18.8746C23.861 18.2121 24.0297 17.5434 24.2046 16.881C24.2483 16.7122 24.4169 16.5935 24.5856 16.5935C26.1408 16.5935 27.6898 16.5935 29.2451 16.5935C29.2138 16.6872 29.1826 16.7872 29.1514 16.881C29.2763 16.7872 29.4075 16.6872 29.5324 16.5935C29.4387 16.5935 29.3387 16.5935 29.2451 16.5935C29.9696 14.3311 30.6941 12.075 31.4124 9.81269C31.5248 9.46896 32.0932 9.40647 32.1682 9.81269Z" fill="#193E69"/>
<path id="Vector_28" d="M32.1681 10.0189C32.012 10.5126 31.8496 11.0064 31.6934 11.5001C31.5997 11.0064 31.506 10.5126 31.4124 10.0189C31.6684 10.0189 31.9183 10.0189 32.1681 10.0189Z" fill="#193E69"/>
<path id="Vector_29" d="M29.5324 16.5935C29.4075 16.6872 29.2763 16.7872 29.1514 16.881C29.1826 16.7872 29.2138 16.6872 29.2451 16.5935C29.3387 16.5935 29.4387 16.5935 29.5324 16.5935Z" fill="#193E69"/>
<path id="Vector_30" d="M27.084 7.32535C27.2276 7.61908 26.9903 7.88782 26.7467 7.91906C26.5031 7.88782 26.2658 7.61908 26.4094 7.32535C26.5156 7.10662 26.628 6.88788 26.7467 6.6754C26.8654 6.88788 26.9778 7.10662 27.084 7.32535Z" fill="#193E69"/>
<path id="Vector_31" d="M27.0215 35.9422C27.3025 36.161 27.1027 36.5047 26.8278 36.5734C26.7716 36.5922 26.7154 36.5859 26.6592 36.5734C26.3844 36.5047 26.1845 36.161 26.4656 35.9422C26.5593 35.8672 26.6529 35.7922 26.7466 35.7235C26.8403 35.7985 26.9278 35.8672 27.0215 35.9422Z" fill="#193E69"/>
<path id="Vector_32" d="M26.7466 7.91906C26.6155 7.93156 26.4843 7.87532 26.4094 7.71908C25.079 4.96926 22.9179 2.77565 19.9823 1.80696C17.1029 0.863274 13.8737 1.01951 11.1817 2.45692C6.26616 5.088 5.46043 11.6876 7.01567 16.5623C7.0469 16.6685 7.08438 16.7747 7.12186 16.8747C6.84079 16.8747 6.56597 16.8747 6.29114 16.8747C5.82894 15.4436 5.56037 13.9624 5.52289 12.4813C5.45419 9.93143 5.96635 7.23786 7.30299 5.038C8.86448 2.48192 11.6502 0.969517 14.5733 0.544545C16.903 0.213317 19.3639 0.582043 21.5 1.57573C23.7923 2.63816 25.5474 4.48179 26.7466 6.6754C26.628 6.88788 26.5155 7.10662 26.4094 7.32535C26.2657 7.61908 26.5031 7.88782 26.7466 7.91906Z" fill="#193E69"/>
<path id="Vector_33" d="M26.7466 35.7235C26.6529 35.7922 26.5592 35.8672 26.4655 35.9422C26.1845 36.161 26.3843 36.5047 26.6592 36.5734C26.5905 36.5672 26.528 36.5422 26.4655 36.4922C24.1233 34.6361 21.7811 32.7799 19.4326 30.9238C16.8717 28.8927 14.3047 26.8616 11.7438 24.8367C9.43906 23.0056 7.62148 20.462 6.56592 17.6559C6.84699 17.6559 7.12805 17.6559 7.40912 17.6559C8.36475 20.0433 9.9075 22.2931 11.8562 23.9368C12.4121 24.4055 13.0055 24.843 13.5739 25.2929C17.9648 28.7677 22.3557 32.2487 26.7466 35.7235Z" fill="#193E69"/>
<path id="Vector_34" d="M24.9603 17.0872C24.9353 17.181 24.9104 17.281 24.8854 17.3747C24.7854 17.3747 24.6855 17.3747 24.5856 17.3747C24.7105 17.281 24.8354 17.181 24.9603 17.0872Z" fill="#193E69"/>
<path id="Vector_35" d="M24.267 44.6542V51.61C24.267 52.8099 23.2864 53.7848 22.0872 53.7848H14.1173C12.9181 53.7848 11.9375 52.8099 11.9375 51.61V44.6542C11.9375 44.3042 12.0187 43.973 12.1686 43.6855C12.4497 43.7042 12.712 43.3855 12.5683 43.1168C12.9681 42.7168 13.5177 42.4731 14.1173 42.4731H21.0004C20.9941 42.5418 20.9816 42.6106 20.9692 42.6793C20.9379 42.8668 21.0254 43.0168 21.1565 43.098H14.1173C13.2616 43.098 12.5621 43.7917 12.5621 44.6542V51.61C12.5621 52.4662 13.2616 53.1599 14.1173 53.1599H22.0872C22.9429 53.1599 23.6424 52.4662 23.6424 51.61V44.6542C23.6424 43.7917 22.9429 43.098 22.0872 43.098H21.6125C21.6625 43.0543 21.7062 42.9855 21.7187 42.8918C21.7437 42.7543 21.7624 42.6168 21.7811 42.4731H22.0872C23.2864 42.4731 24.267 43.448 24.267 44.6542Z" fill="#193E69"/>
<path id="Vector_36" d="M24.1608 20.1433C24.1421 20.2058 24.1296 20.2745 24.1108 20.337C24.0109 20.7307 23.48 20.6932 23.3613 20.337C22.7617 18.5746 22.1684 16.8185 21.575 15.0498C21.6749 14.5999 21.7749 14.1437 21.8686 13.6937C21.6187 13.6937 21.3689 13.6937 21.119 13.6937L21.0753 13.6874C21.0878 13.6187 21.1065 13.5562 21.119 13.4874C21.2065 13.0875 21.7561 13.1437 21.8686 13.4874C22.4744 15.2811 23.0865 17.081 23.6861 18.8746C23.5799 19.2933 23.4675 19.712 23.3613 20.1308C23.6112 20.1308 23.861 20.1308 24.1108 20.1308L24.1608 20.1433Z" fill="#193E69"/>
<path id="Vector_37" d="M23.6861 18.8746C23.8298 19.2933 23.9672 19.712 24.1108 20.1308C23.861 20.1308 23.6112 20.1308 23.3613 20.1308C23.4675 19.712 23.5799 19.2933 23.6861 18.8746Z" fill="#193E69"/>
<path id="Vector_38" d="M23.6425 44.6542V51.61C23.6425 52.4662 22.9429 53.1599 22.0872 53.1599H14.1174C13.2617 53.1599 12.5621 52.4662 12.5621 51.61V44.6542C12.5621 43.7917 13.2617 43.098 14.1174 43.098H21.1566C21.3002 43.1918 21.4876 43.2043 21.6125 43.098H22.0872C22.9429 43.098 23.6425 43.7917 23.6425 44.6542Z" fill="#9AD5F5"/>
<path id="Vector_39" d="M21.8685 13.6937C21.7748 14.1437 21.6749 14.5999 21.575 15.0498C21.4251 14.5999 21.2689 14.1437 21.119 13.6937C21.3689 13.6937 21.6187 13.6937 21.8685 13.6937Z" fill="#193E69"/>
<path id="Vector_40" d="M20.8629 36.5734C21.9435 38.3483 22.0684 40.4607 21.7811 42.4731H21.0004C21.3189 40.3669 21.1503 38.0796 19.7699 36.361C18.8268 35.186 17.5151 34.6861 16.2784 33.8924C15.1479 33.1674 14.0798 32.33 12.993 31.5363C12.0249 30.8301 10.757 29.6864 9.47032 30.1239C8.83324 30.3363 8.38353 30.9676 8.17741 31.5988C8.17117 31.5863 8.15867 31.5738 8.14618 31.5613C7.95256 31.355 7.78392 31.1175 7.64026 30.8738C7.99003 30.1551 8.60214 29.5427 9.37039 29.3364C10.9069 28.9302 12.2748 30.0489 13.4365 30.8988C14.8231 31.9175 16.191 33.0112 17.7025 33.8361C18.9829 34.5298 20.0885 35.2985 20.8629 36.5734Z" fill="#193E69"/>
<path id="Vector_41" d="M21.7811 42.4731C21.7624 42.6168 21.7436 42.7543 21.7186 42.8918C21.7061 42.9855 21.6624 43.0543 21.6124 43.098H21.1565C21.0253 43.0168 20.9379 42.8668 20.9691 42.6793C20.9816 42.6106 20.9941 42.5418 21.0003 42.4731H21.7811Z" fill="#193E69"/>
<path id="Vector_42" d="M21.1565 43.098H21.6124C21.4875 43.2043 21.3002 43.1918 21.1565 43.098Z" fill="#193E69"/>
<path id="Vector_43" d="M21.119 13.6937C21.2689 14.1437 21.4251 14.5999 21.575 15.0498C21.0254 17.6434 20.4695 20.237 19.9136 22.8243L19.8699 22.8181C19.7387 22.2806 19.6013 21.7369 19.4639 21.1994C20.0073 18.6934 20.5382 16.1935 21.0753 13.6874L21.119 13.6937Z" fill="#193E69"/>
<path id="Vector_44" d="M19.9136 22.8243C19.9011 22.8931 19.8823 22.9556 19.8698 23.0243C19.7886 23.4056 19.214 23.3931 19.1203 23.0243C18.9829 22.4869 18.8518 21.9431 18.7143 21.3994C17.8899 18.1059 17.0654 14.8124 16.2472 11.5188C16.3721 11.0189 16.497 10.5189 16.6219 10.0189L16.6719 10.0064C16.7906 10.4814 16.9093 10.9564 17.0279 11.4376C17.8399 14.6936 18.6581 17.9434 19.4639 21.1994C19.3514 21.7369 19.239 22.2806 19.1203 22.8181C19.3702 22.8181 19.62 22.8181 19.8698 22.8181L19.9136 22.8243Z" fill="#193E69"/>
<path id="Vector_45" d="M19.4639 21.1994C19.6013 21.7369 19.7387 22.2806 19.8699 22.8181C19.62 22.8181 19.3702 22.8181 19.1204 22.8181C19.239 22.2806 19.3515 21.7369 19.4639 21.1994Z" fill="#193E69"/>
<path id="Vector_46" d="M16.6219 9.81269C16.6407 9.87519 16.6532 9.94393 16.6719 10.0064L16.6219 10.0189C16.3721 10.0189 16.1222 10.0189 15.8724 10.0189C15.9973 10.5189 16.1222 11.0189 16.2472 11.5188C15.76 13.4687 15.2728 15.4186 14.7856 17.3684C14.7419 17.5372 14.5795 17.6559 14.4109 17.6559C13.8237 17.6559 13.2429 17.6559 12.662 17.6559C10.9131 17.6559 9.15801 17.6559 7.40914 17.6559C7.30296 17.3997 7.20927 17.1372 7.12183 16.8747C9.44532 16.8747 11.7751 16.8747 14.1048 16.8747C14.0798 16.9685 14.0548 17.0685 14.0299 17.1622C14.161 17.0685 14.2859 16.9747 14.4109 16.8747C14.3109 16.8747 14.2047 16.8747 14.1048 16.8747C14.6919 14.5186 15.2853 12.1688 15.8724 9.81269C15.9599 9.43772 16.5282 9.43772 16.6219 9.81269Z" fill="#193E69"/>
<path id="Vector_47" d="M16.622 10.0189C16.497 10.5189 16.3721 11.0189 16.2472 11.5188C16.1223 11.0189 15.9974 10.5189 15.8724 10.0189C16.1223 10.0189 16.3721 10.0189 16.622 10.0189Z" fill="#193E69"/>
<path id="Vector_48" d="M14.4109 16.8747C14.286 16.9747 14.1611 17.0685 14.0299 17.1622C14.0549 17.0685 14.0799 16.9685 14.1049 16.8747C14.2048 16.8747 14.311 16.8747 14.4109 16.8747Z" fill="#193E69"/>
<path id="Vector_49" d="M13.6988 37.3609C14.0423 37.7234 13.4927 38.2796 13.1429 37.9171C11.2629 35.9485 9.32038 34.0174 7.49032 32.005C7.46533 31.98 7.44035 31.9487 7.42786 31.9237C7.60899 32.1487 8.02747 32.1612 8.12116 31.805C8.1399 31.7363 8.15863 31.6675 8.17737 31.5988C9.98245 33.5486 11.8625 35.4423 13.6988 37.3609Z" fill="#193E69"/>
<path id="Vector_50" d="M12.5683 43.1168C12.712 43.3855 12.4496 43.7042 12.1686 43.6855C12.2685 43.473 12.4059 43.2793 12.5683 43.1168Z" fill="#193E69"/>
<path id="Vector_51" d="M12.4934 43.0168C12.5246 43.048 12.5496 43.0855 12.5683 43.1168C12.4059 43.2793 12.2685 43.473 12.1686 43.6855C12.0936 43.6792 12.0124 43.648 11.9375 43.573C9.77015 41.4856 7.59031 39.4045 5.43546 37.3046C4.74216 36.6297 4.39863 35.8422 3.99264 34.986C3.24313 33.3924 2.48737 31.7925 1.7316 30.1989C1.24442 29.1614 0.476167 27.9803 0.295035 26.8303C0.151378 25.8991 0.388724 24.743 1.13824 24.1118C1.98144 23.3993 3.26186 23.6305 4.10507 24.218C5.32928 25.0679 5.81021 26.8366 6.39109 28.1365C6.77834 29.0052 7.10937 30.0301 7.64028 30.8738C7.51536 31.1051 7.42792 31.355 7.36546 31.5988C7.33423 31.73 7.36546 31.8425 7.42792 31.9237C6.62843 30.9988 6.22869 29.6926 5.74775 28.599C5.21685 27.4115 4.71093 25.4804 3.53044 24.7742C2.94332 24.4242 2.05639 24.2555 1.53798 24.8055C1.1195 25.2367 0.994582 25.9741 1.0508 26.5428C1.09452 27.0678 1.31313 27.4928 1.53173 27.9553C2.18131 29.3302 2.83089 30.7051 3.48047 32.08C4.03636 33.2487 4.57976 34.4298 5.14814 35.5985C5.54164 36.4172 6.20371 36.9609 6.84704 37.5796C8.72708 39.392 10.6071 41.2044 12.4934 43.0168Z" fill="#193E69"/>
<path id="Vector_52" d="M8.14615 31.5613C8.15864 31.5738 8.17113 31.5863 8.17738 31.5988C8.15864 31.6675 8.1399 31.7363 8.12116 31.805C8.02747 32.1612 7.60899 32.1487 7.42786 31.9237C7.3654 31.8425 7.33417 31.73 7.3654 31.5988C7.42786 31.355 7.5153 31.1051 7.64022 30.8738C7.78388 31.1176 7.95252 31.355 8.14615 31.5613Z" fill="#193E69"/>
<path id="Vector_53" d="M7.40916 17.6559C7.1281 17.6559 6.84703 17.6559 6.56596 17.6559C6.46602 17.3997 6.37858 17.1372 6.29114 16.8747C6.56596 16.8747 6.84078 16.8747 7.12185 16.8747C7.20929 17.1372 7.30298 17.3997 7.40916 17.6559Z" fill="#193E69"/>
<path id="Vector_54" d="M6.56603 17.6559C4.61105 17.6559 2.65606 17.6559 0.701078 17.6559C0.195155 17.6559 0.201401 16.8747 0.701078 16.8747C1.28195 16.8747 1.86907 16.8747 2.44995 16.8747C3.73037 16.8747 5.01079 16.8747 6.29121 16.8747C6.37865 17.1372 6.46609 17.3997 6.56603 17.6559Z" fill="#193E69"/>
</g>
</g>
</g>
</g>
<defs>
<clipPath id="clip0_220_639">
<rect width="53.6715" height="53.6715" fill="white" transform="translate(0.10144 0.269562)"/>
</clipPath>
</defs>
</svg>
