<svg width="39" height="46" viewBox="0 0 39 46" fill="none" xmlns="http://www.w3.org/2000/svg">
<g id="Frame" clip-path="url(#clip0_219_635)">
<g id="Vector">
<path d="M4.36834 17.145C4.36834 17.2667 4.36834 17.3934 4.37834 17.5151C4.39833 17.9663 4.45332 19.2945 4.37834 20.8255C4.27337 23.046 3.45861 25.1753 2.06403 26.8837C0.594468 28.6885 -0.965067 31.7151 1.8391 34.5338C2.75382 35.4564 4.01345 35.9482 5.30306 35.9482H33.4097C34.6993 35.9482 35.9589 35.4564 36.8737 34.5338C39.6728 31.7201 38.1183 28.6885 36.6487 26.8837C35.2541 25.1702 34.4394 23.041 34.3344 20.8255C34.2644 19.2945 34.3144 17.9663 34.3344 17.5151C34.3394 17.3934 34.3444 17.2667 34.3444 17.145" fill="#F9C66C"/>
<path d="M4.36834 17.145C4.36834 17.2667 4.36834 17.3934 4.37834 17.5151C4.39833 17.9663 4.45332 19.2945 4.37834 20.8255C4.27337 23.046 3.45861 25.1753 2.06403 26.8837C0.594468 28.6885 -0.965067 31.7151 1.8391 34.5338C2.75382 35.4564 4.01345 35.9482 5.30307 35.9482H33.4097C34.6993 35.9482 35.9589 35.4564 36.8737 34.5338C39.6728 31.7201 38.1183 28.6885 36.6487 26.8837C35.2541 25.1702 34.4394 23.041 34.3344 20.8255C34.2644 19.2945 34.3144 17.9663 34.3344 17.5151C34.3394 17.3934 34.3444 17.2667 34.3444 17.145" stroke="#030000" stroke-miterlimit="10"/>
</g>
<g id="Vector_2">
<path d="M34.2995 17.3478C34.2995 8.20728 27.6015 0.795509 19.3339 0.795509C11.1314 0.795509 4.46838 8.09575 4.36841 17.145" fill="#F9C66C"/>
<path d="M34.2995 17.3478C34.2995 8.20728 27.6015 0.795509 19.3339 0.795509C11.1314 0.795509 4.46838 8.09575 4.36841 17.145" stroke="#030000" stroke-miterlimit="10"/>
</g>
<g id="Vector_3">
<path d="M28.1063 35.9482C28.2663 36.5211 28.3513 37.1243 28.3513 37.7428C28.3513 41.9557 24.4024 45.3726 19.5239 45.3726C14.6454 45.3726 10.6965 41.9557 10.6965 37.7428C10.6965 37.1243 10.7815 36.5261 10.9415 35.9482" fill="#F9C66C"/>
<path d="M28.1063 35.9482C28.2663 36.5211 28.3513 37.1243 28.3513 37.7428C28.3513 41.9557 24.4024 45.3726 19.5239 45.3726C14.6454 45.3726 10.6965 41.9557 10.6965 37.7428C10.6965 37.1243 10.7815 36.5261 10.9415 35.9482" stroke="#030000" stroke-miterlimit="10"/>
</g>
</g>
<defs>
<clipPath id="clip0_219_635">
<rect width="38.6435" height="45.0841" fill="white" transform="translate(0.034668 0.54203)"/>
</clipPath>
</defs>
</svg>
