<svg width="31" height="31" viewBox="0 0 31 31" fill="none" xmlns="http://www.w3.org/2000/svg">
<g id="fi-rr-comment-info" clip-path="url(#clip0_99_446)">
<g id="Vector">
<path d="M30.0329 18.0952C31.16 3.44285 19.2315 1.0321 13.1264 1.65827C3.73388 2.78538 2.01192 13.0858 2.325 18.0952C4.2035 27.112 15.6311 29.3662 21.11 29.3662C30.1268 30.869 30.8156 22.4783 30.0329 18.0952Z" fill="white"/>
<path d="M17.8225 8.38944C17.8225 8.88765 17.6246 9.36546 17.2723 9.71774C16.92 10.07 16.4422 10.2679 15.944 10.2679C15.4458 10.2679 14.968 10.07 14.6157 9.71774C14.2634 9.36546 14.0655 8.88765 14.0655 8.38944C14.0655 7.89123 14.2634 7.41343 14.6157 7.06114C14.968 6.70885 15.4458 6.51094 15.944 6.51094C16.4422 6.51094 16.92 6.70885 17.2723 7.06114C17.6246 7.41343 17.8225 7.89123 17.8225 8.38944ZM30.972 24.0436V15.7031C31.0187 11.8427 29.6033 8.10753 27.01 5.24755C24.4167 2.38756 20.8375 0.614491 16.9909 0.284328C14.844 0.13412 12.6898 0.446806 10.6742 1.20123C8.65857 1.95565 6.8285 3.13421 5.3078 4.65717C3.7871 6.18012 2.61125 8.01194 1.85982 10.0287C1.10838 12.0454 0.798891 14.2001 0.952281 16.3468C1.50581 24.3041 8.53266 30.3053 17.3003 30.3053H24.7103C26.3704 30.3033 27.9619 29.643 29.1358 28.4691C30.3097 27.2952 30.97 25.7037 30.972 24.0436ZM16.8206 2.78399C20.0347 3.06831 23.0221 4.55844 25.1826 6.95496C27.3431 9.35148 28.5166 12.4768 28.4673 15.7031V24.0436C28.4673 25.04 28.0715 25.9957 27.3669 26.7002C26.6624 27.4048 25.7068 27.8006 24.7103 27.8006H17.3003C9.74367 27.8006 3.92157 22.9165 3.45194 16.174C3.32865 14.4565 3.56086 12.732 4.13407 11.1083C4.70727 9.48466 5.60916 7.99662 6.78337 6.7372C7.95758 5.47778 9.3789 4.47403 10.9585 3.78867C12.5381 3.10331 14.2421 2.75106 15.964 2.75393C16.2483 2.75393 16.5351 2.7652 16.8206 2.78399ZM18.4487 22.7913V15.2773C18.4487 14.613 18.1848 13.9759 17.7151 13.5062C17.2453 13.0365 16.6083 12.7726 15.944 12.7726H14.6916C14.3595 12.7726 14.041 12.9046 13.8061 13.1394C13.5713 13.3743 13.4393 13.6928 13.4393 14.0249C13.4393 14.3571 13.5713 14.6756 13.8061 14.9105C14.041 15.1453 14.3595 15.2773 14.6916 15.2773H15.944V22.7913C15.944 23.1234 16.0759 23.442 16.3108 23.6768C16.5456 23.9117 16.8642 24.0436 17.1963 24.0436C17.5285 24.0436 17.847 23.9117 18.0819 23.6768C18.3167 23.442 18.4487 23.1234 18.4487 22.7913Z" fill="#262628"/>
</g>
</g>
<defs>
<clipPath id="clip0_99_446">
<rect width="30.056" height="30.056" fill="white" transform="translate(0.916016 0.249268)"/>
</clipPath>
</defs>
</svg>
