<svg width="64" height="73" viewBox="0 0 64 73" fill="none" xmlns="http://www.w3.org/2000/svg">
<g id="Frame" clip-path="url(#clip0_217_594)">
<g id="Group">
<g id="XMLID_1_">
<g id="Group_2">
<path id="Vector" d="M63.2214 64.8284L57.651 70.5082L57.3535 70.2201L57.9072 69.611L57.6263 69.3558L62.0396 64.8531L62.3702 65.1494L62.9239 64.5403L63.2214 64.8284Z" fill="white"/>
<path id="Vector_2" d="M62.9239 64.5403L62.3701 65.1494L62.0396 64.8531L62.6181 64.2604L62.9239 64.5403Z" fill="#193E69"/>
<path id="Vector_3" d="M62.924 64.5403L62.6182 64.2604L62.6264 64.2522L62.924 64.5403Z" fill="#193E69"/>
<path id="Vector_4" d="M62.6181 64.2604L62.0396 64.8531L54.5518 58.0784L55.1386 57.494L62.6181 64.2604Z" fill="#193E69"/>
<path id="Vector_5" d="M54.5518 58.0784L62.0396 64.8531L57.6262 69.3558L50.0806 62.5317L54.5518 58.0784Z" fill="white"/>
<path id="Vector_6" d="M57.9073 69.611L57.3536 70.2201L57.056 69.932L57.6263 69.3558L57.9073 69.611Z" fill="#193E69"/>
<path id="Vector_7" d="M57.6262 69.3558L57.056 69.932L57.3535 70.2201L49.4938 63.1162L50.0806 62.5317L57.6262 69.3558Z" fill="#193E69"/>
<path id="Vector_8" d="M56.4774 52.341C56.9898 52.8431 57.2708 53.5264 57.2708 54.2507C57.2708 54.9669 56.9898 55.6501 56.4774 56.1605L55.1385 57.494L54.7749 57.1647L54.2212 57.7739L54.5518 58.0784L50.0806 62.5318L49.7582 62.2437L49.2045 62.8528L49.4938 63.1162L48.5846 64.0217C48.0722 64.532 47.3863 64.8119 46.6672 64.8119C45.9399 64.8119 45.2622 64.532 44.7498 64.0217L41.9977 61.2806C42.2787 61.1735 42.5514 61.0583 42.8242 60.9348L45.3284 63.4372C46.0474 64.1452 47.2871 64.1452 47.9978 63.4372L55.8906 55.576C56.246 55.2221 56.4444 54.7529 56.4444 54.2507C56.4444 53.7486 56.246 53.2712 55.8906 52.9172L53.0641 50.102C53.1715 49.8221 53.2707 49.534 53.3616 49.2377L56.4774 52.341Z" fill="#193E69"/>
<path id="Vector_9" d="M55.8907 52.9172C56.2461 53.2712 56.4444 53.7486 56.4444 54.2507C56.4444 54.7529 56.2461 55.2221 55.8907 55.576L47.9979 63.4372C47.2872 64.1452 46.0474 64.1452 45.3284 63.4372L42.8242 60.9348C47.5268 58.844 51.2377 54.934 53.0642 50.102L55.8907 52.9172Z" fill="white"/>
<path id="Vector_10" d="M55.1386 57.494L54.5518 58.0784L54.2212 57.7739L54.7749 57.1647L55.1386 57.494Z" fill="#193E69"/>
<path id="Vector_11" d="M54.2956 43.3356C54.2956 45.3935 53.9733 47.3773 53.3617 49.2377L53.1964 49.073L52.6178 49.6575L53.0641 50.102C51.2376 54.9339 47.5268 58.844 42.8242 60.9348L42.3944 60.5068L41.8076 61.0912L41.9977 61.2805C39.8076 62.1366 37.4356 62.6058 34.9479 62.6058C33.5099 62.6058 32.0883 62.4494 30.6999 62.1366L30.6255 61.3052L30.6338 61.2723C32.0388 61.6098 33.4851 61.7827 34.9479 61.7827C45.1631 61.7827 53.4691 53.5099 53.4691 43.3356C53.4691 33.1613 45.1631 24.8885 34.9479 24.8885C34.7165 24.8885 34.4934 24.8885 34.2702 24.9049L34.9314 24.5839L34.6752 24.0735C34.7661 24.0653 34.857 24.0653 34.9479 24.0653C45.6176 24.0653 54.2956 32.7085 54.2956 43.3356Z" fill="#193E69"/>
<path id="Vector_12" d="M53.3616 49.2377C53.2707 49.534 53.1715 49.8221 53.0641 50.102L52.6178 49.6575L53.1963 49.073L53.3616 49.2377Z" fill="#193E69"/>
<path id="Vector_13" d="M50.0805 62.5318L49.4937 63.1162L49.2045 62.8528L49.7582 62.2437L50.0805 62.5318Z" fill="#193E69"/>
<path id="Vector_14" d="M34.9479 24.8885C45.1631 24.8885 53.4691 33.1613 53.4691 43.3356C53.4691 53.5099 45.1631 61.7827 34.9479 61.7827C33.4851 61.7827 32.0388 61.6098 30.6338 61.2723C27.799 60.6055 25.146 59.2638 22.9063 57.3458C22.8319 57.2882 22.7575 57.2306 22.6914 57.1647C20.6748 55.3867 19.0963 53.2218 18.0218 50.8264L18.0466 50.5629L17.9061 50.5547C16.9392 48.2992 16.4268 45.8462 16.4268 43.3356C16.4268 33.4247 24.3113 25.3083 34.1711 24.9049L34.1876 24.9461L34.2702 24.9049C34.4934 24.8885 34.7165 24.8885 34.9479 24.8885ZM48.8657 43.3356C48.8657 35.6884 42.6258 29.4735 34.9479 29.4735C27.27 29.4735 21.0302 35.6884 21.0302 43.3356C21.0302 47.3032 22.741 51.0898 25.7328 53.7239C28.2783 55.9629 31.5512 57.1977 34.9479 57.1977C42.6258 57.1977 48.8657 50.9828 48.8657 43.3356Z" fill="white"/>
<path id="Vector_15" d="M34.9479 29.4735C42.6258 29.4735 48.8657 35.6884 48.8657 43.3356C48.8657 50.9828 42.6258 57.1977 34.9479 57.1977C31.5511 57.1977 28.2783 55.9629 25.7328 53.7239C22.7409 51.0898 21.0302 47.3032 21.0302 43.3356C21.0302 35.6884 27.27 29.4735 34.9479 29.4735ZM48.0392 43.3356C48.0392 36.1411 42.1712 30.2967 34.9479 30.2967C27.7328 30.2967 21.8566 36.1411 21.8566 43.3356C21.8566 47.0727 23.4682 50.637 26.2782 53.1065C27.4766 54.1602 28.8403 54.9751 30.3114 55.5266C31.7825 56.0864 33.3528 56.3745 34.9479 56.3745C42.1712 56.3745 48.0392 50.5218 48.0392 43.3356Z" fill="#193E69"/>
<path id="Vector_16" d="M42.8242 60.9348C42.5514 61.0583 42.2787 61.1735 41.9977 61.2806L41.8076 61.0912L42.3944 60.5068L42.8242 60.9348Z" fill="#193E69"/>
<path id="Vector_17" d="M38.4191 35.5073L36.4934 44.6033H34.6173L32.5181 35.5073H38.4191ZM35.8239 43.7801L37.4025 36.3305H33.5594L35.2785 43.7801H35.8239Z" fill="#D54240"/>
<path id="Vector_18" d="M37.4025 36.3304L35.824 43.7801H35.2785L33.5594 36.3304H37.4025Z" fill="#D54240"/>
<path id="Vector_19" d="M35.5264 46.6447C36.6835 46.6447 37.6174 47.5749 37.6174 48.7191C37.6174 49.8715 36.6835 50.8017 35.5264 50.8017C34.3776 50.8017 33.4437 49.8715 33.4437 48.7191C33.4437 47.5749 34.3776 46.6447 35.5264 46.6447ZM36.7909 48.7191C36.7909 48.0276 36.2289 47.4678 35.5264 47.4678C34.8322 47.4678 34.2702 48.0276 34.2702 48.7191C34.2702 49.4105 34.8322 49.9785 35.5264 49.9785C36.2289 49.9785 36.7909 49.4105 36.7909 48.7191Z" fill="#D54240"/>
<path id="Vector_20" d="M35.5265 47.4679C36.229 47.4679 36.791 48.0276 36.791 48.7191C36.791 49.4105 36.229 49.9785 35.5265 49.9785C34.8323 49.9785 34.2703 49.4105 34.2703 48.7191C34.2703 48.0276 34.8323 47.4679 35.5265 47.4679Z" fill="#D54240"/>
<path id="Vector_21" d="M34.6752 24.0735L34.9314 24.5839L34.2703 24.9049C34.2372 24.9049 34.2041 24.9049 34.1711 24.9049L33.7661 24.1065C34.0636 24.0818 34.3694 24.0735 34.6752 24.0735Z" fill="#193E69"/>
<path id="Vector_22" d="M31.766 18.2209L34.6752 24.0735C34.3694 24.0735 34.0636 24.0818 33.7661 24.1065L31.0305 18.5913C30.485 17.4965 29.4189 16.8132 28.2535 16.8132H19.9475C21.212 16.8132 22.4104 16.5169 23.4683 15.9901H28.2535C29.7412 15.9901 31.0883 16.8462 31.766 18.2209Z" fill="#193E69"/>
<path id="Vector_23" d="M34.2692 24.9049L34.1874 24.9457L34.171 24.9049C34.2038 24.9049 34.2365 24.9049 34.2692 24.9049Z" fill="#193E69"/>
<path id="Vector_24" d="M33.766 24.1065L34.171 24.9049C24.3112 25.3083 16.4267 33.4247 16.4267 43.3356C16.4267 45.8462 16.9391 48.2993 17.9061 50.5547L17.2284 50.4971L17.187 50.9663C16.154 48.5874 15.6002 45.9862 15.6002 43.3356C15.6002 33.1037 23.6418 24.7156 33.766 24.1065Z" fill="#193E69"/>
<path id="Vector_25" d="M31.0304 18.5913L33.766 24.1065C23.6418 24.7156 15.6002 33.1037 15.6002 43.3356C15.6002 45.9862 16.154 48.5874 17.187 50.9663L15.749 68.2363C15.625 69.7921 14.5919 71.0927 13.1869 71.4631C12.3687 71.6771 11.5671 71.5619 10.8067 71.1091C9.66617 70.4424 9.005 69.0841 9.12897 67.6518L10.8563 47.7395V31.1939C10.8563 30.8564 10.6249 30.5848 10.2943 30.5189C9.9637 30.4613 9.65791 30.6342 9.53394 30.947L6.28591 39.4256C5.83962 40.6027 4.84786 41.4094 3.76518 41.4752C2.65771 41.5493 1.83124 40.8332 1.31057 39.3597C1.0461 38.6189 1.07089 37.7792 1.37668 36.9972L8.40994 18.8712C8.89756 17.6199 10.0381 16.8132 11.3108 16.8132H19.9144H19.9475H28.2535C29.4188 16.8132 30.4849 17.4965 31.0304 18.5913Z" fill="white"/>
<path id="Vector_26" d="M31.171 67.5777C31.3198 69.3311 30.5016 70.9939 29.0883 71.817C28.4436 72.2039 27.7742 72.3932 27.0882 72.3932C26.7576 72.3932 26.4188 72.3439 26.0799 72.2533C24.3361 71.8006 23.0633 70.2119 22.898 68.3104L22.022 57.6751C22.055 57.7162 22.0964 57.7492 22.1377 57.7821C22.3856 58.0043 22.6418 58.2184 22.9063 58.4159L23.7245 68.2363C23.8567 69.792 24.8898 71.0926 26.2948 71.4631C27.1048 71.6771 27.9064 71.5618 28.6668 71.1091C29.8156 70.4423 30.4685 69.0841 30.3445 67.6518L29.8486 61.9226C30.1296 62.0049 30.4106 62.0708 30.6999 62.1366L31.171 67.5777Z" fill="#193E69"/>
<path id="Vector_27" d="M30.6255 61.3052L30.6999 62.1366C30.4107 62.0708 30.1297 62.0049 29.8487 61.9226L29.7991 61.3711L30.6255 61.3052Z" fill="#193E69"/>
<path id="Vector_28" d="M30.6337 61.2723L30.6255 61.3052L29.799 61.3711L29.8486 61.9226C27.3361 61.2394 24.9642 60.054 22.9063 58.4159L22.8236 57.4364L22.9063 57.3458C25.146 59.2638 27.799 60.6056 30.6337 61.2723Z" fill="#193E69"/>
<path id="Vector_29" d="M30.3445 67.6518C30.4684 69.0841 29.8155 70.4423 28.6667 71.1091C27.9064 71.5618 27.1047 71.6771 26.2948 71.4631C24.8898 71.0926 23.8567 69.792 23.7245 68.2363L22.9062 58.4159C24.9642 60.054 27.3361 61.2394 29.8486 61.9226L30.3445 67.6518Z" fill="white"/>
<path id="Vector_30" d="M27.9395 8.85325C27.9395 11.9813 26.113 14.6977 23.4683 15.9901H19.9475C23.8981 15.9901 27.113 12.788 27.113 8.85325C27.113 4.9103 23.8981 1.70819 19.9475 1.70819C15.997 1.70819 12.782 4.9103 12.782 8.85325C12.782 12.788 15.997 15.9901 19.9475 15.9901H16.4268C13.7821 14.6977 11.9556 11.9813 11.9556 8.85325C11.9556 4.45756 15.5424 0.885025 19.9475 0.885025C24.3526 0.885025 27.9395 4.45756 27.9395 8.85325Z" fill="#193E69"/>
<path id="Vector_31" d="M19.9475 1.70819C23.898 1.70819 27.113 4.9103 27.113 8.85325C27.113 12.788 23.898 15.9901 19.9475 15.9901C15.9969 15.9901 12.782 12.788 12.782 8.85325C12.782 4.9103 15.9969 1.70819 19.9475 1.70819Z" fill="white"/>
<path id="Vector_32" d="M19.9475 15.9901H23.4683C22.4104 16.5169 21.212 16.8132 19.9475 16.8132H19.9145C18.6582 16.805 17.4764 16.5087 16.4268 15.9901H19.9475Z" fill="#193E69"/>
<path id="Vector_33" d="M22.9063 57.3458L22.8237 57.4364L22.0055 57.5022L22.022 57.6751C20.3277 56.1605 18.9393 54.3742 17.8896 52.4151L18.0219 50.8264C19.0963 53.2218 20.6749 55.3867 22.6914 57.1647C22.7576 57.2306 22.8319 57.2882 22.9063 57.3458Z" fill="#193E69"/>
<path id="Vector_34" d="M22.8236 57.4364L22.9062 58.4159C22.6418 58.2184 22.3855 58.0044 22.1376 57.7821C22.0963 57.7492 22.055 57.7162 22.0219 57.6751L22.0054 57.5022L22.8236 57.4364Z" fill="#193E69"/>
<path id="Vector_35" d="M19.9144 16.8132H11.3109C10.0381 16.8132 8.8976 17.6199 8.40998 18.8712L1.37673 36.9972C1.07093 37.7792 1.04614 38.6189 1.31061 39.3597C1.83128 40.8332 2.65775 41.5493 3.76522 41.4752C4.8479 41.4094 5.83966 40.6027 6.28596 39.4256L9.53398 30.947C9.65795 30.6342 9.96375 30.4613 10.2943 30.5189C10.6249 30.5848 10.8563 30.8564 10.8563 31.1939V47.7395L9.12901 67.6518C9.00504 69.0841 9.66622 70.4424 10.8067 71.1091C11.5671 71.5619 12.3688 71.6771 13.187 71.4631C14.592 71.0927 15.6251 69.7921 15.749 68.2363L17.1871 50.9663C17.2284 51.0651 17.2697 51.1556 17.3111 51.2544C17.4929 51.6495 17.683 52.0364 17.8896 52.4151L16.5755 68.3104C16.4185 70.2119 15.1374 71.8006 13.3936 72.2533C13.0547 72.3439 12.7242 72.3933 12.3936 72.3933C11.7076 72.3933 11.0299 72.2039 10.3852 71.817C8.97198 70.9939 8.15378 69.3311 8.31081 67.5777L10.0299 47.6983V31.9677L7.06284 39.7219C6.49257 41.2036 5.21981 42.2161 3.81481 42.2984C2.77346 42.356 1.3602 41.9527 0.533727 39.6313C0.203139 38.7094 0.227933 37.664 0.599845 36.7009L7.64137 18.5748C8.25295 17.0026 9.69101 15.9901 11.3109 15.9901H16.4267C17.4764 16.5087 18.6582 16.805 19.9144 16.8132Z" fill="#193E69"/>
<path id="Vector_36" d="M18.0466 50.5629L18.0218 50.8264C17.9805 50.7358 17.9475 50.6453 17.9061 50.5547L18.0466 50.5629Z" fill="#193E69"/>
<path id="Vector_37" d="M17.9062 50.5547C17.9475 50.6453 17.9805 50.7358 18.0219 50.8264L17.8896 52.4151C17.683 52.0364 17.4929 51.6495 17.3111 51.2544C17.2698 51.1556 17.2285 51.0651 17.1871 50.9663L17.2285 50.4971L17.9062 50.5547Z" fill="#193E69"/>
</g>
</g>
</g>
</g>
<defs>
<clipPath id="clip0_217_594">
<rect width="63.3324" height="71.9198" fill="white" transform="translate(0.0957031 0.67923)"/>
</clipPath>
</defs>
</svg>
