<svg width="35" height="32" viewBox="0 0 35 32" fill="none" xmlns="http://www.w3.org/2000/svg">
<path fill-rule="evenodd" clip-rule="evenodd" d="M5.84376 4.59434C4.49903 6.30558 3.68424 8.6436 3.68424 11.0845C3.68424 12.5008 3.92782 13.856 4.35663 15.1463H12.3562L15.4768 9.59855L17.4267 16.4232L19.8128 13.3554H25.7897V15.1975H20.7138L16.6525 20.4192L14.9182 14.349L13.4335 16.9884H0V15.1463H2.4278C2.05427 13.858 1.84212 12.5017 1.84212 11.0845C1.84212 8.25196 2.78274 5.50831 4.39532 3.45619C6.01231 1.39838 8.34122 0 11.0815 0C14.3085 0 16.7625 1.80838 18.4212 4.36012C20.0799 1.8085 22.5338 0 25.761 0C28.5015 0 30.8304 1.39863 32.4473 3.45646C34.0598 5.50877 35.0003 8.25242 35.0003 11.0845C35.0003 17.1474 30.8153 22.2104 26.8559 25.6663C24.8535 27.414 22.8556 28.7974 21.3601 29.7433C20.6115 30.2169 19.9864 30.5824 19.5465 30.8305C19.3264 30.9545 19.1525 31.0494 19.0324 31.1138C18.9725 31.146 18.9259 31.1706 18.8936 31.1875L18.8563 31.2069L18.8459 31.2122L18.8429 31.2139L18.8419 31.2144C18.8419 31.2144 18.8412 31.2147 18.4212 30.395C18.0217 31.2249 18.0214 31.2248 18.0214 31.2248L18.0159 31.2221L18.003 31.2158L17.9565 31.193C17.9166 31.1732 17.8586 31.1442 17.7842 31.1063C17.6354 31.0304 17.4203 30.9185 17.1498 30.7718C16.6089 30.4783 15.8452 30.0449 14.9449 29.4802C13.1478 28.3528 10.7903 26.6926 8.57341 24.5685C7.39086 23.4355 6.2423 22.1648 5.23861 20.7663C4.942 20.353 5.03658 19.7776 5.44984 19.481C5.8631 19.1844 6.43858 19.279 6.73516 19.6923C7.66037 20.9813 8.72999 22.1673 9.84779 23.2384C11.9469 25.2495 14.1947 26.835 15.9238 27.9196C16.7868 28.4609 17.5164 28.875 18.0282 29.1526C18.1734 29.2314 18.3011 29.2992 18.409 29.3557C18.4786 29.3174 18.5562 29.2741 18.6416 29.2259C19.0579 28.9911 19.6561 28.6416 20.3754 28.1866C21.8159 27.2754 23.7324 25.9475 25.6445 24.2784C29.5142 20.9009 33.1582 16.3086 33.1582 11.0845C33.1582 8.64397 32.3435 6.30595 30.9988 4.59462C29.6586 2.88891 27.8284 1.84212 25.761 1.84212C22.9031 1.84212 20.6865 3.7034 19.248 6.63329L18.4212 8.31727L17.5945 6.63329C16.1559 3.70322 13.9392 1.84212 11.0815 1.84212C9.01423 1.84212 7.18399 2.88872 5.84376 4.59434ZM18.4212 30.395L18.0214 31.2248L18.434 31.4234L18.8419 31.2144L18.4212 30.395Z" fill="#4DB193"/>
</svg>
