<svg width="56" height="56" viewBox="0 0 56 56" fill="none" xmlns="http://www.w3.org/2000/svg">
<path d="M0 37.3386C0 36.4795 0.696454 35.7828 1.55556 35.7828H6.22223C7.08136 35.7828 7.77778 36.4793 7.77778 37.3386V54.4444C7.77778 55.3036 7.08136 56.0001 6.22223 56.0001H1.55556C0.696454 56.0001 0 55.3036 0 54.4444V37.3386Z" fill="#4DB294"/>
<path d="M23.2006 36.0753C23.2006 36.0753 19.6575 35.4145 18.2079 36.0753C17.1285 36.5674 12.9512 38.0674 10.8887 38.8013V52.5858C12.0824 52.5159 14.456 52.3904 15.4699 52.4313C21.3125 52.6667 24.2949 55.1284 30.1259 55.5703C33.3876 55.8175 36.246 56.3964 38.5007 55.5703C40.7555 54.7442 53.6399 48.4662 55.2503 46.814C56.861 45.162 56.0557 40.7013 51.0629 41.5274C46.0704 42.3533 39.467 46.3185 36.7291 46.1533C33.9913 45.9881 26.7438 44.6664 26.7438 44.6664L35.0651 44.767C35.0651 44.767 36.2407 44.8295 37.8566 43.675C39.4725 42.5207 40.9167 39.2143 38.5007 39.2143C36.085 39.2143 33.508 38.3882 33.508 38.3882L23.2006 36.0753Z" fill="#4DB294"/>
<path d="M31.1112 22.4469C31.1112 25.5584 28.7156 28.003 25.6667 28.003C22.6178 28.003 20.2223 25.5584 20.2223 22.4469C20.2223 19.3355 25.6667 12.4458 25.6667 12.4458C25.6667 12.4458 31.1112 19.5576 31.1112 22.4469Z" fill="#4DB294"/>
<path d="M54.4446 15.7629C54.4446 19.9701 50.9878 23.3359 46.6668 23.3359C42.3458 23.3359 38.889 19.9701 38.889 15.7629C38.889 11.5558 46.6668 0 46.6668 0C46.6668 0 54.4446 11.5558 54.4446 15.7629Z" fill="#4DB294"/>
</svg>
