<svg width="56" height="56" viewBox="0 0 56 56" fill="none" xmlns="http://www.w3.org/2000/svg">
<path d="M44.3331 7.00012H11.6664C9.09976 7.00012 7.02309 9.10012 7.02309 11.6668L6.99976 44.3335C6.99976 46.9001 9.09976 49.0001 11.6664 49.0001H44.3331C46.8998 49.0001 48.9998 46.9001 48.9998 44.3335V11.6668C48.9998 9.10012 46.8998 7.00012 44.3331 7.00012ZM39.6664 32.6668H32.6664V39.6668C32.6664 40.9501 31.6164 42.0001 30.3331 42.0001H25.6664C24.3831 42.0001 23.3331 40.9501 23.3331 39.6668V32.6668H16.3331C15.0498 32.6668 13.9998 31.6168 13.9998 30.3335V25.6668C13.9998 24.3835 15.0498 23.3335 16.3331 23.3335H23.3331V16.3335C23.3331 15.0501 24.3831 14.0001 25.6664 14.0001H30.3331C31.6164 14.0001 32.6664 15.0501 32.6664 16.3335V23.3335H39.6664C40.9498 23.3335 41.9998 24.3835 41.9998 25.6668V30.3335C41.9998 31.6168 40.9498 32.6668 39.6664 32.6668Z" fill="#4DB294"/>
</svg>
