<svg width="60" height="43" viewBox="0 0 60 43" fill="none" xmlns="http://www.w3.org/2000/svg">
<path d="M52.5 9.25455H52.2583C52.0683 8.74738 51.771 8.28725 51.3866 7.90566C51.0023 7.52407 50.54 7.23003 50.0315 7.04367L31.2815 0.225392C30.4536 -0.0751307 29.5464 -0.0751307 28.7185 0.225392L9.96849 7.04355C9.45996 7.22994 8.99771 7.524 8.61337 7.90561C8.22904 8.28722 7.9317 8.74736 7.7417 9.25455H7.5C5.51157 9.25681 3.60522 10.0477 2.19919 11.4537C0.793155 12.8598 0.00225489 14.7661 0 16.7546L0 22.3796C0.00225489 24.368 0.793155 26.2743 2.19919 27.6804C3.60522 29.0864 5.51157 29.8773 7.5 29.8796H8.718C10.2557 33.2501 13.231 36.2073 17.538 38.6001C22.4651 41.3373 27.7391 42.5752 29.2378 42.8892C29.7403 42.9954 30.2595 42.9954 30.7619 42.8892C32.2609 42.5752 37.5349 41.3373 42.462 38.6001C46.769 36.2073 49.7443 33.2501 51.282 29.8796H52.5C54.4884 29.8773 56.3948 29.0864 57.8008 27.6804C59.2068 26.2743 59.9977 24.368 60 22.3796V16.7546C59.9977 14.7661 59.2068 12.8598 57.8008 11.4537C56.3948 10.0477 54.4884 9.25681 52.5 9.25455ZM7.5 26.1296C6.50579 26.1284 5.55262 25.733 4.84961 25.0299C4.14659 24.3269 3.75114 23.3738 3.75 22.3796V16.7546C3.75114 15.7603 4.14659 14.8072 4.84961 14.1042C5.55262 13.4011 6.50579 13.0057 7.5 13.0046V24.2546C7.50037 24.8818 7.54365 25.5082 7.62955 26.1296H7.5ZM39.375 28.0046H20.625C20.1277 28.0046 19.6508 27.807 19.2992 27.4554C18.9475 27.1037 18.75 26.6268 18.75 26.1296C18.75 25.6323 18.9475 25.1554 19.2992 24.8037C19.6508 24.4521 20.1277 24.2546 20.625 24.2546H39.375C39.8723 24.2546 40.3492 24.4521 40.7008 24.8037C41.0525 25.1554 41.25 25.6323 41.25 26.1296C41.25 26.6268 41.0525 27.1037 40.7008 27.4554C40.3492 27.807 39.8723 28.0046 39.375 28.0046ZM39.375 20.5046H20.625C20.1277 20.5046 19.6508 20.307 19.2992 19.9554C18.9475 19.6037 18.75 19.1268 18.75 18.6296C18.75 18.1323 18.9475 17.6554 19.2992 17.3037C19.6508 16.9521 20.1277 16.7546 20.625 16.7546H39.375C39.8723 16.7546 40.3492 16.9521 40.7008 17.3037C41.0525 17.6554 41.25 18.1323 41.25 18.6296C41.25 19.1268 41.0525 19.6037 40.7008 19.9554C40.3492 20.307 39.8723 20.5046 39.375 20.5046ZM56.25 22.3796C56.2489 23.3738 55.8534 24.3269 55.1504 25.0299C54.4474 25.733 53.4942 26.1284 52.5 26.1296H52.3705C52.4563 25.5082 52.4996 24.8818 52.5 24.2546V13.0046C53.4942 13.0057 54.4474 13.4011 55.1504 14.1042C55.8534 14.8072 56.2489 15.7603 56.25 16.7546V22.3796Z" fill="#4DB294"/>
</svg>
