<svg width="52" height="52" viewBox="0 0 52 52" fill="none" xmlns="http://www.w3.org/2000/svg">
<path d="M22.75 48.75C20.5495 48.75 18.4251 48.2422 16.377 47.2266C14.3288 46.2109 12.7122 44.9499 11.5273 43.4434C10.3424 41.9368 9.75 40.4557 9.75 39C9.75 37.9844 9.47917 37.265 8.9375 36.8418C8.39583 36.4186 7.85417 36.4186 7.3125 36.8418C6.77083 37.265 6.5 37.9844 6.5 39V48.75C6.5 49.4609 6.13607 50.1803 5.4082 50.9082C4.68034 51.6361 3.96094 52 3.25 52C2.53906 52 1.81966 51.6361 1.0918 50.9082C0.363932 50.1803 0 49.4609 0 48.75V39C0 37.7135 0.0423177 36.6302 0.126953 35.75C0.211589 34.8698 0.380859 33.9896 0.634766 33.1094C0.888672 32.2292 1.2526 31.5267 1.72656 31.002C2.20052 30.4772 2.83529 30.054 3.63086 29.7324C4.42643 29.4108 5.38281 29.25 6.5 29.25C7.65104 29.25 8.70052 29.4193 9.64844 29.7578C10.5964 30.0964 11.3327 30.4688 11.8574 30.875C12.3822 31.2812 13.0339 31.6536 13.8125 31.9922C14.5911 32.3307 15.4036 32.5 16.25 32.5C17.1641 32.5 17.875 32.4915 18.3828 32.4746C18.8906 32.4577 19.61 32.4069 20.541 32.3223C21.472 32.2376 22.2337 32.0938 22.8262 31.8906C23.4186 31.6875 24.0703 31.4167 24.7812 31.0781C25.4922 30.7396 26.0762 30.2741 26.5332 29.6816C26.9902 29.0892 27.3542 28.4036 27.625 27.625C28.1328 26.1016 28.5137 24.4173 28.7676 22.5723C29.0215 20.7272 29.1654 19.2122 29.1992 18.0273C29.2331 16.8424 29.25 15.1667 29.25 13C27.625 13 26.1354 12.3229 24.7812 10.9688C23.4271 9.61458 22.75 8.125 22.75 6.5V3.25C22.75 2.53906 23.1139 1.81966 23.8418 1.0918C24.5697 0.363932 25.2891 0 26 0C26.7109 0 27.4303 0.363932 28.1582 1.0918C28.8861 1.81966 29.25 2.53906 29.25 3.25V4.875C29.25 5.95833 31.4167 6.5 35.75 6.5C36.3255 6.5 36.8926 6.33073 37.4512 5.99219C38.0098 5.65365 38.5091 5.28125 38.9492 4.875C39.3893 4.46875 40.0495 4.09635 40.9297 3.75781C41.8099 3.41927 42.7917 3.25 43.875 3.25C46.4141 3.25 48.403 4.84961 49.8418 8.04883C51.2806 11.248 52 15.5052 52 20.8203C52 25.2552 51.2383 29.2585 49.7148 32.8301C48.1914 36.4017 46.1009 39.3385 43.4434 41.6406C40.7858 43.9427 37.6966 45.7031 34.1758 46.9219C30.6549 48.1406 26.8464 48.75 22.75 48.75Z" fill="#4DB294"/>
</svg>
