<svg width="49" height="60" viewBox="0 0 49 60" fill="none" xmlns="http://www.w3.org/2000/svg">
<path d="M24.361 13.1175C27.9833 13.1175 30.9198 10.1811 30.9198 6.55876C30.9198 2.93646 27.9833 0 24.361 0C20.7387 0 17.8022 2.93646 17.8022 6.55876C17.8022 10.1811 20.7387 13.1175 24.361 13.1175Z" fill="#4DB294"/>
<path d="M45.56 14.9916H3.16226C2.32358 14.9916 1.51924 15.3247 0.926204 15.9178C0.333166 16.5108 0 17.3151 0 18.1538C0 18.9925 0.333166 19.7968 0.926204 20.3899C1.51924 20.9829 2.32358 21.3161 3.16226 21.3161H15.0945C15.9038 21.3161 16.8513 21.678 17.3877 23.0729C18.0143 24.6927 17.7075 27.821 17.321 30.2442L16.815 33.1078C16.816 33.1152 16.8152 33.1228 16.8128 33.1299C16.8103 33.137 16.8063 33.1435 16.801 33.1488L12.7486 56.1993C12.6016 57.036 12.7921 57.8969 13.2782 58.5936C13.7644 59.2903 14.5068 59.766 15.3428 59.9167C15.7562 59.9898 16.1799 59.9801 16.5895 59.8881C16.999 59.7961 17.3862 59.6236 17.7286 59.3808C18.0709 59.1379 18.3616 58.8294 18.5838 58.4733C18.806 58.1171 18.9552 57.7204 19.0228 57.3061L21.8231 41.284C21.8231 41.284 22.7214 37.4787 24.3611 37.4787C26.0277 37.4787 26.9073 41.284 26.9073 41.284L29.7077 57.3202C29.7754 57.7381 29.9257 58.1384 30.1497 58.4976C30.3737 58.8569 30.6669 59.168 31.0124 59.4128C31.3578 59.6576 31.7486 59.8312 32.1618 59.9234C32.575 60.0157 33.0024 60.0248 33.4192 59.9502C33.836 59.8755 34.2337 59.7187 34.5892 59.4888C34.9448 59.2589 35.251 58.9606 35.4901 58.6111C35.7291 58.2617 35.8963 57.8682 35.9817 57.4535C36.0671 57.0388 36.0692 56.6113 35.9877 56.1958L31.9341 33.1453C31.935 33.1379 31.9343 33.1305 31.9321 33.1234C31.9298 33.1163 31.9262 33.1098 31.9213 33.1043L31.4141 30.2407C31.0276 27.8174 30.7208 24.6891 31.3474 23.0694C31.8814 21.678 32.8594 21.3126 33.6055 21.3126H45.56C46.3987 21.3126 47.203 20.9794 47.796 20.3864C48.3891 19.7933 48.7222 18.989 48.7222 18.1503C48.7222 17.3116 48.3891 16.5073 47.796 15.9142C47.203 15.3212 46.3987 14.988 45.56 14.988V14.9916Z" fill="#4DB294"/>
</svg>
