<svg width="47" height="56" viewBox="0 0 47 56" fill="none" xmlns="http://www.w3.org/2000/svg">
<path d="M7.08531 0H14.0487C17.9601 0.00415625 21.1298 3.17384 21.134 7.08476V23.3495C21.1298 27.2609 17.9601 30.4306 14.0491 30.4347H7.0852C3.17384 30.4306 0.00415625 27.2609 0 23.35V7.08515C0.00415625 3.1739 3.17384 0.00421091 7.08477 5.46575e-05H7.0852L7.08531 0ZM14.0487 25.5651C15.2719 25.5638 16.263 24.5727 16.2644 23.3498V7.08515C16.263 5.86201 15.2718 4.87085 14.0489 4.86948H7.08531C5.86212 4.87085 4.87102 5.86206 4.86959 7.08498V23.3494C4.87096 24.5725 5.86217 25.5637 7.08509 25.565H7.0852L14.0487 25.5651ZM4.65052 25.5651H46.6992V28C46.6844 33.1811 44.5788 37.8675 41.182 41.2623C38.5023 43.9404 35.008 45.8037 31.1027 46.4483L30.9949 46.463L33.4905 56H4.65052V25.5651ZM41.6105 30.4348H9.52V51.1305H27.1844L24.7496 41.8101L28.0073 41.8296H28.0321C31.8255 41.8296 35.2599 40.2925 37.7465 37.8073C39.6956 35.8609 41.071 33.3403 41.5971 30.521L41.6105 30.4349L41.6105 30.4348ZM46.6018 23.4713H18.6992V18.6018H46.6018V23.4713Z" fill="#4DB294"/>
</svg>
