<svg width="52" height="58" viewBox="0 0 52 58" fill="none" xmlns="http://www.w3.org/2000/svg">
<path fill-rule="evenodd" clip-rule="evenodd" d="M21.6952 0H28.0753V4.21695C30.1046 4.09337 32.0716 4.21153 33.839 4.58463C26.3418 7.5355 22.8924 15.1188 22.3276 16.3607L22.2928 16.4368C20.4608 16.1586 18.476 15.9274 16.5978 15.9446C14.6624 16.1095 12.7846 16.3955 9.69205 18.1374C9.25598 18.4456 8.66805 18.951 7.86911 19.7217C7.81105 19.68 7.74884 19.6412 7.6675 19.5903C7.60242 19.5496 7.52475 19.5013 7.42713 19.4375C6.98547 19.149 6.34061 18.7585 5.55426 18.3685C3.9344 17.5648 1.94734 16.8794 0 16.8794V10.6935C3.36716 10.6935 6.39452 11.8366 8.46038 12.8616C9.17702 13.2171 9.80594 13.5725 10.3264 13.8883C10.7869 12.9054 11.3944 11.9913 12.1208 11.1485L8.61717 5.6507L14.2332 2.00363L17.4655 7.07597C18.7967 6.38948 20.2246 5.81983 21.6952 5.37214V0ZM38.8518 13.8623C36.5268 14.94 34.5142 16.7116 32.6997 20.1218C32.6997 20.1218 28.674 18.2808 25.4081 17.324C27.9146 12.2422 30.8314 9.383 35.1327 7.38923C39.2935 5.46059 44.2572 4.96675 50.1538 5.17052L49.8747 12.7603C44.4339 12.5722 41.3172 12.7195 38.8518 13.8623ZM10.9778 21.0853C-0.606281 31.4178 15.9423 57.2491 29.1814 57.2491C42.4204 57.2491 60.6501 31.4408 47.385 19.6093C47.0789 19.3362 46.811 19.0906 46.5621 18.8625C45.4657 17.8572 44.736 17.1882 42.7129 15.9853C38.6419 15.9853 36.1886 20.0575 35.0718 22.5384C35.015 22.6644 34.945 22.7819 34.864 22.8898L32.2893 30.0523L31.3615 33.3831C31.2635 33.7348 31.2891 34.1093 31.434 34.4444L32.5177 36.9489L38.129 36.2976L38.4968 39.4663L33.2193 40.0789L33.5623 45.1061L30.3797 45.3232L29.9518 39.0519L28.5064 35.7111C28.0714 34.706 27.9945 33.582 28.2883 32.527L28.3161 32.4275L25.0718 33.8946L22.9506 39.2567L19.9842 38.0833L21.6642 33.8367L16.5434 32.6302L17.2749 29.5252L23.6638 31.0304L29.4959 28.3927L31.4572 22.937C26.4042 20.563 16.0275 16.5812 10.9778 21.0853Z" fill="#4DB294"/>
</svg>
