<svg width="60" height="60" viewBox="0 0 60 60" fill="none" xmlns="http://www.w3.org/2000/svg">
<path d="M39.9251 23.278C39.2914 23.5476 38.9963 24.2801 39.2659 24.9138C39.5355 25.5474 40.2679 25.8426 40.9016 25.573C44.6821 23.9528 45.8877 20.084 47.1367 16.0761C48.6767 11.1344 50.2941 5.94464 57.7168 6.24152C58.4045 6.26847 58.9839 5.73286 59.0108 5.04519C59.0377 4.35752 58.5021 3.77818 57.8145 3.75124C48.4799 3.3779 46.5712 9.50234 44.7539 15.3339C43.6788 18.7839 42.641 22.1141 39.9251 23.278Z" fill="#4DB294"/>
<path d="M27.7165 1.35737C27.7758 0.672425 27.2686 0.0690009 26.5837 0.00971574C25.8987 -0.0495702 25.2953 0.457612 25.236 1.14256C25.0612 3.08801 25.0255 5.1471 25.3841 7.02736C25.7697 9.04944 26.6025 10.8692 28.1734 12.1647C29.0638 12.8991 30.0067 13.4935 30.9223 14.0708C33.2958 15.567 35.4463 16.9228 34.4274 20.2452C34.2251 20.9031 34.5946 21.6005 35.2526 21.8028C35.9105 22.005 36.6079 21.6356 36.8102 20.9776C38.3885 15.8309 35.4707 13.9914 32.2504 11.9614C31.3953 11.4223 30.5147 10.8671 29.7554 10.2409C28.6965 9.36761 28.1192 8.05727 27.8353 6.56839C27.5243 4.93782 27.5595 3.1048 27.7165 1.35737Z" fill="#4DB294"/>
<path d="M48.8323 2.90187C48.6543 2.23579 47.97 1.84012 47.304 2.01807C46.6379 2.19602 46.2422 2.88033 46.4202 3.5464L47.6643 8.18961C47.8422 8.85569 48.5266 9.25135 49.1926 9.0734C49.8587 8.89545 50.2544 8.21115 50.0764 7.54508L48.8323 2.90187Z" fill="#4DB294"/>
<path d="M31.7495 6.00739C32.0461 5.38717 31.7837 4.64382 31.1635 4.3472C30.5433 4.05059 29.8 4.31292 29.5033 4.93314L27.4239 9.2671C27.1272 9.88732 27.3896 10.6307 28.0098 10.9273C28.63 11.2239 29.3734 10.9616 29.67 10.3413L31.7495 6.00739Z" fill="#4DB294"/>
<path d="M33.3189 19.9058C36.2406 19.9058 38.8858 21.0901 40.8006 23.0049C42.7154 24.9197 43.8997 27.5649 43.8997 30.4865C43.8997 33.4081 42.7154 36.0533 40.8006 37.9681C38.8858 39.8829 36.2406 41.0673 33.3189 41.0673C30.3973 41.0673 27.752 39.8829 25.8373 37.9682C23.9225 36.0534 22.7382 33.4082 22.7382 30.4865C22.7382 27.5649 23.9225 24.9196 25.8373 23.0049C27.752 21.0901 30.3973 19.9058 33.3189 19.9058ZM39.033 24.7725C37.5707 23.3102 35.5505 22.4058 33.3189 22.4058C31.0874 22.4058 29.0671 23.3102 27.6049 24.7725C26.1426 26.2347 25.2382 28.2549 25.2382 30.4865C25.2382 32.7181 26.1426 34.7383 27.6049 36.2005C29.0671 37.6628 31.0874 38.5672 33.3189 38.5672C35.5505 38.5672 37.5707 37.6628 39.033 36.2005C40.4952 34.7383 41.3996 32.718 41.3996 30.4865C41.3996 28.255 40.4952 26.2347 39.033 24.7725Z" fill="#4DB294"/>
<path d="M12.0563 57.6025C11.4226 57.8721 11.1275 58.6045 11.3971 59.2382C11.6667 59.8719 12.3991 60.167 13.0328 59.8974C14.099 59.4405 15.4503 59.0824 16.85 58.7115C20.7728 57.6723 25.0362 56.5426 26.4091 52.6732C27.0153 50.9649 26.9217 48.8694 26.829 46.7908C26.7857 45.8208 26.7425 44.8546 26.7772 43.9887C26.8563 42.0095 27.4156 40.4687 29.8481 40.5659C30.5357 40.5929 31.1151 40.0573 31.142 39.3696C31.169 38.6819 30.6334 38.1026 29.9457 38.0756C25.447 37.8957 24.4217 40.5186 24.2869 43.891C24.248 44.8651 24.2932 45.8796 24.3387 46.8982C24.4205 48.7325 24.5031 50.5819 24.0556 51.8431C23.1239 54.4689 19.5258 55.4223 16.2153 56.2994C14.7244 56.6944 13.2853 57.0758 12.0563 57.6025Z" fill="#4DB294"/>
<path d="M2.67862 36.8033C2.03414 36.5579 1.3127 36.8815 1.0673 37.526C0.821894 38.1705 1.14545 38.8919 1.78994 39.1373C3.57354 39.8181 5.43249 40.5188 7.29909 40.8141C9.31093 41.1323 11.2489 40.9575 12.956 39.774C14.4581 38.7327 15.6036 36.9808 16.7398 35.2431C17.2807 34.4158 17.8195 33.5918 18.3306 32.9381C19.5511 31.3773 20.9054 30.4527 22.8234 31.9525C23.3654 32.3758 24.1481 32.2796 24.5715 31.7376C24.9948 31.1956 24.8986 30.4129 24.3566 29.9895C20.8102 27.2163 18.4465 28.7465 16.3677 31.4049C15.7446 32.2017 15.1984 33.0371 14.65 33.8759C13.6428 35.4164 12.6272 36.9695 11.5399 37.7233C10.4455 38.482 9.10848 38.5791 7.67999 38.3531C6.10631 38.1042 4.35892 37.4446 2.67862 36.8033Z" fill="#4DB294"/>
<path d="M6.37637 15.9174C6.00423 15.3376 5.2325 15.1693 4.65274 15.5414C4.07298 15.9136 3.90463 16.6853 4.27677 17.265C5.31097 18.8775 6.39358 20.5506 7.70774 21.8844C9.13863 23.3367 10.8044 24.348 12.8864 24.4099C14.7003 24.4639 16.6663 23.7333 18.6163 23.0087C19.5188 22.6733 20.4177 22.3392 21.263 22.1042C23.1729 21.5731 24.8121 21.6329 25.4636 23.9758C25.647 24.6392 26.3335 25.0283 26.9969 24.845C27.6602 24.6616 28.0493 23.9751 27.866 23.3117C26.6592 18.9716 23.8493 18.798 20.5989 19.7019C19.6701 19.9601 18.7105 20.3168 17.7472 20.6748C16.0258 21.3144 14.2902 21.9594 12.9548 21.9197C11.6294 21.8803 10.4988 21.1652 9.48512 20.1364C8.35458 18.989 7.34387 17.4258 6.37637 15.9174Z" fill="#4DB294"/>
<path d="M51.2442 55.7349C51.1552 56.4171 51.6362 57.0424 52.3184 57.1314C53.0007 57.2204 53.626 56.7394 53.7149 56.0572C53.9649 54.149 54.2169 52.1635 54.0736 50.3169C53.9159 48.2846 53.294 46.4377 51.7414 45.0476C50.3871 43.8349 48.4135 43.1263 46.4561 42.4234C45.5478 42.0973 44.6431 41.7724 43.8467 41.4078C42.0455 40.5832 40.8319 39.4807 41.8454 37.2668C42.1312 36.6412 41.8558 35.9023 41.2302 35.6165C40.6046 35.3306 39.8656 35.6061 39.5798 36.2317C37.706 40.3249 39.7431 42.2687 42.8116 43.6734C43.6895 44.0753 44.6509 44.4206 45.6162 44.7672C47.3451 45.3879 49.0883 46.0138 50.0813 46.903C51.0683 47.7868 51.4715 49.0621 51.5833 50.5025C51.7095 52.1285 51.4758 53.9667 51.2442 55.7349Z" fill="#4DB294"/>
<path d="M36.4292 26.1261C37.4613 26.1261 38.3959 26.5446 39.0724 27.2211C39.749 27.8976 40.1674 28.8322 40.1674 29.8643C40.1674 30.8965 39.749 31.8311 39.0724 32.5076C38.3959 33.1841 37.4613 33.6026 36.4292 33.6026C35.3971 33.6026 34.4625 33.1841 33.7859 32.5076C33.1094 31.8311 32.6909 30.8965 32.6909 29.8643C32.6909 28.8322 33.1094 27.8976 33.7859 27.2211C34.4625 26.5446 35.3971 26.1261 36.4292 26.1261ZM37.3048 28.9887C37.0809 28.7648 36.7713 28.6262 36.4292 28.6262C36.0871 28.6262 35.7775 28.7648 35.5535 28.9887C35.3295 29.2127 35.191 29.5223 35.191 29.8643C35.191 30.2064 35.3295 30.516 35.5535 30.74C35.7775 30.9639 36.0871 31.1025 36.4292 31.1025C36.7713 31.1025 37.0809 30.9639 37.3048 30.74C37.5288 30.516 37.6674 30.2064 37.6674 29.8643C37.6674 29.5223 37.5288 29.2127 37.3048 28.9887Z" fill="#4DB294"/>
<path d="M9.11434 23.3181C9.79657 23.2291 10.2775 22.6038 10.1885 21.9216C10.0996 21.2394 9.47426 20.7584 8.79204 20.8474L4.02707 21.4818C3.34484 21.5708 2.86387 22.1961 2.95287 22.8783C3.04186 23.5605 3.66716 24.0415 4.34938 23.9525L9.11434 23.3181Z" fill="#4DB294"/>
<path d="M8.13088 39.7016C8.19017 39.0167 7.68298 38.4132 6.99803 38.354C6.31309 38.2947 5.70966 38.8018 5.65038 39.4868L5.222 44.2747C5.16271 44.9596 5.66989 45.5631 6.35484 45.6224C7.03979 45.6816 7.64321 45.1745 7.7025 44.4895L8.13088 39.7016Z" fill="#4DB294"/>
<path d="M57.8114 50.5896C58.464 50.3739 58.8181 49.6699 58.6024 49.0173C58.3867 48.3647 57.6827 48.0106 57.0301 48.2263L52.47 49.7469C51.8174 49.9627 51.4632 50.6666 51.679 51.3192C51.8947 51.9718 52.5986 52.326 53.2512 52.1103L57.8114 50.5896Z" fill="#4DB294"/>
<path d="M51.3328 48.4635C51.9854 48.2478 52.3395 47.5438 52.1238 46.8912C51.9081 46.2386 51.2041 45.8845 50.5515 46.1002L45.9913 47.6208C45.3387 47.8365 44.9846 48.5405 45.2003 49.1931C45.416 49.8457 46.12 50.1998 46.7726 49.9841L51.3328 48.4635Z" fill="#4DB294"/>
</svg>
