<svg width="54" height="54" viewBox="0 0 54 54" fill="none" xmlns="http://www.w3.org/2000/svg">
<path d="M17.7147 6.86282C17.9056 5.79501 18.0401 4.79619 18.2746 3.82105C18.4233 3.14507 18.664 2.49266 18.9899 1.88208C19.1079 1.63635 19.2884 1.42594 19.5134 1.27195C19.7383 1.11796 19.9997 1.02579 20.2715 1.00467C20.5433 0.983559 20.8159 1.03424 21.0619 1.15165C21.3079 1.26905 21.5187 1.44905 21.6733 1.67361C22.029 2.07642 22.285 2.55726 22.4205 3.07728C22.9035 5.16539 23.2571 7.28135 23.4792 9.41306C23.535 9.97611 23.4742 10.5446 23.3005 11.0831C23.1269 11.6216 22.8441 12.1185 22.4699 12.5429C22.0957 12.9673 21.6381 13.3101 21.1256 13.5498C20.6131 13.7895 20.0567 13.9211 19.4911 13.9363C18.6969 14.0294 17.8927 14.0364 17.049 14.0854C17.014 14.4316 16.9786 14.8051 16.9383 15.1782C16.894 15.8077 16.6922 16.416 16.3515 16.9472C16.0108 17.4784 15.5421 17.9155 14.9885 18.2184C14.5503 18.4651 14.4939 18.6969 14.5812 19.1696C14.8982 20.4162 14.8891 21.7234 14.5546 22.9654C14.2201 24.2074 13.5716 25.3424 12.6714 26.2611C13.3274 27.49 13.7073 28.8472 13.7845 30.238C13.8616 31.6289 13.6343 33.0198 13.1183 34.3137C12.917 34.7078 12.8414 35.1542 12.9015 35.5927C12.9616 36.0311 13.1547 36.4407 13.4546 36.7661C14.7401 38.4294 14.931 39.4015 15.0606 42.4403C15.6672 42.6522 16.272 42.8834 16.8912 43.0661C17.0799 43.1029 17.2756 43.0676 17.4395 42.9671C18.6367 42.12 20.0473 41.6251 21.5114 41.5386C22.9755 41.4521 24.4345 41.7775 25.7232 42.4777C25.8061 42.5121 25.8959 42.5266 25.9855 42.5199C26.075 42.5133 26.1618 42.4858 26.2387 42.4395C27.5917 41.3972 29.255 40.8385 30.9628 40.8527C32.6707 40.867 34.3244 41.4533 35.6598 42.5181L39.2627 40.7872C38.9042 39.6177 38.8165 38.382 39.0063 37.1736C39.1961 35.9653 39.6584 34.816 40.3583 33.8127C40.0921 33.3534 39.8237 32.9397 39.6037 32.5019C39.212 31.7293 39.0052 30.8763 38.9993 30.0101C38.9935 29.1439 39.1889 28.2882 39.5702 27.5104C39.6252 27.3948 39.6542 27.2684 39.6549 27.1403C39.6556 27.0123 39.628 26.8856 39.5743 26.7693C38.7575 25.8675 38.1808 24.7746 37.8972 23.5914C37.6136 22.4082 37.6323 21.1726 37.9516 19.9985C38.0096 19.7783 38.0169 19.5479 37.9731 19.3244C37.9292 19.101 37.8352 18.8904 37.6982 18.7085C36.5766 17.1678 36.0937 15.2532 36.3505 13.3648C36.4917 12.4955 36.8638 11.68 37.4277 11.0035C37.9917 10.327 38.7269 9.81424 39.5566 9.51882C41.3161 8.74181 43.2844 8.57325 45.1504 9.03978C46.4824 9.40561 47.6347 10.2456 48.3907 11.4017C49.1466 12.5579 49.4539 13.9504 49.2548 15.3173C49.1687 15.7232 49.1803 16.1438 49.2887 16.5443C49.3971 16.9449 49.5993 17.3139 49.8785 17.6209C50.6016 18.442 51.0987 19.4371 51.321 20.5085C51.5433 21.5798 51.483 22.6906 51.1462 23.7316C51.0979 23.9984 51.1518 24.2735 51.297 24.5024C52.0184 25.551 52.4444 26.7742 52.5306 28.0441C52.6168 29.3139 52.3598 30.5835 51.7868 31.7199C51.6012 32.1017 51.7585 32.2905 51.9261 32.5436C52.6509 33.6186 53.0255 34.8914 52.9987 36.1876C52.9718 37.4839 52.5448 38.7401 51.7762 39.7842C51.5123 40.0596 51.335 40.4064 51.2664 40.7816C51.1977 41.1568 51.2407 41.5439 51.3901 41.8949C52.4827 45.6367 50.6562 49.0277 47.1282 49.8803C46.5071 50.0367 45.9218 50.3111 45.4044 50.6886C44.0914 51.7208 42.5119 52.3582 40.8502 52.5264C39.1886 52.6947 37.5134 52.3868 36.0201 51.6388C35.7211 51.5347 35.3935 51.5498 35.1053 51.6809C33.7551 52.3784 32.2569 52.7409 30.7372 52.7378C29.2175 52.7346 27.7208 52.366 26.3735 51.6628C26.2455 51.6235 26.111 51.6104 25.9778 51.6243C25.8447 51.6383 25.7157 51.6789 25.5987 51.7439C24.452 52.4369 23.1593 52.8526 21.8236 52.958C20.488 53.0633 19.1461 52.8554 17.9049 52.3509C17.3837 52.0845 16.8149 51.9237 16.2314 51.8779C15.6478 51.832 15.061 51.9019 14.5045 52.0836C13.4466 52.3683 12.3315 52.363 11.2763 52.0683C10.2211 51.7735 9.26465 51.2002 8.50739 50.4084C8.2494 50.1693 7.94613 49.9843 7.61547 49.8642C3.61421 48.5661 2.22353 46.2243 3.14179 42.1091C3.26491 41.6805 3.28783 41.2293 3.20876 40.7905C3.12968 40.3516 2.95075 39.9368 2.68578 39.5781C1.8139 38.3471 1.25938 36.9199 1.07142 35.4232C0.883461 33.9265 1.06788 32.4065 1.6083 30.9982C1.69124 30.795 1.7149 30.5724 1.67652 30.3563C1.37847 29.1778 1.35908 27.9461 1.61989 26.7588C1.8807 25.5715 2.41454 24.4613 3.17908 23.5162C3.3618 23.23 3.43132 22.8861 3.37406 22.5515C3.041 21.2355 3.12478 19.8486 3.61382 18.5824C4.10286 17.3161 4.97303 16.2329 6.10414 15.4825C6.28521 15.3613 6.43413 15.198 6.53809 15.0066C6.64205 14.8152 6.69792 14.6013 6.70091 14.3835C6.78632 12.8979 7.30461 11.4699 8.19188 10.2753C8.94758 9.3181 9.99303 8.63143 11.1717 8.31815C11.8112 8.13907 12.4352 7.90855 13.0376 7.62885C14.4682 6.86098 16.1138 6.59145 17.7147 6.86282Z" fill="#4DB294"/>
<path d="M17.7147 6.86282C17.9056 5.79502 18.0401 4.79619 18.2746 3.82105C18.4233 3.14507 18.664 2.49266 18.9899 1.88208C19.1079 1.63635 19.2884 1.42594 19.5134 1.27195C19.7383 1.11796 19.9997 1.02579 20.2715 1.00467C20.5433 0.983559 20.8159 1.03424 21.0619 1.15165C21.3079 1.26905 21.5187 1.44905 21.6733 1.67361C22.029 2.07642 22.285 2.55726 22.4205 3.07728C22.9035 5.16539 23.2571 7.28135 23.4792 9.41306C23.535 9.97611 23.4742 10.5446 23.3005 11.0831C23.1269 11.6216 22.8441 12.1185 22.4699 12.5429C22.0957 12.9673 21.6381 13.3101 21.1256 13.5498C20.6131 13.7895 20.0567 13.9211 19.4911 13.9363C18.6969 14.0294 17.8927 14.0364 17.049 14.0854C17.014 14.4316 16.9786 14.8051 16.9383 15.1782C16.894 15.8077 16.6922 16.416 16.3515 16.9472C16.0108 17.4784 15.5421 17.9155 14.9885 18.2184C14.5503 18.4651 14.4939 18.6969 14.5812 19.1696C14.8982 20.4162 14.8891 21.7234 14.5546 22.9654C14.2201 24.2074 13.5716 25.3424 12.6714 26.2611C13.3274 27.49 13.7073 28.8472 13.7845 30.238C13.8616 31.6289 13.6343 33.0198 13.1183 34.3137C12.917 34.7078 12.8414 35.1542 12.9015 35.5927C12.9616 36.0311 13.1547 36.4406 13.4546 36.7661C14.7401 38.4294 14.931 39.4015 15.0606 42.4403C15.6672 42.6522 16.272 42.8834 16.8912 43.0661C17.0799 43.1029 17.2756 43.0676 17.4395 42.9671C18.6367 42.12 20.0473 41.6251 21.5114 41.5386C22.9755 41.4521 24.4345 41.7775 25.7232 42.4777C25.8061 42.5121 25.8959 42.5265 25.9855 42.5199C26.075 42.5133 26.1618 42.4858 26.2387 42.4395C27.5917 41.3972 29.255 40.8385 30.9628 40.8527C32.6707 40.867 34.3244 41.4533 35.6598 42.5181L39.2627 40.7872C38.9042 39.6177 38.8165 38.382 39.0063 37.1736C39.1961 35.9653 39.6584 34.816 40.3583 33.8127C40.0921 33.3534 39.8237 32.9397 39.6037 32.5019C39.212 31.7293 39.0052 30.8763 38.9993 30.0101C38.9935 29.1439 39.189 28.2882 39.5702 27.5104C39.6252 27.3948 39.6542 27.2684 39.6549 27.1403C39.6556 27.0123 39.628 26.8856 39.5743 26.7693C38.7575 25.8675 38.1808 24.7746 37.8972 23.5914C37.6136 22.4082 37.6323 21.1726 37.9516 19.9985C38.0096 19.7783 38.0169 19.5479 37.9731 19.3244C37.9292 19.101 37.8352 18.8904 37.6982 18.7085C36.5766 17.1678 36.0937 15.2532 36.3505 13.3648C36.4917 12.4955 36.8638 11.68 37.4277 11.0035C37.9917 10.327 38.7269 9.81424 39.5566 9.51882C41.3161 8.74181 43.2844 8.57325 45.1504 9.03978C46.4824 9.40561 47.6347 10.2456 48.3907 11.4017C49.1466 12.5579 49.4539 13.9504 49.2548 15.3173C49.1687 15.7232 49.1803 16.1438 49.2887 16.5443C49.3971 16.9449 49.5993 17.3139 49.8785 17.6209C50.6016 18.442 51.0987 19.4371 51.321 20.5085C51.5433 21.5798 51.483 22.6906 51.1462 23.7316C51.0979 23.9984 51.1518 24.2735 51.297 24.5024C52.0184 25.551 52.4444 26.7742 52.5306 28.0441C52.6168 29.3139 52.3598 30.5835 51.7868 31.7199C51.6012 32.1017 51.7585 32.2905 51.9261 32.5436C52.6509 33.6186 53.0255 34.8914 52.9987 36.1876C52.9718 37.4839 52.5448 38.7401 51.7762 39.7842C51.5123 40.0596 51.335 40.4064 51.2664 40.7816C51.1977 41.1568 51.2407 41.5439 51.3901 41.8949C52.4827 45.6367 50.6562 49.0277 47.1282 49.8803C46.5071 50.0367 45.9218 50.3111 45.4044 50.6886C44.0914 51.7208 42.5119 52.3582 40.8502 52.5264C39.1886 52.6947 37.5134 52.3868 36.0201 51.6388C35.7211 51.5347 35.3935 51.5498 35.1053 51.6809C33.7551 52.3784 32.2569 52.7409 30.7372 52.7378C29.2175 52.7346 27.7208 52.366 26.3735 51.6628C26.2455 51.6235 26.111 51.6104 25.9778 51.6243C25.8447 51.6383 25.7157 51.6789 25.5987 51.7439C24.452 52.4369 23.1593 52.8526 21.8236 52.958C20.488 53.0633 19.1461 52.8554 17.9049 52.3509C17.3837 52.0845 16.8149 51.9237 16.2314 51.8779C15.6478 51.832 15.061 51.9019 14.5045 52.0836C13.4466 52.3683 12.3315 52.363 11.2763 52.0683C10.2211 51.7735 9.26465 51.2002 8.50739 50.4084C8.2494 50.1693 7.94613 49.9843 7.61547 49.8642C3.61421 48.5661 2.22353 46.2243 3.14179 42.1091C3.26491 41.6805 3.28783 41.2293 3.20876 40.7905C3.12968 40.3516 2.95075 39.9368 2.68578 39.5781C1.8139 38.3471 1.25938 36.9199 1.07142 35.4232C0.883461 33.9265 1.06788 32.4065 1.6083 30.9982C1.69124 30.795 1.7149 30.5724 1.67652 30.3563C1.37847 29.1778 1.35908 27.9461 1.61989 26.7588C1.8807 25.5715 2.41454 24.4613 3.17908 23.5162C3.3618 23.23 3.43132 22.8861 3.37406 22.5515C3.041 21.2355 3.12478 19.8486 3.61382 18.5824C4.10286 17.3161 4.97303 16.2329 6.10414 15.4825C6.28521 15.3613 6.43413 15.198 6.53809 15.0066C6.64204 14.8152 6.69792 14.6013 6.70091 14.3835C6.78632 12.8979 7.30461 11.4699 8.19188 10.2753C8.94758 9.3181 9.99303 8.63143 11.1717 8.31815C11.8112 8.13907 12.4352 7.90855 13.0376 7.62885C14.4682 6.86098 16.1138 6.59145 17.7147 6.86282Z" stroke="#4DB294" stroke-width="1.69366" stroke-linecap="round" stroke-linejoin="round"/>
</svg>
