<svg width="52" height="58" viewBox="0 0 52 58" fill="none" xmlns="http://www.w3.org/2000/svg">
<path d="M51.6761 32.4735C51.4474 31.8447 51.1044 31.3303 50.7043 30.8158C49.9611 27.8433 48.4749 24.3563 46.3027 20.9836C42.8728 15.4959 33.7838 6.63552 30.354 5.26359C30.1825 5.20642 30.011 5.20642 29.8967 5.14926C29.7823 4.2918 29.2679 3.49151 28.1817 2.97704C24.1231 1.09063 20.236 -0.795775 17.4921 0.347501C14.7483 1.49078 13.262 3.20569 16.1774 9.83669C18.9784 11.8946 24.5233 7.77879 26.2953 10.4083C28.0674 13.0379 30.011 21.7839 33.2693 27.4431C32.469 27.3288 31.6116 27.2716 30.7541 27.2716C26.9813 27.2716 23.6086 28.3578 21.2649 30.0727C19.207 26.9287 15.6629 24.8136 11.6042 24.8136C6.23085 24.8136 1.71491 28.5292 0.514474 33.5025H0L0.285819 57.1683L6.11652 57.054L8.28875 53.3383C11.9472 51.9092 16.2917 48.2508 19.3214 44.3636C23.4372 44.9352 28.6391 45.2782 30.7541 45.2782C32.9835 45.2782 41.5581 44.3064 43.959 43.3918C49.6753 41.3339 53.1052 36.4178 51.6761 32.4735Z" fill="#4DB294"/>
</svg>
